<svg height="512" viewBox="0 0 88 88" width="512" xmlns="http://www.w3.org/2000/svg"><g id="Store"><path d="m56 10h-48l-6 14v2h60v-2z" fill="#376cfb"/><path d="m61.9238 44.1743a1.0008 1.0008 0 0 0 -.7749.81 9.0373 9.0373 0 0 0 1.9561 7.5957 7.134 7.134 0 0 0 5.3711 2.4179 7.5778 7.5778 0 0 0 1.6-.1723 1.0008 1.0008 0 0 0 .7749-.81 9.0373 9.0373 0 0 0 -1.956-7.5956 7.1813 7.1813 0 0 0 -6.9712-2.2457z" fill="#4294ff"/><path d="m84.8511 44.9839a1.0008 1.0008 0 0 0 -.7749-.81 7.183 7.183 0 0 0 -6.9712 2.2461 9.0373 9.0373 0 0 0 -1.9561 7.5962 1.0008 1.0008 0 0 0 .7749.81 7.5813 7.5813 0 0 0 1.6.1723 7.134 7.134 0 0 0 5.3712-2.4185 9.0373 9.0373 0 0 0 1.9561-7.5961z" fill="#4294ff"/><path d="m78 40a9.1162 9.1162 0 0 0 -4.4971-7.8643 1.0013 1.0013 0 0 0 -1.0058 0 9.1249 9.1249 0 0 0 0 15.7286 1 1 0 0 0 1.0058 0 9.1162 9.1162 0 0 0 4.4971-7.8643z" fill="#4294ff"/><path d="m79.707 50.293a.9994.9994 0 0 0 -1.414 0l-3.0713 3.0713a11.0979 11.0979 0 0 0 -1.2217 1.4657v-13.83a1 1 0 0 0 -2 0v13.83a11.0979 11.0979 0 0 0 -1.2217-1.4656l-3.0713-3.0714a1 1 0 0 0 -1.414 1.414l3.0713 3.0713a8.9411 8.9411 0 0 1 2.6357 6.3638v1.8579a1 1 0 0 0 2 0v-1.8579a8.9411 8.9411 0 0 1 2.6357-6.3638l3.0713-3.0713a.9994.9994 0 0 0 0-1.414z" fill="#376cfb"/><rect fill="#e6ecff" height="52" rx="1" width="54" x="5" y="26"/><path d="m2 24v6a6 6 0 0 0 12 0 6 6 0 0 0 12 0 6 6 0 0 0 12 0 6 6 0 0 0 12 0 6 6 0 0 0 12 0v-6z" fill="#376cfb"/><path d="m38 24v6a6 6 0 0 0 12 0v-6z" fill="#2946ed"/><path d="m14 24v6a6 6 0 0 0 12 0v-6z" fill="#2946ed"/><g fill="#4294ff"><path d="m18 10-4 14h-12l6-14z"/><path d="m38 24h-12l1.29-14h9.42z"/><path d="m62 24h-12l-4-14h10z"/><path d="m82.7778 62.3711a1 1 0 0 0 -.7778-.3711h-18a1 1 0 0 0 -.978 1.2095l3 14a1.0005 1.0005 0 0 0 .978.7905h12a1.0005 1.0005 0 0 0 .978-.79l3-14a1.0025 1.0025 0 0 0 -.2002-.8389z"/><path d="m20 47a9.01 9.01 0 0 0 -9 9v21a1 1 0 0 0 1 1h16a1 1 0 0 0 1-1v-21a9.01 9.01 0 0 0 -9-9z"/></g><circle cx="24" cy="61" fill="#376cfb" r="1"/><path d="m35 48h18v14h-18z" fill="#376cfb"/><path d="m53 47h-18a1 1 0 0 0 -1 1v14a1 1 0 0 0 1 1h18a1 1 0 0 0 1-1v-14a1 1 0 0 0 -1-1zm-1 7h-7v-5h7zm-9-5v5h-7v-5zm-7 7h7v5h-7zm9 5v-5h7v5z" fill="#4294ff"/><path d="m55 63h-22a1 1 0 0 1 0-2h22a1 1 0 0 1 0 2z" fill="#4294ff"/><path d="m86 78h-84a1 1 0 0 1 0-2h84a1 1 0 0 1 0 2z" fill="#376cfb"/><path d="m83.5 51.79a5.67 5.67 0 0 1 -.6.79 7.1481 7.1481 0 0 1 -5.38 2.42 8.0631 8.0631 0 0 1 -1.6-.17l-.12-.03 1.2-1.8s4 1 6.5-1.21z" fill="#376cfb"/><path d="m62.5 51.79a5.67 5.67 0 0 0 .6.79 7.1481 7.1481 0 0 0 5.38 2.42 8.0631 8.0631 0 0 0 1.6-.17l.12-.03-1.2-1.8s-4 1-6.5-1.21z" fill="#376cfb"/></g></svg>