<svg id="_01-Lungs" height="512" viewBox="0 0 64 64" width="512" xmlns="http://www.w3.org/2000/svg" data-name="01-Lungs"><path d="m9.04 29.506-1.725-1.012q.607-1.035 1.24-2.031l1.689 1.073q-.615.964-1.204 1.97z"/><path d="m5 55a5.017 5.017 0 0 1 -5-5.022v-1.006c0-4.46 2.306-11.357 6.168-18.45l1.757.957c-3.655 6.71-5.925 13.414-5.925 17.493v1.006a3.014 3.014 0 0 0 3 3.022l14-.011a5.023 5.023 0 0 0 5-5.033v-27.436a4.124 4.124 0 0 0 -1-2.78 2.178 2.178 0 0 0 -1.869-.8c-2.369.151-5.953 3.376-9.589 8.628l-1.642-1.137c2.374-3.43 6.974-9.223 11.106-9.486a4.208 4.208 0 0 1 3.486 1.455 6.122 6.122 0 0 1 1.508 4.12v27.436a7.025 7.025 0 0 1 -7 7.033z"/><path d="m59 55-14-.011a7.025 7.025 0 0 1 -7-7.033v-1.956h2v1.957a5.022 5.022 0 0 0 5 5.033l14 .01a3.014 3.014 0 0 0 3-3.022v-1.006c0-9.524-11.108-29.117-18.008-31.765a2.411 2.411 0 0 0 -3 .533 4.124 4.124 0 0 0 -.992 2.78v23.48h-2v-23.48a6.12 6.12 0 0 1 1.508-4.12 4.365 4.365 0 0 1 5.2-1.062c8.139 3.125 19.292 24.137 19.292 33.634v1.006a5.017 5.017 0 0 1 -5 5.022z"/><path d="m35 13h-6a3 3 0 0 1 0-6h6a3 3 0 0 1 0 6zm-6-4a1 1 0 0 0 0 2h6a1 1 0 0 0 0-2z"/><path d="m26 35h-1v-2h1a1.882 1.882 0 0 0 2-2v-10h2v10a3.887 3.887 0 0 1 -4 4z"/><path d="m28 17h2v2h-2z"/><path d="m28 12h2v3h-2z"/><path d="m39 35h-1a3.887 3.887 0 0 1 -4-4v-19h2v19a1.882 1.882 0 0 0 2 2h1z"/><path d="m39 40h-1c-3.14 0-4.97-1.262-5.965-2.733-1.477 2.094-4.306 2.733-6.035 2.733h-1v-2h1c.2 0 5-.07 5-4a1 1 0 0 1 2 0c.005.4.191 4 5 4h1z"/><path d="m42 25h2v17h-2z"/><path d="m42 44h2v2h-2z"/></svg>