<svg enable-background="new 0 0 128 128" height="512" viewBox="0 0 128 128" width="512" xmlns="http://www.w3.org/2000/svg"><g id="Layer_2"><path d="m18.75 30.98h90.5v47.12h-90.5z" fill="#4c545e"/><path d="m75.55 93.49c.03 2.62.56 5.2 1.55 7.62l.57 1.37h4.49c1.1 0 2 .9 2 2 0 .55-.22 1.05-.59 1.41-.36.36-.86.59-1.41.59h-36.48c-1.1 0-2-.9-2-2 0-.55.22-1.05.59-1.41.36-.36.86-.59 1.41-.59h4.65l.57-1.37c.99-2.42 1.52-5 1.55-7.62v-4h-33.7v-12.39h90.5v12.39h-33.7z" fill="#e5e7ea"/><path d="m52.44 93.49c0-.07.01-.14.01-.21v.21z" fill="#cecece"/><path d="m75.56 93.49h-.01v-.21c0 .07.01.14.01.21z" fill="#cecece"/><path d="m77.67 102.48h-27.34l.57-1.37c1.02-2.48 1.55-5.14 1.55-7.83v-3.79h23.1v3.79c0 2.69.53 5.35 1.55 7.83z" fill="#d9dadb"/><path d="m52.45 89.49v3.79c0 .07-.01.14-.01.21h23.12c0-.07-.01-.14-.01-.21v-3.79z" fill="#cecece"/><path d="m53.52 77.1h55.73v-46.12h-19.49z" fill="#434953"/></g></svg>