<svg height="511pt" viewBox="-53 0 511 511.99907" width="511pt" xmlns="http://www.w3.org/2000/svg"><path d="m306.179688 472.9375c4.140624 0 7.5-3.359375 7.5-7.5v-24.035156c0-4.144532-3.359376-7.503906-7.5-7.503906h-60.097657c-4.140625 0-7.5 3.359374-7.5 7.503906v24.035156c0 4.140625 3.359375 7.5 7.5 7.5zm-52.597657-24.035156h45.097657v9.035156h-45.097657zm0 0"/><path d="m404.410156 167.8125c-5.824218-33.199219-24.007812-50.582031-38.238281-59.316406-8.714844-5.351563-17.019531-8.171875-22.707031-9.625.628906-11.0625-.847656-31.992188-17.84375-47.753906-6.882813-6.378907-17.394532 4.328124-10.199219 11 17.355469 16.089843 12.667969 40.210937 12.46875 41.203124-.925781 4.355469 2.386719 8.550782 6.539063 9.011719 1.875.207031 46.015624 5.6875 55.207031 58.074219 8.878906 50.601562-29.417969 71.1875-31.027344 72.027344-2.925781 1.496094-4.53125 4.730468-3.976563 7.96875.023438.132812 2.25 13.410156-.800781 28.761718-3.894531 19.617188-14.3125 33.457032-30.953125 41.140626-19.667968 9.074218-40.242187 10.519531-61.144531 4.292968-5.039063-1.5-9.5-3.292968-13.246094-5.042968.570313-.277344 1.140625-.558594 1.710938-.84375h7.929687c9.023438 0 16.824219-5.339844 20.414063-13.023438h22.714843c14.859376 0 26.945313-12.085938 26.945313-26.941406v-35.023438c11.285156-6.296875 18.941406-18.351562 18.941406-32.167968 0-20.300782-16.515625-36.816407-36.816406-36.816407-2.488281.078125-4.96875-.148437-7.4375-.125-31.765625.542969-76.25-3.25-107.800781-24.394531-18.523438-12.417969-23.886719-25.191406-23.914063-25.257812-2.34375-6.058594-11.078125-6.335938-13.800781-.441407-14.859375 32.15625-58.652344 30.035157-59.089844 30.011719-5.378906-.320312-7.976562 4.585938-7.976562 9.210938v11.007812c-20.125.203125-36.4375 16.632812-36.4375 36.804688 0 20.296874 16.515625 36.8125 36.816406 36.8125h3.246094c7.917968 30.050781 28.246094 55.117187 55.144531 69.371093-18.511719 6.597657-54.273437 14.953125-83.066406-4.71875-22.625-15.464843-34.332031-36.609375-34.785157-62.859375-.347656-20.15625 6.328126-35.996094 6.386719-36.140625 1.265625-2.921875.53125-6.34375-1.8125-8.503906-1.410156-1.304687-34.339843-32.429687-13.355469-75.308594 20.578126-42.050781 66.304688-41.882812 68.238282-41.871093 3.910156.101562 7.230468-2.875 7.609375-6.773438.015625-.140625 1.480469-14.40625 10.128906-29.765625 11.4375-20.304687 29.457031-32.296875 53.550781-35.640625 65.050782-9.035156 84.351563 37.40625 85.128906 39.355469 1.800782 4.636719 7.761719 6.214843 11.65625 3.15625.125-.097657 12.925782-9.972657 30.09375-8.445313 9.347657.839844 11.105469-14.074218 1.332032-14.941406-14.203125-1.265625-25.964844 3.121094-33.152344 6.875-3.359375-5.625-8.992188-13.457031-17.582031-20.835938-14.191407-12.207031-39.511719-25.582031-79.535157-20.023437-36.097656 5.011719-55.03125 26.222656-64.558593 43.136719-6.476563 11.503906-9.539063 22.519531-10.925781 29.195312-15.699219 1.371094-55.367188 8.9375-75.457032 49.984375-13.589844 27.765625-8.332031 51.597657-1.527344 66.699219 4.730469 10.496094 10.8125 18.261719 14.621094 22.53125-2.316406 6.890625-6.03125 20.566406-5.84375 36.96875.25 21.769531 7.621094 52.558594 41.328125 75.589844 14.425781 9.855468 31.773438 14.871094 51.015625 14.871094 7.394532 0 15.074219-.742188 22.96875-2.234376 11.839844-2.238281 21.832032-5.707031 28.421875-8.375v27.75c0 3.507813-2.855469 6.359376-6.359375 6.359376h-18.195312c-44.453125 0-80.617188 36.164062-80.617188 80.613281v60.109375c0 4.144531 3.359375 7.503906 7.5 7.503906h36.230469c9.386719 0 9.816406-15.003906 0-15.003906h-28.730469v-52.609375c0-27.890625 17.5-51.753907 42.089844-61.234375 25.035156 23.210937 56.816406 34.820312 88.621094 34.820312 31.789062 0 63.585937-11.609375 88.644531-34.820312 24.589844 9.480468 42.089844 33.34375 42.089844 61.234375v52.613281h-198.714844c-9.382813 0-9.8125 15 0 15h206.214844c4.144531 0 7.5-3.359375 7.5-7.5v-60.113281c0-44.449219-36.164063-80.613281-80.617188-80.613281h-18.191406c-3.507813 0-6.359375-2.851563-6.359375-6.355469v-24.722657c10.726562 5.175782 26.691406 10.746094 45.761719 10.746094 12.917969 0 27.253906-2.554687 42.339843-9.519531 21.105469-9.738281 34.757813-27.84375 39.484376-52.355469 2.289062-11.898437 1.933593-22.535156 1.394531-28.566406 4.6875-3.136719 12.210937-8.976562 19.152343-17.914062 10.054688-12.945313 20.855469-35.125 15.214844-67.273438zm-138.757812 128.371094c0 4.148437-3.375 7.523437-7.523438 7.523437h-17.03125c-4.148437 0-7.523437-3.375-7.523437-7.523437 0-4.148438 3.375-7.523438 7.523437-7.523438h17.03125c4.148438 0 7.523438 3.375 7.523438 7.523438zm66.492187-84.628906c0 12.027343-9.789062 21.8125-21.816406 21.8125h-.390625c.503906-4.304688.769531-8.660157.769531-13.058594v-30.558594c11.851563.203125 21.4375 9.902344 21.4375 21.804688zm-241.457031 21.8125c-12.027344 0-21.8125-9.785157-21.8125-21.8125 0-11.902344 9.582031-21.601563 21.433594-21.804688v30.558594c0 4.417968.269531 8.773437.777344 13.058594zm14.621094-13.058594v-50.847656c13.742187-.695313 41.992187-4.964844 58.9375-27.367188 13.183594 17.230469 48.101562 47.257812 131.460937 47.5625v30.652344c0 14.023437-2.976562 27.527344-8.851562 40.136718-1.746094 3.753907-.121094 8.21875 3.632812 9.964844 1.023438.476563 2.101563.703125 3.164063.703125 2.824218 0 5.53125-1.605469 6.800781-4.335937 2.785156-5.972656 4.996094-12.121094 6.648437-18.410156h3.226563c.96875 0 1.925781-.050782 2.875-.125v30.503906c0 6.582031-5.359375 11.941406-11.945313 11.941406h-21.289062c-2.457031-9.769531-11.316406-17.027344-21.839844-17.027344h-17.03125c-12.417968 0-22.523437 10.105469-22.523437 22.523438 0 6.28125 2.585937 11.96875 6.75 16.058594-7.996094 2.144531-16.324219 3.257812-24.816407 3.257812-52.492187 0-95.199218-42.703125-95.199218-95.191406zm142.113281 158.464844h18.191406c1.761719 0 3.503907.089843 5.234375.230468-41.441406 31.933594-99.222656 31.929688-140.675781 0 1.726563-.136718 3.46875-.226562 5.230469-.226562h18.191406c11.777344 0 21.359375-9.582032 21.359375-21.359375v-29.914063c8.203125 1.957032 16.761719 2.996094 25.554687 2.996094 8.710938 0 17.273438-1.011719 25.554688-2.972656v29.890625c0 11.773437 9.582031 21.355469 21.359375 21.355469zm0 0"/></svg>