<svg enable-background="new 0 0 128 128" height="512" viewBox="0 0 128 128" width="512" xmlns="http://www.w3.org/2000/svg"><g id="Layer_3"><path d="m75.55 90.94v3.56c.03 2.32.56 4.62 1.55 6.76l.57 1.22h4.49c1.1 0 2 .9 2 2 0 .55-.22 1.05-.59 1.41-.36.36-.86.59-1.41.59h-36.48c-1.1 0-2-.9-2-2 0-.55.22-1.05.59-1.41.36-.36.86-.59 1.41-.59h4.65l.57-1.22c.99-2.14 1.52-4.44 1.55-6.76v-3.56h-33.7v-58.51h90.5v58.51z" fill="#434953"/><path d="m22.75 36.43h82.5v50.51h-82.5z" fill="#6699d1"/><path d="m46.16 64.71h2l4.72-6.38v-2.7zm15.23.33c-.49-.22-1.13-.33-1.93-.33h-.67v-12.1c0-1.81-.79-2.71-2.38-2.71-.32 0-.6.07-.86.21.83.36 1.24 1.19 1.24 2.5v12.1h.67c.8 0 1.44.11 1.93.33.48.21.73.69.73 1.43 0 .61-.2 1.05-.6 1.32-.39.28-.99.42-1.78.42h-.95v2.9c0 .81-.18 1.4-.53 1.79-.12.13-.26.24-.41.33.28.18.61.26.98.26.6 0 1.07-.2 1.43-.59.35-.39.53-.98.53-1.79v-2.9h.95c.79 0 1.39-.14 1.78-.42.4-.27.6-.71.6-1.32 0-.74-.25-1.22-.73-1.43z" fill="#6194c1"/><path d="m59.39 65.04c-.49-.22-1.13-.33-1.93-.33h-.67v-12.1c0-1.31-.41-2.14-1.24-2.5-.32-.14-.7-.21-1.14-.21-.49 0-.91.16-1.26.49-.34.33-.79.85-1.33 1.58l-8.28 11.08c-.23.3-.42.56-.58.77s-.31.42-.45.65c-.15.22-.26.43-.33.64-.08.2-.11.4-.11.6 0 .77.25 1.38.74 1.83.5.44 1.24.67 2.23.67h2 5.84v2.9c0 .79.18 1.38.54 1.78s.83.6 1.41.6c.4 0 .73-.09 1.02-.26.15-.09.29-.2.41-.33.35-.39.53-.98.53-1.79v-2.9h.95c.79 0 1.39-.14 1.78-.42.4-.27.6-.71.6-1.32 0-.74-.25-1.22-.73-1.43zm-6.51-.33h-6.72l6.72-9.08z" fill="#e5e7ea"/><path d="m82.74 71.6c0 .51-.2.95-.6 1.33-.19.18-.42.31-.68.4-.28.11-.6.16-.95.16-.65 0-1.18-.14-1.58-.41-.41-.28-.75-.65-1.03-1.11-.28-.45-.53-.87-.75-1.25l-4.72-7.25-.77-1.18-3.79 3.64v4.73c0 .96-.22 1.67-.66 2.13-.19.2-.4.36-.64.48-.31.15-.66.22-1.05.22s-.77-.11-1.14-.31c-.36-.21-.64-.49-.84-.85-.15-.29-.24-.63-.27-1.01-.03-.39-.04-.94-.04-1.67v-17.04c0-.93.2-1.64.61-2.11.41-.46.97-.7 1.68-.7.38 0 .71.07 1.01.2.26.12.49.28.69.5.43.46.65 1.17.65 2.11v8.04l2-2.09 7.11-7.41c.43-.46.8-.8 1.11-1.02s.72-.33 1.23-.33c.38 0 .71.06 1 .2.23.08.44.22.62.39.41.39.61.86.61 1.43 0 .67-.35 1.35-1.04 2.01l-5.64 5.35 6.5 9.31c.45.65.8 1.21 1.03 1.69.23.49.34.96.34 1.42z" fill="#e5e7ea"/><g fill="#6194c1"><path d="m69.87 52.61v5.95l-2 2.09v-8.04c0-.94-.22-1.65-.65-2.11-.2-.22-.43-.38-.69-.5.29-.13.62-.2.99-.2.7 0 1.26.23 1.7.7.43.46.65 1.17.65 2.11z"/><path d="m72.43 63.47-2.56 2.46v4.73c0 .96-.22 1.67-.66 2.13-.44.47-1 .7-1.69.7-.32 0-.64-.08-.95-.22.24-.12.45-.28.64-.48.44-.46.66-1.17.66-2.13v-4.73l3.79-3.64z"/><path d="m84.74 71.6c0 .51-.2.95-.6 1.33-.4.37-.95.56-1.63.56-.4 0-.75-.05-1.05-.16.26-.09.49-.22.68-.4.4-.38.6-.82.6-1.33 0-.46-.11-.93-.34-1.42-.23-.48-.58-1.04-1.03-1.69l-6.5-9.31 5.64-5.35c.69-.66 1.04-1.34 1.04-2.01 0-.57-.2-1.04-.61-1.43-.18-.17-.39-.31-.62-.39.27-.13.61-.2 1-.2.67 0 1.2.2 1.62.59.41.39.61.86.61 1.43 0 .67-.35 1.35-1.04 2.01l-5.64 5.35 6.5 9.31c.45.65.8 1.21 1.03 1.69.23.49.34.96.34 1.42z"/></g><g><g><path d="m105.25 36.43v1.2l-18.04 11.65-.57.37c-.17.11-.36.16-.55.16-.32 0-.65-.16-.84-.45-.3-.47-.16-1.09.3-1.39l17.86-11.54z" fill="#e5e7ea"/></g></g><g><path d="m105.25 37.63v1.29l-16.61 10.73c-.17.11-.36.16-.55.16-.32 0-.65-.16-.84-.45-.02-.03-.03-.05-.04-.08z" fill="#6194c1"/></g><g><path d="m44.45 75.39-17.86 11.55h-2.04l.2-1.2 18.61-12.03c.47-.3 1.09-.17 1.39.3.3.46.16 1.08-.3 1.38z" fill="#6194c1"/></g><path d="m77.67 102.48h-27.34l.57-1.22c.99-2.14 1.52-4.44 1.55-6.76v-3.56h23.1v3.56c.03 2.32.56 4.62 1.55 6.76z" fill="#373d44"/><path d="m75.56 94.5h-23.12c0-.07.01-.13.01-.2v-3.36h23.1v3.36c0 .07.01.13.01.2z" fill="#2e3338"/><g><g><path d="m42.45 75.39-17.86 11.55h-1.84v-1.2l18.61-12.03c.47-.3 1.09-.17 1.39.3.3.46.16 1.08-.3 1.38z" fill="#e5e7ea"/></g></g></g></svg>