<svg height="512" viewBox="0 0 64 64" width="512" xmlns="http://www.w3.org/2000/svg"><g id="_02-Hospital_Bed" data-name="02-Hospital Bed"><path d="m63 39h-62a1 1 0 0 1 -1-1v-5a1 1 0 0 1 1-1h62a1 1 0 0 1 1 1v5a1 1 0 0 1 -1 1zm-61-2h60v-3h-60z"/><path d="m5 34h-4a1 1 0 0 1 -1-1v-14a3 3 0 0 1 6 0v14a1 1 0 0 1 -1 1zm-3-2h2v-13a1 1 0 0 0 -2 0z"/><path d="m63 34h-4a1 1 0 0 1 -1-1v-6a3 3 0 0 1 6 0v6a1 1 0 0 1 -1 1zm-3-2h2v-5a1 1 0 0 0 -2 0z"/><path d="m5 26h45v2h-45z"/><path d="m52 26h2v2h-2z"/><path d="m56 26h3v2h-3z"/><path d="m15 28h-8a3 3 0 0 1 -3-3v-2a3 3 0 0 1 3-3h8a3 3 0 0 1 3 3v2a3 3 0 0 1 -3 3zm-8-6a1 1 0 0 0 -1 1v2a1 1 0 0 0 1 1h8a1 1 0 0 0 1-1v-2a1 1 0 0 0 -1-1z"/><path d="m5 56a5 5 0 1 1 5-5 5.006 5.006 0 0 1 -5 5zm0-8a3 3 0 1 0 3 3 3 3 0 0 0 -3-3z"/><circle cx="5" cy="51" r="2"/><path d="m2 38h2v10h-2z"/><path d="m6 38h2v10h-2z"/><path d="m59 56a5 5 0 1 1 5-5 5.006 5.006 0 0 1 -5 5zm0-8a3 3 0 1 0 3 3 3 3 0 0 0 -3-3z"/><circle cx="59" cy="51" r="2"/><path d="m56 38h2v10h-2z"/><path d="m60 38h2v10h-2z"/><path d="m7 44h50v2h-50z"/><path d="m16 41h41v2h-41z"/><path d="m12 41h2v2h-2z"/><path d="m7 41h3v2h-3z"/><path d="m28 21a1 1 0 0 1 -.243-.03l-4-1a1 1 0 0 1 -.757-.97v-7a1 1 0 0 1 1-1h8a1 1 0 0 1 1 1v7a1 1 0 0 1 -.757.97l-4 1a1 1 0 0 1 -.243.03zm-3-2.781 3 .75 3-.75v-5.219h-6z"/><path d="m22 27h-2v-18a1 1 0 0 1 1-1h8v2h-7z"/><path d="m13 8h8v2h-8z"/><path d="m27 9h2v3h-2z"/><path d="m37 27h-2v-1a2 2 0 0 0 -2-2h-2a4 4 0 0 1 -4-4h2a2 2 0 0 0 2 2h2a4 4 0 0 1 4 4z"/><path d="m5 54h22v2h-22z"/><path d="m29 54h2v2h-2z"/><path d="m33 54h26v2h-26z"/></g></svg>