<svg height="512" viewBox="0 0 88 88" width="512" xmlns="http://www.w3.org/2000/svg"><g id="Calendar_Discount" data-name="Calendar Discount"><path d="m77 11a1 1 0 0 1 -2 0 4.7122 4.7122 0 0 0 -.1-1h2.02a5.5465 5.5465 0 0 1 .08 1z" fill="#4294ff"/><path d="m60 11a1 1 0 0 1 -2 0 4.7122 4.7122 0 0 0 -.1-1h2.02a5.5465 5.5465 0 0 1 .08 1z" fill="#4294ff"/><path d="m42 11a1 1 0 0 1 -2 0 4.7122 4.7122 0 0 0 -.1-1h2.02a5.5465 5.5465 0 0 1 .08 1z" fill="#4294ff"/><path d="m25 11a1 1 0 0 1 -2 0 4.7122 4.7122 0 0 0 -.1-1h2.02a5.5465 5.5465 0 0 1 .08 1z" fill="#4294ff"/><rect fill="#e6ecff" height="74" rx="5" width="84" x="2" y="10"/><path d="m86 15v9h-84v-9a5.0018 5.0018 0 0 1 5-5h74a5.0018 5.0018 0 0 1 5 5z" fill="#4294ff"/><path d="m19 17a1.0029 1.0029 0 0 1 -1 1 7.0077 7.0077 0 0 1 -7-7 5.5465 5.5465 0 0 1 .08-1h2.02a4.7122 4.7122 0 0 0 -.1 1 5.0018 5.0018 0 0 0 5 5 1.0029 1.0029 0 0 1 1 1z" fill="#4294ff"/><path d="m36 17a1.0029 1.0029 0 0 1 -1 1 7.0077 7.0077 0 0 1 -7-7 5.5465 5.5465 0 0 1 .08-1h2.02a4.7122 4.7122 0 0 0 -.1 1 5.0018 5.0018 0 0 0 5 5 1.0029 1.0029 0 0 1 1 1z" fill="#4294ff"/><path d="m54 17a1.0029 1.0029 0 0 1 -1 1 7.0077 7.0077 0 0 1 -7-7 5.5465 5.5465 0 0 1 .08-1h2.02a4.7122 4.7122 0 0 0 -.1 1 5.0018 5.0018 0 0 0 5 5 1.0029 1.0029 0 0 1 1 1z" fill="#4294ff"/><path d="m71 17a1.0029 1.0029 0 0 1 -1 1 7.0077 7.0077 0 0 1 -7-7 5.5465 5.5465 0 0 1 .08-1h2.02a4.7122 4.7122 0 0 0 -.1 1 5.0018 5.0018 0 0 0 5 5 1.0029 1.0029 0 0 1 1 1z" fill="#4294ff"/><g fill="#376cfb"><path d="m76.92 10h-2.02a5.0012 5.0012 0 0 0 -9.8 0 4.7122 4.7122 0 0 0 -.1 1 5.0018 5.0018 0 0 0 5 5 1 1 0 0 1 0 2 7.0077 7.0077 0 0 1 -7-7 5.5465 5.5465 0 0 1 .08-1 6.9905 6.9905 0 0 1 13.84 0z"/><path d="m59.92 10h-2.02a5.0012 5.0012 0 0 0 -9.8 0 4.7122 4.7122 0 0 0 -.1 1 5.0018 5.0018 0 0 0 5 5 1 1 0 0 1 0 2 7.0077 7.0077 0 0 1 -7-7 5.5465 5.5465 0 0 1 .08-1 6.9905 6.9905 0 0 1 13.84 0z"/><path d="m41.92 10h-2.02a5.0013 5.0013 0 0 0 -9.8 0 4.7122 4.7122 0 0 0 -.1 1 5.0018 5.0018 0 0 0 5 5 1 1 0 0 1 0 2 7.0077 7.0077 0 0 1 -7-7 5.5465 5.5465 0 0 1 .08-1 6.9905 6.9905 0 0 1 13.84 0z"/><path d="m24.92 10h-2.02a5.0013 5.0013 0 0 0 -9.8 0 4.7122 4.7122 0 0 0 -.1 1 5.0018 5.0018 0 0 0 5 5 1 1 0 0 1 0 2 7.0077 7.0077 0 0 1 -7-7 5.5465 5.5465 0 0 1 .08-1 6.9905 6.9905 0 0 1 13.84 0z"/><path d="m71.707 66.293-11.0595-11.06a.999.999 0 0 0 -1.6436.3574 16.0455 16.0455 0 0 1 -6.8711 8.1875.999.999 0 0 0 -.2 1.5684l10.36 10.36a1 1 0 0 0 1.7072-.7063v-7h7a1 1 0 0 0 .707-1.707z"/><path d="m35.8672 63.7783a16.0455 16.0455 0 0 1 -6.8711-8.1875.999.999 0 0 0 -1.6436-.3574l-11.0595 11.0596a1 1 0 0 0 .707 1.707h7v7a1 1 0 0 0 1.707.707l10.36-10.36a.999.999 0 0 0 -.2-1.5684z"/></g><circle cx="44" cy="50" fill="#4294ff" r="18"/><circle cx="44" cy="50" fill="#376cfb" r="14"/><circle cx="40" cy="46" fill="#2946ed" r="3"/><circle cx="48" cy="54" fill="#2946ed" r="3"/><path d="m39 56a1 1 0 0 1 -.707-1.707l10-10a1 1 0 0 1 1.414 1.414l-10 10a.9967.9967 0 0 1 -.707.293z" fill="#2946ed"/></g></svg>