<svg height="512" viewBox="0 0 128 128" width="512" xmlns="http://www.w3.org/2000/svg"><g><path d="m86.616 36.13v76.355a9.209 9.209 0 0 1 -9.209 9.209h-42.164a9.209 9.209 0 0 1 -9.209-9.209v-76.355z" fill="#f2e7cb"/><path d="m88.076 24.1c0-.053.008-.1.008-.157a8.515 8.515 0 0 0 -8.293-8.721 8.071 8.071 0 0 0 -5.953 2.657 12.3 12.3 0 0 0 -22.818-5.6 8.342 8.342 0 0 0 -7.863-5.964 8.515 8.515 0 0 0 -8.293 8.721 9.281 9.281 0 0 0 .073 1.1 7.935 7.935 0 0 0 -1.733-.194 8.473 8.473 0 0 0 -8.263 8.092 6.067 6.067 0 0 0 -5.082 5.983v.051a6.07 6.07 0 0 0 6.07 6.07h23.021v29.285a3.4 3.4 0 0 0 3.4 3.4h2.184a3.4 3.4 0 0 0 3.4-3.4v-11.849a3.4 3.4 0 0 1 3.4-3.4 3.4 3.4 0 0 0 3.4-3.4v-.849a3.4 3.4 0 0 1 3.4-3.4h1.275a3.4 3.4 0 0 1 3.4 3.4v5.736a3.4 3.4 0 0 0 3.4 3.4h.85a3.4 3.4 0 0 0 3.4-3.4v-15.531h6.269a6.07 6.07 0 0 0 6.07-6.07v-.051a6.068 6.068 0 0 0 -4.722-5.909z" fill="#ffde3e"/><path d="m86.616 87.483h13.418v-34.966h-13.418v-8.583h14.895a6.63 6.63 0 0 1 6.63 6.63v38.872a6.63 6.63 0 0 1 -6.63 6.63h-14.895z" fill="#f2e7cb"/><g fill="#422002"><path d="m26.034 90.954a1.75 1.75 0 0 0 1.75-1.75v-4.5a1.75 1.75 0 0 0 -3.5 0v4.5a1.75 1.75 0 0 0 1.75 1.75z"/><path d="m36.537 106.382h24.725a1.75 1.75 0 0 0 0-3.5h-24.725a1.75 1.75 0 0 0 0 3.5z"/><path d="m76.113 106.382a1.75 1.75 0 0 0 0-3.5h-6.639a1.75 1.75 0 1 0 0 3.5z"/><path d="m108.142 56.772a1.751 1.751 0 0 0 1.75-1.75v-4.458a8.39 8.39 0 0 0 -8.381-8.38h-13.145v-4.484a7.851 7.851 0 0 0 6.175-7.693 7.769 7.769 0 0 0 -4.765-7.2 10.222 10.222 0 0 0 -9.985-9.343 9.639 9.639 0 0 0 -4.736 1.236 14.079 14.079 0 0 0 -13.5-10.144 13.93 13.93 0 0 0 -10.216 4.4 9.9 9.9 0 0 0 -8.185-4.4 10.237 10.237 0 0 0 -10.011 9.627 10.2 10.2 0 0 0 -9.787 8.442 7.85 7.85 0 0 0 .928 15.075v38.349a1.75 1.75 0 0 0 3.5 0v-38.17h19.416v27.544a5.155 5.155 0 0 0 5.15 5.149h2.183a5.155 5.155 0 0 0 5.15-5.149v-11.849a1.65 1.65 0 0 1 1.648-1.649 5.155 5.155 0 0 0 5.149-5.15v-.849a1.652 1.652 0 0 1 1.65-1.65h1.27a1.652 1.652 0 0 1 1.65 1.65v5.736a5.154 5.154 0 0 0 5.15 5.149h.85a5.154 5.154 0 0 0 5.15-5.149v-13.783h2.664v74.606a7.466 7.466 0 0 1 -7.459 7.458h-42.163a7.466 7.466 0 0 1 -7.458-7.458v-15.043a1.75 1.75 0 0 0 -3.5 0v15.043a10.971 10.971 0 0 0 10.958 10.958h42.165a10.971 10.971 0 0 0 10.959-10.958v-14.669h13.145a8.39 8.39 0 0 0 8.381-8.38v-26.736a1.75 1.75 0 0 0 -3.5 0v26.736a4.887 4.887 0 0 1 -4.881 4.88h-13.145v-5.083h11.668a1.75 1.75 0 0 0 1.75-1.75v-34.966a1.75 1.75 0 0 0 -1.75-1.75h-11.668v-5.083h13.145a4.887 4.887 0 0 1 4.881 4.88v4.458a1.75 1.75 0 0 0 1.75 1.75zm-27.69-22.393a1.75 1.75 0 0 0 -1.75 1.75v15.533a1.651 1.651 0 0 1 -1.649 1.649h-.853a1.651 1.651 0 0 1 -1.649-1.649v-5.736a5.155 5.155 0 0 0 -5.15-5.15h-1.271a5.155 5.155 0 0 0 -5.15 5.15v.849a1.651 1.651 0 0 1 -1.649 1.65 5.154 5.154 0 0 0 -5.148 5.149v11.849a1.651 1.651 0 0 1 -1.65 1.649h-2.183a1.651 1.651 0 0 1 -1.65-1.649v-29.294a1.75 1.75 0 0 0 -1.75-1.75h-23.021a4.344 4.344 0 0 1 -.7-8.626 1.749 1.749 0 0 0 1.462-1.608 6.747 6.747 0 0 1 6.509-6.461 6.186 6.186 0 0 1 1.352.152 1.75 1.75 0 0 0 2.12-1.919 7.443 7.443 0 0 1 -.061-.89 6.775 6.775 0 0 1 6.543-6.97 6.585 6.585 0 0 1 6.2 4.742 1.75 1.75 0 0 0 3.166.377 10.548 10.548 0 0 1 19.573 4.8 1.751 1.751 0 0 0 3.034 1.081 6.3 6.3 0 0 1 4.666-2.093 6.765 6.765 0 0 1 6.541 6.936c0 .03-.007.134-.008.164a1.751 1.751 0 0 0 1.361 1.736 4.346 4.346 0 0 1 -.966 8.577zm17.832 19.888v31.466h-9.918v-31.466z"/><path d="m66.863 21.644a6.451 6.451 0 1 0 -12.9 0 1.75 1.75 0 0 0 3.5 0 2.951 2.951 0 1 1 5.9 0 1.75 1.75 0 1 0 3.5 0z"/><path d="m43.343 20.159a7.048 7.048 0 0 0 -7.043 7.041 1.75 1.75 0 0 0 3.5 0 3.541 3.541 0 1 1 7.082 0 1.75 1.75 0 1 0 3.5 0 7.048 7.048 0 0 0 -7.039-7.041z"/><path d="m72.137 24.513a6.339 6.339 0 0 0 -6.331 6.332 1.75 1.75 0 0 0 3.5 0 2.832 2.832 0 1 1 5.663 0 1.75 1.75 0 0 0 3.5 0 6.34 6.34 0 0 0 -6.332-6.332z"/></g></g></svg>