<svg height="511pt" viewBox="-109 0 511 511.999" width="511pt" xmlns="http://www.w3.org/2000/svg"><path d="m161.109375 284.617188c9.371094 0 9.796875-14.980469 0-14.980469h-27.964844c-9.371093 0-9.800781 14.980469 0 14.980469zm0 0"/><path d="m212.21875 363.796875h-18.191406c-3.511719 0-6.371094-2.855469-6.371094-6.363281v-34.636719c32.25-12.808594 57.066406-40.417969 66.019531-74.398437h3.253907c.96875 0 1.929687-.046876 2.882812-.121094v1.652344c0 21.609374-8.011719 42.457031-22.003906 58.515624-2.667969-1.148437-5.601563-1.789062-8.683594-1.789062-12.125 0-21.992188 9.863281-21.992188 21.988281s9.867188 21.988281 21.992188 21.988281 21.988281-9.863281 21.988281-21.988281c0-3.574219-.863281-6.945312-2.382812-9.933593 16.574219-18.820313 26.0625-43.351563 26.0625-68.78125v-6.171876c11.285156-6.292968 18.9375-18.34375 18.9375-32.15625 0-10.640624-4.542969-20.234374-11.785157-26.960937v-64.304687c0-11.117188-2.84375-33.304688-21.875-56.996094-22.238281-27.675782-59.566406-48.894532-110.953124-63.070313-1.304688-.3593748-2.679688-.3593748-3.980469 0-14.714844 4.058594-28.460938 8.765625-40.863281 13.988281-8.636719 3.640626-3.21875 17.609376 5.816406 13.804688 11.25-4.738281 23.699218-9.039062 37.035156-12.796875 111.152344 31.308594 119.839844 88.277344 119.839844 105.070313v55.867187c-3.078125-.875-6.320313-1.359375-9.667969-1.394531v-26.011719c0-32.339844-20.871094-54.921875-50.75-54.921875-19.496094 0-31.195313 8.453125-40.597656 15.246094-15.988281 11.554687-26.984375 9.019531-43.269531-1.328125-9.535157-6.054688-20.339844-12.921875-34.394532-12.921875-33.710937 0-51.351562 27.128906-51.351562 53.925781v26.011719c-3.339844.035156-6.570313.515625-9.644532 1.386718v-55.859374c0-13.167969 5.058594-46.980469 51.917969-76.410157 7.9375-4.988281.332031-17.894531-7.96875-12.6875-53.1875 33.410157-58.929687 73.4375-58.929687 89.097657v64.285156c-7.257813 6.726562-11.808594 16.332031-11.808594 26.980468 0 20.292969 16.507812 36.800782 36.804688 36.800782h3.257812c2.472656 9.425781 6.1875 18.507812 11.078125 26.976562 4.6875 8.117188 17.871094.996094 12.972656-7.492187-8.308593-14.382813-12.699219-30.816407-12.699219-47.53125v-29.835938c5.414063 2.765625 9.328126 8.453125 9.328126 14.703125v19.972656c0 24.566407 26.199218 43.238282 49.324218 37.207032 12.078125-3.152344 24.101563-13.515625 36.558594-13.515625 12.453125 0 24.480469 10.363281 36.558594 13.515625 23.121094 6.03125 49.324218-12.648438 49.324218-37.207032v-19.972656c0-5.730468 4.429688-11.515625 9.308594-14.464844v29.597657c0 52.488281-42.707031 95.1875-95.203125 95.1875-21.765625 0-42.25-7.148438-59.238281-20.667969-7.335938-5.835938-16.996094 5.617188-9.328125 11.71875 8.632813 6.875 18.050781 12.320312 28.023437 16.273438v34.5625c0 3.511718-2.855468 6.367187-6.367187 6.367187h-18.191406c-44.445313 0-80.601563 36.15625-80.601563 80.59375v60.117187c0 4.136719 3.351563 7.488282 7.488282 7.488282h189.15625c9.375 0 9.800781-14.976563 0-14.976563h-8.964844v-20.042969h9.972656c.046875 4.378907 2.667969 8.367188 7.492188 8.367188h21.96875c4.824218 0 7.445312-3.988281 7.492187-8.367188h9.972656v20.042969c-2.695312-.273437-10.339843-.894531-12.765625 1.023438-5.332031 4.210937-4.300781 13.957031 3.777344 13.957031h48.328125c4.136719 0 7.492187-3.355469 7.492187-7.492188v-60.117187c0-44.4375-36.15625-80.59375-80.601562-80.59375zm9.894531-35.152344c0-3.863281 3.144531-7.007812 7.007813-7.007812 3.867187 0 7.011718 3.144531 7.011718 7.007812 0 3.867188-3.144531 7.011719-7.011718 7.011719-3.863282 0-7.007813-3.144531-7.007813-7.011719zm56.636719-117.042969c0 12.03125-9.789062 21.820313-21.820312 21.820313h-.410157c.507813-4.285156.777344-8.644531.777344-13.066406v-30.5625c11.863281.195312 21.453125 9.898437 21.453125 21.808593zm-263.269531 0c0-11.910156 9.589843-21.613281 21.453125-21.8125v30.566407c0 4.378906.273437 8.742187.789062 13.066406h-.417968c-12.035157 0-21.824219-9.789063-21.824219-21.820313zm202.550781-6.378906v19.972656c0 14.855469-16.78125 26.308594-30.566406 22.710938-14.074219-3.667969-25.335938-13.988281-40.335938-13.992188-15.003906 0-26.269531 10.320313-40.339844 13.992188-13.738281 3.585938-30.566406-7.898438-30.566406-22.710938v-19.972656c0-14.601562-10.566406-27.253906-24.308594-30.589844v-25.835937c0-18.757813 11.382813-38.945313 36.371094-38.945313 9.699219 0 17.792969 5.140626 26.359375 10.585938 21.332031 13.554688 38.867188 16.15625 60.082031.824219 8.828126-6.382813 17.171876-12.410157 31.820313-12.410157 24.710937 0 35.773437 20.0625 35.773437 39.945313v25.742187c-13.898437 3.496094-24.289062 18.222657-24.289062 30.683594zm-70.914062 125.300782c8.796874 0 17.355468-1.042969 25.5625-3v29.90625c0 8.054687 4.484374 15.074218 11.085937 18.710937-2.292969 18.1875-17.847656 32.308594-36.648437 32.308594-18.800782 0-34.355469-14.121094-36.648438-32.308594 6.601562-3.636719 11.085938-10.65625 11.085938-18.707031v-29.882813c8.273437 1.953125 16.824218 2.972657 25.5625 2.972657zm66.929687 139.839843v-16.976562h6.992187v16.976562zm63.792969 26.65625h-16.867188v-27.535156c0-4.136719-3.355468-7.488281-7.488281-7.488281h-17.46875v-16.097656c0-4.136719-3.351563-7.492188-7.488281-7.492188h-21.96875c-4.136719 0-7.492188 3.355469-7.492188 7.492188v16.097656h-17.464844c-4.136718 0-7.488281 3.351562-7.488281 7.488281v27.535156h-157.722656v-52.628906c0-36.179687 29.441406-65.613281 65.625-65.613281h13.691406c3.550781 25.199218 25.246094 44.648437 51.410157 44.648437 26.160156 0 47.855468-19.449219 51.410156-44.648437h13.691406c36.183594 0 65.621094 29.433594 65.621094 65.613281zm0 0"/></svg>