<svg height="512pt" viewBox="-62 0 512 512.0053" width="512pt" xmlns="http://www.w3.org/2000/svg"><path d="m388.863281 406.5c-.746093-10.5625-16.277343-227.273438-18.394531-251.894531-3.554688-41.300781-17.503906-77.070313-40.339844-103.433594-23.132812-26.710937-55.402344-43.808594-93.316406-49.445313-28.207031-4.191406-54.351562-.746093-77.695312 10.25-3.738282 1.761719-5.34375 6.226563-3.582032 9.96875 1.691406 3.585938 5.863282 5.199219 9.5 3.773438.15625-.058594.3125-.117188.46875-.191406 20.621094-9.710938 43.871094-12.734375 69.105469-8.984375 34.816406 5.175781 63.144531 20.125 84.199219 44.433593 20.75 23.957032 33.453125 56.777344 36.734375 94.910157 2.109375 24.550781 17.632812 241.109375 18.378906 251.671875.792969 11.183594-2.980469 21.859375-10.625 30.0625-6.28125 6.742187-14.414063 10.988281-23.335937 12.292968v-5.519531c0-28.351562-14.675782-53.960937-37.9375-68.425781-5.410157-3.363281-11.28125-6.125-17.542969-8.175781-.304688-.101563-.609375-.171875-.914063-.230469-.753906-1.5625-1.582031-3.097656-2.527344-4.578125-11.878906-18.667969-34.390624-22.089844-46.238281-22.527344v-17.636719c3.136719-1.242187 6.222657-2.625 9.234375-4.15625h7.761719c9.015625 0 16.800781-5.328124 20.386719-13h22.6875c14.835937 0 26.90625-12.070312 26.90625-26.90625v-34.90625c11.371094-6.269531 19.09375-18.375 19.09375-32.25 0-20.167968-16.308594-36.589843-36.433594-36.789062v-17.644531c9.761719-6.929688 13.605469-15.230469 14.035156-16.203125 1.65625-3.789063-.070312-8.207032-3.859375-9.863282-3.789062-1.65625-8.207031.070313-9.867187 3.859376-.023438.0625-2.914063 6.132812-10.175782 10.8125-10.488281 6.761718-25.234374 7.460937-42.640624 2.019531-14.929688-4.664063-29.042969-14.660157-42.691407-24.328125-2.730469-1.933594-5.472656-3.875-8.234375-5.785156-22.730468-15.730469-46.777344-29.382813-77.375-19.820313-.011718.003906-.019531.007813-.027344.007813-16.894531 5.292968-36.808593 21.679687-39.269531 69-.160156.609374-.253906 1.246093-.253906 1.90625v6.039062c-20.121094.199219-36.433594 16.625-36.433594 36.792969 0 20.289062 16.511719 36.796875 36.804688 36.796875h3.253906c1.234375 4.6875 2.769531 9.25 4.585937 13.671875 11.351563 27.640625 33.625 49.683593 61.429688 60.726562v17.660157c-11.871094.449218-34.304688 3.902343-46.15625 22.527343-.925781 1.449219-1.738281 2.953125-2.480469 4.480469-14.59375 4.566406-27.8125 13.421875-37.6875 25.171875-.9375 1.113281-1.855469 2.246094-2.734375 3.410156-10.535156 14.035157-16.105468 30.75-16.105468 48.347657v5.445312c-8.726563-1.382812-16.679688-5.597656-22.847657-12.214844-7.644531-8.203125-11.417969-18.882812-10.625-30.066406 5.632813-79.691406 15.511719-218.351562 18.378907-251.671875 3.53125-41.0625 15.667968-69.953125 34.167968-81.351563 14.078125-8.675781 29.238282-5.617187 39.472656-1.523437 1.382813.554687 6.152344 1.914063 9.628907-3.746094 5.140625-8.367187 10.996093-15.25 16.246093-20.558593 2.621094-2.648438 5.09375-4.910157 7.246094-6.753907 3.144532-2.6875 3.507813-7.417969.816406-10.558593-2.691406-3.140626-7.417968-3.507813-10.558593-.816407-6.507813 5.570313-15.589844 14.476563-23.671875 26.441407-17.101563-5.339844-33.261719-3.726563-47.039063 4.761718-22.96875 14.152344-37.226562 46.25-41.234375 92.824219-2.875 33.417969-12.757812 172.164063-18.398437 251.894531-1.070313 15.15625 4.253906 30.222656 14.609375 41.335938 8.894531 9.542968 20.957031 15.582031 33.808594 17.101562v39.574219c0 4.136719 3.355468 7.488281 7.492187 7.488281h121.246094c4.136719 0 7.488281-3.351562 7.488281-7.488281s-3.351562-7.488281-7.488281-7.488281h-113.757813v-52.628906c0-25.640626 14.539063-48.296876 37.042969-59.097657-.4375 8.84375 1.445313 18.269531 5.710937 27.828125 9.078126 20.355469 28.308594 41.160156 57.152344 61.832032 1.285156.921874 2.8125 1.398437 4.359375 1.398437.808594 0 1.621094-.128906 2.40625-.394531 2.285157-.777344 4.058594-2.605469 4.761719-4.914063 3.121094-10.226562 10.824219-26.761719 19.332031-31.789062 8.503907 5.027343 16.207031 21.5625 19.324219 31.78125.703125 2.3125 2.472656 4.144531 4.761719 4.921875.785156.265625 1.597656.398437 2.40625.398437 1.546875 0 3.074219-.480469 4.363281-1.402343 28.84375-20.671876 48.074219-41.476563 57.152344-61.832032 4.253906-9.539062 6.140625-18.949218 5.714844-27.773437 11.5 5.566406 20.933593 14.253906 27.386718 24.84375 3.929688 6.449219 6.761719 13.601562 8.28125 21.171875.847656 4.230468 1.289063 8.585937 1.289063 13.027344v52.625h-110.738281c-4.136719 0-7.492188 3.355468-7.492188 7.492187s3.355469 7.488281 7.492188 7.488281h118.230468c4.136719 0 7.492188-3.351562 7.492188-7.488281v-39.511719c13.03125-1.425781 25.285156-7.5 34.292968-17.164062 10.355469-11.121094 15.679688-26.183594 14.605469-41.339844zm-154.070312-102.8125c-4.144531 0-7.511719-3.371094-7.511719-7.515625 0-4.140625 3.367188-7.511719 7.511719-7.511719h17.003906c4.144531 0 7.511719 3.371094 7.511719 7.511719 0 4.144531-3.367188 7.515625-7.511719 7.515625zm69.277343-70.265625h-.414062c.519531-4.328125.78125-8.695313.78125-13.066406v-30.5625c11.867188.199219 21.457031 9.902343 21.457031 21.808593 0 12.03125-9.792969 21.820313-21.824219 21.820313zm-241.449218-21.820313c0-11.90625 9.59375-21.613281 21.457031-21.808593v30.5625c0 4.421875.269531 8.78125.777344 13.066406h-.410157c-12.03125 0-21.824218-9.789063-21.824218-21.820313zm36.59375 14.152344c-.101563-1.785156-.160156-3.585937-.160156-5.398437v-43.445313c0-46.019531 15.792968-60.613281 29.039062-64.753906 27.238281-8.511719 49.21875 7.050781 72.484375 23.53125 14.601563 10.339844 29.695313 21.03125 46.878906 26.402344 18.007813 5.625 31.808594 5.054687 42 2.183594v56.082031c0 15.464843-3.585937 30.210937-10.667969 43.832031-4.308593 8.289062 8.734376 15.679688 13.292969 6.90625 3.742188-7.199219 6.65625-14.828125 8.71875-22.691406 1.984375.03125 4.019531.035156 5.996094-.113282v30.46875c0 6.574219-5.351563 11.925782-11.925781 11.925782h-21.261719c-1.480469-5.878906-5.277344-10.839844-10.363281-13.859375-3.355469-1.996094-7.269532-3.144531-11.449219-3.144531h-17.003906c-12.402344 0-22.492188 10.089843-22.492188 22.492187 0 6.296875 2.601563 11.988281 6.78125 16.074219-8.015625 2.160156-16.347656 3.300781-24.824219 3.300781-50.679687 0-92.234374-39.808594-95.042968-89.792969zm95.042968 104.769532c8.695313 0 17.265626-1.015626 25.5625-2.984376v29.894532c0 11.363281 8.933594 20.65625 20.144532 21.285156.9375.617188 1.96875 1.53125 2.199218 2.511719.324219 1.363281-.617187 4.292969-4.222656 8.410156-11.214844 12.820313-34.746094 27.394531-43.671875 32.691406-8.929687-5.296875-32.457031-19.871093-43.671875-32.691406-3.605468-4.117187-4.546875-7.046875-4.222656-8.410156.230469-.984375 1.257812-1.894531 2.199219-2.511719 11.199219-.640625 20.125-9.929688 20.125-21.285156v-29.90625c8.203125 1.953125 16.761719 2.996094 25.558593 2.996094zm-30.035156 126.359374c-21.984375-16.9375-37.203125-34.054687-44.253906-49.863281-6.113281-13.707031-6.035156-26.152343.226562-35.992187 7.976563-12.535156 24.414063-15.125 33.523438-15.558594v1.964844c0 3.511718-2.859375 6.367187-6.371094 6.367187-.980468 0-1.914062.191407-2.773437.535157l-.109375-.292969c-1.039063.390625-10.242188 4.085937-12.613282 13.5-1.742187 6.917969.773438 14.308593 7.46875 21.960937 10.507813 12.007813 29.328126 24.640625 40.984376 31.882813-7.496094 7.292969-12.851563 17.777343-16.082032 25.496093zm104.40625-49.863281c-7.050781 15.808594-22.269531 32.925781-44.253906 49.863281-3.230469-7.726562-8.597656-18.226562-16.105469-25.519531 11.660157-7.246093 30.453125-19.863281 40.945313-31.859375 6.699218-7.652344 9.210937-15.042968 7.46875-21.960937-2.367188-9.414063-11.570313-13.109375-12.613282-13.5l-.109374.300781c-.863282-.347656-1.804688-.542969-2.792969-.542969-3.511719 0-6.367188-2.859375-6.367188-6.367187v-1.96875c9.09375.417968 25.601563 2.988281 33.601563 15.5625 6.261718 9.839844 6.339844 22.285156.226562 35.992187zm0 0"/><path d="m194.269531 466.40625c-9.640625 0-9.65625 14.976562 0 14.976562 9.636719 0 9.652344-14.976562 0-14.976562zm0 0"/></svg>