<svg enable-background="new 0 0 128 128" height="512" viewBox="0 0 128 128" width="512" xmlns="http://www.w3.org/2000/svg"><g id="Layer_4"><path d="m75.55 94.5c.03 2.32.56 4.62 1.55 6.76l.57 1.22h4.49c1.1 0 2 .9 2 2 0 .55-.22 1.05-.59 1.41-.36.36-.86.59-1.41.59h-36.48c-1.1 0-2-.9-2-2 0-.55.22-1.05.59-1.41.36-.36.86-.59 1.41-.59h4.65l.57-1.22c.99-2.14 1.52-4.44 1.55-6.76v-3.56h-33.7v-58.51h90.5v58.51h-33.7z" fill="#434953"/><path d="m22.75 36.43h82.5v50.51h-82.5z" fill="#6699d1"/><g><g><path d="m105.25 36.43v1.2l-18.04 11.65-.57.37c-.17.11-.36.16-.55.16-.32 0-.65-.16-.84-.45-.3-.47-.16-1.09.3-1.39l17.86-11.54z" fill="#e5e7ea"/></g></g><g><path d="m105.25 37.63v1.29l-16.61 10.73c-.17.11-.36.16-.55.16-.32 0-.65-.16-.84-.45-.02-.03-.03-.05-.04-.08z" fill="#6194c1"/></g><g><path d="m44.45 75.39-17.86 11.55h-2.04l.2-1.2 18.61-12.03c.47-.3 1.09-.17 1.39.3.3.46.16 1.08-.3 1.38z" fill="#6194c1"/></g><path d="m52.44 94.5c0-.07.01-.13.01-.2v.2z" fill="#2e3338"/><path d="m75.56 94.5h-.01v-.2c0 .07.01.13.01.2z" fill="#2e3338"/><path d="m77.67 102.48h-27.34l.57-1.22c.99-2.14 1.52-4.44 1.55-6.76v-3.56h23.1v3.56c.03 2.32.56 4.62 1.55 6.76z" fill="#373d44"/><path d="m75.56 94.5h-23.12c0-.07.01-.13.01-.2v-3.36h23.1v3.36c0 .07.01.13.01.2z" fill="#2e3338"/><g><g><path d="m42.45 75.39-17.86 11.55h-1.84v-1.2l18.61-12.03c.47-.3 1.09-.17 1.39.3.3.46.16 1.08-.3 1.38z" fill="#e5e7ea"/></g></g><g fill="#6194c1"><path d="m52.23 54.93h-7.14v4.58h5.97c.55 0 .97.12 1.24.37s.41.58.41 1-.14.74-.42.99c-.28.24-.69.37-1.23.37h-5.97v5.9c0 .75-.17 1.3-.51 1.67-.34.36-.77.54-1.3.54-.54 0-.97-.18-1.31-.55s-.51-.92-.51-1.66v-13.78c0-.52.08-.95.23-1.28s.4-.57.73-.72.75-.23 1.26-.23h8.54c.58 0 1.01.13 1.29.38.28.26.42.59.42 1.01s-.14.76-.42 1.02c-.27.26-.7.39-1.28.39z"/><path d="m60.29 54.03v5.13h7.82v-5.13c0-.73.17-1.28.49-1.65.33-.37.76-.55 1.3-.55s.99.18 1.32.54c.34.36.51.91.51 1.65v14.1c0 .74-.17 1.29-.51 1.66s-.78.55-1.32.55c-.55 0-.98-.19-1.31-.56s-.49-.92-.49-1.65v-6.02h-7.82v6.02c0 .74-.17 1.29-.51 1.66s-.78.55-1.32.55c-.55 0-.98-.19-1.31-.56s-.49-.92-.49-1.65v-14.1c0-.73.16-1.28.48-1.65s.76-.55 1.31-.55c.54 0 .99.18 1.32.54.36.38.53.93.53 1.67z"/><path d="m77.88 52.14h4.72c1.23 0 2.28.11 3.16.34s1.68.66 2.39 1.28c1.86 1.6 2.8 4.02 2.8 7.28 0 1.07-.09 2.06-.28 2.94-.19.89-.48 1.69-.87 2.4s-.89 1.35-1.5 1.91c-.48.43-1 .78-1.58 1.04-.57.26-1.18.44-1.84.55s-1.39.16-2.22.16h-4.72c-.66 0-1.16-.1-1.49-.3s-.55-.48-.65-.84-.15-.83-.15-1.41v-13.13c0-.78.17-1.35.52-1.7.36-.35.92-.52 1.71-.52zm1.4 2.86v12.15h2.75c.6 0 1.07-.02 1.42-.05.34-.03.7-.11 1.06-.24.37-.13.68-.31.95-.55 1.21-1.03 1.82-2.79 1.82-5.3 0-1.77-.27-3.09-.8-3.97s-1.19-1.44-1.97-1.68c-.79-.24-1.73-.36-2.84-.36z"/></g><path d="m50.23 54.93h-7.14v4.58h5.97c.55 0 .97.12 1.24.37s.41.58.41 1-.14.74-.42.99c-.28.24-.69.37-1.23.37h-5.97v5.9c0 .75-.17 1.3-.51 1.67-.34.36-.77.54-1.3.54-.54 0-.97-.18-1.31-.55s-.51-.92-.51-1.66v-13.78c0-.52.08-.95.23-1.28s.4-.57.73-.72.75-.23 1.26-.23h8.54c.58 0 1.01.13 1.29.38.28.26.42.59.42 1.01s-.14.76-.42 1.02c-.27.26-.7.39-1.28.39z" fill="#e5e7ea"/><path d="m58.29 54.03v5.13h7.82v-5.13c0-.73.17-1.28.49-1.65.33-.37.76-.55 1.3-.55s.99.18 1.32.54c.34.36.51.91.51 1.65v14.1c0 .74-.17 1.29-.51 1.66s-.78.55-1.32.55c-.55 0-.98-.19-1.31-.56s-.49-.92-.49-1.65v-6.02h-7.82v6.02c0 .74-.17 1.29-.51 1.66s-.78.55-1.32.55c-.55 0-.98-.19-1.31-.56s-.49-.92-.49-1.65v-14.1c0-.73.16-1.28.48-1.65s.76-.55 1.31-.55c.54 0 .99.18 1.32.54.36.38.53.93.53 1.67z" fill="#e5e7ea"/><path d="m75.88 52.14h4.72c1.23 0 2.28.11 3.16.34s1.68.66 2.39 1.28c1.86 1.6 2.8 4.02 2.8 7.28 0 1.07-.09 2.06-.28 2.94-.19.89-.48 1.69-.87 2.4s-.89 1.35-1.5 1.91c-.48.43-1 .78-1.58 1.04-.57.26-1.18.44-1.84.55s-1.39.16-2.22.16h-4.72c-.66 0-1.16-.1-1.49-.3s-.55-.48-.65-.84-.15-.83-.15-1.41v-13.13c0-.78.17-1.35.52-1.7.36-.35.92-.52 1.71-.52zm1.4 2.86v12.15h2.75c.6 0 1.07-.02 1.42-.05.34-.03.7-.11 1.06-.24.37-.13.68-.31.95-.55 1.21-1.03 1.82-2.79 1.82-5.3 0-1.77-.27-3.09-.8-3.97s-1.19-1.44-1.97-1.68c-.79-.24-1.73-.36-2.84-.36z" fill="#e5e7ea"/></g></svg>