<svg height="512" viewBox="0 0 64 64" width="512" xmlns="http://www.w3.org/2000/svg"><g id="_03-Ambulance" data-name="03-Ambulance"><path d="m10 55a7 7 0 1 1 7-7 7.008 7.008 0 0 1 -7 7zm0-12a5 5 0 1 0 5 5 5.006 5.006 0 0 0 -5-5z"/><path d="m10 51a3 3 0 1 1 3-3 3 3 0 0 1 -3 3zm0-4a1 1 0 1 0 1 1 1 1 0 0 0 -1-1z"/><path d="m54 55a7 7 0 1 1 7-7 7.008 7.008 0 0 1 -7 7zm0-12a5 5 0 1 0 5 5 5.006 5.006 0 0 0 -5-5z"/><path d="m54 51a3 3 0 1 1 3-3 3 3 0 0 1 -3 3zm0-4a1 1 0 1 0 1 1 1 1 0 0 0 -1-1z"/><path d="m63 49h-3v-2h2v-4h-60v4h2v2h-3a1 1 0 0 1 -1-1v-6a1 1 0 0 1 1-1h62a1 1 0 0 1 1 1v6a1 1 0 0 1 -1 1z"/><path d="m21 47h27v2h-27z"/><path d="m16 47h3v2h-3z"/><path d="m64 42h-2v-26a1 1 0 0 0 -1-1h-2v-2h2a3 3 0 0 1 3 3z"/><path d="m55 13h2v2h-2z"/><path d="m2 42h-2c0-2.968.281-29 10-29h43v2h-43c-6.53 0-8 20-8 27z"/><path d="m17 29h-15v-2h15a1 1 0 0 0 1-1v-12h2v12a3 3 0 0 1 -3 3z"/><path d="m22 14h2v28h-2z"/><path d="m16 31h4v2h-4z"/><path d="m9 42h-2v-3a1 1 0 0 0 -1-1h-5v-2h5a3 3 0 0 1 3 3z"/><path d="m20 15h-8a1 1 0 0 1 -.97-1.243l1-4a1 1 0 0 1 .97-.757h6a1 1 0 0 1 .97.757l1 4a1 1 0 0 1 -.97 1.243zm-6.719-2h5.438l-.5-2h-4.438z"/><path d="m46 36h-6a1 1 0 0 1 -1-1v-3h-3a1 1 0 0 1 -1-1v-6a1 1 0 0 1 1-1h3v-3a1 1 0 0 1 1-1h6a1 1 0 0 1 1 1v3h3a1 1 0 0 1 1 1v6a1 1 0 0 1 -1 1h-3v3a1 1 0 0 1 -1 1zm-5-2h4v-3a1 1 0 0 1 1-1h3v-4h-3a1 1 0 0 1 -1-1v-3h-4v3a1 1 0 0 1 -1 1h-3v4h3a1 1 0 0 1 1 1z"/><path d="m26 17h2v2h-2z"/><path d="m26 21h2v18h-2z"/><path d="m1 53h31v2h-31z"/><path d="m34 53h2v2h-2z"/><path d="m38 53h25v2h-25z"/></g></svg>