<svg height="512" viewBox="0 0 88 88" width="512" xmlns="http://www.w3.org/2000/svg"><g id="Truck_Delivery" data-name="Truck Delivery"><path d="m86 73a1 1 0 0 0 1-1v-20a1 1 0 0 0 -.1055-.4473l-10-20a1 1 0 0 0 -.8945-.5527h-18a1 1 0 0 0 -1 1v40a1 1 0 0 0 1 1z" fill="#d0dbf7"/><path d="m87 52v1h-22a1.0029 1.0029 0 0 1 -1-1v-15a1.0029 1.0029 0 0 1 1-1h14.12l7.77 15.55a.9969.9969 0 0 1 .11.45z" fill="#4294ff"/><circle cx="73" cy="72" fill="#4294ff" r="9"/><circle cx="73" cy="72" fill="#376cfb" r="4"/><path d="m58 25h-56a1 1 0 0 0 -1 1v46a1 1 0 0 0 1 1h57v-47a1 1 0 0 0 -1-1z" fill="#e6ecff"/><rect fill="#376cfb" height="38" rx="1" width="42" x="9" y="7"/><path d="m50 7h-15a1 1 0 0 0 -1 1v8a1 1 0 0 0 1 1h16v-9a1 1 0 0 0 -1-1z" fill="#4294ff"/><path d="m25 7h-15a1 1 0 0 0 -1 1v9h16a1 1 0 0 0 1-1v-8a1 1 0 0 0 -1-1z" fill="#4294ff"/><path d="m28 36h-13a1 1 0 0 1 0-2h13a1 1 0 0 1 0 2z" fill="#2946ed"/><path d="m22 40h-7a1 1 0 0 1 0-2h7a1 1 0 0 1 0 2z" fill="#2946ed"/><circle cx="18" cy="72" fill="#4294ff" r="9"/><circle cx="18" cy="72" fill="#376cfb" r="4"/><path d="m9 17h42v2h-42z" fill="#2946ed"/><path d="m36 7h-12v17a1 1 0 0 0 1.625.7808l4.375-3.5 4.375 3.5a1 1 0 0 0 1.625-.7808z" fill="#e6ecff"/></g></svg>