<svg height="512" viewBox="0 0 88 88" width="512" xmlns="http://www.w3.org/2000/svg"><g id="Online_Shop_Moniitor" data-name="Online Shop Moniitor"><rect fill="#e6ecff" height="55" rx="1" width="74" x="7" y="16"/><path d="m77 1h-65l-8 16v3h80v-3z" fill="#4294ff"/><path d="m54 79a3.0033 3.0033 0 0 1 -3-3v-6a1 1 0 0 0 -1-1h-12a1 1 0 0 0 -1 1v6a3.0033 3.0033 0 0 1 -3 3 1 1 0 0 0 0 2h20a1 1 0 0 0 0-2z" fill="#376cfb"/><path d="m54 79h-20a6.0066 6.0066 0 0 0 -6 6v1a1 1 0 0 0 1 1h30a1 1 0 0 0 1-1v-1a6.0066 6.0066 0 0 0 -6-6z" fill="#4294ff"/><path d="m81 61h-74v9a1 1 0 0 0 1 1h72a1 1 0 0 0 1-1z" fill="#4294ff"/><path d="m45 67h-2a1 1 0 0 1 0-2h2a1 1 0 0 1 0 2z" fill="#376cfb"/><path d="m4 17v6a8 8 0 0 0 16 0 8 8 0 0 0 16 0 8 8 0 0 0 16 0 8 8 0 0 0 16 0 8 8 0 0 0 16 0v-6z" fill="#376cfb"/><path d="m52 17v6a8 8 0 0 0 16 0v-6z" fill="#2946ed"/><path d="m20 17v6a8 8 0 0 0 16 0v-6z" fill="#2946ed"/><g fill="#376cfb"><path d="m38 1-2 16h-16l5-16z"/><path d="m68 17h-16l-2-16h13z"/></g></g></svg>