<svg height="512" viewBox="0 0 64 64" width="512" xmlns="http://www.w3.org/2000/svg"><g id="_04-Medical_History" data-name="04-Medical History"><path d="m3 28h2v2h-2z"/><path d="m48 64h-40a5.006 5.006 0 0 1 -5-5v-27h2v27a3 3 0 0 0 3 3h40a3 3 0 0 0 3-3v-32a3 3 0 0 0 -3-3h-28a1 1 0 0 1 -1-1 3 3 0 0 0 -3-3h-8a3 3 0 0 0 -3 3v3h-2v-3a5.006 5.006 0 0 1 5-5h8a5.008 5.008 0 0 1 4.9 4h27.1a5.006 5.006 0 0 1 5 5v32a5.006 5.006 0 0 1 -5 5z"/><path d="m9 19h-2v-2a5.006 5.006 0 0 1 5-5h8a5.006 5.006 0 0 1 5 5h-2a3 3 0 0 0 -3-3h-8a3 3 0 0 0 -3 3z"/><path d="m56 52h-1v-2h1a3 3 0 0 0 3-3v-35h2v35a5.006 5.006 0 0 1 -5 5z"/><path d="m25 11h-2v-4a1 1 0 0 1 .293-.707l6-6a1 1 0 0 1 .707-.293h26a5.006 5.006 0 0 1 5 5v5h-2v-5a3 3 0 0 0 -3-3h-25.586l-5.414 5.414z"/><path d="m28 8h-4a1 1 0 0 1 -.707-1.707l6-6a1 1 0 0 1 1.707.707v4a3 3 0 0 1 -3 3zm-1.586-2h1.586a1 1 0 0 0 1-1v-1.586z"/><path d="m31 49h-6a1 1 0 0 1 -1-1v-3h-3a1 1 0 0 1 -1-1v-6a1 1 0 0 1 1-1h3v-3a1 1 0 0 1 1-1h6a1 1 0 0 1 1 1v3h3a1 1 0 0 1 1 1v6a1 1 0 0 1 -1 1h-3v3a1 1 0 0 1 -1 1zm-5-2h4v-3a1 1 0 0 1 1-1h3v-4h-3a1 1 0 0 1 -1-1v-3h-4v3a1 1 0 0 1 -1 1h-3v4h3a1 1 0 0 1 1 1z"/><path d="m4 58h34v2h-34z"/><path d="m40 58h2v2h-2z"/><path d="m44 58h8v2h-8z"/><path d="m12 22h8v2h-8z"/><path d="m56 20h-28a1 1 0 0 1 -1-1v-8a1 1 0 0 1 1-1h28a1 1 0 0 1 1 1v8a1 1 0 0 1 -1 1zm-27-2h26v-6h-26z"/><path d="m48 4h8v2h-8z"/><path d="m44 4h2v2h-2z"/><path d="m23 17h2v6h-2z"/></g></svg>