<svg height="512" viewBox="0 0 128 128" width="512" xmlns="http://www.w3.org/2000/svg"><g><path d="m85.9 41.953c1.418-10.43-1.2-20.424-8.187-27.411l-63.171 63.168c6.987 6.99 16.984 9.606 27.416 8.19l-.006.006c-1.42 10.432 1.209 20.427 8.2 27.414l63.168-63.168c-6.992-6.992-16.99-9.62-27.42-8.199z" fill="#ffde3e"/><path d="m117.94 48.4-4.62 1.75c-6.99-6.99-16.99-9.62-27.42-8.2 1.42-10.43-1.2-20.42-8.19-27.41l1.89-4.48a5.1 5.1 0 0 1 8.9-1.83l1.89 2.37a5.106 5.106 0 0 0 5.63 1.65l2.4-.83a5.106 5.106 0 0 1 6.75 4.81 4.73 4.73 0 0 1 -.07.83 5.094 5.094 0 0 0 5 5.91 4.762 4.762 0 0 0 .84-.07 5.1 5.1 0 0 1 5.64 6.68l-.83 2.4a5.106 5.106 0 0 0 1.65 5.63l2.37 1.89a5.1 5.1 0 0 1 -1.83 8.9z" fill="#64bc0f"/><path d="m50.15 113.32-1.75 4.62a5.1 5.1 0 0 1 -8.9 1.83l-1.89-2.37a5.106 5.106 0 0 0 -5.63-1.65l-2.4.83a5.1 5.1 0 0 1 -6.68-5.64 4.762 4.762 0 0 0 .07-.84 5.094 5.094 0 0 0 -5.91-5 4.73 4.73 0 0 1 -.83.07 5.106 5.106 0 0 1 -4.81-6.75l.83-2.4a5.106 5.106 0 0 0 -1.65-5.63l-2.37-1.89a5.1 5.1 0 0 1 1.83-8.9l4.48-1.89c6.99 6.99 16.98 9.61 27.41 8.19-1.42 10.43 1.21 20.43 8.2 27.42z" fill="#64bc0f"/><path d="m42.43 99.08-.5.5a9.652 9.652 0 1 1 -13.65-13.65l.49-.5.01-.01a36.861 36.861 0 0 0 13.17.48 36.926 36.926 0 0 0 .48 13.18z" fill="#ef3829"/><path d="m102.41 35.1a9.648 9.648 0 0 1 -2.83 6.83l-.5.5h-.01a36.87 36.87 0 0 0 -13.17-.48 37.1 37.1 0 0 0 -.47-13.17v-.01l.5-.49a9.655 9.655 0 0 1 16.48 6.82z" fill="#ef3829"/><g fill="#422002"><path d="m68.343 92.646-3.181 3.181a1.75 1.75 0 0 0 2.475 2.473l3.18-3.182a1.749 1.749 0 0 0 -2.474-2.474z"/><path d="m120.863 38.135-2.373-1.892a3.351 3.351 0 0 1 -1.079-3.7l.821-2.4a6.844 6.844 0 0 0 -7.572-8.969 3.345 3.345 0 0 1 -3.836-3.836 6.844 6.844 0 0 0 -8.969-7.572l-2.4.821a3.35 3.35 0 0 1 -3.7-1.079l-1.89-2.371a6.843 6.843 0 0 0 -11.918 2.342l-1.717 4.068-12.092 12.094a1.749 1.749 0 1 0 2.474 2.474l11.057-11.056c5.616 6.423 7.7 15.184 6.53 24.35a1.726 1.726 0 0 0 -.084.655c-1.381 9.536-6.282 19.458-14.437 27.614-16.2 16.2-39.373 19.57-52.619 7.991l44.125-44.125a1.75 1.75 0 0 0 -2.475-2.475l-45.162 45.162-4.069 1.716a6.843 6.843 0 0 0 -2.341 11.918l2.372 1.892a3.351 3.351 0 0 1 1.08 3.7l-.82 2.4a6.843 6.843 0 0 0 7.571 8.969 3.343 3.343 0 0 1 3.835 3.836 6.844 6.844 0 0 0 8.969 7.572l2.4-.821a3.347 3.347 0 0 1 3.7 1.079l1.892 2.373a6.806 6.806 0 0 0 5.336 2.58 6.92 6.92 0 0 0 1.4-.143 6.812 6.812 0 0 0 5.2-4.813l1.59-4.2 10.16-10.16a1.75 1.75 0 1 0 -2.475-2.475l-9.158 9.146a27.342 27.342 0 0 1 -6.038-12.014c-.007-.04-.019-.079-.029-.119a34.775 34.775 0 0 1 -.58-11.266 53.553 53.553 0 0 0 28.61-15.249 53.538 53.538 0 0 0 15.248-28.61 34.75 34.75 0 0 1 11.257.578c.045.011.089.024.134.032a27.347 27.347 0 0 1 12.009 6.036l-36.335 36.336a1.75 1.75 0 1 0 2.474 2.476l37.347-37.348 4.2-1.588a6.843 6.843 0 0 0 2.376-11.928zm-74.153 79.344a3.343 3.343 0 0 1 -5.839 1.2l-1.892-2.373a6.857 6.857 0 0 0 -7.564-2.21l-2.4.821a3.343 3.343 0 0 1 -4.382-3.7 6.843 6.843 0 0 0 -7.851-7.852 3.342 3.342 0 0 1 -3.7-4.382l.82-2.4a6.858 6.858 0 0 0 -2.21-7.565l-2.374-1.889a3.343 3.343 0 0 1 1.2-5.839 1.705 1.705 0 0 0 .218-.076l3.431-1.448a30.268 30.268 0 0 0 11.488 6.6 11.4 11.4 0 0 0 15.8 15.851 30.349 30.349 0 0 0 6.666 11.5l-1.363 3.6c-.016.056-.033.109-.048.162zm-6.2-18.968a7.9 7.9 0 0 1 -11.129-11.2 37.356 37.356 0 0 0 7.161.689c1.135 0 2.283-.064 3.435-.161a38.342 38.342 0 0 0 .532 10.672zm47.332-58.533a38.581 38.581 0 0 0 -.528-10.6 7.9 7.9 0 0 1 11.2 11.131 38.233 38.233 0 0 0 -10.672-.531zm32.03 4.182a3.283 3.283 0 0 1 -2.393 2.55c-.053.015-.106.032-.158.052l-3.6 1.363a30.346 30.346 0 0 0 -11.5-6.667 11.4 11.4 0 0 0 -15.855-15.8 30.242 30.242 0 0 0 -6.6-11.479l1.45-3.436a1.667 1.667 0 0 0 .076-.219 3.343 3.343 0 0 1 5.839-1.2l1.892 2.373a6.856 6.856 0 0 0 7.565 2.21l2.4-.821a3.342 3.342 0 0 1 4.381 3.7 6.844 6.844 0 0 0 7.852 7.852 3.342 3.342 0 0 1 3.7 4.381l-.821 2.4a6.857 6.857 0 0 0 2.21 7.565l2.373 1.892a3.285 3.285 0 0 1 1.189 3.284z"/><path d="m69.613 52.112-.149 2.988a1.751 1.751 0 0 0 1.661 1.835h.088a1.751 1.751 0 0 0 1.747-1.664l.149-2.988a1.751 1.751 0 0 0 -1.661-1.835 1.778 1.778 0 0 0 -1.835 1.664z"/><path d="m73.481 31.809a1.747 1.747 0 0 0 -2.391.637l-1.869 3.23a1.75 1.75 0 0 0 3.029 1.754l1.869-3.23a1.749 1.749 0 0 0 -.638-2.391z"/><path d="m54.268 68.24-3.378 1.754a1.75 1.75 0 1 0 1.61 3.106l3.378-1.754a1.75 1.75 0 1 0 -1.613-3.106z"/><path d="m36.348 67.757a1.75 1.75 0 0 0 -1.673 1.824l.163 3.769a1.75 1.75 0 0 0 1.747 1.673h.078a1.75 1.75 0 0 0 1.672-1.823l-.163-3.768a1.775 1.775 0 0 0 -1.824-1.675z"/><path d="m58.22 56.22a1.75 1.75 0 0 0 -1.099-2.22l-2.72-.917a1.75 1.75 0 0 0 -1.118 3.317l2.72.917a1.732 1.732 0 0 0 .559.092 1.751 1.751 0 0 0 1.658-1.189z"/><path d="m94.521 58.271h.049a1.749 1.749 0 0 0 1.7-1.8l-.07-2.629a1.75 1.75 0 0 0 -1.748-1.7h-.052a1.748 1.748 0 0 0 -1.7 1.8l.071 2.63a1.75 1.75 0 0 0 1.75 1.699z"/><path d="m55.211 91.783a1.75 1.75 0 1 0 -1.511 3.156l2.84 1.361a1.75 1.75 0 1 0 1.513-3.156z"/><path d="m75.409 78.061a1.752 1.752 0 0 0 .635-.12l2.211-.86a1.75 1.75 0 1 0 -1.27-3.262l-2.211.861a1.75 1.75 0 0 0 .635 3.381z"/></g></g></svg>