<svg enable-background="new 0 0 128 128" height="512" viewBox="0 0 128 128" width="512" xmlns="http://www.w3.org/2000/svg"><g id="Layer_5"><path d="m75.55 94.5c.03 2.32.56 4.62 1.55 6.76l.57 1.22h4.49c1.1 0 2 .9 2 2 0 .55-.22 1.05-.59 1.41-.36.36-.86.59-1.41.59h-36.48c-1.1 0-2-.9-2-2 0-.55.22-1.05.59-1.41.36-.36.86-.59 1.41-.59h4.65l.57-1.22c.99-2.14 1.52-4.44 1.55-6.76v-3.56h-33.7v-58.51h90.5v58.51h-33.7z" fill="#434953"/><path d="m22.75 36.43h82.5v50.51h-82.5z" fill="#6699d1"/><path d="m52.44 94.5c0-.07.01-.13.01-.2v.2z" fill="#2e3338"/><path d="m75.56 94.5h-.01v-.2c0 .07.01.13.01.2z" fill="#2e3338"/><path d="m77.67 102.48h-27.34l.57-1.22c.99-2.14 1.52-4.44 1.55-6.76v-3.56h23.1v3.56c.03 2.32.56 4.62 1.55 6.76z" fill="#373d44"/><path d="m75.56 94.5h-23.12c0-.07.01-.13.01-.2v-3.36h23.1v3.36c0 .07.01.13.01.2z" fill="#2e3338"/><path d="m88.48 86.84s8.17-7.43 14.32-7.43c.78 0 1.61.12 2.45.33v-12.1c-.7-.08-1.41-.13-2.13-.13-10.08 0-18.26 8.18-18.26 18.26 0 .4.03.79.06 1.18h3.66c-.06-.07-.1-.11-.1-.11z" fill="#6194c1"/><circle cx="103.12" cy="85.76" fill="#fdcc58" r="16.32"/><path d="m102.41 79.64c.01.01.02.01.03.02.09.08.18.15.29.2.12.05.25.08.38.08s.26-.03.38-.08c.11-.05.21-.12.29-.2.01-.01.02-.01.03-.02l3.18-3.18c.39-.39.39-1.02 0-1.41s-1.02-.39-1.41 0l-1.47 1.47v-4.75c0-.55-.45-1-1-1s-1 .45-1 1v4.75l-1.47-1.47c-.39-.39-1.02-.39-1.41 0s-.39 1.02 0 1.41z" fill="#5ac0a6"/><path d="m103.83 91.88c-.01-.01-.03-.02-.04-.03-.04-.03-.08-.06-.12-.09s-.08-.05-.13-.08c-.01-.01-.03-.02-.04-.02-.03-.01-.06-.01-.09-.02-.05-.01-.09-.03-.14-.04s-.1-.01-.15-.01-.09 0-.14.01-.1.02-.15.04c-.03.01-.06.01-.09.02-.01.01-.03.02-.04.02-.04.02-.08.05-.13.08-.04.03-.08.06-.12.09-.01.01-.03.02-.04.03l-3.18 3.18c-.39.39-.39 1.02 0 1.41s1.02.39 1.41 0l1.47-1.47v4.75c0 .55.45 1 1 1s1-.45 1-1v-4.75l1.47 1.47c.39.39 1.02.39 1.41 0s.39-1.02 0-1.41z" fill="#5ac0a6"/><g><path d="m114.37 90.13h-22.5c-.55 0-1-.45-1-1s.45-1 1-1h22.5c.55 0 1 .45 1 1s-.45 1-1 1z" fill="#434953"/></g><g><path d="m114.37 83.38h-22.5c-.55 0-1-.45-1-1s.45-1 1-1h22.5c.55 0 1 .45 1 1s-.45 1-1 1z" fill="#434953"/></g></g></svg>