<svg height="511pt" viewBox="-109 1 511 511.999" width="511pt" xmlns="http://www.w3.org/2000/svg"><path d="m212.402344 363.667969h-18.207032c-3.515624 0-6.375-2.855469-6.375-6.371094v-34.605469c3.167969-1.25 6.28125-2.648437 9.320313-4.195312h7.695313c9.019531 0 16.8125-5.335938 20.402343-13.011719h22.703125c14.851563 0 26.933594-12.082031 26.933594-26.929687v-34.9375c11.382812-6.273438 19.113281-18.390626 19.113281-32.277344 0-6.144532-1.523437-11.941406-4.195312-17.039063.457031-10.265625 2.292969-55.699219-.132813-77.5-3.257812-29.316406-17.566406-58.078125-39.261718-78.914062-6.765626-6.496094-17.457032 4.019531-10.386719 10.8125 19.207031 18.445312 31.871093 43.871093 34.75 69.757812 1.664062 14.984375 1.152343 43.046875.585937 60.878907-5.273437-3.007813-11.351562-4.753907-17.828125-4.820313v-26.035156c0-28.003907-22.738281-56.96875-60.789062-56.96875-14.242188 0-27.074219 5.207031-38.132813 15.480469-6.300781 5.851562-16.058594 5.953124-22.21875.226562-11.21875-10.421875-24.539062-15.707031-39.601562-15.707031-23.949219 0-38.039063 10.242187-45.636719 18.832031-9.007813 10.179688-14.171875 24.078125-14.171875 38.136719v26.035156c-6.460938.066406-12.523438 1.800781-17.785156 4.792969-.574219-17.488282-1.125-45.664063.566406-60.855469 2.792969-25.148437 14.929688-50.054687 33.300781-68.339844 23.078125-22.976562 55.492188-35.121093 93.730469-35.121093h.941406c24.046875 0 45.632813 4.683593 64.152344 13.921874 8.394531 4.1875 15.46875-9.039062 6.691406-13.414062-20.617187-10.285156-44.453125-15.5-70.84375-15.5h-.9375c-42.292968 0-78.359375 13.65625-104.316406 39.488281-20.746094 20.652344-34.457031 48.828125-37.625 77.3125-2.496094 22.484375-.46875 69.273438-.089844 77.382813-2.710937 5.128906-4.253906 10.964844-4.253906 17.15625 0 21.734375 18.921875 37.878906 40.09375 36.832031 8.957031 34.007813 33.792969 61.644531 66.074219 74.460937v34.664063c0 3.515625-2.859375 6.371094-6.375 6.371094h-18.207031c-44.484376 0-80.675782 36.1875-80.675782 80.664062 0 9.382813 14.992188 9.808594 14.992188 0 0-36.210937 29.464844-65.671875 65.683594-65.671875h13.703124c3.554688 25.222656 25.269532 44.691406 51.453126 44.691406 26.1875 0 47.902343-19.46875 51.457031-44.691406h13.703125c36.214844 0 65.679687 29.460938 65.679687 65.671875v52.675781h-261.679687v-13.6875c0-9.378906-14.992188-9.808593-14.992188 0v21.183594c0 4.140625 3.355469 7.496094 7.496094 7.496094h276.671875c4.140625 0 7.496094-3.355469 7.496094-7.496094v-60.171875c0-44.476562-36.191407-80.664062-80.671875-80.664062zm-.050782-67.683594c0 4.144531-3.371093 7.519531-7.515624 7.519531h-17.023438c-9.40625 0-9.835938-15.039062 0-15.039062h17.023438c4.144531 0 7.515624 3.375 7.515624 7.519531zm66.640626-84.644531c0 12.042968-9.796876 21.839844-21.84375 21.839844h-.398438c.507812-4.3125.769531-8.679688.769531-13.089844v-30.578125c11.875.195312 21.472657 9.910156 21.472657 21.828125zm-263.5 0c0-11.917969 9.601562-21.632813 21.472656-21.828125v30.589843c0 4.425782.269531 8.789063.78125 13.078126h-.410156c-12.042969 0-21.84375-9.796876-21.84375-21.839844zm36.464843 8.761718v-71.621093c0-10.445313 3.792969-20.726563 10.410157-28.203125 7.972656-9.011719 19.871093-13.773438 34.410156-13.773438 11.148437 0 21.039062 3.933594 29.394531 11.699219 11.878906 11.042969 30.605469 10.941406 42.628906-.226563 8.195313-7.613281 17.59375-11.472656 27.925781-11.472656 31.589844 0 45.796876 24.546875 45.796876 41.976563v71.609375c0 14.234375-3.058594 27.921875-9.09375 40.683594-4.011719 8.480468 9.359374 15.273437 13.554687 6.40625 2.914063-6.160157 5.21875-12.507813 6.929687-19.007813 1.976563.027344 3.996094.03125 5.964844-.113281v30.492187c0 6.582031-5.355468 11.9375-11.9375 11.9375h-20.433594c-2.511718-9.496093-13.261718-17.015625-22.675781-17.015625h-17.019531c-12.414062 0-22.511719 10.097656-22.511719 22.511719 0 6.316406 2.617188 12.027344 6.820313 16.121094-8.011719 2.152343-16.363282 3.265625-24.890625 3.265625-52.535157 0-95.273438-42.738282-95.273438-95.269532zm95.285157 188.257813c-18.816407 0-34.386719-14.132813-36.679688-32.335937 6.605469-3.640626 11.097656-10.667969 11.097656-18.726563v-29.933594c8.210938 1.957031 16.777344 3.003907 25.582032 3.003907 8.730468 0 17.300781-1.015626 25.585937-2.972657v29.902344c0 8.0625 4.488281 15.089844 11.09375 18.726563-2.292969 18.203124-17.859375 32.335937-36.679687 32.335937zm0 0"/><path d="m252.859375 472.648438c4.140625 0 7.496094-3.355469 7.496094-7.496094v-24.023438c0-4.140625-3.355469-7.5-7.496094-7.5h-60.066406c-4.140625 0-7.496094 3.359375-7.496094 7.5v24.023438c0 4.140625 3.355469 7.496094 7.496094 7.496094zm-52.570313-24.023438h45.074219v9.03125h-45.074219zm0 0"/></svg>