<svg height="512" viewBox="0 0 64 64" width="512" xmlns="http://www.w3.org/2000/svg"><g id="_05-Syringe" data-name="05-Syringe"><path d="m11 64a1 1 0 0 1 -.707-.293l-10-10a1 1 0 0 1 0-1.414l3-3a1 1 0 0 1 1.414 0l10 10a1 1 0 0 1 0 1.414l-3 3a1 1 0 0 1 -.707.293zm-8.586-11 8.586 8.586 1.586-1.586-8.586-8.586z"/><path d="m27 52a1 1 0 0 1 -.707-.293l-14-14a1 1 0 0 1 0-1.414l24-24a1 1 0 0 1 1.414 0l14 14a1 1 0 0 1 0 1.414l-24 24a1 1 0 0 1 -.707.293zm-12.586-15 12.586 12.586 22.586-22.586-12.586-12.586z"/><path d="m23 54a1 1 0 0 1 -.707-.293l-12-12a1 1 0 0 1 0-1.414l3-3 1.414 1.414-2.293 2.293 10.586 10.586 2.293-2.293 1.414 1.414-3 3a1 1 0 0 1 -.707.293z"/><path d="m4.757 48h8.485v2h-8.485z" transform="matrix(.707 -.707 .707 .707 -32.012 20.716)"/><path d="m10.343 53h11.314v2h-11.314z" transform="matrix(.707 -.707 .707 .707 -33.497 27.13)"/><path d="m49.707 25.707-1.414-1.414 2.293-2.293-8.586-8.586-2.293 2.293-1.414-1.414 3-3a1 1 0 0 1 1.414 0l10 10a1 1 0 0 1 0 1.414z"/><path d="m47.707 17.707-1.414-1.414 14.293-14.293h-1.172l-13.707 13.707-1.414-1.414 14-14a1 1 0 0 1 .707-.293h4a1 1 0 0 1 .707 1.707z"/><path d="m22.586 30h2.828v2h-2.828z" transform="matrix(.707 -.707 .707 .707 -14.891 26.05)"/><path d="m27 47a1 1 0 0 1 -.707-.293l-9-9a1 1 0 0 1 0-1.414l3-3 1.414 1.414-2.293 2.293 7.586 7.586 17.586-17.586-7.586-7.586-9.293 9.293-1.414-1.414 10-10a1 1 0 0 1 1.414 0l9 9a1 1 0 0 1 0 1.414l-19 19a1 1 0 0 1 -.707.293z"/><path d="m28 37.172h2v5.657h-2z" transform="matrix(.707 -.707 .707 .707 -19.79 32.222)"/><path d="m31.5 35.379h2v4.243h-2z" transform="matrix(.707 -.707 .707 .707 -16.997 33.964)"/><path d="m34 31.172h2v5.657h-2z" transform="matrix(.707 -.707 .707 .707 -13.79 34.707)"/><path d="m37.5 29.379h2v4.243h-2z" transform="matrix(.707 -.707 .707 .707 -10.997 36.45)"/><path d="m40 25.172h2v5.657h-2z" transform="matrix(.707 -.707 .707 .707 -7.79 37.192)"/><path d="m59 23a5.006 5.006 0 0 1 -5-5c0-2.4 3.479-7.559 4.177-8.568a1.038 1.038 0 0 1 1.646 0c.698 1.009 4.177 6.168 4.177 8.568a5.006 5.006 0 0 1 -5 5zm0-11.192c-1.439 2.249-3 5.1-3 6.192a3 3 0 0 0 6 0c0-1.093-1.561-3.943-3-6.192z"/></g></svg>