<svg height="512" viewBox="0 0 88 88" width="512" xmlns="http://www.w3.org/2000/svg"><g id="Email"><path d="m13.4043 27.0859a1.0008 1.0008 0 0 0 -1.0772.1739l-11 10a1 1 0 0 0 .0792 1.5449l11 8.12a1 1 0 0 0 1.5937-.8047v-18.12a1 1 0 0 0 -.5957-.9141z" fill="#376cfb"/><path d="m86.6729 37.26-11-10a1.0006 1.0006 0 0 0 -1.6729.74v18.12a1 1 0 0 0 .55.8926.9882.9882 0 0 0 .45.1074 1.0012 1.0012 0 0 0 .5938-.1953l11-8.12a1 1 0 0 0 .0791-1.5449z" fill="#376cfb"/><path d="m12 13v33.12a.9991.9991 0 0 0 .4063.8047l21.52 15.88a1.0021 1.0021 0 0 0 1.1875 0l8.8862-6.5615 8.8867 6.5615a1 1 0 0 0 1.1875 0l21.52-15.88a.9993.9993 0 0 0 .4058-.8047v-44.12a1 1 0 0 0 -1-1h-51z" fill="#e6ecff"/><path d="m50.5566 36.999a.9993.9993 0 0 0 -.9365-.0937 15.036 15.036 0 0 1 -11.24 0 .9994.9994 0 0 0 -1.3801.9247v13.17a1 1 0 0 0 1.5547.832l5.4453-3.6299 5.4453 3.63a1 1 0 0 0 1.5547-.8321v-13.17a1.0017 1.0017 0 0 0 -.4434-.831z" fill="#376cfb"/><circle cx="44" cy="23" fill="#4294ff" r="17"/><circle cx="44" cy="23" fill="#376cfb" r="13"/><g fill="#2946ed"><circle cx="40" cy="19" r="3"/><circle cx="48" cy="27" r="3"/><path d="m38.293 28.707a.9994.9994 0 0 1 0-1.414l10-10a1 1 0 0 1 1.414 1.414l-10 10a.9994.9994 0 0 1 -1.414 0z"/></g><path d="m86.45 37.1074a1.0009 1.0009 0 0 0 -1.0439.0879l-31.9239 23.56-8.8886-6.56a1.0021 1.0021 0 0 0 -1.1875 0l-8.8887 6.56-31.9236-23.56a1 1 0 0 0 -1.5938.8047v48a1 1 0 0 0 1 1h84a1 1 0 0 0 1-1v-48a1 1 0 0 0 -.55-.8926z" fill="#4294ff"/><path d="m87 85.5v.5a1.0029 1.0029 0 0 1 -1 1h-84a1.0029 1.0029 0 0 1 -1-1v-.5l42.41-31.3a.99.99 0 0 1 1.18 0z" fill="#376cfb"/><path d="m12 13h11a1 1 0 0 0 1-1v-11z" fill="#d0dbf7"/></g></svg>