<svg enable-background="new 0 0 128 128" height="512" viewBox="0 0 128 128" width="512" xmlns="http://www.w3.org/2000/svg"><g id="Layer_6"><g fill="#cecece"><path d="m52.36 93.17c.06-.78.09-1.57.09-2.36 0 .79-.04 1.58-.09 2.36z"/><path d="m75.55 90.81c0 .61.03 1.21.06 1.81-.03-.6-.06-1.2-.06-1.81z"/><path d="m75.63 93.1c-.01-.16-.01-.32-.02-.48.01.16.02.32.03.48z"/></g><path d="m75.55 87.74v3.07c0 .77.03 1.53.08 2.29.18 2.62.68 5.2 1.47 7.64l.57 1.74h4.49c1.1 0 2 .9 2 2 0 .55-.22 1.05-.59 1.41-.36.36-.86.59-1.41.59h-36.48c-1.1 0-2-.9-2-2 0-.55.22-1.05.59-1.41.36-.36.86-.59 1.41-.59h4.65l.57-1.74c.78-2.41 1.28-4.97 1.46-7.57.06-.78.09-1.57.09-2.36v-3.07c-16.44.53-39.95 1.75-39.95 1.75v-58.51s38.62 2 51.5 2 51.5-2 51.5-2v58.51s-23.51-1.22-39.95-1.75z" fill="#e5e7ea"/><path d="m111.5 35.18v50.1c-10.41-.52-37.05-1.79-47.5-1.79s-37.09 1.27-47.5 1.79v-50.1c10.41.52 37.05 1.8 47.5 1.8s37.09-1.28 47.5-1.8z" fill="#4c545e"/><path d="m44.39 84.02c7.8-.3 15.17-.53 19.61-.53 10.45 0 37.09 1.27 47.5 1.79v-50.1c-4.6.23-12.38.61-20.53.96z" fill="#434953"/><path d="m77.67 102.48h-27.34l.57-1.74c1.02-3.14 1.55-6.52 1.55-9.93v-3.07c4.64-.15 8.72-.25 11.55-.25s6.91.1 11.55.25v3.07c0 3.41.53 6.79 1.55 9.93z" fill="#d9dadb"/><path d="m64 87.49c-2.83 0-6.91.1-11.55.25v3.07c0 .79-.04 1.58-.09 2.36 7.58-.59 15.35-.6 23.28-.07-.05-.76-.09-1.52-.09-2.29v-3.07c-4.64-.15-8.72-.25-11.55-.25z" fill="#cecece"/></g></svg>