<svg height="511pt" viewBox="-107 0 511 511.99995" width="511pt" xmlns="http://www.w3.org/2000/svg"><path d="m274.632812 243.917969c11.28125-6.289063 18.929688-18.335938 18.929688-32.140625 0-10.601563-4.515625-20.164063-11.71875-26.882813 8.652344-19.015625 19.933594-55.640625 14.921875-90.007812-1.351563-9.269531-16.226563-7.53125-14.8125 2.160156 4.375 30-5.570313 62.933594-13.019531 80.023437-3.695313-1.296874-7.660156-2.023437-11.785156-2.0625v-33.792968c1.519531-6.9375-6.933594-11.925782-12.300782-7.414063-24.792968 13.179688-64.246094 18.457031-108.648437 14.472657-42.824219-3.839844-75.386719-15.109376-85.417969-24.253907-4.78125-4.359375-13.867188-1.105469-13.867188 5.53125v45.457031c-3.707031.035157-7.28125.617188-10.652343 1.679688-1.722657-8.121094-4.320313-21.5625-6.039063-36.113281-3.453125-29.1875-1.90625-50.335938 4.359375-59.550781 12.929688-19.011719 33.992188-13.519532 34.839844-13.285157 3.59375 1.023438 7.390625-.753906 8.902344-4.167969.238281-.539062 24.753906-53.589843 111.417969-48.222656 53.882812 3.335938 78.675781 26.675782 89.984374 45.671875 4.796876 8.046875 17.875.753907 12.867188-7.660156-13.160156-22.09375-41.519531-49.214844-101.925781-52.953125-50.28125-3.113281-81.710938 12.265625-99.214844 25.710938-12.761719 9.804687-20.222656 20.035156-23.914063 26.058593-12.515624-1.480469-32.402343 1.40625-45.335937 20.429688-17.746094 26.097656-3.761719 93.761719.429687 111.898437-7.445312 6.734375-12.132812 16.464844-12.132812 27.273438 0 20.277344 16.5 36.777344 36.78125 36.777344h3.230469c3.613281 13.808593 9.902343 26.808593 18.722656 38.441406 5.59375 7.375 17.878906-1.199219 11.929687-9.046875-12.613281-16.632813-19.277343-36.488281-19.277343-57.421875v-77.859375c18.253906 9.753906 48.773437 17.449219 82.972656 20.519531 10.03125.898438 19.851563 1.339844 29.355469 1.339844 30.230468 0 57.292968-4.480469 77.960937-12.972656v68.957031c0 52.464843-42.683593 95.148437-95.160156 95.148437-20.066406 0-39.253906-6.175781-55.488281-17.851562-7.601563-5.472656-16.691406 6.433594-8.742188 12.152344 7.421875 5.339843 15.386719 9.671874 23.726563 12.972656v24.09375c-2.414063-.8125-5.15625-.371094-7.210938 1.359375l-18.433593 15.527343c-43.914063.59375-79.457032 36.472657-79.457032 80.519532v60.082031c0 4.132813 3.347656 7.484375 7.484375 7.484375h215.992188c9.371093 0 9.796875-14.972656 0-14.972656h-45.429688l-14.398437-51.796875 10.734375-24.203125 29 19.175781c4.90625 3.246094 11.613281-.390625 11.613281-6.242187v-54.949219c34.160156 2.230469 61.273438 30.710937 61.273438 65.421875v52.59375h-19.855469c-9.367188 0-9.792969 14.972656 0 14.972656h27.339843c4.136719 0 7.488282-3.351562 7.488282-7.488281v-60.078125c0-44.039063-35.535156-79.914063-79.4375-80.519532l-18.433594-15.527343c-2.0625-1.734375-4.816406-2.175781-7.230469-1.355469v-24.125c32.226563-12.800781 57.023438-40.394531 65.972657-74.351562 2.03125.03125 4.117187.03125 6.140624-.125v1.652343c0 21.597657-8.007812 42.429688-21.996093 58.484375-2.664063-1.152344-5.597657-1.789062-8.675781-1.789062-12.117188 0-21.976563 9.855468-21.976563 21.972656 0 12.121094 9.859375 21.976562 21.976563 21.976562 12.117187 0 21.976562-9.855468 21.976562-21.976562 0-3.570312-.863281-6.941406-2.382812-9.925781 16.5625-18.8125 26.046874-43.324219 26.046874-68.742188zm-259.160156-32.140625c0-11.902344 9.585938-21.601563 21.441406-21.796875v30.546875c0 4.398437.261719 8.753906.765626 13.054687h-.394532c-12.027344.003907-21.8125-9.78125-21.8125-21.804687zm136.789063 225.386718h-11.308594l-10.089844-24.339843 16.179688-10.789063 16.050781 10.703125zm-17.386719-45.054687-42.230469 27.925781v-46.46875l11.296875-9.511718zm24.332031 0 30.933594-28.054687 11.292969 9.511718v46.46875zm-142.824219 52.324219c0-34.714844 27.125-63.199219 61.292969-65.421875v54.949219c0 5.855468 6.707031 9.488281 11.613281 6.242187l28.816407-19.054687 9.945312 23.984374-14.421875 51.898438h-97.246094zm112.78125 52.597656 12.480469-44.894531h9.796875l12.476563 44.894531zm43.523438-137.359375-25.644531 23.261719-25.667969-23.277344c.070312-.703125.109375-1.414062.109375-2.132812v-29.859376c8.289063 1.960938 16.84375 2.964844 25.546875 2.964844 8.792969 0 17.34375-1.039062 25.546875-2.996094v29.890626c0 .726562.039063 1.441406.109375 2.148437zm84.460938-139.15625v-30.535156c11.855468.199219 21.441406 9.894531 21.441406 21.796875 0 12.023437-9.785156 21.808594-21.8125 21.808594h-.410156c.511718-4.289063.78125-8.648438.78125-13.070313zm-35.164063 108.238281c0-3.863281 3.144531-7.003906 7.007813-7.003906 3.863281 0 7.003906 3.140625 7.003906 7.003906 0 3.863282-3.140625 7.003906-7.003906 7.003906-3.863282 0-7.007813-3.140624-7.007813-7.003906zm0 0"/></svg>