<svg height="512" viewBox="0 0 128 128" width="512" xmlns="http://www.w3.org/2000/svg"><g><path d="m22.833 47.454c2.9-5.539 7.471-8.629 10.317-15.4a3.479 3.479 0 0 1 4.985 0 3.479 3.479 0 0 1 4.985 0c2.846 6.775 7.422 9.865 10.317 15.4z" fill="#ef983b"/><path d="m41.139 20.276v10.754a3.567 3.567 0 0 0 -3 1.019 3.565 3.565 0 0 0 -3-1.019v-10.754c0-3.275-2.358-4.473-5.074-7.109a3.924 3.924 0 0 1 2.876-6.861 5.563 5.563 0 0 1 5.2 3.108 5.564 5.564 0 0 1 5.2-3.108 3.923 3.923 0 0 1 2.875 6.861c-2.716 2.633-5.077 3.833-5.077 7.109z" fill="#f2e7cb"/><path d="m105.167 47.454c-2.9-5.539-7.471-8.629-10.317-15.4a3.48 3.48 0 0 0 -4.986 0 3.479 3.479 0 0 0 -4.985 0c-2.846 6.775-7.421 9.865-10.317 15.4z" fill="#ef983b"/><path d="m86.861 20.276v10.754a3.566 3.566 0 0 1 3 1.019 3.566 3.566 0 0 1 3-1.019v-10.754c0-3.275 2.358-4.473 5.073-7.109a3.923 3.923 0 0 0 -2.875-6.861 5.562 5.562 0 0 0 -5.2 3.108 5.564 5.564 0 0 0 -5.2-3.108 3.923 3.923 0 0 0 -2.875 6.861c2.716 2.633 5.077 3.833 5.077 7.109z" fill="#f2e7cb"/><path d="m79.3 47.454c-2.9-5.539-7.471-8.629-10.317-15.4a3.479 3.479 0 0 0 -4.985 0 3.479 3.479 0 0 0 -4.985 0c-2.846 6.775-7.422 9.865-10.317 15.4z" fill="#ef983b"/><rect fill="#ffde3e" height="16.546" rx="6.072" width="115.387" x="6.306" y="47.454"/><path d="m114.895 64-6.847 57.694h-86.416l-8.527-57.694z" fill="#ef3829"/><circle cx="64" cy="92.847" fill="#f2e7cb" r="17.292"/><path d="m61 20.276v10.754a3.566 3.566 0 0 1 3 1.019 3.566 3.566 0 0 1 3-1.019v-10.754c0-3.276 2.361-4.476 5.077-7.109a3.924 3.924 0 0 0 -2.877-6.861 5.564 5.564 0 0 0 -5.2 3.108 5.564 5.564 0 0 0 -5.2-3.108 3.924 3.924 0 0 0 -2.875 6.861c2.714 2.633 5.075 3.833 5.075 7.109z" fill="#f2e7cb"/><g fill="#422002"><path d="m115.622 45.7h-9.448a44.473 44.473 0 0 0 -4.125-5.727 34.272 34.272 0 0 1 -5.586-8.6 1.764 1.764 0 0 0 -.339-.522 5.181 5.181 0 0 0 -1.506-1.085v-9.49c0-1.717.864-2.553 2.819-4.279.544-.48 1.125-.994 1.723-1.574a5.71 5.71 0 0 0 1.458-6.317 5.807 5.807 0 0 0 -5.552-3.549 7.37 7.37 0 0 0 -5.2 1.966 7.372 7.372 0 0 0 -5.2-1.966 5.808 5.808 0 0 0 -5.552 3.549 5.71 5.71 0 0 0 1.458 6.317c.6.58 1.179 1.094 1.723 1.574 1.955 1.726 2.819 2.562 2.819 4.279v9.489a5.2 5.2 0 0 0 -1.506 1.085 1.768 1.768 0 0 0 -.338.522 34.337 34.337 0 0 1 -5.585 8.6c-.247.3-.493.63-.743.94-.252-.313-.5-.63-.755-.938a34.323 34.323 0 0 1 -5.587-8.602 1.784 1.784 0 0 0 -.339-.522 5.2 5.2 0 0 0 -1.506-1.085v-9.489c0-1.717.864-2.553 2.819-4.279.544-.48 1.125-.994 1.723-1.574a5.712 5.712 0 0 0 1.457-6.317 5.808 5.808 0 0 0 -5.554-3.549 7.368 7.368 0 0 0 -5.2 1.966 7.372 7.372 0 0 0 -5.2-1.966 5.806 5.806 0 0 0 -5.551 3.549 5.71 5.71 0 0 0 1.458 6.317c.6.58 1.178 1.094 1.723 1.575 1.954 1.726 2.819 2.561 2.819 4.278v9.489a5.172 5.172 0 0 0 -1.506 1.085 1.748 1.748 0 0 0 -.34.522 34.3 34.3 0 0 1 -5.585 8.606c-.251.308-.5.625-.756.938-.249-.31-.5-.636-.741-.939a34.243 34.243 0 0 1 -5.585-8.6 1.764 1.764 0 0 0 -.339-.522 5.179 5.179 0 0 0 -1.506-1.084v-9.49c0-1.717.864-2.552 2.818-4.278.545-.481 1.126-.995 1.724-1.575a5.714 5.714 0 0 0 1.458-6.317 5.808 5.808 0 0 0 -5.552-3.549 7.372 7.372 0 0 0 -5.2 1.966 7.37 7.37 0 0 0 -5.2-1.966 5.807 5.807 0 0 0 -5.552 3.549 5.71 5.71 0 0 0 1.458 6.317c.6.58 1.179 1.094 1.723 1.575 1.955 1.726 2.819 2.561 2.819 4.278v9.489a5.186 5.186 0 0 0 -1.506 1.085 1.745 1.745 0 0 0 -.339.522 34.3 34.3 0 0 1 -5.586 8.606 44.461 44.461 0 0 0 -4.13 5.717h-9.448a7.83 7.83 0 0 0 -7.821 7.822v4.4a7.832 7.832 0 0 0 7.032 7.782l8.311 56.245a1.748 1.748 0 0 0 1.731 1.494h12.955a1.75 1.75 0 0 0 0-3.5h-11.444l-8.01-54.193h97.792l-.553 4.663a1.751 1.751 0 0 0 1.532 1.944 1.853 1.853 0 0 0 .208.012 1.752 1.752 0 0 0 1.737-1.544l.607-5.121a7.831 7.831 0 0 0 6.988-7.776v-4.4a7.83 7.83 0 0 0 -7.821-7.828zm-31.014-32.327c-.505-.446-1.046-.923-1.6-1.462a2.248 2.248 0 0 1 -.652-2.489 2.346 2.346 0 0 1 2.308-1.365 3.8 3.8 0 0 1 3.586 2.026 1.743 1.743 0 0 0 1.6 1.067 1.875 1.875 0 0 0 1.628-1.045 3.79 3.79 0 0 1 3.593-2.048 2.346 2.346 0 0 1 2.308 1.365 2.246 2.246 0 0 1 -.651 2.489c-.556.539-1.1 1.016-1.6 1.462-2.059 1.817-4 3.534-4 6.9v9.133a5.345 5.345 0 0 0 -1.253.5 5.318 5.318 0 0 0 -1.254-.5v-9.13c-.01-3.369-1.954-5.086-4.013-6.903zm-4.208 28.81a37.765 37.765 0 0 0 5.941-9.091 1.715 1.715 0 0 1 2.373.273 1.75 1.75 0 0 0 2.309 0 2.092 2.092 0 0 1 1.469-.63 1.783 1.783 0 0 0 .245.031 1.636 1.636 0 0 1 .655.318 37.734 37.734 0 0 0 5.943 9.1c.952 1.172 1.863 2.315 2.7 3.52h-21.726q-.577-.993-1.2-1.9c.415-.538.842-1.071 1.291-1.621zm-21.655-28.809c-.507-.447-1.047-.923-1.6-1.463a2.248 2.248 0 0 1 -.652-2.489 2.345 2.345 0 0 1 2.307-1.365 3.794 3.794 0 0 1 3.585 2.026 1.75 1.75 0 0 0 3.233 0 3.785 3.785 0 0 1 3.582-2.026 2.346 2.346 0 0 1 2.31 1.365 2.248 2.248 0 0 1 -.652 2.489c-.555.539-1.095 1.016-1.6 1.462-2.059 1.817-4 3.534-4 6.9v9.133a5.335 5.335 0 0 0 -1.254.5 5.328 5.328 0 0 0 -1.253-.5v-9.13c-.004-3.369-1.951-5.085-4.006-6.902zm1.727 19.718a1.717 1.717 0 0 1 2.374.273 1.748 1.748 0 0 0 2.308 0 1.716 1.716 0 0 1 2.371-.278 37.789 37.789 0 0 0 5.943 9.1c.952 1.171 1.862 2.314 2.7 3.519h-24.337c.839-1.2 1.749-2.348 2.7-3.519a37.818 37.818 0 0 0 5.941-9.095zm-27.592-19.718c-.506-.447-1.047-.923-1.6-1.463a2.248 2.248 0 0 1 -.652-2.489 2.346 2.346 0 0 1 2.309-1.365 3.8 3.8 0 0 1 3.585 2.026 1.743 1.743 0 0 0 1.6 1.067 1.764 1.764 0 0 0 1.627-1.045 3.8 3.8 0 0 1 3.6-2.048 2.344 2.344 0 0 1 2.308 1.365 2.246 2.246 0 0 1 -.652 2.489c-.556.54-1.1 1.016-1.6 1.463-2.058 1.817-4 3.533-4 6.9v9.133a5.378 5.378 0 0 0 -1.254.5 5.311 5.311 0 0 0 -1.253-.5v-9.131c-.016-3.369-1.96-5.085-4.018-6.902zm-4.213 28.811a37.788 37.788 0 0 0 5.94-9.093 1.717 1.717 0 0 1 2.374.273 1.748 1.748 0 0 0 2.308 0 1.72 1.72 0 0 1 2.372-.278 37.759 37.759 0 0 0 5.941 9.1c.447.549.874 1.082 1.294 1.616q-.63.909-1.2 1.9h-21.73c.839-1.203 1.749-2.347 2.701-3.518zm91.276 15.743a4.326 4.326 0 0 1 -4.321 4.322h-103.244a4.326 4.326 0 0 1 -4.321-4.322v-4.4a4.327 4.327 0 0 1 4.321-4.328h103.244a4.326 4.326 0 0 1 4.321 4.322z"/><path d="m47.322 119.943h-4.5a1.75 1.75 0 0 0 0 3.5h4.5a1.75 1.75 0 0 0 0-3.5z"/><path d="m113.41 76.511a1.746 1.746 0 0 0 -1.944 1.532l-4.973 41.9h-50.514a1.75 1.75 0 0 0 0 3.5h52.069a1.75 1.75 0 0 0 1.738-1.544l5.156-43.444a1.75 1.75 0 0 0 -1.532-1.944z"/><path d="m99.265 96.586-1.831 15.427a1.75 1.75 0 0 0 1.532 1.944 1.826 1.826 0 0 0 .208.012 1.751 1.751 0 0 0 1.736-1.544l1.831-15.425a1.75 1.75 0 1 0 -3.476-.412z"/><path d="m101.857 91.356a1.751 1.751 0 0 0 1.736-1.543l.456-3.84a1.75 1.75 0 1 0 -3.475-.412l-.456 3.839a1.75 1.75 0 0 0 1.531 1.944 1.633 1.633 0 0 0 .208.012z"/><path d="m83.042 92.847a19.042 19.042 0 1 0 -19.042 19.042 19.063 19.063 0 0 0 19.042-19.042zm-34.584 0a15.542 15.542 0 1 1 15.542 15.542 15.559 15.559 0 0 1 -15.542-15.542z"/></g></g></svg>