<svg height="512" viewBox="0 0 88 88" width="512" xmlns="http://www.w3.org/2000/svg"><g id="Give_Shop" data-name="Give Shop"><path d="m27.707 76.293-16-16a.9994.9994 0 0 0 -1.414 0l-8 8a.9994.9994 0 0 0 0 1.414l16 16a.9995.9995 0 0 0 1.414 0l8-8a.9994.9994 0 0 0 0-1.414z" fill="#376cfb"/><path d="m84.6719 39.3281a4.5429 4.5429 0 0 0 -6.4141 0l-13.5578 13.5576a4.5073 4.5073 0 0 0 -4.2-2.8857h-15.1973l-1.7636-1.1758a16.816 16.816 0 0 0 -20.75 1.65l-5.4483 4.7738a1.0008 1.0008 0 0 0 -.0478 1.459l14 14a.9995.9995 0 0 0 1.414 0l3.7071-3.707h23.2724a8.9362 8.9362 0 0 0 6.3635-2.6357l18.6219-18.6221a4.542 4.542 0 0 0 0-6.4141z" fill="#ffddd4"/><path d="m67 54.5a6.5127 6.5127 0 0 1 -6.5 6.5h-16.5a1 1 0 0 1 0-2h16.5a4.4953 4.4953 0 0 0 4.2-6.11l1.5-1.5a6.4511 6.4511 0 0 1 .8 3.11z" fill="#e5b7b1"/><path d="m64.9971 12.9287a1 1 0 0 0 -.9971-.9287h-26a1 1 0 0 0 -.9971.9287l-2 28a1 1 0 0 0 .9971 1.0713h30a1 1 0 0 0 .9971-1.0713z" fill="#4294ff"/><path d="m57 20a1 1 0 0 1 -1-1v-10a5 5 0 0 0 -10 0v10a1 1 0 0 1 -2 0v-10a7 7 0 0 1 14 0v10a1 1 0 0 1 -1 1z" fill="#376cfb"/><path d="m35.707 72.293-20-20a.9994.9994 0 0 0 -1.414 0l-6 6a.9994.9994 0 0 0 0 1.414l20 20a.9995.9995 0 0 0 1.414 0l6-6a.9994.9994 0 0 0 0-1.414z" fill="#4294ff"/></g></svg>