<svg enable-background="new 0 0 128 128" height="512" viewBox="0 0 128 128" width="512" xmlns="http://www.w3.org/2000/svg"><g id="Layer_8"><g fill="#fdcc58"><path d="m26.91 61.28c-.82-1.1-2.15-1.82-3.63-1.82-2.5 0-4.53 2.03-4.53 4.54s2.03 4.54 4.53 4.54c1.48 0 2.81-.72 3.63-1.82h9.05v-5.44zm-3.63 4.53c-1 0-1.81-.81-1.81-1.81s.81-1.82 1.81-1.82 1.82.82 1.82 1.82-.82 1.81-1.82 1.81z"/><path d="m26.91 79.43c-.82-1.1-2.15-1.82-3.63-1.82-2.5 0-4.53 2.04-4.53 4.54 0 2.51 2.03 4.54 4.53 4.54 1.48 0 2.81-.72 3.63-1.81h9.05v-5.45zm-3.63 4.54c-1 0-1.81-.82-1.81-1.82s.81-1.81 1.81-1.81 1.82.81 1.82 1.81-.82 1.82-1.82 1.82z"/><path d="m26.91 43.12c-.82-1.09-2.15-1.81-3.63-1.81-2.5 0-4.53 2.03-4.53 4.54 0 2.5 2.03 4.54 4.53 4.54 1.48 0 2.81-.72 3.63-1.82h9.05v-5.45zm-3.63 4.54c-1 0-1.81-.81-1.81-1.81s.81-1.82 1.81-1.82 1.82.82 1.82 1.82-.82 1.81-1.82 1.81z"/><path d="m66.72 101.09v-9.05h-5.44v9.05c-1.1.82-1.82 2.15-1.82 3.63 0 2.5 2.03 4.53 4.54 4.53s4.54-2.03 4.54-4.53c0-1.48-.72-2.81-1.82-3.63zm-2.72 5.44c-1 0-1.81-.81-1.81-1.81s.81-1.82 1.81-1.82 1.82.82 1.82 1.82-.82 1.81-1.82 1.81z"/><path d="m48.57 100.09v-8.05h-5.45v9.05c-1.09.82-1.81 2.15-1.81 3.63 0 2.5 2.03 4.53 4.54 4.53 2.5 0 4.54-2.03 4.54-4.53 0-1.48-.72-2.81-1.82-4.63zm-2.72 6.44c-1 0-1.82-.81-1.82-1.81s.82-1.82 1.82-1.82 1.81.82 1.81 1.82-.81 1.81-1.81 1.81z"/><path d="m84.88 101.09v-9.05h-5.45v9.05c-1.1.82-1.82 2.15-1.82 3.63 0 2.5 2.04 4.53 4.54 4.53 2.51 0 4.54-2.03 4.54-4.53 0-1.48-.72-2.81-1.81-3.63zm-2.73 5.44c-1 0-1.81-.81-1.81-1.81s.81-1.82 1.81-1.82 1.82.82 1.82 1.82-.82 1.81-1.82 1.81z"/><path d="m104.72 59.46c-1.48 0-2.81.72-3.63 1.82h-9.05v5.44h9.05c.82 1.1 2.15 1.82 3.63 1.82 2.5 0 4.53-2.03 4.53-4.54s-2.03-4.54-4.53-4.54zm0 6.35c-1 0-1.82-.81-1.82-1.81s.82-1.82 1.82-1.82 1.81.82 1.81 1.82-.81 1.81-1.81 1.81z"/><path d="m104.72 77.61c-1.48 0-2.81.72-3.63 1.82h-9.05v5.45h9.05c.82 1.09 2.15 1.81 3.63 1.81 2.5 0 4.53-2.03 4.53-4.54 0-2.5-2.03-4.54-4.53-4.54zm0 6.36c-1 0-1.82-.82-1.82-1.82s.82-1.81 1.82-1.81 1.81.81 1.81 1.81-.81 1.82-1.81 1.82z"/><path d="m104.72 41.31c-1.48 0-2.81.72-3.63 1.81h-9.05v5.45h9.05c.82 1.1 2.15 1.82 3.63 1.82 2.5 0 4.53-2.04 4.53-4.54 0-2.51-2.03-4.54-4.53-4.54zm0 6.35c-1 0-1.82-.81-1.82-1.81s.82-1.82 1.82-1.82 1.81.82 1.81 1.82-.81 1.81-1.81 1.81z"/><path d="m64 18.75c-2.51 0-4.54 2.03-4.54 4.53 0 1.48.72 2.81 1.82 3.63v9.05h5.44v-9.05c1.1-.82 1.82-2.15 1.82-3.63 0-2.5-2.03-4.53-4.54-4.53zm0 6.35c-1 0-1.81-.82-1.81-1.82s.81-1.81 1.81-1.81 1.82.81 1.82 1.81-.82 1.82-1.82 1.82z"/><path d="m45.85 18.75c-2.51 0-4.54 2.03-4.54 4.53 0 1.48.72 2.81 1.81 3.63v9.05h5.45v-9.05c1.1-.82 1.82-2.15 1.82-3.63 0-2.5-2.04-4.53-4.54-4.53zm0 6.35c-1 0-1.82-.82-1.82-1.82s.82-1.81 1.82-1.81 1.81.81 1.81 1.81-.81 1.82-1.81 1.82z"/><path d="m82.15 18.75c-2.5 0-4.54 2.03-4.54 4.53 0 1.48.72 2.81 1.82 3.63v9.05h5.45v-9.05c1.09-.82 1.81-2.15 1.81-3.63 0-2.5-2.03-4.53-4.54-4.53zm0 6.35c-1 0-1.81-.82-1.81-1.82s.81-1.81 1.81-1.81 1.82.81 1.82 1.81-.82 1.82-1.82 1.82z"/></g><path d="m93.04 42.96v42.08c0 4.42-3.58 8-8 8h-42.08c-4.42 0-8-3.58-8-8v-42.08c0-4.42 3.58-8 8-8h42.08c4.42 0 8 3.58 8 8z" fill="#5ac0a6"/><path d="m88.53 55.2v17.6c0 .85-.59 1.58-1.42 1.76-.91.2-1.7.71-2.26 1.4-.55.69-.88 1.57-.88 2.51v1.5c0 2.21-1.79 4-4 4h-31.94c-2.21 0-4-1.79-4-4v-1.5c0-1.88-1.31-3.51-3.14-3.91-.83-.18-1.42-.91-1.42-1.76v-17.6c0-.85.59-1.58 1.42-1.76.91-.2 1.7-.71 2.26-1.4.55-.69.88-1.57.88-2.51v-1.5c0-2.21 1.79-4 4-4h31.94c2.21 0 4 1.79 4 4v1.5c0 1.88 1.31 3.51 3.14 3.91.83.18 1.42.91 1.42 1.76z" fill="#d9dadb"/><path d="m81.75 52.82v22.36c0 2.35-2.19 4.25-4.89 4.25h-25.72c-2.7 0-4.89-1.9-4.89-4.25v-22.36c0-2.35 2.19-4.25 4.89-4.25h25.72c2.7 0 4.89 1.9 4.89 4.25z" fill="#e5e7ea"/><path d="m81.38 51.19c.24.5.37 1.05.37 1.63v22.36c0 2.35-2.19 4.25-4.89 4.25h-25.72c-.92 0-1.78-.24-2.52-.62.74 1.54 2.48 2.62 4.52 2.62h25.72c2.7 0 4.89-1.9 4.89-4.25v-22.36c0-1.55-.96-2.88-2.37-3.63z" fill="#cecece"/><path d="m43.1 40.85c0 1-.82 1.81-1.82 1.81s-1.81-.81-1.81-1.81.81-1.82 1.81-1.82 1.82.82 1.82 1.82z" fill="#56b297"/><path d="m88.53 40.85c0 1-.81 1.81-1.81 1.81s-1.82-.81-1.82-1.81.82-1.82 1.82-1.82 1.81.82 1.81 1.82z" fill="#56b297"/><path d="m43.1 87.15c0 1-.82 1.82-1.82 1.82s-1.81-.82-1.81-1.82.81-1.81 1.81-1.81 1.82.81 1.82 1.81z" fill="#56b297"/><path d="m88.53 87.15c0 1-.81 1.82-1.81 1.82s-1.82-.82-1.82-1.82.82-1.81 1.82-1.81 1.81.81 1.81 1.81z" fill="#56b297"/><path d="m59.25 48.57-13 26.11v.5c0 2.2 1.92 3.98 4.38 4.21l15.42-30.82z" fill="#f2f3f4"/><path d="m69.6 79.43 12.15-24.28v-2.33c0-1.95-1.52-3.58-3.59-4.08l-15.27 30.69z" fill="#f2f3f4"/></g></svg>