<svg height="512" viewBox="0 0 64 64" width="512" xmlns="http://www.w3.org/2000/svg"><g id="_06-Medical_History" data-name="06-Medical History"><path d="m41 14h-18a1 1 0 0 1 -1-1v-6a1 1 0 0 1 1-1h4v-1a5 5 0 0 1 10 0v1h4a1 1 0 0 1 1 1v6a1 1 0 0 1 -1 1zm-17-2h16v-4h-4a1 1 0 0 1 -1-1v-2a3 3 0 0 0 -6 0v2a1 1 0 0 1 -1 1h-4z"/><path d="m56 47h-2v-36a1 1 0 0 0 -1-1h-9v-2h9a3 3 0 0 1 3 3z"/><path d="m54 49h2v2.001h-2z"/><path d="m53 64h-42a3 3 0 0 1 -3-3v-50a3 3 0 0 1 3-3h9v2h-9a1 1 0 0 0 -1 1v50a1 1 0 0 0 1 1h42a1 1 0 0 0 1-1v-8h2v8a3 3 0 0 1 -3 3z"/><path d="m45 60h-32a1 1 0 0 1 -1-1v-37h2v36h30.586l5.414-5.414v-38.586h-9v-2h10a1 1 0 0 1 1 1v40a1 1 0 0 1 -.293.707l-6 6a1 1 0 0 1 -.707.293z"/><path d="m12 18h2v2h-2z"/><path d="m14 16h-2v-3a1 1 0 0 1 1-1h10v2h-9z"/><path d="m45 60a1 1 0 0 1 -1-1v-6a1 1 0 0 1 1-1h6a1 1 0 0 1 .707 1.707l-6 6a1 1 0 0 1 -.707.293zm1-6v2.586l2.586-2.586z"/><path d="m35 33h-6a1 1 0 0 1 -1-1v-3h-3a1 1 0 0 1 -1-1v-6a1 1 0 0 1 1-1h3v-3a1 1 0 0 1 1-1h6a1 1 0 0 1 1 1v3h3a1 1 0 0 1 1 1v6a1 1 0 0 1 -1 1h-3v3a1 1 0 0 1 -1 1zm-5-2h4v-3a1 1 0 0 1 1-1h3v-4h-3a1 1 0 0 1 -1-1v-3h-4v3a1 1 0 0 1 -1 1h-3v4h3a1 1 0 0 1 1 1z"/><path d="m47 45h-30a1 1 0 0 1 -1-1v-8a1 1 0 0 1 1-1h30a1 1 0 0 1 1 1v8a1 1 0 0 1 -1 1zm-29-2h28v-6h-28z"/><path d="m16 47h2v2h-2z"/><path d="m20 47h28v2h-28z"/><path d="m16 51h26v2h-26z"/></g></svg>