<svg height="512pt" viewBox="-101 0 512 512.00065" width="512pt" xmlns="http://www.w3.org/2000/svg"><path d="m298.402344 66.390625c-13.234375-15.222656-30.945313-16.800781-43.160156-14.707031-2.859376-10.757813-10.726563-23.6875-28.132813-26.710938-9.324219-1.625-17.945313-.097656-25.117187 4.3125-5.867188-11.949218-17.210938-25.488281-38.875-28.578125-19.710938-2.808593-37.972657 2.769531-52.816407 16.128907-5.5 4.949218-9.566406 10.121093-12.285156 14.113281-7.703125-3.875-20.972656-8.292969-37.042969-4.375-9.109375 2.21875-5.976562 16.878906 3.546875 14.554687 17.859375-4.351562 30.851563 5.566406 31.363281 5.960938 3.695313 2.957031 9.34375 1.660156 11.417969-2.582032.683594-1.398437 17.160157-34.171874 53.703125-28.964843 19.1875 2.734375 27.28125 16.972656 30.6875 28.4375 1.859375 6.246093 9.492188 6.808593 13.390625 2.207031 4.894531-5.769531 11.261719-7.878906 19.460938-6.453125 16.15625 2.808594 17.027343 19.605469 17.074219 21.46875.066406 5.191406 5.515624 8.765625 10.3125 6.847656.847656-.339843 20.984374-8.136719 35.167968 8.171875 17.351563 19.957032.222656 48.449219-2.960937 52.058594-2.050781 2.328125-2.457031 5.679688-1.019531 8.429688.128906.25 11.992187 23.5-1.28125 41.496093-4.636719-2.175781-9.796876-3.414062-15.234376-3.46875v-13.53125c0-.796875-.128906-1.5625-.359374-2.285156.390624-4.078125-2.570313-7.722656-6.65625-8.160156-21.375-2.292969-25.054688-17.25-25.390626-18.863281-1.378906-7.601563-12.449218-8.238282-14.566406-.75-.242187.8125-6.214844 19.863281-30.296875 21.585937-21.824219 1.566406-29.128906-16.417969-29.410156-17.132813-2.632813-7.03125-13.214844-5.976562-14.410156 1.4375-.160157.996094-4.164063 24.433594-25.296875 23.671876-20.632813-.738282-23.53125-19.25-23.789063-21.308594-.835937-7.546875-11.519531-9.03125-14.382812-2-8.054688 19.777344-24.113281 16.101562-25.976563 15.597656-5.085937-1.4375-9.875 3.210938-9.875 8.207031v13.53125c-4.65625.046875-9.101562.960938-13.195312 2.589844-7.566406-7.984375-9.160156-19.613281-4.730469-34.617187.941406-3.183594-.28125-6.578126-3.066406-8.382813-.492188-.328125-12.015625-8.207031-9.953125-21.960937 2.222656-14.820313 14.101562-17.136719 15.367187-17.339844 4.136719-.566406 7.300781-4.839844 6.273438-9.15625-.039063-.160156-3.566407-16.289063 4.347656-29.105469 4.921875-7.976563-7.601563-16.210937-12.75-7.871094-7.457031 12.078125-7.84375 25.488281-7.1875 33.4375-1.695313.714844-3.5625 1.660157-5.472656 2.898438-5.890625 3.824219-13.347657 11.253906-15.394531 24.914062-2.492188 16.605469 6.460937 27.851563 12.183593 33.1875-4.753906 20.484375.683594 33.898438 7.765625 42.359375-6.566406 6.652344-10.632812 15.78125-10.632812 25.84375 0 20.296875 16.515625 36.808594 36.8125 36.808594h3.242187c3.308594 12.628906 8.855469 24.609375 16.519531 35.457031 12.460938 17.644531 29.558594 31.070313 49.523438 38.964844v34.632813c0 3.511718-2.855469 6.367187-6.371094 6.367187h-18.195312c-44.453125 0-80.617188 36.164063-80.617188 80.613281v60.128906c0 4.136719 3.351563 7.492188 7.488282 7.492188h276.492187c4.136719 0 7.492187-3.355469 7.492187-7.492188v-60.128906c0-8.257812-1.246093-16.40625-3.703124-24.214844-2.816407-8.941406-17.234376-4.855468-14.292969 4.496094 1.996093 6.351563 3.011719 12.988282 3.011719 19.71875v52.640625h-261.507813v-52.640625c0-27.949218 17.574219-51.859375 42.242187-61.304687 1.71875 5.300781 5.722657 14.882812 14.246094 24.367187 20.367188 22.664063 50.433594 27.421875 72.070313 27.421875 38.972656 0 61.730469-14.332031 73.957031-26.351562 10.597656-10.421875 15.371094-20.988281 17.027344-25.378907 8.835937 3.410157 16.898437 8.738282 23.683594 15.804688 6.550781 6.820312 17.410156-3.5 10.808593-10.378906-15.351562-15.988282-36.007812-24.792969-58.164062-24.792969h-18.195313c-3.511718 0-6.371094-2.855469-6.371094-6.367187v-34.644532c32.253907-12.808594 57.074219-40.421875 66.027344-74.410156 2.035156.03125 4.121094.035156 6.144532-.125.296874 21.941406-7.582032 43.625-22.011719 60.183594-2.664063-1.148438-5.601563-1.789063-8.683594-1.789063-12.128906 0-21.996094 9.867188-21.996094 21.992188 0 12.128906 9.867188 21.992187 21.996094 21.992187 12.125 0 21.992187-9.863281 21.992187-21.992187 0-3.574219-.859374-6.945313-2.378906-9.933594 18.550782-21.070313 26.382813-47.296875 26.066406-74.972656 11.289063-6.292969 18.941407-18.347657 18.941407-32.164063 0-9.320312-3.488281-17.832031-9.21875-24.324218 13.3125-17.957032 9.800781-40.175782 4.585937-53.058594 3.8125-5.800782 7.917969-14.660156 9.957032-24.3125 3.558593-16.835938.113281-31.859375-9.964844-43.449219zm-66.992188 262.214844c0-3.863281 3.144532-7.007813 7.007813-7.007813 3.867187 0 7.011719 3.144532 7.011719 7.007813 0 3.867187-3.144532 7.011719-7.011719 7.011719-3.863281 0-7.007813-3.144532-7.007813-7.011719zm34.820313-95.246094h-.410157c.507813-4.289063.78125-8.652344.78125-13.082031v-30.558594c11.863282.199219 21.457032 9.90625 21.457032 21.816406 0 12.035156-9.792969 21.824219-21.828125 21.824219zm-241.5-21.824219c0-11.910156 9.59375-21.617187 21.457031-21.8125v30.570313c0 4.394531.261719 8.757812.773438 13.066406h-.402344c-12.035156 0-21.828125-9.789063-21.828125-21.824219zm205.847656 167.84375c-3.890625 9.300782-21.0625 40.5-76.378906 40.5-53.476563 0-68.300781-30.230468-71.796875-40.511718 2.90625-.394532 5.863281-.617188 8.875-.617188h4.011718c4.75 9.75 19.175782 28.675781 59.617188 28.675781 42.234375 0 57.921875-20.042969 62.714844-28.675781h3.890625c3.0625 0 6.085937.222656 9.066406.628906zm-74.195313-63.878906c-9.378906 0-9.789062 14.984375.011719 14.984375 8.796875 0 17.359375-1.042969 25.566407-3v29.914063c0 10.390624 7.46875 19.0625 17.320312 20.957031-6.53125 6.378906-19.550781 14.089843-44.375 14.089843-24.042969 0-36.042969-7.59375-41.894531-14.015624 10.09375-1.691407 17.816406-10.464844 17.816406-21.03125v-38.210938c0-6.652344-4.660156-8.519531-7.761719-9.675781-37.019531-13.832031-61.894531-49.683594-61.894531-89.21875v-51.699219c8.0625-.058594 17.996094-2.773438 26.015625-11.429688 15.628906 25.980469 53.8125 23.453126 67.8125-2.507812 19.503906 19.945312 54.714844 16.25 71.503906-5.328125 4.359375 5.621094 12.101563 12.394531 25.113282 15.285156v55.664063c0 52.507812-42.714844 95.222656-95.234376 95.222656zm0 0"/><path d="m222.335938 179.148438h-40.039063c-9.96875 0-18.078125 8.113281-18.078125 18.082031v5.0625c-5.472656-1.601563-10.902344-1.300781-15.625-.132813v-4.929687c0-9.96875-8.113281-18.082031-18.082031-18.082031h-40.039063c-9.96875 0-18.078125 8.113281-18.078125 18.082031v29.835937c0 9.96875 8.109375 18.078125 18.078125 18.078125h40.039063c9.96875 0 18.082031-8.109375 18.082031-18.078125v-9.109375c3.484375-1.621093 9.789062-3.40625 15.625.898438v8.210937c0 9.96875 8.109375 18.078125 18.078125 18.078125h40.039063c9.96875 0 18.082031-8.109375 18.082031-18.078125v-29.839844c0-9.964843-8.113281-18.078124-18.082031-18.078124zm-88.726563 47.917968c0 1.707032-1.390625 3.097656-3.097656 3.097656h-40.039063c-1.707031 0-3.097656-1.390624-3.097656-3.097656v-29.835937c0-1.707031 1.390625-3.097657 3.097656-3.097657h40.039063c1.707031 0 3.097656 1.390626 3.097656 3.097657zm91.824219 0c0 1.707032-1.390625 3.097656-3.097656 3.097656h-40.039063c-1.707031 0-3.09375-1.390624-3.09375-3.097656v-29.835937c0-1.707031 1.386719-3.097657 3.09375-3.097657h40.039063c1.707031 0 3.097656 1.390626 3.097656 3.097657zm0 0"/><path d="m197.859375 461.367188c-9.375 0-9.804687 14.980468 0 14.980468h56.933594c9.375 0 9.804687-14.980468 0-14.980468zm0 0"/></svg>