<svg height="512" viewBox="0 0 88 88" width="512" xmlns="http://www.w3.org/2000/svg"><g id="Thumbs_Up" data-name="Thumbs Up"><rect fill="#376cfb" height="40" rx="1" width="14" x="4" y="42"/><path d="m84 49a6.0066 6.0066 0 0 0 -6-6h-20.9277a14.7238 14.7238 0 0 0 2.9277-8.791v-9.209a6 6 0 0 0 -12 0v5.3428a12.6565 12.6565 0 0 1 -12.6567 12.6572h-2.3433a1 1 0 0 0 -1 1v36a1 1 0 0 0 .4453.832 24.7361 24.7361 0 0 0 13.7656 4.168h17.7891a5.99 5.99 0 0 0 4.46-10h1.54a5.99 5.99 0 0 0 4.4393-10.0222 5.9846 5.9846 0 0 0 4-10 6.0034 6.0034 0 0 0 5.5607-5.9778z" fill="#ffddd4"/><path d="m79.65 57h-11.65a1 1 0 0 1 0-2h10.46a5.875 5.875 0 0 1 1.19 2z" fill="#e5b7b1"/><path d="m75.65 67h-11.65a1 1 0 0 1 0-2h10.46a5.875 5.875 0 0 1 1.19 2z" fill="#e5b7b1"/><path d="m69.65 77h-11.65a1 1 0 0 1 0-2h10.46a5.875 5.875 0 0 1 1.19 2z" fill="#e5b7b1"/><g fill="#4294ff"><rect height="46" rx="1" width="18" x="16" y="39"/><path d="m54 15a1 1 0 0 1 -1-1v-10a1 1 0 0 1 2 0v10a1 1 0 0 1 -1 1z"/><path d="m44.8076 18.2217-7.0708-7.0717a1 1 0 1 1 1.4141-1.4141l7.0708 7.0713a1 1 0 1 1 -1.4141 1.4141z"/><path d="m42 27h-10a1 1 0 0 1 0-2h10a1 1 0 0 1 0 2z"/><path d="m61.7783 18.2217a1 1 0 0 1 0-1.4141l7.0717-7.0713a1 1 0 0 1 1.4137 1.4137l-7.0713 7.0713a1 1 0 0 1 -1.4141.0004z"/><path d="m76 27h-10a1 1 0 0 1 0-2h10a1 1 0 0 1 0 2z"/></g><circle cx="26" cy="77" fill="#376cfb" r="3"/></g></svg>