<svg enable-background="new 0 0 128 128" height="512" viewBox="0 0 128 128" width="512" xmlns="http://www.w3.org/2000/svg"><g id="Layer_9"><path d="m108.12 38.51-67.18 67.18-3.86-3.87c1.56-1.56 1.56-4.09 0-5.65-1.57-1.57-4.1-1.57-5.66 0l-2.12-2.13c1.56-1.56 1.56-4.09 0-5.65-1.56-1.57-4.09-1.57-5.66 0l-9.17-9.17 67.18-67.18 9.17 9.17c-1.57 1.57-1.57 4.1 0 5.66 1.56 1.56 4.09 1.56 5.65 0l2.13 2.12c-1.57 1.56-1.57 4.09 0 5.66 1.56 1.56 4.09 1.56 5.65 0z" fill="#5ac0a6"/><g fill="#434953"><path d="m50.7 83.79-6.01 6.01c-.78.78-2.05.78-2.83 0l-11.81-11.81c-.79-.78-.79-2.05 0-2.83l6.01-6.01c.78-.78 2.04-.78 2.82 0l11.82 11.81c.78.78.78 2.05 0 2.83z"/><path d="m63.9 70.59-6.01 6.01c-.78.78-2.05.78-2.83 0l-11.81-11.81c-.79-.78-.79-2.05 0-2.83l6.01-6.01c.78-.78 2.04-.78 2.82 0l11.82 11.81c.78.78.78 2.05 0 2.83z"/><path d="m92.24 42.25-6.01 6.01c-.78.78-2.05.78-2.83 0l-11.81-11.82c-.78-.78-.78-2.04 0-2.82l6.01-6.01c.78-.79 2.05-.79 2.83 0l11.81 11.81c.78.78.78 2.05 0 2.83z"/><path d="m79.04 55.45-6.01 6.01c-.78.78-2.05.78-2.83 0l-11.81-11.82c-.78-.78-.78-2.04 0-2.82l6.01-6.01c.78-.79 2.05-.79 2.83 0l11.81 11.81c.78.78.78 2.05 0 2.83z"/></g><path d="m82.97 20.37c-.71.71-1.86.71-2.57 0-.71-.7-.71-1.86 0-2.56.71-.71 1.86-.71 2.57 0 .7.7.7 1.86 0 2.56z" fill="#56b297"/><path d="m22.81 80.53c-.7.7-1.86.7-2.56 0-.71-.71-.71-1.86 0-2.57.7-.71 1.86-.71 2.56 0 .71.71.71 1.86 0 2.57z" fill="#56b297"/><path d="m92.24 39.42c.78.78.78 2.05 0 2.83l-6.01 6.01c-.78.78-2.05.78-2.83 0l-6.1-6.1-4.36 4.36 6.1 6.1c.78.78.78 2.05 0 2.83l-6.01 6.01c-.78.78-2.05.78-2.83 0l-6.1-6.1-6.31 6.31 6.1 6.1c.78.78.78 2.05 0 2.83l-6.01 6.01c-.78.78-2.05.78-2.83 0l-6.1-6.1-4.36 4.36 6.1 6.1c.78.78.78 2.05 0 2.83l-6.01 6.01c-.78.78-2.05.78-2.83 0l-6.1-6.1-5.72 5.72c.75 1.5.52 3.37-.73 4.62l2.12 2.13c1.56-1.57 4.09-1.57 5.66 0 1.56 1.56 1.56 4.09 0 5.65l3.86 3.87 67.18-67.18-3.87-3.86c-1.56 1.56-4.09 1.56-5.65 0-1.57-1.57-1.57-4.1 0-5.66l-2.13-2.12c-1.25 1.25-3.12 1.48-4.62.73l-5.72 5.72z" fill="#56b297"/><path d="m77.3 42.16 6.1 6.1c.78.78 2.05.78 2.83 0l6.01-6.01c.78-.78.78-2.05 0-2.83l-6.1-6.1z" fill="#373d44"/><path d="m64.1 55.36 6.1 6.1c.78.78 2.05.78 2.83 0l6.01-6.01c.78-.78.78-2.05 0-2.83l-6.1-6.1z" fill="#373d44"/><path d="m55.06 76.6c.78.78 2.05.78 2.83 0l6.01-6.01c.78-.78.78-2.05 0-2.83l-6.1-6.1-8.84 8.84z" fill="#373d44"/><path d="m41.86 89.8c.78.78 2.05.78 2.83 0l6.01-6.01c.78-.78.78-2.05 0-2.83l-6.1-6.1-8.84 8.84z" fill="#373d44"/><path d="m113.52 43.9-5.15 5.15-.71.71-.7.7-5.55 5.55-1.41 1.42h-.01l-6.25 6.25-.71.71-5.54 5.55-.71.7-.71.71-4.19 4.2-1.86-1.86c-.54-.54-1.25-.81-1.95-.8-.7-.01-1.41.26-1.94.8-1.08 1.07-1.08 2.81 0 3.89l1.86 1.86-4.2 4.19-.71.71-.7.71-5.55 5.54-.71.71-.7.71h-.02l-5.54 5.54v.01l-1.42 1.41-5.54 5.55-.7.7-.71.71-5.15 5.15-6.1-6.1 67.18-67.18z" fill="#fdcc58"/><g><g><path d="m52.9 104.52-.7.7-.71.71-3.37-3.37c-.39-.39-.39-1.02 0-1.41.39-.4 1.02-.4 1.41 0z" fill="#efbb54"/></g></g><g><g><path d="m59.87 97.55v.01l-1.42 1.41-3.37-3.37c-.39-.39-.39-1.03 0-1.42s1.02-.39 1.42 0z" fill="#efbb54"/></g></g><g><g><path d="m66.83 90.59-.71.71-.7.71h-.02l-3.37-3.37c-.39-.39-.39-1.03 0-1.42s1.03-.39 1.42 0z" fill="#efbb54"/></g></g><g><g><path d="m73.79 83.63-.71.71-.7.71-3.38-3.38c-.39-.39-.39-1.02 0-1.41.4-.39 1.03-.39 1.42 0z" fill="#efbb54"/></g></g><g><path d="m108.37 49.05-.71.71-.7.7-3.37-3.37c-.39-.39-.39-1.02 0-1.41s1.02-.39 1.41 0z" fill="#efbb54"/></g><g><path d="m101.4 56.01-1.4 1.42h-.01l-3.37-3.37c-.39-.4-.39-1.03 0-1.42s1.03-.39 1.42 0z" fill="#efbb54"/></g><g><path d="m94.45 62.97-.71.71-.71.71-3.37-3.37c-.39-.39-.39-1.03 0-1.42s1.03-.39 1.42 0z" fill="#efbb54"/></g><g><path d="m87.49 69.94-.71.7-.71.71-3.37-3.37c-.39-.39-.39-1.02 0-1.42.39-.39 1.02-.39 1.41 0z" fill="#efbb54"/></g></g></svg>