<svg height="512pt" viewBox="-83 0 512 512" width="512pt" xmlns="http://www.w3.org/2000/svg"><path d="m297.75 49.578125c-28.613281-32.898437-69.488281-49.578125-121.488281-49.578125h-6.492188c-25.789062 0-49.078125 4.144531-69.226562 12.320312-8.6875 3.523438-3.449219 17.558594 5.632812 13.878907 18.351563-7.445313 39.746094-11.21875 63.59375-11.21875h6.492188c47.472656 0 84.546875 14.949219 110.1875 44.429687 53.867187 61.9375 47.476562 174.269532 38.875 235.71875-3.289063 23.492188-23.640625 41.210938-47.34375 41.210938h-65.183594v-13.5c3.152344-1.246094 6.246094-2.636719 9.273437-4.175782h7.726563c9.011719 0 16.800781-5.328124 20.386719-13h22.683594c14.839843 0 26.910156-12.070312 26.910156-26.90625v-34.90625c11.371094-6.269531 19.09375-18.375 19.09375-32.25 0-20.167968-16.308594-36.589843-36.433594-36.789062v-20.019531c0-4.136719-3.351562-7.492188-7.488281-7.492188-23.257813 0-36.546875-13.136719-50.328125-30.171875-14.96875-18.503906-32.097656-31.828125-56.691406-34.558594-48.265626-5.363281-82.835938 32.679688-94.785157 75.742188-5.414062 19.496094-7.929687 42.464844-7.484375 68.261719.757813 43.535156 9.578125 79.785156 9.957032 81.304687 2.261718 9.183594 16.824218 5.664063 14.542968-3.585937-.035156-.132813-1.269531-5.210938-2.84375-13.707031 11.835938 14.320312 27.117188 25.414062 44.398438 32.230468v13.523438h-63.667969c-23.699219 0-44.050781-17.714844-47.339844-41.210938-4.621093-32.980468-8.816406-82.347656-2.59375-130.234375 7.097657-54.625 25.960938-94.902343 56.054688-119.71875 7.234375-5.964843-1.96875-17.792969-9.527344-11.558593-74.628906 61.539062-68.855469 191.5625-58.769531 263.589843 4.320312 30.847657 31.046875 54.113281 62.175781 54.113281h63.667969c.644531 4.574219-.046875 12.480469-6.371094 12.480469h-18.191406c-44.445313 0-80.601563 36.152344-80.601563 80.59375v4c0 9.371094 14.980469 9.800781 14.980469 0v-4c0-31.625 22.492188-58.09375 52.320312-64.257812l-24.753906 53.636719c-1.394531 3.015624-.632812 6.585937 1.867188 8.773437l28.367187 24.824219-8.582031 29.648437h-49.21875v-13.671875c0-9.371094-14.980469-9.800781-14.980469 0v21.164063c0 4.136719 3.351563 7.488281 7.488281 7.488281h276.433594c4.136719 0 7.488282-3.351562 7.488282-7.488281v-60.117188c0-44.441406-36.160157-80.59375-80.601563-80.59375h-18.191406c-6.222657 0-7-7.816406-6.371094-12.480469h65.1875c31.125 0 57.855469-23.265624 62.175781-54.113281 8.957032-63.972656 15.359375-181.207031-42.410156-247.628906zm-60.441406 246.59375c0 4.144531-3.367188 7.515625-7.511719 7.515625h-17.003906c-4.144531 0-7.515625-3.371094-7.515625-7.515625 0-4.140625 3.371094-7.511719 7.515625-7.511719h17.003906c4.144531 0 7.511719 3.371094 7.511719 7.511719zm44.761718-62.75h-.402343c.503906-4.308594.769531-8.664063.769531-13.066406v-30.566407c11.863281.199219 21.453125 9.90625 21.453125 21.8125 0 12.03125-9.789063 21.820313-21.820313 21.820313zm-200.171874 16.992187c-.648438-7.636718-1.113282-15.742187-1.257813-24.097656-.65625-37.753906 5.222656-88.207031 36.949219-114.164062 13.949218-11.410156 31.238281-16.628906 48.6875-14.695313 16.648437 1.847657 31.789062 10.050781 41.535156 22.503907l1.480469 1.894531c16.296875 20.851562 29.433593 37.660156 58.164062 40.117187v58.382813c0 13.667969-2.832031 26.859375-8.421875 39.203125-3.863281 8.535156 9.605469 15.101562 13.648438 6.175781 2.550781-5.636719 4.597656-11.421875 6.152344-17.332031 1.972656.03125 3.992187.03125 5.960937-.113282v30.46875c0 6.574219-5.351563 11.925782-11.929687 11.925782h-21.257813c-2.457031-9.757813-11.304687-17.003906-21.8125-17.003906h-17.007813c-12.402343 0-22.492187 10.089843-22.492187 22.492187 0 6.300781 2.605469 12 6.792969 16.085937-8.003906 2.152344-16.335938 3.289063-24.832032 3.289063-41.109374-.003906-77.402343-26.171875-90.359374-65.132813zm90.359374 80.109376c8.710938 0 17.277344-1.015626 25.558594-2.976563v29.882813c0 8.054687 4.484375 15.078124 11.085938 18.710937-2.289063 18.191406-17.84375 32.308594-36.644532 32.308594-18.804687 0-34.359374-14.117188-36.652343-32.308594 6.601562-3.632813 11.089843-10.65625 11.089843-18.707031v-29.898438c8.242188 1.957032 16.804688 2.988282 25.5625 2.988282zm60.222657 136.429687 8.703125 30.066406h-28.726563l30.078125-105.277343 19.949219 43.222656-27.742187 24.269531c-2.1875 1.917969-3.070313 4.925781-2.261719 7.71875zm-35.601563 30.066406h-49.222656l-33.785156-118.242187h6.976562c3.550782 25.199218 25.246094 44.652344 51.410156 44.652344 26.160157 0 47.855469-19.453126 51.40625-44.652344h6.996094zm-84.09375-37.785156-27.742187-24.273437 18.097656-39.210938 28.933594 101.269531h-25.730469l8.703125-30.066406c.808594-2.792969-.074219-5.800781-2.261719-7.71875zm190.195313-14.839844v52.625h-46.203125l-8.582032-29.648437 28.367188-24.824219c2.5-2.1875 3.261719-5.761719 1.871094-8.777344l-24.386719-52.835937c28.128906 7.402344 48.933594 33.042968 48.933594 63.460937zm0 0"/></svg>