<svg height="511pt" viewBox="-109 0 511 511.9985" width="511pt" xmlns="http://www.w3.org/2000/svg"><path d="m273.585938 402.761719c-3.636719 1.984375-4.976563 6.539062-2.992188 10.171875 5.214844 9.566406 7.972656 20.421875 7.972656 31.390625v52.679687h-86.195312l33.328125-117.09375c8.363281 1.652344 16.335937 4.917969 23.511719 9.6875 7.882812 5.246094 16.421874-7.085937 8.300781-12.484375-13.238281-8.804687-28.671875-13.460937-44.632813-13.460937h-18.210937c-3.515625 0-6.375-2.859375-6.375-6.371094v-34.667969c32.28125-12.820312 57.121093-40.457031 66.082031-74.46875 2.035156.03125 4.121094.035157 6.144531-.125v1.65625c0 21.632813-8.019531 42.496094-22.027343 58.574219-2.667969-1.152344-5.605469-1.792969-8.691407-1.792969-12.136719 0-22.011719 9.875-22.011719 22.011719 0 12.132812 9.875 22.007812 22.011719 22.007812s22.011719-9.875 22.011719-22.007812c0-3.578125-.863281-6.957031-2.382812-9.945312 16.585937-18.839844 26.085937-43.390626 26.085937-68.847657v-6.175781c11.296875-6.300781 18.957031-18.363281 18.957031-32.191406 0-11.410156-5.21875-21.628906-13.394531-28.390625 16.035156-24.460938 13.105469-57.214844 3.019531-83.363281 14.148438-31.828126 3.734375-65.246094 3.214844-66.859376-.871094-2.710937-3.207031-4.695312-6.027344-5.121093-23.71875-3.558594-42.859375 1.351562-55.378906 6.5625 4.886719-12.039063 11.820312-20.074219 11.910156-20.175781 4.1875-4.75.710938-12.457032-5.621094-12.457032-55.519531 0-92.714843 14.71875-112.246093 25.277344 2.875-6.3125 6.578125-12.09375 8.585937-14.851562 4.046875-5.53125-1.183594-13.355469-7.84375-11.707032-37.199218 9.171875-66.371094 25.046875-86.699218 47.191406-19.886719 21.65625-31.054688 48.921876-33.195313 81.039063-1.871094 28.042969 5.578125 50.25 9.054687 58.890625-5.539062 6.449219-8.898437 14.820312-8.898437 23.964844 0 21.738281 18.925781 37.882812 40.097656 36.835937 8.960938 34.011719 33.800781 61.648438 66.078125 74.46875v34.667969c0 3.515625-2.859375 6.375-6.371094 6.375h-18.210937c-44.488281 0-80.679687 36.1875-80.679687 80.671875v8.003906c0 9.378907 14.992187 9.808594 14.992187 0v-8.003906c0-31.835937 22.773437-58.445313 52.886719-64.417969l33.328125 117.09375h-86.214844v-17.683594c0-9.382812-14.992187-9.808593-14.992187 0v25.179688c0 4.140625 3.355468 7.5 7.496093 7.5h276.699219c4.140625 0 7.496094-3.359375 7.496094-7.5v-60.171875c0-13.472656-3.390625-26.808594-9.804688-38.570313-1.980468-3.636718-6.53125-4.976562-10.167968-2.996093zm-50.804688-74.292969c0-3.871094 3.148438-7.015625 7.015625-7.015625 3.871094 0 7.019531 3.144531 7.019531 7.015625 0 3.867188-3.148437 7.011719-7.019531 7.011719-3.867187 0-7.015625-3.144531-7.015625-7.011719zm-75.070312 94.871094c26.1875 0 47.90625-19.46875 51.460937-44.691406h11.296875l-14.996094 52.6875h-95.5l-14.996094-52.6875h11.277344c3.554688 25.222656 25.269532 44.691406 51.457032 44.691406zm-43.46875 22.992187h86.960937l-7.398437 25.988281h-72.167969zm175.234374-235.023437c0 12.042968-9.800781 21.84375-21.847656 21.84375h-.410156c.511719-4.292969.78125-8.652344.78125-13.078125v-30.59375c2.808594.046875 5.488281.621093 7.945312 1.636719.660157.453124 1.371094.785156 2.109376 1.003906 6.796874 3.703125 11.421874 10.917968 11.421874 19.1875zm-21.476562-36.824219v-43.066406c6.042969-4.363281 11.304688-9.34375 15.785156-14.929688 3.996094 15.214844 7.367188 40.316407-6.03125 59.410157-3.105468-.886719-6.375-1.382813-9.753906-1.414063zm-242.050781 36.824219c0-11.917969 9.601562-21.632813 21.476562-21.832032v30.59375c0 4.425782.269531 8.789063.777344 13.078126h-.410156c-12.042969.003906-21.84375-9.796876-21.84375-21.839844zm36.46875 8.761718v-64.226562c6.984375-.09375 18.054687-.246094 29.441406-.414062 9.679687-.144532 9.410156-15.117188-.222656-14.992188-18.839844.28125-36.808594.511719-36.8125.511719-4.101563.054687-7.398438 3.394531-7.398438 7.496093v26.039063c-5.382812.050781-10.488281 1.265625-15.085937 3.402344-3.214844-9.210938-8.007813-27.019531-6.582032-48.433594 1.910157-28.628906 11.757813-52.816406 29.28125-71.898437 15.023438-16.363282 35.679688-28.992188 61.5625-37.667969-3.34375 7.238281-6.113281 15.792969-5.59375 23.597656.398438 5.992187 7.644532 9.082031 12.265626 5.273437.367187-.304687 35.1875-28.34375 104.410156-31.894531-4.472656 7.78125-9.285156 18.617188-10.921875 31.152344-.84375 6.492187 6.816406 10.898437 12.007812 6.910156.222657-.171875 21.785157-16.402343 55.421875-13.125 2.433594 10.980469 6.539063 39.859375-10.355468 63.035157-16.742188 22.96875-49.585938 34.613281-97.617188 34.613281-9.640625 0-25.984375.144531-48.578125.429687-9.675781.121094-9.445313 15.140625.1875 14.992188 22.535156-.285156 38.8125-.429688 48.386719-.429688 31.285156 0 56.945312-4.765625 76.789062-14.214844v79.84375c0 52.539063-42.746094 95.28125-95.292968 95.28125-52.542969 0-95.292969-42.742187-95.292969-95.28125zm95.292969 110.277344c8.808593 0 17.371093-1.042968 25.585937-3.003906v29.9375c0 8.058594 4.492187 15.089844 11.097656 18.726562-2.292969 18.207032-17.863281 32.339844-36.683593 32.339844-18.816407 0-34.386719-14.132812-36.683594-32.339844 6.609375-3.636718 11.097656-10.667968 11.097656-18.726562v-29.9375c8.214844 1.960938 16.78125 3.003906 25.585938 3.003906zm-31.804688 156.96875h63.632812l-2.757812 9.6875h-58.117188zm0 0"/></svg>