<svg height="512" viewBox="0 0 88 88" width="512" xmlns="http://www.w3.org/2000/svg"><g id="Start_up" data-name="Start up"><rect fill="#e6ecff" height="50" rx="1" width="72" x="8" y="27"/><rect fill="#d0dbf7" height="40" rx="1" width="64" x="12" y="31"/><path d="m63.123 61.8477a7.989 7.989 0 0 0 -11.7959-.4756 7.425 7.425 0 0 0 -3.3271-1.3067v-4.0634l-.002-.002h-7.996l-.002.002v4.0634a7.425 7.425 0 0 0 -3.3271 1.3067 7.989 7.989 0 0 0 -11.7959.4756 15.08 15.08 0 0 0 -12.877-5.8138v13.9641a1 1 0 0 0 1 1l62 .002a1 1 0 0 0 1-1v-13.9661a15.08 15.08 0 0 0 -12.877 5.8138z" fill="#4294ff"/><path d="m86 75h-84a1 1 0 0 0 -1 1v6a5.0059 5.0059 0 0 0 5 5h76a5.0059 5.0059 0 0 0 5-5v-6a1 1 0 0 0 -1-1z" fill="#4294ff"/><g fill="#376cfb"><path d="m64 75h-40v4a3 3 0 0 0 3 3h34a3 3 0 0 0 3-3z"/><path d="m41 65a1 1 0 0 1 -1-1v-7a1 1 0 0 1 2 0v7a1 1 0 0 1 -1 1z"/><path d="m47 65a1 1 0 0 1 -1-1v-7a1 1 0 0 1 2 0v7a1 1 0 0 1 -1 1z"/><rect height="6" rx="1" width="12" x="38" y="52"/><path d="m63.12 61.85a14.9836 14.9836 0 0 0 -2.13 3.79 1.0127 1.0127 0 0 1 -.94.64 1.1325 1.1325 0 0 1 -.36-.06 1.0011 1.0011 0 0 1 -.57-1.29 16.9278 16.9278 0 0 1 2.53-4.44 8.2427 8.2427 0 0 1 1.47 1.36z"/><path d="m41 69a1 1 0 0 1 -1-1v-1a1 1 0 0 1 2 0v1a1 1 0 0 1 -1 1z"/><path d="m47 69a1 1 0 0 1 -1-1v-1a1 1 0 0 1 2 0v1a1 1 0 0 1 -1 1z"/><path d="m55.24 65a1.064 1.064 0 0 1 -.45.11 1.0164 1.0164 0 0 1 -.9-.56l-.21-.42a7.5082 7.5082 0 0 0 -2.35-2.76 7.9009 7.9009 0 0 1 1.63-1.26 9.4164 9.4164 0 0 1 2.51 3.13l.21.42a.9982.9982 0 0 1 -.44 1.34z"/><path d="m24.88 61.85a14.9836 14.9836 0 0 1 2.13 3.79 1.0127 1.0127 0 0 0 .94.64 1.1325 1.1325 0 0 0 .36-.06 1.0011 1.0011 0 0 0 .57-1.29 16.9278 16.9278 0 0 0 -2.53-4.44 8.2427 8.2427 0 0 0 -1.47 1.36z"/><path d="m32.76 65a1.064 1.064 0 0 0 .45.11 1.0164 1.0164 0 0 0 .9-.56l.21-.42a7.5082 7.5082 0 0 1 2.35-2.76 7.9009 7.9009 0 0 0 -1.63-1.26 9.4164 9.4164 0 0 0 -2.51 3.13l-.21.42a.9982.9982 0 0 0 .44 1.34z"/><path d="m56.94 36.998-1.4249-.8554a1 1 0 0 0 -1.5151.8574v16a1 1 0 0 0 1 1h10a1 1 0 0 0 1-1 18.7542 18.7542 0 0 0 -9.06-16.002z"/><path d="m33.4922 36.13a1 1 0 0 0 -1.0068.0127l-1.4249.8554a18.7542 18.7542 0 0 0 -9.0605 16.0019 1 1 0 0 0 1 1h10a1 1 0 0 0 1-1v-16a1 1 0 0 0 -.5078-.87z"/></g><path d="m44.6337 1.2263a1.0091 1.0091 0 0 0 -1.2674 0 30.8794 30.8794 0 0 0 -11.3663 23.9866v28.7871h24v-28.7871a30.8794 30.8794 0 0 0 -11.3663-23.9866z" fill="#4294ff"/><circle cx="40" cy="27" fill="#376cfb" r="3"/><circle cx="48" cy="35" fill="#376cfb" r="3"/><path d="m38.293 36.707a.9994.9994 0 0 1 0-1.414l10-10a1 1 0 0 1 1.414 1.414l-10 10a.9994.9994 0 0 1 -1.414 0z" fill="#376cfb"/><path d="m40 58h2v1h-2z" fill="#2946ed"/><path d="m46 58h2v1h-2z" fill="#2946ed"/></g></svg>