<svg enable-background="new 0 0 128 128" height="512" viewBox="0 0 128 128" width="512" xmlns="http://www.w3.org/2000/svg"><g id="Layer_10"><path d="m75.55 94.5c.03 2.32.56 4.62 1.55 6.76l.57 1.22h4.49c1.1 0 2 .9 2 2 0 .55-.22 1.05-.59 1.41-.36.36-.86.59-1.41.59h-36.48c-1.1 0-2-.9-2-2 0-.55.22-1.05.59-1.41.36-.36.86-.59 1.41-.59h4.65l.57-1.22c.99-2.14 1.52-4.44 1.55-6.76v-3.56h-33.7v-58.51h90.5v58.51h-33.7z" fill="#434953"/><path d="m22.75 36.43h82.5v50.51h-82.5z" fill="#6699d1"/><path d="m75.56 94.5h-.01v-.2c0 .07.01.13.01.2z" fill="#2e3338"/><path d="m77.67 102.48h-27.34l.57-1.22c.99-2.14 1.52-4.44 1.55-6.76v-3.56h23.1v3.56c.03 2.32.56 4.62 1.55 6.76z" fill="#373d44"/><path d="m75.56 94.5h-23.12c0-.07.01-.13.01-.2v-3.36h23.1v3.36c0 .07.01.13.01.2z" fill="#2e3338"/><path d="m88.48 86.84s8.17-7.43 14.32-7.43c.78 0 1.61.12 2.45.33v-12.1c-.7-.08-1.41-.13-2.13-.13-10.08 0-18.26 8.18-18.26 18.26 0 .4.03.79.06 1.18h3.66c-.06-.07-.1-.11-.1-.11z" fill="#6194c1"/><circle cx="103.12" cy="85.76" fill="#fdcc58" r="16.32"/><path d="m116.21 86.73s-7.88 6.65-13.38 6.65-12.8-6.65-12.8-6.65 7.3-6.64 12.8-6.64 13.38 6.64 13.38 6.64z" fill="#e5e7ea"/><path d="m106.99 86.73c0 2.14-1.73 3.87-3.87 3.87s-3.87-1.73-3.87-3.87c0-2.13 1.73-3.87 3.87-3.87.03 0 .07 0 .1.01 1.56.03 2.89 1 3.47 2.36.19.46.3.97.3 1.5z" fill="#434953"/><path d="m106.69 85.23c-.25.97-1.13 1.69-2.17 1.69-1.23 0-2.24-1-2.24-2.24 0-.75.37-1.41.94-1.81 1.56.03 2.89 1 3.47 2.36z" fill="#4c545e"/></g></svg>