<svg height="512" viewBox="0 0 64 64" width="512" xmlns="http://www.w3.org/2000/svg"><g id="_08-Emergency_Call" data-name="08-Emergency Call"><path d="m35.342 64a1 1 0 0 1 -.4-.083c-10.572-4.606-21.36-13.706-28.859-24.341l1.635-1.152c7.16 10.155 17.382 18.863 27.449 23.405l8.472-7.33a1.04 1.04 0 0 0 .055-1.526l-6.91-6.911a1.043 1.043 0 0 0 -1.527.055l-2.778 3.212a1 1 0 0 1 -1.32.171 64.859 64.859 0 0 1 -16.659-16.659 1 1 0 0 1 .171-1.32l3.212-2.778a1.043 1.043 0 0 0 .055-1.527l-6.91-6.91a1.018 1.018 0 0 0 -.776-.306 1.033 1.033 0 0 0 -.751.361l-7.33 8.472c.55 1.217 1.169 2.454 1.845 3.685l-1.753.962c-.812-1.48-1.545-2.965-2.18-4.422a1 1 0 0 1 .161-1.058l7.744-8.952a3.055 3.055 0 0 1 2.193-1.048 3.023 3.023 0 0 1 2.261.89l6.91 6.91a3.041 3.041 0 0 1 -.161 4.453l-2.532 2.191a63.107 63.107 0 0 0 14.9 14.9l2.191-2.532a3.056 3.056 0 0 1 2.192-1.051 3.088 3.088 0 0 1 2.261.89l6.91 6.91a3.043 3.043 0 0 1 -.16 4.454l-8.953 7.741a.994.994 0 0 1 -.658.244z"/><path d="m4.705 37.545q-.659-1.01-1.272-2.031l1.713-1.03q.594.988 1.234 1.967z"/><path d="m37.085 44.589h2v14.166h-2z" transform="matrix(.707 -.707 .707 .707 -25.383 42.064)"/><path d="m11.328 18.833h2v14.166h-2z" transform="matrix(.707 -.707 .707 .707 -14.714 16.308)"/><path d="m43 42h-16a1 1 0 0 1 -.707-1.707l3.222-3.222a20.8 20.8 0 0 1 -7.515-16.071 21 21 0 1 1 21 21zm-13.586-2h13.586a19.054 19.054 0 1 0 -11.384-3.815 1 1 0 0 1 .107 1.506z"/><path d="m46 29h-6a1 1 0 0 1 -1-1v-3h-3a1 1 0 0 1 -1-1v-6a1 1 0 0 1 1-1h3v-3a1 1 0 0 1 1-1h6a1 1 0 0 1 1 1v3h3a1 1 0 0 1 1 1v6a1 1 0 0 1 -1 1h-3v3a1 1 0 0 1 -1 1zm-5-2h4v-3a1 1 0 0 1 1-1h3v-4h-3a1 1 0 0 1 -1-1v-3h-4v3a1 1 0 0 1 -1 1h-3v4h3a1 1 0 0 1 1 1z"/><path d="m59 21h-2a14.015 14.015 0 0 0 -14-14v-2a16.019 16.019 0 0 1 16 16z"/><path d="m57 23h2v2h-2z"/></g></svg>