<svg height="512" viewBox="0 0 64 64" width="512" xmlns="http://www.w3.org/2000/svg"><g id="_09-Emergency_Call" data-name="09-Emergency Call"><path d="m10 11h2v2h-2z"/><path d="m49 64h-34a5.006 5.006 0 0 1 -5-5v-44h2v44a3 3 0 0 0 3 3h34a3 3 0 0 0 3-3v-54a3 3 0 0 0 -3-3h-34a3 3 0 0 0 -3 3v4h-2v-4a5.006 5.006 0 0 1 5-5h34a5.006 5.006 0 0 1 5 5v54a5.006 5.006 0 0 1 -5 5z"/><path d="m35 61h-6a3 3 0 0 1 0-6h6a3 3 0 0 1 0 6zm-6-4a1 1 0 0 0 0 2h6a1 1 0 0 0 0-2z"/><path d="m47 52h6v2h-6z"/><path d="m43 52h2v2h-2z"/><path d="m11 52h30v2h-30z"/><path d="m35 39h-6a1 1 0 0 1 -1-1v-3h-3a1 1 0 0 1 -1-1v-6a1 1 0 0 1 1-1h3v-3a1 1 0 0 1 1-1h6a1 1 0 0 1 1 1v3h3a1 1 0 0 1 1 1v6a1 1 0 0 1 -1 1h-3v3a1 1 0 0 1 -1 1zm-5-2h4v-3a1 1 0 0 1 1-1h3v-4h-3a1 1 0 0 1 -1-1v-3h-4v3a1 1 0 0 1 -1 1h-3v4h3a1 1 0 0 1 1 1z"/><path d="m32 48a17 17 0 1 1 17-17 17.019 17.019 0 0 1 -17 17zm0-32a15 15 0 1 0 15 15 15.017 15.017 0 0 0 -15-15z"/><path d="m45 31h-2a11.013 11.013 0 0 0 -11-11v-2a13.015 13.015 0 0 1 13 13z"/><path d="m43 33h2v2h-2z"/><path d="m57.447 37.9-.894-1.79.447.89-.471-.882c.06-.035 1.471-.879 1.471-4.118s-1.411-4.083-1.471-4.118l.918-1.777c.261.131 2.553 1.407 2.553 5.895s-2.292 5.764-2.553 5.9z"/><path d="m58.625 45.781-1.25-1.562.625.781-.628-.778c.189-.154 4.628-3.861 4.628-12.222s-4.439-12.068-4.628-12.222l1.253-1.559c.219.181 5.375 4.408 5.375 13.781s-5.156 13.605-5.375 13.781z"/><path d="m6.553 37.9c-.261-.136-2.553-1.412-2.553-5.9s2.292-5.764 2.553-5.895l.894 1.79c-.036.022-1.447.866-1.447 4.105s1.411 4.083 1.471 4.118z"/><path d="m5.375 45.781c-.219-.176-5.375-4.408-5.375-13.781s5.156-13.6 5.375-13.781l1.25 1.562c-.186.151-4.625 3.858-4.625 12.219s4.439 12.068 4.628 12.222z"/><path d="m36.559 5h-9.118a3 3 0 0 1 -2.841-2.051l-.544-1.633 1.9-.632.544 1.632a1 1 0 0 0 .941.684h9.118a1 1 0 0 0 .948-.684l.544-1.632 1.9.632-.544 1.632a3 3 0 0 1 -2.848 2.052z"/></g></svg>