<svg height="512" viewBox="0 0 88 88" width="512" xmlns="http://www.w3.org/2000/svg"><g id="Laptop_Send_Emailv" data-name="Laptop Send Emailv"><rect fill="#e6ecff" height="52" rx="1" width="72" x="8" y="13"/><rect fill="#4294ff" height="42" rx="1" width="64" x="12" y="17"/><path d="m86 63h-84a1 1 0 0 0 -1 1v6a5.0059 5.0059 0 0 0 5 5h76a5.0059 5.0059 0 0 0 5-5v-6a1 1 0 0 0 -1-1z" fill="#4294ff"/><path d="m64 63h-40v4a3 3 0 0 0 3 3h34a3 3 0 0 0 3-3z" fill="#376cfb"/><rect fill="#376cfb" height="18" rx="1" width="24" x="39" y="30"/><path d="m63 33.57v2.13l-11.66 4.24a.99.99 0 0 1 -.68 0l-11.66-4.24v-2.13l12 4.37z" fill="#2946ed"/><g fill="#376cfb"><path d="m36 40h-8a1 1 0 0 1 0-2h8a1 1 0 0 1 0 2z"/><path d="m36 45h-5a1 1 0 0 1 0-2h5a1 1 0 0 1 0 2z"/><path d="m36 35h-12a1 1 0 0 1 0-2h12a1 1 0 0 1 0 2z"/></g></g></svg>