<svg height="511pt" viewBox="-95 0 511 511.998" width="511pt" xmlns="http://www.w3.org/2000/svg"><path d="m252.605469 472.96875c4.140625 0 7.496093-3.355469 7.496093-7.492188v-24.019531c0-4.140625-3.355468-7.496093-7.496093-7.496093h-60.050781c-4.140626 0-7.492188 3.355468-7.492188 7.496093v24.019531c0 4.136719 3.351562 7.492188 7.492188 7.492188zm-52.554688-24.019531h45.0625v9.03125h-45.0625zm0 0"/><path d="m241.957031 0c-21.121093 0-41.460937 8.453125-56.386719 23.292969-25.421874-6.714844-55.695312-8.488281-84.878906 1.242187-8.898437 2.964844-4.5625 17.320313 4.738282 14.21875 54.832031-18.28125 105.652343 9.910156 111.265624 13.183594 12.808594 7.472656 30.433594 21.636719 41.65625 46.679688 10.089844 22.523437 12.632813 48.59375 7.605469 77.546874-5.25-1.359374-10.929687-1.296874-16.320312-1.296874-77.332031 0-113.796875-16.109376-130.769531-29.621094-17.242188-13.730469-17.789063-27.042969-17.804688-27.816406 0-9.726563-15.085938-9.59375-14.988281.101562-.097657 33.59375-40.808594 38.828125-42.527344 39.03125-3.785156.433594-6.640625 3.636719-6.640625 7.445312v11c-2.503906.023438-4.949219.300782-7.3125.804688-1.496094-7.714844-3.605469-22.792969-1.832031-40.460938 3.375-33.664062 18.589843-60.519531 45.222656-79.820312 1.09375-.792969 2.207031-1.570312 3.304687-2.316406 7.765626-5.261719-.292968-17.914063-8.40625-12.410156-1.226562.835937-2.46875 1.703124-3.691406 2.589843-29.984375 21.726563-47.757812 53.207031-51.402344 91.035157-2.140624 22.253906 1.160157 40.453124 2.800782 47.671874-9.140625 6.699219-15.089844 17.507813-15.089844 29.683594 0 20.28125 16.503906 36.785156 36.785156 36.785156h3.242188c8.949218 33.953126 33.746094 61.546876 65.96875 74.34375v34.621094c0 3.503906-2.851563 6.351563-6.351563 6.351563h-18.179687c-44.417969 0-80.554688 36.136719-80.554688 80.550781v60.066406c0 4.136719 3.355469 7.492188 7.492188 7.492188h39.203125c9.378906 0 9.804687-14.988282 0-14.988282h-31.707031v-52.570312c0-27.867188 17.484374-51.710938 42.054687-61.183594 25.019531 23.1875 56.78125 34.792969 88.558594 34.792969 31.765625 0 63.539062-11.605469 88.574219-34.796875 24.570312 9.472656 42.058593 33.320312 42.058593 61.1875v52.570312h-188.570312c-9.378907 0-9.804688 14.988282 0 14.988282h196.0625c4.140625 0 7.496093-3.355469 7.496093-7.492188v-60.066406c0-44.414062-36.136718-80.550781-80.558593-80.550781h-18.175781c-5.46875 0-7.054688-5.851563-6.355469-10.152344h72.367187c34.183594 0 61.992188-27.808594 61.992188-61.992187v-211.800782c-.003906-44.082031-35.867188-79.941406-79.945313-79.941406zm14.792969 233.582031h-.375c.503906-4.296875.757812-8.648437.757812-13.046875v-30.539062c11.84375.203125 21.417969 9.898437 21.417969 21.789062 0 12.019532-9.777343 21.796875-21.800781 21.796875zm-219.464844 0c-12.023437 0-21.800781-9.777343-21.800781-21.796875 0-11.890625 9.574219-21.585937 21.421875-21.789062v30.539062c0 4.414063.265625 8.765625.773438 13.046875zm14.609375-13.046875v-50.292968c5.230469-1.195313 12.902344-3.457032 20.605469-7.546876 10.15625-5.394531 17.710938-12.484374 22.488281-20.992187 30.148438 43.398437 99.648438 47.460937 147.15625 48.105469v30.726562c0 15.089844-3.429687 29.519532-10.191406 42.882813-4.238281 8.367187 8.945313 15.515625 13.371094 6.765625 3.527343-6.96875 6.265625-14.1875 8.21875-21.613282 2.011719.03125 4.078125.035157 6.082031-.121093v30.476562c0 6.578125-5.351562 11.933594-11.933594 11.933594h-21.273437c-2.457031-9.765625-11.308594-17.015625-21.824219-17.015625h-17.015625c-12.410156 0-22.507813 10.097656-22.507813 22.507812 0 6.277344 2.585938 11.957032 6.746094 16.042969-7.992187 2.144531-16.3125 3.257813-24.796875 3.257813-52.453125 0-95.125-42.671875-95.125-95.117188zm135.683594 83.335938c-9.40625 0-9.835937-15.035156 0-15.035156h17.015625c9.402344 0 9.832031 15.035156 0 15.035156zm6.316406 75.007812h18.175781c1.761719 0 3.503907.089844 5.230469.226563-41.40625 31.910156-99.140625 31.910156-140.566406 0 1.726563-.136719 3.464844-.226563 5.226563-.226563h18.179687c11.765625 0 21.339844-9.574218 21.339844-21.339844v-29.894531c8.199219 1.953125 16.746093 2.996094 25.535156 2.996094 8.707031 0 17.261719-1.015625 25.535156-2.972656v29.867187c0 11.769532 9.574219 21.34375 21.34375 21.34375zm113.015625-87.132812c0 25.914062-21.089844 47-47.003906 47h-72.367188v-15.785156c3.105469-1.226563 6.148438-2.59375 9.128907-4.101563h7.925781c9.019531 0 16.808594-5.335937 20.398438-13.011719h22.699218c14.84375 0 26.921875-12.078125 26.921875-26.921875v-35c11.277344-6.289062 18.925781-18.335937 18.925781-32.140625 0-11.523437-5.328124-21.816406-13.644531-28.566406 6.640625-33.722656 4-64.246094-7.867187-90.730469-12.847656-28.675781-33.074219-44.917969-47.777344-53.496093-6.351562-3.707032-13.804688-7.265626-22.054688-10.378907 11.308594-8.742187 25.308594-13.625 39.761719-13.625 35.8125 0 64.953125 29.136719 64.953125 64.953125zm0 0"/></svg>