<svg height="512" viewBox="0 0 128 128" width="512" xmlns="http://www.w3.org/2000/svg"><g><path d="m64 40.811c-27.075 0-40.157 10.729-40.157 10.729l9.418 70.154h61.478l9.418-70.154s-13.082-10.729-40.157-10.729z" fill="#ef3829"/><path d="m101.327 72.624h-74.654l3.03 22.568h68.594z" fill="#f2e7cb"/><path d="m77.177 100.26h37.119v21.433h-37.119z" fill="#ffde3e"/><path d="m110.333 100.26a8.958 8.958 0 0 0 -7.466-8.828c1.268-7.619-7.368-12.579-7.368-12.579a25.9 25.9 0 0 1 -3.91 6.382 7.353 7.353 0 0 0 -1.852 6.08 8.956 8.956 0 0 0 -8.6 8.945z" fill="#8c3f07"/><path d="m32.708 46.615c6.629-2.82 17.011-5.8 31.288-5.8s24.659 2.984 31.288 5.8a44.988 44.988 0 0 1 19.649-17.028l-3.671-7.259s-10.862 3.183-20.974 15.908a75.889 75.889 0 0 1 9.772-21.623l-7.554-4.808c-10.212 13.895-12.777 30.314-12.777 30.314a209.5 209.5 0 0 1 5.022-34.019l-8.351-1.794a176.868 176.868 0 0 0 -4.93 24.949v-.007a128.812 128.812 0 0 0 -1.017-24.942h-9.925c1.124 15.053-3.178 32.314-3.178 32.315a189.51 189.51 0 0 0 -5.75-32.315l-8.351 1.794a209.5 209.5 0 0 1 5.022 34.016s-2.565-16.416-12.777-30.311l-7.554 4.808a75.889 75.889 0 0 1 9.772 21.623c-10.107-12.725-20.982-15.908-20.982-15.908l-3.671 7.259a44.988 44.988 0 0 1 19.649 17.028z" fill="#ef983b"/><g fill="#422002"><path d="m31.683 109.942a1.75 1.75 0 0 0 1.5-1.966l-.6-4.46a1.75 1.75 0 0 0 -3.469.464l.6 4.46a1.75 1.75 0 0 0 1.732 1.518 1.708 1.708 0 0 0 .237-.016z"/><path d="m69.818 51.038c1.724.133 3.438.329 5.095.582a1.713 1.713 0 0 0 .266.021 1.75 1.75 0 0 0 .262-3.48c-1.741-.266-3.542-.473-5.353-.613a1.75 1.75 0 0 0 -.27 3.49z"/><path d="m81.3 52.942c9 2.385 13.511 5.985 13.556 6.021a1.75 1.75 0 0 0 2.215-2.71c-.2-.166-5.071-4.1-14.875-6.693a1.749 1.749 0 1 0 -.9 3.382z"/><path d="m116.5 28.8-3.67-7.259a1.751 1.751 0 0 0 -2.053-.89c-.381.112-7.835 2.374-16.187 10.294a72.033 72.033 0 0 1 6.9-13.32 1.751 1.751 0 0 0 -.49-2.486l-7.554-4.808a1.75 1.75 0 0 0 -2.349.441 70.229 70.229 0 0 0 -7.637 13.389c1.426-9.415 2.963-15.533 2.986-15.626a1.749 1.749 0 0 0 -1.327-2.142l-8.354-1.793a1.747 1.747 0 0 0 -2.052 1.232c-.654 2.3-1.24 4.631-1.767 6.937-.334-4.038-.732-6.527-.766-6.74a1.75 1.75 0 0 0 -1.727-1.468h-9.925a1.748 1.748 0 0 0 -1.745 1.88 98.646 98.646 0 0 1 -1.058 20.715 171.215 171.215 0 0 0 -4.438-21.328 1.749 1.749 0 0 0 -2.052-1.228l-8.354 1.8a1.749 1.749 0 0 0 -1.327 2.142c.023.093 1.56 6.208 2.987 15.629a70.255 70.255 0 0 0 -7.637-13.4 1.75 1.75 0 0 0 -2.349-.441l-7.555 4.806a1.751 1.751 0 0 0 -.49 2.486 72.033 72.033 0 0 1 6.9 13.32c-8.354-7.92-15.81-10.182-16.189-10.294a1.75 1.75 0 0 0 -2.053.89l-3.668 7.262a1.748 1.748 0 0 0 .874 2.4 42.885 42.885 0 0 1 17.726 14.645 37.549 37.549 0 0 0 -7.367 4.342 1.75 1.75 0 0 0 -.624 1.585l5.86 43.652c0 .021.011.04.014.06a2.39 2.39 0 0 0 .088.324c.018.048.039.093.061.139a1.662 1.662 0 0 0 .084.156c.026.042.053.083.082.122a1.643 1.643 0 0 0 .113.137c.033.036.066.072.1.105s.09.077.137.113.077.059.118.085a1.556 1.556 0 0 0 .161.087c.042.021.082.044.126.062a1.673 1.673 0 0 0 .2.062c.037.01.073.024.112.031a1.682 1.682 0 0 0 .334.034h50.222a10.772 10.772 0 0 0 -.384 1.57h-2.36a1.75 1.75 0 0 0 -1.75 1.75v19.682h-40.635l-.5-3.693a1.75 1.75 0 1 0 -3.468.465l.7 5.211a1.75 1.75 0 0 0 1.735 1.517h81.041a1.749 1.749 0 0 0 1.75-1.75v-21.432a1.749 1.749 0 0 0 -1.75-1.75h-2.355a10.665 10.665 0 0 0 -7.2-8.413 12.452 12.452 0 0 0 -2.929-7.97l4.076-30.356a1.75 1.75 0 0 0 -.624-1.585 37.558 37.558 0 0 0 -7.368-4.341 44.951 44.951 0 0 1 4.66-5.584 1.749 1.749 0 1 0 -2.5-2.451 47.55 47.55 0 0 0 -5.439 6.616c-1.137-.452-2.371-.9-3.693-1.338.277-1.379.595-2.725.945-4.032 7.5-9.321 15.434-13.273 18.534-14.547l2.144 4.239a42.977 42.977 0 0 0 -6.415 3.829 1.75 1.75 0 1 0 2.046 2.84 39.007 39.007 0 0 1 7.44-4.222 1.748 1.748 0 0 0 .874-2.4zm-38.857-20.436 5 1.075a220.654 220.654 0 0 0 -4.518 30.641c-1.832-.274-3.765-.5-5.788-.668a193 193 0 0 1 5.306-31.048zm-15.256-.307h6.544a132.643 132.643 0 0 1 .789 23.1v.016c-.452 3.52-.728 6.329-.875 8.008q-2.345-.117-4.845-.119t-4.845.115c-.012-.131-.024-.272-.038-.417.547-2.275 3.91-16.929 3.27-30.703zm-12.03.307a193.121 193.121 0 0 1 5.305 31.048c-2.022.17-3.955.394-5.787.668a220.654 220.654 0 0 0 -4.513-30.641zm-15.324 5.809c7.272 10.514 10.273 22.256 11.183 26.537-2.071.405-4 .866-5.79 1.361-.3-1.451-.639-2.861-1.011-4.229-.009-.041-.02-.081-.032-.122a79.172 79.172 0 0 0 -9-20.586zm-19.589 14.576 2.143-4.239c3.1 1.276 11.037 5.227 18.534 14.547.35 1.307.668 2.653.945 4.032-1.321.437-2.556.886-3.692 1.338a47.086 47.086 0 0 0 -17.93-15.678zm15.789 64.692-2.559-19.067h70.652l-.619 4.616a19.608 19.608 0 0 0 -2.337-1.655 1.751 1.751 0 0 0 -2.492.856 24.2 24.2 0 0 1 -3.606 5.891 9.186 9.186 0 0 0 -2.357 5.7 10.673 10.673 0 0 0 -6.082 3.661zm81.313 26.5h-33.619v-17.93h33.619zm-4.181-21.432h-25.253a7.14 7.14 0 0 1 1.028-2.309c.013-.018.027-.035.039-.054a7.185 7.185 0 0 1 5.629-3.086 1.75 1.75 0 0 0 1.659-2.013 5.6 5.6 0 0 1 1.438-4.662 25.655 25.655 0 0 0 3.288-4.921c2.157 1.691 5.691 5.212 4.948 9.677a1.749 1.749 0 0 0 1.435 2.012 7.18 7.18 0 0 1 5.789 5.358zm-8.565-27.635h-71.6l-2.485-18.535c3.125-2.149 15.806-9.777 38.285-9.777s35.166 7.631 38.285 9.777zm-18.017-30.164a77.151 77.151 0 0 1 11.184-26.537l4.653 2.961a79.172 79.172 0 0 0 -9 20.586c-.012.041-.023.081-.032.122-.372 1.368-.713 2.778-1.011 4.229-1.795-.495-3.723-.956-5.794-1.361z"/></g></g></svg>