<svg enable-background="new 0 0 128 128" height="512" viewBox="0 0 128 128" width="512" xmlns="http://www.w3.org/2000/svg"><g id="Layer_10"><path d="m44.44 94.5c0-.07.01-.13.01-.2v.2z" fill="#2e3338"/></g><g id="Layer_11"><path d="m32 81h13.92v8.67h-13.92z" fill="#fdcc58"/><path d="m52.9 81h28.23v8.67h-28.23z" fill="#fdcc58"/><path d="m16.25 45.23h5.25v12.69h-5.25z" fill="#434953"/><path d="m16.25 64.75h5.25v12.69h-5.25z" fill="#434953"/><g><g><path d="m108.21 45.4v28.6c0 4.42-3.58 8-8 8h-76.22v-44.6h76.22c4.42 0 8 3.58 8 8z" fill="#5ac0a6"/></g></g><path d="m24.99 29v69.5c0 1.1-.9 2-2 2h-.49c-1.1 0-2-.9-2-2v-65.01h-6.88c-1.1 0-2-.9-2-2v-.49c0-1.1.9-2 2-2z" fill="#e5e7ea"/><path d="m95.94 66.33c-1.63 2.91-4.36 5.12-7.63 6.05 1.69-5.58-3.48-8.47-3.48-8.47l-.01-.01c1.04 0 1.98-.42 2.66-1.1 0 0 5.71-1.6 8.46 3.53z" fill="#5ac0a6"/><path d="m90.31 72.38c-1.11.32-2.28.49-3.49.49-2.24 0-4.35-.59-6.18-1.61 5.13-2.75 3.52-8.46 3.52-8.46v-.01c.68.69 1.62 1.11 2.66 1.11l.01.01s5.17 2.89 3.48 8.47z" fill="#56b297"/><path d="m78.64 71.26c-2.92-1.63-5.13-4.36-6.05-7.63 5.58 1.68 8.47-3.49 8.47-3.49l.01-.02v.03c0 1.03.42 1.96 1.09 2.64v.01s1.61 5.71-3.52 8.46z" fill="#5ac0a6"/><path d="m84.17 57.49c-.67.67-1.09 1.6-1.1 2.63l-.01.02s-2.89 5.17-8.47 3.49c-.32-1.11-.49-2.27-.49-3.48 0-2.25.59-4.36 1.62-6.19 2.74 5.13 8.44 3.53 8.44 3.53z" fill="#56b297"/><path d="m84.82 56.39c-1.04 0-1.97.42-2.65 1.1h-.01s-5.7 1.6-8.44-3.53c1.62-2.91 4.35-5.11 7.62-6.04-1.63 5.42 3.22 8.31 3.48 8.47z" fill="#5ac0a6"/><path d="m97.05 56.66c-5.56-1.67-8.47 3.48-8.47 3.48 0-1.04-.42-1.97-1.1-2.65 0 0-1.6-5.7 3.52-8.45 2.91 1.62 5.12 4.35 6.05 7.62z" fill="#5ac0a6"/><path d="m99.54 60.15c0 2.24-.58 4.35-1.6 6.18-2.75-5.13-8.46-3.53-8.46-3.53.68-.68 1.1-1.62 1.1-2.65v-.01s2.91-5.15 8.47-3.48c.32 1.11.49 2.28.49 3.49z" fill="#56b297"/><g><g><path d="m39.96 85.83v3.84h-2v-3.84c0-.55.45-1 1-1s1 .45 1 1z" fill="#efbb54"/></g></g><g><g><path d="m36.42 85.83v3.84h-2v-3.84c0-.55.44-1 1-1 .55 0 1 .45 1 1z" fill="#efbb54"/></g></g><g><g><path d="m43.5 85.83v3.84h-2v-3.84c0-.55.45-1 1-1s1 .45 1 1z" fill="#efbb54"/></g></g><g><g><path d="m68.01 85.83v3.84h-2v-3.84c0-.55.45-1 1-1 .56 0 1 .45 1 1z" fill="#efbb54"/></g></g><g><g><path d="m63.38 85.83v3.84h-2v-3.84c0-.55.44-1 1-1 .55 0 1 .45 1 1z" fill="#efbb54"/></g></g><g><g><path d="m56.74 89.67v-3.84c0-.55.44-1 1-1 .55 0 1 .45 1 1v3.84z" fill="#efbb54"/></g></g><g><g><path d="m72.65 85.83v3.84h-2v-3.84c0-.55.45-1 1-1s1 .45 1 1z" fill="#efbb54"/></g></g><g><g><path d="m77.29 85.83v3.84h-2v-3.84c0-.55.44-1 1-1 .55 0 1 .45 1 1z" fill="#efbb54"/></g></g><g><path d="m39.56 46.9v5.24h-2v-5.24c0-.55.45-1 1-1s1 .45 1 1z" fill="#434953"/></g><g><path d="m45.5 46.9v5.24h-2v-5.24c0-.55.45-1 1-1s1 .45 1 1z" fill="#434953"/></g><g><path d="m51.44 46.9v5.24h-2v-5.24c0-.55.45-1 1-1s1 .45 1 1z" fill="#434953"/></g><g><path d="m37.56 66.15v2h-5.24c-.55 0-1-.45-1-1s.45-1 1-1z" fill="#434953"/></g><g><path d="m37.56 60.21v2h-5.24c-.55 0-1-.45-1-1s.45-1 1-1z" fill="#434953"/></g><g><path d="m37.56 54.27v2h-5.24c-.55 0-1-.45-1-1s.45-1 1-1z" fill="#434953"/></g><path d="m89.48 57.49c-.68-.68-1.61-1.1-2.65-1.1 0 0 0 0-.01 0-.26-.16-5.11-3.05-3.48-8.47 1.1-.32 2.27-.49 3.48-.49 2.24 0 4.35.58 6.18 1.61-5.12 2.75-3.52 8.45-3.52 8.45z" fill="#56b297"/><path d="m90.58 60.14v.01c0 1.03-.42 1.97-1.1 2.65s-1.62 1.1-2.66 1.1-1.98-.42-2.66-1.11c-.67-.68-1.09-1.61-1.09-2.64v-.03c.01-1.03.43-1.96 1.1-2.63.68-.68 1.61-1.1 2.65-1.1h.01c1.04 0 1.97.42 2.65 1.1s1.1 1.61 1.1 2.65z" fill="#56b297"/><g fill="#4c545e"><path d="m88.31 73.38c-1.11.32-2.28.49-3.49.49-2.24 0-4.35-.59-6.18-1.61 5.13-2.75 3.52-9.46 3.52-9.46v-.01c.68.69 1.62 1.11 2.66 1.11l.01.01s5.17 3.89 3.48 9.47z"/><path d="m82.17 57.49c-.67.67-1.09 1.6-1.1 2.63l-.01.02s-3.89 5.17-9.47 3.49c-.32-1.11-.49-2.27-.49-3.48 0-2.25.59-4.36 1.62-6.19 2.74 5.13 9.44 3.53 9.44 3.53z"/><path d="m98.54 60.15c0 2.24-.58 4.35-1.6 6.18-2.75-5.13-9.46-3.53-9.46-3.53.68-.68 1.1-1.62 1.1-2.65v-.01s3.91-5.15 9.47-3.48c.32 1.11.49 2.28.49 3.49z"/><path d="m87.48 57.49c-.68-.68-1.61-1.1-2.65-1.1 0 0 0 0-.01 0-.26-.16-5.11-4.05-3.48-9.47 1.1-.32 2.27-.49 3.48-.49 2.24 0 4.35.58 6.18 1.61-5.12 2.75-3.52 9.45-3.52 9.45z"/></g><path d="m88.58 60.14v.01c0 1.03-.42 1.97-1.1 2.65s-1.62 1.1-2.66 1.1-1.98-.42-2.66-1.11c-.67-.68-1.09-1.61-1.09-2.64v-.03c.01-1.03.43-1.96 1.1-2.63.68-.68 1.61-1.1 2.65-1.1h.01c1.04 0 1.97.42 2.65 1.1s1.1 1.61 1.1 2.65z" fill="#e5e7ea"/><path d="m38.56 53.14h16.01v16.01h-16.01z" fill="#56b297"/><path d="m37.56 52.14h16.01v16.01h-16.01z" fill="#e5e7ea"/><path d="m42.5 52.14-4.94 9.93v6.08h.72l8.01-16.01z" fill="#f2f3f4"/><path d="m43.53 68.15h3.75l6.29-12.57v-3.44h-2.07z" fill="#f2f3f4"/><g><path d="m41.69 68.15v5.23c0 .55-.45 1-1 1s-1-.45-1-1v-5.23z" fill="#434953"/></g><g><path d="m47.63 68.15v5.23c0 .55-.45 1-1 1s-1-.45-1-1v-5.23z" fill="#434953"/></g><g><path d="m53.57 68.15v5.23c0 .55-.45 1-1 1s-1-.45-1-1v-5.23z" fill="#434953"/></g><g><path d="m59.81 53.14c0 .56-.45 1-1 1h-5.24v-2h5.24c.55 0 1 .45 1 1z" fill="#434953"/></g><g><path d="m59.81 59.08c0 .55-.45 1-1 1h-5.24v-2h5.24c.55 0 1 .45 1 1z" fill="#434953"/></g><g><path d="m59.81 65.02c0 .55-.45 1-1 1h-5.24v-2h5.24c.55 0 1 .45 1 1z" fill="#434953"/></g><path d="m84.82 43.96c-8.94 0-16.19 7.24-16.19 16.19 0 8.94 7.25 16.19 16.19 16.19s16.19-7.25 16.19-16.19c0-8.95-7.25-16.19-16.19-16.19zm11.12 22.37c-1.63 2.91-4.36 5.12-7.63 6.05-1.11.32-2.28.49-3.49.49-2.24 0-4.35-.59-6.18-1.61-2.92-1.63-5.13-4.36-6.05-7.63-.32-1.11-.49-2.27-.49-3.48 0-2.25.59-4.36 1.62-6.19 1.62-2.91 4.35-5.11 7.62-6.04 1.1-.32 2.27-.49 3.48-.49 2.24 0 4.35.58 6.18 1.61 2.91 1.62 5.12 4.35 6.05 7.62.32 1.11.49 2.28.49 3.49 0 2.24-.58 4.35-1.6 6.18z" fill="#434953"/></g></svg>