<svg enable-background="new 0 0 128 128" height="512" viewBox="0 0 128 128" width="512" xmlns="http://www.w3.org/2000/svg"><g id="Layer_12"><path d="m81.13 82.39v7.28h-28.23v-7.84c.79-.23 1.56-.51 2.31-.83h22.24c1.18.56 2.41 1.03 3.68 1.39z" fill="#fdcc58"/><path d="m45.92 83.89v5.78h-13.92v-8.67h4.46c2.89 1.22 6.06 1.89 9.38 1.89z" fill="#fdcc58"/><path d="m23.99 37.4h20.68v44.6h-20.68z" fill="#5ac0a6"/><path d="m16.25 45.23h5.25v12.69h-5.25z" fill="#434953"/><path d="m16.25 64.75h5.25v12.69h-5.25z" fill="#434953"/><path d="m24.99 29v69.5c0 1.1-.9 2-2 2h-.49c-1.1 0-2-.9-2-2v-65.01h-6.88c-1.1 0-2-.9-2-2v-.49c0-1.1.9-2 2-2z" fill="#e5e7ea"/><path d="m112.01 60.15c0 13.33-10.85 24.19-24.19 24.19-2.32 0-4.56-.33-6.69-.95-1.27-.36-2.5-.83-3.68-1.39h-22.24c-.75.32-1.52.6-2.31.83-.69.21-1.39.39-2.1.54-1.57.34-3.21.51-4.88.52h-.08c-3.32 0-6.49-.67-9.38-1.89-4.81-2.03-8.84-5.58-11.47-10.04v-24.52c2.63-4.46 6.66-8.01 11.47-10.04 2.89-1.22 6.06-1.89 9.38-1.89s6.49.67 9.37 1.89h24.39c1.02-.37 2.08-.67 3.16-.9 1.63-.36 3.33-.54 5.06-.54 13.34 0 24.19 10.85 24.19 24.19z" fill="#434a51"/><path d="m112.01 60.15c0 13.33-10.85 24.19-24.19 24.19-2.32 0-4.56-.33-6.69-.95-1.27-.36-2.5-.83-3.68-1.39h-22.24c-.75.32-1.52.6-2.31.83-.69.21-1.39.39-2.1.54-1.57.34-3.21.51-4.88.52h-.08c-3.32 0-6.49-.67-9.38-1.89-4.81-2.03-8.84-5.58-11.47-10.04v-24.52c2.63-4.46 6.66-8.01 11.47-10.04 2.89-1.22 6.06-1.89 9.38-1.89s6.49.67 9.37 1.89h24.39c1.02-.37 2.08-.67 3.16-.9 1.63-.36 3.33-.54 5.06-.54 13.34 0 24.19 10.85 24.19 24.19z" fill="#434a51"/><path d="m82.76 36.5c-.69.31-1.38.65-2.06 1-1.71.88-3.38 1.85-5.01 2.88-1.62 1.05-3.2 2.16-4.7 3.38-1.49 1.23-2.93 2.54-4.03 4.15.96-1.7 2.3-3.16 3.7-4.52 1.4-1.37 2.9-2.63 4.46-3.82.98-.75 1.97-1.48 3-2.17h1.48c1.02-.37 2.08-.67 3.16-.9z" fill="#24282b"/><path d="m100.54 60.15c0 2.24-.58 4.35-1.6 6.18-1.63 2.91-4.36 5.12-7.63 6.05-1.11.32-2.28.49-3.49.49-2.24 0-4.35-.59-6.18-1.61-2.92-1.63-5.13-4.36-6.05-7.63-.32-1.11-.49-2.27-.49-3.48 0-2.25.59-4.36 1.62-6.19 1.62-2.91 4.35-5.11 7.62-6.04 1.1-.32 2.27-.49 3.48-.49 2.24 0 4.35.58 6.18 1.61 2.91 1.62 5.12 4.35 6.05 7.62.32 1.11.49 2.28.49 3.49z" fill="#e5e7ea"/><path d="m102.05 56.66c-5.56-1.67-8.47 3.48-8.47 3.48 0-1.04-.42-1.97-1.1-2.65 0 0-1.6-5.7 3.52-8.45-1.83-1.03-3.94-1.61-6.18-1.61-1.21 0-2.38.17-3.48.49-1.63 5.42 3.22 8.31 3.48 8.47-1.04 0-1.97.42-2.65 1.1h-.01s-5.7 1.6-8.44-3.53c-1.03 1.83-1.62 3.94-1.62 6.19 0 1.21.17 2.37.49 3.48 5.58 1.68 8.47-3.49 8.47-3.49l.01-.02v.03c0 1.03.42 1.96 1.09 2.64v.01s1.61 5.71-3.52 8.46c1.83 1.02 3.94 1.61 6.18 1.61 1.21 0 2.38-.17 3.49-.49 1.69-5.58-3.48-8.47-3.48-8.47l-.01-.01c1.04 0 1.98-.42 2.66-1.1 0 0 5.71-1.6 8.46 3.53 1.02-1.83 1.6-3.94 1.6-6.18 0-1.21-.17-2.38-.49-3.49z" fill="#d9dadb"/><path d="m66.7 71.93c-.81 1.48-1.9 2.81-3.05 4.05s-2.4 2.4-3.7 3.5c-1.03.88-2.11 1.72-3.22 2.52h-1.52c-.75.32-1.52.6-2.31.83-.69.21-1.39.39-2.1.54 1.46-.55 2.9-1.27 4.3-2.05 1.45-.8 2.87-1.68 4.25-2.63 1.37-.95 2.7-1.97 3.96-3.07 1.24-1.11 2.44-2.29 3.39-3.69z" fill="#24282b"/><path d="m58.56 59.7c0 1.21-.17 2.38-.49 3.48-.93 3.27-3.14 6-6.05 7.63-1.83 1.02-3.94 1.61-6.18 1.61-1.21 0-2.38-.17-3.49-.49-3.27-.93-6-3.14-7.63-6.05-1.02-1.83-1.6-3.94-1.6-6.18 0-1.21.17-2.38.49-3.49.93-3.27 3.13-6 6.04-7.63h.01c1.83-1.02 3.94-1.6 6.18-1.6 1.21 0 2.38.17 3.48.49 3.27.93 6 3.13 7.62 6.04 1.03 1.83 1.62 3.94 1.62 6.19z" fill="#e5e7ea"/><path d="m58.94 53.51c-2.74 5.13-8.44 3.53-8.44 3.53h-.01c-.68-.68-1.61-1.1-2.65-1.1.26-.16 5.11-3.05 3.48-8.47-1.1-.32-2.27-.49-3.48-.49-2.24 0-4.35.58-6.18 1.6 5.12 2.76 3.52 8.46 3.52 8.46-.68.68-1.1 1.61-1.1 2.65 0 0-2.91-5.15-8.47-3.48-.32 1.11-.49 2.28-.49 3.49 0 2.24.58 4.35 1.6 6.18 2.75-5.13 8.46-3.52 8.46-3.52.68.68 1.61 1.1 2.65 1.1 0 0-5.17 2.89-3.48 8.47 1.11.32 2.28.49 3.49.49 2.24 0 4.35-.59 6.18-1.61-5.13-2.75-3.52-8.45-3.52-8.45v-.02l.01-.01c.67-.68 1.08-1.6 1.08-2.63v-.03l.01.02s2.89 5.17 8.47 3.49c.32-1.1.49-2.27.49-3.48 0-2.25-.59-4.36-1.62-6.19z" fill="#d9dadb"/><g><g><path d="m39.96 85.83v3.84h-2v-3.84c0-.55.45-1 1-1s1 .45 1 1z" fill="#efbb54"/></g></g><g><g><path d="m36.42 85.83v3.84h-2v-3.84c0-.55.44-1 1-1 .55 0 1 .45 1 1z" fill="#efbb54"/></g></g><g><g><path d="m43.5 85.83v3.84h-2v-3.84c0-.55.45-1 1-1s1 .45 1 1z" fill="#efbb54"/></g></g><g><g><path d="m68.01 85.83v3.84h-2v-3.84c0-.55.45-1 1-1s1 .45 1 1z" fill="#efbb54"/></g></g><g><g><path d="m63.38 85.83v3.84h-2v-3.84c0-.55.44-1 1-1 .55 0 1 .45 1 1z" fill="#efbb54"/></g></g><g><g><path d="m58.74 85.83v3.84h-2v-3.84c0-.55.45-1 1-1s1 .45 1 1z" fill="#efbb54"/></g></g><g><g><path d="m72.65 85.83v3.84h-2v-3.84c0-.55.45-1 1-1s1 .45 1 1z" fill="#efbb54"/></g></g><g><g><path d="m77.29 85.83v3.84h-2v-3.84c0-.55.45-1 1-1s1 .45 1 1z" fill="#efbb54"/></g></g><path d="m56.94 53.51c-2.74 5.13-8.44 3.53-8.44 3.53h-.01c-.68-.68-1.61-1.1-2.65-1.1.26-.16 5.11-3.05 3.48-8.47-1.1-.32-2.27-.49-3.48-.49-2.24 0-4.35.58-6.18 1.6 5.12 2.76 3.52 8.46 3.52 8.46-.68.68-1.1 1.61-1.1 2.65 0 0-2.91-5.15-8.47-3.48-.32 1.11-.49 2.28-.49 3.49 0 2.24.58 4.35 1.6 6.18 2.75-5.13 8.46-3.52 8.46-3.52.68.68 1.61 1.1 2.65 1.1 0 0-5.17 2.89-3.48 8.47 1.11.32 2.28.49 3.49.49 2.24 0 4.35-.59 6.18-1.61-5.13-2.75-3.52-8.45-3.52-8.45v-.02l.01-.01c.67-.68 1.08-1.6 1.08-2.63v-.03l.01.02s2.89 5.17 8.47 3.49c.32-1.1.49-2.27.49-3.48 0-2.25-.59-4.36-1.62-6.19z" fill="#4c545e"/><path d="m45.84 43.51c-8.95 0-16.19 7.25-16.19 16.19s7.24 16.19 16.19 16.19c8.94 0 16.19-7.25 16.19-16.19s-7.25-16.19-16.19-16.19zm6.18 27.3c-1.83 1.02-3.94 1.61-6.18 1.61-1.21 0-2.38-.17-3.49-.49-3.27-.93-6-3.14-7.63-6.05-1.02-1.83-1.6-3.94-1.6-6.18 0-1.21.17-2.38.49-3.49.93-3.27 3.13-6 6.04-7.63h.01c1.83-1.02 3.94-1.6 6.18-1.6 1.21 0 2.38.17 3.48.49 3.27.93 6 3.13 7.62 6.04 1.03 1.83 1.62 3.94 1.62 6.19 0 1.21-.17 2.38-.49 3.48-.93 3.27-3.14 6-6.05 7.63z" fill="#6699d1"/><path d="m100.05 56.66c-5.56-1.67-8.47 3.48-8.47 3.48 0-1.04-.42-1.97-1.1-2.65 0 0-1.6-5.7 3.52-8.45-1.83-1.03-3.94-1.61-6.18-1.61-1.21 0-2.38.17-3.48.49-1.63 5.42 3.22 8.31 3.48 8.47-1.04 0-1.97.42-2.65 1.1h-.01s-5.7 1.6-8.44-3.53c-1.03 1.83-1.62 3.94-1.62 6.19 0 1.21.17 2.37.49 3.48 5.58 1.68 8.47-3.49 8.47-3.49l.01-.02v.03c0 1.03.42 1.96 1.09 2.64v.01s1.61 5.71-3.52 8.46c1.83 1.02 3.94 1.61 6.18 1.61 1.21 0 2.38-.17 3.49-.49 1.69-5.58-3.48-8.47-3.48-8.47l-.01-.01c1.04 0 1.98-.42 2.66-1.1 0 0 5.71-1.6 8.46 3.53 1.02-1.83 1.6-3.94 1.6-6.18 0-1.21-.17-2.38-.49-3.49z" fill="#4c545e"/><path d="m87.82 43.96c-8.94 0-16.19 7.24-16.19 16.19 0 8.94 7.25 16.19 16.19 16.19s16.19-7.25 16.19-16.19c0-8.95-7.25-16.19-16.19-16.19zm11.12 22.37c-1.63 2.91-4.36 5.12-7.63 6.05-1.11.32-2.28.49-3.49.49-2.24 0-4.35-.59-6.18-1.61-2.92-1.63-5.13-4.36-6.05-7.63-.32-1.11-.49-2.27-.49-3.48 0-2.25.59-4.36 1.62-6.19 1.62-2.91 4.35-5.11 7.62-6.04 1.1-.32 2.27-.49 3.48-.49 2.24 0 4.35.58 6.18 1.61 2.91 1.62 5.12 4.35 6.05 7.62.32 1.11.49 2.28.49 3.49 0 2.24-.58 4.35-1.6 6.18z" fill="#6699d1"/><path d="m45.84 83.89c-3.32 0-6.49-.67-9.38-1.89h-2.06c.67.36 1.35.7 2.06 1 2.89 1.22 6.06 1.89 9.38 1.89h.08v-1z" fill="#efbb54"/><path d="m77.45 82h-22.24c-.75.32-1.52.6-2.31.83v1c.79-.23 1.56-.51 2.31-.83h22.24c1.18.56 2.41 1.03 3.68 1.39v-1c-1.27-.36-2.5-.83-3.68-1.39z" fill="#efbb54"/><g fill="#6699d1"><circle cx="45.84" cy="59.7" r="1.99"/><circle cx="87.82" cy="60.15" r="1.99"/></g></g></svg>