<svg height="512" viewBox="0 0 88 88" width="512" xmlns="http://www.w3.org/2000/svg"><g id="Laptop"><rect fill="#e6ecff" height="52" rx="1" width="72" x="8" y="23"/><path d="m25 23h2v27h-2z" fill="#b7c6e2"/><path d="m61 23h2v27h-2z" fill="#b7c6e2"/><rect fill="#4294ff" height="42" rx="1" width="64" x="12" y="27"/><path d="m86 73h-84a1 1 0 0 0 -1 1v6a5.0059 5.0059 0 0 0 5 5h76a5.0059 5.0059 0 0 0 5-5v-6a1 1 0 0 0 -1-1z" fill="#4294ff"/><path d="m64 73h-40v4a3 3 0 0 0 3 3h34a3 3 0 0 0 3-3z" fill="#376cfb"/><path d="m25 27h2v23h-2z" fill="#2965ed"/><path d="m61 27h2v23h-2z" fill="#2965ed"/><path d="m64 42h-4a1 1 0 0 0 -1 1v6a1 1 0 0 0 1 1h4a4 4 0 0 0 0-8z" fill="#376cfb"/><path d="m28 42h-4a4 4 0 0 0 0 8h4a1 1 0 0 0 1-1v-6a1 1 0 0 0 -1-1z" fill="#376cfb"/><path d="m60 14h-32a1 1 0 0 0 -1 1v35h34v-35a1 1 0 0 0 -1-1z" fill="#e6ecff"/><circle cx="51" cy="23" fill="#4294ff" r="4"/><circle cx="37" cy="23" fill="#4294ff" r="4"/><path d="m51 24a1 1 0 0 1 -1-1v-12a6 6 0 0 0 -12 0v12a1 1 0 0 1 -2 0v-12a8 8 0 0 1 16 0v12a1 1 0 0 1 -1 1z" fill="#376cfb"/><g fill="#2045ce"><path d="m25 42h2v8h-2z"/><path d="m61 42h2v8h-2z"/></g></g></svg>