<svg height="512pt" viewBox="-109 0 512 512" width="512pt" xmlns="http://www.w3.org/2000/svg"><path d="m237.238281 367.570312c-.304687-.101562-.613281-.171874-.917969-.230468-.757812-1.566406-1.585937-3.101563-2.53125-4.585938-11.898437-18.695312-34.445312-22.121094-46.3125-22.5625v-17.632812c3.167969-1.25 6.277344-2.648438 9.316407-4.191406h7.710937c9.023438 0 16.824219-5.339844 20.414063-13.023438h22.722656c14.859375 0 26.949219-12.085938 26.949219-26.949219v-34.957031c17.242187-9.503906 24.097656-31.824219 14.941406-49.324219.480469-10.859375 2.253906-55.636719-.144531-77.234375-2.945313-26.523437-15.277344-53.277344-33.835938-73.398437-6.363281-6.902344-17.683593 2.953125-11.027343 10.167969 16.433593 17.824218 27.351562 41.476562 29.953124 64.886718 1.65625 14.902344 1.15625 42.722656.597657 60.582032-5.277344-3.015626-11.363281-4.761719-17.851563-4.828126v-20.050781c0-27.453125-16.851562-51.425781-44.460937-56.539062-17.90625-3.316407-34.320313 3.042969-51.699219 9.773437-17.855469 6.914063-36.324219 14.070313-59.050781 12.132813-21.515625-1.832031-38.398438 2.722656-50.171875 13.535156-14.214844 13.054687-15.316406 30.167969-15.316406 35.101563v6.050781c-6.46875.0625-12.542969 1.800781-17.808594 4.800781-.570313-17.523438-1.101563-45.453125.574218-60.554688 2.796876-25.167968 14.941407-50.09375 33.324219-68.390624 23.097657-22.992188 55.535157-35.144532 93.800781-35.144532h.9375c27.445313 0 51.574219 6.066406 71.714844 18.03125 8.070313 4.792969 16.101563-7.886718 7.664063-12.898437-22.492188-13.363281-49.199219-20.136719-79.375-20.136719h-.941407c-42.320312 0-78.414062 13.664062-104.382812 39.515625-20.761719 20.664063-34.484375 48.863281-37.652344 77.363281-2.46875 22.222656-.519531 68.164063-.105468 77.121094-13.75 26.058594 7.679687 55.3125 35.875 53.992188 8.96875 34.03125 33.820312 61.683593 66.121093 74.511718v17.691406c-11.890625.449219-34.359375 3.90625-46.230469 22.558594-.925781 1.453125-1.738281 2.957032-2.480468 4.488282-16.003906 5.003906-30.371094 15.15625-40.484375 28.628906-10.554688 14.054687-16.132813 30.796875-16.132813 48.417968 0 9.386719 15.003906 9.816407 15.003906 0 0-25.679687 14.566407-48.375 37.101563-59.1875-.4375 8.851563 1.449219 18.296876 5.71875 27.867188 9.09375 20.390625 28.355469 41.226562 57.242187 61.929688 4.164063 2.984374 10.078126.898437 11.546876-3.917969 3.125-10.242188 10.835937-26.800781 19.359374-31.835938 8.519532 5.035157 16.234376 21.59375 19.355469 31.832031 1.460938 4.824219 7.382813 6.90625 11.550781 3.921876 28.886719-20.703126 48.144532-41.539063 57.238282-61.929688 4.261718-9.550781 6.148437-18.976562 5.722656-27.8125 22.453125 10.859375 37.015625 33.632812 37.015625 59.132812v52.707032h-12.894531v-19.847656c0-4.144532-3.355469-7.503907-7.5-7.503907h-55.011719c-4.140625 0-7.5 3.359375-7.5 7.503907v19.847656h-178.945313v-20.347656c0-9.390626-15.003906-9.816407-15.003906 0v27.851562c0 4.140625 3.359375 7.5 7.503906 7.5h276.855469c4.144531 0 7.503907-3.359375 7.503907-7.5v-60.210938c-.003907-34.996093-22.332032-65.828124-55.566407-76.71875zm-200.347656-134.578124c-12.050781 0-21.859375-9.804688-21.859375-21.855469 0-11.925781 9.609375-21.648438 21.488281-21.84375v30.613281c0 4.425781.269531 8.792969.78125 13.085938zm167.613281 70.371093h-17.035156c-4.148438 0-7.523438-3.375-7.523438-7.523437 0-4.148438 3.375-7.527344 7.523438-7.527344h17.035156c4.144532 0 7.523438 3.378906 7.523438 7.527344 0 4.148437-3.375 7.523437-7.523438 7.523437zm52.71875-83.457031v-30.613281c11.882813.199219 21.488282 9.917969 21.488282 21.84375 0 12.050781-9.804688 21.855469-21.855469 21.855469h-.402344c.507813-4.3125.769531-8.675782.769531-13.085938zm-205.699218 0v-51.664062c0-6.984376 2.75-16.96875 10.464843-24.054688 8.550781-7.855469 21.585938-11.09375 38.75-9.632812 26.1875 2.226562 47.203125-5.914063 65.742188-13.09375 16.003906-6.199219 29.820312-11.550782 43.550781-9.011719 7.550781 1.398437 32.191406 8.546875 32.191406 41.789062v65.664063c0 14.167968-3.03125 27.796875-9.011718 40.511718-3.992188 8.492188 9.402343 15.265626 13.578124 6.382813 2.867188-6.097656 5.136719-12.378906 6.828126-18.804687 1.976562.03125 4 .035156 5.96875-.109376v30.511719c0 6.585938-5.359376 11.945313-11.945313 11.945313h-20.886719c-3.066406-9.683594-11.9375-17.027344-22.25-17.027344h-17.035156c-12.421875 0-22.527344 10.105469-22.527344 22.527344 0 6.320312 2.621094 12.035156 6.828125 16.128906-8.019531 2.15625-16.371093 3.269531-24.894531 3.269531-52.578125.003907-95.351562-42.765625-95.351562-95.332031zm65.269531 236.890625c-22.019531-16.960937-37.265625-34.109375-44.324219-49.9375-6.125-13.730469-6.042969-26.195313.226562-36.050781 7.992188-12.554688 24.449219-15.148438 33.574219-15.582032.308594 5.65625-4.394531 7.398438-9.265625 8.585938-1.082031.265625-10.261718 4.09375-12.632812 13.523438-1.746094 6.929687.773437 14.328124 7.480468 21.996093 10.523438 12.023438 29.371094 24.675781 41.046876 31.929688-7.507813 7.304687-12.871094 17.804687-16.105469 25.535156zm30.089843-34.605469c-8.941406-5.304687-32.507812-19.898437-43.738281-32.738281-3.613281-4.125-4.554687-7.058594-4.230469-8.425781.230469-.984375 1.261719-1.898438 2.207032-2.515625 11.214844-.644531 20.152344-9.945313 20.152344-21.316407v-29.957031c8.21875 1.960938 16.789062 3.007813 25.601562 3.007813 8.734375 0 17.308594-1.015625 25.601562-2.976563v29.925781c0 11.382813 8.949219 20.691407 20.179688 21.316407.871094.574219 1.9375 1.46875 2.191406 2.484375.34375 1.363281-.585937 4.300781-4.222656 8.457031-11.234375 12.835937-34.800781 27.433594-43.742188 32.738281zm74.476563-15.332031c-7.0625 15.828125-22.304687 32.976563-44.324219 49.9375-3.234375-7.738281-8.609375-18.253906-16.128906-25.558594 11.679688-7.257812 30.5-19.894531 41.007812-31.90625 6.710938-7.667969 9.226563-15.066406 7.480469-22-2.371093-9.425781-11.585937-13.125-12.628906-13.519531-4.8125-1.800781-9.769531-1.871094-9.289063-8.589844 9.109376.417969 25.644532 2.992188 33.65625 15.582032 6.269532 9.859374 6.351563 22.324218.226563 36.054687zm-11.464844 77.789063h40.007813v12.003906h-40.007813zm0 0"/></svg>