<svg height="512" viewBox="0 0 64 64" width="512" xmlns="http://www.w3.org/2000/svg"><g id="_10-Transfusion" data-name="10-Transfusion"><path d="m12 4h22v2h-22z"/><path d="m36 4h2v2h-2z"/><path d="m40 4h12v2h-12z"/><path d="m32 50a1 1 0 0 1 -.287-.042l-17.15-5.145a4.968 4.968 0 0 1 -3.563-4.789v-30.024h2v30.024a2.98 2.98 0 0 0 2.138 2.876l16.862 5.056 16.862-5.056a2.98 2.98 0 0 0 2.138-2.876v-35.024a3 3 0 0 0 -3-3h-32a3 3 0 0 0 -3 3v3h-2v-3a5.006 5.006 0 0 1 5-5h32a5.006 5.006 0 0 1 5 5v35.024a4.968 4.968 0 0 1 -3.563 4.789l-17.15 5.145a1 1 0 0 1 -.287.042z"/><path d="m36 53h-8a1 1 0 0 1 -1-1v-4h2v3h6v-3h2v4a1 1 0 0 1 -1 1z"/><path d="m32 58a3 3 0 0 1 -3-3v-3h2v3a1 1 0 0 0 2 0v-3h2v3a3 3 0 0 1 -3 3z"/><path d="m46 40h-28a3 3 0 0 1 -3-3v-22a3 3 0 0 1 3-3h28a3 3 0 0 1 3 3v22a3 3 0 0 1 -3 3zm-28-26a1 1 0 0 0 -1 1v22a1 1 0 0 0 1 1h28a1 1 0 0 0 1-1v-22a1 1 0 0 0 -1-1z"/><path d="m60 31h-4a1 1 0 0 1 -1-1v-8a1 1 0 0 1 1-1h4a1 1 0 0 1 1 1v8a1 1 0 0 1 -1 1zm-3-2h2v-6h-2z"/><path d="m57 15h2v7h-2z"/><path d="m50 64h-14a5.006 5.006 0 0 1 -5-5v-2h2v2a3 3 0 0 0 3 3h14a7.008 7.008 0 0 0 7-7v-16h2v16a9.01 9.01 0 0 1 -9 9z"/><path d="m57 35h2v2h-2z"/><path d="m57 30h2v3h-2z"/><path d="m26 24h-2v-6h-2v6h-2v-7a1 1 0 0 1 1-1h4a1 1 0 0 1 1 1z"/><path d="m21 20h4v2h-4z"/><path d="m29 28h-13v-2h12v-13h2v14a1 1 0 0 1 -1 1z"/><path d="m32 17h2v2h-2z"/><path d="m36 17h9v2h-9z"/><path d="m32 21h13v2h-13z"/><path d="m19 30h2v2h-2z"/><path d="m23 30h22v2h-22z"/><path d="m19 34h26v2h-26z"/><path d="m29 26h19v2h-19z"/><path d="m12 17h4v2h-4z"/><path d="m48 17h4v2h-4z"/></g></svg>