<svg id="Computer_Interface" enable-background="new 0 0 128 128" viewBox="0 0 128 128" xmlns="http://www.w3.org/2000/svg"><g><path d="m100.75 22.75v86.5h-69.5c-2.21 0-4-1.79-4-4v-82.5c0-2.21 1.79-4 4-4h65.5c2.21 0 4 1.79 4 4z" fill="#373d44"/><g fill="#e5e7ea"><circle cx="34.51" cy="25.53" r="3"/><circle cx="34.01" cy="64" r="3"/><circle cx="93.99" cy="64" r="3"/><circle cx="93.49" cy="25.53" r="3"/></g><path d="m96 92.83v7.79c0 2.21-1.79 4-4 4h-56c-2.21 0-4-1.79-4-4v-23.83c0-2.21 1.79-4 4-4l10.25-.08 8.93.14c.94.01 1.82.43 2.48 1.1 0 0 .01.01.01.01l13.7 13.7c.75.75 1.77 1.17 2.83 1.17h17.8c2.21 0 4 1.79 4 4z" fill="#5ac0a6"/><path d="m57.67 73.96c-.36-.36-.79-.65-1.25-.85-1.39 3.1-2.64 5.73-3.23 6.56-.89 1.26-2.17 2.06-3.5 2.34 1.95.41 4.16-.44 5.5-2.34.52-.73 1.55-2.85 2.73-5.46z" fill="#57b59a"/><path d="m60.74 67.82c-.62-.1-1.24-.22-1.84-.37-.81 1.88-1.67 3.85-2.48 5.66.46.2.89.49 1.25.85l.25.25c.16-.36.33-.73.5-1.1.76-1.69 1.56-3.52 2.32-5.29z" fill="#2e3338"/><g><g><g><path d="m56.75 104.62v-7.62c0-.55-.45-1-1-1h-2c.55 0 1 .45 1 1v7.62z" fill="#57b59a"/></g><g><path d="m67.62 96h-2c.55 0 1 .45 1 1v7.62h2v-7.62c0-.55-.45-1-1-1z" fill="#57b59a"/></g></g></g><g><g><path d="m50.27 40.64c-.17 0-.34-.04-.49-.13-.48-.27-.65-.88-.37-1.36 2.99-5.25 8.58-8.5 14.6-8.5.55 0 1 .45 1 1s-.45 1-1 1c-5.3 0-10.23 2.87-12.86 7.49-.19.32-.53.5-.88.5z" fill="#e5e7ea"/></g></g><path d="m100.75 104.62v9.63h-47.25l-2.08-5-1.92-4.63v-7.62c0-.55.45-1 1-1h3.25c.55 0 1 .45 1 1v7.62h6.63v-7.62c0-.55.45-1 1-1h3.24c.55 0 1 .45 1 1v7.62z" fill="#4c545e"/><path d="m62.67 108.42h12.45v5.83h-12.45z" fill="#fdcc58"/><path d="m80.54 108.42h15.46v5.83h-15.46z" fill="#fdcc58"/><g><g><path d="m69.9 111.33v2.92h-2v-2.92c0-.55.44-1 1-1 .55 0 1 .45 1 1z" fill="#efbb54"/></g></g><g><g><path d="m66.85 111.33v2.92h-2v-2.92c0-.55.45-1 1-1 .56 0 1 .45 1 1z" fill="#efbb54"/></g></g><g><g><path d="m72.94 111.33v2.92h-2v-2.92c0-.55.45-1 1-1s1 .45 1 1z" fill="#efbb54"/></g></g><g><g><path d="m89.27 111.33v2.92h-2v-2.92c0-.55.45-1 1-1s1 .45 1 1z" fill="#efbb54"/></g></g><g><g><path d="m85.28 111.33v2.92h-2v-2.92c0-.55.45-1 1-1s1 .45 1 1z" fill="#efbb54"/></g></g><g><g><path d="m93.26 111.33v2.92h-2v-2.92c0-.55.45-1 1-1s1 .45 1 1z" fill="#efbb54"/></g></g><circle cx="64.02" cy="47.42" fill="#d9dadb" r="20.65"/><path d="m71.78 47.43c0 4.29-3.49 7.78-7.78 7.78s-7.78-3.49-7.78-7.78c0-4.3 3.49-7.79 7.78-7.79s7.78 3.49 7.78 7.79z" fill="#373d44"/><path d="m62.36 59.25c-.1.25-1.64 3.98-3.46 8.2-.81 1.88-1.67 3.85-2.48 5.66-1.39 3.1-2.64 5.73-3.23 6.56-1.74 2.46-4.93 3.19-7.14 1.64-2.21-1.56-2.6-4.82-.86-7.28.21-.29.6-.72 1.14-1.24 1.74-1.71 4.97-4.48 8.08-7.06 3.96-3.29 7.72-6.3 7.95-6.48z" fill="#fdcc58"/><path d="m61.35 61.67c-.63 1.51-1.5 3.57-2.45 5.78.6.15 1.22.27 1.84.37.05-.12.11-.25.16-.37 1.82-4.22 3.36-7.95 3.46-8.2-.13.1-1.31 1.05-3.01 2.42z" fill="#cecece"/></g></svg>