<svg height="512" viewBox="0 0 64 64" width="512" xmlns="http://www.w3.org/2000/svg"><g id="_11-X_Ray" data-name="11-X Ray"><path d="m59 55h-54a5.006 5.006 0 0 1 -5-5v-36a5.006 5.006 0 0 1 5-5h54a5.006 5.006 0 0 1 5 5v36a5.006 5.006 0 0 1 -5 5zm-54-44a3 3 0 0 0 -3 3v36a3 3 0 0 0 3 3h54a3 3 0 0 0 3-3v-36a3 3 0 0 0 -3-3z"/><path d="m4 19h2v2h-2z"/><path d="m59 43h-54a1 1 0 0 1 -1-1v-19h2v18h52v-2h2v3a1 1 0 0 1 -1 1z"/><path d="m60 37h-2v-22h-52v2h-2v-3a1 1 0 0 1 1-1h54a1 1 0 0 1 1 1z"/><path d="m13 51h-8a1 1 0 0 1 -1-1v-4a1 1 0 0 1 1-1h8a1 1 0 0 1 1 1v4a1 1 0 0 1 -1 1zm-7-2h6v-2h-6z"/><path d="m25 51h-8a1 1 0 0 1 -1-1v-4a1 1 0 0 1 1-1h8a1 1 0 0 1 1 1v4a1 1 0 0 1 -1 1zm-7-2h6v-2h-6z"/><path d="m57 51h-26a3 3 0 0 1 0-6h26a3 3 0 0 1 0 6zm-26-4a1 1 0 0 0 0 2h26a1 1 0 0 0 0-2z"/><path d="m43 46h2v4h-2z"/><path d="m13.007 42.707-1.414-1.414 9.472-9.472a5.034 5.034 0 1 1 9.178-2.06 5.033 5.033 0 1 1 -2.062 9.173l-3.774 3.773-1.414-1.414 4.41-4.41a1 1 0 0 1 1.414 0 3.034 3.034 0 1 0 0-4.286 1 1 0 1 1 -1.417-1.414 3.032 3.032 0 0 0 0-4.3 3.113 3.113 0 0 0 -4.286 0 3.032 3.032 0 0 0 0 4.3 1 1 0 0 1 0 1.414z"/><path d="m38.74 32a5.037 5.037 0 0 1 -4.983-5.759 5.033 5.033 0 1 1 2.062-9.173l3.774-3.773 1.414 1.414-4.41 4.41a1 1 0 0 1 -1.414 0 3.034 3.034 0 1 0 0 4.286 1 1 0 1 1 1.417 1.412 3.032 3.032 0 0 0 0 4.3 3.112 3.112 0 0 0 4.286 0 3.032 3.032 0 0 0 0-4.3 1 1 0 0 1 0-1.414l10.11-10.11 1.414 1.414-9.472 9.472a5.034 5.034 0 0 1 -4.198 7.821z"/><path d="m31.237 29.5h32.527v2h-32.527z" transform="matrix(.707 -.707 .707 .707 -7.654 42.521)"/><path d="m.237 24.5h32.527v2h-32.527z" transform="matrix(.707 -.707 .707 .707 -13.198 19.136)"/><path d="m8 17h2v2h-2z"/><path d="m12 17h6v2h-6z"/></g></svg>