<svg height="512pt" viewBox="-67 0 512 512.00108" width="512pt" xmlns="http://www.w3.org/2000/svg"><path d="m346.34375 243.011719c11.316406-6.308594 18.992188-18.394531 18.992188-32.242188 0-9.9375-3.953126-18.957031-10.359376-25.597656 21.042969-26.105469 27.722657-57.9375 19.296876-92.546875-5.214844-21.402344-14.730469-37.921875-19.007813-44.628906 3.855469-9.566406 14.007813-18.003906 17.945313-20.652344 5.144531-3.429688 3.988281-11.542969-1.914063-13.394531-44.058594-13.820313-76.777344 9.496093-88.886719 20.25-38.488281-29.3125-79.679687-39.859375-122.53125-31.34375-33.304687 6.617187-66.992187 24.597656-100.121094 53.4375-7.078124 6.164062 2.449219 17.757812 9.847657 11.3125 31.132812-27.101563 62.488281-43.9375 93.199219-50.039063 40.214843-7.988281 79.039062 2.910156 115.390624 32.394532 3.105469 2.515624 7.636719 2.160156 10.308594-.816407.285156-.316406 25.984375-28.359375 64.339844-23.886719-5.335938 5.640626-10.898438 13.253907-13.101562 22.066407-.535157 2.136719-.097657 4.402343 1.183593 6.195312.128907.179688 12.933594 18.253907 18.882813 43.105469 7.304687 30.511719 1.492187 57.414062-17.257813 80.058594-4.246093-1.761719-8.886719-2.753906-13.753906-2.800782v-26.097656c0-4.140625-3.355469-7.5-7.5-7.5-18.515625 0-21.695313-12.953125-21.980469-14.339844-1.058594-6.96875-10.496094-8.371093-13.898437-2.402343-25.921875 45.484375-85.289063 64.125-130.523438 71.753906-37.835937 6.382813-72.417969 6.328125-87.21875 5.910156 1.308594-11.640625 5.382813-34.5625 17.816407-50.265625 3.925781-4.960937.0625-12.449218-6.246094-12.148437-.355469.019531-33.539063 1.410156-61.160156-15.441407 4.964843-6.6875 13.992187-18.234374 26.210937-31.277343 6.414063-6.847657-4.242187-17.414063-10.949219-10.253907-20.035156 21.386719-31.59375 38.539063-32.078125 39.261719-2.226562 3.324219-1.453125 7.8125 1.761719 10.195313 21.6875 16.089844 47.523438 20.777344 63.078125 22.082031-13.058594 24.433594-13.988281 53.402344-14.027344 54.820313-.101562 4.023437 2.984375 7.410156 6.996094 7.679687.570313.039063 5.117187.332031 12.628906.46875 2.691407 17.714844 18.023438 31.332031 36.476563 31.332031h3.273437c8.976563 34.078125 33.863281 61.769532 66.207031 74.609375v34.738281c0 3.527344-2.867187 6.398438-6.394531 6.398438h-18.246093c-44.566407 0-80.824219 36.25-80.824219 80.808594v60.285156c0 4.144531 3.359375 7.5 7.5 7.5h277.226562c4.140625 0 7.5-3.355469 7.5-7.5v-60.285156c0-14.035156-3.65625-27.859375-10.574219-39.988282-4.652343-8.152343-17.890624-1.089843-13.027343 7.433594 5.628906 9.867188 8.601562 21.125 8.601562 32.554688v52.785156h-16.941406v-27.621094c0-4.140625-3.355469-7.5-7.5-7.5h-17.527344v-16.15625c0-4.140625-3.355469-7.5-7.5-7.5h-22.03125c-4.144531 0-7.5 3.359375-7.5 7.5v16.15625h-17.527343c-4.144532 0-7.5 3.359375-7.5 7.5v27.621094h-158.199219v-52.785156c0-34.066406 26.027343-62.167969 59.242187-65.480469 1.660156 6.128906 5.652344 16.355469 15 25.554687 6.742188 6.636719 17.328125-3.992187 10.523438-10.6875-5.316406-5.234374-8.265625-10.917968-9.878906-15.195312h9.179687c10.277344 0 18.882813-7.285156 20.929687-16.960938h52.230469c2.050781 9.675782 10.652344 16.960938 20.929688 16.960938h9.167969c-4.03125 10.777344-16.808594 30.539062-56.25 30.539062-9.1875 0-17.519532-1.074218-24.761719-3.195312-9.003907-2.644531-13.632813 11.632812-4.214844 14.394531 8.609375 2.523438 18.359375 3.800781 28.976563 3.800781 19.042968 0 45.167968-4.308593 61.496093-24.832031 6.085938-7.648437 8.988281-15.378906 10.339844-20.378906 10.363281 1.019531 20.316406 4.460937 29.101563 10.125 7.941406 5.121094 16.335937-7.316406 8.125-12.609375-13.039063-8.402344-28.160157-12.84375-43.738282-12.84375h-18.242187c-3.527344 0-6.398438-2.867188-6.398438-6.394531v-34.742188c32.34375-12.839843 57.234375-40.527343 66.207031-74.605469 2.046876.03125 4.144532.03125 6.179688-.125.296875 22.007813-7.605469 43.757813-22.078125 60.363282-2.675781-1.152344-5.621094-1.796875-8.710937-1.796875-12.15625 0-22.042969 9.886719-22.042969 22.039062 0 12.152344 9.886719 22.042969 22.042969 22.042969 12.152343 0 22.039062-9.890625 22.039062-22.042969 0-3.582031-.863281-6.964843-2.390625-9.960937 18.601563-21.128906 26.457031-47.425782 26.140625-75.171875zm-60.921875 210.210937h7.035156v17.046875h-7.035156zm-25.027344 23.65625h10.027344v.890625c0 4.144531 3.359375 7.5 7.5 7.5h22.035156c4.140625 0 7.5-3.355469 7.5-7.5v-.890625h10.027344v20.121094h-57.089844zm68.402344-257.332031v-30.664063c11.910156.195313 21.539063 9.933594 21.539063 21.886719 0 12.070313-9.824219 21.890625-21.898438 21.890625h-.421875c.511719-4.300781.78125-8.675781.78125-13.113281zm-220.191406 13.113281h-.421875c-.6875 0-1.363282-.035156-2.035156-.097656-8.785157-.8125-16.078126-6.835938-18.757813-14.941406-.140625-.421875-.269531-.84375-.382813-1.277344 6.179688-.09375 13.183594-.320312 20.816407-.757812v3.960937c0 4.4375.269531 8.8125.78125 13.113281zm135.351562 113.785156h-51.292969v-19.441406c8.234376 1.964844 16.820313 3.011719 25.648438 3.011719 8.824219 0 17.410156-1.046875 25.644531-3.011719zm-25.644531-31.429687c-52.652344 0-95.488281-42.828125-95.488281-95.46875v-5.054687c10.742187-.953126 22.308593-2.34375 34.269531-4.351563 30.59375-5.136719 57.328125-13.273437 79.457031-24.1875 23.367188-11.523437 41.664063-26.191406 54.570313-43.714844 4.628906 5.6875 11.90625 10.84375 22.675781 12.5v64.808594c0 52.640625-42.835937 95.46875-95.484375 95.46875zm75.199219 13.125c0-3.878906 3.160156-7.039063 7.042969-7.039063 3.882812 0 7.042968 3.160157 7.042968 7.039063 0 3.882813-3.160156 7.042969-7.042968 7.042969-3.882813 0-7.042969-3.160156-7.042969-7.042969zm0 0"/><path d="m218.277344 439.777344c-9.652344 0-9.667969 15 0 15 9.652344 0 9.667968-15 0-15zm0 0"/><path d="m218.277344 482.777344c9.652344 0 9.667968-15 0-15-9.652344 0-9.667969 15 0 15zm0 0"/></svg>