<svg height="512" viewBox="0 0 88 88" width="512" xmlns="http://www.w3.org/2000/svg"><g id="Medal"><path d="m29.8242 65.7173a1 1 0 0 0 -.9242-.6173h-.14a5.27 5.27 0 0 1 -5.0391-3.5894l-1.3623-4.187a7.1681 7.1681 0 0 0 -2.6348-3.5752l-1.5693-1.13a.9974.9974 0 0 0 -1.291.1044l-15.5705 15.5702a1 1 0 0 0 .707 1.707h11v11a1 1 0 0 0 1.707.707l14.9-14.9a.9986.9986 0 0 0 .2172-1.0897z" fill="#4294ff"/><path d="m86.707 68.293-15.57-15.57a1 1 0 0 0 -1.291-.1044l-1.5693 1.13a7.1783 7.1783 0 0 0 -2.6377 3.5821l-1.3594 4.1762a5.2683 5.2683 0 0 1 -5.0396 3.5931h-.14a1 1 0 0 0 -.707 1.707l14.9 14.9a1 1 0 0 0 1.707-.707v-11h11a1 1 0 0 0 .707-1.707z" fill="#4294ff"/><path d="m73.4 54.98-2.78 2.01a3.2286 3.2286 0 0 0 -1.18 1.6l-1.36 4.16a9.2176 9.2176 0 0 1 -7.5 6.25l-2.19-2.19a1.0023 1.0023 0 0 1 -.21-1.09.9873.9873 0 0 1 .92-.62h.14a5.2656 5.2656 0 0 0 5.04-3.59l1.36-4.18a7.1058 7.1058 0 0 1 2.64-3.58l1.57-1.13a1.0024 1.0024 0 0 1 1.29.1z" fill="#2965ed"/><path d="m14.6 54.98 2.78 2.01a3.2286 3.2286 0 0 1 1.18 1.6l1.36 4.16a9.2176 9.2176 0 0 0 7.5 6.25l2.19-2.19a1.0023 1.0023 0 0 0 .21-1.09.9873.9873 0 0 0 -.92-.62h-.14a5.2656 5.2656 0 0 1 -5.04-3.59l-1.36-4.18a7.1058 7.1058 0 0 0 -2.64-3.58l-1.57-1.13a1.0024 1.0024 0 0 0 -1.29.1z" fill="#2965ed"/><path d="m74.2607 40.5776a5.0385 5.0385 0 0 1 0-3.1552l1.3887-4.2437a7.086 7.086 0 0 0 -2.626-7.9687l-3.581-2.5835a5.1408 5.1408 0 0 1 -1.8985-2.58l-1.3662-4.1765a7.2563 7.2563 0 0 0 -6.94-4.9712h-4.2977a5.4206 5.4206 0 0 1 -3.15-1.0107l-3.461-2.4976a7.3884 7.3884 0 0 0 -8.6562 0l-3.455 2.4928a5.4548 5.4548 0 0 1 -3.167 1.0156h-4.2881a7.2563 7.2563 0 0 0 -6.94 4.9712l-1.3662 4.1768a5.1417 5.1417 0 0 1 -1.8985 2.58l-3.5814 2.5831a7.086 7.086 0 0 0 -2.626 7.9687l1.3887 4.2437a5.0385 5.0385 0 0 1 0 3.1552l-1.3887 4.2437a7.085 7.085 0 0 0 2.626 7.9683l3.581 2.5839a5.1366 5.1366 0 0 1 1.8985 2.58l1.3662 4.1765a7.2563 7.2563 0 0 0 6.94 4.9712h4.2978a5.4206 5.4206 0 0 1 3.15 1.0107l3.461 2.4976a7.3863 7.3863 0 0 0 8.6562 0l3.461-2.4976a5.4206 5.4206 0 0 1 3.15-1.0107h4.2978a7.2567 7.2567 0 0 0 6.94-4.9717l1.3639-4.1632a5.1874 5.1874 0 0 1 1.9141-2.6011l3.5693-2.5752a7.085 7.085 0 0 0 2.626-7.9683z" fill="#e6ecff"/><circle cx="44" cy="39" fill="#4294ff" r="23"/><path d="m59.8945 34.3882a1 1 0 0 0 -.81-.6831l-9.8067-1.4038-4.3828-8.7491a1.042 1.042 0 0 0 -1.789 0l-4.3828 8.7491-9.8072 1.4038a.9994.9994 0 0 0 -.5508 1.7109l7.0879 6.8062-1.6731 9.6064a1 1 0 0 0 1.4453 1.06l8.7747-4.5458 8.7744 4.5454a1 1 0 0 0 1.4453-1.06l-1.6728-9.6064 7.0879-6.8062a.999.999 0 0 0 .2597-1.0274z" fill="#376cfb"/></g></svg>