<svg enable-background="new 0 0 128 128" height="512" viewBox="0 0 128 128" width="512" xmlns="http://www.w3.org/2000/svg"><g id="Layer_14"><g fill="#6699d1"><path d="m34 18.75v4h-11.25v11.25h-4v-15.25z"/><path d="m109.25 18.75v15.25h-4v-11.25h-11.25v-4z"/><path d="m109.25 94.13v15.26h-15.25v-4h11.25v-11.26z"/><path d="m34 105.39v4h-15.25v-15.26h4v11.26z"/></g><g fill="#d9dadb"><path d="m59.8 70.21c-.37 1.44-.84 2.92-1.39 4.41-.19.52.07 1.09.59 1.29.11.04.23.06.35.06.41 0 .79-.25.94-.65.58-1.55 1.06-3.1 1.45-4.61.41-1.58.73-3.2.96-4.81.32-2.16.48-4.39.48-6.64 0-.75.61-1.36 1.36-1.36s1.36.61 1.36 1.36c0 2.26-.16 4.52-.46 6.69-.08.55.3 1.05.85 1.13.05.01.09.01.14.01s.09-.02.14-.03c.06-.01.11-.01.16-.03.07-.02.13-.06.19-.09.05-.03.09-.05.13-.08.06-.05.11-.11.16-.18.03-.03.06-.06.08-.1.06-.11.11-.23.13-.36.32-2.27.48-4.61.48-6.97 0-1.85-1.51-3.36-3.36-3.36s-3.36 1.51-3.36 3.36c0 .6-.02 1.2-.04 1.8-.02.47-.04.94-.08 1.41-.08 1.06-.19 2.11-.35 3.14-.21 1.55-.52 3.1-.91 4.61z"/><path d="m57.75 89.65c1.03-1.36 2.01-2.81 2.91-4.3.89-1.47 1.7-2.99 2.42-4.52.71-1.5 1.36-3.08 1.94-4.7.57-1.6 1.05-3.24 1.44-4.85.13-.54-.2-1.08-.74-1.21-.53-.12-1.08.2-1.21.74-.37 1.55-.83 3.11-1.38 4.65-.55 1.56-1.18 3.08-1.86 4.52-.69 1.47-1.47 2.93-2.32 4.34-.87 1.43-1.81 2.82-2.8 4.13-1 1.33-2.09 2.63-3.24 3.88-1.02 1.1-2.11 2.17-3.25 3.19-.93-.39-1.84-.81-2.72-1.25.93-.79 1.83-1.62 2.69-2.47 1.21-1.21 2.34-2.47 3.37-3.75 1.02-1.26 2-2.61 2.9-4.02.88-1.36 1.7-2.79 2.43-4.26.25-.49.05-1.09-.45-1.34-.49-.25-1.09-.05-1.34.45-.7 1.4-1.48 2.77-2.32 4.07-.87 1.35-1.8 2.64-2.77 3.84-.98 1.22-2.07 2.43-3.23 3.59s-2.41 2.26-3.7 3.28c-.26.21-.4.53-.38.86.03.33.22.63.51.79 1.51.84 3.14 1.61 4.83 2.29.12.05.25.07.37.07.24 0 .47-.08.66-.25 1.36-1.19 2.66-2.45 3.86-3.74 1.21-1.29 2.35-2.64 3.38-4.03z"/><path d="m36.56 70.36c1.95-3.36 2.98-7.19 2.98-11.1 0-3.64.76-7.14 2.27-10.41.23-.5.01-1.1-.49-1.33s-1.1-.01-1.33.49c-1.63 3.53-2.46 7.31-2.46 11.25 0 3.55-.94 7.04-2.71 10.1-.85 1.49-1.91 2.88-3.15 4.14-.82.84-1.72 1.6-2.67 2.28-.4-.85-.77-1.72-1.1-2.58 1.28-.97 2.42-2.12 3.39-3.41 2.3-3.06 3.51-6.7 3.51-10.52 0-.55-.45-1-1-1s-1 .45-1 1c0 3.38-1.08 6.61-3.11 9.32-1 1.33-2.19 2.48-3.56 3.42-.37.26-.53.73-.37 1.16.54 1.52 1.2 3.04 1.95 4.52.13.25.35.44.62.51.09.02.18.04.27.04.19 0 .37-.05.53-.15 1.43-.89 2.77-1.97 3.96-3.19 1.38-1.37 2.54-2.9 3.47-4.54z"/><path d="m50.3 36.33c-1.38.85-2.69 1.85-3.92 2.97-.01.01-.01.02-.02.03 0 0-.01 0-.01.01-1.23 1.1-2.37 2.36-3.4 3.74-.33.44-.24 1.07.2 1.4.18.13.39.2.6.2.3 0 .6-.14.8-.4.96-1.29 2.03-2.46 3.18-3.49.01-.01.01-.02.02-.02 1.13-1.03 2.35-1.96 3.62-2.74 1.29-.8 2.66-1.5 4.08-2.06 1.48-.58 3.01-1.01 4.55-1.3 1.5-.28 3.03-.42 4.55-.42.14 0 .27 0 .45.01 1.83.03 3.66.26 5.44.7 2.07.5 4.07 1.27 5.93 2.27 2.38 1.28 4.53 2.93 6.38 4.91 4.22 4.47 6.64 10.31 6.8 16.45.01.22.01.44.01.66s0 .44-.01.69c-.02 2.87-.22 5.77-.59 8.61-.07.55.32 1.05.86 1.12.04.01.09.01.13.01.5 0 .93-.37.99-.87.38-2.92.58-5.9.6-8.82.01-.24.01-.49.01-.73s0-.49-.01-.72c-.17-6.63-2.78-12.94-7.34-17.76-2-2.14-4.31-3.92-6.89-5.3-2.01-1.09-4.16-1.91-6.4-2.46-1.93-.47-3.91-.72-5.85-.75-1.83-.09-3.65.11-5.43.44-1.67.3-3.32.78-4.92 1.4-1.54.61-3.02 1.36-4.41 2.22z"/><path d="m95.09 64.68c-.54-.05-1.03.36-1.08.92-.44 5.36-1.44 10.69-2.99 15.82-.99 3.32-2.22 6.57-3.64 9.67-1.39 1-2.85 1.92-4.38 2.73.83-1.57 1.6-3.17 2.31-4.79 1.32-2.98 2.46-6.13 3.39-9.36.03-.09.04-.19.04-.28 0-.55-.45-1-1-1-.46 0-.86.32-.97.75-.9 3.13-2.01 6.19-3.29 9.09-1.1 2.51-2.36 4.99-3.75 7.37-.22.37-.17.85.12 1.17.19.22.47.33.75.33.14 0 .27-.03.4-.08 2.75-1.21 5.37-2.71 7.78-4.47.14-.1.25-.23.32-.39 1.51-3.25 2.8-6.68 3.85-10.17 1.59-5.26 2.62-10.72 3.07-16.23.03-.55-.38-1.04-.93-1.08z"/><path d="m94.27 58.46c.02.54.46.97 1 .97h.03c.55-.02.99-.48.97-1.03-.15-5.52-1.75-10.92-4.62-15.61-.29-.47-.9-.62-1.38-.33-.47.29-.62.9-.33 1.38 2.69 4.39 4.18 9.45 4.33 14.62z"/><path d="m62.23 29.62c1.9-.13 3.63-.11 5.51.08 2.01.22 4.01.64 5.95 1.27 2.19.71 4.31 1.68 6.31 2.91.03.02.06.05.1.07 2.58 1.58 4.9 3.55 6.89 5.85.2.23.48.35.76.35.23 0 .47-.08.66-.24.42-.36.46-.99.1-1.41-2.1-2.42-4.54-4.5-7.26-6.18-.03-.02-.06-.05-.1-.07-2.16-1.33-4.47-2.4-6.84-3.17-2.07-.67-4.21-1.13-6.36-1.36-2-.2-3.84-.23-5.85-.09-.55.04-.97.52-.93 1.07.03.54.5.95 1.06.92z"/><path d="m35.35 49.6c.11.04.23.06.35.06.41 0 .79-.25.94-.65.62-1.66 1.39-3.28 2.3-4.82.8-1.35 1.72-2.66 2.75-3.9.96-1.17 2.04-2.28 3.2-3.3 1.14-1.01 2.37-1.94 3.65-2.76 1.31-.84 2.69-1.58 4.11-2.21 1.49-.65 3.03-1.18 4.57-1.58.54-.14.86-.68.72-1.22s-.68-.86-1.22-.72c-1.64.42-3.28.99-4.88 1.69-1.52.67-2.99 1.46-4.38 2.36-1.37.88-2.68 1.87-3.9 2.94-1.24 1.09-2.39 2.28-3.42 3.52-1.09 1.31-2.08 2.71-2.93 4.16-.97 1.64-1.79 3.37-2.45 5.14-.19.52.07 1.1.59 1.29z"/><path d="m48.75 85.78c1.05-1.24 2.02-2.55 2.91-3.88.91-1.38 1.73-2.8 2.43-4.2.75-1.48 1.4-3.01 1.95-4.52.59-1.64 1.08-3.33 1.45-5.04.12-.54-.23-1.07-.77-1.19s-1.07.23-1.19.77c-.35 1.62-.81 3.22-1.37 4.78-.52 1.44-1.14 2.89-1.85 4.3-.67 1.33-1.44 2.68-2.31 3.99-.84 1.27-1.77 2.52-2.77 3.7-.99 1.18-2.08 2.32-3.23 3.4-1 .93-2.04 1.81-3.09 2.61-.74-.56-1.46-1.15-2.18-1.78.99-.73 1.94-1.5 2.84-2.31 1.24-1.1 2.38-2.27 3.4-3.48 1.07-1.26 2.06-2.57 2.92-3.91.02-.03.02-.06.04-.09.03-.05.05-.1.06-.16.02-.07.04-.14.04-.21 0-.03.02-.05.02-.08 0-.04-.02-.07-.02-.1-.01-.06-.02-.12-.04-.18-.02-.07-.05-.14-.09-.2-.02-.04-.05-.08-.08-.12-.05-.07-.12-.13-.19-.18-.02-.01-.03-.03-.05-.05-.02-.01-.03-.01-.05-.02-.08-.05-.16-.08-.26-.1-.04-.01-.08-.02-.12-.02-.04-.01-.08-.02-.12-.02-.05 0-.1.02-.15.03-.04.01-.08.01-.12.02-.09.02-.17.06-.24.1-.03.02-.07.04-.1.07-.07.05-.13.12-.18.19-.02.02-.04.03-.05.06-.81 1.26-1.74 2.5-2.76 3.69-.96 1.14-2.04 2.24-3.22 3.28-1.14 1.03-2.38 1.99-3.67 2.87-.25.17-.41.45-.44.75s.09.6.31.81c1.24 1.16 2.54 2.24 3.87 3.2.18.13.38.19.59.19s.41-.06.59-.19c1.32-.96 2.63-2.04 3.87-3.2 1.24-1.14 2.38-2.34 3.42-3.58z"/><path d="m63.71 94.12c-1.05 1.41-2.19 2.78-3.39 4.1-1.09-.12-2.18-.28-3.26-.49.87-.9 1.72-1.84 2.55-2.82 1.2-1.42 2.33-2.92 3.37-4.44 1.04-1.53 2.02-3.12 2.9-4.73.87-1.59 1.69-3.27 2.42-5.01.75-1.77 1.4-3.56 1.92-5.32.59-1.9 1.08-3.88 1.45-5.87.62-3.26.94-6.6.95-9.85.01-.14.01-.28.01-.43s0-.29-.01-.41c-.18-3.49-2.56-6.45-5.92-7.38-1.74-.5-3.72-.36-5.4.38-2.95 1.28-4.86 4.19-4.86 7.41 0 .55.45 1 1 1s1-.45 1-1c0-2.42 1.43-4.61 3.66-5.58 1.27-.56 2.74-.67 4.06-.29 2.53.7 4.33 2.93 4.46 5.57.01.1.01.19.01.3s0 .2-.01.36c-.01 3.19-.32 6.41-.92 9.55-.36 1.92-.82 3.82-1.39 5.66-.51 1.7-1.13 3.42-1.85 5.12-.7 1.67-1.49 3.3-2.33 4.83-.85 1.56-1.79 3.09-2.8 4.56-1 1.46-2.09 2.9-3.25 4.27-1.2 1.41-2.45 2.75-3.72 3.98-.26.25-.36.63-.27.98.1.35.37.62.73.71 1.91.47 3.86.8 5.8.98h.09c.28 0 .54-.12.73-.32 1.37-1.48 2.66-3.03 3.86-4.63.33-.44.24-1.07-.2-1.4-.43-.32-1.06-.23-1.39.21z"/><path d="m72.11 78.42c-.01.02-.02.05-.02.07-.66 1.89-1.44 3.77-2.32 5.62-.81 1.73-1.75 3.47-2.79 5.2-.29.47-.13 1.09.34 1.37.16.1.34.14.52.14.34 0 .67-.17.86-.48 1.07-1.78 2.04-3.59 2.88-5.37.92-1.93 1.74-3.9 2.42-5.88.01-.02.01-.04.02-.06.78-2.21 1.42-4.46 1.91-6.69.95-4.27 1.43-8.67 1.43-13.07 0-4.5-2.3-8.59-6.15-10.95-1.73-1.06-3.63-1.67-5.65-1.83-.33-.03-.67-.04-1.02-.04-.55 0-1 .45-1 1s.45 1 1 1c.3 0 .59.02.87.04 1.7.13 3.3.65 4.76 1.54 3.25 1.99 5.19 5.44 5.19 9.24 0 4.26-.47 8.51-1.39 12.64-.47 2.17-1.1 4.36-1.86 6.51z"/><path d="m60.45 47.12c-1.7.57-3.3 1.52-4.63 2.75-2.61 2.43-4.1 5.85-4.1 9.39 0 3.28-.46 6.52-1.38 9.64-.49 1.69-1.11 3.33-1.83 4.87-.24.5-.02 1.1.48 1.33.14.06.28.1.43.1.38 0 .73-.21.91-.57.77-1.64 1.43-3.38 1.95-5.16.97-3.3 1.46-6.73 1.46-10.2 0-2.99 1.26-5.88 3.46-7.93 1.12-1.04 2.47-1.84 3.9-2.32.52-.18.81-.74.63-1.27-.19-.53-.75-.81-1.28-.63z"/><path d="m41.67 79.51c1.09-1.32 2.08-2.72 2.93-4.16.97-1.64 1.79-3.37 2.45-5.14 1.29-3.52 1.95-7.2 1.95-10.95 0-3.38 1.08-6.61 3.11-9.32.33-.44.24-1.07-.2-1.4s-1.07-.24-1.4.2c-2.3 3.06-3.51 6.7-3.51 10.52 0 3.51-.61 6.96-1.82 10.25-.62 1.66-1.39 3.28-2.3 4.82-.79 1.35-1.72 2.66-2.75 3.9-.97 1.17-2.04 2.28-3.2 3.3-.92.82-1.9 1.58-2.91 2.27-.57-.71-1.12-1.44-1.63-2.18 1.06-.72 2.08-1.52 3.04-2.4 1.25-1.13 2.4-2.4 3.44-3.78.33-.44.24-1.07-.2-1.4s-1.07-.24-1.4.2c-.96 1.28-2.03 2.46-3.18 3.5-1.14 1.04-2.36 1.96-3.63 2.75-.23.14-.39.37-.45.64-.06.26-.01.54.14.77.89 1.34 1.86 2.65 2.91 3.88.2.23.48.36.77.36.19 0 .37-.05.54-.16 1.37-.87 2.68-1.87 3.9-2.94 1.22-1.1 2.37-2.29 3.4-3.53z"/><path d="m81.09 60.26c.55 0 1-.45 1-1 0-5.31-2.37-10.28-6.51-13.63-1.79-1.46-3.82-2.53-6.03-3.18-1.63-.49-3.31-.74-5.01-.74-.19 0-.37 0-.49.02-1.73.04-3.42.34-5.02.88-1.61.53-3.13 1.29-4.52 2.27-.45.32-.56.94-.24 1.39s.94.56 1.39.24c1.23-.86 2.57-1.54 4-2.01 1.41-.48 2.9-.74 4.51-.78.1-.01.19-.01.29-.01 1.49-.02 3.05.21 4.52.65 1.96.58 3.75 1.53 5.34 2.82 3.67 2.97 5.77 7.37 5.77 12.08 0 .55.45 1 1 1z"/><path d="m81.57 85.76c1.14-2.72 2.1-5.56 2.87-8.43 1.58-5.85 2.38-11.92 2.38-18.06 0-6.11-2.43-11.8-6.84-16.03-.02-.03-.04-.05-.07-.08-1.86-1.79-4-3.22-6.35-4.25-.03-.02-.07-.04-.11-.05-1.91-.84-3.91-1.39-5.93-1.66-1.71-.25-3.55-.28-5.45-.07-.55.06-.94.56-.88 1.1.06.55.57.94 1.1.88 1.74-.19 3.4-.16 4.96.06 1.81.24 3.59.73 5.3 1.46.04.02.07.04.11.05 2.14.93 4.09 2.22 5.8 3.84.02.03.05.05.08.08 4.06 3.85 6.29 9.06 6.29 14.65 0 5.96-.78 11.86-2.32 17.54-.75 2.81-1.69 5.58-2.81 8.24-.01.02-.02.05-.03.08-.96 2.31-2.05 4.58-3.25 6.74-.01.02-.03.05-.04.08-1.08 1.94-2.25 3.83-3.49 5.62-1.25.28-2.53.49-3.82.64.83-1.11 1.64-2.26 2.42-3.45 1.23-1.88 2.37-3.82 3.39-5.78 1.09-2.11 2.06-4.27 2.89-6.43.96-2.47 1.78-5.04 2.42-7.65 0-.02.01-.04.01-.06.38-1.51.7-3.05.96-4.57.09-.54-.27-1.06-.82-1.15-.54-.1-1.06.27-1.15.82-.26 1.49-.57 2.99-.94 4.47 0 .02-.01.04-.01.06-.62 2.5-1.4 4.98-2.33 7.36-.8 2.09-1.75 4.19-2.8 6.23-.98 1.9-2.08 3.78-3.28 5.6-1.18 1.8-2.43 3.51-3.73 5.1-.25.31-.3.73-.12 1.09.17.34.52.55.89.55h.06c2.3-.13 4.59-.45 6.79-.96.24-.06.45-.2.59-.4 1.38-1.96 2.68-4.04 3.86-6.18.01-.02.03-.05.04-.07 1.23-2.22 2.36-4.56 3.34-6.94 0-.03.01-.05.02-.07z"/><path d="m58.4 38.88c-.18-.52-.76-.8-1.27-.61-1.55.54-3.05 1.28-4.45 2.17-1.43.89-2.77 1.97-3.96 3.19-1.36 1.38-2.52 2.91-3.46 4.54-1.95 3.36-2.98 7.19-2.98 11.1 0 3.64-.76 7.14-2.27 10.41-.23.5-.01 1.1.49 1.33.14.06.28.09.42.09.38 0 .74-.22.91-.58 1.63-3.53 2.46-7.31 2.46-11.25 0-3.55.94-7.04 2.71-10.1.85-1.49 1.91-2.88 3.15-4.14 1.09-1.11 2.3-2.08 3.6-2.9 1.28-.81 2.64-1.48 4.05-1.97.51-.19.78-.76.6-1.28z"/></g></g></svg>