<svg height="512" viewBox="0 0 88 88" width="512" xmlns="http://www.w3.org/2000/svg"><g id="Megaphone"><path d="m34.94 61a1 1 0 0 1 -.9306-.6338l-3.94-10a1.0008 1.0008 0 0 1 .9306-1.3662h8a1 1 0 0 1 .9287.6289l1.0068 2.5166a6.4567 6.4567 0 0 1 -5.9955 8.8545zm-2.4712-10 3.1337 7.9531a4.46 4.46 0 0 0 3.4756-6.0654l-.7549-1.8877z" fill="#376cfb"/><path d="m41.21 53h-2.09c-.01-.04-.03-.07-.04-.11l-.76-1.89h2.16l.46 1.15a6.4507 6.4507 0 0 1 .27.85z" fill="#2045ce"/><path d="m54 72h-13.2588l-8.81-22.3662a.9994.9994 0 0 0 -.9312-.6338h-12a1.0008 1.0008 0 0 0 -.9307 1.3662l13 33a.9994.9994 0 0 0 .9307.6338h22a1 1 0 0 0 1-1v-10a1 1 0 0 0 -1-1z" fill="#4294ff"/><path d="m66 22a1 1 0 0 0 -1 1v20a1 1 0 0 0 1 1 11 11 0 0 0 0-22z" fill="#376cfb"/><path d="m33.26 53h-14.15l-1.04-2.63a1.0206 1.0206 0 0 1 .1-.93.9986.9986 0 0 1 .83-.44h12a1 1 0 0 1 .93.63z" fill="#2965ed"/><path d="m56 6a1 1 0 0 0 -1 1 8.0092 8.0092 0 0 1 -8 8h-28a18 18 0 0 0 0 36h28a8.0092 8.0092 0 0 1 8 8 1 1 0 0 0 2 0v-52a1 1 0 0 0 -1-1z" fill="#e6ecff"/><g fill="#376cfb"><path d="m86 34h-6a1 1 0 0 1 0-2h6a1 1 0 0 1 0 2z"/><path d="m79.1426 27.5146a1 1 0 0 1 .3428-1.372l5-3a1 1 0 1 1 1.0292 1.7148l-5 3a1 1 0 0 1 -1.372-.3428z"/><path d="m84.4854 42.8574-5-3a1 1 0 0 1 1.0292-1.7148l5 3a1 1 0 1 1 -1.0292 1.7148z"/></g><path d="m21 15v36h-2a18 18 0 0 1 0-36z" fill="#4294ff"/><rect fill="#4294ff" height="58" rx="1" width="12" x="55" y="4"/></g></svg>