<svg height="512pt" viewBox="-104 0 512 512.001" width="512pt" xmlns="http://www.w3.org/2000/svg"><path d="m202.140625 318.664062h7.683594c9.015625 0 16.800781-5.328124 20.386719-13h22.683593c14.839844 0 26.910157-12.070312 26.910157-26.90625v-34.90625c11.371093-6.269531 19.09375-18.375 19.09375-32.25 0-8.683593-3.027344-16.667968-8.078126-22.964843 4.375-27.332031.558594-55.773438-11.035156-80.917969 15.609375-11.15625 24.804688-28.894531 24.804688-48.296875 0-32.765625-26.65625-59.421875-59.421875-59.421875-22.132813 0-42.484375 12.554688-52.640625 31.855469-26.097656-7.828125-54.359375-7.796875-80.460938 0-10.1875-19.523438-30.265625-31.855469-52.644531-31.855469-32.765625 0-59.421875 26.65625-59.421875 59.417969 0 19.175781 9.359375 37.179687 24.765625 48.273437-11.558594 25.140625-15.375 53.609375-11.003906 80.925782-5.058594 6.304687-8.09375 14.292968-8.09375 22.984374 0 20.292969 16.511719 36.800782 36.804687 36.800782h3.253906c8.953126 33.980468 33.769532 61.589844 66.015626 74.394531v34.636719c0 3.855468-2.949219 6.078125-6.363282 6.078125-22.121094 0-43.917968 1.195312-62.894531 13.816406-22.277344 14.820313-35.902344 40.304687-35.902344 67.066406v60.117188c0 4.136719 3.351563 7.488281 7.488281 7.488281h69.320313c9.371094 0 9.796875-14.980469 0-14.980469h-8.988281v-54.117187c0-28.085938-9.917969-47.324219-16.644532-57.144532 3.234376-1.621093 6.628907-3.003906 10.179688-4.113281 5.101562-1.59375 15.257812-2.421875 24.078125-2.820312-5.628906 12.839843-7.523437 30.152343 7.332031 43.65625 18.550782 16.867187 40.386719 8.027343 52.949219-1.605469 12.5625 9.632812 34.394531 18.472656 52.949219 1.605469 14.726562-13.386719 12.988281-30.511719 7.476562-43.320313 10.304688.640625 21.125 1.640625 25.257813 2.910156 3.191406.980469 6.261719 2.21875 9.199219 3.675782-6.722657 9.660156-16.988282 29.089844-16.988282 57.65625v53.617187h-107.855468c-9.371094 0-9.796876 14.980469 0 14.980469h168.167968c4.136719 0 7.488282-3.351562 7.488282-7.488281v-60.117188c0-35.074219-22.871094-66.59375-55.617188-76.644531-9.675781-2.96875-37.246094-4.03125-42.742188-4.214844-3.386718-.1875-6.804687-1.839844-6.804687-6.101562v-34.578125c3.164063-1.25 6.273437-2.644531 9.3125-4.191407zm-142.71875 124.238282v54.117187h-37.863281v-52.625c0-20.003906 8.953125-38.246093 23.671875-50.449219 5.390625 7.769532 14.191406 24.238282 14.191406 48.957032zm223.585937 1.492187v52.625h-37.839843v-53.617187c0-25.292969 9.132812-41.871094 14.503906-49.433594 14.375 12.128906 23.335937 30.566406 23.335937 50.425781zm-90.1875-140.707031c-9.398437 0-9.828124-15.027344 0-15.027344h17.003907c9.398437 0 9.828125 15.027344 0 15.027344zm69.277344-70.265625h-.414062c.519531-4.332031.78125-8.695313.78125-13.066406v-30.566407c11.699218.199219 21.457031 10.117188 21.457031 21.8125 0 12.03125-9.792969 21.820313-21.824219 21.820313zm-16.929687-218.441406c24.507812 0 44.441406 19.933593 44.441406 44.4375 0 13.816406-6.238281 26.5-16.910156 34.890625-15.257813-25.429688-38.335938-45.65625-65.890625-57.320313 7.886718-13.398437 22.507812-22.007812 38.359375-22.007812zm-230.1875 44.4375c0-24.503907 19.933593-44.4375 44.441406-44.4375 16.027344 0 30.480469 8.453125 38.371094 21.992187-6.300781 2.65625-12.417969 5.757813-18.296875 9.332032-8.007813 4.871093-.589844 17.890624 7.785156 12.800781 19.535156-11.882813 42.019531-18.160157 65.015625-18.160157 69.105469 0 125.328125 56.222657 125.328125 125.332032 0 3.914062-.183594 7.832031-.546875 11.722656-4.472656-2-9.414063-3.136719-14.613281-3.1875v-16.027344c0-4.136718-3.351563-7.488281-7.488282-7.488281h-47.992187l-13.191406-36.5c-1.066407-2.945313-3.851563-4.917969-6.980469-4.941406-3.175781-.023438-5.949219 1.894531-7.0625 4.820312l-14.132812 37.097657-115.992188-.476563c-1.957031-.015625-3.90625.777344-5.316406 2.183594s-2.207032 3.316406-2.207032 5.304687v16.027344c-5.191406.050781-10.125 1.183594-14.589843 3.179688-.363281-3.886719-.546875-7.804688-.546875-11.714844 0-31.984375 12.046875-62.4375 33.921875-85.746094 6.414062-6.835938-4.214844-17.394531-10.921875-10.25-6.945313 7.394531-13 15.433594-18.117188 23.972656-10.527344-8.367187-16.867187-21.199218-16.867187-34.835937zm5.667969 152.183593c0-11.90625 9.589843-21.613281 21.453124-21.8125v30.566407c0 4.421875.269532 8.777343.777344 13.066406h-.40625c-12.035156 0-21.824218-9.789063-21.824218-21.820313zm36.433593 8.753907v-54.050781l113.65625.46875h.03125c3.105469 0 5.890625-1.917969 7-4.820313l8.792969-23.089844 8.121094 22.46875c1.074218 2.964844 3.890625 4.941407 7.042968 4.941407h45.757813v54.082031c0 15.464843-3.589844 30.210937-10.667969 43.828125-4.320312 8.316406 8.773438 15.605468 13.292969 6.910156 3.742187-7.199219 6.65625-14.828125 8.71875-22.691406 1.984375.027344 4.019531.03125 5.996094-.113282v30.464844c0 6.578125-5.351563 11.929688-11.929688 11.929688h-20.480469c-.324218-1.191406-.945312-2.316406-1.867187-3.257813-3.417969-8.070312-11.421875-13.746093-20.722656-13.746093h-17.007813c-12.402344 0-22.492187 10.089843-22.492187 22.492187 0 6.3125 2.617187 12.019531 6.816406 16.109375-8.003906 2.148438-16.34375 3.261719-24.859375 3.261719-52.492188 0-95.199219-42.699219-95.199219-95.1875zm52.339844 191.039062c-10.164063-9.238281-6.394531-21.496093-2.488281-28.980469l33.601562 28.402344c-7.507812 5.011719-20.199218 10.496094-31.113281.578125zm85.746094 0c-10.917969 9.925781-23.613281 4.429688-31.117188-.582031l33.597657-28.410156c3.914062 7.492187 7.683593 19.75-2.480469 28.992187zm-10.097657-37.96875-32.777343 27.710938-32.789063-27.714844c4.425782-3.914063 7.21875-9.628906 7.21875-15.988281v-29.910156c8.207032 1.957031 16.765625 3 25.5625 3 8.722656 0 17.285156-1.011719 25.5625-2.96875v29.878906c0 6.359375 2.792969 12.078125 7.222656 15.992187zm0 0"/></svg>