<?xml version="1.0"?>
<svg xmlns="http://www.w3.org/2000/svg" viewBox="0 0 64 64" width="512" height="512"><g id="_12-Thermometer" data-name="12-Thermometer"><path d="M26.293,39.707l-26-26a1,1,0,0,1,0-1.414l12-12a1,1,0,0,1,1.414,0l3,3L15.292,4.706,13,2.414,2.414,13,27.707,38.293Z"/><path d="M41,52.343a4.961,4.961,0,0,1-3.535-1.465l-9.172-9.17,1.414-1.415,9.172,9.171a3.07,3.07,0,0,0,4.242,0l6.344-6.342a3.006,3.006,0,0,0,0-4.244L21.293,10.707l1.414-1.415L50.879,37.464a5.01,5.01,0,0,1,0,7.072l-6.344,6.342A4.961,4.961,0,0,1,41,52.343Z"/><rect x="18.002" y="5.589" width="2" height="2.824" transform="translate(0.615 15.487) rotate(-45)"/><path d="M59.37,64A4.637,4.637,0,0,1,56.1,62.652L43.723,50.277l1.414-1.414,12.37,12.37a2.715,2.715,0,0,0,3.731,0A2.654,2.654,0,0,0,61.23,57.5L48.863,45.137l1.414-1.414,12.37,12.37A4.63,4.63,0,0,1,59.37,64Z"/><rect x="46.964" y="49.5" width="7.071" height="2" transform="translate(-20.918 50.5) rotate(-45)"/><path d="M28,36a1,1,0,0,1-.707-.293l-22-22a1,1,0,0,1,0-1.414l7-7a1,1,0,0,1,1.414,0l22,22a1,1,0,0,1,0,1.414l-7,7A1,1,0,0,1,28,36ZM7.414,13,28,33.586,33.586,28,13,7.414Z"/><rect x="8.55" y="12.5" width="9.899" height="2" transform="translate(-5.592 13.5) rotate(-45)"/><rect x="30.757" y="34" width="8.485" height="2" transform="translate(-14.497 35) rotate(-45)"/><rect x="33.757" y="37" width="8.485" height="2" transform="translate(-15.74 38) rotate(-45)"/><path d="M46,27H44a3.563,3.563,0,0,1,1.293-2.707c.49-.49.707-.731.707-1.293s-.217-.8-.707-1.293a3.48,3.48,0,0,1,0-5.414c.49-.49.707-.731.707-1.293s-.217-.8-.707-1.293A3.563,3.563,0,0,1,44,11h2c0,.562.217.8.707,1.293a3.48,3.48,0,0,1,0,5.414C46.217,18.2,46,18.438,46,19s.217.8.707,1.293a3.48,3.48,0,0,1,0,5.414C46.217,26.2,46,26.438,46,27Z"/><path d="M52,31H50a3.563,3.563,0,0,1,1.293-2.707c.49-.49.707-.731.707-1.293s-.217-.8-.707-1.293a3.48,3.48,0,0,1,0-5.414c.49-.49.707-.731.707-1.293s-.217-.8-.707-1.293A3.563,3.563,0,0,1,50,15h2c0,.562.217.8.707,1.293a3.48,3.48,0,0,1,0,5.414C52.217,22.2,52,22.438,52,23s.217.8.707,1.293a3.48,3.48,0,0,1,0,5.414C52.217,30.2,52,30.438,52,31Z"/><path d="M58,39H56a3.563,3.563,0,0,1,1.293-2.707c.49-.49.707-.731.707-1.293s-.217-.8-.707-1.293a3.48,3.48,0,0,1,0-5.414c.49-.49.707-.731.707-1.293s-.217-.8-.707-1.293A3.563,3.563,0,0,1,56,23h2c0,.562.217.8.707,1.293a3.48,3.48,0,0,1,0,5.414C58.217,30.2,58,30.438,58,31s.217.8.707,1.293a3.48,3.48,0,0,1,0,5.414C58.217,38.2,58,38.438,58,39Z"/></g></svg>
