<svg height="512" viewBox="0 0 128 128" width="512" xmlns="http://www.w3.org/2000/svg"><g><rect fill="#ef983b" height="68.733" rx="11.836" width="23.672" x="72.164" y="6.306"/><rect fill="#ef983b" height="68.733" rx="11.836" width="23.672" x="32.164" y="6.306"/><path d="m44 75.039a11.839 11.839 0 0 1 -3.591-.558h-.009v47.213h7.2v-47.214h-.005a11.81 11.81 0 0 1 -3.595.559z" fill="#ffde3e"/><path d="m84 75.039a11.839 11.839 0 0 1 -3.591-.558h-.009v47.213h7.2v-47.214a11.81 11.81 0 0 1 -3.6.559z" fill="#ffde3e"/><g fill="#422002"><path d="m95.836 24.849a1.751 1.751 0 0 0 1.75-1.75v-4.956a13.586 13.586 0 0 0 -27.172 0v45.057a13.6 13.6 0 0 0 8.239 12.486v46a1.75 1.75 0 0 0 1.75 1.75h7.197a1.75 1.75 0 0 0 1.75-1.75v-46a13.6 13.6 0 0 0 8.236-12.486v-32.424a1.75 1.75 0 1 0 -3.5 0v32.424a10.086 10.086 0 0 1 -20.172 0v-45.057a10.086 10.086 0 0 1 20.172 0v4.957a1.751 1.751 0 0 0 1.75 1.749zm-9.989 51.8v43.3h-3.694v-43.301a12.168 12.168 0 0 0 3.694 0z"/><path d="m81.978 59.535a1.75 1.75 0 0 0 3.13 1.565l1.782-3.563a6.371 6.371 0 0 0 -1.2-7.365l-.914-.914a2.88 2.88 0 0 1 0-4.073 6.389 6.389 0 0 0 0-9.024 2.881 2.881 0 0 1 0-4.074l.913-.914a6.371 6.371 0 0 0 1.2-7.364l-1.782-3.563a1.75 1.75 0 1 0 -3.13 1.565l1.781 3.562a2.878 2.878 0 0 1 -.54 3.326l-.913.914a6.381 6.381 0 0 0 0 9.023 2.885 2.885 0 0 1 0 4.074 6.378 6.378 0 0 0 0 9.022l.914.914a2.88 2.88 0 0 1 .539 3.327z"/><path d="m44 4.557a13.6 13.6 0 0 0 -13.586 13.586v45.057a13.6 13.6 0 0 0 8.239 12.486v13.014a1.75 1.75 0 0 0 3.5 0v-12.052a12.168 12.168 0 0 0 3.694 0v43.3h-3.694v-9.848a1.75 1.75 0 0 0 -3.5 0v11.6a1.75 1.75 0 0 0 1.75 1.75h7.197a1.75 1.75 0 0 0 1.75-1.75v-46a13.6 13.6 0 0 0 8.236-12.5v-45.057a13.6 13.6 0 0 0 -13.586-13.586zm10.086 58.643a10.086 10.086 0 0 1 -20.172 0v-45.057a10.086 10.086 0 1 1 20.172 0z"/><path d="m40.4 103.606a1.749 1.749 0 0 0 1.75-1.75v-4.5a1.75 1.75 0 0 0 -3.5 0v4.5a1.75 1.75 0 0 0 1.75 1.75z"/><path d="m44.78 49.258a2.88 2.88 0 0 1 0-4.073 6.389 6.389 0 0 0 0-9.024 2.881 2.881 0 0 1 0-4.074l.913-.914a6.371 6.371 0 0 0 1.2-7.364l-1.782-3.563a1.75 1.75 0 1 0 -3.13 1.565l1.781 3.562a2.878 2.878 0 0 1 -.54 3.326l-.913.914a6.381 6.381 0 0 0 0 9.023 2.885 2.885 0 0 1 0 4.074 6.378 6.378 0 0 0 0 9.022l.914.914a2.88 2.88 0 0 1 .539 3.327l-1.781 3.562a1.75 1.75 0 0 0 3.13 1.565l1.782-3.563a6.371 6.371 0 0 0 -1.2-7.365z"/></g></g></svg>