<svg height="512" viewBox="0 0 64 64" width="512" xmlns="http://www.w3.org/2000/svg"><g id="_13-First_Aid" data-name="13-First Aid"><path d="m0 23h2v2h-2z"/><path d="m59 58h-54a5.006 5.006 0 0 1 -5-5v-26h2v26a3 3 0 0 0 3 3h54a3 3 0 0 0 3-3v-34a3 3 0 0 0 -3-3h-54a3 3 0 0 0 -3 3v2h-2v-2a5.006 5.006 0 0 1 5-5h54a5.006 5.006 0 0 1 5 5v34a5.006 5.006 0 0 1 -5 5z"/><path d="m47 15h-2v-4a3 3 0 0 0 -3-3h-20a3 3 0 0 0 -3 3v4h-2v-4a5.006 5.006 0 0 1 5-5h20a5.006 5.006 0 0 1 5 5z"/><path d="m43 15h-2v-3h-18v3h-2v-3a2 2 0 0 1 2-2h18a2 2 0 0 1 2 2z"/><path d="m35 44h-6a1 1 0 0 1 -1-1v-3h-3a1 1 0 0 1 -1-1v-6a1 1 0 0 1 1-1h3v-3a1 1 0 0 1 1-1h6a1 1 0 0 1 1 1v3h3a1 1 0 0 1 1 1v6a1 1 0 0 1 -1 1h-3v3a1 1 0 0 1 -1 1zm-5-2h4v-3a1 1 0 0 1 1-1h3v-4h-3a1 1 0 0 1 -1-1v-3h-4v3a1 1 0 0 1 -1 1h-3v4h3a1 1 0 0 1 1 1z"/><path d="m32 50a14 14 0 1 1 14-14 14.015 14.015 0 0 1 -14 14zm0-26a12 12 0 1 0 12 12 12.013 12.013 0 0 0 -12-12z"/><path d="m54 20h-4a3 3 0 0 1 -3-3v-2a1 1 0 0 1 1-1h8a1 1 0 0 1 1 1v2a3 3 0 0 1 -3 3zm-5-4v1a1 1 0 0 0 1 1h4a1 1 0 0 0 1-1v-1z"/><path d="m54 51h-4a3 3 0 0 1 -3-3v-2a3 3 0 0 1 3-3h4a3 3 0 0 1 3 3v2a3 3 0 0 1 -3 3zm-4-6a1 1 0 0 0 -1 1v2a1 1 0 0 0 1 1h4a1 1 0 0 0 1-1v-2a1 1 0 0 0 -1-1z"/><path d="m49 24h2v20h-2z"/><path d="m49 19h2v3h-2z"/><path d="m53 41h2v3h-2z"/><path d="m53 19h2v20h-2z"/><path d="m49 50h2v7h-2z"/><path d="m53 50h2v7h-2z"/><path d="m14 20h-4a3 3 0 0 1 -3-3v-2a1 1 0 0 1 1-1h8a1 1 0 0 1 1 1v2a3 3 0 0 1 -3 3zm-5-4v1a1 1 0 0 0 1 1h4a1 1 0 0 0 1-1v-1z"/><path d="m14 51h-4a3 3 0 0 1 -3-3v-2a3 3 0 0 1 3-3h4a3 3 0 0 1 3 3v2a3 3 0 0 1 -3 3zm-4-6a1 1 0 0 0 -1 1v2a1 1 0 0 0 1 1h4a1 1 0 0 0 1-1v-2a1 1 0 0 0 -1-1z"/><path d="m9 41h2v3h-2z"/><path d="m9 19h2v20h-2z"/><path d="m13 24h2v20h-2z"/><path d="m13 19h2v3h-2z"/><path d="m9 50h2v7h-2z"/><path d="m13 50h2v7h-2z"/><path d="m48 46h8v2h-8z"/><path d="m8 46h8v2h-8z"/><path d="m17 52h2v2h-2z"/><path d="m21 52h26v2h-26z"/><path d="m24 7h2v4h-2z"/><path d="m38 7h2v4h-2z"/></g></svg>