<svg enable-background="new 0 0 128 128" height="512" viewBox="0 0 128 128" width="512" xmlns="http://www.w3.org/2000/svg"><g id="Layer_15"><circle cx="64" cy="64" fill="#fdcc58" r="45.25"/><path d="m100.3 64c0 9.66-3.77 18.45-9.94 24.95-.22.24-.45.48-.69.72s-.48.47-.72.69c-6.5 6.17-15.29 9.94-24.95 9.94-20.05 0-36.3-16.25-36.3-36.3 0-9.66 3.77-18.45 9.94-24.95.22-.24.45-.48.69-.72s.48-.47.72-.69c6.5-6.17 15.29-9.94 24.95-9.94 20.05 0 36.3 16.25 36.3 36.3z" fill="#e5e7ea"/><g fill="#d9dadb"><path d="m74.31 68.21c.7-1.24 1.12-2.67 1.12-4.2 0 0 0 0 0-.01.18-.3 6.66-11.52 18.99-7.81-1.37-4.88-4.04-9.23-7.58-12.67-12.71 2.99-12.54 16.27-12.54 16.27-.74-1.28-1.8-2.34-3.08-3.09 0 0-.01 0-.01-.01-.23-.41-6.61-11.57 2.74-20.35-2.22-.56-4.56-.86-6.95-.86-2.71 0-5.33.38-7.81 1.1-3.71 12.33 7.51 18.81 7.81 18.99-1.53 0-2.97.41-4.21 1.13 0 0-13.28.17-16.27-12.54-3.42 3.54-5.95 7.96-7.18 12.89 8.78 9.35 19.94 2.97 20.35 2.74-.7 1.24-1.12 2.67-1.12 4.2v.01c-.18.3-6.66 11.52-18.99 7.81 1.37 4.88 4.02 9.22 7.57 12.67h.01c12.71-2.99 12.54-16.27 12.54-16.27.74 1.28 1.8 2.34 3.08 3.09 0 0 .01 0 .01.01.23.41 6.61 11.57-2.74 20.35 2.22.56 4.56.86 6.95.86 2.71 0 5.33-.38 7.81-1.1 3.71-12.33-7.51-18.81-7.81-18.99 1.53 0 2.97-.41 4.21-1.13 0 0 13.28-.17 16.27 12.54 3.42-3.54 5.95-7.96 7.18-12.89-8.78-9.35-19.94-2.97-20.35-2.74zm-7.31-.26c-2.18 0-3.95-1.77-3.95-3.95s1.77-3.95 3.95-3.95 3.95 1.77 3.95 3.95-1.77 3.95-3.95 3.95z"/><path d="m91.31 87.9c-.13.15-.26.29-.39.43-.17.21-.37.42-.56.62-.13.14-.26.28-.4.42l-16.86-16.86c-.04-.03-.07-.05-.1-.08l-2.77-2.77c.41-.44.77-.92 1.07-1.44 0 0 0-.01.01-.01.04-.07.07-.13.11-.2l2.92 2.92c.03.03.06.05.09.08l.4.4.82.82 10.55 10.56.65.65z"/><path d="m60 56.59c-.07.03-.14.07-.21.11-.52.3-1.01.66-1.45 1.06l-13.2-13.2-6.6-6.43c.17-.17.34-.33.51-.49.2-.19.41-.39.62-.56.11-.1.22-.21.34-.3l8.05 7.87.82.82 10.22 10.22z"/></g><path d="m71.31 68.21c.7-1.24 1.12-2.67 1.12-4.2 0 0 0 0 0-.01.18-.3 6.66-11.52 18.99-7.81-1.37-4.88-4.04-9.23-7.58-12.67-12.71 2.99-12.54 16.27-12.54 16.27-.74-1.28-1.8-2.34-3.08-3.09 0 0-.01 0-.01-.01-.23-.41-6.61-11.57 2.74-20.35-2.22-.56-4.56-.86-6.95-.86-2.71 0-5.33.38-7.81 1.1-3.71 12.33 7.51 18.81 7.81 18.99-1.53 0-2.97.41-4.21 1.13 0 0-13.28.17-16.27-12.54-3.42 3.54-5.95 7.96-7.18 12.89 8.78 9.35 19.94 2.97 20.35 2.74-.7 1.24-1.12 2.67-1.12 4.2v.01c-.18.3-6.66 11.52-18.99 7.81 1.37 4.88 4.02 9.22 7.57 12.67h.01c12.71-2.99 12.54-16.27 12.54-16.27.74 1.28 1.8 2.34 3.08 3.09 0 0 .01 0 .01.01.23.41 6.61 11.57-2.74 20.35 2.22.56 4.56.86 6.95.86 2.71 0 5.33-.38 7.81-1.1 3.71-12.33-7.51-18.81-7.81-18.99 1.53 0 2.97-.41 4.21-1.13 0 0 13.28-.17 16.27 12.54 3.42-3.54 5.95-7.96 7.18-12.89-8.78-9.35-19.94-2.97-20.35-2.74zm-7.31-.26c-2.18 0-3.95-1.77-3.95-3.95s1.77-3.95 3.95-3.95 3.95 1.77 3.95 3.95-1.77 3.95-3.95 3.95z" fill="#4c545e"/><path d="m71.3 59.79c-.74-1.28-1.8-2.34-3.08-3.09 0 0-.01 0-.01-.01-1.24-.7-2.67-1.12-4.2-1.12 0 0 0 0-.01 0-1.53 0-2.97.41-4.21 1.13-1.28.74-2.34 1.8-3.09 3.08 0 0 0 .01-.01.01-.7 1.24-1.12 2.67-1.12 4.2v.01c0 1.53.41 2.97 1.13 4.21.74 1.28 1.8 2.34 3.08 3.09 0 0 .01 0 .01.01 1.24.7 2.67 1.12 4.2 1.12h.01c1.53 0 2.97-.41 4.21-1.13 1.28-.74 2.34-1.8 3.09-3.08 0 0 0-.01.01-.01.7-1.24 1.12-2.67 1.12-4.2 0 0 0 0 0-.01 0-1.53-.41-2.97-1.13-4.21zm-7.3 8.16c-2.18 0-3.95-1.77-3.95-3.95s1.77-3.95 3.95-3.95 3.95 1.77 3.95 3.95-1.77 3.95-3.95 3.95z" fill="#434a51"/><g fill="#393f44"><path d="m84.48 83.84c.45-.47.89-.96 1.31-1.46l-3.07-3.07c.74 1.29 1.35 2.79 1.76 4.53z"/><path d="m77.21 73.79c-1.64-.95-3.3-1.54-4.75-1.9l-2.23-2.23v-.01l-3.18-3.18c.46-.55.76-1.23.85-1.98l3.51 3.51.1.1 2.83 2.83c.03.03.06.05.09.08l.4.4z"/></g><g><g><path d="m60.82 60.24.43.44.27.27c.56-.46 1.24-.76 1.99-.85l-2.72-2.72-.79-.79c-.07.04-.15.07-.21.11-.52.3-1 .67-1.44 1.07z" fill="#393f44"/></g></g><path d="m67.91 64.5c-.09.75-.39 1.44-.84 1.99l-2.98-2.98-2.58-2.57c.55-.46 1.24-.76 1.99-.85l1.03 1.03z" fill="#d9dadb"/><g><path d="m90.36 88.95c-.22.24-.45.48-.69.72s-.48.47-.72.69l-17.85-17.85c-.04-.03-.07-.05-.1-.08l-1.8-1.8-2.71-2.72-3.4-3.4-3.84-3.83-.43-.44-15.68-15.68-5.5-5.51c.22-.24.45-.48.69-.72s.48-.47.72-.69l7.01 7.01.82.82 10.22 10.22 1.69 1.69 4.74 4.74 8.81 8.81c.03.03.06.05.09.08l.4.4.82.82 10.55 10.56.65.65z" fill="#ea5765"/></g></g></svg>