<svg height="512pt" viewBox="-89 0 512 512.00083" width="512pt" xmlns="http://www.w3.org/2000/svg"><path d="m255.152344 364.054688c-6.75 0-27.109375 3.636718-27.109375-8.332032v-32.621094c3.160156-1.25 6.265625-2.644531 9.300781-4.1875h7.675781c9 0 16.777344-5.324218 20.359375-12.984374h22.65625c14.816406 0 26.871094-12.054688 26.871094-26.871094v-34.863282c11.359375-6.257812 19.070312-18.347656 19.070312-32.207031 0-6.132812-1.515624-11.910156-4.183593-17 .457031-10.242187 2.285156-55.578125-.132813-77.332031-2.996094-26.964844-15.652344-54.03125-34.726562-74.253906-44.4375-47.113282-127.769532-56.972656-183-24.160156-8.046875 4.777343-.78125 17.863281 7.640625 12.863281 49.132812-29.191407 125.058593-20.230469 164.476562 21.5625 16.890625 17.910156 28.097657 41.832031 30.742188 65.640625 1.660156 14.953125 1.148437 42.957031.585937 60.746094-5.261718-3-11.324218-4.742188-17.789062-4.808594v-25.976563c0-5.023437-5.054688-8.636719-9.769532-7.121093-6.054687-.800782-9.574218-5.425782-15.273437-13.605469-7.265625-10.433594-17.222656-24.726563-39.820313-27.105469-23.339843-2.453125-43.109374 8.777344-64.039062 20.667969-15.609375 8.871093-31.753906 18.039062-49.777344 21.300781-54.363281 9.832031-81.402344-14.058594-94.0625-33.476562 2.605469 1.246093 5.445313 2.414062 8.515625 3.433593 7.839844 2.589844 15.546875 3.691407 22.992188 3.691407 21.261719 0 40.34375-8.988282 54-17.863282 8.089843-5.257812-.066407-17.804687-8.15625-12.542968-30.730469 19.976562-54.320313 17.054687-69.0625 10.695312 12.191406-2.664062 26.878906-9.511719 40.859375-25.417969 5.074218-5.773437 10.136718-11.117187 15.050781-15.878906 6.71875-6.519531-3.394531-17.554687-10.417969-10.738281-5.195312 5.039062-10.535156 10.671875-15.867187 16.742187-20.746094 23.605469-42.605469 22.585938-50.210938 21.332031-5.683593-2.027343-14.183593.492188-12.277343 8.3125.210937.875 5.410156 21.597657 23.039062 40.160157 6.8125 7.175781 14.199219 12.703125 21.878906 16.914062l2.757813 41.390625c.011719.160156.035156.3125.054687.46875-4.320312 6.023438-6.875 13.398438-6.875 21.363282 0 20.265624 16.488282 36.75 36.753906 36.75h3.25c8.941407 33.9375 33.722657 61.511718 65.933594 74.300781v32.679687c0 11.96875-18.347656 7.980469-27.089844 8.335938-43.191406 1.746094-77.9375 36.898437-77.9375 80.421875v60.039062c0 4.132813 3.347657 7.480469 7.480469 7.480469h276.070313c4.132812 0 7.480468-3.347656 7.480468-7.480469v-60.039062c-.003906-43.515625-34.726562-79.054688-77.917968-80.425781zm-12.605469 93.28125 7.441406 39.703124h-26.585937l33.71875-104.367187 19.738281 42.664063-30.085937 13.824218c-3.117188 1.429688-4.859376 4.800782-4.226563 8.175782zm-75.101563 39.703124-5.800781-17.949218c-2.878906-8.910156-17.242187-4.714844-14.234375 4.597656l4.3125 13.351562h-26.585937l7.445312-39.703124c.632813-3.375-1.113281-6.746094-4.230469-8.175782l-30.085937-13.824218 19.738281-42.664063 20.0625 62.09375c2.875 8.90625 17.242188 4.714844 14.234375-4.597656l-17.652343-54.644531c11.75 9.21875 29.183593 18.046874 52.914062 18.046874s41.164062-8.828124 52.914062-18.046874l-32.796874 101.515624zm85.074219-200.585937c0 4.136719-3.367187 7.503906-7.5 7.503906h-16.984375c-4.136718 0-7.503906-3.367187-7.503906-7.503906s3.367188-7.503906 7.503906-7.503906h16.984375c4.132813 0 7.5 3.363281 7.5 7.503906zm66.496094-84.464844c0 12.019531-9.777344 21.792969-21.792969 21.792969h-.398437c.507812-4.300781.765625-8.65625.765625-13.058594v-30.515625c11.847656.199219 21.425781 9.890625 21.425781 21.78125zm-262.929687 0c0-11.890625 9.578124-21.582031 21.425781-21.78125v30.527344c0 4.414063.269531 8.765625.777343 13.046875h-.40625c-12.019531 0-21.796874-9.773438-21.796874-21.792969zm21.425781-52.621093v15.878906c-5.476563.054687-10.671875 1.308594-15.328125 3.519531l-1.554688-23.328125c5.601563 1.835938 11.261719 3.105469 16.882813 3.929688zm14.960937 61.367187v-60.148437c.835938.015624 1.671875.023437 2.503906.023437 9.460938 0 18.5-1.019531 26.59375-2.484375 20.535157-3.710938 37.804688-13.523438 54.507813-23.011719 18.78125-10.671875 36.53125-20.757812 55.082031-18.796875 15.796875 1.660156 22.265625 10.945313 29.109375 20.777344 5.476563 7.859375 11.5625 16.582031 22.359375 19.296875v64.332031c0 14.722656-3.269531 28.832032-9.722656 41.933594-4.117188 8.359375 9.046875 15.5 13.421875 6.609375 3.265625-6.632813 5.828125-13.488281 7.679687-20.523437h3.214844c.917969 0 1.824219-.042969 2.722656-.109376v30.425782c0 6.566406-5.34375 11.910156-11.910156 11.910156h-20.390625c-2.507812-9.476562-13.230469-16.980469-22.625-16.980469h-16.984375c-12.386718 0-22.464844 10.078125-22.464844 22.464844 0 6.300781 2.613282 12.003906 6.804688 16.085937-7.992188 2.144532-16.324219 3.261719-24.835938 3.261719-52.417968-.003906-95.066406-42.648437-95.066406-95.066406zm69.550782 136.898437v-29.867187c8.195312 1.953125 16.742187 2.992187 25.527343 2.992187 8.710938 0 17.265625-1.011718 25.527344-2.960937v29.835937c0 11.757813 9.566406 21.320313 21.320313 21.320313h2.339843c-9.3125 8.886719-25.480469 19.65625-49.175781 19.65625-23.871094 0-40-10.761719-49.261719-19.65625h2.402344c11.753906-.003906 21.320313-9.566406 21.320313-21.320313zm-105.027344 86.847657c0-30.78125 21.34375-56.660157 50.003906-63.652344l-25.464844 55.03125c-1.527344 4.328125-.304687 7.640625 3.667969 9.9375l31.597656 14.519531-6.886719 36.722656h-52.917968zm261.113281 52.558593h-52.898437l-6.886719-36.722656 31.597656-14.519531c3.972656-2.296875 5.191406-5.609375 3.664063-9.9375l-25.460938-55.027344c28.652344 7.003907 49.984375 32.875 49.984375 63.648438zm0 0"/></svg>