<svg height="512" viewBox="0 0 128 128" width="512" xmlns="http://www.w3.org/2000/svg"><g><path d="m111.071 65.547-.01.01c.827-2.43.82-4.749-.455-6.629-5.206-7.684-15.181-12.651-15.181-12.651s-.931-.491-2.49-1.163l-.008.02a8.727 8.727 0 0 0 -4.127-5.894c-10.475-5.74-24.8-5.575-24.8-5.575s-14.325-.165-24.8 5.575a8.727 8.727 0 0 0 -4.13 5.894l-.008-.02c-1.559.672-2.49 1.163-2.49 1.163s-9.97 4.967-15.181 12.651c-1.275 1.88-1.282 4.2-.455 6.629l-.01-.01c-1.508 2.294-11.9 18.469-10.491 26.377 1.48 8.3 19.917-7.174 26.059-11.112l-.008-.009c2.929 1.136 5.576 1.267 7.22-.18a43.631 43.631 0 0 1 6.684-4.955l-.01-.026c1.88 1.357 3.807 1.981 5.635 1.518 7.64-1.935 11.985-1.784 11.985-1.784s4.345-.151 11.982 1.784c1.828.463 3.755-.161 5.635-1.518l-.01.026a43.631 43.631 0 0 1 6.684 4.955c1.644 1.447 4.291 1.316 7.22.18l-.008.009c6.142 3.938 24.579 19.413 26.059 11.112 1.411-7.908-8.983-24.083-10.491-26.377z" fill="#ef983b"/><g fill="#422002"><path d="m51.428 36.749a1.842 1.842 0 0 0 .352-.035c1.391-.284 2.842-.528 4.315-.725a1.749 1.749 0 1 0 -.463-3.468c-1.552.207-3.083.463-4.553.763a1.75 1.75 0 0 0 .349 3.465z"/><path d="m112.97 65.258a8.959 8.959 0 0 0 -.915-7.313c-5.408-7.972-15.426-13.024-15.815-13.216-.033-.019-.727-.381-1.892-.9a10.51 10.51 0 0 0 -4.71-6.121c-9.8-5.368-22.732-5.764-25.225-5.788h-.013a1.75 1.75 0 0 0 -.018 3.5c2.347.023 14.512.391 23.578 5.358 5.271 2.888 4.256 12.889 1.082 20.958-3.394 8.633-8.949 14.658-12.626 13.732a50.169 50.169 0 0 0 -12.416-1.843 50.106 50.106 0 0 0 -12.412 1.839c-3.689.932-9.232-5.1-12.626-13.732-3.174-8.069-4.189-18.07 1.082-20.958a33.343 33.343 0 0 1 3.9-1.8 1.75 1.75 0 0 0 -1.271-3.262 37.15 37.15 0 0 0 -4.312 2 10.51 10.51 0 0 0 -4.71 6.121c-1.165.522-1.853.883-1.857.885-.424.211-10.442 5.263-15.85 13.235a8.959 8.959 0 0 0 -.915 7.313c-2.764 4.286-11.729 19.002-10.314 26.965a4.313 4.313 0 0 0 2.622 3.507 4.97 4.97 0 0 0 1.883.338c4.584 0 11.7-4.837 19.751-10.652 1.457-1.053 2.74-1.976 3.769-2.673a12.349 12.349 0 0 0 3.817.687 6.324 6.324 0 0 0 4.308-1.5 45.5 45.5 0 0 1 5.484-4.19 8.629 8.629 0 0 0 4.391 1.322 6.9 6.9 0 0 0 1.707-.214 47.088 47.088 0 0 1 11.492-1.731 1.161 1.161 0 0 0 .118 0 46.981 46.981 0 0 1 11.5 1.731 7.933 7.933 0 0 0 6.1-1.108 45.418 45.418 0 0 1 5.483 4.189 6.317 6.317 0 0 0 4.308 1.5 12.354 12.354 0 0 0 3.817-.687c1.029.7 2.312 1.62 3.769 2.673 8.053 5.816 15.167 10.652 19.751 10.652a4.97 4.97 0 0 0 1.883-.338 4.313 4.313 0 0 0 2.622-3.507c1.415-7.962-7.555-22.678-10.32-26.972zm-86.048 17.328c-4.984 3.6-15.348 11.078-18.273 9.908-.107-.044-.358-.145-.489-.878-.924-5.18 4.3-15.5 8.5-22.376a30.162 30.162 0 0 0 6.484 7.672 33.772 33.772 0 0 0 5.856 4.178c-.648.464-1.336.96-2.078 1.496zm11.631-3.276c-1.03.9-2.964.816-5.294-.068a1.7 1.7 0 0 0 -.2-.081 27.124 27.124 0 0 1 -7.593-4.875c-3-2.646-5.714-6.033-6.824-9.108a1.766 1.766 0 0 0 -.131-.374 5.5 5.5 0 0 1 .335-4.894c4.224-6.228 11.913-10.665 14-11.8-.267 3.909.48 8.849 2.86 14.9a36.491 36.491 0 0 0 7.743 12.455 51.3 51.3 0 0 0 -4.896 3.845zm50.894 0a51.242 51.242 0 0 0 -4.887-3.836 36.557 36.557 0 0 0 7.74-12.46c2.38-6.052 3.127-10.991 2.86-14.9 2.039 1.1 9.765 5.55 14 11.8a5.5 5.5 0 0 1 .335 4.894 1.766 1.766 0 0 0 -.131.374c-1.11 3.075-3.821 6.462-6.824 9.108a27.129 27.129 0 0 1 -7.566 4.865 1.686 1.686 0 0 0 -.243.1c-2.326.872-4.255.959-5.284.055zm30.393 12.306c-.131.733-.382.834-.489.878-2.92 1.184-13.289-6.308-18.273-9.908-.743-.536-1.431-1.032-2.082-1.5a33.826 33.826 0 0 0 5.857-4.178 30.162 30.162 0 0 0 6.484-7.672c4.2 6.885 9.427 17.2 8.503 22.38z"/><path d="m79.95 58.084a28.961 28.961 0 0 1 -5.775 10.016 1.75 1.75 0 1 0 2.615 2.326 32.456 32.456 0 0 0 6.475-11.212 1.75 1.75 0 1 0 -3.315-1.125z"/><path d="m83.108 52.627c.061.006.121.009.181.009a1.75 1.75 0 0 0 1.739-1.572 30.979 30.979 0 0 0 .085-6.151 1.749 1.749 0 0 0 -3.476.4 28.2 28.2 0 0 1 -.091 5.394 1.75 1.75 0 0 0 1.562 1.92z"/></g></g></svg>