<svg id="Computer_Interface" enable-background="new 0 0 128 128" viewBox="0 0 128 128" xmlns="http://www.w3.org/2000/svg"><g><path d="m106.75 34.5v-9.25c0-2.21-1.79-4-4-4h-7.3c-1.23 0-2.39.57-3.15 1.54l-1.6 2.05c-.76.97-1.92 1.54-3.15 1.54h-47.11c-1.23 0-2.39-.57-3.15-1.54l-1.6-2.05c-.76-.97-1.92-1.54-3.15-1.54h-7.29c-2.21 0-4 1.79-4 4v7.29c0 1.23.57 2.39 1.54 3.15l2.04 1.6c.97.76 1.54 1.92 1.54 3.15v47.11c0 1.23-.57 2.39-1.54 3.15l-3.58 2.8v9.25c0 2.21 1.79 4 4 4h7.29c1.23 0 2.39-.57 3.15-1.54l1.6-2.04c.76-.97 1.92-1.54 3.15-1.54h47.11c1.23 0 2.39.57 3.15 1.54l1.6 2.04c.76.97 1.92 1.54 3.15 1.54h7.3c2.21 0 4-1.79 4-4v-7.29c0-1.23-.57-2.39-1.54-3.15l-2.05-1.6c-.97-.76-1.54-1.92-1.54-3.15v-49.06zm-77.73 68.01c-1.95 0-3.53-1.58-3.53-3.53s1.58-3.53 3.53-3.53 3.53 1.58 3.53 3.53-1.58 3.53-3.53 3.53zm0-69.96c-1.95 0-3.53-1.58-3.53-3.53s1.58-3.53 3.53-3.53 3.53 1.58 3.53 3.53-1.58 3.53-3.53 3.53zm73.49 66.43c0 1.95-1.58 3.53-3.53 3.53s-3.53-1.58-3.53-3.53 1.58-3.53 3.53-3.53 3.53 1.58 3.53 3.53zm-3.53-66.43c-1.95 0-3.53-1.58-3.53-3.53s1.58-3.53 3.53-3.53 3.53 1.58 3.53 3.53-1.58 3.53-3.53 3.53z" fill="#4c545e"/><circle cx="64" cy="64" fill="#e5e7ea" r="32.45"/><path d="m88.49 68.06c-7.14-5.15-15.07-.93-15.87-.48.58-1.07.9-2.28.9-3.58 0-.04-.01-.08-.01-.12.46-.78 5.64-9.15 15.23-7.35.77.15 1.42-.58 1.16-1.32-.5-1.37-1.12-2.72-1.88-4.02-.72-1.25-1.54-2.42-2.43-3.5-1.16-1.4-3.11-1.84-4.77-1.1-8.05 3.62-8.36 12.64-8.38 13.53-.66-1.09-1.57-2-2.67-2.64l-.01-.01s-5.45-9.16 1.22-16.92c.51-.6.21-1.52-.56-1.66-1.43-.25-2.92-.39-4.42-.39-1.45 0-2.86.12-4.24.36-1.79.3-3.15 1.78-3.34 3.58-.93 9.1 7.34 13.88 7.58 14.02h.01c.04 0 .08.01.12.01-.04 0-.08-.01-.13-.01-1.38 0-2.67.38-3.78 1.03-1.11-.02-10.75-.42-13.94-9.51-.26-.74-1.22-.94-1.72-.34-.94 1.12-1.79 2.33-2.55 3.63-.72 1.25-1.33 2.54-1.81 3.85-.63 1.7-.04 3.62 1.44 4.68 6.95 5.01 14.65 1.14 15.79.52-.61 1.09-.95 2.33-.95 3.66 0 .06.01.12.01.18-.88 1.42-6.02 8.89-15.13 7.18-.77-.15-1.42.58-1.16 1.32.5 1.37 1.12 2.72 1.88 4.02.72 1.25 1.54 2.42 2.43 3.5 1.16 1.4 3.11 1.84 4.77 1.1 7.67-3.45 8.29-11.77 8.35-13.32.71 1.13 1.7 2.06 2.88 2.68.83 1.56 4.63 9.67-1.36 16.65-.51.6-.21 1.52.56 1.66 1.43.25 2.92.39 4.42.39 1.45 0 2.86-.12 4.24-.36 1.79-.3 3.15-1.78 3.34-3.58.86-8.44-6.19-13.16-7.4-13.91 1.35-.05 2.61-.46 3.68-1.14 1.41.03 10.73.6 13.86 9.51.26.74 1.22.94 1.72.34.94-1.12 1.79-2.33 2.55-3.63.72-1.25 1.33-2.54 1.81-3.85.63-1.68.04-3.59-1.44-4.66zm-22.49-.53c-1.95 0-3.53-1.58-3.53-3.53s1.58-3.53 3.53-3.53 3.53 1.58 3.53 3.53-1.58 3.53-3.53 3.53z" fill="#d9dadb"/><path d="m86.49 68.06c-7.14-5.15-15.07-.93-15.87-.48.58-1.07.9-2.28.9-3.58 0-.04-.01-.08-.01-.12.46-.78 5.64-9.15 15.23-7.35.77.15 1.42-.58 1.16-1.32-.5-1.37-1.12-2.72-1.88-4.02-.72-1.25-1.54-2.42-2.43-3.5-1.16-1.4-3.11-1.84-4.77-1.1-8.05 3.62-8.36 12.64-8.38 13.53-.66-1.09-1.57-2-2.67-2.64l-.01-.01s-5.45-9.16 1.22-16.92c.51-.6.21-1.52-.56-1.66-1.43-.25-2.92-.39-4.42-.39-1.45 0-2.86.12-4.24.36-1.79.3-3.15 1.78-3.34 3.58-.93 9.1 7.34 13.88 7.58 14.02h.01c.04 0 .08.01.12.01-.04 0-.08-.01-.13-.01-1.38 0-2.67.38-3.78 1.03-1.11-.02-10.75-.42-13.94-9.51-.26-.74-1.22-.94-1.72-.34-.94 1.12-1.79 2.33-2.55 3.63-.72 1.25-1.33 2.54-1.81 3.85-.63 1.7-.04 3.62 1.44 4.68 6.95 5.01 14.65 1.14 15.79.52-.61 1.09-.95 2.33-.95 3.66 0 .06.01.12.01.18-.88 1.42-6.02 8.89-15.13 7.18-.77-.15-1.42.58-1.16 1.32.5 1.37 1.12 2.72 1.88 4.02.72 1.25 1.54 2.42 2.43 3.5 1.16 1.4 3.11 1.84 4.77 1.1 7.67-3.45 8.29-11.77 8.35-13.32.71 1.13 1.7 2.06 2.88 2.68.83 1.56 4.63 9.67-1.36 16.65-.51.6-.21 1.52.56 1.66 1.43.25 2.92.39 4.42.39 1.45 0 2.86-.12 4.24-.36 1.79-.3 3.15-1.78 3.34-3.58.86-8.44-6.19-13.16-7.4-13.91 1.35-.05 2.61-.46 3.68-1.14 1.41.03 10.73.6 13.86 9.51.26.74 1.22.94 1.72.34.94-1.12 1.79-2.33 2.55-3.63.72-1.25 1.33-2.54 1.81-3.85.63-1.68.04-3.59-1.44-4.66zm-22.49-.53c-1.95 0-3.53-1.58-3.53-3.53s1.58-3.53 3.53-3.53 3.53 1.58 3.53 3.53-1.58 3.53-3.53 3.53z" fill="#6699d1"/><path d="m64 56.47c-4.16 0-7.53 3.37-7.53 7.53s3.37 7.53 7.53 7.53 7.53-3.37 7.53-7.53-3.37-7.53-7.53-7.53zm0 11.06c-1.95 0-3.53-1.58-3.53-3.53s1.58-3.53 3.53-3.53 3.53 1.58 3.53 3.53-1.58 3.53-3.53 3.53z" fill="#4c545e"/></g></svg>