<svg height="512" viewBox="0 0 128 128" width="512" xmlns="http://www.w3.org/2000/svg"><g><path d="m95.975 70.907a19.671 19.671 0 0 1 -13.915-5.745 32.207 32.207 0 0 1 -36.12 0 19.643 19.643 0 0 1 -20.851 4.467v52.065h77.822v-52.065a19.639 19.639 0 0 1 -6.936 1.278z" fill="#ffde3e"/><path d="m95.975 31.444c-.188 0-.37.023-.557.028a32.195 32.195 0 0 0 -62.836 0c-.187-.005-.369-.028-.557-.028a19.732 19.732 0 1 0 13.915 33.718 32.207 32.207 0 0 0 36.12 0 19.731 19.731 0 1 0 13.915-33.718z" fill="#8c3f07"/><path d="m43.74 67.05v54.64h-18.65v-52.06a19.607 19.607 0 0 0 18.65-2.58z" fill="#ef983b"/><path d="m82.06 65.162a32.046 32.046 0 0 1 -18.06 5.538v50.992h20.26v-54.668a19.864 19.864 0 0 1 -2.2-1.862z" fill="#ef983b"/><g fill="#422002"><path d="m25.089 103.878a1.749 1.749 0 0 0 1.75-1.75v-4.5a1.75 1.75 0 0 0 -3.5 0v4.5a1.75 1.75 0 0 0 1.75 1.75z"/><path d="m117.457 51.176a21.507 21.507 0 0 0 -20.669-21.466 33.679 33.679 0 0 0 -4.3-9.665 1.75 1.75 0 0 0 -2.936 1.906 30.159 30.159 0 0 1 4.16 9.9 1.741 1.741 0 0 0 1.764 1.368c.1 0 .2-.01.3-.017.066 0 .131-.011.2-.011a17.982 17.982 0 1 1 -12.682 30.73 1.752 1.752 0 0 0 -2.217-.208 30.452 30.452 0 0 1 -34.154 0 1.749 1.749 0 0 0 -2.217.208 17.981 17.981 0 1 1 -12.681-30.727c.067 0 .132.006.2.011.1.007.2.014.3.017a1.741 1.741 0 0 0 1.764-1.368 30.441 30.441 0 0 1 50.031-16.019 1.751 1.751 0 0 0 2.338-2.606 33.942 33.942 0 0 0 -55.445 16.481 21.471 21.471 0 0 0 -7.874 41.1v18.163a1.75 1.75 0 0 0 3.5 0v-16.973a21.158 21.158 0 0 0 15.151-1.808v49.751h-15.151v-9.578a1.75 1.75 0 0 0 -3.5 0v11.328a1.75 1.75 0 0 0 1.75 1.75h77.822a1.75 1.75 0 0 0 1.75-1.75v-50.887a21.5 21.5 0 0 0 12.796-19.63zm-35.59 16.2c.208.182.43.341.643.513v52.057h-16.76v-47.554a33.736 33.736 0 0 0 16.117-5.019zm-36.377.513c.213-.172.435-.331.643-.513a33.736 33.736 0 0 0 16.117 5.016v47.551h-16.76zm55.671 52.057h-15.151v-49.754a21.158 21.158 0 0 0 15.151 1.808z"/><path d="m62.756 48.678a1.75 1.75 0 1 0 -1.956 2.9l4.444 3a1.75 1.75 0 1 0 1.956-2.9z"/><path d="m74.231 24.118-2.447 2.576a1.75 1.75 0 1 0 2.538 2.41l2.447-2.576a1.75 1.75 0 0 0 -2.538-2.41z"/><path d="m48.446 29.129a1.75 1.75 0 0 0 -.495 3.465l6.31.9a1.75 1.75 0 1 0 .495-3.465z"/><path d="m93.659 49.61a1.739 1.739 0 0 0 .71-.15l4.636-2.06a1.75 1.75 0 1 0 -1.422-3.2l-4.636 2.061a1.75 1.75 0 0 0 .712 3.349z"/><path d="m30.4 48.509-.8 3.556a1.75 1.75 0 0 0 3.416.764l.8-3.557a1.75 1.75 0 0 0 -3.416-.763z"/></g></g></svg>