<svg height="512pt" viewBox="-96 0 512 512.00135" width="512pt" xmlns="http://www.w3.org/2000/svg"><path d="m282.394531 14.84375c-9.191406-10.035156-22.3125-15.421875-35.996093-14.7929688-25.085938 1.1601568-51.847657 4.6601568-79.539063 10.4062498-9.488281 1.96875-6.445313 16.648438 3.042969 14.679688 26.921875-5.585938 52.890625-8.988281 77.1875-10.113281 9.226562-.433594 18.070312 3.199218 24.25 9.945312 13.320312 14.542969 34.96875 46.179688 33.175781 96.863281-16.574219 8.066407-86.71875 38.9375-163.851563 25.347657l-5.320312-42.550782c-.894531-7.164062-10.824219-8.914062-14.109375-2.484375l-19.617187 38.339844c-12.722657-1.636719-35.738282-5.546875-44.613282-11.25-6.832031-4.394531-11.886718 2.816406-11.886718 8.804687v36.523438c-3.207032.03125-6.3125.476562-9.277344 1.28125-8.992188-11.289062-18.234375-30.058594-20.527344-34.835938-2.769531-31.390624 12.371094-70.625 21.730469-91.382812 2.84375-6.300781 9.800781-9.71875 16.53125-8.125 10.980469 2.597656 19.691406 5.324219 25.1875 7.890625 1.871093.871094 4.019531.933594 5.941406.171875.183594-.074219 18.859375-7.460938 47.683594-15.378906 9.347656-2.566406 5.375-17.023438-3.96875-14.457032-23.234375 6.382813-39.839844 12.347657-46.300781 14.773438-6.289063-2.585938-14.707032-5.132812-25.09375-7.589844-13.707032-3.242187-27.859376 3.722656-33.644532 16.554688-10.105468 22.410156-26.511718 65.25-22.855468 100.347656 1.3125 12.609375 14.570312 29.296875 21.773437 38.984375-8.316406 6.757813-13.644531 17.058594-13.644531 28.582031 0 20.308594 16.523437 36.828125 36.832031 36.828125h3.257813c8.957031 34.003907 33.789062 61.636719 66.0625 74.449219v16.9375c-.855469.191406-40.011719 25.417969-40.269532 25.640625-36.992187 7.324219-64.96875 40.007813-64.96875 79.109375 0 9.667969 14.988282 9.667969 14.988282 0 0-31.847656 22.796874-58.460938 52.929687-64.410156l50.347656 55.941406c3.03125 3.371094 8.351563 3.300781 11.292969-.171875l8.765625-10.363281v71.671875h-123.332031v-16.683594c0-9.667969-14.992188-9.667969-14.992188 0v24.179687c0 4.136719 3.355469 7.492188 7.496094 7.492188h276.636719c4.136719 0 7.492187-3.355469 7.492187-7.492188v-60.164062c0-39.09375-27.964844-71.769531-64.941406-79.105469-.261719-.222656-39.433594-25.460937-40.296875-25.648437v-16.886719c3.152344-1.246094 6.25-2.640625 9.277344-4.179687h7.734375c9.019531 0 16.8125-5.332032 20.398437-13.011719h22.703125c14.847656 0 26.929688-12.078125 26.929688-26.925781v-34.933594c11.378906-6.273438 19.109375-18.386719 19.109375-32.273438 0-11.140625-4.980469-21.136718-12.824219-27.894531 7.355469-16.519531 13.632812-37.519531 15.878906-45.363281 4.046875-1.839844 13.746094-4.953125 14.117188-11.125 3.535156-58.691406-21.589844-95.460938-36.882813-112.152344zm-17.121093 218.371094h-.398438c.507812-4.3125.769531-8.675782.769531-13.089844v-30.574219c11.871094.199219 21.46875 9.910157 21.46875 21.828125 0 12.039063-9.796875 21.835938-21.839843 21.835938zm-241.628907-21.835938c0-11.917968 9.601563-21.628906 21.472657-21.828125v30.589844c0 4.421875.269531 8.785156.777343 13.074219h-.410156c-12.039063 0-21.839844-9.796875-21.839844-21.835938zm196.253907 161.027344-42.347657 47.054688-12.78125-15.105469 31.703125-47.144531zm-129.015626 0 23.425782-15.195312 31.699218 47.144531-12.777343 15.105469zm195.320313 71.9375v52.664062h-123.316406v-71.671874l8.765625 10.363281c2.875 3.394531 8.324218 3.476562 11.292968.171875l50.347657-55.9375c30.121093 5.957031 52.910156 32.570312 52.910156 64.410156zm-105.242187-90.929688-25.570313 38.027344-25.589844-38.058594v-25.996093c8.210938 1.957031 16.773438 3.003906 25.578125 3.003906 8.722656 0 17.292969-1.019531 25.582032-2.980469zm39.519531-57.402343c0 4.148437-3.371094 7.519531-7.515625 7.519531h-17.019532c-4.144531 0-7.519531-3.371094-7.519531-7.519531 0-4.144531 3.375-7.515625 7.519531-7.515625h17.019532c4.144531-.003906 7.515625 3.371094 7.515625 7.515625zm47.523437-17.429688c0 6.582031-5.355468 11.9375-11.9375 11.9375h-21.273437c-2.460938-9.765625-11.3125-17.015625-21.828125-17.015625h-17.019532c-12.414062 0-22.507812 10.097656-22.507812 22.507813 0 6.3125 2.613281 12.023437 6.8125 16.117187-8.015625 2.152344-16.367188 3.269532-24.882812 3.269532-52.527344 0-95.257813-42.734376-95.257813-95.257813v-73.164063c17.324219 6.011719 41.707031 8.667969 45.046875 9.007813 3.089844.320313 6.03125-1.289063 7.4375-4.039063l10.894531-21.300781 2.976563 23.8125c.402344 3.195313 2.796875 5.777344 5.953125 6.417969 16.582031 3.351562 32.832031 4.703125 48.273437 4.703125 26.570313 0 50.714844-4.011719 69.960938-8.738281v63.285156c0 14.394531-3.125 28.222656-9.292969 41.097656-4.179687 8.730469 9.359375 15.160156 13.523437 6.472656 3.019532-6.308593 5.40625-12.820312 7.160157-19.488281 1.972656.027344 3.996093.03125 5.960937-.113281zm8.109375-102.398437c-3.316406-1.023438-6.832031-1.585938-10.472656-1.621094v-21.789062c8.050781-2.394532 15.308594-4.886719 21.628906-7.261719-2.839843 9.007812-6.824219 20.730469-11.15625 30.671875zm0 0"/><path d="m200.925781 457.664062c-9.667969 0-9.667969 14.992188 0 14.992188h60.058594c9.667969 0 9.667969-14.992188 0-14.992188zm0 0"/></svg>