<svg height="512" viewBox="0 0 88 88" width="512" xmlns="http://www.w3.org/2000/svg"><g id="Monitor"><path d="m57 75a5.0059 5.0059 0 0 1 -5-5v-6a1 1 0 0 0 -1-1h-14a1 1 0 0 0 -1 1v6a5.0059 5.0059 0 0 1 -5 5 1 1 0 0 0 0 2h26a1 1 0 0 0 0-2z" fill="#376cfb"/><rect fill="#e6ecff" height="60" rx="1" width="82" x="3" y="5"/><path d="m3 55v9a1 1 0 0 0 1 1h80a1 1 0 0 0 1-1v-9z" fill="#4294ff"/><path d="m45 61h-2a1 1 0 0 1 0-2h2a1 1 0 0 1 0 2z" fill="#376cfb"/><path d="m57 75h-26a6.0066 6.0066 0 0 0 -6 6v1a1 1 0 0 0 1 1h36a1 1 0 0 0 1-1v-1a6.0066 6.0066 0 0 0 -6-6z" fill="#4294ff"/><circle cx="37" cy="44" fill="#376cfb" r="4"/><circle cx="54" cy="44" fill="#376cfb" r="4"/><path d="m62 40h-31a1 1 0 0 1 0-2h25a1.0008 1.0008 0 0 0 .9365-.6484l6-16a1 1 0 0 0 -.9365-1.3516h-29.6l-1.4353-5.2627a1 1 0 0 0 -.9647-.7373h-4a1 1 0 0 0 0 2h3.2363l5.4545 20h-3.6908a3 3 0 0 0 0 6h31a1 1 0 0 0 0-2z" fill="#4294ff"/><path d="m49.707 25.293a.9994.9994 0 0 0 -1.414 0l-1.293 1.2929v-13.5859a1 1 0 0 0 -2 0v13.5859l-1.293-1.2929a1 1 0 0 0 -1.414 1.414l2.9987 2.9987a1.0006 1.0006 0 0 0 1.4166 0l2.9987-2.9987a.9994.9994 0 0 0 0-1.414z" fill="#376cfb"/></g></svg>