<svg height="512" viewBox="0 0 64 64" width="512" xmlns="http://www.w3.org/2000/svg"><g id="_14-Petri_Dish" data-name="14-Petri Dish"><path d="m41 57a16 16 0 1 1 16-16 16.019 16.019 0 0 1 -16 16zm0-30a14 14 0 1 0 14 14 14.015 14.015 0 0 0 -14-14z"/><path d="m41 53a12 12 0 1 1 12-12 12.013 12.013 0 0 1 -12 12zm0-22a10 10 0 1 0 10 10 10.011 10.011 0 0 0 -10-10z"/><path d="m35 41h-2a8.009 8.009 0 0 1 8-8v2a6.006 6.006 0 0 0 -6 6z"/><path d="m59 64a1 1 0 0 1 -.707-.293l-7-7a1 1 0 0 1 0-1.414l4-4a1 1 0 0 1 1.414 0l7 7a1 1 0 0 1 0 1.414l-4 4a1 1 0 0 1 -.707.293zm-5.586-8 5.586 5.586 2.586-2.586-5.586-5.586z"/><path d="m51.5 50.379h2v4.243h-2z" transform="matrix(.707 -.707 .707 .707 -21.746 52.5)"/><path d="m53.172 55h5.657v2h-5.657z" transform="matrix(.707 -.707 .707 .707 -23.196 56)"/><path d="m33 42h2v2h-2z"/><path d="m44 21h2v2h-2z"/><path d="m23 46h-18a5.006 5.006 0 0 1 -5-5v-36a5.006 5.006 0 0 1 5-5h36a5.006 5.006 0 0 1 5 5v14h-2v-14a3 3 0 0 0 -3-3h-36a3 3 0 0 0 -3 3v36a3 3 0 0 0 3 3h18z"/><path d="m23 42a19 19 0 1 1 19-19h-2a17 17 0 1 0 -17 17z"/><path d="m23 38a15 15 0 1 1 15-15h-2a13 13 0 1 0 -13 13z"/><path d="m25.757 22a2.756 2.756 0 0 1 -1.95-4.706 2.1 2.1 0 0 1 1.64-.6 1.674 1.674 0 0 0 .223-.008.835.835 0 0 0 .019-.234 2.1 2.1 0 0 1 .6-1.639 2.758 2.758 0 1 1 3.9 3.9 2.1 2.1 0 0 1 -1.64.6 1.674 1.674 0 0 0 -.223.008.835.835 0 0 0 -.019.234 2.1 2.1 0 0 1 -.6 1.639 2.752 2.752 0 0 1 -1.95.806zm.741-3.5a2.388 2.388 0 0 1 -1.051.187 1.512 1.512 0 0 0 -.224.009.769.769 0 0 0 0 1.08.757.757 0 0 0 1.07 0l.017-.018c0-.017 0-.127 0-.207a2.388 2.388 0 0 1 .19-1.051zm1.745-2.5a.754.754 0 0 0 -.536.222.777.777 0 0 0 -.018.225 2.388 2.388 0 0 1 -.189 1.053 2.388 2.388 0 0 1 1.051-.187 1.512 1.512 0 0 0 .224-.009.769.769 0 0 0 0-1.08.753.753 0 0 0 -.532-.224z"/><path d="m19.243 34a2.749 2.749 0 0 1 -1.95-.807 2.1 2.1 0 0 1 -.6-1.639 1.674 1.674 0 0 0 -.008-.223.835.835 0 0 0 -.234-.019 2.1 2.1 0 0 1 -1.639-.6 2.758 2.758 0 0 1 3.9-3.9 2.1 2.1 0 0 1 .6 1.64 1.674 1.674 0 0 0 .008.223.835.835 0 0 0 .234.019 2.1 2.1 0 0 1 1.639.6 2.757 2.757 0 0 1 -1.95 4.706zm-.743-3.5a2.388 2.388 0 0 1 .187 1.051 1.512 1.512 0 0 0 .009.224l-.7.708.707-.707a.757.757 0 0 0 1.071-1.071.777.777 0 0 0 -.225-.018 2.388 2.388 0 0 1 -1.049-.187zm-1.742-2.5a.758.758 0 0 0 -.536 1.293.777.777 0 0 0 .225.018 2.388 2.388 0 0 1 1.053.189 2.388 2.388 0 0 1 -.187-1.051 1.512 1.512 0 0 0 -.009-.224.782.782 0 0 0 -.546-.225z"/><path d="m20.293 20.707c-.438-.437-.81-.457-1.543-.457a3.632 3.632 0 0 1 -4-4c0-.733-.02-1.105-.457-1.543l1.414-1.414a3.728 3.728 0 0 1 1.043 2.957c0 .733.02 1.105.457 1.543s.81.457 1.543.457a3.728 3.728 0 0 1 2.957 1.043z"/><path d="m25.707 29.707-1.414-1.414a3.728 3.728 0 0 1 2.957-1.043c.733 0 1.105-.02 1.543-.457s.457-.81.457-1.543a3.728 3.728 0 0 1 1.043-2.957l1.414 1.414c-.437.438-.457.81-.457 1.543a3.632 3.632 0 0 1 -4 4c-.733 0-1.105.02-1.543.457z"/><path d="m21 12h2v2h-2z"/><path d="m19 14h2v2h-2z"/><path d="m12 24h2v2h-2z"/><path d="m13 20h2v2h-2z"/><path d="m22 23h2v2h-2z"/><path d="m32 19h2v2h-2z"/><path d="m24 32h2v2h-2z"/></g></svg>