<svg height="512" viewBox="0 0 64 64" width="512" xmlns="http://www.w3.org/2000/svg"><g id="_15-Cardiogram" data-name="15-Cardiogram"><path d="m62 42h2v2h-2z"/><path d="m61 53h-58a3 3 0 0 1 -3-3v-40a3 3 0 0 1 3-3h58a3 3 0 0 1 3 3v30h-2v-30a1 1 0 0 0 -1-1h-58a1 1 0 0 0 -1 1v40a1 1 0 0 0 1 1h58a1 1 0 0 0 1-1v-4h2v4a3 3 0 0 1 -3 3z"/><path d="m27 42a1 1 0 0 1 -.708-.294l-9.941-9.968a8.071 8.071 0 0 1 0-11.38 8.018 8.018 0 0 1 10.649-.632 8.018 8.018 0 0 1 10.649.632 8.07 8.07 0 0 1 0 11.38l-9.941 9.968a1 1 0 0 1 -.708.294zm-4.971-22a5.979 5.979 0 0 0 -4.262 1.771 6.068 6.068 0 0 0 0 8.555l9.233 9.258 9.233-9.258a6.066 6.066 0 0 0 0-8.555 6.015 6.015 0 0 0 -8.525 0 1.032 1.032 0 0 1 -1.416 0 5.98 5.98 0 0 0 -4.263-1.771z"/><path d="m4 18h2v2h-2z"/><path d="m47 49h-40a3 3 0 0 1 -3-3v-24h2v24a1 1 0 0 0 1 1h40a1 1 0 0 0 1-1v-3h2v3a3 3 0 0 1 -3 3z"/><path d="m50 41h-2v-27a1 1 0 0 0 -1-1h-40a1 1 0 0 0 -1 1v2h-2v-2a3 3 0 0 1 3-3h40a3 3 0 0 1 3 3z"/><path d="m56 21a5 5 0 1 1 5-5 5.006 5.006 0 0 1 -5 5zm0-8a3 3 0 1 0 3 3 3 3 0 0 0 -3-3z"/><path d="m59 49h-6a1 1 0 0 1 -1-1v-24a1 1 0 0 1 1-1h6a1 1 0 0 1 1 1v24a1 1 0 0 1 -1 1zm-5-2h4v-22h-4z"/><path d="m30 34a1 1 0 0 1 -.707-.293l-6.293-6.293-3.293 3.293a1 1 0 0 1 -.707.293h-11v-2h10.586l3.707-3.707a1 1 0 0 1 1.414 0l6.293 6.293 2.293-2.293a1 1 0 0 1 .707-.293h9v2h-8.586l-2.707 2.707a1 1 0 0 1 -.707.293z"/><path d="m44 29h2v2h-2z"/><path d="m40 43h6v2h-6z"/><path d="m36 43h2v2h-2z"/><path d="m36 39h10v2h-10z"/><path d="m12 43h6v2h-6z"/><path d="m8 43h2v2h-2z"/><path d="m8 39h10v2h-10z"/><path d="m53 27h6v2h-6z"/><path d="m11 57h-6a1 1 0 0 1 -1-1v-4a1 1 0 0 1 1-1h6a1 1 0 0 1 1 1v4a1 1 0 0 1 -1 1zm-5-2h4v-2h-4z"/><path d="m59 57h-6a1 1 0 0 1 -1-1v-4a1 1 0 0 1 1-1h6a1 1 0 0 1 1 1v4a1 1 0 0 1 -1 1zm-5-2h4v-2h-4z"/></g></svg>