<svg height="511pt" viewBox="-43 0 511 511.99931" width="511pt" xmlns="http://www.w3.org/2000/svg"><path d="m415.554688 363.234375c-3.96875-9.035156-9.117188-17.359375-14.097657-25.40625-13.40625-21.664063-26.066406-42.125-21.304687-79.554687 9.035156-71.046876 18.671875-138.328126-31.808594-198.167969-6.246094-7.40625-17.703125 2.257812-11.457031 9.664062 47.277343 56.039063 36.851562 120.230469 28.398437 186.613281-5.433594 42.691407 9.898438 67.472657 23.425782 89.332032 4.925781 7.957031 9.574218 15.472656 13.117187 23.542968 9.191406 20.933594 12.519531 52.480469-.757813 75.761719-8.691406 15.242188-23.066406 24.652344-42.757812 28.035157v-28.613282c0-10.296875-1.960938-20.136718-5.5-29.199218-11.167969-28.597657-38.210938-49.300782-70.25-51.195313-.679688-.203125-1.402344-.316406-2.148438-.316406-.5625 0-1.113281.070312-1.644531.1875-.335937-.003907-.671875-.027344-1.011719-.027344h-18.175781c-3.503906 0-6.355469-2.851563-6.355469-6.351563v-34.617187c4.875-1.925781 9.617188-4.1875 14.179688-6.804687 8.40625-4.820313.949219-17.824219-7.457031-13.003907-14.308594 8.203125-30.644531 12.539063-47.242188 12.539063-15.558593 0-30.253906-3.753906-43.230469-10.398438-30.78125-15.769531-51.894531-47.824218-51.894531-84.714844v-48.125c10.199219-46.503906 70.035157-29.085937 94.890625-63.351562 14.519532 20.011719 40.015625 19.578125 60.84375 28.054688 20.339844 8.277343 31.332032 17.773437 34.511719 36.414062v47.007812c0 21.953126-7.265625 42.570313-21.007813 59.628907-5.980468 7.421875 5.441407 17.136719 11.671876 9.402343 9.734374-12.078124 16.75-26.105468 20.675781-40.996093 2.890625-.632813 5.386719-.460938 6.300781 1.511719 0 21.625-8.011719 42.480468-22.019531 58.550781-2.664063-1.148438-5.601563-1.789063-8.6875-1.789063-12.132813 0-22 9.867188-22 22 0 12.132813 9.867187 22 22 22 12.132812 0 22.003906-9.867187 22.003906-22 0-3.574218-.863281-6.953125-2.382813-9.9375 16.582032-18.835937 26.078126-43.378906 26.078126-68.824218v-6.246094c31.839843-17.96875 19.1875-68.453125-17.640626-68.828125-1.664062-31.164063-31.746093-50.402344-59.730468-56.707031-22.273438-5.019532-40.894532-10.804688-43.167969-30.785157-.042969-.367187-.207031-72.417969-.207031-72.417969 14.890625.625 56.773437 4.898438 93.4375 32.300782 7.550781 5.644531 16.558594-6.335938 8.972656-12.007813-48.726562-36.417969-104.480469-35.4843748-108.402344-35.3710935h-1.152344c-.117187-.0078125-.234374-.01953125-.355468-.01953125s-.238282.01171875-.359375.01953125h-.152344c-2.171875-.0625-24-.4335935-51.914063 7.6679685-38.261718 11.101563-69.804687 33.046875-91.222656 63.457032-44.792968 63.605468-32.96875 130.824218-25.910156 170.984374 1.097656 6.234376 2.042969 11.621094 2.621094 16.140626 4.761718 37.429687-7.898438 57.890624-21.304688 79.554687-4.980468 8.050781-10.128906 16.371094-14.097656 25.40625-5.902344 13.445313-9.230469 29.121094-9.371094 44.128906-.15625 16.789063 3.589844 32.378907 10.832032 45.082031 11.25 19.726563 30.503906 32.035157 55.757812 35.761719v16.296875c0 4.140625 3.355469 7.496094 7.496094 7.496094h276.230468c4.140626 0 7.492188-3.355469 7.492188-7.496094v-16.292968c25.265625-3.726563 44.527344-16.035157 55.78125-35.765626 16.941406-29.710937 11.375-66.628906 1.460938-89.210937zm-127.808594-34.386719c0-3.867187 3.144531-7.015625 7.011718-7.015625 3.871094 0 7.015626 3.148438 7.015626 7.015625 0 3.867188-3.144532 7.011719-7.015626 7.011719-3.867187 0-7.011718-3.144531-7.011718-7.011719zm56.488281-117.058594c0 12.019532-9.777344 21.796876-21.796875 21.796876h-.417969c.519531-4.320313.796875-8.675782.796875-13.050782v-30.535156c11.84375.203125 21.417969 9.894531 21.417969 21.789062zm-131.53125 118.855469c8.636719 0 17.207031-1.023437 25.535156-3.003906v29.898437c0 11.765626 9.574219 21.339844 21.339844 21.339844h13.113281c-1.609375 27.792969-12.078125 52.226563-31.191406 72.722656-7.863281 8.433594-15.792969 14.585938-21.792969 18.652344v-11.097656c0-9.6875-14.988281-9.6875-14.988281 0v10.84375c-21.726562-13.8125-37.035156-33.234375-45.550781-57.925781-4.75-13.765625-6.160157-26-6.558594-33.195313h13.21875c11.765625 0 21.339844-9.574218 21.339844-21.34375v-29.886718c8.199219 1.953124 16.75 2.996093 25.535156 2.996093zm-109.335937-97.058593h-.394532c-12.019531 0-21.800781-9.78125-21.800781-21.796876 0-11.890624 9.574219-21.585937 21.421875-21.789062v30.535156c-.003906 4.414063.265625 8.769532.773438 13.050782zm239.957031 263.425781h-261.242188c0-25.234375-4.707031-57.878907 6.496094-81.058594 4.214844-8.722656-9.28125-15.246094-13.496094-6.519531-5.300781 10.964844-7.988281 22.746094-7.988281 35.007812v28.613282c-19.679688-3.386719-34.050781-12.800782-42.738281-28.035157-13.277344-23.28125-9.945313-54.828125-.757813-75.757812 3.542969-8.070313 8.195313-15.585938 13.117188-23.542969 13.53125-21.863281 28.863281-46.644531 23.429687-89.335938-.621093-4.871093-1.597656-10.421874-2.726562-16.84375-6.660157-37.867187-17.804688-101.246093 23.402343-159.757812 19.621094-27.859375 47.429688-47.222656 82.65625-57.550781 17.71875-5.195313 32.96875-6.675781 41.242188-7.082031 0 0 .019531 73.863281.050781 74.140624-3.148437 18.558594-21.316406 24.144532-42.917969 29.015626-36.351562 8.191406-58.859374 33.234374-58.894531 51.761718-.457031 1.410156-.453125 3.433594-.367187 4.945313-20.109375.207031-36.410156 16.621093-36.410156 36.777343 0 21.863282 18.925781 37.597657 40.03125 36.785157 7.996093 30.332031 28.636718 55.582031 55.921874 69.75 3.257813 1.691406 6.609376 3.226562 10.046876 4.59375v34.621093c0 9.765626-18.289063 6.109376-23.859376 6.351563-17.722656.773437-34.117187 5.066406-48.601562 15.804687-7.925781 5.871094 1.363281 17.644532 8.925781 12.039063 8.457031-6.269531 18.570313-10.503906 28.984375-12.089844.4375 8.15625 2.003906 21.527344 7.160156 36.707031 7.6875 22.640626 25.132813 53.769532 64.570313 73.492188 2.179687 1.03125 4.363281 1.054688 6.554687.074219.742188-.351563 18.414063-8.816407 36.109376-27.621094 15.296874-16.261719 33.339843-43.464844 35.636718-82.667969 31.472656 4.785156 55.664063 32.027344 55.664063 64.8125zm0 0"/><path d="m312.140625 464.652344h-32.976563c-9.691406 0-9.691406 14.988281 0 14.988281h32.976563c9.6875 0 9.6875-14.988281 0-14.988281zm0 0"/><path d="m221.328125 192.382812c-6.386719-1.683593-12.390625-.992187-17.136719.324219-4.648437-16.398437-19.742187-28.453125-37.609375-28.453125-21.554687 0-39.09375 17.539063-39.09375 39.097656 0 21.558594 17.539063 39.09375 39.09375 39.09375 19.960938 0 36.460938-15.035156 38.800781-34.375 3.320313-1.375 8.957032-2.820312 14.632813-.253906.214844 1.898438.566406 3.757813 1.046875 5.566406 4.441406 16.710938 19.695312 29.0625 37.785156 29.0625 21.554688 0 39.09375-17.535156 39.09375-39.09375 0-21.558593-17.539062-39.097656-39.09375-39.097656-3.859375 0-7.585937.574219-11.109375 1.617188-12.6875 3.769531-22.691406 13.808594-26.410156 26.511718zm61.625 10.96875c0 13.292969-10.8125 24.105469-24.105469 24.105469-13.292968 0-24.109375-10.8125-24.109375-24.105469 0-13.292968 10.816407-24.105468 24.109375-24.105468 13.292969 0 24.105469 10.8125 24.105469 24.105468zm-140.476563 0c0-13.292968 10.8125-24.105468 24.105469-24.105468s24.105469 10.8125 24.105469 24.105468c0 13.292969-10.8125 24.105469-24.105469 24.105469s-24.105469-10.8125-24.105469-24.105469zm0 0"/></svg>