<svg height="512" viewBox="0 0 88 88" width="512" xmlns="http://www.w3.org/2000/svg"><g id="Buy_Shirt" data-name="Buy Shirt"><path d="m57 75a5.0059 5.0059 0 0 1 -5-5v-6a1 1 0 0 0 -1-1h-14a1 1 0 0 0 -1 1v6a5.0059 5.0059 0 0 1 -5 5 1 1 0 0 0 0 2h26a1 1 0 0 0 0-2z" fill="#376cfb"/><rect fill="#e6ecff" height="60" rx="1" width="82" x="3" y="5"/><path d="m3 55v9a1 1 0 0 0 1 1h80a1 1 0 0 0 1-1v-9z" fill="#4294ff"/><path d="m45 61h-2a1 1 0 0 1 0-2h2a1 1 0 0 1 0 2z" fill="#376cfb"/><path d="m57 75h-26a6.0066 6.0066 0 0 0 -6 6v1a1 1 0 0 0 1 1h36a1 1 0 0 0 1-1v-1a6.0066 6.0066 0 0 0 -6-6z" fill="#4294ff"/><path d="m66.5879 23.1914-11-8a1.0024 1.0024 0 0 0 -.5879-.1914h-22a1.0028 1.0028 0 0 0 -.5884.1914l-11 8a1 1 0 0 0 -.1709 1.459l6 7a1.0017 1.0017 0 0 0 1.3838.1309l3.3755-2.7002v16.9189a1 1 0 0 0 1 1h22a1 1 0 0 0 1-1v-16.9189l3.375 2.7a1 1 0 0 0 1.3838-.1309l6-7a.9987.9987 0 0 0 -.1709-1.459z" fill="#4294ff"/><g fill="#376cfb"><path d="m50.93 15h-13.86a7.0017 7.0017 0 1 0 13.86 0z"/><path d="m15.293 34.707-2-2a.9994.9994 0 0 1 0-1.414l2-2a1 1 0 0 1 1.414 1.414l-1.2929 1.293 1.2929 1.293a1 1 0 0 1 -1.414 1.414z"/><path d="m71.293 34.707a.9994.9994 0 0 1 0-1.414l1.2929-1.293-1.2929-1.293a1 1 0 0 1 1.414-1.414l2 2a.9994.9994 0 0 1 0 1.414l-2 2a.9994.9994 0 0 1 -1.414 0z"/></g></g></svg>