<svg height="512" viewBox="0 0 128 128" width="512" xmlns="http://www.w3.org/2000/svg"><g><path d="m64 6.3a57.7 57.7 0 1 0 57.7 57.7 57.7 57.7 0 0 0 -57.7-57.7zm0 76.336a18.635 18.635 0 1 1 18.635-18.636 18.635 18.635 0 0 1 -18.635 18.635z" fill="#ef983b"/><path d="m106.721 52.841a15.781 15.781 0 0 1 -4.621-11.159 15.78 15.78 0 0 0 -15.782-15.782 15.781 15.781 0 0 1 -11.159-4.622 15.781 15.781 0 0 0 -22.318 0 15.781 15.781 0 0 1 -11.159 4.622 15.78 15.78 0 0 0 -15.782 15.782 15.781 15.781 0 0 1 -4.622 11.159 15.781 15.781 0 0 0 0 22.318 15.781 15.781 0 0 1 4.622 11.159 15.78 15.78 0 0 0 15.782 15.782 15.781 15.781 0 0 1 11.159 4.622 15.781 15.781 0 0 0 22.318 0 15.781 15.781 0 0 1 11.159-4.622 15.78 15.78 0 0 0 15.782-15.782 15.781 15.781 0 0 1 4.622-11.159 15.781 15.781 0 0 0 -.001-22.318zm-42.721 29.794a18.635 18.635 0 1 1 18.635-18.635 18.635 18.635 0 0 1 -18.635 18.635z" fill="#ffde3e"/><g fill="#422002"><path d="m20.534 103.7a1.748 1.748 0 0 1 -1.319-.6c-.86-.984-1.694-2-2.482-3.035a1.751 1.751 0 0 1 2.782-2.126c.741.97 1.527 1.932 2.337 2.859a1.75 1.75 0 0 1 -1.318 2.9z"/><path d="m64 123.451a59.37 59.37 0 0 1 -39.472-14.993 1.75 1.75 0 0 1 2.325-2.617 55.952 55.952 0 0 0 79.881-77.959 1.75 1.75 0 0 1 2.672-2.26 59.452 59.452 0 0 1 -45.406 97.829z"/><path d="m13.67 93.988a1.748 1.748 0 0 1 -1.527-.893 59.457 59.457 0 0 1 91.328-73.553 1.75 1.75 0 1 1 -2.325 2.616 55.961 55.961 0 0 0 -85.953 69.222 1.751 1.751 0 0 1 -1.523 2.608z"/><path d="m64 113.085a17.474 17.474 0 0 1 -12.4-5.127 13.942 13.942 0 0 0 -9.921-4.109 17.551 17.551 0 0 1 -17.528-17.531 13.947 13.947 0 0 0 -4.109-9.918 17.53 17.53 0 0 1 0-24.792 13.947 13.947 0 0 0 4.109-9.922 17.551 17.551 0 0 1 17.531-17.535 13.944 13.944 0 0 0 9.918-4.109 17.551 17.551 0 0 1 24.792 0 13.942 13.942 0 0 0 9.921 4.109 17.551 17.551 0 0 1 17.532 17.531 13.947 13.947 0 0 0 4.109 9.922 17.53 17.53 0 0 1 0 24.792 13.947 13.947 0 0 0 -4.109 9.922 17.551 17.551 0 0 1 -17.531 17.531 13.944 13.944 0 0 0 -9.922 4.109 17.474 17.474 0 0 1 -12.392 5.127zm0-94.671a13.989 13.989 0 0 0 -9.922 4.1 17.413 17.413 0 0 1 -12.4 5.135 14.047 14.047 0 0 0 -14.027 14.033 17.421 17.421 0 0 1 -5.134 12.4 14.029 14.029 0 0 0 0 19.842 17.421 17.421 0 0 1 5.134 12.4 14.047 14.047 0 0 0 14.031 14.031 17.414 17.414 0 0 1 12.4 5.135 14.05 14.05 0 0 0 19.844 0 17.413 17.413 0 0 1 12.395-5.135 14.047 14.047 0 0 0 14.032-14.031 17.421 17.421 0 0 1 5.134-12.4 14.029 14.029 0 0 0 0-19.842 17.421 17.421 0 0 1 -5.134-12.4 14.047 14.047 0 0 0 -14.035-14.031 17.414 17.414 0 0 1 -12.4-5.135 13.989 13.989 0 0 0 -9.918-4.102z"/><path d="m64 84.385a20.385 20.385 0 1 1 20.385-20.385 20.409 20.409 0 0 1 -20.385 20.385zm0-37.27a16.885 16.885 0 1 0 16.885 16.885 16.9 16.9 0 0 0 -16.885-16.885z"/><path d="m97.479 66.846a1.751 1.751 0 0 1 -1.566-.968l-1.86-3.721a1.75 1.75 0 0 1 3.131-1.566l1.86 3.722a1.751 1.751 0 0 1 -1.565 2.533z"/><path d="m38.233 46a1.75 1.75 0 0 1 -1.375-2.831l3.722-4.736a1.75 1.75 0 1 1 2.752 2.167l-3.722 4.732a1.744 1.744 0 0 1 -1.377.668z"/><path d="m59.884 96.459a1.75 1.75 0 0 1 -.286-3.476l6.089-1.015a1.75 1.75 0 1 1 .577 3.452l-6.09 1.015a1.8 1.8 0 0 1 -.29.024z"/><path d="m91.687 89.693a1.725 1.725 0 0 1 -.571-.1l-4.905-1.691a1.75 1.75 0 0 1 1.141-3.302l4.905 1.692a1.75 1.75 0 0 1 -.57 3.4z"/><path d="m37.388 89.693a1.75 1.75 0 0 1 -1.626-2.393l1.691-4.269a1.75 1.75 0 0 1 3.254 1.289l-1.691 4.269a1.752 1.752 0 0 1 -1.628 1.104z"/><path d="m65 35.219a1.751 1.751 0 0 1 -1.577-.99l-2.068-4.282a1.751 1.751 0 0 1 3.153-1.522l2.067 4.283a1.751 1.751 0 0 1 -1.575 2.511z"/><path d="m84.557 41.265a1.75 1.75 0 0 1 -.376-3.459l4.674-1.035a1.75 1.75 0 1 1 .756 3.417l-4.674 1.035a1.763 1.763 0 0 1 -.38.042z"/><path d="m35.649 67.323a1.765 1.765 0 0 1 -.509-.076l-5.173-1.573a1.75 1.75 0 1 1 1.017-3.348l5.173 1.574a1.75 1.75 0 0 1 -.508 3.425z"/></g></g></svg>