<svg enable-background="new 0 0 128 128" height="512" viewBox="0 0 128 128" width="512" xmlns="http://www.w3.org/2000/svg"><g id="Layer_18"><g fill="#373d44"><circle cx="32" cy="33.75" r="2"/><circle cx="88.96" cy="33.75" r="2"/><circle cx="32" cy="94.25" r="2"/><circle cx="89" cy="94.25" r="2"/><path d="m109.25 31.25v65.5c0 2.21-1.79 4-4 4h-11.25v-8c0-2.76-2.24-5-5-5h-.09c-2.76 0-5 2.24-5 5v8h-46.87v-8c0-2.76-2.24-5-5-5h-.08c-2.77 0-5 2.24-5 5v8h-4.21c-1.11 0-2.11-.45-2.83-1.17s-1.17-1.72-1.17-2.83v-65.5c0-2.21 1.79-4 4-4h4.21v8c0 2.76 2.23 5 5 5h.08c2.76 0 5-2.24 5-5v-8h46.87v8c0 2.76 2.24 5 5 5h.09c2.76 0 5-2.24 5-5v-8h11.25c2.21 0 4 1.79 4 4z"/><path d="m92.25 47.25v33.5c0 2.21-1.79 4-4 4h-50.5c-2.21 0-4-1.79-4-4v-33.5c0-2.21 1.79-4 4-4h50.5c2.21 0 4 1.79 4 4z"/></g><path d="m92.25 47.25v33.5c0 2.21-1.79 4-4 4h-50.5c-2.21 0-4-1.79-4-4v-33.5c0-2.21 1.79-4 4-4h50.5c2.21 0 4 1.79 4 4z" fill="#434a51"/><path d="m32 92.25c-1.11 0-2 .9-2 2 0 1.11.89 2 2 2 1.1 0 2-.89 2-2 0-1.1-.9-2-2-2zm0 0c-1.11 0-2 .9-2 2 0 1.11.89 2 2 2 1.1 0 2-.89 2-2 0-1.1-.9-2-2-2z" fill="#e5e7ea"/><path d="m32.04 87.75h-.08c-2.77 0-5 2.24-5 5v8h10.08v-8c0-2.76-2.24-5-5-5zm-.04 8.5c-1.11 0-2-.89-2-2 0-1.1.89-2 2-2 1.1 0 2 .9 2 2 0 1.11-.9 2-2 2z" fill="#e5e7ea"/><circle cx="32" cy="94.25" fill="#373d44" r="2"/><path d="m32 31.75c-1.11 0-2 .9-2 2 0 1.11.89 2 2 2 1.1 0 2-.89 2-2 0-1.1-.9-2-2-2zm0 0c-1.11 0-2 .9-2 2 0 1.11.89 2 2 2 1.1 0 2-.89 2-2 0-1.1-.9-2-2-2z" fill="#e5e7ea"/><path d="m26.96 27.25v8c0 2.76 2.23 5 5 5h.08c2.76 0 5-2.24 5-5v-8zm5.04 8.5c-1.11 0-2-.89-2-2 0-1.1.89-2 2-2 1.1 0 2 .9 2 2 0 1.11-.9 2-2 2z" fill="#e5e7ea"/><circle cx="32" cy="33.75" fill="#373d44" r="2"/><path d="m89 92.25c-1.11 0-2 .9-2 2 0 1.11.89 2 2 2 1.1 0 2-.89 2-2 0-1.1-.9-2-2-2zm0 0c-1.11 0-2 .9-2 2 0 1.11.89 2 2 2 1.1 0 2-.89 2-2 0-1.1-.9-2-2-2z" fill="#e5e7ea"/><path d="m89 87.75h-.09c-2.76 0-5 2.24-5 5v8h10.09v-8c0-2.76-2.24-5-5-5zm0 8.5c-1.11 0-2-.89-2-2 0-1.1.89-2 2-2 1.1 0 2 .9 2 2 0 1.11-.9 2-2 2z" fill="#e5e7ea"/><circle cx="89" cy="94.25" fill="#373d44" r="2"/><path d="m88.96 31.75c-1.11 0-2 .9-2 2 0 1.11.89 2 2 2 1.1 0 2-.89 2-2 0-1.1-.9-2-2-2zm0 0c-1.11 0-2 .9-2 2 0 1.11.89 2 2 2 1.1 0 2-.89 2-2 0-1.1-.9-2-2-2z" fill="#e5e7ea"/><path d="m83.91 27.25v8c0 2.76 2.24 5 5 5h.09c2.76 0 5-2.24 5-5v-8zm5.05 8.5c-1.11 0-2-.89-2-2 0-1.1.89-2 2-2 1.1 0 2 .9 2 2 0 1.11-.9 2-2 2z" fill="#e5e7ea"/><circle cx="88.96" cy="33.75" fill="#373d44" r="2"/><path d="m102.91 37.5h6.34v20.89h-6.34z" fill="#fdcc58"/><path d="m102.91 61.75h6.34v17.13h-6.34z" fill="#fdcc58"/><g><g><path d="m109.25 73.44v2h-3.17c-.55 0-1-.45-1-1s.45-1 1-1z" fill="#efbb54"/></g></g><g><g><path d="m109.25 68.63v2h-3.17c-.55 0-1-.45-1-1s.45-1 1-1z" fill="#efbb54"/></g></g><g><g><path d="m109.25 63.81v2h-3.17c-.55 0-1-.44-1-1 0-.55.45-1 1-1z" fill="#efbb54"/></g></g><g><g><path d="m109.25 54.32v2h-2.67c-.55 0-1-.45-1-1s.45-1 1-1z" fill="#efbb54"/></g></g><g><g><path d="m109.25 50.22v2h-2.67c-.55 0-1-.45-1-1s.45-1 1-1z" fill="#efbb54"/></g></g><g><g><path d="m109.25 48.13h-2.67c-.55 0-1-.45-1-1s.45-1 1-1h2.67z" fill="#efbb54"/></g></g><g><path d="m109.25 42.03v2h-2.67c-.55 0-1-.45-1-1s.45-1 1-1z" fill="#efbb54"/></g><g fill="#d9dadb"><path d="m54.56 65.26c-.26-.5-.62-.91-1.08-1.24s-1.01-.6-1.67-.83c-.65-.23-1.38-.44-2.19-.62-.65-.17-1.11-.29-1.39-.38-.28-.08-.55-.2-.83-.35-.27-.15-.49-.33-.64-.53-.16-.21-.24-.46-.24-.75 0-.46.23-.85.69-1.18s1.06-.5 1.81-.5c.81 0 1.4.16 1.76.46.37.3.68.72.94 1.26.2.38.39.65.56.82.17.16.43.25.76.25.36 0 .67-.14.91-.42.24-.27.37-.59.37-.93 0-.38-.1-.77-.3-1.16-.19-.4-.5-.78-.92-1.14-.43-.36-.96-.65-1.6-.87s-1.4-.33-2.28-.33c-1.1 0-2.06.17-2.87.5-.82.33-1.44.8-1.87 1.41s-.64 1.31-.64 2.1c0 .82.2 1.52.61 2.07.4.56.96 1 1.65 1.32s1.55.6 2.58.85c.77.17 1.38.34 1.84.49.46.16.84.39 1.13.68.29.3.43.68.43 1.16 0 .6-.27 1.1-.81 1.5-.53.4-1.23.6-2.09.6-.63 0-1.13-.1-1.51-.3-.39-.2-.69-.45-.9-.76-.21-.3-.41-.68-.59-1.14-.15-.38-.33-.67-.54-.87-.21-.19-.47-.29-.78-.29-.37 0-.69.13-.93.38s-.37.55-.37.9c0 .6.21 1.23.61 1.87.41.64.94 1.15 1.59 1.54.92.53 2.09.8 3.5.8 1.18 0 2.2-.2 3.05-.59.86-.39 1.52-.93 1.96-1.62.45-.69.67-1.47.67-2.33 0-.73-.13-1.34-.38-1.83z"/><path d="m68.28 67.09c0 .86-.22 1.64-.67 2.33-.44.69-1.1 1.23-1.96 1.62s-1.87.59-3.05.59c-1.41 0-2.58-.27-3.5-.8-.65-.39-1.18-.9-1.59-1.54-.4-.64-.61-1.27-.61-1.87 0-.35.13-.65.37-.9s.56-.38.93-.38c.31 0 .57.1.78.29.21.2.39.49.54.87.18.46.38.84.59 1.14.21.31.51.56.9.76.38.2.88.3 1.51.3.86 0 1.56-.2 2.09-.6.54-.4.81-.9.81-1.5 0-.48-.15-.86-.43-1.16-.29-.29-.67-.52-1.13-.68-.46-.15-1.07-.32-1.84-.49-1.03-.25-1.89-.53-2.58-.85s-1.25-.76-1.65-1.32c-.41-.55-.61-1.25-.61-2.07 0-.79.21-1.49.64-2.1s1.05-1.08 1.87-1.41c.81-.33 1.77-.5 2.87-.5.88 0 1.64.11 2.28.33s1.17.51 1.6.87c.42.36.73.74.92 1.14.2.39.3.78.3 1.16 0 .34-.13.66-.37.93-.24.28-.55.42-.91.42-.34 0-.59-.09-.76-.25-.17-.17-.36-.44-.56-.82-.26-.54-.57-.96-.94-1.26-.36-.3-.95-.46-1.76-.46-.75 0-1.35.17-1.81.5s-.69.72-.69 1.18c0 .29.08.54.24.75.15.2.37.38.64.53.28.15.55.27.83.35.28.09.74.21 1.39.38.81.18 1.54.39 2.19.62.66.23 1.21.5 1.67.83s.82.74 1.08 1.24c.25.49.38 1.1.38 1.83z"/><path d="m80.76 58.37c-.57-.51-1.21-.85-1.91-1.03-.71-.18-1.55-.27-2.53-.27h-3.78c-.63 0-1.08.14-1.36.42s-.42.73-.42 1.35v10.5c0 .47.04.84.12 1.13.09.29.26.51.53.67.26.16.66.24 1.19.24h3.78c.65 0 1.25-.04 1.77-.12.52-.09 1.01-.23 1.47-.44.45-.21.87-.49 1.26-.83.49-.45.89-.96 1.2-1.53s.54-1.21.69-1.92.23-1.49.23-2.35c0-2.61-.75-4.55-2.24-5.82zm-2.16 10.04c-.21.18-.47.33-.76.43-.29.11-.57.17-.85.2-.27.03-.65.04-1.13.04h-2.2v-9.72h1.92c.88 0 1.64.1 2.26.29.63.19 1.15.64 1.58 1.34.43.71.64 1.76.64 3.18 0 2-.49 3.41-1.46 4.24z"/></g><path d="m102.91 37.5v20.89h6.34v3.36h-6.34v17.13h6.34v4.04h-11.25v-49.67h11.25v4.25z" fill="#434a51"/></g></svg>