<svg height="512" viewBox="0 0 88 88" width="512" xmlns="http://www.w3.org/2000/svg"><g id="Customer_Service" data-name="Customer Service"><path d="m57 79a5.0059 5.0059 0 0 1 -5-5v-6a1 1 0 0 0 -1-1h-14a1 1 0 0 0 -1 1v6a5.0059 5.0059 0 0 1 -5 5 1 1 0 0 0 0 2h26a1 1 0 0 0 0-2z" fill="#376cfb"/><rect fill="#e6ecff" height="60" rx="1" width="82" x="3" y="9"/><path d="m3 59v9a1 1 0 0 0 1 1h80a1 1 0 0 0 1-1v-9z" fill="#4294ff"/><path d="m45 65h-2a1 1 0 0 1 0-2h2a1 1 0 0 1 0 2z" fill="#376cfb"/><path d="m57 79h-26a6.0066 6.0066 0 0 0 -6 6v1a1 1 0 0 0 1 1h36a1 1 0 0 0 1-1v-1a6.0066 6.0066 0 0 0 -6-6z" fill="#4294ff"/><path d="m44 1a19.0216 19.0216 0 0 0 -19 19v8a1 1 0 0 0 1 1h4a1 1 0 0 0 1-1v-8a13 13 0 0 1 26 0v8a1 1 0 0 0 1 1h4a1 1 0 0 0 1-1v-8a19.0216 19.0216 0 0 0 -19-19z" fill="#376cfb"/><path d="m58 50h-10a1 1 0 0 1 0-2h10a1.0006 1.0006 0 0 0 1-1v-3a1 1 0 0 1 2 0v3a3.0033 3.0033 0 0 1 -3 3z" fill="#376cfb"/><g fill="#4294ff"><path d="m46 46h-4a3 3 0 0 0 0 6h4a3 3 0 0 0 0-6z"/><path d="m32 27h-8a7.0085 7.0085 0 0 0 -7 7v4a7.0085 7.0085 0 0 0 7 7h8a1 1 0 0 0 1-1v-16a1 1 0 0 0 -1-1z"/><path d="m64 27h-8a1 1 0 0 0 -1 1v16a1 1 0 0 0 1 1h8a7.0085 7.0085 0 0 0 7-7v-4a7.0085 7.0085 0 0 0 -7-7z"/></g></g></svg>