<svg height="512pt" viewBox="-107 0 512 512" width="512pt" xmlns="http://www.w3.org/2000/svg"><path d="m199.085938 318.769531h7.679687c9.007813 0 16.792969-5.328125 20.375-12.996093h22.671875c14.832031 0 26.894531-12.0625 26.894531-26.890626v-34.886718c11.367188-6.265625 19.085938-18.363282 19.085938-32.234375 0-6.199219-1.550781-12.042969-4.273438-17.175781 4.652344-14.609376 7.015625-29.847657 7.015625-45.320313 0-82.304687-66.960937-149.265625-149.269531-149.265625-28.386719 0-56.003906 8.003906-79.867187 23.144531-8.171876 5.183594-.152344 17.824219 8.019531 12.640625 21.460937-13.617187 46.308593-20.8125 71.847656-20.8125 74.050781 0 134.296875 60.242188 134.296875 134.292969 0 10.890625-1.304688 21.648437-3.867188 32.101563-5.824218-3.972657-12.84375-6.316407-20.398437-6.375-1.113281-25.957032-15.21875-49.863282-37.394531-62.96875-12.601563-7.449219-27.046875-5.558594-43.777344-3.371094-19.949219 2.609375-38.277344 2.582031-58.117188-.324219-16.054687-2.351563-29.921874-4.378906-42.191406 2.625-23.007812 13.140625-37.605468 37.480469-38.621094 64.039063-7.539062.058593-14.546874 2.398437-20.363281 6.367187-2.5625-10.449219-3.859375-21.203125-3.859375-32.09375 0-33.835937 12.621094-66.15625 35.542969-91.015625 6.5625-7.113281-4.441406-17.261719-11.003906-10.148438-25.480469 27.628907-39.511719 63.558594-39.511719 101.164063 0 15.46875 2.359375 30.695313 7.003906 45.296875-2.730468 5.136719-4.28125 10.988281-4.28125 17.199219 0 20.28125 16.5 36.78125 36.78125 36.78125h3.253906c8.945313 33.960937 33.746094 61.558593 65.980469 74.355469v34.617187c0 3.511719-2.855469 6.363281-6.363281 6.363281h-18.183594c-44.421875 0-80.558594 36.136719-80.558594 80.550782v60.085937c0 4.132813 3.351563 7.484375 7.484376 7.484375h205.023437c9.679687 0 9.679687-14.972656 0-14.972656h-29.394531v-18.15625c0-4.132813-3.351563-7.484375-7.488282-7.484375h-22.503906v-1.238281c34.5-12.773438 52.949219-37.113282 62.441406-55.75 6.96875-13.683594 10.179688-26.152344 11.597657-33.453126 28.21875 7.324219 49.121093 33.007813 49.121093 63.484376v52.597656h-26.84375c-9.675781 0-9.675781 14.972656 0 14.972656h34.328126c4.136718 0 7.488281-3.351562 7.488281-7.484375v-60.085937c0-44.414063-36.140625-80.550782-80.5625-80.550782h-18.179688c-3.511719 0-6.367187-2.855468-6.367187-6.363281v-34.558594c3.164062-1.25 6.269531-2.644531 9.308594-4.1875zm-88.746094-11.441406v-35.566406c0-20.914063 17.015625-37.925781 37.929687-37.925781 20.914063 0 37.925781 17.011718 37.925781 37.925781v2.332031c-10.703124 1.71875-18.90625 11.015625-18.90625 22.195312 0 6.308594 2.613282 12.011719 6.808594 16.097657-8 2.148437-16.339844 3.265625-24.855468 3.265625-13.851563 0-27.019532-2.980469-38.902344-8.324219zm103.9375-11.039063c0 4.140626-3.371094 7.507813-7.511719 7.507813h-16.996094c-4.140625 0-7.507812-3.367187-7.507812-7.507813 0-4.140624 3.367187-7.507812 7.507812-7.507812h16.996094c4.140625 0 7.511719 3.367188 7.511719 7.507812zm44.734375-62.71875h-.414063c.515625-4.332031.78125-8.695312.78125-13.070312v-30.535156c11.855469.199218 21.441406 9.898437 21.441406 21.796875 0 12.027343-9.785156 21.808593-21.808593 21.808593zm-241.320313-21.808593c0-11.898438 9.585938-21.597657 21.445313-21.796875v30.546875c0 4.417969.269531 8.773437.777343 13.058593h-.410156c-12.027344 0-21.8125-9.78125-21.8125-21.808593zm36.414063 8.75v-42.558594c0-22.339844 11.929687-43.03125 31.136719-54 7.78125-4.445313 18.730468-2.839844 32.59375-.808594 21.097656 3.089844 41.101562 3.117188 62.234374.351563 14.554688-1.902344 26.054688-3.410156 34.214844 1.414062 18.582032 10.980469 30.121094 31.441406 30.121094 53.394532v42.195312c0 15.457031-3.589844 30.203125-10.667969 43.816406-4.460937 8.589844 8.820313 15.492188 13.285157 6.90625 3.742187-7.195312 6.652343-14.820312 8.714843-22.679687 1.988281.03125 4.019531.035156 5.996094-.113281v30.453124c0 6.570313-5.347656 11.917969-11.921875 11.917969h-20.40625c-.328125-1.246093-.976562-2.425781-1.957031-3.398437-.019531-.015625-.042969-.035156-.0625-.050782-3.460938-7.960937-11.402344-13.542968-20.621094-13.542968h-5.597656v-2.046875c0-29.167969-23.730469-52.898438-52.898438-52.898438-29.171875 0-52.902343 23.730469-52.902343 52.898438v27.117187c-24.902344-17.171875-41.261719-45.894531-41.261719-78.367187zm-35.503907 276.515625v-52.597656c0-30.484376 20.910157-56.171876 49.140626-63.488282 1.417968 7.296875 4.628906 19.769532 11.597656 33.457032 9.492187 18.636718 27.941406 42.976562 62.441406 55.75v1.238281h-22.507812c-4.132813 0-7.484376 3.351562-7.484376 7.484375v18.15625zm153.171876-.691406h-45.011719v-9.980469h45.011719zm44.148437-117.445313c-3.15625 15.386719-15.484375 56.261719-59.167969 75.128906-1.953125-9.863281-12.480468-9.070312-14.972656-.003906-21.433594-9.199219-37.847656-24.59375-48.847656-45.921875-6.09375-11.820312-9.003906-22.746094-10.324219-29.203125 5.085937-.121094 10.179687-.039063 15.265625-.039063 3.550781 25.183594 25.234375 44.625 51.382812 44.625 26.148438 0 47.832032-19.441406 51.382813-44.625 5.089844 0 10.191406-.082031 15.28125.039063zm-30.035156-2.675781c-2.292969 18.179687-17.839844 32.289062-36.628907 32.289062-18.792968 0-34.339843-14.109375-36.628906-32.289062 6.597656-3.632813 11.078125-10.652344 11.078125-18.699219v-29.890625c8.203125 1.957031 16.757813 2.996094 25.546875 2.996094 8.71875 0 17.277344-1.011719 25.550782-2.964844v29.859375c0 8.046875 4.484374 15.066406 11.082031 18.699219zm0 0"/><path d="m170.226562 273.261719c0-4.136719-3.351562-7.488281-7.484374-7.488281h-29.945313c-4.132813 0-7.484375 3.351562-7.484375 7.488281 0 4.132812 3.351562 7.484375 7.484375 7.484375h29.945313c4.132812 0 7.484374-3.351563 7.484374-7.484375zm0 0"/></svg>