<svg height="512" viewBox="0 0 64 64" width="512" xmlns="http://www.w3.org/2000/svg"><g id="_16-Flask" data-name="16-Flask"><path d="m45.583 64h-27.166a2.986 2.986 0 0 1 -1.935-.7 24 24 0 0 1 -4.959-30.823l1.706 1.044a21.995 21.995 0 0 0 4.548 28.254.98.98 0 0 0 .64.224h27.166a.984.984 0 0 0 .64-.223 22 22 0 0 0 -6.571-37.408 1 1 0 0 1 -.652-.936v-16.432a1 1 0 0 1 1-1 2 2 0 0 0 2-2.109 2.118 2.118 0 0 0 -2.17-1.891h-15.66a2.118 2.118 0 0 0 -2.17 1.891 2 2 0 0 0 2 2.109 1 1 0 0 1 1 1v16.432a1 1 0 0 1 -.652.937 21.928 21.928 0 0 0 -6.7 3.955l-1.3-1.515a23.906 23.906 0 0 1 6.652-4.062v-14.875a4.022 4.022 0 0 1 -1.9-1.118 3.97 3.97 0 0 1 -1.094-2.967 4.089 4.089 0 0 1 4.164-3.787h15.66a4.089 4.089 0 0 1 4.17 3.787 3.97 3.97 0 0 1 -1.1 2.967 4.022 4.022 0 0 1 -1.9 1.118v14.875a24 24 0 0 1 6.518 40.553 2.991 2.991 0 0 1 -1.935.7z"/><path d="m14.782 31.306-1.564-1.246c.483-.607 1-1.2 1.544-1.756l1.438 1.396c-.5.508-.974 1.049-1.418 1.606z"/><path d="m24 6h3v2h-3z"/><path d="m29 6h2v2h-2z"/><path d="m33 6h7v2h-7z"/><path d="m44.408 60h-24.818a2 2 0 0 1 -1.389-.552 20 20 0 1 1 27.6 0 2 2 0 0 1 -1.393.552zm-12.384-33a18.923 18.923 0 0 0 -2.065.113 18.183 18.183 0 0 0 -15.9 16.393 17.952 17.952 0 0 0 5.523 14.494h24.826a17.8 17.8 0 0 0 5.592-13 18.033 18.033 0 0 0 -5.991-13.409 17.8 17.8 0 0 0 -11.985-4.591z"/><path d="m44 37a3.564 3.564 0 0 1 -2.707-1.293c-.493-.49-.731-.707-1.293-.707s-.8.217-1.293.707a3.48 3.48 0 0 1 -5.414 0c-.493-.49-.731-.707-1.293-.707s-.8.217-1.293.707a3.48 3.48 0 0 1 -5.414 0c-.493-.49-.731-.707-1.293-.707s-.8.217-1.293.707a3.48 3.48 0 0 1 -5.414 0c-.493-.49-.731-.707-1.293-.707v-2a3.564 3.564 0 0 1 2.707 1.293c.49.49.73.707 1.293.707s.8-.217 1.293-.707a3.48 3.48 0 0 1 5.414 0c.49.49.73.707 1.293.707s.8-.217 1.293-.707a3.48 3.48 0 0 1 5.414 0c.49.49.73.707 1.293.707s.8-.217 1.293-.707a3.48 3.48 0 0 1 5.414 0c.49.49.73.707 1.293.707s.8-.217 1.293-.707a3.564 3.564 0 0 1 2.707-1.293v2c-.563 0-.8.217-1.293.707a3.564 3.564 0 0 1 -2.707 1.293z"/><path d="m25 48a4 4 0 1 1 4-4 4 4 0 0 1 -4 4zm0-6a2 2 0 1 0 2 2 2 2 0 0 0 -2-2z"/><path d="m42 54a3 3 0 1 1 3-3 3 3 0 0 1 -3 3zm0-4a1 1 0 1 0 1 1 1 1 0 0 0 -1-1z"/><path d="m40 39h2v2h-2z"/><path d="m36 43h2v2h-2z"/><path d="m21 53h2v2h-2z"/><path d="m25 51h2v2h-2z"/><path d="m31 54h2v2h-2z"/><path d="m31 40h2v2h-2z"/><path d="m46 43h2v2h-2z"/><path d="m16 43h2v2h-2z"/><path d="m35 10h2v10h-2z"/><path d="m35 22h2v2h-2z"/></g></svg>