<svg height="512" viewBox="0 0 128 128" width="512" xmlns="http://www.w3.org/2000/svg"><g><path d="m92.635 105.907a45.586 45.586 0 0 1 2.182-25.478 45.477 45.477 0 0 0 0-32.858 45.586 45.586 0 0 1 -2.182-25.478l.755-3.771a7.874 7.874 0 0 1 -1.548-2.522 7.885 7.885 0 0 0 -10.168-4.583l-2.123.8a7.883 7.883 0 0 1 -8.369-1.8l-1.605-1.601a7.887 7.887 0 0 0 -11.154 0 7.886 7.886 0 0 1 -8.818 1.614 7.887 7.887 0 0 0 -10.431 3.949l-.933 2.069a7.885 7.885 0 0 1 -7.19 4.646h-2.269a7.888 7.888 0 0 0 -7.888 7.887 7.888 7.888 0 0 1 -5.094 7.377 7.885 7.885 0 0 0 -4.583 10.168l.8 2.123a7.883 7.883 0 0 1 -1.8 8.369l-1.6 1.605a7.885 7.885 0 0 0 0 11.154 7.888 7.888 0 0 1 1.613 8.823 7.886 7.886 0 0 0 3.95 10.431l2.068.933a7.885 7.885 0 0 1 4.646 7.19v2.27a7.888 7.888 0 0 0 7.888 7.887 7.887 7.887 0 0 1 7.376 5.094 7.886 7.886 0 0 0 10.169 4.583l2.122-.8a7.883 7.883 0 0 1 8.369 1.8l1.605 1.605a7.887 7.887 0 0 0 11.154 0 7.886 7.886 0 0 1 8.823-1.623 7.887 7.887 0 0 0 10.431-3.949l.933-2.069a7.881 7.881 0 0 1 3.319-3.631z" fill="#f2e7cb"/><circle cx="64" cy="64" fill="#ffde3e" r="24.812"/><path d="m95.8 6.306-3.165 15.787a45.586 45.586 0 0 0 2.182 25.478 45.477 45.477 0 0 1 0 32.858 45.586 45.586 0 0 0 -2.182 25.478l3.165 15.787h23.8l-3.162-15.787a45.6 45.6 0 0 1 2.182-25.478 45.477 45.477 0 0 0 0-32.858 45.6 45.6 0 0 1 -2.182-25.478l3.162-15.787z" fill="#8c3f07"/><g fill="#422002"><path d="m64 37.438a26.563 26.563 0 1 0 26.563 26.562 26.593 26.593 0 0 0 -26.563-26.562zm0 49.625a23.063 23.063 0 1 1 23.063-23.063 23.089 23.089 0 0 1 -23.063 23.063z"/><path d="m78.369 62.25a1.75 1.75 0 0 0 -1.75 1.75 12.533 12.533 0 0 1 -3.7 8.923 1.75 1.75 0 1 0 2.481 2.477 16.01 16.01 0 0 0 4.719-11.4 1.75 1.75 0 0 0 -1.75-1.75z"/><path d="m74.167 55.6a1.751 1.751 0 0 0 1.238-2.987 16.049 16.049 0 0 0 -5.342-3.548 1.75 1.75 0 1 0 -1.318 3.235 12.574 12.574 0 0 1 4.183 2.779 1.743 1.743 0 0 0 1.239.521z"/><path d="m50.605 31.327a1.75 1.75 0 1 0 -1.329-3.238 39.077 39.077 0 0 0 -18.886 16.511 1.75 1.75 0 1 0 3.029 1.752 35.564 35.564 0 0 1 17.186-15.025z"/><path d="m28.3 53.894a1.753 1.753 0 0 0 -2.1 1.306 38.863 38.863 0 0 0 -.955 6.875 1.75 1.75 0 0 0 1.663 1.833h.086a1.751 1.751 0 0 0 1.747-1.665 35.333 35.333 0 0 1 .868-6.254 1.75 1.75 0 0 0 -1.309-2.095z"/><path d="m116.784 20.377a1.752 1.752 0 0 0 -2.059 1.372c-.3 1.5-.532 3.045-.686 4.589a1.75 1.75 0 1 0 3.482.348c.143-1.43.357-2.86.635-4.249a1.749 1.749 0 0 0 -1.372-2.06z"/><path d="m118.156 105.563a43.578 43.578 0 0 1 2.091-24.484 47 47 0 0 0 0-34.159 41.781 41.781 0 0 1 -2.847-12.75 1.75 1.75 0 1 0 -3.492.236 45.263 45.263 0 0 0 3.092 13.816 44.041 44.041 0 0 1 0 31.557 47.1 47.1 0 0 0 -2.273 26.472l2.742 13.692h-8.333l-2.881-14.38a43.578 43.578 0 0 1 2.091-24.484 47 47 0 0 0 0-34.159 43.573 43.573 0 0 1 -2.091-24.483l2.881-14.38h8.333l-.926 4.623a1.75 1.75 0 0 0 3.432.687l1.345-6.717a1.748 1.748 0 0 0 -1.72-2.093h-23.8a1.751 1.751 0 0 0 -1.716 1.406l-1.494 7.445a9.638 9.638 0 0 0 -11.536-3.828l-2.122.8a6.148 6.148 0 0 1 -6.513-1.4l-1.605-1.6a9.647 9.647 0 0 0 -13.629 0 6.17 6.17 0 0 1 -6.861 1.255 9.65 9.65 0 0 0 -12.745 4.825l-.933 2.069a6.147 6.147 0 0 1 -5.6 3.616h-2.264a9.648 9.648 0 0 0 -9.637 9.636 6.169 6.169 0 0 1 -3.964 5.74 9.649 9.649 0 0 0 -5.6 12.425l.8 2.121a6.15 6.15 0 0 1 -1.4 6.514l-1.605 1.6a9.648 9.648 0 0 0 0 13.628 6.17 6.17 0 0 1 1.256 6.862 9.648 9.648 0 0 0 4.828 12.751l2.069.932a6.147 6.147 0 0 1 3.616 5.595v2.27a9.648 9.648 0 0 0 9.637 9.636 6.168 6.168 0 0 1 5.739 3.965 9.638 9.638 0 0 0 12.425 5.6l2.122-.8a6.15 6.15 0 0 1 6.513 1.4l1.6 1.6a9.647 9.647 0 0 0 13.628 0 6.173 6.173 0 0 1 6.862-1.255 9.646 9.646 0 0 0 12.745-4.826l.933-2.069a6.114 6.114 0 0 1 .605-1.03l2.122 10.6a1.751 1.751 0 0 0 1.716 1.406h23.808a1.748 1.748 0 0 0 1.715-2.093zm-29.992 5.469-.934 2.07a6.139 6.139 0 0 1 -8.116 3.073 9.686 9.686 0 0 0 -10.774 1.971 6.145 6.145 0 0 1 -8.68 0l-1.6-1.6a9.659 9.659 0 0 0 -10.227-2.2l-2.122.8a6.137 6.137 0 0 1 -7.913-3.566 9.687 9.687 0 0 0 -9.012-6.225 6.142 6.142 0 0 1 -6.137-6.136v-2.27a9.655 9.655 0 0 0 -5.677-8.786l-2.072-.933a6.144 6.144 0 0 1 -3.074-8.117 9.684 9.684 0 0 0 -1.972-10.773 6.145 6.145 0 0 1 0-8.68l1.6-1.6a9.655 9.655 0 0 0 2.2-10.228l-.8-2.122a6.143 6.143 0 0 1 3.565-7.912 9.686 9.686 0 0 0 6.226-9.013 6.142 6.142 0 0 1 6.137-6.136h2.269a9.651 9.651 0 0 0 8.785-5.677l.933-2.07a6.141 6.141 0 0 1 8.117-3.073 9.689 9.689 0 0 0 10.774-1.975 6.145 6.145 0 0 1 8.68 0l1.6 1.6a9.652 9.652 0 0 0 10.227 2.2l2.123-.8a6.136 6.136 0 0 1 7.912 3.566 9.587 9.587 0 0 0 1.3 2.373l-.592 2.956a47.106 47.106 0 0 0 2.273 26.473 44.03 44.03 0 0 1 0 31.557 47.1 47.1 0 0 0 -2.273 26.472l.215 1.074a9.55 9.55 0 0 0 -2.961 3.707zm6.187-5.469a43.569 43.569 0 0 1 2.09-24.484 46.991 46.991 0 0 0 0-34.159 43.555 43.555 0 0 1 -2.09-24.483l2.88-14.38h8.334l-2.743 13.692a47.106 47.106 0 0 0 2.278 26.473 44.03 44.03 0 0 1 0 31.557 47.1 47.1 0 0 0 -2.273 26.472l2.743 13.692h-8.339z"/></g></g></svg>