<svg height="512" viewBox="0 0 128 128" width="512" xmlns="http://www.w3.org/2000/svg"><g><path d="m88.147 111.678c-11.081-9.3-23.942-25.7-23.942-51.735a48.179 48.179 0 0 1 3.472-18.436 94.42 94.42 0 0 0 -11.614-.7c-27.075 0-40.157 10.729-40.157 10.729l9.418 70.153h47.076a65.645 65.645 0 0 0 15.744-10.009z" fill="#ef3829"/><path d="m88.149 19.188s-23.944 10.551-23.944 40.755c0 45.733 39.693 61.749 39.693 61.749h-31.498s39.692-16.016 39.692-61.749c0-30.2-23.944-40.755-23.944-40.755z" fill="#ef983b"/><path d="m65.294 72.622h-46.558l3.03 22.568h52.051a63.975 63.975 0 0 1 -8.523-22.568z" fill="#f2e7cb"/><circle cx="93.03" cy="37.54" fill="#f2e7cb" r="3.386"/><path d="m80.24 6.308h-9.67v12.88h-9.67v-12.88h-9.67v12.88h-9.67v-12.88h-9.67v12.88h-9.67v28.59a64.97 64.97 0 0 1 13.2-4.65 88.4 88.4 0 0 1 20.64-2.32 93.845 93.845 0 0 1 11.61.7 43.989 43.989 0 0 1 12.57-17.108z" fill="#ffde3e"/><g fill="#422002"><path d="m23.747 109.942a1.749 1.749 0 0 0 1.5-1.966l-.6-4.46a1.749 1.749 0 1 0 -3.468.464l.6 4.46a1.751 1.751 0 0 0 1.732 1.518 1.723 1.723 0 0 0 .236-.016z"/><path d="m104.552 120.07a62.969 62.969 0 0 1 -13.713-8.515c10.99-9.805 23-26.31 23-51.611a1.75 1.75 0 0 0 -3.5 0c0 24.322-11.694 40.087-22.209 49.346-10.507-9.25-22.179-25-22.179-49.346a48.126 48.126 0 0 1 2.2-14.73c2.777 3.115 8.709 7.546 20 7.546 11.254 0 17.184-4.406 19.972-7.519a44.512 44.512 0 0 1 1.711 7.4 1.75 1.75 0 1 0 3.464-.5 47.424 47.424 0 0 0 -2.998-11.141 1.775 1.775 0 0 0 -.175-.408 45.842 45.842 0 0 0 -10.369-15.222c-5.282-5.118-10.756-7.931-11.607-7.931a1.754 1.754 0 0 0 -.706.149 34.678 34.678 0 0 0 -5.455 3.253v-14.534a1.749 1.749 0 0 0 -1.75-1.75h-9.67a1.75 1.75 0 0 0 -1.75 1.75v11.132h-6.17v-11.132a1.749 1.749 0 0 0 -1.75-1.75h-9.669a1.749 1.749 0 0 0 -1.75 1.75v11.132h-6.17v-11.132a1.75 1.75 0 0 0 -1.75-1.75h-9.67a1.749 1.749 0 0 0 -1.75 1.75v11.132h-7.92a1.75 1.75 0 0 0 -1.75 1.75v27.487a34.185 34.185 0 0 0 -5.669 3.511 1.751 1.751 0 0 0 -.625 1.585l5.861 43.651c0 .021.01.039.014.06.009.054.022.106.036.159a1.7 1.7 0 0 0 .051.162 1.477 1.477 0 0 0 .063.147c.025.051.051.1.08.147s.056.089.088.131.068.086.1.127.072.078.111.115.081.068.123.1a1.413 1.413 0 0 0 .133.1c.044.028.091.051.138.075a1.573 1.573 0 0 0 .149.072c.052.021.108.035.162.051s.1.032.151.042a1.816 1.816 0 0 0 .245.025c.029 0 .057.008.086.008h51.174a70.772 70.772 0 0 0 12.507 14.6 65.114 65.114 0 0 1 -13.406 8.4h-45.186l-.575-4.28a1.75 1.75 0 1 0 -3.468.465l.778 5.8a1.75 1.75 0 0 0 1.734 1.517h78.576a1.75 1.75 0 0 0 .655-3.373zm-16.413-98.933a42.85 42.85 0 0 1 18.531 20.28c-1.284 1.976-6.137 7.843-18.52 7.843-12.561 0-17.345-5.973-18.561-7.9a41.283 41.283 0 0 1 2.249-4.467 1.748 1.748 0 0 0 .378-.63 42.021 42.021 0 0 1 8.819-10.314 1.756 1.756 0 0 0 .579-.479 37.714 37.714 0 0 1 6.525-4.333zm-15.821-13.08h6.17v15.534a47.1 47.1 0 0 0 -3.59 3.456c-.845.905-1.713 1.923-2.58 3.033zm-3.5 12.882v14.328a45.154 45.154 0 0 0 -2.232 4.365q-1.945-.213-3.938-.348v-18.345zm-15.839-12.882h6.169v31.052q-1.535-.047-3.085-.047c-1.051 0-2.074.02-3.084.051zm-3.5 12.882v18.341q-3.242.213-6.17.611v-18.952zm-15.84-12.882h6.17v32.371c-2.208.388-4.261.842-6.17 1.338zm-9.67 12.882h6.17v21.826a65.224 65.224 0 0 0 -6.17 2.269zm32.094 21.623c3.126 0 6.206.154 9.2.447a50.5 50.5 0 0 0 -2.8 16.935 74.676 74.676 0 0 0 .79 10.93h-42.986l-2.488-18.535c3.121-2.149 15.805-9.777 38.284-9.777zm-32.763 50.879-2.56-19.067h43.118a65.527 65.527 0 0 0 6.99 19.067zm56.178 26.5a76.174 76.174 0 0 0 8.675-6.1 76.173 76.173 0 0 0 8.674 6.1z"/><path d="m93.03 42.678a5.137 5.137 0 1 0 -5.136-5.136 5.143 5.143 0 0 0 5.136 5.136zm0-6.773a1.637 1.637 0 1 1 -1.636 1.637 1.639 1.639 0 0 1 1.636-1.637z"/><path d="m101.492 73.288a1.752 1.752 0 0 0 -2.147 1.23 58.03 58.03 0 0 1 -6.377 14.863 1.75 1.75 0 1 0 2.993 1.819 61.481 61.481 0 0 0 6.762-15.759 1.75 1.75 0 0 0 -1.231-2.153z"/><path d="m104.2 68.211a34.314 34.314 0 0 0 .348-4.211 1.75 1.75 0 0 0 -3.5 0 31.974 31.974 0 0 1 -.319 3.744 1.75 1.75 0 0 0 1.5 1.968 1.723 1.723 0 0 0 .236.016 1.75 1.75 0 0 0 1.735-1.517z"/><path d="m77.54 55.588a1.747 1.747 0 0 0 -1.887 1.6 18.7 18.7 0 0 1 -4.744 10.33 1.749 1.749 0 0 0 .995 2.95 20.725 20.725 0 0 0 2.857.177c4.018 0 11.234-.963 14.906-7.351a1.75 1.75 0 1 0 -3.034-1.744c-2.526 4.393-7.593 5.4-10.944 5.559a22.746 22.746 0 0 0 3.453-9.635 1.751 1.751 0 0 0 -1.602-1.886z"/></g></g></svg>