<svg height="512" viewBox="0 0 88 88" width="512" xmlns="http://www.w3.org/2000/svg"><g id="Mouse_Buy" data-name="Mouse Buy"><path d="m32 79a13.0147 13.0147 0 0 1 -13-13v-18a1 1 0 0 1 2 0v18a11 11 0 0 0 22 0v-45a13 13 0 0 1 26 0v7a1 1 0 0 1 -2 0v-7a11 11 0 0 0 -22 0v45a13.0147 13.0147 0 0 1 -13 13z" fill="#376cfb"/><path d="m20 1a19.0216 19.0216 0 0 0 -19 19c0 10.2373 17.5449 27.957 18.292 28.7061a1 1 0 0 0 1.416 0c.7471-.7491 18.292-18.4688 18.292-28.7061a19.0216 19.0216 0 0 0 -19-19z" fill="#e6ecff"/><rect fill="#4294ff" height="8" rx="1" width="8" x="64" y="27"/><path d="m72 33h-8a15.0167 15.0167 0 0 0 -15 15v20a19 19 0 0 0 38 0v-20a15.0167 15.0167 0 0 0 -15-15z" fill="#e6ecff"/><g fill="#376cfb"><path d="m69 33v25a1 1 0 0 1 -2 0v-25z"/><circle cx="17" cy="29" r="3"/><circle cx="25" cy="29" r="3"/></g><path d="m13 24h13a1 1 0 0 0 .874-.5146l5-9a1 1 0 0 0 -.874-1.4854h-16.4692l-.5608-2.2422a1 1 0 0 0 -.97-.7578h-4a1 1 0 0 0 0 2h3.2192c.2221.8882.6487 2.5952 2.5 10h-1.7192a3 3 0 0 0 0 6h17a1 1 0 0 0 0-2h-17a1 1 0 0 1 0-2z" fill="#4294ff"/><path d="m68 40a4.0042 4.0042 0 0 0 -4 4v4a4 4 0 0 0 8 0v-4a4.0042 4.0042 0 0 0 -4-4z" fill="#4294ff"/><path d="m87 58v10a19 19 0 0 1 -38 0v-10z" fill="#d0dbf7"/></g></svg>