<svg height="512" viewBox="0 0 64 64" width="512" xmlns="http://www.w3.org/2000/svg"><g id="_17-Appointment" data-name="17-Appointment"><path d="m11 14a4 4 0 0 1 -4-4v-6a4 4 0 0 1 8 0v6a4 4 0 0 1 -4 4zm0-12a2 2 0 0 0 -2 2v6a2 2 0 0 0 4 0v-6a2 2 0 0 0 -2-2z"/><path d="m32 14a4 4 0 0 1 -4-4v-6a4 4 0 0 1 8 0v6a4 4 0 0 1 -4 4zm0-12a2 2 0 0 0 -2 2v6a2 2 0 0 0 4 0v-6a2 2 0 0 0 -2-2z"/><path d="m53 14a4 4 0 0 1 -4-4v-6a4 4 0 0 1 8 0v6a4 4 0 0 1 -4 4zm0-12a2 2 0 0 0 -2 2v6a2 2 0 0 0 4 0v-6a2 2 0 0 0 -2-2z"/><path d="m59 64h-54a5.006 5.006 0 0 1 -5-5v-48a5.006 5.006 0 0 1 5-5h4v2h-4a3 3 0 0 0 -3 3v48a3 3 0 0 0 3 3h54a3 3 0 0 0 3-3v-2h2v2a5.006 5.006 0 0 1 -5 5z"/><path d="m62 53h2v2h-2z"/><path d="m64 51h-2v-40a3 3 0 0 0 -3-3h-4v-2h4a5.006 5.006 0 0 1 5 5z"/><path d="m17 16h46v2h-46z"/><path d="m13 16h2v2h-2z"/><path d="m1 16h10v2h-10z"/><path d="m15 6h14v2h-14z"/><path d="m35 6h14v2h-14z"/><path d="m35 48h-6a1 1 0 0 1 -1-1v-3h-3a1 1 0 0 1 -1-1v-6a1 1 0 0 1 1-1h3v-3a1 1 0 0 1 1-1h6a1 1 0 0 1 1 1v3h3a1 1 0 0 1 1 1v6a1 1 0 0 1 -1 1h-3v3a1 1 0 0 1 -1 1zm-5-2h4v-3a1 1 0 0 1 1-1h3v-4h-3a1 1 0 0 1 -1-1v-3h-4v3a1 1 0 0 1 -1 1h-3v4h3a1 1 0 0 1 1 1z"/><path d="m32 57a17 17 0 1 1 17-17 17.019 17.019 0 0 1 -17 17zm0-32a15 15 0 1 0 15 15 15.017 15.017 0 0 0 -15-15z"/><path d="m45 40h-2a11.013 11.013 0 0 0 -11-11v-2a13.015 13.015 0 0 1 13 13z"/><path d="m43 42h2v2h-2z"/></g></svg>