<svg enable-background="new 0 0 128 128" height="512" viewBox="0 0 128 128" width="512" xmlns="http://www.w3.org/2000/svg"><g id="Layer_19"><path d="m18.75 32.09h90.5v59.51h-90.5z" fill="#434953"/><path d="m22.75 36.43h82.5v50.51h-82.5z" fill="#6699d1"/><path d="m118.67 90.6v2.33c0 3.32-2.69 6-6 6h-97.34c-3.31 0-6-2.68-6-6v-2.33z" fill="#e5e7ea"/><path d="m76.17 90.6c0 2.46-2 4.46-4.47 4.46h-15.4c-1.24 0-2.35-.5-3.16-1.31s-1.31-1.92-1.31-3.15z" fill="#cecece"/><path d="m88.2 36.43h10.74l4.34-4.34h-10.74z" fill="#373d44"/><path d="m88.2 36.43-16.67 16.67-5.36 10.73 10.73-5.36 22.04-22.04z" fill="#6194c1"/><path d="m105.84 27.53-28.94 28.94c-.19-3.39-1.98-5.18-5.37-5.37l28.94-28.94c3.39.19 5.18 1.98 5.37 5.37z" fill="#e5e7ea"/><g fill="#cecece"><path d="m109.1 24.27-3.26 3.26c-.19-3.39-1.98-5.18-5.37-5.37l3.26-3.26c1.49-1.48 3.89-1.48 5.37 0s1.48 3.88 0 5.37z"/><path d="m76.9 56.47-10.73 5.36 5.36-10.73c3.39.19 5.18 1.98 5.37 5.37z"/></g></g></svg>