<svg height="512pt" viewBox="-51 0 512 512.00106" width="512pt" xmlns="http://www.w3.org/2000/svg"><path d="m173.796875 442.167969c-9.644531 0-9.660156 14.988281 0 14.988281 9.644531 0 9.660156-14.988281 0-14.988281zm0 0"/><path d="m173.796875 472.144531c-9.644531 0-9.660156 14.992188 0 14.992188 9.644531 0 9.660156-14.992188 0-14.992188zm0 0"/><path d="m410.300781 283.785156c-4.144531-31.933594-11.542969-79.308594-23.25-123.636718-15.054687-57.019532-33.28125-93.304688-54.167969-107.851563-21.722656-15.125-41.417968-13.679687-51.023437-11.570313-9.667969-12.34375-25.660156-23.058593-45.707031-30.488281-22.835938-8.460937-49.113282-11.847656-74.007813-9.523437-34.445312 3.214844-97.042969 20.410156-129.277343 99.480468-3.558594 8.734376 10.21875 14.640626 13.882812 5.65625 29.246094-71.738281 85.722656-87.3125 116.789062-90.210937 48.628907-4.539063 92.175782 14.351563 107.601563 35.734375v18.566406c0 9.6875 14.988281 9.6875 14.988281 0v-14.832031c7.089844-1.367187 21.644532-2.03125 38.1875 9.488281 17.636719 12.28125 34.320313 46.648438 48.242188 99.375 11.503906 43.558594 18.789062 90.246094 22.875 121.742188 1.265625 9.742187-4.609375 19-13.96875 22.011718-17.25 5.554688-44.273438 13.292969-75.347656 18.789063-.289063-2.714844-1.074219-5.28125-2.261719-7.613281 16.582031-18.835938 26.078125-43.378906 26.078125-68.828125v-6.242188c11.191406-6.316406 18.769531-18.3125 18.769531-32.054687 0-20.285156-16.503906-36.785156-36.789063-36.785156h-4.984374c-.136719 0-.273438.011718-.410157.019531-23.128906-8.507813-20.445312-47.636719-20.414062-48.035157.007812-.085937.003906-.171874.007812-.257812.003907-.109375.015625-.210938.015625-.320312v-19.484376c0-9.691406-14.988281-9.691406-14.988281 0v17.839844c-2.851563 5.730469-17.078125 30.574219-53.945313 41.195313 5.117188-8.164063 9.472657-18.78125 8.96875-30.867188-.285156-6.90625-9.367187-9.710937-13.496093-4.167969-.371094.5-38.078125 49.851563-114.679688 44.101563-21.191406-1.605469-41.710937 13.507813-42.320312 35.734375-.601563 21.980469 18.519531 39.003906 40.019531 37.816406 8.949219 33.957032 33.742188 61.546875 65.96875 74.34375v9.8125c-60.195312-.519531-103.878906-10.21875-130.167969-18.394531-10.175781-3.164063-16.949219-12.800781-16.476562-23.433594 1.476562-33.089843 6.074219-96.589843 20.269531-150.082031 2.488281-9.363281-12.003906-13.210938-14.484375-3.84375-14.558594 54.851562-19.253906 119.5625-20.7578125 153.257812-.7773435 17.433594 10.3242185 33.230469 26.9999995 38.414063 27.273438 8.484375 72.53125 18.550781 134.617188 19.074219.757812 4.847656 1.09375 16.171875-6.355469 16.171875h-18.175781c-44.421875 0-80.558594 36.136719-80.558594 80.554687v60.066406c0 4.136719 3.355469 7.492188 7.492188 7.492188h37.203125c9.691406 0 9.691406-14.988281 0-14.988281h-29.707031v-52.570313c0-32.882812 24.332031-60.179687 55.941406-64.851562v21.535156c0 15.195312 12.359375 27.554688 27.550781 27.554688h39.648437v68.332031h-54.460937c-9.6875 0-9.6875 14.988281 0 14.988281h200.066406c4.136719 0 7.492188-3.355469 7.492188-7.492188v-60.066406c0-44.417968-36.136719-80.554687-80.558594-80.554687h-18.175781c-7.242188 0-7.054688-10.738281-6.355469-15.742188 9.527344-.210937 19.015625-.804687 28.351563-1.699219 9.300781 6.980469 23.199218 5.128907 30.40625-3.9375 34.992187-5.675781 65.578124-14.390624 84.59375-20.511718 16.242187-5.226563 26.4375-21.296875 24.246093-38.210938zm-133.078125 45.054688c0-3.867188 3.148438-7.011719 7.015625-7.011719 3.867188 0 7.011719 3.144531 7.011719 7.011719 0 3.867187-3.144531 7.011718-7.011719 7.011718-3.867187 0-7.015625-3.144531-7.015625-7.011718zm56.492188-117.0625c0 12.019531-9.777344 21.796875-21.796875 21.796875h-.421875c.515625-4.3125.800781-8.667969.800781-13.046875v-30.539063c11.84375.207031 21.417969 9.898438 21.417969 21.789063zm-241.273438 21.796875c-5.933594 0-11.484375-2.34375-15.625-6.597657-4.136718-4.253906-6.328125-9.871093-6.164062-15.816406.3125-11.359375 9.824218-20.652344 21.410156-21.15625v30.523438c0 4.414062.269531 8.765625.777344 13.046875zm176.699219 261.054687v-38.972656h29.980469v38.972656zm63.664063-50.191406v52.574219h-18.695313v-48.847657c0-4.140624-3.355469-7.496093-7.496094-7.496093h-44.964843c-4.140626 0-7.496094 3.355469-7.496094 7.496093v48.847657h-44.46875v-68.335938h39.648437c15.195313 0 27.554688-12.359375 27.554688-27.550781v-21.535156c31.59375 4.679687 55.917969 31.976562 55.917969 64.847656zm-83.746094-65.5625h12.839844v22.25c0 6.925781-5.636719 12.5625-12.566407 12.5625h-46.957031c-.0625 0-.121094-.007812-.183594-.007812s-.125.007812-.183594.007812h-46.960937c-6.925781 0-12.5625-5.636719-12.5625-12.5625v-22.25h12.816406c11.769531 0 21.34375-9.574219 21.34375-21.34375v-29.890625c8.199219 1.953125 16.746094 2.996094 25.535157 2.996094 8.644531 0 17.214843-1.015625 25.535156-2.992188v12.304688c-.027344.261719-.042969.527343-.042969.792969 0 .269531.015625.53125.042969.792968v16c0 11.765625 9.574218 21.339844 21.34375 21.339844zm-6.355469-55.957031c5.421875-2.144531 10.6875-4.714844 15.722656-7.710938 8.328125-4.957031.660157-17.839843-7.664062-12.882812-14.640625 8.71875-31.441407 13.324219-48.582031 13.324219-52.453126 0-95.125-42.671876-95.125-95.121094v-30.101563c38.972656.703125 67.785156-11.742187 85.566406-22.832031 3.648437-2.273438 6.988281-4.578125 10.007812-6.832031-4.699218 6.617187-9.59375 10.726562-9.679687 10.796875-5.65625 4.628906-1.679688 14.046875 5.570312 13.25 38.679688-4.296875 61.515625-21.675782 74.027344-35.882813 2.519531 13.988281 8.929687 30.574219 24.757813 38.429688v33.171875c0 22.476562-7.980469 44.285156-22.476563 61.414062-6.183594 7.304688 5.0625 17.21875 11.4375 9.683594 10.640625-12.570312 18.238281-27.320312 22.382813-43.058594 2.886718-.632812 5.382812-.464844 6.300781 1.511719 0 21.621094-8.015625 42.480469-22.019531 58.550781-2.667969-1.148437-5.605469-1.789062-8.691407-1.789062-12.132812 0-22 9.867187-22 22 0 1.128906.085938 2.234375.246094 3.316406-6.546875.507812-13.15625.84375-19.78125.992188zm0 0"/><path d="m230.753906 442.167969c-9.644531 0-9.660156 14.988281 0 14.988281 9.644532 0 9.660156-14.988281 0-14.988281zm0 0"/><path d="m230.753906 472.144531c-9.644531 0-9.660156 14.992188 0 14.992188 9.644532 0 9.660156-14.992188 0-14.992188zm0 0"/></svg>