<svg enable-background="new 0 0 128 128" height="512" viewBox="0 0 128 128" width="512" xmlns="http://www.w3.org/2000/svg"><g id="Layer_20"><path d="m75.55 94.5c.03 2.32.56 4.62 1.55 6.76l.57 1.22h4.49c1.1 0 2 .9 2 2 0 .55-.22 1.05-.59 1.41-.36.36-.86.59-1.41.59h-36.48c-1.1 0-2-.9-2-2 0-.55.22-1.05.59-1.41.36-.36.86-.59 1.41-.59h4.65l.57-1.22c.99-2.14 1.52-4.44 1.55-6.76v-3.56h-33.7v-58.51h90.5v58.51h-33.7z" fill="#434953"/><path d="m22.75 36.43h82.5v50.51h-82.5z" fill="#434953"/><path d="m22.75 36.43h82.5v50.51h-82.5z" fill="#6699d1"/><g><path d="m105.25 36.53v2.39l-16.61 10.73c-.17.11-.36.16-.55.16-.32 0-.65-.16-.84-.45-.02-.03-.03-.05-.04-.08-.24-.46-.09-1.03.34-1.31z" fill="#6194c1"/></g><g><path d="m44.45 75.39-17.86 11.55h-1.84v-1.2l18.61-12.03c.47-.3 1.09-.17 1.39.3.3.46.16 1.08-.3 1.38z" fill="#6194c1"/></g><g fill="#6194c1"><path d="m41 65.99v-8.89c-1.65 1.27-2.77 1.9-3.34 1.9-.27 0-.52-.11-.73-.33s-.32-.47-.32-.76c0-.33.1-.58.31-.73s.58-.36 1.1-.61c.79-.37 1.42-.76 1.89-1.17s.89-.87 1.25-1.38.6-.82.71-.94.32-.18.63-.18c.34 0 .62.13.83.4s.31.63.31 1.1v11.18c0 1.31-.45 1.96-1.34 1.96-.4 0-.72-.13-.96-.4s-.34-.63-.34-1.15z"/><path d="m54.24 66.08v-1.82h-4.9c-.62 0-1.08-.14-1.39-.42s-.46-.66-.46-1.14c0-.12.02-.25.07-.38s.11-.26.21-.4.19-.27.28-.41.22-.29.36-.48l5.18-6.92c.34-.46.62-.79.83-.99s.48-.31.79-.31c.99 0 1.48.57 1.48 1.7v7.56h.42c.5 0 .9.07 1.21.21s.45.44.45.9c0 .38-.12.65-.37.83s-.62.26-1.11.26h-.6v1.82c0 .5-.11.87-.33 1.12s-.52.37-.89.37c-.36 0-.66-.13-.88-.38s-.35-.63-.35-1.12zm-4.2-4h4.2v-5.67z"/><path d="m66.13 66.08v-1.82h-4.9c-.62 0-1.08-.14-1.39-.42s-.46-.66-.46-1.14c0-.12.02-.25.07-.38s.11-.26.21-.4.19-.27.28-.41.22-.29.36-.48l5.18-6.92c.34-.46.62-.79.83-.99s.48-.31.79-.31c.99 0 1.48.57 1.48 1.7v7.56h.42c.5 0 .9.07 1.21.21s.45.44.45.9c0 .38-.12.65-.37.83s-.62.26-1.11.26h-.6v1.82c0 .5-.11.87-.33 1.12s-.52.37-.89.37c-.36 0-.66-.13-.88-.38s-.35-.63-.35-1.12zm-4.2-4h4.2v-5.67z"/><path d="m75.49 54.52v4.1h6.26v-4.1c0-.59.13-1.03.4-1.32s.61-.44 1.04-.44c.44 0 .79.15 1.06.43s.41.73.41 1.32v11.29c0 .59-.14 1.04-.41 1.33s-.63.44-1.05.44c-.44 0-.78-.15-1.04-.44s-.39-.74-.39-1.32v-4.81h-6.26v4.81c0 .59-.14 1.04-.41 1.33s-.63.44-1.05.44c-.44 0-.78-.15-1.04-.44s-.39-.74-.39-1.32v-11.3c0-.59.13-1.03.39-1.32s.61-.44 1.05-.44.79.15 1.06.43.37.74.37 1.33z"/><path d="m94.83 59.79-4.88 5.46h5.22c.42 0 .74.1.96.3s.32.45.32.77c0 .3-.11.54-.32.73s-.53.28-.96.28h-7.23c-.51 0-.89-.11-1.14-.33s-.38-.52-.38-.91c0-.23.09-.46.26-.69s.54-.66 1.09-1.27c.59-.65 1.12-1.24 1.6-1.77s.92-1.02 1.33-1.48.75-.85 1.02-1.17.49-.59.65-.82h-3.96c-.55 0-.96-.05-1.24-.15s-.42-.35-.42-.77c0-.31.11-.55.32-.73s.51-.27.9-.27h6.12c.57 0 1 .08 1.3.25s.45.46.45.89c0 .14-.03.29-.09.44s-.12.28-.2.38-.17.22-.29.36-.25.3-.43.5z"/></g><g><g fill="#e5e7ea"><path d="m39 65.99v-8.89c-1.65 1.27-2.77 1.9-3.34 1.9-.27 0-.52-.11-.73-.33s-.32-.47-.32-.76c0-.33.1-.58.31-.73s.58-.36 1.1-.61c.79-.37 1.42-.76 1.89-1.17s.89-.87 1.25-1.38.6-.82.71-.94.32-.18.63-.18c.34 0 .62.13.83.4s.31.63.31 1.1v11.18c0 1.31-.45 1.96-1.34 1.96-.4 0-.72-.13-.96-.4s-.34-.63-.34-1.15z"/><path d="m52.24 66.08v-1.82h-4.9c-.62 0-1.08-.14-1.39-.42s-.46-.66-.46-1.14c0-.12.02-.25.07-.38s.11-.26.21-.4.19-.27.28-.41.22-.29.36-.48l5.18-6.92c.34-.46.62-.79.83-.99s.48-.31.79-.31c.99 0 1.48.57 1.48 1.7v7.56h.42c.5 0 .9.07 1.21.21s.45.44.45.9c0 .38-.12.65-.37.83s-.62.26-1.11.26h-.6v1.82c0 .5-.11.87-.33 1.12s-.52.37-.89.37c-.36 0-.66-.13-.88-.38s-.35-.63-.35-1.12zm-4.2-4h4.2v-5.67z"/><path d="m64.13 66.08v-1.82h-4.9c-.62 0-1.08-.14-1.39-.42s-.46-.66-.46-1.14c0-.12.02-.25.07-.38s.11-.26.21-.4.19-.27.28-.41.22-.29.36-.48l5.18-6.92c.34-.46.62-.79.83-.99s.48-.31.79-.31c.99 0 1.48.57 1.48 1.7v7.56h.42c.5 0 .9.07 1.21.21s.45.44.45.9c0 .38-.12.65-.37.83s-.62.26-1.11.26h-.6v1.82c0 .5-.11.87-.33 1.12s-.52.37-.89.37c-.36 0-.66-.13-.88-.38s-.35-.63-.35-1.12zm-4.2-4h4.2v-5.67z"/><path d="m73.49 54.52v4.1h6.26v-4.1c0-.59.13-1.03.4-1.32s.61-.44 1.04-.44c.44 0 .79.15 1.06.43s.41.73.41 1.32v11.29c0 .59-.14 1.04-.41 1.33s-.63.44-1.05.44c-.44 0-.78-.15-1.04-.44s-.39-.74-.39-1.32v-4.81h-6.26v4.81c0 .59-.14 1.04-.41 1.33s-.63.44-1.05.44c-.44 0-.78-.15-1.04-.44s-.39-.74-.39-1.32v-11.3c0-.59.13-1.03.39-1.32s.61-.44 1.05-.44.79.15 1.06.43.37.74.37 1.33z"/><path d="m92.83 59.79-4.88 5.46h5.22c.42 0 .74.1.96.3s.32.45.32.77c0 .3-.11.54-.32.73s-.53.28-.96.28h-7.23c-.51 0-.89-.11-1.14-.33s-.38-.52-.38-.91c0-.23.09-.46.26-.69s.54-.66 1.09-1.27c.59-.65 1.12-1.24 1.6-1.77s.92-1.02 1.33-1.48.75-.85 1.02-1.17.49-.59.65-.82h-3.96c-.55 0-.96-.05-1.24-.15s-.42-.35-.42-.77c0-.31.11-.55.32-.73s.51-.27.9-.27h6.12c.57 0 1 .08 1.3.25s.45.46.45.89c0 .14-.03.29-.09.44s-.12.28-.2.38-.17.22-.29.36-.25.3-.43.5z"/></g></g><path d="m77.67 102.48h-27.34l.57-1.22c.99-2.14 1.52-4.44 1.55-6.76v-3.56h23.1v3.56c.03 2.32.56 4.62 1.55 6.76z" fill="#373d44"/><path d="m75.56 94.5h-23.12c0-.07.01-.13.01-.2v-3.36h23.1v3.36c0 .07.01.13.01.2z" fill="#2e3338"/><g><g><path d="m105.25 36.43v1.2l-18.04 11.65-.57.37c-.17.11-.36.16-.55.16-.32 0-.65-.16-.84-.45-.3-.47-.16-1.09.3-1.39l17.86-11.54z" fill="#e5e7ea"/></g></g><g><g><path d="m42.45 75.39-17.86 11.55h-1.84v-1.2l18.61-12.03c.47-.3 1.09-.17 1.39.3.3.46.16 1.08-.3 1.38z" fill="#e5e7ea"/></g></g></g></svg>