<svg height="512pt" viewBox="-110 0 512 512" width="512pt" xmlns="http://www.w3.org/2000/svg"><path d="m219.671875 364.160156c-11.347656-20.042968-26.625-26.1875-32.566406-27.882812v-13.78125c32.203125-12.769532 57.007812-40.28125 66.058593-74.15625 2.871094-.632813 5.347657-.476563 6.25 1.511718 0 21.644532-8.023437 42.519532-22.039062 58.605469-2.671875-1.152343-5.609375-1.792969-8.699219-1.792969-12.140625 0-22.019531 9.875-22.019531 22.019532 0 12.140625 9.878906 22.019531 22.019531 22.019531 12.144531 0 22.023438-9.878906 22.023438-22.019531 0-3.578125-.863281-6.957032-2.382813-9.949219 16.59375-18.847656 26.097656-43.414063 26.097656-68.882813v-6.25c16.945313-9.5625 23.679688-31.371093 14.753907-48.796874.425781-9.457032 2.34375-55.832032-.113281-77.933594-3.183594-28.648438-17.011719-56.945313-37.933594-77.644532-6.894532-6.824218-17.445313 3.84375-10.550782 10.664063 18.527344 18.324219 30.761719 43.34375 33.574219 68.636719 1.671875 15.042968 1.148438 43.261718.582031 61.09375-5.265624-3.042969-11.347656-4.816406-17.832031-4.90625v-20.488282c0-13.242187-3.589843-25.40625-10.378906-35.179687-18.992187-27.34375-50.363281-24.496094-76.625-11.03125-16.554687 8.488281-35.3125 18.109375-67.363281 11.699219-33.054688-6.609375-66.320313 11.835937-66.320313 48.511718v6.503907c-6.441406.195312-12.515625 2.023437-17.78125 5.097656-.578125-17.464844-1.148437-45.984375.550781-61.300781 2.796876-25.164063 14.941407-50.089844 33.320313-68.382813 23.097656-22.988281 55.527344-35.144531 93.792969-35.144531h.941406c25.921875 0 48.929688 5.425781 68.375 16.128906 8.5 4.671875 15.730469-8.46875 7.234375-13.144531-21.691406-11.933594-47.128906-17.984375-75.609375-17.984375h-.941406c-42.316406 0-78.40625 13.664062-104.375 39.511719-20.761719 20.664062-34.484375 48.859375-37.648438 77.359375-2.566406 23.105468-.359375 71.859375-.066406 78.003906-7.191406 13.746094-4.453125 31.238281 6.328125 42.320312 6.992187 7.1875 16.367187 11.144532 26.394531 11.144532h3.195313c3.484375 13.117187 9.378906 25.511718 17.558593 36.683594 5.734376 7.824218 17.835938-1.042969 12.105469-8.867188-12.019531-16.40625-18.371093-35.863281-18.371093-56.265625v-51.660156c0-27.03125 24.605468-38.5625 48.375-33.804688 37.179687 7.4375 59.34375-3.929687 77.152343-13.058593 30.234375-15.507813 65.15625-7.058594 65.15625 32.859374v65.664063c0 52.5625-42.773437 95.328125-95.34375 95.328125-20.582031 0-40.175781-6.453125-56.664062-18.65625-7.792969-5.769531-16.71875 6.289062-8.925781 12.058594 7.800781 5.773437 16.203124 10.414062 25.03125 13.90625v13.757812c-5.953126 1.703125-21.207032 7.855469-32.542969 27.875-40.722657 4.023438-72.636719 38.464844-72.636719 80.222656v60.117188c0 4.140625 3.359375 7.5 7.5 7.5h202.257812c9.695313 0 9.695313-15 0-15h-38.503906v-87.894531c0-2.390625-1.144531-4.640625-3.070312-6.050781l-8.847656-6.480469 24.984374-19.507813c7.328126 3.121094 17.296876 1.695313 25.03125 1.695313 4.289063 10.195312 7.472657 24.023437 7.964844 42.726562-13.078125 3.234375-22.800781 15.0625-22.800781 29.125 0 16.542969 13.457031 30 30.003906 30 16.542969 0 30.003907-13.457031 30.003907-30 0-13.84375-9.429688-25.523437-22.199219-28.96875-.398438-16.71875-2.796875-30.21875-6.335938-41.101562 28.90625 6.855469 50.488281 32.867187 50.488281 63.839843v52.617188h-34.714843c-9.699219 0-9.699219 15 0 15h42.214843c4.144532 0 7.5-3.359375 7.5-7.5v-60.117188c0-41.753906-31.90625-76.1875-72.617187-80.222656zm1.984375-35.476562c0-3.871094 3.148438-7.019532 7.019531-7.019532 3.875 0 7.023438 3.148438 7.023438 7.019532s-3.148438 7.019531-7.023438 7.019531c-3.871093 0-7.019531-3.148437-7.019531-7.019531zm-184.9375-95.34375c-5.941406 0-11.496094-2.347656-15.640625-6.605469-4.140625-4.257813-6.332031-9.878906-6.167969-15.832031.308594-11.320313 9.757813-20.601563 21.292969-21.167969v30.152344c0 4.53125.277344 9.019531.8125 13.449219h-.296875zm241.476562-21.816406c0 12.027343-9.785156 21.816406-21.816406 21.816406h-.308594c.539063-4.410156.820313-8.898438.820313-13.449219v-30.171875c11.796875.277344 21.304687 9.945312 21.304687 21.804688zm-172.203124 140.726562v5.152344c0 3.503906-2.855469 6.355468-6.359376 6.355468h-7.863281c5.179688-6.371093 10.488281-9.753906 14.222657-11.507812zm-90.179688 92.132812c0-30.984374 21.589844-57 50.511719-63.847656-3.6875 11.328125-6.136719 25.484375-6.378907 43.160156-19.980468 10.066407-30.484374 33.371094-23.789062 55.496094l5.136719 17.804688h-25.480469zm41.09375 52.617188-6.347656-22.015625c-.007813-.035156-.019532-.070313-.03125-.101563-5.121094-16.847656 4.417968-34.71875 21.261718-39.839843 16.828126-5.117188 34.679688 4.394531 39.820313 21.210937l6.40625 22.207032c2.6875 9.320312 17.097656 5.164062 14.414063-4.152344l-6.417969-22.265625c-.011719-.035157-.023438-.070313-.03125-.101563-6.757813-22.21875-28.601563-35.769531-50.90625-32.886718.695312-17.472657 3.78125-30.542969 7.882812-40.292969 7.769531 0 17.777344 1.417969 25.09375-1.734375l49.011719 35.882812v84.089844zm62.058594-130.574219c1.289062-2.746093 2.027344-5.796875 2.027344-9.027343v-30.148438c8.289062 1.960938 16.84375 2.96875 25.558593 2.96875 8.792969 0 17.351563-1.039062 25.554688-2.992188v30.171876c0 3.285156.765625 6.382812 2.09375 9.164062l-26.632813 20.800781zm74.5-2.667969c-.785156 0-1.539063-.148437-2.234375-.410156-.082031-.121094-.164063-.246094-.253907-.363281-.800781-1.023437-1.8125-1.78125-2.925781-2.265625-.59375-.964844-.945312-2.101562-.945312-3.316406v-5.160156c3.738281 1.75 9.054687 5.136718 14.242187 11.519531h-7.882812zm46.863281 86.851563c0 8.273437-6.726563 15-15 15s-15-6.726563-15-15 6.726563-15 15-15 15 6.726563 15 15zm0 0"/></svg>