<svg height="512" viewBox="0 0 128 128" width="512" xmlns="http://www.w3.org/2000/svg"><g><path d="m6.306 80.867h115.387v12.193h-115.387z" fill="#ef983b"/><path d="m6.306 27.554h70.889v53.313h-70.889z" fill="#ef3829"/><path d="m77.195 80.867v-45.451h26.34l18.159 20.409v25.042z" fill="#ef983b"/><path d="m100.939 41.484h-13.171v14.341h25.93z" fill="#f2e7cb"/><circle cx="29.86" cy="86.936" fill="#8c3f07" r="13.51"/><circle cx="98.14" cy="86.936" fill="#8c3f07" r="13.51"/><path d="m121.694 63.235h-5.376a3.688 3.688 0 0 0 -3.688 3.687 3.688 3.688 0 0 0 3.688 3.688h5.376z" fill="#f2e7cb"/><path d="m67.81 36.83v6.52a6.515 6.515 0 0 1 -13.03 0v-6.52z" fill="#f2e7cb"/><path d="m54.78 36.83v6.52a6.515 6.515 0 0 1 -13.03 0v-6.52z" fill="#ef983b"/><path d="m41.75 36.83v6.52a6.515 6.515 0 0 1 -13.03 0v-6.52z" fill="#f2e7cb"/><path d="m28.72 36.83v6.52a6.51 6.51 0 0 1 -13.02 0v-6.52z" fill="#ef983b"/><path d="m67.81 43.35v22.24h-52.11v-22.24a6.51 6.51 0 0 0 13.02 0 6.515 6.515 0 0 0 13.03 0 6.515 6.515 0 0 0 13.03 0 6.515 6.515 0 0 0 13.03 0z" fill="#8c3f07"/><circle cx="29.86" cy="86.936" fill="#f2e7cb" r="5.028"/><circle cx="98.14" cy="86.936" fill="#f2e7cb" r="5.028"/><g fill="#422002"><path d="m6.307 67.852a1.751 1.751 0 0 0 1.75-1.75v-4.502a1.75 1.75 0 1 0 -3.5 0v4.5a1.75 1.75 0 0 0 1.75 1.752z"/><path d="m123 54.662-18.157-20.409a1.748 1.748 0 0 0 -1.308-.587h-5.811a1.75 1.75 0 1 0 0 3.5h5.026l17.193 19.325v4.993h-3.626a5.438 5.438 0 0 0 0 10.876h3.626v6.757h-8.723a15.217 15.217 0 0 0 -26.159 0h-6.116v-41.951h11.1a1.75 1.75 0 0 0 0-3.5h-11.1v-6.112a1.749 1.749 0 0 0 -1.75-1.75h-70.888a1.749 1.749 0 0 0 -1.75 1.75v25.392a1.75 1.75 0 0 0 3.5 0v-23.646h67.388v49.817h-32.506a15.217 15.217 0 0 0 -26.159 0h-8.723v-4.778a1.75 1.75 0 0 0 -3.5 0v18.721a1.75 1.75 0 0 0 1.75 1.75h10.506a15.216 15.216 0 0 0 26.093 0h42.188a15.216 15.216 0 0 0 26.093 0h10.506a1.75 1.75 0 0 0 1.75-1.75v-37.235a1.748 1.748 0 0 0 -.443-1.163zm-6.684 14.2a1.938 1.938 0 0 1 0-3.876h3.626v3.874zm-108.259 22.448v-8.693h7.175a15.1 15.1 0 0 0 .014 8.693zm21.8 7.386a11.76 11.76 0 1 1 11.76-11.759 11.772 11.772 0 0 1 -11.758 11.763zm14.616-7.386a15.1 15.1 0 0 0 .014-8.693h39.026a15.1 15.1 0 0 0 .014 8.693zm53.668 7.39a11.76 11.76 0 1 1 11.759-11.763 11.772 11.772 0 0 1 -11.759 11.763zm21.8-7.386h-7.189a15.1 15.1 0 0 0 .014-8.693h7.175z"/><path d="m115.3 56.541a1.749 1.749 0 0 0 -.289-1.879l-12.76-14.341a1.748 1.748 0 0 0 -1.308-.587h-13.174a1.75 1.75 0 0 0 -1.75 1.75v14.341a1.75 1.75 0 0 0 1.75 1.75h25.931a1.75 1.75 0 0 0 1.6-1.034zm-25.781-2.466v-10.841h10.634l9.647 10.841z"/><path d="m29.859 80.158a6.778 6.778 0 1 0 6.779 6.779 6.786 6.786 0 0 0 -6.779-6.779zm0 10.056a3.278 3.278 0 1 1 3.279-3.277 3.281 3.281 0 0 1 -3.279 3.277z"/><path d="m98.141 80.158a6.778 6.778 0 1 0 6.778 6.779 6.787 6.787 0 0 0 -6.778-6.779zm0 10.056a3.278 3.278 0 1 1 3.278-3.277 3.282 3.282 0 0 1 -3.278 3.277z"/><path d="m87.769 61.046a1.75 1.75 0 1 0 0 3.5h4.555a1.75 1.75 0 0 0 0-3.5z"/><path d="m67.807 67.339a1.75 1.75 0 0 0 1.75-1.75v-28.757a1.75 1.75 0 0 0 -1.75-1.75h-52.107a1.75 1.75 0 0 0 -1.75 1.75v28.757a1.75 1.75 0 0 0 1.75 1.75zm-50.362-3.5v-13.748a8.227 8.227 0 0 0 11.278-1.673 8.236 8.236 0 0 0 13.028 0 8.235 8.235 0 0 0 13.027 0 8.228 8.228 0 0 0 11.279 1.673v13.748zm48.612-21.506v1.018a4.765 4.765 0 0 1 -9.529 0v-4.769h9.529zm-13.029 1.018a4.764 4.764 0 0 1 -9.528 0v-4.769h9.528zm-13.028 0a4.764 4.764 0 0 1 -9.527 0v-4.769h9.527zm-22.555-4.769h9.528v4.769a4.764 4.764 0 0 1 -9.528 0z"/></g></g></svg>