<svg height="512" viewBox="0 0 88 88" width="512" xmlns="http://www.w3.org/2000/svg"><g id="Pin"><ellipse cx="44" cy="73" fill="#4294ff" rx="29" ry="13"/><path d="m57.91 61.55c-5.5 6.95-10.56 12.29-11.75 13.53a2.9957 2.9957 0 0 1 -4.32 0c-1.19-1.24-6.25-6.58-11.75-13.53a59.9756 59.9756 0 0 1 13.91-1.55 59.9756 59.9756 0 0 1 13.91 1.55z" fill="#2965ed"/><path d="m44 2a28.0314 28.0314 0 0 0 -28 28c0 15.14 26.165 42.5342 27.2793 43.6929a.9992.9992 0 0 0 1.4414 0c1.1143-1.1587 27.2793-28.5529 27.2793-43.6929a28.0314 28.0314 0 0 0 -28-28z" fill="#e6ecff"/><path d="m56 15h-24l-3 6v1h30v-1z" fill="#376cfb"/><path d="m42 15-1 6h-6l2-6z" fill="#2946ed"/><path d="m53 21h-6l-1-6h5z" fill="#2946ed"/><rect fill="#4294ff" height="21" rx="1" width="26" x="31" y="23"/><path d="m49.6 32.02a4.1214 4.1214 0 0 0 -3.6 4.1582v7.8218h8v-8a4.0046 4.0046 0 0 0 -4.4-3.98z" fill="#376cfb"/><path d="m43 30h-8a1 1 0 0 0 -1 1v6a1 1 0 0 0 1 1h8a1 1 0 0 0 1-1v-6a1 1 0 0 0 -1-1zm-1 3h-2v-1h2zm-4-1v1h-2v-1zm-2 3h2v1h-2zm4 1v-1h2v1z" fill="#376cfb"/><path d="m29 21v3a3 3 0 0 0 6 0 3 3 0 0 0 6 0 3 3 0 0 0 6 0 3 3 0 0 0 6 0 3 3 0 0 0 6 0v-3z" fill="#2946ed"/><g fill="#1933cc"><path d="m35 21h6a0 0 0 0 1 0 0v3a3 3 0 0 1 -3 3 3 3 0 0 1 -3-3v-3a0 0 0 0 1 0 0z"/><path d="m47 21h6a0 0 0 0 1 0 0v3a3 3 0 0 1 -3 3 3 3 0 0 1 -3-3v-3a0 0 0 0 1 0 0z"/></g></g></svg>