<svg height="512" viewBox="0 0 64 64" width="512" xmlns="http://www.w3.org/2000/svg"><g id="_18-Doctor" data-name="18-Doctor"><path d="m41.71 16a1 1 0 0 1 -.38-.075 24.421 24.421 0 0 0 -18.66 0 1 1 0 0 1 -1.315-.568l-4.29-11.232a1 1 0 0 1 .555-1.282 37.657 37.657 0 0 1 28.76 0 1 1 0 0 1 .555 1.282l-4.29 11.232a1 1 0 0 1 -.539.561.989.989 0 0 1 -.396.082zm-9.71-3.928a26.482 26.482 0 0 1 9.135 1.628l3.578-9.369a35.63 35.63 0 0 0 -25.426 0l3.578 9.369a26.482 26.482 0 0 1 9.135-1.628z"/><path d="m29 6h6v2h-6z"/><path d="m41 63h-2v-11h-14v5h-2v-6a1 1 0 0 1 1-1h16a1 1 0 0 1 1 1z"/><path d="m27 53h2v2h-2z"/><path d="m31 53h6v2h-6z"/><path d="m32 39a10.011 10.011 0 0 1 -10-10v-9a1 1 0 0 1 .553-.895c.7-.351 1.375-.671 2.016-.978 2.961-1.413 5.1-2.434 6.6-4.682a1.039 1.039 0 0 1 1.664 0c1.5 2.248 3.638 3.269 6.6 4.682.641.307 1.313.627 2.016.978a1 1 0 0 1 .551.895v9a10.011 10.011 0 0 1 -10 10zm-8-18.379v8.379a8 8 0 0 0 16 0v-8.379c-.493-.241-.97-.469-1.431-.689-2.669-1.274-4.862-2.32-6.569-4.285-1.707 1.965-3.9 3.011-6.569 4.285-.461.22-.938.448-1.431.689z"/><path d="m40.54 32.84a1 1 0 0 1 -.947-1.319 7.892 7.892 0 0 0 .407-2.521v-4a1 1 0 0 1 1-1h1a3 3 0 0 1 3 3 6.145 6.145 0 0 1 -1.292 3.766 6.214 6.214 0 0 1 -2.289 1.8 4.71 4.71 0 0 1 -.582.227 1.009 1.009 0 0 1 -.297.047zm1.46-6.84v3c0 .243-.009.484-.025.724.054-.062.106-.125.157-.19a4.138 4.138 0 0 0 .868-2.534 1 1 0 0 0 -1-1z"/><path d="m23.46 32.84a1.009 1.009 0 0 1 -.3-.045 4.71 4.71 0 0 1 -.582-.227 6.214 6.214 0 0 1 -2.289-1.8l-.066-.09a6.187 6.187 0 0 1 -1.223-3.678 3 3 0 0 1 3-3h1a1 1 0 0 1 1 1v4a7.892 7.892 0 0 0 .407 2.521 1 1 0 0 1 -.947 1.319zm-1.46-6.84a1 1 0 0 0 -1 1 4.128 4.128 0 0 0 .8 2.445l-.724.7.788-.616c.051.065.1.128.157.19-.012-.235-.021-.476-.021-.719z"/><path d="m31 4h2v6h-2z"/><path d="m48 46h-2v-26a13.982 13.982 0 0 0 -3.284-9l1.529-1.289a15.982 15.982 0 0 1 3.755 10.289z"/><path d="m18 36h-2v-16a15.982 15.982 0 0 1 3.755-10.285l1.529 1.285a13.982 13.982 0 0 0 -3.284 9z"/><path d="m16 38h2v2h-2z"/><path d="m16 42h2v4h-2z"/><path d="m33 64h-19a3 3 0 0 1 -3-3v-9.32a6.99 6.99 0 0 1 5.3-6.789l.47-.114 10.23-2.558v-5.159a1 1 0 0 1 1.447-.9 8.116 8.116 0 0 0 7.106 0 1 1 0 0 1 1.447.9v5.159l10.693 2.669a6.994 6.994 0 0 1 5.307 6.792v2.32h-2v-2.32a5 5 0 0 0 -3.783-4.85l-.45-.107-11.009-2.753a1 1 0 0 1 -.758-.97v-4.462a10.081 10.081 0 0 1 -6 0v4.462a1 1 0 0 1 -.758.97l-11.469 2.863a4.992 4.992 0 0 0 -3.773 4.847v9.32a1 1 0 0 0 1 1h18v-4h-15v-2h16a1 1 0 0 1 1 1v6a1 1 0 0 1 -1 1z"/><path d="m52 64h-8.06a1 1 0 0 1 -.919-1.393l1.579-3.7c.684-1.614.523-2.571-.691-4.093l-1.742-2.192 1.566-1.244 1.741 2.19c1.672 2.1 1.944 3.815.966 6.122l-.986 2.31h5.546v-6h2v7a1 1 0 0 1 -1 1z"/><path d="m40 64h-7v-2h6v-4h-6v-2h7a1 1 0 0 1 1 1v6a1 1 0 0 1 -1 1z"/><path d="m40 62h4v2h-4z"/><path d="m32 47c-2.757 0-5-1.794-5-4h2c0 1.084 1.374 2 3 2s3-.916 3-2h2c0 2.206-2.243 4-5 4z"/><path d="m28 50a5.785 5.785 0 0 1 -6-6h2a3.85 3.85 0 0 0 4 4 3.439 3.439 0 0 0 3.053-2.321l1.895.637c-.048.151-1.269 3.684-4.948 3.684z"/><path d="m36 50c-3.679 0-4.9-3.533-4.948-3.684l1.9-.637a3.439 3.439 0 0 0 3.048 2.321c3.954 0 4-3.837 4-4h2a5.785 5.785 0 0 1 -6 6z"/><path d="m19 52h2v5h-2z"/></g></svg>