<svg height="512" viewBox="0 0 64 64" width="512" xmlns="http://www.w3.org/2000/svg"><g id="_19-Medical_History" data-name="19-Medical History"><path d="m57 64h-50a5.006 5.006 0 0 1 -5-5v-34h2v34a3 3 0 0 0 3 3h50a3 3 0 0 0 3-3v-34h2v34a5.006 5.006 0 0 1 -5 5z"/><path d="m32 49a1 1 0 0 1 -.622-.217l-29-23a1 1 0 0 1 -.085-1.49l4-4 1.414 1.414-3.207 3.207 27.5 21.81 27.5-21.81-3.208-3.208 1.414-1.414 4 4a1 1 0 0 1 -.085 1.49l-29 23a1 1 0 0 1 -.621.218z"/><path d="m48.92 37.665h2v28.511h-2z" transform="matrix(.707 -.707 .707 .707 -22.092 50.506)"/><path d="m-.175 50.92h28.511v2h-28.511z" transform="matrix(.707 -.707 .707 .707 -32.589 25.163)"/><path d="m9 11h2v20h-2z"/><path d="m9 7h2v2h-2z"/><path d="m55 31h-2v-19.586l-9.414-9.414h-31.586a1 1 0 0 0 -1 1v2h-2v-2a3 3 0 0 1 3-3h32a1 1 0 0 1 .707.293l10 10a1 1 0 0 1 .293.707z"/><path d="m54 12h-6a5.006 5.006 0 0 1 -5-5v-6a1 1 0 0 1 1.707-.707l10 10a1 1 0 0 1 -.707 1.707zm-9-8.586v3.586a3 3 0 0 0 3 3h3.586z"/><path d="m35 31h-6a1 1 0 0 1 -1-1v-3h-3a1 1 0 0 1 -1-1v-6a1 1 0 0 1 1-1h3v-3a1 1 0 0 1 1-1h6a1 1 0 0 1 1 1v3h3a1 1 0 0 1 1 1v6a1 1 0 0 1 -1 1h-3v3a1 1 0 0 1 -1 1zm-5-2h4v-3a1 1 0 0 1 1-1h3v-4h-3a1 1 0 0 1 -1-1v-3h-4v3a1 1 0 0 1 -1 1h-3v4h3a1 1 0 0 1 1 1z"/><path d="m32 40a17 17 0 1 1 17-17 17.019 17.019 0 0 1 -17 17zm0-32a15 15 0 1 0 15 15 15.017 15.017 0 0 0 -15-15z"/><path d="m45 23h-2a11.013 11.013 0 0 0 -11-11v-2a13.015 13.015 0 0 1 13 13z"/><path d="m43 25h2v2h-2z"/><path d="m17 58h2v2h-2z"/><path d="m21 58h26v2h-26z"/></g></svg>