<svg enable-background="new 0 0 128 128" height="512" viewBox="0 0 128 128" width="512" xmlns="http://www.w3.org/2000/svg"><g id="Layer_21"><path d="m48.95 103.73-5.27 5.28-2.24-2.24-.71-.71-.71-.71-1.53-1.53-.71-.71-.71-.71-1.53-1.53-1.41-1.41h-.01l-1.53-1.54-1.41-1.41-1.79-1.79 1.06-1.07c.39-.38.58-.88.57-1.39 0-.49-.19-.99-.57-1.37-.77-.77-2-.77-2.77-.01l-1.07 1.07-1.57-1.57-.7-.7-.7-.71-1.47-1.47 5.27-5.28z" fill="#fdcc58"/><path d="m114.14 42.34-49.23 49.22-11.42 11.43-3.35 3.34-1.9-1.89-21.51-21.51-1.83-1.84 63.99-63.99 9.8 9.79c-1.56 1.55-1.57 4.09 0 5.66 1.56 1.56 4.1 1.55 5.65 0z" fill="#5ac0a6"/><g fill="#56b297"><path d="m34.35 52.54h70.34v24h-70.34z" transform="matrix(.707 -.707 .707 .707 -25.277 68.072)"/><path d="m108.36 43.85c-.77.78-2.04.78-2.82 0s-.78-2.05 0-2.83 2.04-.78 2.82 0 .78 2.05 0 2.83z"/><path d="m33.5 82.41c-.78.78-2.05.78-2.83 0s-.78-2.05 0-2.83 2.05-.78 2.83 0 .78 2.05 0 2.83z"/></g><g><g><path d="m43.88 104.32-2.44 2.45-.71-.71-.71-.71 2.45-2.44c.39-.39 1.02-.39 1.41 0s.39 1.02 0 1.41z" fill="#efbb54"/></g></g><g><g><path d="m37.98 98.42-2.44 2.45-1.41-1.41 2.44-2.45c.39-.39 1.02-.39 1.41 0 .4.39.4 1.02 0 1.41z" fill="#efbb54"/></g></g><g><g><path d="m40.93 101.37-2.44 2.45-.71-.71-.71-.71 2.45-2.44c.39-.39 1.02-.39 1.41 0s.39 1.02 0 1.41z" fill="#efbb54"/></g></g><g><g><path d="m35.04 95.48-2.45 2.44-1.41-1.41 2.44-2.45c.39-.39 1.03-.39 1.42 0s.39 1.02 0 1.42z" fill="#efbb54"/></g></g><g><g><path d="m23.64 88.97 2.44-2.45c.39-.39 1.03-.39 1.42 0s.39 1.03 0 1.42l-2.45 2.44h-.01z" fill="#efbb54"/></g></g><path d="m34.35 49.72h70.34v24h-70.34z" fill="#e5e7ea" transform="matrix(.707 -.707 .707 .707 -23.277 67.243)"/><g fill="#6699d1"><path d="m59.3 76.4-5.6-5.6c-.31-.31-.6-.44-.87-.39-.27.06-.54.22-.82.49l-.44.45c-.27.27-.44.48-.51.65s-.08.35-.01.53c.07.19.21.46.42.81l2.85 4.92-4.91-2.86c-.36-.21-.63-.34-.81-.41-.19-.07-.36-.07-.53 0-.17.08-.39.25-.66.51l-.44.45c-.28.27-.44.54-.49.81-.06.27.07.56.38.87l5.61 5.61c.27.27.54.42.79.43.26.01.48-.08.68-.28s.29-.42.28-.68c-.02-.26-.16-.52-.43-.79l-4.89-4.89 5.65 3.38c.18.11.36.21.54.31.17.1.35.17.52.22.18.05.37.05.55.01.19-.04.37-.15.54-.32.22-.22.34-.45.35-.69s-.03-.45-.12-.63-.24-.46-.46-.83l-3.38-5.65 4.89 4.89c.27.27.54.42.8.43.25.01.48-.08.67-.27.2-.2.3-.43.28-.69-.01-.25-.16-.52-.43-.79z"/><path d="m62.36 73.5c-.2-.2-.44-.29-.73-.29-.28 0-.52.11-.73.31-.2.2-.3.44-.3.72.01.28.11.52.3.72.24.23.49.34.76.32.28-.01.51-.12.71-.32.2-.19.3-.43.31-.7.01-.28-.09-.53-.32-.76z"/><path d="m68.73 67.22c-.17-.17-.38-.25-.61-.22-.24.03-.48.17-.73.42l-2.53 2.53c-.04-.21-.07-.39-.08-.55-.03-.4-.01-1.05.08-1.93s.14-1.51.16-1.91c.03-.39-.03-.85-.16-1.37-.13-.53-.39-.99-.79-1.39-.25-.25-.55-.45-.88-.59-.33-.15-.67-.22-1.02-.23-.36-.01-.7.05-1.02.17-.51.19-1.01.54-1.5 1.03-.41.41-.7.83-.89 1.25-.18.43-.27.84-.28 1.23 0 .4.07.76.21 1.11.15.34.33.62.55.84.18.18.38.28.59.28.22 0 .41-.08.57-.24.18-.19.26-.39.24-.6s-.1-.46-.24-.75-.22-.48-.24-.56c-.13-.61.02-1.13.44-1.55.2-.2.43-.34.69-.42s.52-.08.78-.02.5.2.7.4c.19.2.34.43.45.73.11.29.16.61.18.98.01.36-.02.77-.1 1.22-.05.25-.09.7-.11 1.37-.03.66-.04 1.43-.02 2.3.01.21.06.46.17.74.1.27.21.47.33.59.18.18.4.27.67.27.27-.01.53-.13.77-.37l3.56-3.56c.21-.21.31-.42.31-.64-.01-.21-.09-.4-.25-.56z"/><path d="m77.01 58.14c-.12-.56-.4-1.06-.83-1.49-.35-.35-.72-.59-1.09-.71-.38-.12-.76-.15-1.15-.08-.39.06-.8.2-1.24.41-.43.21-.9.47-1.39.78-.4.24-.69.41-.87.5-.18.1-.37.18-.58.24s-.41.08-.59.05c-.18-.02-.34-.11-.48-.25-.23-.23-.31-.54-.25-.93s.28-.77.65-1.14c.4-.4.77-.61 1.1-.64s.69.02 1.09.16c.29.08.51.13.68.12.17 0 .33-.08.5-.25.18-.18.26-.4.24-.65-.01-.26-.11-.48-.28-.65-.18-.18-.42-.33-.72-.43-.29-.1-.63-.13-1.02-.1s-.79.15-1.22.36c-.42.21-.85.53-1.29.97-.54.54-.94 1.1-1.18 1.66-.24.57-.31 1.11-.22 1.62.09.52.33.97.72 1.36.41.41.85.65 1.33.73.47.07.96.02 1.47-.17.5-.18 1.07-.47 1.69-.86.47-.29.86-.51 1.16-.66.31-.15.6-.23.89-.22.29 0 .56.12.79.35.3.3.41.68.34 1.14-.06.47-.31.91-.74 1.34-.3.31-.6.51-.89.6s-.56.12-.82.07c-.25-.05-.54-.14-.86-.27-.26-.12-.49-.17-.7-.17-.2.01-.37.09-.52.24-.19.19-.28.41-.28.65 0 .25.09.45.27.63.29.3.7.51 1.22.62.52.12 1.04.11 1.55-.02.72-.19 1.43-.64 2.13-1.34.58-.58.99-1.18 1.22-1.8s.29-1.21.17-1.77z"/><path d="m83.61 51.54c-.12-.57-.4-1.06-.82-1.49-.36-.36-.73-.6-1.1-.72-.38-.11-.76-.14-1.14-.08-.39.07-.8.21-1.24.42s-.9.47-1.4.78c-.4.24-.69.4-.87.5s-.37.17-.58.24c-.21.06-.41.08-.59.05s-.34-.11-.48-.25c-.23-.23-.31-.54-.25-.93.07-.39.28-.77.66-1.14.4-.4.76-.62 1.09-.65s.69.03 1.09.17c.29.08.52.12.68.12.17 0 .34-.09.5-.25.18-.18.26-.4.25-.66-.02-.25-.11-.47-.28-.64-.19-.19-.43-.33-.72-.43-.3-.1-.64-.13-1.03-.1-.38.03-.79.15-1.22.36-.42.2-.85.53-1.29.96-.54.55-.93 1.1-1.17 1.67-.24.56-.32 1.1-.23 1.62.09.51.33.97.72 1.36.41.41.85.65 1.33.72.48.08.97.02 1.47-.16s1.07-.47 1.7-.86c.46-.3.85-.52 1.15-.67.31-.15.61-.22.9-.22.29.01.55.13.78.36.3.3.41.68.35 1.14-.07.47-.32.91-.74 1.34-.31.31-.61.51-.9.6s-.56.11-.82.07c-.25-.05-.54-.14-.85-.28-.27-.11-.5-.17-.7-.16s-.38.09-.53.24c-.19.19-.28.4-.28.65.01.24.09.45.27.63.3.3.71.5 1.23.62s1.03.11 1.54-.02c.72-.2 1.43-.64 2.13-1.34.58-.58.99-1.18 1.22-1.8s.29-1.21.17-1.77z"/><path d="m90.29 43.9c-.12-.44-.32-.87-.6-1.29-.28-.43-.63-.85-1.06-1.28-1.28-1.29-2.61-1.88-3.98-1.77-.54.03-1.02.18-1.46.44-.44.25-.9.63-1.39 1.11l-1.87 1.87c-.31.31-.46.61-.46.88 0 .28.15.57.46.88l5.2 5.2c.23.23.44.39.62.5.18.1.38.12.59.07s.45-.21.71-.47l1.87-1.87c.33-.33.6-.64.81-.94.22-.3.39-.62.51-.94.13-.33.2-.68.22-1.04.02-.46-.04-.91-.17-1.35zm-1.9 2.29c-.1.19-.2.37-.33.52-.12.14-.3.34-.54.58l-1.08 1.08-4.81-4.81.94-.94c.44-.44.86-.77 1.27-.98.4-.22.88-.26 1.44-.12s1.19.56 1.89 1.26c.99.99 1.45 1.93 1.38 2.81-.02.2-.07.4-.16.6z"/></g></g></svg>