<svg height="511pt" viewBox="-77 1 511 511.99942" width="511pt" xmlns="http://www.w3.org/2000/svg"><path d="m315.421875 243.640625c11.199219-6.320313 18.785156-18.324219 18.785156-32.074219 0-10.179687-4.15625-19.40625-10.859375-26.078125 15.886719-13.625 45.949219-47.8125 31.671875-102.871093-6.359375-24.53125-22.949219-43.914063-46.714843-54.570313-24.351563-10.921875-52.933594-11.414063-75.96875-1.566406-10.492188-9.53125-40.929688-31.519531-93.4375-25.433594-35.277344 4.089844-65.476563 22.773437-82.851563 51.261719-21.265625 34.859375-22.546875 82.019531-3.648437 132.878906-2.964844 2.824219-5.46875 6.125-7.367188 9.765625-29.753906 13.902344-46.699219 43.007813-44.308594 76.390625 1.097656 15.324219 6.519532 29.898438 15.683594 42.152344 6.003906 8.023437 17.691406-1.390625 12.011719-8.984375-7.4375-9.949219-11.839844-21.789063-12.734375-34.238281-1.632813-22.847657 7.894531-43.199219 25.390625-55.71875 1.628906 20.5 20.019531 34.617187 39.902343 33.824218 7.003907 26.210938 23.441407 48.609375 45.441407 63.316406-19.3125 19.335938-49.972657 24.382813-74.519531 12.3125-8.699219-4.28125-15.320313 9.179688-6.617188 13.460938 31.621094 15.546875 70.882812 7.9375 94.527344-18.109375 2.359375 1.136719 4.769531 2.195313 7.21875 3.164063v34.898437c0 3.515625-2.9375 6.359375-6.359375 6.359375h-18.191407c-44.453124 0-80.617187 36.164062-80.617187 80.609375v60.109375c0 4.140625 3.359375 7.5 7.5 7.5h276.4375c4.140625 0 7.5-3.359375 7.5-7.5v-28.5c0-9.695312-15-9.695312-15 0v21h-27.710937v-61.882812c0-4.140626-3.355469-7.5-7.5-7.5h-45c-4.140626 0-7.496094 3.359374-7.496094 7.5v61.882812h-53v-84.078125l48.816406-35.742187c2.496094 1.027343 5.222656 1.601562 8.082031 1.601562h18.191407c36.179687 0 65.617187 29.433594 65.617187 65.609375 0 9.695313 15 9.695313 15 0 0-44.449219-36.164063-80.609375-80.617187-80.609375h-18.191407c-3.347656 0-6.355469-2.914062-6.355469-6.359375v-34.898437c32.195313-12.765626 56.996094-40.273438 66.046876-74.144532 2.871093-.632812 5.34375-.476562 6.246093 1.511719 0 21.640625-8.019531 42.511719-22.035156 58.59375-2.667969-1.148437-5.609375-1.792969-8.695313-1.792969-12.140624 0-22.019531 9.878906-22.019531 22.019532 0 12.140624 9.878907 22.015624 22.019531 22.015624 12.140626 0 22.019532-9.875 22.019532-22.015624 0-3.578126-.863282-6.957032-2.386719-9.945313 18.550781-21.070313 26.363281-47.449219 26.09375-75.125zm-69.835937 198.980469h30v52h-30zm-167.824219-209.242188c-5.9375 0-11.492188-2.34375-15.636719-6.601562-4.140625-4.257813-6.332031-9.878906-6.167969-15.828125.308594-11.324219 9.753907-20.597657 21.292969-21.167969v30.148438c0 4.554687.28125 9.039062.820312 13.449218zm-20.902344 263.621094v-52.605469c0-36.179687 29.433594-65.613281 65.613281-65.613281h18.191406c3.082032 0 6.007813-.667969 8.660157-1.847656l25.179687 19.660156-8.847656 6.476562c-1.929688 1.410157-3.070312 3.660157-3.070312 6.050782v87.878906zm158.433594-130.269531-28.210938 20.652343-27.011719-21.089843c1.242188-2.707031 1.953126-5.703125 1.953126-8.867188v-30.171875c8.203124 1.953125 16.757812 2.992188 25.554687 2.992188 8.792969 0 17.347656-1.039063 25.550781-2.992188v30.171875c0 3.335938.792969 6.484375 2.164063 9.304688zm-27.71875-51.484375c-52.5625 0-95.324219-42.757813-95.324219-95.316406v-84.042969c5.46875 1.402343 13.121094 3.296875 22.535156 5.433593 9.457032 2.152344 12.78125-12.476562 3.324219-14.625-19.183594-4.359374-31.195313-7.75-31.316406-7.785156-5.574219-.761718-8.757813 1.644532-9.542969 7.214844v48.65625c-4.140625.125-8.125.925781-11.84375 2.300781-16.171875-45.332031-14.988281-86.746093 3.445312-116.960937 15.175782-24.875 40.667969-40.5625 71.777344-44.171875 56.761719-6.582031 83.347656 23.171875 84.425782 24.417969 2.257812 2.644531 6.035156 3.394531 9.132812 1.808593 19.542969-10.023437 46.226562-10.199219 67.976562-.441406 19.527344 8.757813 33.144532 24.613281 38.335938 44.648437 13.425781 51.777344-18.886719 81.789063-30.464844 90.613282-3.792968-1.394532-7.875-2.167969-12.132812-2.226563v-20.492187c-.457032-4.675782-3.03125-7.171875-7.71875-7.496094-50.707032 1.5-105.308594-6.679688-142.175782-13.804688-9.519531-1.832031-12.363281 12.886719-2.84375 14.726563 35.757813 6.910156 87.933594 14.800781 137.738282 14.226563v58c0 52.558593-42.761719 95.316406-95.328125 95.316406zm109.507812-81.867188c.539063-4.40625.820313-8.894531.820313-13.445312v-30.167969c11.792968.277344 21.304687 9.945313 21.304687 21.800781 0 12.027344-9.789062 21.8125-21.816406 21.8125zm-34.40625 95.332032c0-3.867188 3.148438-7.015626 7.015625-7.015626 3.871094 0 7.023438 3.148438 7.023438 7.015626 0 3.871093-3.152344 7.019531-7.023438 7.019531-3.867187 0-7.015625-3.148438-7.015625-7.019531zm0 0"/><path d="m195.585938 429.121094c-9.652344 0-9.667969 15 0 15 9.652343 0 9.667968-15 0-15zm0 0"/><path d="m195.585938 482.121094c9.652343 0 9.667968-15 0-15-9.652344 0-9.667969 15 0 15zm0 0"/><path d="m124.085938 450.621094h-10.496094v-10.5c0-9.695313-15-9.695313-15 0v10.5h-10.5c-9.699219 0-9.699219 15 0 15h10.5v10.5c0 9.695312 15 9.695312 15 0v-10.5h10.496094c9.699218 0 9.699218-15 0-15zm0 0"/></svg>