<svg height="512" viewBox="0 0 88 88" width="512" xmlns="http://www.w3.org/2000/svg"><g id="Rating"><path d="m78 11h-68a7.0078 7.0078 0 0 0 -7 7v42a7.0078 7.0078 0 0 0 7 7h24.2524l9.0157 9.6816a1 1 0 0 0 1.4638 0l9.0157-9.6816h24.2524a7.0078 7.0078 0 0 0 7-7v-42a7.0078 7.0078 0 0 0 -7-7z" fill="#e6ecff"/><g fill="#4294ff"><path d="m52 44h-5.39l-1.6558-5.2983a1 1 0 0 0 -1.9092 0l-1.655 5.2983h-5.39a1 1 0 0 0 -.61 1.7925l4.3853 3.373-1.73 5.5362a1 1 0 0 0 1.5647 1.0908l4.39-3.377 4.39 3.377a1 1 0 0 0 1.5645-1.0908l-1.73-5.5362 4.3853-3.373a1 1 0 0 0 -.6098-1.7925z"/><path d="m75.9468 44.6782a1 1 0 0 0 -.9468-.6782h-5.39l-1.6558-5.2983a1 1 0 0 0 -1.9092 0l-1.655 5.2983h-5.39a1 1 0 0 0 -.61 1.7925l4.3853 3.373-1.73 5.5362a1 1 0 0 0 1.5647 1.0908l4.39-3.377 4.39 3.377a1 1 0 0 0 1.5645-1.0908l-1.73-5.5362 4.3853-3.373a1 1 0 0 0 .337-1.1143z"/><path d="m28 44h-5.39l-1.6558-5.2983a1 1 0 0 0 -1.9092 0l-1.655 5.2983h-5.39a1 1 0 0 0 -.61 1.7925l4.3853 3.373-1.73 5.5362a1 1 0 0 0 1.5647 1.0908l4.39-3.377 4.39 3.377a1 1 0 0 0 1.5645-1.0908l-1.73-5.5362 4.3853-3.373a1 1 0 0 0 -.6098-1.7925z"/><path d="m37 36a1 1 0 0 0 .9546-1.2983l-1.73-5.5362 4.3853-3.373a1 1 0 0 0 -.6099-1.7925h-5.39l-1.6558-5.2983a1 1 0 0 0 -1.9092 0l-1.655 5.2983h-5.39a1 1 0 0 0 -.61 1.7925l4.3853 3.373-1.73 5.5362a1 1 0 0 0 1.5647 1.0908l4.39-3.377 4.39 3.377a.9987.9987 0 0 0 .61.2075z"/><path d="m61 36a1 1 0 0 0 .9546-1.2983l-1.73-5.5362 4.3853-3.373a1 1 0 0 0 -.6099-1.7925h-5.39l-1.6558-5.2983a1 1 0 0 0 -1.9092 0l-1.655 5.2983h-5.39a1 1 0 0 0 -.61 1.7925l4.3853 3.373-1.73 5.5362a1 1 0 0 0 1.5647 1.0908l4.39-3.377 4.39 3.377a.9987.9987 0 0 0 .61.2075z"/></g></g></svg>