<svg height="512" viewBox="0 0 128 128" width="512" xmlns="http://www.w3.org/2000/svg"><g><rect fill="#ef3829" height="45.902" rx="6.54" width="13.079" x="35.402" y="75.791"/><rect fill="#ef3829" height="45.902" rx="6.54" width="13.079" x="79.518" y="75.791"/><path d="m86.058 6.306c-8.248 0-14.933 8.929-14.933 19.944 0 9.66 5.143 17.713 11.971 19.548v30.702h.012a6.492 6.492 0 0 1 5.9 0h.012v-30.7c6.828-1.835 11.971-9.888 11.971-19.548 0-11.017-6.686-19.946-14.933-19.946z" fill="#f2e7cb"/><path d="m50.968 6.306v21.677h-6.068v-21.677h-5.912v21.677h-6.072v-21.677h-5.907v25.68a12.687 12.687 0 0 0 6.384 11.014l5.587 3.2v30.3h.012a6.492 6.492 0 0 1 5.9 0h.008v-30.306l5.591-3.194a12.687 12.687 0 0 0 6.384-11.01v-25.684z" fill="#f2e7cb"/><g fill="#422002"><path d="m35.4 104.661a1.75 1.75 0 0 0 1.75-1.75v-4.5a1.75 1.75 0 0 0 -3.5 0v4.5a1.751 1.751 0 0 0 1.75 1.75z"/><path d="m56.875 4.557h-5.907a1.749 1.749 0 0 0 -1.75 1.75v19.926h-2.572v-19.926a1.75 1.75 0 0 0 -1.75-1.75h-5.908a1.749 1.749 0 0 0 -1.75 1.75v19.926h-2.572v-19.926a1.749 1.749 0 0 0 -1.75-1.75h-5.907a1.749 1.749 0 0 0 -1.75 1.75v25.679a14.469 14.469 0 0 0 7.264 12.529l4.707 2.693v28.311a8.283 8.283 0 0 0 -3.578 6.812v7.425a1.75 1.75 0 0 0 3.5 0v-7.425a4.79 4.79 0 0 1 9.579 0v32.823a4.79 4.79 0 0 1 -9.579 0v-4.006a1.75 1.75 0 0 0 -3.5 0v4.006a8.29 8.29 0 0 0 16.579 0v-32.823a8.28 8.28 0 0 0 -3.577-6.811v-28.312l4.706-2.693a14.468 14.468 0 0 0 7.265-12.529v-25.679a1.749 1.749 0 0 0 -1.75-1.75zm-1.75 27.429a10.96 10.96 0 0 1 -5.5 9.491l-5.587 3.2a1.75 1.75 0 0 0 -.881 1.519v27.944a7.544 7.544 0 0 0 -2.424 0v-27.946a1.749 1.749 0 0 0 -.88-1.519l-5.588-3.2a10.963 10.963 0 0 1 -5.5-9.492v-23.926h2.407v19.926a1.75 1.75 0 0 0 1.75 1.75h6.072a1.75 1.75 0 0 0 1.75-1.75v-19.926h2.408v19.926a1.75 1.75 0 0 0 1.75 1.75h6.072a1.75 1.75 0 0 0 1.75-1.75v-19.926h2.407z"/><path d="m89.02 54.25a1.751 1.751 0 0 0 1.75-1.75v-5.432c7.01-2.671 11.971-11.163 11.971-20.818 0-11.962-7.484-21.693-16.683-21.693s-16.683 9.731-16.683 21.693c0 9.655 4.961 18.147 11.971 20.818v28.452a8.28 8.28 0 0 0 -3.577 6.811v32.823a8.29 8.29 0 0 0 16.579 0v-32.823a8.283 8.283 0 0 0 -3.578-6.812v-15.342a1.75 1.75 0 0 0 -3.5 0v13.963a7.544 7.544 0 0 0 -2.424 0v-28.34a1.752 1.752 0 0 0 -1.3-1.69c-6.186-1.662-10.675-9.173-10.675-17.858 0-10.032 5.914-18.193 13.183-18.193s13.187 8.159 13.187 18.191c0 8.685-4.49 16.2-10.676 17.858a1.751 1.751 0 0 0 -1.3 1.69v6.7a1.75 1.75 0 0 0 1.755 1.752zm1.828 28.081v32.823a4.79 4.79 0 0 1 -9.579 0v-32.823a4.79 4.79 0 0 1 9.579 0z"/><path d="m91.268 24.854a1.75 1.75 0 0 0 1.747 1.663h.089a1.751 1.751 0 0 0 1.66-1.835c-.41-8.18-5.465-10.8-5.681-10.907a1.739 1.739 0 0 0 -2.325.767 1.76 1.76 0 0 0 .739 2.353c.142.074 3.469 1.923 3.771 7.959z"/></g></g></svg>