<svg height="512" viewBox="0 0 88 88" width="512" xmlns="http://www.w3.org/2000/svg"><g id="Gift"><path d="m52.2061 19h-13.2061a1 1 0 0 1 -.8574-1.5146l2.5044-4.1739a13.0645 13.0645 0 0 1 11.1469-6.3115h8.3389a3.7564 3.7564 0 0 1 3.2207 5.688 13.0653 13.0653 0 0 1 -11.1474 6.312zm-11.44-2h11.44a11.0554 11.0554 0 0 0 9.4326-5.3408 1.7565 1.7565 0 0 0 -1.5059-2.6592h-8.3389a11.054 11.054 0 0 0 -9.4321 5.3408z" fill="#376cfb"/><path d="m39 19h-13.2056a13.0647 13.0647 0 0 1 -11.1474-6.3115 3.7558 3.7558 0 0 1 3.2207-5.6885h8.3379a13.0647 13.0647 0 0 1 11.1474 6.3115l2.5044 4.1739a1 1 0 0 1 -.8574 1.5146zm-21.1323-10a1.756 1.756 0 0 0 -1.5059 2.6592 11.0548 11.0548 0 0 0 9.4326 5.3408h11.4395l-1.5957-2.6592a11.0548 11.0548 0 0 0 -9.4326-5.3408z" fill="#376cfb"/><rect fill="#d0dbf7" height="54" rx="1" width="62" x="8" y="27"/><path d="m8 29h62v3h-62z" fill="#8ea6ce"/><rect fill="#e6ecff" height="12" rx="1" width="72" x="3" y="17"/><path d="m48 27h-18a1 1 0 0 0 -1 1v53h19a1 1 0 0 0 1-1v-52a1 1 0 0 0 -1-1z" fill="#376cfb"/><path d="m26 17h26v12h-26z" fill="#4294ff"/><path d="m84 59h-36a1.0016 1.0016 0 0 0 -.7812.3755l-8 10a.9988.9988 0 0 0 0 1.249l8 10a1.0016 1.0016 0 0 0 .7812.3755h36a1 1 0 0 0 1-1v-20a1 1 0 0 0 -1-1z" fill="#4294ff"/><g fill="#376cfb"><circle cx="51" cy="70" r="4"/><path d="m75 69a1 1 0 0 0 1-1v-.146a2.8481 2.8481 0 0 0 -2-2.7089v-.1451a1 1 0 0 0 -2 0v.1451a2.8436 2.8436 0 0 0 -.4219 5.2621l1.9492.9746a.854.854 0 0 1 -.3818 1.6182h-.291a.8556.8556 0 0 1 -.8545-.854v-.146a1 1 0 0 0 -2 0v.146a2.8481 2.8481 0 0 0 2 2.7089v.1451a1 1 0 0 0 2 0v-.1451a2.8436 2.8436 0 0 0 .4219-5.2621l-1.9492-.9746a.854.854 0 0 1 .3818-1.6182h.291a.8556.8556 0 0 1 .8545.854v.146a1 1 0 0 0 1 1z"/><circle cx="19" cy="60" r="4"/></g><path d="m29 29h20v3h-20z" fill="#2045ce"/><path d="m51 71h-14.3379a21.705 21.705 0 0 1 -18.5195-10.4854 1 1 0 1 1 1.7148-1.0292 19.6947 19.6947 0 0 0 16.8047 9.5146h14.3379a1 1 0 0 1 0 2z" fill="#2946ed"/></g></svg>