<svg enable-background="new 0 0 128 128" height="512" viewBox="0 0 128 128" width="512" xmlns="http://www.w3.org/2000/svg"><g id="Layer_22"><g fill="#373d44"><path d="m71.33 28.12v24c0 2.21-1.79 4-4 4h-24c-2.21 0-4-1.79-4-4v-24c0-2.2 1.79-4 4-4h24c2.21 0 4 1.8 4 4z"/><path d="m81.83 63.83v24c0 2.21-1.79 4-4 4h-24c-2.21 0-4-1.79-4-4v-24c0-2.21 1.79-4 4-4h24c2.21 0 4 1.79 4 4z"/><path d="m118 63.83v24c0 2.21-1.79 4-4 4h-24c-2.21 0-4-1.79-4-4v-24c0-2.21 1.79-4 4-4h24c2.21 0 4 1.79 4 4z"/><path d="m45.67 63.83v24c0 2.21-1.79 4-4 4h-24c-2.21 0-4-1.79-4-4v-24c0-2.21 1.79-4 4-4h24c2.21 0 4 1.79 4 4z"/></g><path d="m67.33 28.12v16c0 2.21-1.79 4-4 4h-16c-2.21 0-4-1.79-4-4v-16c0-2.2 1.79-4 4-4h16c2.21 0 4 1.8 4 4z" fill="#434a51"/><g><path d="m56.96 40.47-1.62-6.01-1.64 6.01c-.13.46-.23.78-.3.98s-.21.38-.39.53-.44.24-.75.24c-.25 0-.46-.05-.62-.14s-.29-.23-.39-.4-.18-.37-.25-.61-.12-.45-.17-.65l-1.67-6.75c-.1-.39-.15-.69-.15-.9 0-.26.09-.48.27-.66s.41-.27.68-.27c.37 0 .62.12.75.36s.24.58.33 1.03l1.31 5.85 1.47-5.48c.11-.42.21-.74.29-.96s.23-.41.42-.57.46-.24.8-.24.61.08.8.25.32.35.39.54.17.52.29.97l1.48 5.48 1.31-5.85c.06-.31.12-.54.18-.72s.15-.33.29-.46.34-.21.6-.21.49.09.67.26.28.4.28.66c0 .19-.05.49-.15.9l-1.67 6.75c-.11.46-.21.79-.28 1s-.2.4-.38.56-.43.24-.76.24c-.31 0-.56-.08-.75-.23s-.32-.33-.39-.52-.14-.51-.28-.98z" fill="#ea5765"/></g><path d="m77.83 63.83v16c0 2.21-1.79 4-4 4h-16c-2.21 0-4-1.79-4-4v-16c0-2.21 1.79-4 4-4h16c2.21 0 4 1.79 4 4z" fill="#434a51"/><path d="m114 63.83v16c0 2.21-1.79 4-4 4h-16c-2.21 0-4-1.79-4-4v-16c0-2.21 1.79-4 4-4h16c2.21 0 4 1.79 4 4z" fill="#434a51"/><g><path d="m69.82 73.84c0 .61-.16 1.15-.47 1.63s-.77.86-1.37 1.13-1.31.41-2.14.41c-.99 0-1.8-.19-2.45-.56-.46-.27-.83-.63-1.11-1.08s-.43-.89-.43-1.31c0-.25.09-.46.26-.63s.39-.26.65-.26c.21 0 .4.07.54.21s.27.34.38.61c.13.32.27.59.41.8s.36.39.63.53.62.21 1.06.21c.6 0 1.09-.14 1.47-.42s.56-.63.56-1.05c0-.33-.1-.6-.3-.81s-.46-.37-.79-.48-.75-.23-1.29-.35c-.72-.17-1.32-.37-1.81-.59s-.87-.53-1.16-.92-.43-.87-.43-1.45c0-.55.15-1.04.45-1.47s.74-.76 1.31-.99 1.24-.35 2.01-.35c.62 0 1.15.08 1.6.23s.82.36 1.12.61.51.52.65.8.21.55.21.81c0 .24-.09.46-.26.65s-.38.29-.64.29c-.23 0-.41-.06-.53-.17s-.25-.31-.39-.57c-.18-.38-.4-.67-.66-.89s-.67-.32-1.23-.32c-.52 0-.95.12-1.27.35s-.48.51-.48.83c0 .2.05.37.16.52s.26.27.45.38.39.19.58.25.52.15.97.26c.56.13 1.08.28 1.53.44s.85.35 1.17.58.57.52.75.86.29.77.29 1.28z" fill="#5ac0a6"/></g><path d="m41.67 63.83v16c0 2.21-1.79 4-4 4h-16c-2.21 0-4-1.79-4-4v-16c0-2.21 1.79-4 4-4h16c2.21 0 4 1.79 4 4z" fill="#434a51"/><g><path d="m32.15 75.32-.48-1.26h-4.07l-.48 1.29c-.19.5-.35.84-.48 1.02s-.35.26-.65.26c-.26 0-.48-.09-.68-.28s-.29-.4-.29-.64c0-.14.02-.28.07-.42s.12-.35.23-.61l2.56-6.51c.07-.19.16-.41.26-.67s.21-.48.33-.65.27-.31.46-.42.42-.16.7-.16.52.05.71.16.34.25.46.41.21.35.29.54.18.45.3.78l2.62 6.47c.21.49.31.85.31 1.07 0 .23-.1.45-.29.64s-.43.29-.7.29c-.16 0-.3-.03-.41-.09s-.21-.13-.29-.23-.16-.25-.25-.45-.17-.38-.23-.54zm-4.02-2.78h2.99l-1.51-4.14z" fill="#6699d1"/></g><g><g><path d="m99.92 67.4h2.65c.69 0 1.28.06 1.77.19s.94.37 1.34.72c1.04.89 1.57 2.25 1.57 4.07 0 .6-.05 1.15-.16 1.65s-.27.94-.49 1.34-.5.76-.84 1.07c-.27.24-.56.44-.88.58s-.66.25-1.03.31-.78.09-1.24.09h-2.65c-.37 0-.65-.06-.83-.17s-.31-.27-.37-.47-.09-.47-.09-.79v-7.35c0-.44.1-.75.29-.95s.52-.29.96-.29zm.78 1.61v6.8h1.54c.34 0 .6-.01.79-.03s.39-.06.59-.14.38-.18.53-.31c.68-.57 1.02-1.56 1.02-2.97 0-.99-.15-1.73-.45-2.22s-.67-.81-1.1-.94-.97-.2-1.59-.2h-1.33z" fill="#fdcc58"/></g></g></g></svg>