<svg height="512" viewBox="0 0 128 128" width="512" xmlns="http://www.w3.org/2000/svg"><g><path d="m92.342 56.437-3.172 65.257h-50.34l-3.172-65.257z" fill="#ef983b"/><path d="m29.929 46.279h68.142v10.158h-68.142z" fill="#ef983b"/><circle cx="64" cy="89.065" fill="#f2e7cb" r="15.292"/><path d="m93.478 46.279a9.932 9.932 0 0 0 -9.932-9.932h-3.274a5.749 5.749 0 0 0 -2.605-10.876h-4.278c7.572-9.312-9.48-19.165-9.48-19.165s-.58 3.3-7.664 8.739c-6.218 4.772-2.664 9.372-1.7 10.426h-4.21a5.749 5.749 0 0 0 -2.6 10.876h-3.281a9.932 9.932 0 0 0 -9.932 9.932z" fill="#8c3f07"/><path d="m83.419 31.223a5.748 5.748 0 0 1 -3.147 5.124h3.274a9.908 9.908 0 0 1 3.877.785l1.3-28.155-7.5-.347-.813 17.541a5.75 5.75 0 0 1 3.009 5.052z" fill="#f2e7cb"/><g fill="#422002"><path d="m37.593 98.025h.086a1.749 1.749 0 0 0 1.663-1.833l-.218-4.492a1.774 1.774 0 0 0 -1.833-1.663 1.75 1.75 0 0 0 -1.663 1.833l.218 4.492a1.75 1.75 0 0 0 1.747 1.663z"/><path d="m98.071 44.528h-2.987a11.7 11.7 0 0 0 -5.861-8.444l.509-10.984a1.75 1.75 0 0 0 -3.5-.162l-.458 9.884a11.459 11.459 0 0 0 -1.421-.2 7.5 7.5 0 0 0 -2.146-9.357l.693-14.806 4 .186-.277 5.955a1.75 1.75 0 1 0 3.5.162l.357-7.7a1.751 1.751 0 0 0 -1.667-1.83l-7.5-.347a1.75 1.75 0 0 0 -1.829 1.667l-.708 15.264a7.481 7.481 0 0 0 -1.107-.091h-1.22a9.042 9.042 0 0 0 .468-5.048c-1.4-7.6-11.7-13.63-12.132-13.883a1.744 1.744 0 0 0 -1.61-.1 1.7 1.7 0 0 0 -.975 1.249c-.008.029-.789 2.933-7.019 7.714-2.6 1.994-4.026 4.243-4.242 6.683a7.536 7.536 0 0 0 .494 3.382h-1.1a7.509 7.509 0 0 0 -6.69 10.9 11.7 11.7 0 0 0 -10.727 9.9h-2.987a1.751 1.751 0 0 0 -1.75 1.75v10.165a1.751 1.751 0 0 0 1.75 1.75h4.062l1.217 25.039a1.75 1.75 0 0 0 1.747 1.665h.086a1.751 1.751 0 0 0 1.659-1.835l-1.205-24.869h53.01l-3 61.756h-47.005l-.755-15.528a1.771 1.771 0 0 0 -1.833-1.663 1.75 1.75 0 0 0 -1.663 1.833l.836 17.193a1.749 1.749 0 0 0 1.748 1.665h50.337a1.749 1.749 0 0 0 1.748-1.665l3.091-63.591h4.062a1.751 1.751 0 0 0 1.75-1.75v-10.159a1.751 1.751 0 0 0 -1.75-1.75zm-53.617-6.428h3.274a1.75 1.75 0 0 0 .794-3.309 4 4 0 0 1 1.811-7.566h4.21a1.75 1.75 0 0 0 1.292-2.93 5.142 5.142 0 0 1 -1.411-3.644c.126-1.422 1.1-2.84 2.886-4.213 4.255-3.267 6.342-5.853 7.363-7.567 3.129 2.149 8.042 6.3 8.8 10.444a5.972 5.972 0 0 1 -1.445 5.055 1.751 1.751 0 0 0 1.358 2.855h4.278a4 4 0 0 1 1.811 7.566 1.75 1.75 0 0 0 .794 3.309h3.274a8.192 8.192 0 0 1 7.989 6.431h-55.067a8.192 8.192 0 0 1 7.989-6.431zm51.867 16.59h-64.642v-6.662h64.642z"/><path d="m81.042 89.065a17.042 17.042 0 1 0 -17.042 17.042 17.061 17.061 0 0 0 17.042-17.042zm-17.042 13.542a13.542 13.542 0 1 1 13.542-13.542 13.557 13.557 0 0 1 -13.542 13.542z"/><path d="m45.5 113.167a1.749 1.749 0 0 0 1.75 1.75h13.371a1.75 1.75 0 1 0 0-3.5h-13.371a1.749 1.749 0 0 0 -1.75 1.75z"/><path d="m67.77 111.417a1.75 1.75 0 0 0 0 3.5h3.43a1.75 1.75 0 0 0 0-3.5z"/></g></g></svg>