<svg height="511pt" viewBox="-109 0 511 511.99965" width="511pt" xmlns="http://www.w3.org/2000/svg"><path d="m228.25 365.136719c-.261719-.226563-.535156-.441407-.828125-.632813 0 0-38.632813-24.847656-39.496094-25.035156v-16.886719c3.167969-1.25 6.28125-2.648437 9.320313-4.195312h7.703125c9.023437 0 16.820312-5.339844 20.414062-13.019531h22.714844c14.859375 0 26.949219-12.089844 26.949219-26.945313v-34.957031c11.386718-6.277344 19.121094-18.398438 19.121094-32.296875 0-12.542969-6.304688-23.632813-15.90625-30.292969 5.011718-20.128906 3.878906-41.359375 4.375-61.929688.507812-21.140624-.636719-42.617187-14.972657-59.523437-6.269531-7.394531-17.714843 2.304687-11.4375 9.703125 11.253907 13.269531 12.042969 31.300781 11.566407 47.863281l-164.746094-.371093c-9.433594 0-9.488282 14.964843-.058594 15.003906l146.089844.578125c-21.257813 11.53125-57.382813 26.417969-102.230469 26.417969-45.042969 0-80.914063-15.402344-101.808594-27.226563l18.609375.074219c9.433594 0 9.488282-14.964844.0625-15h-36.097656s-.417969-15.316406.195312-21.441406c2.570313-26.992188 28.808594-41.25 53.539063-41.25 13.484375 0 21.820313-9.308594 29.6875-18.835938 20.253906-24.515625 47.328125-27.511719 68.816406-3.023438 6.933594 7.902344 14.746094 16.558594 24.875 20.378907 5.359375 2.011719 10.957031 1.980469 15.902344 1.953125 3.875-.023438 7.542969-.042969 10.253906.90625 9.152344 3.210937 14.109375-10.949219 4.957031-14.15625-5.15625-1.808594-10.546874-1.773438-15.296874-1.75-13.421876.074218-20.914063-7.535156-29.414063-17.226563-27.601563-31.445312-65.558594-28.222656-91.65625 3.367188-4.761719 5.761719-9.703125 13.386719-18.125 13.386719-32.234375 0-65.53125 20.058593-68.472656 54.816406-1.023438 10.289062-.371094 18.6875-.371094 31.101562 0 4.191406-.292969 38.390625 4.074219 56.078125-9.6875 6.644531-16.058594 17.792969-16.058594 30.402344 0 20.320313 16.53125 36.851563 36.855469 36.851563h3.257812c8.964844 34.03125 33.816407 61.679687 66.113281 74.503906v16.949218c-.859374.1875-39.480468 25.027344-39.480468 25.027344-.289063.191406-.558594.40625-.820313.628906-37.015625 7.328126-65.015625 40.03125-65.015625 79.164063v60.203125c0 4.140625 3.359375 7.5 7.503906 7.5h29.414063c9.695313 0 9.695313-15 0-15h-21.914063v-52.703125c0-31.871094 22.8125-58.5 52.964844-64.457031l50.378906 55.980468c3.035157 3.371094 8.359376 3.304688 11.300782-.171874l8.777344-10.371094v71.722656h-64.507813c-9.695313 0-9.695313 15 0 15h210.410156c4.144531 0 7.5-3.359375 7.5-7.5v-60.203125c0-39.125-27.988281-71.820313-64.988281-79.160156zm-145.46875 7.171875 23.441406-15.207032 31.726563 47.179688-12.789063 15.113281zm129.109375 0-42.378906 47.085937-12.789063-15.113281 31.722656-47.179688zm-23.972656-68.921875c-4.148438 0-7.523438-3.375-7.523438-7.523438 0-4.148437 3.375-7.523437 7.523438-7.523437h17.03125c4.144531 0 7.519531 3.375 7.519531 7.523437 0 4.148438-3.375 7.523438-7.519531 7.523438zm69.375-70.363281h-.394531c.507812-4.3125.765624-8.683594.765624-13.097657v-30.597656c11.878907.199219 21.484376 9.917969 21.484376 21.84375 0 12.046875-9.804688 21.851563-21.855469 21.851563zm.371093-58.695313v-29.601563c3.609376-2.007812 6.804688-3.914062 9.558594-5.644531-.285156 11.851563-1.089844 26.691407-2.988281 35.902344-2.132813-.410156-4.328125-.632813-6.570313-.65625zm-242.164062 36.84375c0-11.925781 9.605469-21.644531 21.488281-21.84375v30.609375c0 4.425781.269531 8.792969.777344 13.082031h-.410156c-12.050781.003907-21.855469-9.800781-21.855469-21.847656zm12.09375-72.679687c2.71875 1.761718 5.851562 3.699218 9.394531 5.726562v30.109375c-2.183593.023437-4.320312.238281-6.398437.625-1.921875-9.363281-2.722656-24.527344-2.996094-36.460937zm24.394531 81.445312v-67.878906c22.871094 10.863281 55.402344 21.558594 94.84375 21.558594 39.730469 0 72.695313-10.605469 95.828125-21.285157v67.59375c0 14.980469-3.371094 29.320313-10.027344 42.609375-4.226562 8.449219 9.105469 15.324219 13.417969 6.714844 3.429688-6.851562 6.101563-13.941406 8.015625-21.226562 1.972656.03125 3.992188.03125 5.960938-.113282v30.511719c0 6.585937-5.359375 11.945313-11.945313 11.945313h-20.511719c-.324218-1.195313-.949218-2.324219-1.875-3.269532-3.425781-8.078125-11.433593-13.761718-20.746093-13.761718h-17.03125c-12.421875 0-22.527344 10.105468-22.527344 22.527343 0 6.320313 2.621094 12.035157 6.828125 16.128907-8.019531 2.152343-16.375 3.269531-24.90625 3.269531-52.5625 0-95.324219-42.761719-95.324219-95.324219zm95.335938 110.328125c8.738281 0 17.3125-1.015625 25.597656-2.976563v26.015626l-25.585937 38.054687-25.609376-38.085937v-26.011719c8.21875 1.957031 16.789063 3.003906 25.597657 3.003906zm67.679687 159.746094-6.90625-21.707031h34.265625l-7.46875 21.910156c-1.171875 3.421875-3.992187 5.941406-7.394531 6.78125h-5.054688c-3.472656-.859375-6.316406-3.453125-7.441406-6.984375zm63.230469 6.984375h-29.898437c.273437-.632813.527343-1.28125.753906-1.941406l10.851562-31.832032c1.035156-5.738281-1.332031-9.046875-7.097656-9.917968h-55.007812c-5.6875.839843-8.070313 4.097656-7.144532 9.773437l10.015625 31.480469c.269531.839844.585938 1.648437.929688 2.4375h-46.800781v-71.71875l8.773437 10.371094c2.941406 3.476562 8.265625 3.542968 11.300781.171874l50.378906-55.976562c30.144532 5.960938 52.949219 32.589844 52.949219 64.453125v52.699219zm0 0"/><path d="m175.835938 48.273438h-55.003907c-2.390625 0-4.640625 1.140624-6.054687 3.070312-1.410156 1.933594-1.816406 4.421875-1.09375 6.703125l10.019531 31.480469c3.378906 10.617187 13.132813 17.75 24.273437 17.75 10.898438 0 20.589844-6.933594 24.105469-17.253906l10.855469-31.832032c.777344-2.289062.40625-4.816406-1-6.785156-1.410156-1.96875-3.679688-3.132812-6.101562-3.132812zm-17.949219 36.910156c-1.445313 4.242187-5.429688 7.09375-9.910157 7.09375-4.578124 0-8.589843-2.933594-9.980468-7.296875l-6.90625-21.707031h34.265625zm0 0"/></svg>