<svg height="512" viewBox="0 0 64 64" width="512" xmlns="http://www.w3.org/2000/svg"><g id="_20-Hospital" data-name="20-Hospital"><path d="m28 10h2v2h-2z"/><path d="m59 56h-54a5.006 5.006 0 0 1 -5-5v-36a5.006 5.006 0 0 1 5-5h21v2h-21a3 3 0 0 0 -3 3v36a3 3 0 0 0 3 3h54a3 3 0 0 0 3-3v-36a3 3 0 0 0 -3-3h-1v-2h1a5.006 5.006 0 0 1 5 5v36a5.006 5.006 0 0 1 -5 5z"/><path d="m46 64h-28a1 1 0 0 1 -1-1v-4a1 1 0 0 1 1-1h28a1 1 0 0 1 1 1v4a1 1 0 0 1 -1 1zm-27-2h26v-2h-26z"/><path d="m41 54.172h2v5.657h-2z" transform="matrix(.707 -.707 .707 .707 -28.004 46.393)"/><path d="m19.172 56h5.657v2h-5.657z" transform="matrix(.707 -.707 .707 .707 -33.861 32.251)"/><path d="m1 48h62v2h-62z"/><path d="m46 38a1 1 0 0 1 -.707-.293l-26-26 1.414-1.414 25.293 25.293 16.293-16.293 1.414 1.414-17 17a1 1 0 0 1 -.707.293z"/><path d="m57.293 49.707-6-6a1 1 0 0 1 0-1.414l11-11 1.414 1.414-10.293 10.293 5.293 5.293z"/><path d="m1.707 45.707-1.414-1.414 19-19a1 1 0 0 1 1.414 0l3 3-1.414 1.414-2.293-2.293z"/><path d="m25.001 30.587h2v2.827h-2z" transform="matrix(.707 -.707 .707 .707 -15.012 27.758)"/><path d="m35.001 32.103h2v19.796h-2z" transform="matrix(.707 -.707 .707 .707 -19.155 37.758)"/><path d="m1.707 32.707-1.414-1.414 11.293-11.293-8.293-8.293 1.414-1.414 9 9a1 1 0 0 1 0 1.414z"/><path d="m49 22h-6a1 1 0 0 1 -1-1v-3h-3a1 1 0 0 1 -1-1v-6a1 1 0 0 1 1-1h3v-3a1 1 0 0 1 1-1h6a1 1 0 0 1 1 1v3h3a1 1 0 0 1 1 1v6a1 1 0 0 1 -1 1h-3v3a1 1 0 0 1 -1 1zm-5-2h4v-3a1 1 0 0 1 1-1h3v-4h-3a1 1 0 0 1 -1-1v-3h-4v3a1 1 0 0 1 -1 1h-3v4h3a1 1 0 0 1 1 1z"/><path d="m46 33a1 1 0 0 1 -.848-.47l-3.215-5.144a14 14 0 1 1 8.126 0l-3.215 5.144a1 1 0 0 1 -.848.47zm0-31a11.993 11.993 0 0 0 -3.156 23.565 1.009 1.009 0 0 1 .586.435l2.57 4.113 2.57-4.113a1.009 1.009 0 0 1 .586-.435 11.993 11.993 0 0 0 -3.156-23.565z"/><path d="m17 50a1 1 0 0 1 -.707-.293l-7-7a1 1 0 0 1 0-1.414l9-9a1 1 0 0 1 1.414 0l16 16-1.414 1.414-8.293-8.293-8.293 8.293a1 1 0 0 1 -.707.293zm-5.586-8 5.586 5.586 7.586-7.586-5.586-5.586z"/></g></svg>