<svg height="512" viewBox="0 0 88 88" width="512" xmlns="http://www.w3.org/2000/svg"><g id="Price_List" data-name="Price List"><rect fill="#4294ff" height="80" rx="1" width="66" x="5" y="6"/><path d="m66 10h-56a1 1 0 0 0 -1 1v62a9 9 0 0 0 9 9h48a1 1 0 0 0 1-1v-70a1 1 0 0 0 -1-1z" fill="#e6ecff"/><rect fill="#376cfb" height="14" rx="1" width="42" x="17" y="2"/><g fill="#4294ff"><path d="m17 31a.9608.9608 0 0 0 -1-.9531 1.0417 1.0417 0 0 0 -1 1.0478 3.9049 3.9049 0 0 0 3 3.7887v.1166a1 1 0 0 0 2 0v-.1166a3.8987 3.8987 0 0 0 .33-7.4938l-.33-.1096v-4.04a1.8988 1.8988 0 0 1 1 1.6659v.0941a.9608.9608 0 0 0 1 .9531 1.0417 1.0417 0 0 0 1-1.0478 3.9049 3.9049 0 0 0 -3-3.7887v-.1166a1 1 0 0 0 -2 0v.1166a3.8987 3.8987 0 0 0 -.33 7.4938l.33.11v4.037a1.9761 1.9761 0 0 1 -1-1.7574zm4 .0947a1.8989 1.8989 0 0 1 -1 1.6659v-3.3169a1.8862 1.8862 0 0 1 1 1.651zm-4-6.1894a1.8988 1.8988 0 0 1 1-1.6659v3.3169a1.8862 1.8862 0 0 1 -1-1.651z"/><path d="m28 25h32a1 1 0 0 0 0-2h-32a1 1 0 0 0 0 2z"/><path d="m60 31h-32a1 1 0 0 0 0 2h32a1 1 0 0 0 0-2z"/><path d="m60 39h-44a1 1 0 0 0 0 2h44a1 1 0 0 0 0-2z"/><path d="m52 47h-36a1 1 0 0 0 0 2h36a1 1 0 0 0 0-2z"/><path d="m52 55h-36a1 1 0 0 0 0 2h36a1 1 0 0 0 0-2z"/><path d="m52 63h-36a1 1 0 0 0 0 2h36a1 1 0 0 0 0-2z"/><path d="m60 47h-4a1 1 0 0 0 0 2h4a1 1 0 0 0 0-2z"/><path d="m60 55h-4a1 1 0 0 0 0 2h4a1 1 0 0 0 0-2z"/><path d="m60 63h-4a1 1 0 0 0 0 2h4a1 1 0 0 0 0-2z"/></g><path d="m82 72h-54a1 1 0 0 0 -1 1 9 9 0 0 1 -9 9h56a9 9 0 0 0 9-9 1 1 0 0 0 -1-1z" fill="#d0dbf7"/></g></svg>