<svg height="512" viewBox="0 0 64 64" width="512" xmlns="http://www.w3.org/2000/svg"><g id="_21-Hospital" data-name="21-Hospital"><path d="m35 19h-6a1 1 0 0 1 -1-1v-3h-3a1 1 0 0 1 -1-1v-6a1 1 0 0 1 1-1h3v-3a1 1 0 0 1 1-1h6a1 1 0 0 1 1 1v3h3a1 1 0 0 1 1 1v6a1 1 0 0 1 -1 1h-3v3a1 1 0 0 1 -1 1zm-5-2h4v-3a1 1 0 0 1 1-1h3v-4h-3a1 1 0 0 1 -1-1v-3h-4v3a1 1 0 0 1 -1 1h-3v4h3a1 1 0 0 1 1 1z"/><path d="m44 22h-24a1 1 0 0 1 -1-1v-18a3 3 0 0 1 3-3h20a3 3 0 0 1 3 3v18a1 1 0 0 1 -1 1zm-23-2h22v-17a1 1 0 0 0 -1-1h-20a1 1 0 0 0 -1 1z"/><path d="m20 22h-6a1 1 0 0 1 -1-1v-6a1 1 0 0 1 1-1h6a1 1 0 0 1 1 1v6a1 1 0 0 1 -1 1zm-5-2h4v-4h-4z"/><path d="m50 22h-6a1 1 0 0 1 -1-1v-6a1 1 0 0 1 1-1h6a1 1 0 0 1 1 1v6a1 1 0 0 1 -1 1zm-5-2h4v-4h-4z"/><path d="m48 64h-32a1 1 0 0 1 -1-1v-42h2v41h30v-41h2v42a1 1 0 0 1 -1 1z"/><path d="m60 64h-12a1 1 0 0 1 -1-1v-28a1 1 0 0 1 1-1h14a1 1 0 0 1 1 1v26a3 3 0 0 1 -3 3zm-11-2h11a1 1 0 0 0 1-1v-25h-12z"/><path d="m63 36h-15v-2h14v-2h-11v-2h12a1 1 0 0 1 1 1v4a1 1 0 0 1 -1 1z"/><path d="m16 64h-12a3 3 0 0 1 -3-3v-26a1 1 0 0 1 1-1h14a1 1 0 0 1 1 1v28a1 1 0 0 1 -1 1zm-13-28v25a1 1 0 0 0 1 1h11v-26z"/><path d="m16 36h-15a1 1 0 0 1 -1-1v-4a1 1 0 0 1 1-1h12v2h-11v2h14z"/><path d="m43 64h-22a1 1 0 0 1 -1-1v-14h2v13h20v-21a1 1 0 0 0 -1-1h-18a1 1 0 0 0 -1 1v2h-2v-2a3 3 0 0 1 3-3h18a3 3 0 0 1 3 3v22a1 1 0 0 1 -1 1z"/><path d="m20 45h2v2h-2z"/><path d="m31 39h2v24h-2z"/><path d="m34 48h2v6h-2z"/><path d="m28 48h2v6h-2z"/><path d="m58 46h-6a1 1 0 0 1 -1-1v-6a1 1 0 0 1 1-1h6a1 1 0 0 1 1 1v6a1 1 0 0 1 -1 1zm-5-2h4v-4h-4z"/><path d="m12 46h-6a1 1 0 0 1 -1-1v-6a1 1 0 0 1 1-1h6a1 1 0 0 1 1 1v6a1 1 0 0 1 -1 1zm-5-2h4v-4h-4z"/><path d="m25 34h-6a1 1 0 0 1 -1-1v-6a1 1 0 0 1 1-1h6a1 1 0 0 1 1 1v6a1 1 0 0 1 -1 1zm-5-2h4v-4h-4z"/><path d="m35 34h-6a1 1 0 0 1 -1-1v-6a1 1 0 0 1 1-1h6a1 1 0 0 1 1 1v6a1 1 0 0 1 -1 1zm-5-2h4v-4h-4z"/><path d="m45 34h-6a1 1 0 0 1 -1-1v-6a1 1 0 0 1 1-1h6a1 1 0 0 1 1 1v6a1 1 0 0 1 -1 1zm-5-2h4v-4h-4z"/><path d="m2 48h11v2h-11z"/><path d="m48 48h11v2h-11z"/><path d="m2 58h14v2h-14z"/><path d="m48 58h14v2h-14z"/></g></svg>