<svg height="512" viewBox="0 0 128 128" width="512" xmlns="http://www.w3.org/2000/svg"><g><path d="m64 40.811c-27.075 0-40.157 10.729-40.157 10.729l9.418 70.154h61.478l9.418-70.154s-13.082-10.729-40.157-10.729z" fill="#ef3829"/><path d="m101.327 72.624h-74.654l3.03 22.568h68.594z" fill="#f2e7cb"/><path d="m64 40.811c16.271 0 27.481 3.874 33.843 6.966v-28.587h-9.67v-12.884h-9.67v12.884h-9.67v-12.884h-9.67v12.884h-9.663v-12.884h-9.67v12.884h-9.67v28.587c6.359-3.092 17.569-6.966 33.84-6.966z" fill="#ffde3e"/><g fill="#422002"><path d="m31.683 109.942a1.75 1.75 0 0 0 1.5-1.967l-.6-4.46a1.75 1.75 0 0 0 -3.469.466l.6 4.46a1.749 1.749 0 0 0 1.732 1.517 1.708 1.708 0 0 0 .237-.016z"/><path d="m105.268 50.188a34.213 34.213 0 0 0 -5.668-3.511v-11.483a1.75 1.75 0 1 0 -3.5 0v9.84a65.341 65.341 0 0 0 -6.17-2.268v-21.826h6.17v6.577a1.75 1.75 0 0 0 3.5 0v-8.327a1.751 1.751 0 0 0 -1.75-1.75h-7.92v-11.133a1.75 1.75 0 0 0 -1.75-1.75h-9.67a1.75 1.75 0 0 0 -1.75 1.75v11.133h-6.17v-11.133a1.75 1.75 0 0 0 -1.75-1.75h-9.67a1.75 1.75 0 0 0 -1.75 1.75v11.133h-6.17v-11.133a1.75 1.75 0 0 0 -1.75-1.75h-9.67a1.75 1.75 0 0 0 -1.75 1.75v11.133h-7.92a1.751 1.751 0 0 0 -1.75 1.75v27.487a34.213 34.213 0 0 0 -5.673 3.511 1.749 1.749 0 0 0 -.624 1.585l5.86 43.652c0 .02.011.037.014.057a1.6 1.6 0 0 0 .043.182c.015.053.029.105.049.156a1.7 1.7 0 0 0 .072.156c.026.052.052.1.082.151s.06.085.092.127.075.1.117.14a1.266 1.266 0 0 0 .107.1 1.836 1.836 0 0 0 .146.121c.039.027.08.05.12.075a1.919 1.919 0 0 0 .173.093c.041.019.085.034.128.049a1.786 1.786 0 0 0 .2.061c.044.01.09.016.136.023a1.562 1.562 0 0 0 .206.02c.018 0 .035.006.054.006h66.588l-3.089 23h-58.419l-.511-3.8a1.75 1.75 0 0 0 -3.469.465l.714 5.318a1.75 1.75 0 0 0 1.735 1.517h61.478a1.75 1.75 0 0 0 1.735-1.517l9.418-70.153a1.749 1.749 0 0 0 -.624-1.584zm-25.013-42.131h6.17v33.709c-1.91-.495-3.963-.95-6.17-1.338zm-3.5 12.883v18.951q-2.931-.393-6.17-.611v-18.34zm-15.84-12.883h6.17v31.056c-1.01-.031-2.034-.051-3.085-.051s-2.075.02-3.085.051zm-3.5 12.883v18.34q-3.242.213-6.17.611v-18.951zm-15.84-12.883h6.17v32.371c-2.207.388-4.26.843-6.17 1.338zm-9.67 12.883h6.17v21.826a65.341 65.341 0 0 0 -6.17 2.268zm32.095 21.622c22.484 0 35.166 7.632 38.285 9.777l-2.485 18.535h-71.6l-2.485-18.539c3.106-2.15 15.713-9.773 38.285-9.773zm-32.767 50.88-2.56-19.068h70.653l-2.56 19.068z"/><path d="m69.818 51.038c1.729.134 3.443.33 5.094.583a1.867 1.867 0 0 0 .267.02 1.75 1.75 0 0 0 .263-3.48c-1.737-.266-3.539-.472-5.354-.612a1.75 1.75 0 1 0 -.27 3.489z"/><path d="m81.3 52.942c9 2.385 13.511 5.985 13.556 6.021a1.75 1.75 0 0 0 2.215-2.709c-.2-.166-5.071-4.1-14.875-6.694a1.749 1.749 0 0 0 -.9 3.382z"/></g></g></svg>