<svg enable-background="new 0 0 128 128" height="512" viewBox="0 0 128 128" width="512" xmlns="http://www.w3.org/2000/svg"><g id="Layer_23"><path d="m83.75 29.06c0 4.96-4.04 9-9 9h-2.75c-3.86 0-7 3.14-7 7v1.75h-2v-1.75c0-4.96 4.04-9 9-9h2.75c3.86 0 7-3.14 7-7 0-2.35-1.91-4.25-4.25-4.25h-5.5c-4.96 0-9-4.04-9-9 0-.55.45-1 1-1s1 .45 1 1c0 3.86 3.14 7 7 7h5.5c3.44 0 6.25 2.8 6.25 6.25z" fill="#2e3338"/><path d="m109.25 49.81v42.19c0 2.21-1.79 4-4 4h-82.5c-2.21 0-4-1.79-4-4v-42.19c0-2.21 1.79-4 4-4h82.5c2.21 0 4 1.79 4 4z" fill="#2e3338"/><g fill="#24282b"><path d="m68.88 55.56v5.77c0 .55-.45 1-1 1h-5.77c-.55 0-1-.45-1-1v-5.77c0-.55.45-1 1-1h5.77c.56 0 1 .45 1 1z"/><path d="m56.67 55.56v5.77c0 .55-.45 1-1 1h-5.77c-.55 0-1-.45-1-1v-5.77c0-.55.45-1 1-1h5.77c.55 0 1 .45 1 1z"/><path d="m44.44 55.56v5.77c0 .55-.45 1-1 1h-5.77c-.55 0-1-.45-1-1v-5.77c0-.55.45-1 1-1h5.77c.55 0 1 .45 1 1z"/><path d="m32.22 55.56v5.77c0 .55-.45 1-1 1h-5.77c-.55 0-1-.45-1-1v-5.77c0-.55.45-1 1-1h5.77c.56 0 1 .45 1 1z"/><path d="m81.1 55.56v5.77c0 .55-.45 1-1 1h-5.77c-.55 0-1-.45-1-1v-5.77c0-.55.45-1 1-1h5.77c.55 0 1 .45 1 1z"/><path d="m93.33 55.56v5.77c0 .55-.45 1-1 1h-5.77c-.55 0-1-.45-1-1v-5.77c0-.55.45-1 1-1h5.77c.55 0 1 .45 1 1z"/><path d="m105.55 55.56v5.77c0 .55-.45 1-1 1h-5.77c-.55 0-1-.45-1-1v-5.77c0-.55.45-1 1-1h5.77c.55 0 1 .45 1 1z"/><path d="m68.88 68.52v5.77c0 .55-.45 1-1 1h-5.77c-.55 0-1-.45-1-1v-5.77c0-.55.45-1 1-1h5.77c.56 0 1 .44 1 1z"/><path d="m56.67 68.52v5.77c0 .55-.45 1-1 1h-5.77c-.55 0-1-.45-1-1v-5.77c0-.55.45-1 1-1h5.77c.55 0 1 .44 1 1z"/><path d="m44.44 68.52v5.77c0 .55-.45 1-1 1h-5.77c-.55 0-1-.45-1-1v-5.77c0-.55.45-1 1-1h5.77c.55 0 1 .44 1 1z"/><path d="m32.22 68.52v5.77c0 .55-.45 1-1 1h-5.77c-.55 0-1-.45-1-1v-5.77c0-.55.45-1 1-1h5.77c.56 0 1 .44 1 1z"/><path d="m81.1 68.52v5.77c0 .55-.45 1-1 1h-5.77c-.55 0-1-.45-1-1v-5.77c0-.55.45-1 1-1h5.77c.55 0 1 .44 1 1z"/><path d="m93.33 68.53v5.77c0 .55-.45 1-1 1h-5.77c-.55 0-1-.45-1-1v-5.77c0-.55.45-1 1-1h5.77c.55 0 1 .44 1 1z"/><path d="m105.55 68.53v5.77c0 .55-.45 1-1 1h-5.77c-.55 0-1-.45-1-1v-5.77c0-.55.45-1 1-1h5.77c.55 0 1 .44 1 1z"/><path d="m81.58 82.25v6c0 .55-.45 1-1 1h-31.16c-.55 0-1-.45-1-1v-6c0-.55.45-1 1-1h31.16c.55 0 1 .45 1 1z"/><path d="m44.44 81.48v5.77c0 .55-.45 1-1 1h-5.77c-.55 0-1-.45-1-1v-5.77c0-.55.45-1 1-1h5.77c.55 0 1 .45 1 1z"/><path d="m32.22 81.48v5.77c0 .55-.45 1-1 1h-5.77c-.55 0-1-.45-1-1v-5.77c0-.55.45-1 1-1h5.77c.56 0 1 .45 1 1z"/><path d="m94.17 82.25v6c0 .55-.45 1-1 1h-6c-.55 0-1-.45-1-1v-6c0-.55.45-1 1-1h6c.55 0 1 .45 1 1z"/><path d="m106.75 82.25v6c0 .55-.45 1-1 1h-6c-.55 0-1-.45-1-1v-6c0-.55.45-1 1-1h6c.55 0 1 .45 1 1z"/></g><path d="m67.88 54.56v5.77c0 .55-.45 1-1 1h-5.77c-.55 0-1-.45-1-1v-5.77c0-.55.45-1 1-1h5.77c.56 0 1 .45 1 1z" fill="#434a51"/><path d="m55.67 54.56v5.77c0 .55-.45 1-1 1h-5.77c-.55 0-1-.45-1-1v-5.77c0-.55.45-1 1-1h5.77c.55 0 1 .45 1 1z" fill="#434a51"/><path d="m43.44 54.56v5.77c0 .55-.45 1-1 1h-5.77c-.55 0-1-.45-1-1v-5.77c0-.55.45-1 1-1h5.77c.55 0 1 .45 1 1z" fill="#434a51"/><path d="m31.22 54.56v5.77c0 .55-.45 1-1 1h-5.77c-.55 0-1-.45-1-1v-5.77c0-.55.45-1 1-1h5.77c.56 0 1 .45 1 1z" fill="#434a51"/><path d="m80.1 54.56v5.77c0 .55-.45 1-1 1h-5.77c-.55 0-1-.45-1-1v-5.77c0-.55.45-1 1-1h5.77c.55 0 1 .45 1 1z" fill="#434a51"/><path d="m92.33 54.56v5.77c0 .55-.45 1-1 1h-5.77c-.55 0-1-.45-1-1v-5.77c0-.55.45-1 1-1h5.77c.55 0 1 .45 1 1z" fill="#434a51"/><path d="m104.55 54.56v5.77c0 .55-.45 1-1 1h-5.77c-.55 0-1-.45-1-1v-5.77c0-.55.45-1 1-1h5.77c.55 0 1 .45 1 1z" fill="#434a51"/><path d="m67.88 67.52v5.77c0 .55-.45 1-1 1h-5.77c-.55 0-1-.45-1-1v-5.77c0-.55.45-1 1-1h5.77c.56 0 1 .44 1 1z" fill="#434a51"/><path d="m55.67 67.52v5.77c0 .55-.45 1-1 1h-5.77c-.55 0-1-.45-1-1v-5.77c0-.55.45-1 1-1h5.77c.55 0 1 .44 1 1z" fill="#434a51"/><path d="m43.44 67.52v5.77c0 .55-.45 1-1 1h-5.77c-.55 0-1-.45-1-1v-5.77c0-.55.45-1 1-1h5.77c.55 0 1 .44 1 1z" fill="#434a51"/><path d="m31.22 67.52v5.77c0 .55-.45 1-1 1h-5.77c-.55 0-1-.45-1-1v-5.77c0-.55.45-1 1-1h5.77c.56 0 1 .44 1 1z" fill="#434a51"/><path d="m80.1 67.52v5.77c0 .55-.45 1-1 1h-5.77c-.55 0-1-.45-1-1v-5.77c0-.55.45-1 1-1h5.77c.55 0 1 .44 1 1z" fill="#434a51"/><path d="m92.33 67.53v5.77c0 .55-.45 1-1 1h-5.77c-.55 0-1-.45-1-1v-5.77c0-.55.45-1 1-1h5.77c.55 0 1 .44 1 1z" fill="#434a51"/><path d="m104.55 67.53v5.77c0 .55-.45 1-1 1h-5.77c-.55 0-1-.45-1-1v-5.77c0-.55.45-1 1-1h5.77c.55 0 1 .44 1 1z" fill="#434a51"/><path d="m80.58 81.25v6c0 .55-.45 1-1 1h-31.16c-.55 0-1-.45-1-1v-6c0-.55.45-1 1-1h31.16c.55 0 1 .45 1 1z" fill="#434a51"/><path d="m43.44 80.48v5.77c0 .55-.45 1-1 1h-5.77c-.55 0-1-.45-1-1v-5.77c0-.55.45-1 1-1h5.77c.55 0 1 .45 1 1z" fill="#434a51"/><path d="m31.22 80.48v5.77c0 .55-.45 1-1 1h-5.77c-.55 0-1-.45-1-1v-5.77c0-.55.45-1 1-1h5.77c.56 0 1 .45 1 1z" fill="#434a51"/><path d="m93.17 81.25v6c0 .55-.45 1-1 1h-6c-.55 0-1-.45-1-1v-6c0-.55.45-1 1-1h6c.55 0 1 .45 1 1z" fill="#434a51"/><path d="m105.75 81.25v6c0 .55-.45 1-1 1h-6c-.55 0-1-.45-1-1v-6c0-.55.45-1 1-1h6c.55 0 1 .45 1 1z" fill="#434a51"/></g></svg>