<svg height="512" viewBox="0 0 128 128" width="512" xmlns="http://www.w3.org/2000/svg"><g><path d="m56.927 84.416a5.3 5.3 0 0 0 4.681-3.488 5.729 5.729 0 0 0 6.823-2.484c5.817 2.529 8.444-1 8.444-1 7.103 3.356 10.025-.764 10.025-.764 7.216 1.982 9.91-2.346 9.91-2.346a6.963 6.963 0 0 0 7.97-4.119c5.032-.041 6.487-5.339 6.487-5.339 5.574-1.874 5.271-6.432 5.271-6.432 4.595-2.826 3.124-6.953 3.124-6.953 4-4.6.86-7.853.86-7.853 2.972-5.091-1.731-8.308-1.731-8.308 1.113-5.479-3.916-7.855-3.916-7.855.288-5.485-6.4-7.955-6.4-7.955s-2.47-6.685-7.955-6.4c0 0-2.376-5.029-7.855-3.916 0 0-3.217-4.7-8.308-1.731 0 0-3.253-3.135-7.853.86 0 0-4.127-1.471-6.953 3.124 0 0-4.558-.3-6.432 5.271 0 0-5.3 1.455-5.339 6.487a6.963 6.963 0 0 0 -4.119 7.97s-4.328 2.694-2.346 9.91c0 0-4.121 2.924-.763 10.027 0 0-3.53 2.627-1 8.444a5.729 5.729 0 0 0 -2.484 6.823 5.3 5.3 0 0 0 -3.488 4.681s-.187 6.221 6.671 6.672c.455 6.858 6.676 6.674 6.676 6.674z" fill="#ef983b"/><path d="m50.255 77.745a6.748 6.748 0 0 1 -5.38-2.656l-14.396 14.392c-4.382 4.383-9.141 2.831-16.3 2.724s-10.574 7.795-5.336 13.03a10.528 10.528 0 0 0 11.119 2.8 10.528 10.528 0 0 0 2.8 11.119c5.238 5.246 13.138 1.831 13.038-5.331s-1.659-11.92 2.724-16.3l14.387-14.394a6.749 6.749 0 0 1 -2.656-5.384z" fill="#f2e7cb"/><g fill="#422002"><path d="m122.566 43.483a7.628 7.628 0 0 0 -1.9-8.88 8.853 8.853 0 0 0 -4.056-8.146c-.388-4.832-4.977-7.425-6.8-8.269-.843-1.82-3.437-6.41-8.269-6.8a8.86 8.86 0 0 0 -8.141-4.055 7.628 7.628 0 0 0 -8.879-1.9c-1.83-1.049-4.956-1.616-8.443 1a7.749 7.749 0 0 0 -7.478 3.32 8.655 8.655 0 0 0 -6.823 5.594 8.889 8.889 0 0 0 -5.658 6.738 8.6 8.6 0 0 0 -4.319 8.384c-1.369 1.334-3.617 4.483-2.419 10.08-1.245 1.451-3.069 4.741-.889 10.217-1.06 1.36-2.385 4.057-1.042 8.183a7.4 7.4 0 0 0 -2.35 6.472 7.284 7.284 0 0 0 -3.246 5.424 1.474 1.474 0 0 0 -.014.176 8.614 8.614 0 0 0 .833 3.8l-4.093 4.094a1.749 1.749 0 1 0 2.474 2.474l3.786-3.789a8.581 8.581 0 0 0 3.85 1.715 8.6 8.6 0 0 0 1.71 3.847l-13.119 13.121c-4.01 4.01-3.739 8.357-3.426 13.391.083 1.325.168 2.695.19 4.176a5.835 5.835 0 0 1 -3.414 5.666 5.951 5.951 0 0 1 -6.631-1.596 8.769 8.769 0 0 1 -2.423-9.212 1.754 1.754 0 0 0 -2.275-2.291 8.772 8.772 0 0 1 -9.222-2.417 5.949 5.949 0 0 1 -1.6-6.629 5.8 5.8 0 0 1 5.666-3.414c1.481.022 2.851.107 4.176.19 5.032.312 9.381.583 13.391-3.426l3.9-3.905a1.75 1.75 0 0 0 -2.475-2.474l-3.9 3.9c-2.894 2.894-6 2.7-10.7 2.407-1.366-.085-2.778-.172-4.341-.2a9.229 9.229 0 0 0 -8.942 5.55 9.454 9.454 0 0 0 2.344 10.467 12.331 12.331 0 0 0 10.086 3.837 12.336 12.336 0 0 0 3.843 10.097 9.924 9.924 0 0 0 7 3.052 8.878 8.878 0 0 0 3.472-.713 9.272 9.272 0 0 0 5.55-8.942c-.024-1.563-.111-2.975-.2-4.341-.293-4.7-.486-7.805 2.407-10.7l13.424-13.423a8.681 8.681 0 0 0 3.6.835h.2a1.474 1.474 0 0 0 .176-.014 7.284 7.284 0 0 0 5.424-3.246 7.4 7.4 0 0 0 6.473-2.355c4.121 1.343 6.821.018 8.182-1.042 5.474 2.178 8.765.355 10.217-.893 5.6 1.2 8.746-1.05 10.08-2.419a8.6 8.6 0 0 0 8.383-4.314 8.89 8.89 0 0 0 6.739-5.658 8.655 8.655 0 0 0 5.594-6.822 7.749 7.749 0 0 0 3.316-7.478c2.619-3.488 2.051-6.614 1.001-8.444zm-4.223 6.861a1.751 1.751 0 0 0 -.327 1.735c.041.114.957 2.815-2.393 4.875a1.75 1.75 0 0 0 -.829 1.607c0 .031.164 3.229-4.083 4.656a1.764 1.764 0 0 0 -1.127 1.187c-.048.164-1.2 4.032-4.817 4.061a1.773 1.773 0 0 0 -1.618 1.118 5.151 5.151 0 0 1 -6.022 3.03 1.8 1.8 0 0 0 -1.786.773c-.088.132-2.211 3.191-7.975 1.607a1.8 1.8 0 0 0 -1.871.648c-.093.117-2.3 2.856-7.872.22a1.747 1.747 0 0 0 -2.151.537c-.019.025-1.848 2.4-6.343.441a1.751 1.751 0 0 0 -2.245.788c-.056.106-1.4 2.576-4.8 1.617a1.747 1.747 0 0 0 -2.166 1.235 3.592 3.592 0 0 1 -3.118 2.188c-.745-.012-4.491-.305-4.8-5.037a1.748 1.748 0 0 0 -1.63-1.63c-4.752-.312-5.028-4.088-5.037-4.8a3.58 3.58 0 0 1 2.188-3.117 1.747 1.747 0 0 0 1.235-2.166 3.972 3.972 0 0 1 1.617-4.8 1.751 1.751 0 0 0 .788-2.246c-1.872-4.307.221-6.164.441-6.342a1.751 1.751 0 0 0 .537-2.152c-2.638-5.578.1-7.781.194-7.852a1.75 1.75 0 0 0 .674-1.891c-1.583-5.764 1.475-7.887 1.584-7.96a1.749 1.749 0 0 0 .8-1.8 5.162 5.162 0 0 1 3.009-6.019 1.749 1.749 0 0 0 1.131-1.623c.029-3.618 3.9-4.768 4.052-4.813a1.751 1.751 0 0 0 1.2-1.13c1.373-4.083 4.348-4.1 4.656-4.083a1.748 1.748 0 0 0 1.607-.829c1.981-3.22 4.6-2.48 4.875-2.392a1.75 1.75 0 0 0 1.735-.327c3.154-2.738 5.144-1.232 5.492-.922a1.749 1.749 0 0 0 2.1.251 4.291 4.291 0 0 1 5.981 1.207 1.739 1.739 0 0 0 1.793.727 5.406 5.406 0 0 1 5.924 2.949 1.747 1.747 0 0 0 1.674 1c4.13-.221 6.2 5.207 6.221 5.257a1.759 1.759 0 0 0 1.03 1.033c.055.021 5.478 2.109 5.261 6.223a1.768 1.768 0 0 0 .99 1.669 5.392 5.392 0 0 1 2.959 5.929 1.749 1.749 0 0 0 .727 1.793 4.293 4.293 0 0 1 1.208 5.982 1.792 1.792 0 0 0 .231 2.076c.327.368 1.834 2.359-.904 5.512z"/><path d="m90.467 22.18a1.75 1.75 0 0 0 .015 3.5c.121 0 2.944.041 3.783 2.2a1.749 1.749 0 1 0 3.261-1.267c-1.714-4.413-6.791-4.413-7.059-4.433z"/><path d="m75.234 23.855c-1.892.27-5.277 1.7-5.956 5.344a1.75 1.75 0 0 0 1.4 2.04 1.688 1.688 0 0 0 .322.031 1.753 1.753 0 0 0 1.719-1.431c.385-2.07 2.885-2.5 3.019-2.521a1.75 1.75 0 0 0 -.505-3.463z"/><path d="m64.842 46.807c-.158.1-3.882 2.433-3.882 8.5a1.75 1.75 0 0 0 3.5 0c0-3.975 2.094-5.44 2.224-5.527a1.75 1.75 0 0 0 -1.842-2.977z"/><path d="m89.661 43.718a1.754 1.754 0 0 0 -2.231 1.06c-.043.117-1.071 2.873-3.7 3.035a1.75 1.75 0 0 0 .106 3.5h.109c4.973-.306 6.711-5.165 6.782-5.372a1.743 1.743 0 0 0 -1.066-2.223z"/></g></g></svg>