<svg height="512" viewBox="0 0 88 88" width="512" xmlns="http://www.w3.org/2000/svg"><g id="Price_Tag" data-name="Price Tag"><path d="m50.98 24.28a7.176 7.176 0 0 0 -1.98-.28h-.07a23.1261 23.1261 0 0 0 -4.61-10.74l1.43-1.43a24.6106 24.6106 0 0 1 5.23 12.45z" fill="#e6ecff"/><path d="m68.7065 28.293-19-19a.9994.9994 0 0 0 -1.414 0l-19 19a.9993.9993 0 0 0 -.2925.707v51a7.0081 7.0081 0 0 0 7 7h26a7.0081 7.0081 0 0 0 7-7v-51a.9993.9993 0 0 0 -.2935-.707z" fill="#e6ecff"/><circle cx="49" cy="31" fill="#376cfb" r="7"/><g fill="#4294ff"><path d="m54 61a1 1 0 0 0 1-1v-.23a5.7748 5.7748 0 0 0 -5-5.7129v-2.0571a1 1 0 0 0 -2 0v2.0576a5.7664 5.7664 0 0 0 -1.3725 11.07l1.3725.5495v8.2429a3.7761 3.7761 0 0 1 -3-3.69v-.23a1 1 0 0 0 -2 0v.23a5.7754 5.7754 0 0 0 5 5.7129v2.0571a1 1 0 0 0 2 0v-2.0576a5.7666 5.7666 0 0 0 1.3731-11.07l-1.3731-.5498v-8.2426a3.7761 3.7761 0 0 1 3 3.69v.23a1 1 0 0 0 1 1zm-3.37 5.73a3.77 3.77 0 0 1 -.63 7.19v-7.4427zm-3.26-3.459a3.7693 3.7693 0 0 1 .63-7.191v7.442z"/><path d="m48.59 32.4a8.7047 8.7047 0 0 1 -6.52 2.6c-4.14 0-8.86-2.1-13.07-5.74a31.7128 31.7128 0 0 1 -2.45-2.35c-7.57-8.07-9.83-18.31-5.14-23.31a8.6574 8.6574 0 0 1 6.52-2.6c4.97 0 10.77 3.02 15.52 8.09a30.36 30.36 0 0 1 2.3 2.74l-1.43 1.43a30.16 30.16 0 0 0 -2.33-2.81c-4.31-4.59-9.7-7.45-14.06-7.45a6.6853 6.6853 0 0 0 -5.06 1.97c-3.9 4.16-1.59 13.39 5.14 20.58q.99 1.05 2.04 1.98c3.89 3.42 8.33 5.47 12.02 5.47a6.7571 6.7571 0 0 0 5.06-1.97c1.57-1.68 2.13-4.18 1.8-7.03h.07a7.176 7.176 0 0 1 1.98.28 10.3389 10.3389 0 0 1 -2.39 8.12z"/></g></g></svg>