<svg height="512pt" viewBox="-109 0 512 512" width="512pt" xmlns="http://www.w3.org/2000/svg"><path d="m235.800781 367.609375c-9.019531-18.460937-29.246093-26.238281-48.753906-26.949219v-17.746094c32.222656-12.796874 57.019531-40.390624 65.964844-74.34375 2.078125.035157 4.210937.035157 6.277343-.132812.269532 21.800781-7.699218 43.378906-22.023437 59.816406-2.664063-1.152344-5.601563-1.792968-8.6875-1.792968-12.132813 0-22.003906 9.871093-22.003906 22.003906 0 12.128906 9.871093 22 22.003906 22s22.003906-9.871094 22.003906-22c0-3.578125-.863281-6.953125-2.382812-9.941406 18.460937-20.96875 26.273437-47.132813 26.074219-74.6875 11.191406-6.316407 18.769531-18.3125 18.769531-32.050782 0-18.992187-14.46875-34.667968-32.960938-36.585937 3.71875-26.980469-.632812-55.289063-14.195312-78.554688-14.597657-25.046875-43.394531-40.6875-43.394531-40.6875 0-30.855469-25.105469-55.957031-55.960938-55.957031-7.171875 0-14.160156 1.339844-20.769531 3.984375-8.976563 3.589844-3.410157 17.507813 5.566406 13.917969 4.832031-1.933594 9.949219-2.914063 15.203125-2.914063 21.230469 0 38.734375 16.230469 40.769531 36.933594-8.886719-2.992187-19.699219-5.699219-31.832031-6.84375-17.535156-1.660156-34.105469.175781-49.546875 5.464844.621094-4.730469 2.042969-9.269531 4.28125-13.546875 4.480469-8.566406-8.796875-15.515625-13.28125-6.949219-4.152344 7.9375-6.347656 16.898437-6.347656 25.914063 0 .382812.039062.757812.09375 1.128906-5.113281 2.65625-10.085938 5.726562-14.90625 9.21875-25.425781 18.425781-40.496094 45.113281-43.585938 77.179687-1.226562 12.734375-.339843 23.910157.789063 31.710938-18.492188 1.914062-32.964844 17.59375-32.964844 36.585937 0 22.273438 18.871094 37.085938 40.03125 36.785156 8.949219 33.957032 33.742188 61.546876 65.96875 74.34375v17.75c-19.472656.726563-39.640625 8.5-48.660156 26.917969-15.839844 4.972657-30.058594 14.96875-40.132813 28.273438-10.664062 14.078125-16.296875 30.882812-16.296875 48.585937v60.0625c0 4.140625 3.355469 7.496094 7.492188 7.496094h25.210937c9.667969 0 9.667969-14.988281 0-14.988281h-17.714843v-52.570313c0-25.195312 14.738281-48.128906 36.890624-58.96875-.449218 8.863282 1.433594 18.316406 5.710938 27.898438 9.085938 20.371094 28.324219 41.1875 57.1875 61.871094 4.003906 2.867187 10.074219.871093 11.535156-3.914063 3.121094-10.230469 10.828125-26.777344 19.339844-31.808594 8.511719 5.03125 16.21875 21.574219 19.339844 31.804688 1.457031 4.808593 7.519531 6.796875 11.539062 3.917969 28.859375-20.683594 48.101563-41.5 57.183594-61.871094 4.269531-9.566406 6.152344-19 5.714844-27.851563 22.128906 10.839844 36.804687 33.652344 36.804687 58.921875v52.570313h-209.554687c-9.667969 0-9.667969 14.988281 0 14.988281h217.046875c4.140625 0 7.496093-3.355469 7.496093-7.496094v-60.0625c.003907-35.101562-23.046874-66.34375-56.332031-76.832031zm-14.234375-39.144531c0-3.867188 3.144532-7.015625 7.011719-7.015625s7.015625 3.148437 7.015625 7.015625c0 3.863281-3.148438 7.011718-7.015625 7.011718s-7.011719-3.148437-7.011719-7.011718zm56.488282-116.679688c0 12.019532-9.777344 21.796875-21.796876 21.796875h-.398437c.507813-4.28125.777344-8.636719.777344-13.050781v-30.535156c11.84375.203125 21.417969 9.898437 21.417969 21.789062zm-193.496094-133.339844c20.265625-14.6875 43.648437-20.894531 69.5-18.445312 25.558594 2.417969 44.464844 12.476562 49.648437 15.5 10.585938 6.175781 25.148438 17.878906 34.421875 38.578125 2 4.464844 3.625 9.101563 4.910156 13.894531-6.203124-9.21875-14.34375-17.574218-24.1875-24.640625-3.363281-2.414062-8.042968-1.644531-10.457031 1.71875-2.414062 3.363281-1.644531 8.046875 1.71875 10.460938 17.964844 12.894531 29.15625 30.707031 31.5 49.734375h-110.070312v-34.84375c0-4.136719-3.355469-7.492188-7.492188-7.492188-4.140625 0-7.496093 3.355469-7.496093 7.492188v34.84375h-18.984376v-12.492188c0-4.136718-3.355468-7.492187-7.496093-7.492187-4.136719 0-7.492188 3.355469-7.492188 7.492187v12.492188h-31.136719c4.703126-38.808594 45.554688-69.242188 95.085938-69.242188 13.378906 0 26.320312 2.1875 38.464844 6.492188 3.902344 1.382812 8.1875-.65625 9.570312-4.558594 1.382813-3.902344-.65625-8.183594-4.558594-9.570312-13.757812-4.875-28.382812-7.351563-43.476562-7.351563-41.1875 0-77.183594 18.800781-96.195312 46.597656 4.660156-16.960937 14.546874-34.910156 34.222656-49.167969zm-47.769532 155.136719c-12.019531 0-21.800781-9.777343-21.800781-21.796875 0-11.890625 9.578125-21.585937 21.421875-21.789062v30.539062c0 4.414063.269532 8.765625.777344 13.046875zm14.609376-13.046875v-36.539062c0-1.375-.375-2.65625-1.019532-3.761719h191.582032c-.203126.675781-.3125 1.390625-.3125 2.128906v38.171875c0 52.445313-42.675782 95.117188-95.125 95.117188-52.449219 0-95.125-42.671875-95.125-95.117188zm95.125 110.105469c8.785156 0 17.335937-1.042969 25.53125-2.996094v29.890625c0 11.3125 8.851562 20.570313 19.992187 21.273438.898437.558594 2.125 1.511718 2.402344 2.621094.34375 1.359374-.582031 4.292968-4.214844 8.445312-11.226563 12.828125-34.765625 27.410156-43.699219 32.710938-8.933594-5.300782-32.476562-19.882813-43.699218-32.710938-3.609376-4.121094-4.550782-7.050781-4.226563-8.414062.25-1.058594 1.425781-2.035157 2.417969-2.652344 11.125-.714844 19.960937-9.96875 19.960937-21.273438v-29.890625c8.199219 1.957031 16.746094 2.996094 25.535157 2.996094zm-30.054688 126.515625c-22-16.945312-37.226562-34.074219-44.28125-49.890625-6.117188-13.714844-6.039062-26.167969.226562-36.015625 7.996094-12.5625 24.480469-15.144531 33.585938-15.570312v1.855468c0 3.503906-2.851562 6.351563-6.355469 6.351563-1.015625 0-1.984375.207031-2.871093.574219l-.074219-.199219c-1.039063.390625-10.25 4.089843-12.621094 13.507812-1.742187 6.921875.773437 14.316407 7.472656 21.976563 10.515625 12.015625 29.347657 24.652344 41.011719 31.902344-7.503906 7.296874-12.863281 17.789062-16.09375 25.507812zm104.472656-49.890625c-7.054687 15.816406-22.285156 32.945313-44.285156 49.890625-3.230469-7.730469-8.597656-18.234375-16.113281-25.53125 11.667969-7.253906 30.46875-19.878906 40.972656-31.878906 6.699219-7.660156 9.214844-15.050782 7.472656-21.976563-2.371093-9.417969-11.578125-13.117187-12.621093-13.507812-1.203126-.449219-2.449219-.570313-3.636719-.40625-3.191407-.335938-5.683594-3.042969-5.683594-6.320313v-1.855468c9.089844.414062 25.648437 2.972656 33.667969 15.570312 6.265625 9.847656 6.34375 22.300781.226562 36.015625zm0 0"/><path d="m249.957031 484.636719c9.664063 0 9.664063-14.988281 0-14.988281h-36.972656c-9.667969 0-9.667969 14.988281 0 14.988281zm0 0"/></svg>