<svg enable-background="new 0 0 128 128" height="512" viewBox="0 0 128 128" width="512" xmlns="http://www.w3.org/2000/svg"><g id="Layer_24"><path d="m102.8 49.81v42.19c0 2.21-1.79 4-4 4h-82.5c-2.21 0-4-1.79-4-4v-42.19c0-2.21 1.79-4 4-4h82.5c2.21 0 4 1.79 4 4z" fill="#2e3338"/><g fill="#24282b"><path d="m61.55 61.56h-6c-.55 0-1-.45-1-1v-6c0-.55.45-1 1-1h6c.55 0 1 .45 1 1v6c0 .55-.45 1-1 1z"/><path d="m48.96 61.56h-6c-.55 0-1-.45-1-1v-6c0-.55.45-1 1-1h6c.55 0 1 .45 1 1v6c0 .55-.44 1-1 1z"/><path d="m36.38 61.56h-6c-.55 0-1-.45-1-1v-6c0-.55.45-1 1-1h6c.55 0 1 .45 1 1v6c0 .55-.45 1-1 1z"/><path d="m23.8 61.56h-6c-.55 0-1-.45-1-1v-6c0-.55.45-1 1-1h6c.55 0 1 .45 1 1v6c0 .55-.45 1-1 1z"/><path d="m68.13 61.56h6c.55 0 1-.45 1-1v-6c0-.55-.45-1-1-1h-6c-.55 0-1 .45-1 1v6c0 .55.45 1 1 1z"/><path d="m80.71 61.56h6c.55 0 1-.45 1-1v-6c0-.55-.45-1-1-1h-6c-.55 0-1 .45-1 1v6c0 .55.45 1 1 1z"/><path d="m93.3 61.56h6c.55 0 1-.45 1-1v-6c0-.55-.45-1-1-1h-6c-.55 0-1 .45-1 1v6c0 .55.44 1 1 1z"/><path d="m61.55 74.9h-6c-.55 0-1-.45-1-1v-6c0-.55.45-1 1-1h6c.55 0 1 .45 1 1v6c0 .56-.45 1-1 1z"/><path d="m48.96 74.9h-6c-.55 0-1-.45-1-1v-6c0-.55.45-1 1-1h6c.55 0 1 .45 1 1v6c0 .56-.44 1-1 1z"/><path d="m36.38 74.9h-6c-.55 0-1-.45-1-1v-6c0-.55.45-1 1-1h6c.55 0 1 .45 1 1v6c0 .56-.45 1-1 1z"/><path d="m23.8 74.9h-6c-.55 0-1-.45-1-1v-6c0-.55.45-1 1-1h6c.55 0 1 .45 1 1v6c0 .56-.45 1-1 1z"/><path d="m68.13 74.9h6c.55 0 1-.45 1-1v-6c0-.55-.45-1-1-1h-6c-.55 0-1 .45-1 1v6c0 .56.45 1 1 1z"/><path d="m80.71 74.9h6c.55 0 1-.45 1-1v-6c0-.55-.45-1-1-1h-6c-.55 0-1 .45-1 1v6c0 .56.45 1 1 1z"/><path d="m93.3 74.9h6c.55 0 1-.45 1-1v-6c0-.55-.45-1-1-1h-6c-.55 0-1 .45-1 1v6c0 .56.44 1 1 1z"/><path d="m74.13 88.25h-31.17c-.55 0-1-.45-1-1v-6c0-.55.45-1 1-1h31.17c.55 0 1 .45 1 1v6c0 .55-.45 1-1 1z"/><path d="m36.38 88.25h-6c-.55 0-1-.45-1-1v-6c0-.55.45-1 1-1h6c.55 0 1 .45 1 1v6c0 .55-.45 1-1 1z"/><path d="m23.8 88.25h-6c-.55 0-1-.45-1-1v-6c0-.55.45-1 1-1h6c.55 0 1 .45 1 1v6c0 .55-.45 1-1 1z"/><path d="m80.71 88.25h6c.55 0 1-.45 1-1v-6c0-.55-.45-1-1-1h-6c-.55 0-1 .45-1 1v6c0 .55.45 1 1 1z"/></g><path d="m115.02 94.83c0 7.39-6 13.39-13.4 13.39-7 0-12.75-5.38-13.33-12.22-.04-.39-.06-.78-.06-1.17 0-7.4 6-13.39 13.39-13.39.4 0 .79.02 1.18.06 6.85.59 12.22 6.33 12.22 13.33z" fill="#5ac0a6"/><path d="m60.55 60.56h-6c-.55 0-1-.45-1-1v-6c0-.55.45-1 1-1h6c.55 0 1 .45 1 1v6c0 .55-.45 1-1 1z" fill="#434a51"/><path d="m47.96 60.56h-6c-.55 0-1-.45-1-1v-6c0-.55.45-1 1-1h6c.55 0 1 .45 1 1v6c0 .55-.44 1-1 1z" fill="#434a51"/><path d="m35.38 60.56h-6c-.55 0-1-.45-1-1v-6c0-.55.45-1 1-1h6c.55 0 1 .45 1 1v6c0 .55-.45 1-1 1z" fill="#434a51"/><path d="m22.8 60.56h-6c-.55 0-1-.45-1-1v-6c0-.55.45-1 1-1h6c.55 0 1 .45 1 1v6c0 .55-.45 1-1 1z" fill="#434a51"/><path d="m67.13 60.56h6c.55 0 1-.45 1-1v-6c0-.55-.45-1-1-1h-6c-.55 0-1 .45-1 1v6c0 .55.45 1 1 1z" fill="#434a51"/><path d="m79.71 60.56h6c.55 0 1-.45 1-1v-6c0-.55-.45-1-1-1h-6c-.55 0-1 .45-1 1v6c0 .55.45 1 1 1z" fill="#434a51"/><path d="m92.3 60.56h6c.55 0 1-.45 1-1v-6c0-.55-.45-1-1-1h-6c-.55 0-1 .45-1 1v6c0 .55.44 1 1 1z" fill="#434a51"/><path d="m60.55 73.9h-6c-.55 0-1-.45-1-1v-6c0-.55.45-1 1-1h6c.55 0 1 .45 1 1v6c0 .56-.45 1-1 1z" fill="#434a51"/><path d="m47.96 73.9h-6c-.55 0-1-.45-1-1v-6c0-.55.45-1 1-1h6c.55 0 1 .45 1 1v6c0 .56-.44 1-1 1z" fill="#434a51"/><path d="m35.38 73.9h-6c-.55 0-1-.45-1-1v-6c0-.55.45-1 1-1h6c.55 0 1 .45 1 1v6c0 .56-.45 1-1 1z" fill="#434a51"/><path d="m22.8 73.9h-6c-.55 0-1-.45-1-1v-6c0-.55.45-1 1-1h6c.55 0 1 .45 1 1v6c0 .56-.45 1-1 1z" fill="#434a51"/><path d="m67.13 73.9h6c.55 0 1-.45 1-1v-6c0-.55-.45-1-1-1h-6c-.55 0-1 .45-1 1v6c0 .56.45 1 1 1z" fill="#434a51"/><path d="m79.71 73.9h6c.55 0 1-.45 1-1v-6c0-.55-.45-1-1-1h-6c-.55 0-1 .45-1 1v6c0 .56.45 1 1 1z" fill="#434a51"/><path d="m92.3 73.9h6c.55 0 1-.45 1-1v-6c0-.55-.45-1-1-1h-6c-.55 0-1 .45-1 1v6c0 .56.44 1 1 1z" fill="#434a51"/><path d="m73.13 87.25h-31.17c-.55 0-1-.45-1-1v-6c0-.55.45-1 1-1h31.17c.55 0 1 .45 1 1v6c0 .55-.45 1-1 1z" fill="#434a51"/><path d="m35.38 87.25h-6c-.55 0-1-.45-1-1v-6c0-.55.45-1 1-1h6c.55 0 1 .45 1 1v6c0 .55-.45 1-1 1z" fill="#434a51"/><path d="m22.8 87.25h-6c-.55 0-1-.45-1-1v-6c0-.55.45-1 1-1h6c.55 0 1 .45 1 1v6c0 .55-.45 1-1 1z" fill="#434a51"/><path d="m79.71 87.25h6c.55 0 1-.45 1-1v-6c0-.55-.45-1-1-1h-6c-.55 0-1 .45-1 1v6c0 .55.45 1 1 1z" fill="#434a51"/><path d="m101.62 99c-2.3 0-4.17-1.87-4.17-4.17s1.87-4.17 4.17-4.17 4.17 1.87 4.17 4.17-1.86 4.17-4.17 4.17z" fill="#fdcc58"/><g><path d="m101.63 88.5c-.55 0-1-.45-1-1v-3.19c0-.55.45-1 1-1s1 .45 1 1v3.19c0 .55-.45 1-1 1z" fill="#fdcc58"/></g><g><path d="m96.44 90.65c-.26 0-.51-.1-.71-.29l-2.25-2.25c-.39-.39-.39-1.02 0-1.41s1.02-.39 1.41 0l2.25 2.25c.39.39.39 1.02 0 1.41-.18.19-.44.29-.7.29z" fill="#fdcc58"/></g><g><path d="m94.3 95.83h-3.19c-.55 0-1-.45-1-1s.45-1 1-1h3.19c.55 0 1 .45 1 1s-.45 1-1 1z" fill="#fdcc58"/></g><g><path d="m94.19 103.26c-.26 0-.51-.1-.71-.29-.39-.39-.39-1.02 0-1.41l2.25-2.25c.39-.39 1.02-.39 1.41 0s.39 1.02 0 1.41l-2.25 2.25c-.19.2-.44.29-.7.29z" fill="#fdcc58"/></g><g><path d="m101.63 106.34c-.55 0-1-.45-1-1v-3.19c0-.55.45-1 1-1s1 .45 1 1v3.19c0 .56-.45 1-1 1z" fill="#fdcc58"/></g><g><path d="m109.06 103.26c-.26 0-.51-.1-.71-.29l-2.25-2.25c-.39-.39-.39-1.02 0-1.41s1.02-.39 1.41 0l2.25 2.25c.39.39.39 1.02 0 1.41-.19.2-.44.29-.7.29z" fill="#fdcc58"/></g><g><path d="m112.14 95.83h-3.19c-.55 0-1-.45-1-1s.45-1 1-1h3.19c.55 0 1 .45 1 1s-.45 1-1 1z" fill="#fdcc58"/></g><g><path d="m106.81 90.65c-.26 0-.51-.1-.71-.29-.39-.39-.39-1.02 0-1.41l2.25-2.25c.39-.39 1.02-.39 1.41 0s.39 1.02 0 1.41l-2.25 2.25c-.19.19-.45.29-.7.29z" fill="#fdcc58"/></g></g></svg>