<svg height="512" viewBox="0 0 64 64" width="512" xmlns="http://www.w3.org/2000/svg"><g id="_23-Bandage" data-name="23-Bandage"><path d="m37 57h-14a3 3 0 0 1 -3-3v-4h2v4a1 1 0 0 0 1 1h14a1 1 0 0 0 1-1v-28a1 1 0 0 0 -1-1h-14a1 1 0 0 0 -1 1v6h-2v-6a3 3 0 0 1 3-3h14a3 3 0 0 1 3 3v28a3 3 0 0 1 -3 3z"/><path d="m63 55a8.4 8.4 0 0 1 -4.159-1.161c-1.641-.819-3.677-1.839-8.841-1.839-4.362 0-5.029.682-5.675 1.341-.951.971-1.889 1.659-5.325 1.659v-2c2.86 0 3.34-.49 3.9-1.059 1.074-1.099 2.281-1.941 7.1-1.941 5.636 0 7.909 1.137 9.735 2.05a8.036 8.036 0 0 0 2.265.867v-22.978a9.257 9.257 0 0 1 -3.159-1.1c-1.641-.819-3.677-1.839-8.841-1.839-4.362 0-5.029.682-5.675 1.341-.951.971-1.889 1.659-5.325 1.659v-2c2.86 0 3.34-.49 3.9-1.059 1.074-1.099 2.281-1.941 7.1-1.941 5.636 0 7.909 1.137 9.735 2.05a6.506 6.506 0 0 0 3.265.95 1 1 0 0 1 1 1v25a1 1 0 0 1 -1 1z"/><path d="m21 27h15v2h-15z"/><path d="m21 51h15v2h-15z"/><path d="m5 38h-2a3 3 0 0 1 -3-3v-27a3 3 0 0 1 3-3h30a3 3 0 0 1 3 3v14h-2v-14a1 1 0 0 0 -1-1h-30a1 1 0 0 0 -1 1v27a1 1 0 0 0 1 1h2z"/><path d="m7 36h2v2h-2z"/><path d="m19 29h-4a1 1 0 0 1 -1-1v-3h-3a1 1 0 0 1 -1-1v-6a1 1 0 0 1 1-1h3v-3a1 1 0 0 1 1-1h6a1 1 0 0 1 1 1v3h3a1 1 0 0 1 1 1v4h-2v-3h-3a1 1 0 0 1 -1-1v-3h-4v3a1 1 0 0 1 -1 1h-3v4h3a1 1 0 0 1 1 1v3h3z"/><path d="m7.226 59a7.208 7.208 0 0 1 -5.11-2.112 7.238 7.238 0 0 1 0-10.22l13.548-13.552a7.227 7.227 0 0 1 10.22 10.22l-13.548 13.548a7.208 7.208 0 0 1 -5.11 2.116zm-3.696-3.53a5.235 5.235 0 0 0 7.392 0l13.548-13.548a5.227 5.227 0 1 0 -7.392-7.392l-13.548 13.548a5.235 5.235 0 0 0 0 7.392z"/><path d="m13.5 38.136h2v12.728h-2z" transform="matrix(.707 -.707 .707 .707 -27.219 23.287)"/><path d="m9 44.586h2v2.828h-2z" transform="matrix(.707 -.707 .707 .707 -29.598 20.544)"/><path d="m7 46.586h2v2.828h-2z" transform="matrix(.707 -.707 .707 .707 -31.598 19.716)"/><path d="m5 48.586h2v2.828h-2z" transform="matrix(.707 -.707 .707 .707 -33.598 18.887)"/><path d="m4 10h2v2h-2z"/><path d="m4 14h2v16h-2z"/><path d="m49 26h2v4h-2z"/><path d="m49 32h2v3h-2z"/><path d="m49 37h2v3h-2z"/><path d="m49 42h2v3h-2z"/><path d="m49 47h2v4h-2z"/><path d="m46 22h2v2h-2z"/><path d="m48 20h-2v-12a.918.918 0 0 0 -1.012-1h-11.988v-2h12a2.916 2.916 0 0 1 3 3z"/><path d="m40 6h2v16h-2z"/></g></svg>