<svg height="512" viewBox="0 0 88 88" width="512" xmlns="http://www.w3.org/2000/svg"><g id="Shopping_Cart" data-name="Shopping Cart"><circle cx="32" cy="76" fill="#4294ff" r="7"/><circle cx="67" cy="76" fill="#4294ff" r="7"/><path d="m17 65h58a1.0017 1.0017 0 0 0 .959-.7148l11-37a1.0005 1.0005 0 0 0 -.959-1.2852h-68.3359l-2.6875-12.2148a.9991.9991 0 0 0 -.9766-.7852h-8a1 1 0 0 0 0 2h7.1963l10.56 48h-6.7563a4 4 0 0 0 0 8h65a1 1 0 0 0 0-2h-65a2 2 0 0 1 0-4z" fill="#e6ecff"/><path d="m71.5547 13.7031-5.5547-3.7031h-30l-5.5547 3.7031a1 1 0 0 0 -.4453.8321v27.4648a1 1 0 0 0 1 1h40a1 1 0 0 0 1-1v-27.4648a1 1 0 0 0 -.4453-.8321z" fill="#4294ff"/><path d="m61 5-10 7-10-7z" fill="#2946ed"/><path d="m50 10h2v33h-2z" fill="#2946ed"/><g fill="#376cfb"><circle cx="55" cy="24" r="1"/><circle cx="55" cy="31" r="1"/><circle cx="55" cy="38" r="1"/><path d="m68 23h-8a1 1 0 0 0 -1 1v8a1 1 0 0 0 .5527.8945l4 2a1.001 1.001 0 0 0 .8946 0l4-2a1 1 0 0 0 .5527-.8945v-8a1 1 0 0 0 -1-1z"/></g><path d="m68 23h-8a1 1 0 0 0 -1 1v3h10v-3a1 1 0 0 0 -1-1z" fill="#2946ed"/><circle cx="67" cy="76" fill="#376cfb" r="3"/><circle cx="32" cy="76" fill="#376cfb" r="3"/><path d="m12 30h-10a1 1 0 0 1 0-2h10a1 1 0 0 1 0 2z" fill="#4294ff"/><path d="m17 46h-7a1 1 0 0 1 0-2h7a1 1 0 0 1 0 2z" fill="#4294ff"/><path d="m14 38h-7a1 1 0 0 1 0-2h7a1 1 0 0 1 0 2z" fill="#4294ff"/><path d="m36 10 9 7 6-5-10-7z" fill="#376cfb"/><path d="m66 10-9 7-6-5 10-7z" fill="#376cfb"/></g></svg>