<svg height="511pt" viewBox="-109 0 511 511.99984" width="511pt" xmlns="http://www.w3.org/2000/svg"><path d="m229.4375 365.683594-19.59375-16.394532c-2.59375-2.167968-6.316406-2.335937-9.085938-.402343l-13.082031 9.109375c-.015625-.183594-.027343-.367188-.027343-.554688v-34.625c3.347656-1.320312 6.632812-2.796875 9.832031-4.445312 8.589843-4.421875 1.734375-17.734375-6.855469-13.316406-13.535156 6.96875-28.175781 10.503906-43.515625 10.503906-52.492187 0-95.195313-42.699219-95.195313-95.183594v-71.554688c0-18.757812 11.378907-38.945312 36.429688-38.945312l118.191406-.996094c24.707032 0 35.765625 20.058594 35.765625 39.941406v71.550782c0 22.476562-7.976562 44.285156-22.464843 61.421875-1.332032 1.574219-2.738282 3.128906-4.183594 4.628906-6.703125 6.953125 4.082031 17.351563 10.785156 10.394531 1.667969-1.730468 3.296875-3.53125 4.835938-5.355468 10.628906-12.566407 18.21875-27.3125 22.359374-43.042969 2.042969.03125 4.132813.035156 6.164063-.125v1.652343c0 21.609376-8.011719 42.453126-22.003906 58.515626-2.667969-1.152344-5.601563-1.792969-8.683594-1.792969-12.125 0-21.988281 9.863281-21.988281 21.988281s9.863281 21.988281 21.988281 21.988281 21.988281-9.863281 21.988281-21.988281c0-3.574219-.863281-6.945312-2.382812-9.933594 16.570312-18.820312 26.0625-43.347656 26.0625-68.777344v-6.167968c11.285156-6.292969 18.9375-18.347656 18.9375-32.160156 0-11.117188-4.964844-21.09375-12.785156-27.84375v-61.414063c0-18.296875 0-41.066406-8.660157-60.140625-10.347656-22.800781-30.695312-34.632812-60.484375-35.199219-10.820312-7.5625-57.363281-36.871093-111.871094-23.628906-12.4375 3.019531-23.78125 7.429687-33.714843 13.105469-8.386719 4.792968-.953125 17.796875 7.433593 13.003906 8.710938-4.976562 18.742188-8.867188 29.816407-11.554688 46.351562-11.257812 87.710937 13.3125 98.683593 20.644532l.90625 38.011718c.230469 9.566407 15.207032 9.355469 14.976563-.355468l-.8125-33.984375c44.921875 3.484375 48.746094 38.378906 48.746094 80.097656v53.589844c-2.777344-.703125-5.679688-1.089844-8.667969-1.117188v-26.011719c0-32.335937-20.867188-54.921874-50.8125-54.921874l-118.1875 1c-33.710938 0-51.347656 27.125-51.347656 53.921874v26.011719c-3.339844.03125-6.574219.515625-9.648438 1.386719v-56.707031c0-19.328125 3.78125-47.046875 21.800782-69.304688 6.078124-7.507812-5.566407-16.929687-11.644532-9.421875-20.773437 25.664063-25.132812 56.976563-25.132812 78.726563v65.128906c-7.257813 6.726563-11.808594 16.328125-11.808594 26.976563 0 20.292968 16.507812 36.800781 36.800781 36.800781h3.253907c8.949218 33.976562 33.765624 61.585937 66.011718 74.390625v32.757812l-9.59375-6.683594c-2.769531-1.929687-6.492187-1.765624-9.085937.402344l-18.554688 15.527344c-38.441406 6.101562-67.921875 39.460938-67.921875 79.585938v60.113281c0 4.136719 3.355469 7.488281 7.488282 7.488281h34.363281c9.664062 0 9.664062-14.980469 0-14.980469h-26.871094v-52.621093c0-29.804688 19.984375-55.015626 47.257813-62.976563.027343.019531.050781.042969.078124.066406l60.414063 45.433594c3.238281 2.4375 8.09375 1.75 10.523437-1.527344l6.960938-9.398437v81.023437h-61.414062c-9.660157 0-9.660157 14.980469 0 14.980469h205.105468c4.136719 0 7.488282-3.351562 7.488282-7.488281v-60.113281c0-38.523438-27.179688-70.800782-63.367188-78.714844zm-7.335938-37.027344c0-3.863281 3.144532-7.007812 7.007813-7.007812 3.867187 0 7.011719 3.144531 7.011719 7.007812 0 3.867188-3.144532 7.007812-7.011719 7.007812-3.863281 0-7.007813-3.140624-7.007813-7.007812zm56.632813-117.035156c0 12.03125-9.789063 21.816406-21.820313 21.816406h-.433593c.515625-4.316406.800781-8.679688.800781-13.0625v-30.5625c11.863281.195312 21.453125 9.898438 21.453125 21.808594zm-263.253906 0c0-11.910156 9.589843-21.613282 21.453125-21.808594v30.5625c0 4.417969.269531 8.777344.777344 13.0625h-.410157c-12.03125 0-21.820312-9.785156-21.820312-21.816406zm155.136719 198.796875-10.894532-14.703125 44.898438-31.265625 12.835937 10.742187zm-49.070313-52.976563v-29.90625c8.207031 1.957032 16.765625 3 25.5625 3 8.613281 0 17.207031-1.023437 25.558594-3.007812v29.914062c0 3.394532.816406 6.597656 2.234375 9.449219l-26.035156 18.132813-28.730469-20.007813c.898437-2.359375 1.410156-4.90625 1.410156-7.574219zm-41.273437 17.746094 12.835937-10.742188 44.898437 31.269532-10.890624 14.703125zm108.808593 121.835938v-20.042969h9.972657v.878906c0 4.136719 3.351562 7.488281 7.492187 7.488281h21.96875c4.136719 0 7.488281-3.351562 7.488281-7.488281v-.878906h9.972656v20.042969zm24.953125-43.632813h6.988282v16.976563h-6.988282zm63.789063 43.632813h-16.867188v-27.535157c0-4.132812-3.351562-7.488281-7.488281-7.488281h-17.464844v-16.097656c0-4.136719-3.351562-7.488282-7.488281-7.488282h-21.96875c-4.140625 0-7.492187 3.351563-7.492187 7.488282v16.097656h-17.464844c-4.136719 0-7.488282 3.355469-7.488282 7.488281v27.535157h-17.496093v-80.355469l6.464843 8.726562c2.441407 3.296875 7.242188 3.996094 10.519532 1.53125l59.464844-44.722656c25.988281 8.730469 44.773437 33.304687 44.773437 62.195313v52.625zm0 0"/><path d="m142.125 238.695312c-21.199219 0-38.445312 17.246094-38.445312 38.445313 0 4.136719 3.351562 7.488281 7.488281 7.488281h71.898437c4.136719 0 7.488282-3.351562 7.488282-7.488281 0-21.199219-17.246094-38.445313-38.445313-38.445313zm32.226562 30.957032h-54.46875c3.132813-9.28125 11.921876-15.980469 22.242188-15.980469h9.988281c10.320313 0 19.105469 6.699219 22.238281 15.980469zm0 0"/></svg>