<svg height="512" viewBox="0 0 128 128" width="512" xmlns="http://www.w3.org/2000/svg"><g><path d="m117.779 71.182 1.605-1.605a7.887 7.887 0 0 0 0-11.154 7.888 7.888 0 0 1 -1.613-8.818 7.887 7.887 0 0 0 -3.949-10.431l-2.069-.933a7.887 7.887 0 0 1 -4.646-7.19v-2.27a7.888 7.888 0 0 0 -7.887-7.887 7.887 7.887 0 0 1 -7.378-5.094 7.885 7.885 0 0 0 -10.168-4.583l-2.123.8a7.883 7.883 0 0 1 -8.369-1.8l-1.605-1.601a7.887 7.887 0 0 0 -11.154 0 7.886 7.886 0 0 1 -8.818 1.614 7.887 7.887 0 0 0 -10.431 3.949l-.933 2.069a7.885 7.885 0 0 1 -7.19 4.646h-2.27a7.888 7.888 0 0 0 -7.887 7.887 7.887 7.887 0 0 1 -5.094 7.377 7.885 7.885 0 0 0 -4.583 10.168l.8 2.123a7.883 7.883 0 0 1 -1.8 8.369l-1.601 1.605a7.887 7.887 0 0 0 0 11.154 7.888 7.888 0 0 1 1.614 8.823 7.887 7.887 0 0 0 3.949 10.431l2.069.933a7.885 7.885 0 0 1 4.646 7.19v2.27a7.888 7.888 0 0 0 7.887 7.887 7.887 7.887 0 0 1 7.376 5.094 7.885 7.885 0 0 0 10.168 4.583l2.123-.8a7.883 7.883 0 0 1 8.369 1.8l1.605 1.605a7.887 7.887 0 0 0 11.154 0 7.888 7.888 0 0 1 8.824-1.623 7.887 7.887 0 0 0 10.431-3.949l.933-2.069a7.885 7.885 0 0 1 7.19-4.646h2.27a7.888 7.888 0 0 0 7.887-7.887 7.887 7.887 0 0 1 5.094-7.376 7.885 7.885 0 0 0 4.583-10.168l-.8-2.123a7.883 7.883 0 0 1 1.791-8.37z" fill="#f2e7cb"/><circle cx="64" cy="64" fill="#ffde3e" r="24.812"/><g fill="#422002"><path d="m64 37.438a26.562 26.562 0 1 0 26.562 26.562 26.593 26.593 0 0 0 -26.562-26.562zm0 49.624a23.062 23.062 0 1 1 23.062-23.062 23.089 23.089 0 0 1 -23.062 23.062z"/><path d="m78.369 62.25a1.751 1.751 0 0 0 -1.75 1.75 12.533 12.533 0 0 1 -3.7 8.923 1.75 1.75 0 1 0 2.481 2.477 16.017 16.017 0 0 0 4.719-11.4 1.751 1.751 0 0 0 -1.75-1.75z"/><path d="m74.166 55.6a1.75 1.75 0 0 0 1.234-2.992 16.05 16.05 0 0 0 -5.341-3.548 1.75 1.75 0 1 0 -1.314 3.24 12.569 12.569 0 0 1 4.183 2.779 1.745 1.745 0 0 0 1.238.521z"/><path d="m50.605 31.327a1.75 1.75 0 1 0 -1.329-3.238 39.082 39.082 0 0 0 -18.886 16.511 1.75 1.75 0 1 0 3.029 1.753 35.56 35.56 0 0 1 17.186-15.026z"/><path d="m28.3 53.894a1.749 1.749 0 0 0 -2.1 1.306 38.85 38.85 0 0 0 -.955 6.875 1.75 1.75 0 0 0 1.663 1.833h.086a1.751 1.751 0 0 0 1.747-1.665 35.344 35.344 0 0 1 .868-6.255 1.749 1.749 0 0 0 -1.309-2.094z"/><path d="m96.836 81.271a1.749 1.749 0 0 0 -2.4.62 35.294 35.294 0 0 1 -9.264 10.358 1.75 1.75 0 1 0 2.1 2.8 38.772 38.772 0 0 0 10.178-11.38 1.751 1.751 0 0 0 -.614-2.398z"/><path d="m120.621 70.814a9.648 9.648 0 0 0 0-13.628 6.171 6.171 0 0 1 -1.256-6.862 9.636 9.636 0 0 0 -4.825-12.745l-2.069-.933a6.149 6.149 0 0 1 -3.616-5.6v-2.27a9.648 9.648 0 0 0 -9.637-9.636 6.169 6.169 0 0 1 -5.739-3.965 9.65 9.65 0 0 0 -12.425-5.6l-2.122.8a6.149 6.149 0 0 1 -6.513-1.4l-1.605-1.596a9.647 9.647 0 0 0 -13.628 0 6.172 6.172 0 0 1 -6.862 1.256 9.636 9.636 0 0 0 -12.745 4.825l-.933 2.069a6.149 6.149 0 0 1 -5.6 3.616h-2.27a9.648 9.648 0 0 0 -9.636 9.637 6.169 6.169 0 0 1 -3.965 5.739 9.637 9.637 0 0 0 -5.6 12.424l.8 2.123a6.146 6.146 0 0 1 -1.4 6.513l-1.605 1.6a9.648 9.648 0 0 0 0 13.628 6.171 6.171 0 0 1 1.256 6.862 9.636 9.636 0 0 0 4.834 12.75l2.069.933a6.149 6.149 0 0 1 3.616 5.595v2.27a9.648 9.648 0 0 0 9.637 9.636 6.169 6.169 0 0 1 5.739 3.965 9.65 9.65 0 0 0 12.425 5.6l2.122-.8a6.146 6.146 0 0 1 6.513 1.4l1.6 1.6a9.647 9.647 0 0 0 13.628 0 6.167 6.167 0 0 1 6.862-1.256 9.636 9.636 0 0 0 12.745-4.825l.933-2.069a6.147 6.147 0 0 1 5.595-3.616h2.27a9.648 9.648 0 0 0 9.636-9.637 6.169 6.169 0 0 1 3.965-5.739 9.648 9.648 0 0 0 5.6-12.425l-.8-2.122a6.146 6.146 0 0 1 1.4-6.513zm-4.079-.87a9.65 9.65 0 0 0 -2.2 10.227l.8 2.122a6.144 6.144 0 0 1 -3.566 7.913 9.688 9.688 0 0 0 -6.225 9.013 6.142 6.142 0 0 1 -6.136 6.136h-2.27a9.65 9.65 0 0 0 -8.785 5.678l-.93 2.067a6.137 6.137 0 0 1 -8.116 3.073 9.686 9.686 0 0 0 -10.774 1.971 6.145 6.145 0 0 1 -8.68 0l-1.6-1.6a9.651 9.651 0 0 0 -10.227-2.2l-2.122.8a6.143 6.143 0 0 1 -7.913-3.566 9.688 9.688 0 0 0 -9.013-6.225 6.142 6.142 0 0 1 -6.136-6.136v-2.27a9.652 9.652 0 0 0 -5.678-8.785l-2.071-.931a6.138 6.138 0 0 1 -3.073-8.117 9.686 9.686 0 0 0 -1.973-10.774 6.145 6.145 0 0 1 0-8.68l1.6-1.6a9.649 9.649 0 0 0 2.2-10.226l-.8-2.123a6.137 6.137 0 0 1 3.566-7.913 9.688 9.688 0 0 0 6.225-9.013 6.142 6.142 0 0 1 6.136-6.136h2.27a9.652 9.652 0 0 0 8.785-5.678l.934-2.071a6.135 6.135 0 0 1 8.116-3.072 9.687 9.687 0 0 0 10.774-1.974 6.145 6.145 0 0 1 8.68 0l1.6 1.6a9.652 9.652 0 0 0 10.227 2.2l2.122-.8a6.144 6.144 0 0 1 7.913 3.566 9.688 9.688 0 0 0 9.013 6.225 6.142 6.142 0 0 1 6.136 6.136v2.27a9.652 9.652 0 0 0 5.678 8.785l2.069.933a6.138 6.138 0 0 1 3.073 8.117 9.686 9.686 0 0 0 1.971 10.774 6.145 6.145 0 0 1 0 8.68z"/></g></g></svg>