<svg enable-background="new 0 0 128 128" height="512" viewBox="0 0 128 128" width="512" xmlns="http://www.w3.org/2000/svg"><g id="Layer_25"><path d="m102.8 49.81v42.19c0 2.21-1.79 4-4 4h-82.5c-2.21 0-4-1.79-4-4v-42.19c0-2.21 1.79-4 4-4h82.5c2.21 0 4 1.79 4 4z" fill="#2e3338"/><g fill="#24282b"><path d="m61.55 61.56h-6c-.55 0-1-.45-1-1v-6c0-.55.45-1 1-1h6c.55 0 1 .45 1 1v6c0 .55-.45 1-1 1z"/><path d="m48.96 61.56h-6c-.55 0-1-.45-1-1v-6c0-.55.45-1 1-1h6c.55 0 1 .45 1 1v6c0 .55-.44 1-1 1z"/><path d="m36.38 61.56h-6c-.55 0-1-.45-1-1v-6c0-.55.45-1 1-1h6c.55 0 1 .45 1 1v6c0 .55-.45 1-1 1z"/><path d="m23.8 61.56h-6c-.55 0-1-.45-1-1v-6c0-.55.45-1 1-1h6c.55 0 1 .45 1 1v6c0 .55-.45 1-1 1z"/><path d="m68.13 61.56h6c.55 0 1-.45 1-1v-6c0-.55-.45-1-1-1h-6c-.55 0-1 .45-1 1v6c0 .55.45 1 1 1z"/><path d="m80.71 61.56h6c.55 0 1-.45 1-1v-6c0-.55-.45-1-1-1h-6c-.55 0-1 .45-1 1v6c0 .55.45 1 1 1z"/><path d="m93.3 61.56h6c.55 0 1-.45 1-1v-6c0-.55-.45-1-1-1h-6c-.55 0-1 .45-1 1v6c0 .55.44 1 1 1z"/><path d="m61.55 74.9h-6c-.55 0-1-.45-1-1v-6c0-.55.45-1 1-1h6c.55 0 1 .45 1 1v6c0 .56-.45 1-1 1z"/><path d="m48.96 74.9h-6c-.55 0-1-.45-1-1v-6c0-.55.45-1 1-1h6c.55 0 1 .45 1 1v6c0 .56-.44 1-1 1z"/><path d="m36.38 74.9h-6c-.55 0-1-.45-1-1v-6c0-.55.45-1 1-1h6c.55 0 1 .45 1 1v6c0 .56-.45 1-1 1z"/><path d="m23.8 74.9h-6c-.55 0-1-.45-1-1v-6c0-.55.45-1 1-1h6c.55 0 1 .45 1 1v6c0 .56-.45 1-1 1z"/><path d="m68.13 74.9h6c.55 0 1-.45 1-1v-6c0-.55-.45-1-1-1h-6c-.55 0-1 .45-1 1v6c0 .56.45 1 1 1z"/><path d="m80.71 74.9h6c.55 0 1-.45 1-1v-6c0-.55-.45-1-1-1h-6c-.55 0-1 .45-1 1v6c0 .56.45 1 1 1z"/><path d="m93.3 74.9h6c.55 0 1-.45 1-1v-6c0-.55-.45-1-1-1h-6c-.55 0-1 .45-1 1v6c0 .56.44 1 1 1z"/><path d="m74.13 88.25h-31.17c-.55 0-1-.45-1-1v-6c0-.55.45-1 1-1h31.17c.55 0 1 .45 1 1v6c0 .55-.45 1-1 1z"/><path d="m36.38 88.25h-6c-.55 0-1-.45-1-1v-6c0-.55.45-1 1-1h6c.55 0 1 .45 1 1v6c0 .55-.45 1-1 1z"/><path d="m23.8 88.25h-6c-.55 0-1-.45-1-1v-6c0-.55.45-1 1-1h6c.55 0 1 .45 1 1v6c0 .55-.45 1-1 1z"/><path d="m80.71 88.25h6c.55 0 1-.45 1-1v-6c0-.55-.45-1-1-1h-6c-.55 0-1 .45-1 1v6c0 .55.45 1 1 1z"/></g><path d="m115.02 94.83c0 7.39-6 13.39-13.4 13.39-7 0-12.75-5.38-13.33-12.22-.04-.39-.06-.78-.06-1.17 0-7.4 6-13.39 13.39-13.39.4 0 .79.02 1.18.06 6.85.59 12.22 6.33 12.22 13.33z" fill="#5ac0a6"/><path d="m60.55 60.56h-6c-.55 0-1-.45-1-1v-6c0-.55.45-1 1-1h6c.55 0 1 .45 1 1v6c0 .55-.45 1-1 1z" fill="#434a51"/><path d="m47.96 60.56h-6c-.55 0-1-.45-1-1v-6c0-.55.45-1 1-1h6c.55 0 1 .45 1 1v6c0 .55-.44 1-1 1z" fill="#434a51"/><path d="m35.38 60.56h-6c-.55 0-1-.45-1-1v-6c0-.55.45-1 1-1h6c.55 0 1 .45 1 1v6c0 .55-.45 1-1 1z" fill="#434a51"/><path d="m22.8 60.56h-6c-.55 0-1-.45-1-1v-6c0-.55.45-1 1-1h6c.55 0 1 .45 1 1v6c0 .55-.45 1-1 1z" fill="#434a51"/><path d="m67.13 60.56h6c.55 0 1-.45 1-1v-6c0-.55-.45-1-1-1h-6c-.55 0-1 .45-1 1v6c0 .55.45 1 1 1z" fill="#434a51"/><path d="m79.71 60.56h6c.55 0 1-.45 1-1v-6c0-.55-.45-1-1-1h-6c-.55 0-1 .45-1 1v6c0 .55.45 1 1 1z" fill="#434a51"/><path d="m92.3 60.56h6c.55 0 1-.45 1-1v-6c0-.55-.45-1-1-1h-6c-.55 0-1 .45-1 1v6c0 .55.44 1 1 1z" fill="#434a51"/><path d="m60.55 73.9h-6c-.55 0-1-.45-1-1v-6c0-.55.45-1 1-1h6c.55 0 1 .45 1 1v6c0 .56-.45 1-1 1z" fill="#434a51"/><path d="m47.96 73.9h-6c-.55 0-1-.45-1-1v-6c0-.55.45-1 1-1h6c.55 0 1 .45 1 1v6c0 .56-.44 1-1 1z" fill="#434a51"/><path d="m35.38 73.9h-6c-.55 0-1-.45-1-1v-6c0-.55.45-1 1-1h6c.55 0 1 .45 1 1v6c0 .56-.45 1-1 1z" fill="#434a51"/><path d="m22.8 73.9h-6c-.55 0-1-.45-1-1v-6c0-.55.45-1 1-1h6c.55 0 1 .45 1 1v6c0 .56-.45 1-1 1z" fill="#434a51"/><path d="m67.13 73.9h6c.55 0 1-.45 1-1v-6c0-.55-.45-1-1-1h-6c-.55 0-1 .45-1 1v6c0 .56.45 1 1 1z" fill="#434a51"/><path d="m79.71 73.9h6c.55 0 1-.45 1-1v-6c0-.55-.45-1-1-1h-6c-.55 0-1 .45-1 1v6c0 .56.45 1 1 1z" fill="#434a51"/><path d="m92.3 73.9h6c.55 0 1-.45 1-1v-6c0-.55-.45-1-1-1h-6c-.55 0-1 .45-1 1v6c0 .56.44 1 1 1z" fill="#434a51"/><path d="m73.13 87.25h-31.17c-.55 0-1-.45-1-1v-6c0-.55.45-1 1-1h31.17c.55 0 1 .45 1 1v6c0 .55-.45 1-1 1z" fill="#434a51"/><path d="m35.38 87.25h-6c-.55 0-1-.45-1-1v-6c0-.55.45-1 1-1h6c.55 0 1 .45 1 1v6c0 .55-.45 1-1 1z" fill="#434a51"/><path d="m22.8 87.25h-6c-.55 0-1-.45-1-1v-6c0-.55.45-1 1-1h6c.55 0 1 .45 1 1v6c0 .55-.45 1-1 1z" fill="#434a51"/><path d="m79.71 87.25h6c.55 0 1-.45 1-1v-6c0-.55-.45-1-1-1h-6c-.55 0-1 .45-1 1v6c0 .55.45 1 1 1z" fill="#434a51"/><g><path d="m111.52 92.93c-.26 0-.51-.1-.71-.29-2.45-2.45-5.72-3.8-9.19-3.8-3.48 0-6.74 1.35-9.19 3.8-.39.39-1.02.39-1.41 0s-.39-1.02 0-1.41c2.83-2.83 6.59-4.39 10.61-4.39 4.01 0 7.78 1.56 10.61 4.39.39.39.39 1.02 0 1.41-.2.19-.46.29-.72.29z" fill="#fdcc58"/></g><g><path d="m108.7 95.76c-.26 0-.51-.1-.71-.29-3.51-3.51-9.22-3.51-12.73 0-.39.39-1.02.39-1.41 0s-.39-1.02 0-1.41c4.29-4.29 11.27-4.29 15.56 0 .39.39.39 1.02 0 1.41-.2.19-.46.29-.71.29z" fill="#fdcc58"/></g><g><path d="m105.87 98.59c-.26 0-.51-.1-.71-.29-1.95-1.95-5.12-1.95-7.07 0-.39.39-1.02.39-1.41 0s-.39-1.02 0-1.41c2.73-2.73 7.17-2.73 9.9 0 .39.39.39 1.02 0 1.41-.2.19-.46.29-.71.29z" fill="#fdcc58"/></g><circle cx="101.63" cy="101.82" fill="#fdcc58" r="2"/></g></svg>