<svg height="512" viewBox="0 0 88 88" width="512" xmlns="http://www.w3.org/2000/svg"><g id="Shopping_Bag" data-name="Shopping Bag"><path d="m57 19h-26a1 1 0 0 1 -1-1v-3a14 14 0 0 1 28 0v3a1 1 0 0 1 -1 1zm-25-2h24v-2a12 12 0 0 0 -24 0z" fill="#2946ed"/><path d="m14 27v51a9 9 0 0 0 9 9h42a9 9 0 0 0 9-9v-51z" fill="#4294ff"/><path d="m72 17-9 5 11 5h-60l11-5-9-5z" fill="#376cfb"/><path d="m25 22-9 4.09v-9.09z" fill="#4294ff"/><path d="m72 17v9.09l-9-4.09z" fill="#4294ff"/><circle cx="31" cy="40" fill="#376cfb" r="5"/><circle cx="57" cy="40" fill="#376cfb" r="5"/><path d="m44 63a14.0158 14.0158 0 0 1 -14-14v-9a1 1 0 0 1 2 0v9a12 12 0 0 0 24 0v-9a1 1 0 0 1 2 0v9a14.0158 14.0158 0 0 1 -14 14z" fill="#2946ed"/></g></svg>