<svg height="512pt" viewBox="-109 0 512 512" width="512pt" xmlns="http://www.w3.org/2000/svg"><path d="m228.949219 365.671875-19.59375-16.394531c-2.589844-2.167969-6.316407-2.332032-9.085938-.402344l-13.085937 9.109375c-.015625-.183594-.027344-.367187-.027344-.554687v-34.632813c32.25-12.804687 57.066406-40.417969 66.019531-74.398437 2.03125.035156 4.113281.035156 6.136719-.121094.277344 21.953125-7.566406 43.597656-22.003906 60.167968-2.667969-1.148437-5.601563-1.789062-8.683594-1.789062-12.125 0-21.992188 9.863281-21.992188 21.988281s9.867188 21.988281 21.992188 21.988281 21.988281-9.863281 21.988281-21.988281c0-3.574219-.863281-6.949219-2.382812-9.933593 18.640625-21.171876 26.0625-47.21875 26.0625-74.953126 11.285156-6.292968 18.941406-18.347656 18.941406-32.160156 0-11.121094-4.964844-21.09375-12.789063-27.847656 0-52.652344 7.476563-106.339844-33.628906-147.785156-6.804687-6.859375-17.4375 3.6875-10.636718 10.546875 26.800781 27.023437 29.886718 63.59375 30.238281 71.320312l-239.222657-.949219c.949219-9.816406 4.109376-29.207031 14.675782-48.296874 19.683594-35.570313 54.929687-53.605469 104.757812-53.605469 25.574219 0 47.597656 4.6875 65.460938 13.933593 8.582031 4.4375 15.46875-8.863281 6.886718-13.304687-20.015624-10.359375-44.355468-15.609375-72.347656-15.609375-41.914062 0-75.132812 12.019531-98.734375 35.722656-35.894531 36.050782-36.09375 85.699219-36.085937 87.761719v59.917969c0 .386718.039062.761718.09375 1.128906-7.308594 6.730469-11.902344 16.371094-11.902344 27.070312 0 20.289063 16.507812 36.800782 36.804688 36.800782h3.242187c3.210937 12.246094 8.53125 23.890625 15.839844 34.476562 5.589843 8.089844 17.769531-.632812 12.328125-8.511718-10.988282-15.914063-16.796875-34.589844-16.796875-54.011719v-67.78125c22.839843 10.847656 55.324219 21.527343 94.707031 21.527343 39.675781 0 72.59375-10.589843 95.695312-21.257812v67.511719c0 52.484375-42.710937 95.1875-95.203124 95.1875-20.914063 0-40.757813-6.648438-57.386719-19.230469-7.707031-5.828125-16.742188 6.117188-9.039063 11.945312 8.039063 6.082032 16.730469 10.949219 25.882813 14.574219v32.722657l-9.59375-6.679688c-2.769531-1.933594-6.496094-1.769531-9.085938.402344l-18.558593 15.527344c-38.441407 6.097656-67.925782 39.460937-67.925782 79.585937v60.117187c0 4.136719 3.355469 7.492188 7.492188 7.492188h51.34375c9.660156 0 9.660156-14.980469 0-14.980469h-43.855469v-52.628906c0-29.804687 19.988281-55.015625 47.261719-62.980469.027344.023438.050781.046875.082031.066406l9.09375 6.84375c.375 4.925782 2.136719 20.503907 9.992187 36.210938 8.859376 17.71875 27.207032 38.84375 64.308594 38.84375 39.605469 0 58.902344-21.0625 68.117188-38.730469 8.421875-16.140625 9.945312-32.160156 10.214844-36.730469l7.605468-5.722656c25.992188 8.734375 44.777344 33.308594 44.777344 62.203125v52.625h-178.652344c-9.660156 0-9.660156 14.980469 0 14.980469h186.140625c4.136719 0 7.492188-3.351562 7.492188-7.488281v-60.117188c0-38.527343-27.183594-70.808593-63.375-78.722656zm-7.335938-37.027344c0-3.863281 3.144531-7.007812 7.011719-7.007812 3.863281 0 7.011719 3.144531 7.011719 7.007812 0 3.867188-3.148438 7.011719-7.011719 7.011719-3.867188 0-7.011719-3.144531-7.011719-7.011719zm34.816407-95.222656h-.410157c.507813-4.289063.777344-8.644531.777344-13.066406v-30.566407c11.863281.199219 21.457031 9.90625 21.457031 21.8125 0 12.03125-9.792968 21.820313-21.824218 21.820313zm-241.449219-21.820313c0-11.90625 9.59375-21.613281 21.457031-21.8125v30.566407c0 4.394531.265625 8.753906.773438 13.066406h-.40625c-12.035157 0-21.824219-9.789063-21.824219-21.820313zm21.457031-62.804687v26.011719c-3.34375.035156-6.574219.519531-9.648438 1.386718v-37.34375c2.996094 1.953126 6.519532 4.121094 10.539063 6.402344-.570313 1.054688-.890625 2.261719-.890625 3.542969zm8.023438-16.863281 203.746093.808594c-21.230469 11.515624-57.300781 26.378906-102.085937 26.378906-44.980469 0-80.796875-15.378906-101.660156-27.1875zm221.003906 8.230468v35.761719c-2.777344-.703125-5.679688-1.085937-8.667969-1.117187v-26.011719c0-1.128906-.257813-2.195313-.703125-3.15625 3.511719-1.933594 6.644531-3.78125 9.371094-5.476563zm-172.847656 224.273438 44.898437 31.269531-10.890625 14.703125-46.84375-35.230468zm77.507812 45.972656-10.890625-14.703125 44.898437-31.269531 12.835938 10.742188zm-49.070312-52.976562v-29.882813c8.285156 1.957031 16.84375 2.972657 25.5625 2.972657 8.796874 0 17.355468-1.042969 25.5625-3v29.910156c0 3.394531.816406 6.59375 2.234374 9.449218l-26.039062 18.132813-28.734375-20.011719c.902344-2.355468 1.414063-4.902344 1.414063-7.570312zm-31.472657 43.859375 34.070313 25.625c3.238281 2.433593 8.09375 1.75 10.519531-1.527344l6.964844-9.402344v32.203125c-34.808594-2.558594-47.179688-29.355468-51.554688-46.898437zm111.882813 16.425781c-9.265625 17.761719-24.496094 27.882812-45.351563 30.171875v-31.226563l6.464844 8.726563c2.445313 3.296875 7.242187 3.992187 10.519531 1.527344l34.695313-26.089844c-1.269531 5.070313-3.246094 10.980469-6.328125 16.890625zm0 0"/><path d="m94.695312 50.929688c-4.136718 0-7.488281 3.355468-7.488281 7.492187v35.949219c0 4.136718 3.351563 7.492187 7.488281 7.492187h103.863282c4.136718 0 7.488281-3.355469 7.488281-7.492187v-35.949219c0-4.136719-3.351563-7.492187-7.488281-7.492187zm96.371094 35.953124h-88.878906v-20.972656h88.878906zm0 0"/><path d="m245.992188 476.355469c9.660156 0 9.660156-14.976563 0-14.976563h-37.949219c-9.660157 0-9.660157 14.976563 0 14.976563zm0 0"/></svg>