<svg enable-background="new 0 0 128 128" height="512" viewBox="0 0 128 128" width="512" xmlns="http://www.w3.org/2000/svg"><g id="Layer_26"><g><path d="m64 46.81c-.55 0-1-.45-1-1v-.75c0-4.96 4.04-9 9-9h2.75c3.86 0 7-3.14 7-7 0-2.35-1.91-4.25-4.25-4.25h-5.5c-4.96 0-9-4.04-9-9 0-.55.45-1 1-1s1 .45 1 1c0 3.86 3.14 7 7 7h5.5c3.45 0 6.25 2.81 6.25 6.25 0 4.96-4.04 9-9 9h-2.75c-3.86 0-7 3.14-7 7v.75c0 .55-.45 1-1 1z" fill="#2e3338"/></g><path d="m85.97 55.07v16.17c0 13.16-5.38 25.8-14.99 35.2-3.83 3.75-10.13 3.75-13.96 0-4.8-4.7-8.55-10.21-11.1-16.19-2.54-5.98-3.89-12.43-3.89-19.01v-16.17c0-3.38 2.36-6.3 5.75-7.22 5.4-1.47 10.81-2.21 16.22-2.21s10.82.74 16.22 2.21c3.39.92 5.75 3.84 5.75 7.22z" fill="#2e3338"/><path d="m64.5 45.65v7.07 13.34.08 13.22c.03 0 .05 0 .08-.01.26-.02.51-.04.76-.09l.27-.05c4.2-.76 8.12-2.64 11.35-5.42l2.29-1.97c1.55-1.33 3.52-2.06 5.55-2.06h1.17v1h-1.17c-1.8 0-3.53.65-4.89 1.82l-2.29 1.97c-3.37 2.9-7.46 4.85-11.83 5.64l-.27.05c-.48.09-.99.14-1.52.14s-1.04-.05-1.52-.14l-.27-.05c-4.37-.79-8.46-2.74-11.83-5.64l-2.29-1.97c-1.36-1.17-3.09-1.82-4.89-1.82h-1.17v-1h1.17c2.03 0 4 .73 5.55 2.06l2.29 1.97c3.23 2.78 7.15 4.66 11.35 5.42l.27.05c.25.05.5.07.76.09.03.01.05.01.08.01v-13.22-.08-13.34-7.07z" fill="#24282b"/><path d="m67.62 59.39c0 3.73-1.62 6.75-3.62 6.75s-3.63-3.02-3.63-6.75 1.63-6.75 3.63-6.75 3.62 3.02 3.62 6.75z" fill="#434a51"/></g></svg>