<svg height="512" viewBox="0 0 128 128" width="512" xmlns="http://www.w3.org/2000/svg"><g><rect fill="#ffde3e" height="21.706" rx="10.853" width="115.387" x="6.306" y="70.93"/><rect fill="#ef983b" height="21.706" rx="10.853" width="115.387" x="6.306" y="49.224"/><rect fill="#ffde3e" height="21.706" rx="10.853" width="115.387" x="6.306" y="27.517"/><rect fill="#ef983b" height="21.706" rx="10.853" width="115.387" x="6.306" y="92.636"/><path d="m64 13.657c-22.119 0-40.05 6.2-40.05 13.86v30.1a5.405 5.405 0 0 0 5.405 5.406h1.42a5.405 5.405 0 0 0 5.405-5.406v-4.089a4.3 4.3 0 0 1 4.305-4.3h2.141a4.3 4.3 0 0 1 4.305 4.3v23.749a4.505 4.505 0 0 0 4.506 4.506h2.122a4.506 4.506 0 0 0 4.506-4.506v-34.446a7.706 7.706 0 0 1 7.706-7.706h8.577a7.706 7.706 0 0 1 7.706 7.706v15.7a5.1 5.1 0 0 0 5.1 5.1h1.164a5.1 5.1 0 0 0 5.1-5.1 5.1 5.1 0 0 1 5.1-5.1h.428a5.1 5.1 0 0 0 5.1-5.1v-20.814c.004-7.655-17.927-13.86-40.046-13.86z" fill="#8c3f07"/><g fill="#422002"><path d="m123.443 60.077a12.6 12.6 0 0 0 -6.228-10.853 12.591 12.591 0 0 0 -6.375-23.456h-5.279c-.553-2.042-2.213-4.541-6.408-6.939a1.75 1.75 0 0 0 -1.737 3.039c3.15 1.8 4.884 3.807 4.884 5.65v20.814a3.355 3.355 0 0 1 -3.351 3.352h-.428a6.859 6.859 0 0 0 -6.851 6.851 3.355 3.355 0 0 1 -3.351 3.352h-1.164a3.355 3.355 0 0 1 -3.355-3.352v-15.7a9.467 9.467 0 0 0 -9.456-9.456h-8.573a9.468 9.468 0 0 0 -9.457 9.456v34.442a2.758 2.758 0 0 1 -2.755 2.756h-2.122a2.759 2.759 0 0 1 -2.756-2.756v-23.749a6.061 6.061 0 0 0 -6.055-6.054h-2.141a6.06 6.06 0 0 0 -6.054 6.054v4.091a3.66 3.66 0 0 1 -3.656 3.656h-1.42a3.66 3.66 0 0 1 -3.655-3.656v-30.1c0-5.728 15.729-12.111 38.3-12.111 9.841 0 19.24 1.257 26.466 3.54a1.75 1.75 0 1 0 1.055-3.338c-7.558-2.387-17.332-3.7-27.521-3.7-10.888 0-21.148 1.476-28.892 4.156-7.347 2.542-11.677 5.872-12.679 9.705h-5.269a12.591 12.591 0 0 0 -6.375 23.456 12.57 12.57 0 0 0 0 21.706 12.571 12.571 0 0 0 0 21.707 12.591 12.591 0 0 0 6.375 23.456h9.5a1.75 1.75 0 0 0 0-3.5h-9.5a9.1 9.1 0 1 1 0-18.206h93.68a9.1 9.1 0 1 1 0 18.206h-62.79a1.75 1.75 0 0 0 0 3.5h62.79a12.591 12.591 0 0 0 6.375-23.456 12.571 12.571 0 0 0 0-21.707 12.6 12.6 0 0 0 6.228-10.856zm-3.5-21.707a9.113 9.113 0 0 1 -9.1 9.1h-5.043v-18.202h5.04a9.112 9.112 0 0 1 9.103 9.102zm-54.172-1.495h8.577a5.963 5.963 0 0 1 5.952 5.956v4.643h-20.486v-4.643a5.963 5.963 0 0 1 5.957-5.956zm-57.714 1.495a9.112 9.112 0 0 1 9.1-9.1h5.043v18.204h-5.04a9.113 9.113 0 0 1 -9.103-9.104zm0 21.707a9.113 9.113 0 0 1 9.1-9.1h5.043v6.645a7.164 7.164 0 0 0 7.155 7.156h1.42a7.164 7.164 0 0 0 7.156-7.156v-4.094a2.557 2.557 0 0 1 2.554-2.554h2.141a2.557 2.557 0 0 1 2.555 2.554v15.652h-28.021a9.113 9.113 0 0 1 -9.103-9.103zm111.886 21.706a9.113 9.113 0 0 1 -9.1 9.1h-93.683a9.1 9.1 0 0 1 0-18.207h28.021v4.6a6.263 6.263 0 0 0 6.256 6.256h2.122a6.262 6.262 0 0 0 6.255-6.256v-4.6h51.026a9.113 9.113 0 0 1 9.103 9.107zm-9.1-12.6h-51.029v-18.209h20.486v7.561a6.859 6.859 0 0 0 6.851 6.852h1.164a6.859 6.859 0 0 0 6.851-6.852 3.355 3.355 0 0 1 3.351-3.351h.428a6.86 6.86 0 0 0 6.32-4.21h5.571a9.1 9.1 0 0 1 0 18.206z"/><path d="m39.393 112.593h-4.493a1.75 1.75 0 1 0 0 3.5h4.5a1.75 1.75 0 0 0 0-3.5z"/><path d="m61.936 20.1c-1.888.008-3.816.094-5.734.256a1.751 1.751 0 0 0 .145 3.495q.074 0 .15-.006c1.825-.155 3.66-.238 5.454-.245a1.75 1.75 0 0 0 -.008-3.5z"/><path d="m48.113 21.493a63.042 63.042 0 0 0 -14.913 4.707 1.75 1.75 0 1 0 1.572 3.127 60.4 60.4 0 0 1 14.018-4.4 1.75 1.75 0 1 0 -.676-3.434z"/></g></g></svg>