<svg height="512" viewBox="0 0 64 64" width="512" xmlns="http://www.w3.org/2000/svg"><g id="_24-Microscope" data-name="24-Microscope"><path d="m52 64h-40a3 3 0 0 1 0-6h26v2h-26a1 1 0 0 0 0 2h40a1 1 0 0 0 0-2h-8v-2h8a3 3 0 0 1 0 6z"/><path d="m40 58h2v2h-2z"/><path d="m15 46h2v2h-2z"/><path d="m34 52h-24a1 1 0 0 1 -1-1v-4a1 1 0 0 1 1-1h3v2h-2v2h22v-2h-14v-2h15a1 1 0 0 1 1 1v4a1 1 0 0 1 -1 1z"/><path d="m36.776 23.421a17.127 17.127 0 0 0 -3.776-.421h-5v-2h5a19.116 19.116 0 0 1 4.218.47z"/><path d="m52 59h-2v-19a16.972 16.972 0 0 0 -4.328-11.333l1.49-1.334a18.968 18.968 0 0 1 4.838 12.667z"/><path d="m19.293 59.707-4-4a1 1 0 0 1 -.293-.707v-4h2v3.586l3.707 3.707z"/><path d="m36 50h-2v-2h2a1 1 0 0 0 1-1v-7c0-.079-.12-8-4-8h-5v-2h5c5.932 0 6 9.592 6 10v7a3 3 0 0 1 -3 3z"/><path d="m26 35h-8a3 3 0 0 1 -3-3v-10a3 3 0 0 1 3-3h8a3 3 0 0 1 3 3v10a3 3 0 0 1 -3 3zm-8-14a1 1 0 0 0 -1 1v10a1 1 0 0 0 1 1h8a1 1 0 0 0 1-1v-10a1 1 0 0 0 -1-1z"/><path d="m24 40h-4a1 1 0 0 1 -.707-.293l-2-2a1 1 0 0 1 -.293-.707v-3h2v2.586l1.414 1.414h3.172l1.414-1.414v-2.586h2v3a1 1 0 0 1 -.293.707l-2 2a1 1 0 0 1 -.707.293z"/><path d="m27 20h-2v-4a1 1 0 0 1 .293-.707l8.293-8.293-4.586-4.586-10 10v4.586h-2v-5a1 1 0 0 1 .293-.707l11-11a1 1 0 0 1 1.414 0l6 6a1 1 0 0 1 0 1.414l-8.707 8.707z"/><path d="m28 2.757h2v8.485h-2z" transform="matrix(.707 -.707 .707 .707 3.544 22.556)"/><path d="m16 23h12v2h-12z"/><path d="m46 43h2v16h-2z"/><path d="m46 39h2v2h-2z"/><path d="m53 21h-6a1 1 0 0 1 -1-1v-3h-3a1 1 0 0 1 -1-1v-6a1 1 0 0 1 1-1h3v-3a1 1 0 0 1 1-1h6a1 1 0 0 1 1 1v3h3a1 1 0 0 1 1 1v6a1 1 0 0 1 -1 1h-3v3a1 1 0 0 1 -1 1zm-5-2h4v-3a1 1 0 0 1 1-1h3v-4h-3a1 1 0 0 1 -1-1v-3h-4v3a1 1 0 0 1 -1 1h-3v4h3a1 1 0 0 1 1 1z"/><path d="m50 26h-11a1 1 0 0 1 -.707-1.707l2.319-2.319a12.988 12.988 0 1 1 9.388 4.026zm-8.586-2h8.586a11.032 11.032 0 1 0 -7.3-2.786 1 1 0 0 1 .043 1.454z"/></g></svg>