<svg height="512" viewBox="0 0 64 64" width="512" xmlns="http://www.w3.org/2000/svg"><g id="_25-Stethoscope" data-name="25-Stethoscope"><path d="m11 9h2v2h-2z"/><path d="m23 26a12.013 12.013 0 0 1 -12-12v-1h2v1a10 10 0 0 0 20 0v-13a1 1 0 0 1 1-1h2a3 3 0 0 1 3 3v3h-2v-3a1 1 0 0 0 -1-1h-1v12a12.013 12.013 0 0 1 -12 12z"/><path d="m23 30a16.019 16.019 0 0 1 -16-16v-11a3 3 0 0 1 3-3h2a1 1 0 0 1 1 1v6h-2v-5h-1a1 1 0 0 0 -1 1v11a14 14 0 0 0 28 0v-6h2v6a16.019 16.019 0 0 1 -16 16z"/><path d="m13 6h-1v-2h1a1 1 0 0 0 0-2h-1v-2h1a3 3 0 0 1 0 6z"/><path d="m34 6h-1a3 3 0 0 1 0-6h1v2h-1a1 1 0 0 0 0 2h1z"/><path d="m26 35h-6a1 1 0 0 1 -1-1v-6h2v5h4v-5h2v6a1 1 0 0 1 -1 1z"/><path d="m29 22.172h2v5.657h-2z" transform="matrix(.707 -.707 .707 .707 -8.891 28.536)"/><path d="m13.172 24h5.657v2h-5.657z" transform="matrix(.707 -.707 .707 .707 -12.991 18.636)"/><path d="m41 40a8 8 0 1 1 8-8 8.009 8.009 0 0 1 -8 8zm0-14a6 6 0 1 0 6 6 6.006 6.006 0 0 0 -6-6z"/><path d="m41 36a4 4 0 1 1 4-4 4 4 0 0 1 -4 4zm0-6a2 2 0 1 0 2 2 2 2 0 0 0 -2-2z"/><path d="m32 64a12.013 12.013 0 0 1 -12-12v-18h2v18a10 10 0 0 0 20 0v-14h2v14a12.013 12.013 0 0 1 -12 12z"/><path d="m38 41h2v2h-2z"/><path d="m32 60a8.009 8.009 0 0 1 -8-8v-15h2v15a6 6 0 0 0 12 0v-7h2v7a8.009 8.009 0 0 1 -8 8z"/><path d="m4 47h12v2h-12z"/><path d="m11.5 34.55h2v9.899h-2z" transform="matrix(.707 -.707 .707 .707 -24.27 20.408)"/><path d="m7.55 55.5h9.899v2h-9.899z" transform="matrix(.707 -.707 .707 .707 -36.29 25.387)"/><path d="m48 47h12v2h-12z"/><path d="m46.55 38.5h9.899v2h-9.899z" transform="matrix(.707 -.707 .707 .707 -12.847 47.985)"/><path d="m50.5 51.55h2v9.899h-2z" transform="matrix(.707 -.707 .707 .707 -24.868 52.964)"/></g></svg>