<svg height="512" viewBox="0 0 128 128" width="512" xmlns="http://www.w3.org/2000/svg"><g><rect fill="#ef3829" height="132.007" rx="10.751" transform="matrix(.707 .707 -.707 .707 64 -26.51)" width="21.501" x="53.249" y="-2.004"/><path d="m35.5 107.706a4.48 4.48 0 0 0 -.192 6.326l2.817 2.817c6.747 6.747 18.027 6.405 25.2-.764l52.767-52.767c7.169-7.169 7.511-18.449.764-25.2l-2.817-2.817a4.48 4.48 0 0 0 -6.326.192z" fill="#ef983b"/><path d="m20.294 92.5a4.48 4.48 0 0 1 -6.326.192l-2.817-2.817c-6.747-6.747-6.4-18.027.764-25.2l52.767-52.76c7.169-7.169 18.449-7.511 25.2-.764l2.818 2.817a4.48 4.48 0 0 1 -.192 6.326z" fill="#ef983b"/><path d="m37.163 106.04 14.811.637a8.561 8.561 0 0 0 8.8-7.072l.037-.21a8.559 8.559 0 0 1 7.556-7.035 8.56 8.56 0 0 0 7.549-7l.388-2.154a8.563 8.563 0 0 1 6.905-6.906l2.154-.388a8.56 8.56 0 0 0 7-7.549 8.559 8.559 0 0 1 7.037-7.553l.21-.037a8.561 8.561 0 0 0 7.072-8.8l-.637-14.811z" fill="#64bc0f"/><path d="m21.96 90.837-.637-14.811a8.561 8.561 0 0 1 7.072-8.8l.21-.037a8.559 8.559 0 0 0 7.035-7.556 8.56 8.56 0 0 1 7-7.549l2.154-.388a8.563 8.563 0 0 0 6.906-6.905l.388-2.154a8.56 8.56 0 0 1 7.549-7 8.559 8.559 0 0 0 7.556-7.035l.037-.21a8.561 8.561 0 0 1 8.8-7.072l14.811.637z" fill="#64bc0f"/><g fill="#422002"><path d="m118.087 36.885-2.817-2.817a5.834 5.834 0 0 0 -2.368-1.432 12.491 12.491 0 0 0 -17.534-17.536 5.853 5.853 0 0 0 -1.436-2.365l-2.817-2.822c-7.415-7.413-19.831-7.077-27.67.765l-5.888 5.887a1.75 1.75 0 1 0 2.474 2.475l5.889-5.888c6.475-6.476 16.665-6.818 22.721-.764l2.816 2.817a2.737 2.737 0 0 1 -.187 3.846l-1.128 1.128-14.04-.6a10.32 10.32 0 0 0 -10.602 8.521l-.035.2a6.836 6.836 0 0 1 -6.013 5.6 10.363 10.363 0 0 0 -9.092 8.428l-.388 2.154a6.835 6.835 0 0 1 -5.494 5.494l-2.154.388a10.363 10.363 0 0 0 -8.424 9.091 6.835 6.835 0 0 1 -5.589 6.011l-.216.037a10.341 10.341 0 0 0 -8.518 10.6l.6 14.04-1.126 1.127a2.736 2.736 0 0 1 -3.846.187l-2.817-2.816c-6.053-6.054-5.71-16.246.764-22.721l41.448-41.451a1.75 1.75 0 0 0 -2.475-2.475l-41.447 41.451c-7.84 7.838-8.178 20.255-.765 27.67l2.817 2.817a5.816 5.816 0 0 0 2.38 1.416 12.492 12.492 0 0 0 17.522 17.557 5.853 5.853 0 0 0 1.436 2.365l2.817 2.817a18.431 18.431 0 0 0 13.133 5.347 20.6 20.6 0 0 0 14.537-6.112l6.132-6.132a1.75 1.75 0 0 0 -2.475-2.474l-6.132 6.132c-6.475 6.475-16.665 6.818-22.721.764l-2.816-2.812a2.737 2.737 0 0 1 .187-3.846l1.128-1.128 14.04.6c.149.007.3.01.444.01a10.345 10.345 0 0 0 10.158-8.536l.035-.2a6.836 6.836 0 0 1 6.011-5.6 10.363 10.363 0 0 0 9.092-8.428l.388-2.154a6.835 6.835 0 0 1 5.494-5.494l2.154-.388a10.363 10.363 0 0 0 8.426-9.091 6.835 6.835 0 0 1 5.589-6.011l.216-.037a10.341 10.341 0 0 0 8.518-10.6l-.6-14.04 1.128-1.128a2.737 2.737 0 0 1 3.846-.187l2.817 2.816c6.053 6.055 5.71 16.246-.764 22.721l-31.55 31.553a1.75 1.75 0 1 0 2.475 2.474l31.551-31.551c7.836-7.838 8.179-20.255.761-27.67zm-95.016 39.066a6.83 6.83 0 0 1 5.621-7l.216-.037a10.352 10.352 0 0 0 8.473-9.1 6.842 6.842 0 0 1 5.566-6.005l2.155-.389a10.357 10.357 0 0 0 8.317-8.32l.389-2.155a6.841 6.841 0 0 1 6-5.566 10.354 10.354 0 0 0 9.1-8.479l.035-.2a6.855 6.855 0 0 1 7-5.627l10.833.466-63.239 63.245zm-4.506 33.484a9.013 9.013 0 0 1 0-12.73l2.956-2.955.01-.01h.005l72.2-72.2v-.005l.01-.011 2.955-2.955a9 9 0 0 1 12.73 12.73l-2.956 2.955-.01.01v.005l-72.2 72.2h-.005l-.01.011-2.95 2.955a9.014 9.014 0 0 1 -12.735 0zm86.364-57.386a6.83 6.83 0 0 1 -5.621 7l-.216.037a10.352 10.352 0 0 0 -8.473 9.1 6.841 6.841 0 0 1 -5.566 6l-2.155.389a10.357 10.357 0 0 0 -8.317 8.325l-.389 2.155a6.842 6.842 0 0 1 -6 5.566 10.354 10.354 0 0 0 -9.1 8.479l-.035.2a6.857 6.857 0 0 1 -7 5.627l-10.833-.466 63.247-63.247z"/><path d="m77.218 99.71-3.181 3.182a1.75 1.75 0 1 0 2.475 2.474l3.18-3.181a1.75 1.75 0 1 0 -2.474-2.475z"/><path d="m41.37 89.991.1-1.575a4.791 4.791 0 0 1 4.466-4.466 8.3 8.3 0 0 0 7.735-7.735 4.79 4.79 0 0 1 4.466-4.466 8.3 8.3 0 0 0 7.735-7.735 4.79 4.79 0 0 1 4.466-4.466 8.3 8.3 0 0 0 7.735-7.735 4.791 4.791 0 0 1 4.466-4.466 8.3 8.3 0 0 0 7.735-7.736l.1-1.637a4.8 4.8 0 0 1 2.977-4.127l4.88-1.975a1.75 1.75 0 1 0 -1.312-3.244l-4.874 1.972a8.318 8.318 0 0 0 -5.157 7.148l-.105 1.638a4.79 4.79 0 0 1 -4.466 4.465 8.3 8.3 0 0 0 -7.735 7.736 4.791 4.791 0 0 1 -4.466 4.466 8.3 8.3 0 0 0 -7.735 7.735 4.79 4.79 0 0 1 -4.466 4.466 8.3 8.3 0 0 0 -7.735 7.735 4.791 4.791 0 0 1 -4.466 4.466 8.3 8.3 0 0 0 -7.735 7.735l-.1 1.576a4.8 4.8 0 0 1 -3.037 4.15l-5.226 2.034a1.75 1.75 0 1 0 1.268 3.262l5.224-2.031a8.3 8.3 0 0 0 5.262-7.19z"/></g></g></svg>