<svg height="512pt" viewBox="-105 0 512 512.001" width="512pt" xmlns="http://www.w3.org/2000/svg"><path d="m235.9375 365.378906-19.246094-16.101562c-2.511718-2.101563-6.097656-2.328125-8.855468-.558594l-12.339844 7.9375v-33.835938c3.136718-1.242187 6.21875-2.625 9.234375-4.15625h7.765625c9.011718 0 16.796875-5.328124 20.386718-13h22.683594c14.835938 0 26.90625-12.070312 26.90625-26.90625v-34.90625c11.375-6.269531 19.097656-18.375 19.097656-32.25 0-8.726562-3.058593-16.746093-8.152343-23.058593 3.777343-33.289063-2.328125-60.796875-3.652344-66.195313-.1875-7.988281-2.75-53.160156-36.070313-86.625-23.601562-23.703125-56.820312-35.722656-98.730468-35.722656-41.914063 0-75.128906 12.019531-98.730469 35.722656-33.605469 33.75-35.925781 79.414063-36.078125 86.824219-1.0625 5.46875-7.128906 38.957031-1.519531 63.5625-6.371094 6.621094-10.296875 15.601563-10.296875 25.492187 0 22.289063 18.882812 37.101563 40.054687 36.800782 3.242188 12.296875 8.558594 23.757812 15.554688 33.988281-10.8125 6.667969-35.3125 24.851563-50.730469 60.144531-3.824219 8.765625 9.851562 14.875 13.730469 5.996094 14.574219-33.375 38.605469-49.6875 46.363281-54.273438 11.855469 13.085938 26.804688 23.316407 43.683594 29.527344 2.664062 22.109375-.117188 42.914063-8.363282 62.203125-20.0625 46.910157-67.445312 72.886719-85.980468 81.542969-8.074219-32.164062-9.792969-61.636719-5.101563-87.714844 1.691407-9.402344-13.023437-12.207031-14.742187-2.652344-5.28125 29.347657-3.097656 62.402344 6.4375 98.292969v29.054688c0 4.136719 3.355468 7.488281 7.492187 7.488281h276.429688c4.136719 0 7.492187-3.351562 7.492187-7.488281v-60.117188c0-39.007812-27.859375-71.621093-64.722656-79.015625zm-15.929688-69.207031c0 4.144531-3.371093 7.515625-7.511718 7.515625h-17.007813c-4.140625 0-7.511719-3.371094-7.511719-7.515625 0-4.140625 3.371094-7.511719 7.511719-7.511719h17.007813c4.140625 0 7.511718 3.371094 7.511718 7.511719zm-93.410156 84.507813 6.242188 4.011718-9.878906 20.339844-4.851563-4.0625c1.507813-2.910156 2.929687-5.902344 4.246094-8.984375 1.601562-3.722656 3.003906-7.492187 4.242187-11.304687zm-5.90625 41.996093c3.679688 3.085938 9.453125 1.855469 11.550782-2.464843l6.632812-13.664063 6.691406 41.242187c-20.679687-2.726562-32.824218-14.410156-39.949218-26.890624 1.648437-2.214844 3.25-4.492188 4.800781-6.835938zm68.773438-17.644531-9.878906-20.339844 31.71875-20.390625 13.382812 11.199219zm-16.683594-.0625 7.402344 15.242188c2.089844 4.304687 7.925781 5.503906 11.550781 2.464843l23.925781-20.058593c-1.273437 4.648437-3.128906 9.875-5.855468 15.101562-9.367188 17.953125-24.828126 28.09375-46.027344 30.242188zm9.257812-39.664062-16.144531 10.378906c-2.140625 1.375-3.355469 3.804687-3.601562 6.300781l-6.890625 32.890625-5.335938-32.890625c-.183594-2.53125-1.40625-4.972656-3.617187-6.351563l-15.90625-10.226562c2.332031-12.003906 2.992187-24.410156 1.972656-37.179688 15.785156 3.277344 32.3125 3.039063 48-.6875v29.894532c0 2.78125.550781 5.433594 1.523437 7.871094zm85.457032-86.546876c0 6.574219-5.351563 11.925782-11.929688 11.925782h-21.257812c-2.457032-9.757813-11.304688-17.003906-21.8125-17.003906h-17.007813c-12.402343 0-22.492187 10.089843-22.492187 22.492187 0 6.292969 2.601562 11.988281 6.78125 16.074219-8.015625 2.160156-16.347656 3.296875-24.820313 3.296875-52.496093 0-95.203125-42.699219-95.203125-95.1875v-68.203125c2.070313 1 4.21875 2 6.441406 2.992187 22.347657 9.949219 52.453126 18.957031 88.269532 18.957031 39.664062 0 72.578125-11.046874 95.691406-22.1875v68.441407c0 15.101562-3.429688 29.535156-10.191406 42.902343-4.371094 8.636719 9.027344 15.332032 13.367187 6.761719 3.527344-6.972656 6.261719-14.195312 8.214844-21.621093 1.972656.03125 3.984375.035156 5.949219-.109376zm-244.179688-67.15625c0-11.90625 9.59375-21.613281 21.457032-21.8125v30.566407c0 4.421875.269531 8.777343.777343 13.066406h-.410156c-12.03125 0-21.824219-9.789063-21.824219-21.820313zm9.746094-74.832031c3.203125 2.1875 7.117188 4.710938 11.710938 7.398438v30.640625c-4.417969.046875-8.648438.871094-12.566407 2.34375-1.925781-13.617188-.554687-29.679688.855469-40.382813zm231.703125 96.652344h-.390625c.503906-4.304687.757812-8.660156.757812-13.066406v-30.566407c11.867188.199219 21.457032 9.90625 21.457032 21.8125 0 12.03125-9.789063 21.820313-21.824219 21.820313zm.367187-58.613281v-30.820313c4.785157-2.773437 8.835938-5.367187 12.109376-7.585937 1.511718 9.542968 3.082031 24.410156 2.066406 41.398437-4.355469-1.878906-9.144532-2.941406-14.175782-2.992187zm-198.285156-128.515625c20.6875-20.777344 50.335938-31.3125 88.117188-31.3125 49.824218 0 85.070312 18.035156 104.757812 53.609375 10.089844 18.230468 13.429688 36.75 14.535156 46.925781-1.078124-.023437-21-.277344-34.386718-.316406-9.785156 0-9.960938 15.773437-.019532 15.773437h17.621094c-21.0625 12.105469-57.546875 28.148438-103.011718 28.148438-45.476563 0-81.582032-16.050782-102.328126-28.148438h146.773438c10.699219 0 14.734375-15.800781 2.984375-15.800781-61.574219.078125-141.0625.59375-166.273437.765625 1.476562-14.207031 7.414062-45.726562 31.230468-69.644531zm218.832032 450.726562h-261.449219v-13.746093c11.398437-4.832032 44.585937-20.605469 71.371093-50.1875 10.085938 15.167968 27.796876 29.992187 58.488282 30.273437.070312 0 .136718.011719.203125.011719.058593 0 .117187.003906.175781.003906.046875 0 .09375-.007812.144531-.007812.117188 0 .230469.007812.351563.007812 39.605468 0 58.90625-21.0625 68.121094-38.730469 8.472656-16.246093 9.964843-32.367187 10.21875-36.820312l6.972656-5.847657c26.316406 8.546876 45.402344 33.289063 45.402344 62.414063zm0 0"/><path d="m155.464844 38.949219c-29.890625 0-52.429688 13.09375-52.429688 30.457031s22.539063 30.457031 52.429688 30.457031c29.886718 0 52.429687-13.09375 52.429687-30.457031s-22.542969-30.457031-52.429687-30.457031zm0 45.9375c-22.863282 0-37.449219-9.167969-37.449219-15.480469s14.585937-15.480469 37.449219-15.480469c22.859375 0 37.449218 9.167969 37.449218 15.480469s-14.589843 15.480469-37.449218 15.480469zm0 0"/><path d="m254.332031 461.378906h-37.949219c-9.664062 0-9.664062 14.976563 0 14.976563h37.949219c9.660157 0 9.660157-14.976563 0-14.976563zm0 0"/></svg>