<svg height="512" viewBox="0 0 88 88" width="512" xmlns="http://www.w3.org/2000/svg"><g id="Shopping_Basketv" data-name="Shopping Basketv"><path d="m28 11-8 4v28h48v-28l-8-4z" fill="#e6ecff"/><path d="m44 43a1 1 0 0 1 -1-1v-28a1 1 0 0 1 2 0v28a1 1 0 0 1 -1 1z" fill="#becced"/><g fill="#4294ff"><circle cx="48" cy="25" r="1"/><circle cx="48" cy="31" r="1"/><circle cx="48" cy="37" r="1"/><path d="m62 24h-8a1 1 0 0 0 -1 1v8a1 1 0 0 0 .5527.8945l4 2a1.001 1.001 0 0 0 .8946 0l4-2a1 1 0 0 0 .5527-.8945v-8a1 1 0 0 0 -1-1z"/></g><path d="m62 24h-8a1 1 0 0 0 -1 1v3h10v-3a1 1 0 0 0 -1-1z" fill="#376cfb"/><path d="m72.77 49.3613a1.0013 1.0013 0 0 0 -.77-.3613h-56a1 1 0 0 0 -.9829 1.1846l4.22 22.5195a1 1 0 0 0 1.6338.5742l15.5791-13.3583a1.0066 1.0066 0 0 1 1.4106.1006.9958.9958 0 0 1 .2369.7334.9783.9783 0 0 1 -.3492.6777l-17.33 14.8692a1 1 0 0 0 -.3316.9433l.93 4.9405a1.0008 1.0008 0 0 0 .9833.8153h44a1.0008 1.0008 0 0 0 .9829-.8154l.93-4.94a1 1 0 0 0 -.3316-.9433l-17.3357-14.8745a.9746.9746 0 0 1 -.3433-.6729.9922.9922 0 0 1 .2349-.73 1.0081 1.0081 0 0 1 1.4121-.1045l15.58 13.3594a1 1 0 0 0 1.6338-.5742l4.22-22.5195a1 1 0 0 0 -.2131-.8238z" fill="#4294ff"/><path d="m56 5-12 9-12-9z" fill="#becced"/><path d="m28 11 10 8 6-5-12-9z" fill="#d0dbf7"/><path d="m60 11-10 8-6-5 12-9z" fill="#d0dbf7"/><path d="m73 41h-58a5 5 0 0 0 0 10h58a5 5 0 0 0 0-10z" fill="#376cfb"/><path d="m39.377 58.7227a3 3 0 0 0 -4.23-.3233l-20.1997 17.3233a3 3 0 0 0 3.9062 4.5546l20.1987-17.3242a2.9983 2.9983 0 0 0 .3248-4.2304z" fill="#376cfb"/><path d="m73.0522 75.7227-20.1982-17.3233a3 3 0 1 0 -3.9062 4.5537l20.1987 17.3242a3 3 0 1 0 3.9057-4.5546z" fill="#376cfb"/></g></svg>