<svg enable-background="new 0 0 128 128" height="512" viewBox="0 0 128 128" width="512" xmlns="http://www.w3.org/2000/svg"><g id="Layer_28"><path d="m90.36 36.75v20.14c0 16.39-6.7 32.14-18.67 43.84-4.77 4.67-12.62 4.67-17.39 0-5.98-5.85-10.65-12.72-13.83-20.17-3.16-7.45-4.85-15.48-4.85-23.68v-20.13c0-4.21 2.94-7.85 7.16-8.99 6.74-1.84 13.48-2.76 20.22-2.76s13.48.92 20.2 2.75c4.23 1.15 7.16 4.79 7.16 9z" fill="#2e3338"/><path d="m63.62 25.01v8.81 16.62.1 16.46c.04 0 .06 0 .1-.01.32-.02.64-.05.95-.11l.34-.06c5.23-.95 10.11-3.29 14.14-6.75l2.85-2.45c1.93-1.66 4.38-2.57 6.91-2.57h1.46v1.25h-1.46c-2.24 0-4.4.81-6.09 2.27l-2.85 2.45c-4.2 3.61-9.29 6.04-14.73 7.02l-.34.06c-.6.11-1.23.17-1.89.17s-1.3-.06-1.89-.17l-.34-.06c-5.44-.98-10.54-3.41-14.73-7.02l-2.85-2.45c-1.69-1.46-3.85-2.27-6.09-2.27h-1.46v-1.25h1.46c2.53 0 4.98.91 6.91 2.57l2.85 2.45c4.02 3.46 8.91 5.8 14.14 6.75l.34.06c.31.06.62.09.95.11.01.01.04.01.08.01v-16.47-.1-16.61-8.81z" fill="#24282b"/><path d="m67.51 42.13c0 4.65-2.02 8.41-4.51 8.41s-4.52-3.76-4.52-8.41 2.03-8.41 4.52-8.41 4.51 3.76 4.51 8.41z" fill="#434a51"/><path d="m99.03 84.7c0 9.03-7.31 16.34-16.34 16.34-3.62 0-6.97-1.18-9.68-3.18-4.04-2.97-6.66-7.76-6.66-13.16 0-9.02 7.32-16.33 16.34-16.33 2.04 0 4 .38 5.8 1.06 6.16 2.34 10.54 8.29 10.54 15.27z" fill="#5ac0a6"/><path d="m82.69 89.79c-2.81 0-5.09-2.28-5.09-5.09s2.28-5.09 5.09-5.09 5.09 2.28 5.09 5.09-2.28 5.09-5.09 5.09z" fill="#fdcc58"/><g><path d="m82.69 76.76c-.55 0-1-.45-1-1v-3.89c0-.55.45-1 1-1s1 .45 1 1v3.89c0 .56-.45 1-1 1z" fill="#fdcc58"/></g><g><path d="m76.37 79.38c-.26 0-.51-.1-.71-.29l-2.75-2.75c-.39-.39-.39-1.02 0-1.41s1.02-.39 1.41 0l2.75 2.75c.39.39.39 1.02 0 1.41-.19.2-.44.29-.7.29z" fill="#fdcc58"/></g><g><path d="m73.75 85.71h-3.89c-.55 0-1-.45-1-1s.45-1 1-1h3.89c.55 0 1 .45 1 1s-.45 1-1 1z" fill="#fdcc58"/></g><g><path d="m73.62 94.78c-.26 0-.51-.1-.71-.29-.39-.39-.39-1.02 0-1.41l2.75-2.75c.39-.39 1.02-.39 1.41 0s.39 1.02 0 1.41l-2.75 2.75c-.19.19-.44.29-.7.29z" fill="#fdcc58"/></g><g><path d="m82.69 98.54c-.55 0-1-.45-1-1v-3.89c0-.55.45-1 1-1s1 .45 1 1v3.89c0 .55-.45 1-1 1z" fill="#fdcc58"/></g><g><path d="m91.76 94.78c-.26 0-.51-.1-.71-.29l-2.75-2.75c-.39-.39-.39-1.02 0-1.41s1.02-.39 1.41 0l2.75 2.75c.39.39.39 1.02 0 1.41-.18.19-.44.29-.7.29z" fill="#fdcc58"/></g><g><path d="m95.52 85.71h-3.89c-.55 0-1-.45-1-1s.45-1 1-1h3.89c.55 0 1 .45 1 1s-.45 1-1 1z" fill="#fdcc58"/></g><g><path d="m89.01 79.38c-.26 0-.51-.1-.71-.29-.39-.39-.39-1.02 0-1.41l2.75-2.75c.39-.39 1.02-.39 1.41 0s.39 1.02 0 1.41l-2.75 2.75c-.18.2-.44.29-.7.29z" fill="#fdcc58"/></g></g></svg>