<svg height="511pt" viewBox="-42 0 511 511.99817" width="511pt" xmlns="http://www.w3.org/2000/svg"><path d="m428.753906 312.515625c-.636718-15.746094-9.273437-30.015625-22.371094-38.089844 5.582032-8.226562 8.449219-18.078125 8.039063-28.199219-.382813-9.566406-3.59375-18.566406-9.195313-26.066406 10.832032-9.234375 16.953126-22.9375 16.363282-37.53125-.738282-18.304687-11.847656-34.054687-28.070313-41.097656 2.847657-6.460938 4.175781-13.476562 3.882813-20.710938-1-24.835937-21.242188-44.433593-45.757813-44.996093.386719-5.558594-.230469-11.261719-1.8125-16.605469-2.738281-9.261719-17.097656-5.015625-14.359375 4.25 1.761719 5.957031 1.730469 12.515625-.097656 18.457031-3.011719 9.8125 8.140625 9.121094 13.875 8.890625 8.523438-.355468 16.667969 2.648438 22.9375 8.429688 6.265625 5.78125 9.910156 13.660156 10.253906 22.179687.292969 7.246094-1.808594 14.175781-6.074218 20.039063-3.148438 4.328125-.554688 10.726562 4.601562 11.75 14.507812 2.878906 25.058594 15.222656 25.65625 30.015625.488281 12.054687-5.753906 23.222656-16.292969 29.140625-4.394531 2.46875-5.09375 8.703125-1.355469 12.082031 6.410157 5.804687 10.136719 13.75 10.484376 22.378906.375 9.328125-3.339844 18.328125-10.199219 24.695313-4.085938 3.789062-2.453125 10.867187 2.722656 12.589844 12.511719 4.171874 21.277344 15.828124 21.808594 29.003906.679687 16.808594-11.882813 31.320312-28.601563 33.035156-5.253906.542969-8.34375 6.449219-5.789062 11.070312 2.589844 4.691407 3.960937 10.023438 3.960937 15.410157 0 17.601562-14.320312 31.925781-31.925781 31.925781-.714844 0-1.40625.105469-2.0625.292969-13.851562-24.359375-40.03125-40.839844-70.003906-40.839844h-18.164063c-3.5 0-6.347656-2.847656-6.347656-6.347656v-34.589844c32.195313-12.789063 56.972656-40.355469 65.910156-74.28125 2.074219.035156 4.207031.035156 6.269531-.132813.277344 21.945313-7.570312 43.582032-22 60.144532-2.667968-1.148438-5.601562-1.789063-8.683593-1.789063-12.121094 0-21.980469 9.863281-21.980469 21.984375s9.859375 21.980469 21.980469 21.980469c12.121093 0 21.984375-9.859375 21.984375-21.980469 0-3.574218-.863282-6.945312-2.378906-9.929687 18.65625-21.195313 26.054687-47.25 26.054687-75.003907 11.179687-6.3125 18.75-18.296874 18.75-32.027343 0-20.136719-16.285156-36.539063-36.378906-36.742188v-16.613281c0-7.210938-8.65625-9.566406-13.226563-4.816406-6.914062 7.191406-16.21875 11.15625-26.195312 11.15625-15.152344 0-28.859375-9.550782-34.101563-23.761719-1.714843-4.644531-7.609375-6.371094-11.554687-3.371094-5.375 4.082031-11.792969 6.238281-18.554688 6.238281-8.863281 0-17.304687-3.84375-23.152344-10.539062-3.359374-3.847656-9.710937-3.175781-12.1875 1.292969-8.390624 15.132812-24.335937 24.53125-41.605468 24.53125-10.03125 0-19.621094-3.082031-27.734375-8.917969-5.296875-3.8125-12.957031.964844-11.722657 7.472656v17.339844c-19.613281.519531-35.832031 16.328125-36.363281 35.703125-.273437 10.019531 3.417969 19.484375 10.394531 26.65625 6.984376 7.175781 16.339844 11.125 26.347657 11.125h3.269531c3.914062 14.84375 10.898438 28.832031 20.589844 40.878906 6.117187 7.605469 17.691406-1.898437 11.671875-9.382812-13.695313-17.03125-20.933594-37.605469-20.933594-59.507813v-51.367187c7.675781 3.269531 15.953125 4.976562 24.480469 4.976562 19.5625 0 37.824218-9.164062 49.558594-24.414062 7.84375 5.875 17.433593 9.125 27.390624 9.125 6.996094 0 13.742188-1.550781 19.898438-4.539063 9.089844 15.503906 25.945312 25.433594 44.308594 25.433594 8.703125 0 17.042968-2.140625 24.449218-6.167969v46.953125c0 52.402344-42.636718 95.035156-95.042968 95.035156-19.277344 0-37.832032-5.734374-53.664063-16.585937-7.964843-5.460937-16.433593 6.890625-8.464843 12.351563 6.816406 4.675781 14.070312 8.523437 21.640624 11.523437v34.558594c0 3.5-2.847656 6.347656-6.347656 6.347656h-18.164062c-29.96875 0-56.144532 16.476563-70 40.835937-11.136719-3.15625-20.152344-2.9375-27.800782-13.375-7.238281-9.871093-8.136718-23.511718-2.207031-34.25 2.554688-4.621093-.535156-10.527343-5.785156-11.070312-33.183594-3.40625-38.621094-51.425781-6.796875-62.039062 5.164062-1.71875 6.796875-8.8125 2.726562-12.589844-6.863281-6.367188-10.578124-15.367188-10.203124-24.695313.351562-8.628906 4.074218-16.574219 10.488281-22.378906 3.734375-3.378906 3.035156-9.613281-1.359375-12.082031-25.304688-14.214844-19.09375-53.511719 9.363281-59.15625 8.753906-1.734375 5.023437-9.902344 2.648437-14.765625-3.515624-7.203125-5.105468-14.367188-3.402343-22.382813 3.191406-15.007812 17.089843-25.902344 32.472656-25.25 5.730469.230469 16.996094 1.277344 13.875-8.890625-8.121094-26.433593 20.574219-50.453125 45.15625-37.75 4.269531 2.203125 9.628906-.261719 10.726563-4.941406 6.449218-27.472656 44.414062-33.085937 58.648437-8.738281 2.804687 4.800781 10.101563 4.835937 12.925781 0 14.226563-24.328125 52.191406-18.746094 58.644532 8.738281 1.101562 4.679687 6.460937 7.144531 10.730468 4.941406 8.613282-4.449219 19.054688-4.71875 27.878906-.683593 8.785157 4.015624 15.007813-9.609376 6.222657-13.621094-10.285157-4.703125-22.164063-5.503906-32.988281-2.242188-13.257813-30.050781-54.355469-37.25-76.953126-13.328125-22.589843-23.917969-63.6875-16.730469-76.949218 13.328125-30.910156-9.316406-62.550782 16.039063-60.3125 48.195313-24.402344.542969-44.773438 20.640625-45.757813 44.996093-.292969 7.230469 1.039063 14.25 3.886719 20.710938-31.113281 13.511719-37.578125 56.570312-11.710938 78.628906-5.597656 7.5-8.808593 16.5-9.195312 26.066406-.410156 10.117188 2.460938 19.972657 8.042969 28.199219-33.4375 20.613281-27.367188 72.511719 10.058593 84.609375-8.453124 27.9375 11.449219 57.578125 40.496094 60.289063-2.617187 7.925781-4.050781 16.382812-4.050781 25.171875v60.015625c0 4.136719 3.351563 7.488281 7.484375 7.488281h204.902344c9.660156 0 9.660156-14.976562 0-14.976562h-29.402344v-17.855469c0-4.136719-3.355469-7.488281-7.488281-7.488281h-22.511719v-2.539063c3.257812-2.167969 8.261719-5.664063 16.347656-11.316406 1.125-.785157 2.257813-1.578125 3.296875-2.304688 3.09375 3.609375 7.90625 7.140625 12.644531 3.679688 2.132813-1.5625 48.542969-36.019531 46.386719-76.675781 25.757813 8.824218 44.335938 33.261718 44.335938 61.972656v52.523437h-26.667969c-9.660156 0-9.660156 14.976563 0 14.976563h34.15625c4.132812 0 7.488281-3.351563 7.488281-7.488282v-60.011718c0-8.792969-1.4375-17.246094-4.054687-25.171875 23.820312-2.210938 42.53125-22.304688 42.53125-46.691407 0-4.617187-.683594-9.207031-2.015625-13.597656 19.605469-6.335937 33.296875-25.167968 32.429687-46.519531zm-139.402344 16.484375c0-3.859375 3.140626-7.003906 7.007813-7.003906 3.863281 0 7.007813 3.140625 7.007813 7.003906 0 3.867188-3.144532 7.007812-7.007813 7.007812-3.867187 0-7.007813-3.140624-7.007813-7.007812zm-184.621093-95.179688c-5.929688 0-11.472657-2.339843-15.609375-6.59375-4.136719-4.25-6.324219-9.859374-6.160156-15.800781.3125-11.347656 9.8125-20.632812 21.394531-21.136719v30.496094c0 4.371094.277343 8.722656.796875 13.035156zm241.0625-21.777343c0 12.007812-9.769531 21.777343-21.78125 21.777343h-.398438c.507813-4.277343.777344-8.625.777344-13.039062v-30.507812c11.835937.203124 21.402344 9.886718 21.402344 21.769531zm-131.421875 118.75c8.78125 0 17.324218-1.039063 25.511718-2.992188v29.867188c0 8.070312 4.511719 15.105469 11.140626 18.726562-2.253907 18.226563-17.824219 32.386719-36.652344 32.386719-18.824219 0-34.394532-14.160156-36.648438-32.386719 6.628906-3.621093 11.136719-10.65625 11.136719-18.726562v-29.855469c8.289063 1.964844 16.835937 2.980469 25.511719 2.980469zm-51.410156 48.199219c2.824218 20.414062 17.554687 37.0625 36.9375 42.699218l-17.890626 17.890625c-.246093.214844-.476562.445313-.695312.695313l-2.734375 2.730468c-4.546875-4.035156-11.53125-10.761718-18.0625-19.171874-15.109375-19.472657-17.417969-34.539063-16.039063-44.644532 1.617188-.117187 3.246094-.199218 4.894532-.199218zm-79.097657 118.03125v-52.523438c0-29.074219 19.042969-53.769531 45.304688-62.304688-1.742188 40.410157 43.230469 75.320313 45.308593 76.910157 4.832032 3.695312 10.054688-.195313 13.195313-4.007813 9.789063 7.242188 15.582031 11.5 19.222656 14.003906v2.582032h-22.511719c-4.136718 0-7.488281 3.351562-7.488281 7.488281v17.851563zm153.03125-.382813h-45.023437v-9.984375h45.023437zm-7.253906-51.089844c-2.292969 1.601563-5.34375 3.734375-8.332031 5.8125-1.121094-2.722656-3.796875-4.640625-6.925782-4.640625-3.023437 0-5.625 1.796875-6.804687 4.378906-2.808594-2.042968-5.957031-4.347656-9.1875-6.722656l15.992187-15.992187 16.378907 16.378906c-.367188.257813-.734375.515625-1.121094.785156zm39.386719-21.566406c-6.746094 8.410156-14.050782 15.140625-18.742188 19.125l-21.421875-21.425781c19.375-5.640625 34.097657-22.285156 36.921875-42.695313h13.585938c1.945312 0 3.867187.105469 5.773437.269531 1.613281 10-.425781 25.15625-16.117187 44.726563zm0 0"/></svg>