<svg height="512" viewBox="0 0 64 64" width="512" xmlns="http://www.w3.org/2000/svg"><g id="_26-Prescription" data-name="26-Prescription"><path d="m55 50h-2v-38.586l-9.414-9.414h-31.586a1 1 0 0 0 -1 1v5h-2v-5a3 3 0 0 1 3-3h32a1 1 0 0 1 .707.293l10 10a1 1 0 0 1 .293.707z"/><path d="m50 64h-36a5.006 5.006 0 0 1 -5-5v-45h2v45a3 3 0 0 0 3 3h36a3 3 0 0 0 3-3v-7h2v7a5.006 5.006 0 0 1 -5 5z"/><path d="m9 10h2v2h-2z"/><path d="m54 12h-6a5.006 5.006 0 0 1 -5-5v-6a1 1 0 0 1 1.707-.707l10 10a1 1 0 0 1 -.707 1.707zm-9-8.586v3.586a3 3 0 0 0 3 3h3.586z"/><path d="m17 35h2v4h-2z"/><path d="m35 28h-6a1 1 0 0 1 -1-1v-3h-3a1 1 0 0 1 -1-1v-6a1 1 0 0 1 1-1h3v-3a1 1 0 0 1 1-1h6a1 1 0 0 1 1 1v3h3a1 1 0 0 1 1 1v6a1 1 0 0 1 -1 1h-3v3a1 1 0 0 1 -1 1zm-5-2h4v-3a1 1 0 0 1 1-1h3v-4h-3a1 1 0 0 1 -1-1v-3h-4v3a1 1 0 0 1 -1 1h-3v4h3a1 1 0 0 1 1 1z"/><path d="m48 52h-32a3 3 0 0 1 -3-3v-16a3 3 0 0 1 3-3h32a3 3 0 0 1 3 3v16a3 3 0 0 1 -3 3zm-32-20a1 1 0 0 0 -1 1v16a1 1 0 0 0 1 1h32a1 1 0 0 0 1-1v-16a1 1 0 0 0 -1-1z"/><path d="m22 39h-4a1 1 0 0 1 -1-1v-4a1 1 0 0 1 1-1h4a3 3 0 0 1 0 6zm-3-2h3a1 1 0 0 0 0-2h-3z"/><path d="m21 37.764h2v4.472h-2z" transform="matrix(.894 -.447 .447 .894 -15.566 14.062)"/><path d="m28 39h1.999v10h-1.999z" transform="matrix(.8 -.6 .6 .8 -20.6 26.2)"/><path d="m24 43h10v1.999h-10z" transform="matrix(.6 -.8 .8 .6 -23.601 40.81)"/><path d="m35 36h2v2h-2z"/><path d="m39 36h8v2h-8z"/><path d="m35 40h12v2h-12z"/><path d="m35 44h12v2h-12z"/><path d="m48 58h2v2h-2z"/><path d="m38 58h8v2h-8z"/><path d="m13 58h2v2h-2z"/><path d="m17 58h8v2h-8z"/><path d="m13 4h2v2h-2z"/><path d="m17 4h8v2h-8z"/><path d="m40 54h10v2h-10z"/><path d="m17 38h2v4h-2z"/></g></svg>