<svg height="512" viewBox="0 0 88 88" width="512" xmlns="http://www.w3.org/2000/svg"><g id="Internet_Marketing" data-name="Internet Marketing"><rect fill="#e6ecff" height="86" rx="5" width="50" x="11" y="1"/><path d="m55 5h-8a1.0008 1.0008 0 0 0 -.5547.168l-2.748 1.832h-15.3946l-2.748-1.832a1.0008 1.0008 0 0 0 -.5547-.168h-8a2.0027 2.0027 0 0 0 -2 2v74a2.0027 2.0027 0 0 0 2 2h38a2.0027 2.0027 0 0 0 2-2v-74a2.0027 2.0027 0 0 0 -2-2z" fill="#d0dbf7"/><path d="m42.8311 59.9746-2.8887-12.1357a.9992.9992 0 0 0 -.9014-.7657l-6.9873-.5a6.753 6.753 0 0 1 -1.0371-.1572 1 1 0 0 0 -1.1992 1.2061l3.4961 14.623a4.8923 4.8923 0 0 0 9.5176-2.27z" fill="#2946ed"/><path d="m52 24a1 1 0 0 0 -1 1 3.3087 3.3087 0 0 1 -3.0615 3.2881l-16.03 1.1445a9.5918 9.5918 0 0 0 0 19.1348l16.03 1.1445a3.3087 3.3087 0 0 1 3.0615 3.2881 1 1 0 0 0 2 0v-28a1 1 0 0 0 -1-1z" fill="#4294ff"/><path d="m60 32a1 1 0 0 0 -1 1v12a1 1 0 0 0 1 1 7 7 0 0 0 0-14z" fill="#4294ff"/><g fill="#376cfb"><path d="m76 40h-6a1 1 0 0 1 0-2h6a1 1 0 0 1 0 2z"/><path d="m70 35a1 1 0 0 1 -.707-1.707l4-4a1 1 0 0 1 1.414 1.414l-4 4a.9967.9967 0 0 1 -.707.293z"/><path d="m74 49a.9967.9967 0 0 1 -.707-.293l-4-4a1 1 0 0 1 1.414-1.414l4 4a1 1 0 0 1 -.707 1.707z"/><rect height="30" rx="1" width="10" x="51" y="24"/><path d="m37 29.07v19.86l-5.09-.36a9.5944 9.5944 0 0 1 0-19.14z"/></g></g></svg>