<svg height="512" viewBox="0 0 128 128" width="512" xmlns="http://www.w3.org/2000/svg"><g><path d="m95.173 79.487-3.98 42.207h-54.386l-3.98-42.207z" fill="#ef983b"/><path d="m28.947 56.321h70.105v23.166h-70.105z" fill="#ef983b"/><path d="m98.555 38.9h-4.577a8.47 8.47 0 0 0 -4.969-15.334h-7.223a17.794 17.794 0 0 0 -35.572 0h-7.223a8.47 8.47 0 0 0 -4.969 15.334h-4.577a8.709 8.709 0 1 0 0 17.418h27.918v6.726a4.83 4.83 0 0 0 4.83 4.831h1.107a4.829 4.829 0 0 1 4.83 4.83v7.175a4.831 4.831 0 0 0 4.83 4.83h.53a4.83 4.83 0 0 0 4.83-4.83v-4.545a4.83 4.83 0 0 1 4.831-4.83 4.831 4.831 0 0 0 4.83-4.831v-9.353h10.574a8.709 8.709 0 1 0 0-17.418z" fill="#8c3f07"/><g fill="#422002"><path d="m93.678 95.343a1.756 1.756 0 0 0 -1.907 1.578l-.421 4.479a1.749 1.749 0 0 0 1.578 1.906 1.537 1.537 0 0 0 .166.008 1.75 1.75 0 0 0 1.74-1.586l.422-4.474a1.75 1.75 0 0 0 -1.578-1.911z"/><path d="m44.431 96.5a1.75 1.75 0 0 0 1.578-1.906l-.425-4.507a1.75 1.75 0 0 0 -3.484.328l.424 4.507a1.75 1.75 0 0 0 1.741 1.578z"/><path d="m46.09 115.86c.055 0 .11 0 .166-.007a1.75 1.75 0 0 0 1.578-1.907l-1.173-12.434a1.75 1.75 0 1 0 -3.484.329l1.173 12.434a1.749 1.749 0 0 0 1.74 1.585z"/><path d="m109.015 47.612a10.471 10.471 0 0 0 -10.459-10.459h-.7a10.211 10.211 0 0 0 -8.848-15.334h-5.6a19.546 19.546 0 0 0 -38.824 0h-5.6a10.211 10.211 0 0 0 -8.848 15.334h-.7a10.456 10.456 0 0 0 -2.236 20.669v5.552a1.75 1.75 0 1 0 3.5 0v-5.3h24.913v4.976a6.587 6.587 0 0 0 6.58 6.58h1.107a3.084 3.084 0 0 1 3.08 3.081v5.029h-35.68v-6.689a1.75 1.75 0 0 0 -3.5 0v8.436a1.75 1.75 0 0 0 1.75 1.75h2.287l3.83 40.62a1.75 1.75 0 0 0 1.743 1.586h54.383a1.75 1.75 0 0 0 1.743-1.585l1.126-11.939a1.75 1.75 0 0 0 -3.485-.329l-.977 10.353h-51.2l-3.65-38.706h31.772a6.592 6.592 0 0 0 6.439 5.223h.529a6.591 6.591 0 0 0 6.438-5.223h13.322l-.667 7.073a1.749 1.749 0 0 0 1.578 1.906 1.55 1.55 0 0 0 .166.008 1.749 1.749 0 0 0 1.74-1.585l.7-7.4h2.287a1.75 1.75 0 0 0 1.75-1.75v-21.667a10.473 10.473 0 0 0 8.211-10.21zm-13.842 30.125h-15.103v-2.4a3.084 3.084 0 0 1 3.08-3.081 6.587 6.587 0 0 0 6.58-6.58v-7.6h7.57v19.661zm3.383-23.166h-10.576a1.751 1.751 0 0 0 -1.75 1.75v9.353a3.083 3.083 0 0 1 -3.08 3.08 6.589 6.589 0 0 0 -6.58 6.581v4.544a3.084 3.084 0 0 1 -3.08 3.081h-.529a3.084 3.084 0 0 1 -3.081-3.081v-7.171a6.589 6.589 0 0 0 -6.58-6.581h-1.107a3.083 3.083 0 0 1 -3.08-3.08v-6.726a1.75 1.75 0 0 0 -1.75-1.75h-27.919a6.959 6.959 0 0 1 0-13.918h4.578a1.75 1.75 0 0 0 1.029-3.166 6.72 6.72 0 0 1 3.94-12.168h7.223a1.75 1.75 0 0 0 1.749-1.7 16.044 16.044 0 0 1 32.074 0 1.75 1.75 0 0 0 1.749 1.7h7.223a6.72 6.72 0 0 1 3.94 12.168 1.75 1.75 0 0 0 1.029 3.166h4.578a6.959 6.959 0 1 1 0 13.918z"/><path d="m71.486 23.942a1.75 1.75 0 0 0 2.475-2.474l-3.053-3.053a1.75 1.75 0 1 0 -2.474 2.475z"/><path d="m55.621 28.835a1.751 1.751 0 0 0 -2.336.82l-1.409 2.936a1.75 1.75 0 1 0 3.156 1.509l1.409-2.935a1.75 1.75 0 0 0 -.82-2.33z"/><path d="m77.541 32.772a1.75 1.75 0 0 0 -2.455.311l-2.186 2.817a1.75 1.75 0 1 0 2.766 2.144l2.184-2.818a1.75 1.75 0 0 0 -.309-2.454z"/><path d="m41.209 43.143-3.287 1.878a1.75 1.75 0 1 0 1.736 3.04l3.287-1.879a1.75 1.75 0 1 0 -1.736-3.039z"/><path d="m70.837 51.721a1.75 1.75 0 1 0 -2.432 2.517l3.406 3.288a1.75 1.75 0 0 0 2.431-2.518z"/><path d="m93.064 46.99-2.664-1.879a1.75 1.75 0 0 0 -2.019 2.86l2.66 1.878a1.75 1.75 0 0 0 2.019-2.859z"/></g></g></svg>