<svg id="Computer_Interface" enable-background="new 0 0 128 128" height="512" viewBox="0 0 128 128" width="512" xmlns="http://www.w3.org/2000/svg"><g><path d="m64 111.5c-13.7 0-24.8-4.3-24.8-9.5v-73.7h49.6v73.7c0 3.4-4.7 6.4-11.8 8.1-1.176.277-2.42.527-3.728.737-3.396.545-6.52.707-9.272.663z" fill="#d9dadb"/><ellipse cx="64" cy="28.3" fill="#e5e7ea" rx="24.8" ry="9.5"/><path d="m64 12.2c-7.5 0-13.6 2-13.6 4.6v8.2c0 1.3 1.6 2.5 4.2 3.3 2.4.8 5.7 1.3 9.4 1.3s6.9-.5 9.4-1.3c2.6-.8 4.2-2 4.2-3.3v-8.2c0-2.6-6.1-4.6-13.6-4.6z" fill="#d9dadb"/><path d="m77.6 16.8c0 2.5-6.1 4.6-13.6 4.6s-13.6-2-13.6-4.6c0-2.5 6.1-4.6 13.6-4.6s13.6 2 13.6 4.6z" fill="#e5e7ea"/><g><path d="m82.2 80.5c-12.1 5.4-24.2 5.4-36.3 0-1.8-.8-3.2-3.1-3.2-5v-11c0-.3 0-.5.1-.7.4-1.2 1.9-1.7 3.1-1.2 12.1 5.3 24.2 5.3 36.4 0 1.2-.5 2.7 0 3.1 1.2.1.2.1.5.1.7v10.9c-.1 2-1.5 4.3-3.3 5.1z" fill="#5ac0a6"/><path d="m85.383 63.635c-.3-1-1.538-1.385-2.558-1.188.1.2.276.453.376.753.1.4.2.9.2 1.4v10.9c0 2-1.025 4.211-2.625 5.611.447-.186.947-.376 1.347-.576 1.8-.8 3.372-3.139 3.372-5.039l.005-10.996c0-.619-.062-.67-.117-.865z" fill="#56b297"/><path d="m44.6 75.4v-10.9c0-.5.15-.792.25-1.292.1-.3.197-.48.397-.78-1.002-.125-2.147.272-2.547 1.272-.1.2-.1.5-.1.7v10.9c0 2 1.424 4.365 3.224 5.165.4.2.758.334 1.238.537-1.401-1.3-2.462-3.602-2.462-5.602z" fill="#62ccae"/></g><path d="m82.2 103.1c-12.1 5.4-24.2 5.4-36.3 0-1.8-.8-3.2-3.1-3.2-5v-11c0-.3 0-.5.1-.7.4-1.2 1.9-1.7 3.1-1.2 12.1 5.3 24.2 5.3 36.4 0 1.2-.5 2.7 0 3.1 1.2.1.2.1.5.1.7v10.9c-.1 2-1.5 4.3-3.3 5.1z" fill="#5ac0a6"/><path d="m44.6 98.1.05-10.776c0-.5.1-.9.2-1.4.1-.3.231-.591.431-.891-1-.1-2.181.267-2.581 1.267-.1.2-.1.5-.1.7v10.9c0 2 1.5 4.4 3.3 5.2.4.2.998.4 1.398.6-1.4-1.3-2.698-3.6-2.698-5.6z" fill="#62ccae"/><path d="m85.5 87.1v10.9c-.1 2-1.5 4.3-3.3 5.1-3.09 1.38-6.18 2.4-9.27 3.08-.7-1.6-1.13-3.58-1.13-5.48 0-7.01 5.04-12.77 11.53-14.27-.04-.22-.08-.44-.13-.63-.07-.2-.24-.51-.37-.75 1.08-.19 2.23.32 2.57 1.35.1.2.1.5.1.7z" fill="#56b297"/><circle cx="86.5" cy="100.6" fill="#fdcc58" r="13.4"/><path d="m87.5 99.8v-9.2c0-.6-.4-1-1-1-.6 0-1 .4-1 1v7.9 2.2c0 .3.1.6.3.7l1.2 1.1 6.3 5.6c.4.4 1 .3 1.4-.1.4-.4.3-1-.1-1.4l-6.8-6.1c-.2-.2-.3-.5-.3-.7z" fill="#434953"/><g><path d="m82.2 58.205c-12.1 5.4-24.2 5.4-36.3 0-1.8-.8-3.2-3.1-3.2-5v-11c0-.3 0-.5.1-.7.4-1.2 1.9-1.7 3.1-1.2 12.1 5.3 24.2 5.3 36.4 0 1.2-.5 2.7 0 3.1 1.2.1.2.1.5.1.7v10.9c-.1 2-1.5 4.3-3.3 5.1z" fill="#5ac0a6"/><path d="m85.383 41.34c-.3-1-1.538-1.385-2.558-1.188.1.2.276.453.376.753.1.4.2.9.2 1.4v10.9c0 2-1.025 4.211-2.625 5.611.447-.186.947-.376 1.347-.576 1.8-.8 3.372-3.139 3.372-5.039l.005-10.996c0-.619-.062-.67-.117-.865z" fill="#56b297"/><path d="m44.6 53.105v-10.9c0-.5.15-.792.25-1.292.1-.3.197-.48.397-.78-1.002-.124-2.147.273-2.547 1.273-.1.2-.1.5-.1.7v10.9c0 2 1.424 4.365 3.224 5.165.4.2.758.334 1.238.537-1.401-1.301-2.462-3.603-2.462-5.603z" fill="#62ccae"/></g></g></svg>