<svg height="512" viewBox="0 0 88 88" width="512" xmlns="http://www.w3.org/2000/svg"><g id="Phone_Bill" data-name="Phone, Bill"><rect fill="#e6ecff" height="86" rx="5" width="50" x="1" y="1"/><path d="m21 64h30v3h-30z" fill="#b7c6e2"/><path d="m21 21h30v3h-30z" fill="#b7c6e2"/><path d="m45 5h-8a1.0008 1.0008 0 0 0 -.5547.168l-2.748 1.832h-15.3946l-2.748-1.832a1.0008 1.0008 0 0 0 -.5547-.168h-8a2.002 2.002 0 0 0 -2 2v74a2.002 2.002 0 0 0 2 2h38a2.002 2.002 0 0 0 2-2v-74a2.002 2.002 0 0 0 -2-2z" fill="#d0dbf7"/><path d="m21 64h26v3h-26z" fill="#8ea6ce"/><path d="m21 21h26v3h-26z" fill="#8ea6ce"/><path d="m30 62h-8a1 1 0 0 0 -1 1v4a5 5 0 0 0 10 0v-4a1 1 0 0 0 -1-1z" fill="#becced"/><path d="m26 16a5.0059 5.0059 0 0 0 -5 5v4a1 1 0 0 0 1 1h8a1 1 0 0 0 1-1v-4a5.0059 5.0059 0 0 0 -5-5z" fill="#becced"/><path d="m87 43.9912a1 1 0 0 0 -.47-.8481l-6.2422-3.899 6.2422-3.9a1 1 0 0 0 0-1.6963l-6.2427-3.9 6.2427-3.9a1 1 0 0 0 -.53-1.8478h-65v40h65a1 1 0 0 0 .53-1.8477l-6.2451-3.9072 6.2451-3.9072a1 1 0 0 0 0-1.6958l-6.2437-3.9028 6.2432-3.9a1 1 0 0 0 .4705-.8481z" fill="#e6ecff"/><g fill="#4294ff"><path d="m40 40a1 1 0 0 0 1-1v-.1274a5.8791 5.8791 0 0 0 -5.8726-5.8726h-.1274v-1a1 1 0 0 0 -2 0v1h-.1274a5.8725 5.8725 0 0 0 -.9659 11.665l1.0933.1822v8.1528h-.1274a3.8771 3.8771 0 0 1 -3.8726-3.8726v-.1274a1 1 0 0 0 -2 0v.1274a5.8791 5.8791 0 0 0 5.8726 5.8726h.1274v1a1 1 0 0 0 2 0v-1h.1274a5.8725 5.8725 0 0 0 .9659-11.665l-1.0933-.1822v-8.1528h.1274a3.8771 3.8771 0 0 1 3.8726 3.8726v.1274a1 1 0 0 0 1 1zm-4.2358 5.3076a3.8726 3.8726 0 0 1 -.6368 7.6924h-.1274v-7.82zm-2.7642-2.4876-.7642-.1273a3.8726 3.8726 0 0 1 .6368-7.6927h.1274z"/><path d="m72 36h-26a1 1 0 0 1 0-2h26a1 1 0 0 1 0 2z"/><path d="m66 42h-20a1 1 0 0 1 0-2h20a1 1 0 0 1 0 2z"/><path d="m66 48h-20a1 1 0 0 1 0-2h20a1 1 0 0 1 0 2z"/><path d="m66 54h-20a1 1 0 0 1 0-2h20a1 1 0 0 1 0 2z"/><path d="m72 42h-2a1 1 0 0 1 0-2h2a1 1 0 0 1 0 2z"/><path d="m72 48h-2a1 1 0 0 1 0-2h2a1 1 0 0 1 0 2z"/><path d="m72 54h-2a1 1 0 0 1 0-2h2a1 1 0 0 1 0 2z"/></g><path d="m21 64h10v3h-10z" fill="#7e97bc"/><path d="m21 21h10v3h-10z" fill="#7e97bc"/></g></svg>