<svg height="512" viewBox="0 0 64 64" width="512" xmlns="http://www.w3.org/2000/svg"><g id="_27-Sugar_Blood_Level" data-name="27-Sugar Blood Level"><path d="m18 54h-8a3 3 0 0 1 -3-3v-48a3 3 0 0 1 3-3h44a3 3 0 0 1 3 3v2h-2v-2a1 1 0 0 0 -1-1h-44a1 1 0 0 0 -1 1v48a1 1 0 0 0 1 1h8z"/><path d="m55 7h2v2h-2z"/><path d="m54 54h-8v-2h8a1 1 0 0 0 1-1v-40h2v40a3 3 0 0 1 -3 3z"/><path d="m52 36h-40a1 1 0 0 1 -1-1v-30a1 1 0 0 1 1-1h40a1 1 0 0 1 1 1v30a1 1 0 0 1 -1 1zm-39-2h38v-28h-38z"/><path d="m27 32a6.006 6.006 0 0 1 -6-6c0-3.135 4.806-7.3 5.354-7.763a1 1 0 0 1 1.292 0c.548.463 5.354 4.628 5.354 7.763a6.006 6.006 0 0 1 -6 6zm0-11.664c-1.76 1.624-4 4.183-4 5.664a4 4 0 0 0 8 0c0-1.484-2.24-4.042-4-5.664z"/><path d="m37 22a6.006 6.006 0 0 1 -6-6c0-3.135 4.806-7.3 5.354-7.763a1 1 0 0 1 1.292 0c.548.463 5.354 4.628 5.354 7.763a6.006 6.006 0 0 1 -6 6zm0-11.664c-1.76 1.624-4 4.183-4 5.664a4 4 0 0 0 8 0c0-1.484-2.24-4.042-4-5.664z"/><path d="m43 64h-22a1 1 0 0 1 -1-1v-24a1 1 0 0 1 1-1h22a1 1 0 0 1 1 1v24a1 1 0 0 1 -1 1zm-21-2h20v-22h-20z"/><path d="m19 44h-2a3 3 0 0 1 0-6h4v2h-4a1 1 0 0 0 0 2h2z"/><path d="m47 44h-2v-2h2a1 1 0 0 0 0-2h-4v-2h4a3 3 0 0 1 0 6z"/><path d="m24 58h2v2h-2z"/><path d="m28 58h12v2h-12z"/><path d="m24 54h16v2h-16z"/><path d="m24 42h16v2h-16z"/><path d="m17 13h-2v-4a1 1 0 0 1 1-1h4v2h-3z"/><path d="m15 15h2v2h-2z"/></g></svg>