<svg height="512" viewBox="0 0 128 128" width="512" xmlns="http://www.w3.org/2000/svg"><g><path d="m112.419 15.581a31.665 31.665 0 0 0 -44.781 0l-61.332 68.234 37.879 37.879 68.234-61.332a31.665 31.665 0 0 0 0-44.781z" fill="#ffde3e"/><path d="m110.11 41.08a8.95 8.95 0 0 1 -2.56 1.78 8.956 8.956 0 0 1 -.27 12.36c-.22.21-.44.42-.67.61-5.82-3.82-15.59-8.45-27.39-7.05 1.4-11.8-3.23-21.57-7.05-27.39.19-.23.4-.45.61-.67a8.956 8.956 0 0 1 12.36-.27 8.944 8.944 0 0 1 16.88 5.53 8.949 8.949 0 0 1 8.09 15.1z" fill="#64bc0f"/><path d="m99.62 37.66a9.245 9.245 0 0 1 -2.72 6.56l-5.2 5.2a37.548 37.548 0 0 0 -12.48-.64 37.548 37.548 0 0 0 -.64-12.48l5.2-5.2a9.28 9.28 0 0 1 15.84 6.56z" fill="#ef3829"/><g fill="#422002"><path d="m66.04 99.7-3.372 3.031a1.75 1.75 0 0 0 2.34 2.6l3.372-3.03a1.75 1.75 0 0 0 -2.34-2.6z"/><path d="m113.656 14.344a33.468 33.468 0 0 0 -47.21-.038c-.015.014-.031.024-.046.038s-.014.018-.022.027l-.042.04-13.512 15.032a1.75 1.75 0 1 0 2.6 2.34l12.209-13.583a45.335 45.335 0 0 1 8.7 16.333 36 36 0 0 1 1.183 13.872 1.876 1.876 0 0 0 -.04.3c-1.124 9.268-5.99 18.27-14.608 26.888-11.91 11.91-25.012 19.755-38.952 23.353l-15.2-15.2 41.684-46.374a1.75 1.75 0 1 0 -2.6-2.34l-42.795 47.613a1.749 1.749 0 0 0 .064 2.407l37.879 37.879a1.751 1.751 0 0 0 2.407.064l13.479-12.115a1.75 1.75 0 0 0 -2.34-2.6l-12.244 11.002-17.475-17.475c13.811-3.968 26.772-11.94 38.569-23.737 9.71-9.71 14.069-19.157 15.375-27.676a35.435 35.435 0 0 1 10.194.67 1.748 1.748 0 0 0 .725.164h.006a45.439 45.439 0 0 1 18.149 9.143l-37.265 33.493a1.75 1.75 0 0 0 2.34 2.6l38.788-34.864a33.452 33.452 0 0 0 0-47.256zm-23.628-6.287a29.919 29.919 0 0 1 22.306 49.858c-.728-.629-1.74-1.453-3.013-2.374a10.666 10.666 0 0 0 .789-12.163 10.379 10.379 0 0 0 1.235-1.056 10.7 10.7 0 0 0 -7.4-18.265 10.7 10.7 0 0 0 -18.265-7.4 10.379 10.379 0 0 0 -1.056 1.235 10.669 10.669 0 0 0 -12.213.828c-.906-1.279-1.718-2.3-2.335-3.031a29.694 29.694 0 0 1 19.952-7.632zm-15.681 13.6a7.174 7.174 0 0 1 9.608.08 1.75 1.75 0 0 0 2.767-.554 7.2 7.2 0 0 1 13.582 4.45 1.748 1.748 0 0 0 2.058 2.058 7.194 7.194 0 0 1 4.45 13.582 1.75 1.75 0 0 0 -.554 2.767 7.174 7.174 0 0 1 .14 9.541 47 47 0 0 0 -11.283-5.111l3.018-3.018a11.024 11.024 0 0 0 -15.59-15.59l-3.108 3.109a48.437 48.437 0 0 0 -5.088-11.309zm6.753 25.196a39.219 39.219 0 0 0 -.682-9.908l4.6-4.6a7.524 7.524 0 0 1 10.64 10.64l-4.512 4.512a39.2 39.2 0 0 0 -10.046-.644z"/><path d="m61.226 54.52-.949 3.336a1.753 1.753 0 0 0 1.2 2.163 1.82 1.82 0 0 0 .48.066 1.751 1.751 0 0 0 1.683-1.272l.948-3.336a1.75 1.75 0 1 0 -3.367-.957z"/><path d="m44.715 76.107-3.9-.517a1.75 1.75 0 0 0 -.46 3.469l3.9.517a1.665 1.665 0 0 0 .232.016 1.75 1.75 0 0 0 .229-3.485z"/><path d="m66.345 33.508a1.749 1.749 0 0 0 -2.4-.62l-4.387 2.583a1.75 1.75 0 1 0 1.776 3.015l4.391-2.586a1.749 1.749 0 0 0 .62-2.392z"/><path d="m46.6 60.739-.96-4.452a1.75 1.75 0 1 0 -3.422.738l.96 4.453a1.75 1.75 0 0 0 3.422-.739z"/><path d="m23.447 78.74-3.833 1.353a1.75 1.75 0 0 0 1.164 3.3l3.833-1.353a1.75 1.75 0 1 0 -1.164-3.3z"/><path d="m88.972 67.252c.047 0 .093 0 .14-.006a1.749 1.749 0 0 0 1.606-1.883l-.3-3.785a1.749 1.749 0 0 0 -3.488.277l.3 3.786a1.75 1.75 0 0 0 1.742 1.611z"/><path d="m42.638 103.208a1.752 1.752 0 0 0 -.978 2.274l1.23 3.083a1.75 1.75 0 1 0 3.252-1.3l-1.23-3.083a1.753 1.753 0 0 0 -2.274-.974z"/><path d="m68.339 83.786-4.134 2.09a1.75 1.75 0 1 0 1.58 3.124l4.134-2.09a1.75 1.75 0 0 0 -1.58-3.123z"/></g></g></svg>