<svg height="512pt" viewBox="-109 0 512 512" width="512pt" xmlns="http://www.w3.org/2000/svg"><path d="m211.714844 363.800781h-18.191406c-3.511719 0-6.367188-2.859375-6.367188-6.371093v-34.589844c3.152344-1.246094 6.246094-2.636719 9.273438-4.175782 11.4375 0 22.605468-1.222656 28.109374-13h22.6875c14.835938 0 26.90625-12.070312 26.90625-26.90625v-34.90625c11.375-6.269531 19.097657-18.375 19.097657-32.25 0-20.167968-16.3125-36.589843-36.433594-36.789062v-29.074219c10.949219-.6875 19.652344-9.785156 19.652344-20.90625 0-10.171875-7.285157-18.671875-16.910157-20.570312-2.445312-18.621094-10.074218-50.65625-33.832031-74.507813-19.671875-19.742187-46.277343-29.753906-79.082031-29.753906-28.816406 0-52.953125 8.039062-71.738281 23.894531-7.386719 6.230469 2.277343 17.683594 9.660156 11.449219 4.097656-3.460938 8.523437-6.476562 13.253906-9.0625-9.992187 13.898438-17.242187 33.023438-21.597656 57.070312-1.359375 7.5-2.25 14.511719-2.832031 20.507813h-23.890625c1.980469-11.855469 5.988281-27.5 14.089843-42.347656 4.628907-8.480469-8.519531-15.660157-13.148437-7.179688-9.667969 17.71875-14.097656 36.15625-16.136719 49.554688-11.335937.261719-20.480468 9.546875-20.480468 20.945312 0 11.5625 9.40625 20.972657 20.972656 20.972657h1.65625v29.007812c-20.121094.199219-36.433594 16.621094-36.433594 36.789062 0 20.292969 16.507812 36.800782 36.804688 36.800782h3.253906c8.949218 33.980468 33.765625 61.589844 66.015625 74.394531v34.632813c0 3.511718-2.859375 6.371093-6.367188 6.371093h-18.191406c-44.445313 0-80.605469 36.152344-80.605469 80.59375v60.117188c0 4.136719 3.355469 7.488281 7.492188 7.488281h54.335937c9.644531 0 9.644531-14.980469 0-14.980469h-14.480469v-19.164062h90.738282l.113281 19.164062h-35.425781c-9.628906 0-9.628906 14.980469 0 14.980469h181.148437c4.136719 0 7.488281-3.351562 7.488281-7.488281v-60.117188c0-44.441406-36.160156-80.59375-80.605468-80.59375zm33.277344 24.074219v75h-91.105469l-.230469-39.9375c22.929688-3.125 41.140625-21.261719 44.367188-44.160156h13.691406c12.140625 0 23.515625 3.328125 33.277344 9.097656zm-57.84375-84.1875c-4.140626 0-7.511719-3.371094-7.511719-7.515625 0-4.140625 3.371093-7.511719 7.511719-7.511719h17.007812c4.140625 0 7.511719 3.371094 7.511719 7.511719 0 4.144531-3.371094 7.515625-7.511719 7.515625zm-158.363282-178.855469c0-3.304687 2.6875-5.992187 5.992188-5.992187h220.699218c3.304688 0 5.992188 2.6875 5.992188 5.992187 0 3.304688-2.6875 5.992188-5.992188 5.992188h-220.699218c-3.304688 0-5.992188-2.6875-5.992188-5.992188zm146.109375-20.972656c-.296875-10.773437-.949219-25.878906-2.378906-41.144531-1.816406-19.421875-4.347656-33.914063-7.8125-44.054688 4.757813 2.136719 9.125 5.195313 13.15625 9.230469 19.316406 19.339844 25.378906 55.386719 27.285156 75.96875zm-28.21875-88.378906c2.011719 2.320312 7.882813 12.398437 11.300781 52.859375 1.109376 13.109375 1.652344 25.984375 1.925782 35.519531h-26.449219c.296875-9.410156.839844-21.230469 1.816406-33.25 3.425781-42.160156 9.375-52.699219 11.40625-55.128906zm81.839844 130.324219h13.300781v62.628906l-.679687-.679688c-8.140625-8.140625-12.621094-18.964844-12.621094-30.476562zm27.910156 87.617187h-.398437c.507812-4.304687.769531-8.664063.769531-13.066406v-30.566407c11.863281.199219 21.453125 9.902344 21.453125 21.8125 0 12.03125-9.789062 21.820313-21.824219 21.820313zm-12.136719-129.5625h-24.0625c-1.683593-19.726563-7.082031-53.984375-24.289062-77.726563 7.050781 3.765626 13.429688 8.460938 19.078125 14.117188 19.671875 19.691406 26.734375 46.796875 29.273437 63.609375zm-128.132812-76.1875c3.871094-3.878906 8.042969-6.839844 12.5625-8.929687-3.558594 10.5-6.140625 25.644531-7.988281 46.070312-1.265625 14.046875-1.921875 28.171875-2.261719 39.046875h-30.019531c2.277343-22.066406 8.832031-57.289063 27.707031-76.1875zm-51.421875 118.132813v31.472656c0 11.511718-4.480469 22.335937-12.621094 30.476562l-.699219.699219v-62.648437zm-49.753906 65.796874c0-11.90625 9.589843-21.613281 21.453125-21.8125v30.566407c0 4.421875.269531 8.78125.777344 13.066406h-.410157c-12.03125 0-21.820312-9.789063-21.820312-21.820313zm36.847656 17.617188 10.875-10.875c10.972656-10.96875 17.011719-25.554688 17.011719-41.066406v-31.472656h133.820312v31.472656c0 15.511718 6.042969 30.097656 17.011719 41.070312l10.859375 10.859375c-1.007812 11.050781-3.910156 21.710938-8.675781 31.789063-4.105469 8.683594 9.402343 15.152344 13.542969 6.40625 2.910156-6.15625 5.21875-12.503906 6.925781-19 1.972656.027344 3.992187.03125 5.957031-.113282v30.464844c0 6.578125-5.351562 11.929688-11.929688 11.929688h-21.257812c-2.457031-9.757813-11.300781-17.003906-21.8125-17.003906h-17.003906c-12.402344 0-22.492188 10.089843-22.492188 22.492187 0 6.308594 2.613282 12.015625 6.808594 16.101563-8.007812 2.152343-16.347656 3.269531-24.851562 3.269531-49.507813 0-90.300782-37.976563-94.789063-86.324219zm94.785156 101.304688c8.714844 0 17.28125-1.015626 25.5625-2.976563v29.886719c0 8.050781 4.484375 15.074218 11.085938 18.707031-2.289063 18.191406-17.847657 32.308594-36.648438 32.308594-18.796875 0-34.355469-14.117188-36.648437-32.308594 6.601562-3.632813 11.085937-10.65625 11.085937-18.710937v-29.90625c8.207031 1.957031 16.765625 3 25.5625 3zm-130.722656 166.496093v-52.625c0-17.128906 6.601563-32.734375 17.386719-44.433593v97.058593zm32.367187-34.144531v-75.011719c9.761719-5.761719 21.125-9.085937 33.253907-9.085937h13.695312c3.183594 22.601562 20.960938 40.578125 43.46875 44.042968l.234375 40.054688zm105.71875 14.980469h91.015626v19.164062h-90.90625zm123.363282 19.164062h-17.367188v-97.035156c10.773438 11.695313 17.367188 27.292969 17.367188 44.410156zm0 0"/></svg>