<svg id="Computer_Interface" enable-background="new 0 0 128 128" viewBox="0 0 128 128" xmlns="http://www.w3.org/2000/svg"><g><path d="m115.87 64c0 7.49-2.06 13.56-4.59 13.56h-3.55c-1.7 6.79-4.64 11.27-7.99 11.27h-73.71c-5.27 0-9.54-11.11-9.54-24.83s4.27-24.83 9.54-24.83h73.71c3.35 0 6.29 4.48 7.99 11.27h3.55c2.53 0 4.59 6.07 4.59 13.56z" fill="#d9dadb"/><ellipse cx="111.28" cy="64" fill="#e5e7ea" rx="4.59" ry="13.56"/><path d="m103.05 77.56h4.68c-1.7 6.79-4.64 11.27-7.99 11.27-5.27 0-9.54-11.11-9.54-24.83s4.27-24.83 9.54-24.83c3.35 0 6.29 4.48 7.99 11.27h-4.68c-2.54.02-4.58 6.09-4.58 13.56s2.04 13.54 4.58 13.56z" fill="#e5e7ea"/><path d="m111.28 77.56h-8.23c-2.54-.02-4.58-6.09-4.58-13.56s2.04-13.54 4.58-13.56h8.23c-2.54 0-4.59 6.07-4.59 13.56s2.05 13.56 4.59 13.56z" fill="#d9dadb"/><path d="m88.15 83.53c-.09 1.01-.96 1.8-1.98 1.8-8.62 0-45.08.1-54.69 0-2.58-.03-4.22-2.21-5.32-4.32-2.66-5.11-3.33-11.33-3.33-17.01 0-.33.01-.67.02-1v.19c.05-3.42.39-6.86 1.19-10.2.62-2.65 1.51-5.37 3.09-7.61.99-1.4 2.32-2.64 4.11-2.71.35-.01.71 0 1.06 0h51.15c1.32 0 3.55-.39 4.39.9.12.18.19.35.24.52l.04.19c.14.91-.5 1.77-.94 2.61-.88 1.69-1.5 3.5-1.98 5.34-.91 3.45-1.29 7.02-1.39 10.59-.09 3.59.18 7.25.89 10.78.36 1.8.83 3.58 1.49 5.29.31.81.66 1.6 1.07 2.37.4.73.97 1.39.89 2.27z" fill="#5ac0a6"/><path d="m59.75 76.81 3.76-12.13-9.13 2.32 12.75-16.5-2.75 11.13 8.13-1.32z" fill="#fdcc58"/><g><g><path d="m51.79 64.66h-12.35c-.55 0-1-.45-1-1s.45-1 1-1h12.36c.55 0 1 .45 1 1s-.45 1-1.01 1z" fill="#4c545e"/></g></g><g><g><path d="m54.79 58.72h-10.35c-.55 0-1-.45-1-1s.45-1 1-1h10.36c.55 0 1 .45 1 1s-.45 1-1.01 1z" fill="#4c545e"/></g></g><g><g><path d="m57.79 52.78h-6.36c-.55 0-1-.45-1-1s.45-1 1-1h6.36c.55 0 1 .45 1 1s-.44 1-1 1z" fill="#4c545e"/></g></g><g><g><path d="m53.97 76.53h-6.36c-.55 0-1-.45-1-1s.45-1 1-1h6.36c.55 0 1 .45 1 1s-.44 1-1 1z" fill="#4c545e"/></g></g><g><g><path d="m50.79 70.59h-8.36c-.55 0-1-.45-1-1s.45-1 1-1h8.36c.55 0 1 .45 1 1s-.44 1-1 1z" fill="#4c545e"/></g></g><path d="m22.83 64c0-5.37.64-11.08 2.86-16.03 1.04-2.31 2.76-5.22 5.61-5.3 3.22-.09 51.21 0 53.12 0 1.04 0 2.4-.21 3.19.61.59.62.74 1.64.28 2.38-.69-1.21-2.15-.99-3.32-.99-1.8 0-42.85 0-52.84 0-2.17 0-3.68 1.28-4.84 3.07-3.02 4.63-3.81 10.81-4.02 16.21-.01-.32-.02-.63-.03-.95 0 .33-.01.67-.01 1z" fill="#62ccae"/><path d="m86.17 85.33c-8.62 0-45.08.1-54.69 0-2.58-.03-4.22-2.21-5.32-4.32-2.66-5.11-3.33-11.33-3.33-17.01 0 .33.01.67.02 1 .01-.32.02-.63.03-.95.19 5.06.94 10.5 3.33 15.04 1.07 2.03 2.68 4.19 5.17 4.24 3.22.07 50.56 0 52.73 0 1.25 0 3.05.3 3.78-.99.81 1.3-.25 2.99-1.72 2.99z" fill="#56b297"/></g></svg>