<svg height="511pt" viewBox="-85 0 511 511.99734" width="511pt" xmlns="http://www.w3.org/2000/svg"><path d="m237.53125 168.042969h-40.089844c-9.980468 0-18.101562 8.121093-18.101562 18.105469v5.066406c-5.480469-1.597656-10.917969-1.300782-15.644532-.132813v-4.933593c0-9.984376-8.121093-18.105469-18.101562-18.105469h-40.089844c-9.980468 0-18.101562 8.121093-18.101562 18.105469v29.871093c0 9.984375 8.121094 18.105469 18.101562 18.105469h40.089844c9.980469 0 18.101562-8.121094 18.101562-18.105469v-9.140625c3.433594-1.601562 9.765626-3.425781 15.644532.921875v8.21875c0 9.984375 8.121094 18.105469 18.101562 18.105469h40.089844c9.980469 0 18.101562-8.121094 18.101562-18.105469v-29.871093c0-9.984376-8.121093-18.105469-18.101562-18.105469zm-88.835938 47.976562c0 1.710938-1.390624 3.101563-3.101562 3.101563h-40.089844c-1.707031 0-3.097656-1.390625-3.097656-3.101563v-29.871093c0-1.710938 1.390625-3.101563 3.097656-3.101563h40.089844c1.710938 0 3.101562 1.390625 3.101562 3.101563zm91.9375 0c0 1.710938-1.390624 3.101563-3.101562 3.101563h-40.089844c-1.710937 0-3.101562-1.390625-3.101562-3.101563v-29.871093c0-1.710938 1.390625-3.101563 3.101562-3.101563h40.089844c1.710938 0 3.101562 1.390625 3.101562 3.101563zm0 0"/><path d="m333.035156 201.082031c4.144532 0 7.5-3.355469 7.5-7.5v-41.503906c0-57.5-30.578125-74.808594-41.152344-79.074219-16.367187-31.707031-40.859374-57.089844-75.957031-66.78125-37.253906-10.289062-80.613281-7.15625-117.199219 4.539063-9.214843 2.949219-4.644531 17.238281 4.570313 14.289062 36.722656-11.742187 82.859375-15.207031 119.421875-.824219 25.804688 10.152344 43.132812 31.285157 55.703125 55.425782-12.082031 35.722656-35.519531 64.015625-76.550781 57.335937-37.164063-6.050781-52.347656-51.738281-94.3125-46.355469-43.28125 5.550782-53.878906 46.515626-53.757813 84.085938-20.128906.207031-36.441406 16.636719-36.441406 36.808594 0 20.300781 16.519531 36.816406 36.820313 36.816406h3.246093c8.957031 33.984375 33.773438 61.597656 66.023438 74.40625v34.652344c0 3.507812-2.851563 6.359375-6.359375 6.359375-35.335938 0-68.121094 6.691406-87.648438 39.746093-11.996094-1.046874-21.441406-11.140624-21.441406-23.40625v-211.019531c0-58.976562 21.429688-103.519531 61.976562-128.816406 8.210938-5.121094.265626-17.851563-7.941406-12.726563-45.164062 28.175782-69.035156 77.121094-69.035156 141.539063v211.023437c0 18.257813 12.777344 33.578126 29.855469 37.511719-2.957031 8.382813-4.585938 17.386719-4.585938 26.765625v9.230469c0 9.675781 15.003907 9.675781 15.003907 0v-9.230469c0-32.828125 24.234374-60.101562 55.753906-64.875 1.703125 17.144532 11.871094 56.519532 66.988281 85.90625v31.585938h-122.742187v-9.382813c0-4.144531-3.359376-7.503906-7.5-7.503906-4.144532 0-7.503907 3.359375-7.503907 7.503906v16.882813c0 4.144531 3.359375 7.5 7.503907 7.5h276.46875c4.144531 0 7.5-3.355469 7.5-7.5v-60.117188c0-11.125-2.265626-21.734375-6.359376-31.386718 17.101563-4.933594 29.652344-20.71875 29.652344-39.390626v-143.015624c0-9.675782-15-9.675782-15 0v143.015624c0 13.007813-9.605468 23.816407-22.097656 25.707032-20.378906-30.109375-51.507812-35.550782-85.011719-35.550782-3.507812 0-6.359375-2.851562-6.359375-6.359374v-34.648438c32.253906-12.808594 57.070313-40.425781 66.023438-74.40625 2.078125.03125 4.214844.03125 6.277344-.136719 0 22.085938-7.457032 43.519531-22.035157 60.25-2.671875-1.152343-5.609375-1.792969-8.699219-1.792969-12.140624 0-22.019531 9.878907-22.019531 22.019532 0 12.144531 9.878907 22.023437 22.019531 22.023437 12.144532 0 22.023438-9.878906 22.023438-22.023437 0-3.578125-.863281-6.957032-2.386719-9.945313 18.691407-21.230469 26.101563-47.332031 26.101563-75.132812 11.199218-6.320313 18.785156-18.328125 18.785156-32.078125 0-20.175782-16.3125-36.605469-36.441406-36.808594v-52.574219c6.425781-8.9375 11.984375-19.878906 16.753906-32.917969 9.71875 5.75 27.066406 21.773438 27.066406 62.851563v41.503906c0 4.144531 3.355469 7.5 7.5 7.5zm-86.421875 127.605469c0-3.871094 3.148438-7.019531 7.019531-7.019531 3.871094 0 7.023438 3.148437 7.023438 7.019531s-3.152344 7.019531-7.023438 7.019531c-3.871093 0-7.019531-3.148437-7.019531-7.019531zm-184.933593-95.34375c-12.03125 0-21.816407-9.785156-21.816407-21.816406 0-11.902344 9.582031-21.601563 21.4375-21.804688v30.5625c0 4.417969.269531 8.773438.777344 13.058594zm62.554687 178.761719h95.277344c-4.828125 7.492187-11.070313 14.605469-18.71875 21.3125-11.738281 10.296875-23.660157 16.707031-29.101563 19.355469-20.917968-10.988282-37.066406-24.859376-47.457031-40.667969zm114.300781 41.503906h7v17.003906h-7zm-7.5 32.003906h22.003906c4.140626 0 7.5-3.355469 7.5-7.5v-.878906h9.988282v19.761719h-56.984375v-19.761719h9.988281v.878906c.003906 4.144531 3.359375 7.5 7.503906 7.5zm71.207032-41.230469v52.613282h-16.710938v-27.265625c0-4.140625-3.359375-7.5-7.503906-7.5h-17.488282v-16.121094c0-4.144531-3.359374-7.5-7.5-7.5h-22.003906c-4.144531 0-7.5 3.355469-7.5 7.5v16.121094h-17.492187c-4.144531 0-7.5 3.359375-7.5 7.5v27.265625h-20.023438v-30.851563c6.339844-3.097656 19.039063-10.011719 31.804688-21.128906 21.410156-18.644531 33.753906-41.15625 36.054687-65.523437 31.570313 4.726562 55.863282 32.023437 55.863282 64.890624zm-83.820313-65.621093h12.960937c-.636718 6.304687-2.066406 12.421875-4.289062 18.34375h-110.742188c-2.984374-7.457031-4.253906-13.882813-4.777343-18.34375h13.015625c11.777344 0 21.363281-9.582031 21.363281-21.359375v-29.914063c8.203125 1.953125 16.757813 2.996094 25.554687 2.996094 8.792969 0 17.351563-1.042969 25.554688-2.996094v29.914063c0 11.777344 9.582031 21.359375 21.359375 21.359375zm-46.914063-63.277344c-52.496093 0-95.207031-42.707031-95.207031-95.199219v-48.203125c0-42.433593 12.542969-62.964843 40.664063-66.570312 29.558594-3.785157 46.136718 26.703125 69.144531 39.332031 24.476563 13.441406 58.804687 10.835938 80.605469-6.648438v82.089844c0 52.492188-42.710938 95.199219-95.207032 95.199219zm131.644532-103.957031c0 12.03125-9.785156 21.816406-21.816406 21.816406h-.398438c.507812-4.285156.777344-8.640625.777344-13.058594v-30.566406c11.855468.207031 21.4375 9.90625 21.4375 21.808594zm0 0"/></svg>