<?xml version="1.0"?>
<svg xmlns="http://www.w3.org/2000/svg" viewBox="0 0 64 64" width="512" height="512"><g id="_28-Doctor" data-name="28-Doctor"><path d="M40.54,28.84a1,1,0,0,1-.947-1.319A7.892,7.892,0,0,0,40,25V21a1,1,0,0,1,1-1h1a3,3,0,0,1,3,3,6.145,6.145,0,0,1-1.292,3.766,6.22,6.22,0,0,1-2.286,1.8,4.608,4.608,0,0,1-.585.229A1.009,1.009,0,0,1,40.54,28.84ZM42,22v3c0,.242-.009.484-.025.724.054-.062.107-.125.157-.19A4.136,4.136,0,0,0,43,23,1,1,0,0,0,42,22Z"/><path d="M23.46,28.84a1.009,1.009,0,0,1-.3-.045,4.608,4.608,0,0,1-.585-.229,6.227,6.227,0,0,1-2.286-1.8c-.01-.013-.059-.08-.068-.094A6.179,6.179,0,0,1,19,23a3,3,0,0,1,3-3h1a1,1,0,0,1,1,1v4a7.892,7.892,0,0,0,.407,2.521,1,1,0,0,1-.947,1.319ZM22,22a1,1,0,0,0-1,1,4.12,4.12,0,0,0,.8,2.444l-.724.706.788-.616c.05.065.1.128.157.19C22.009,25.484,22,25.242,22,25Z"/><rect x="11" y="52" width="2" height="2"/><path d="M52,64H12a1,1,0,0,1-1-1V56h2v6H51V47.68a5,5,0,0,0-3.783-4.85l-.45-.107L35.758,39.97A1,1,0,0,1,35,39V34.538a10.081,10.081,0,0,1-6,0V39a1,1,0,0,1-.758.97L16.773,42.833A4.992,4.992,0,0,0,13,47.68V50H11V47.68a6.99,6.99,0,0,1,5.3-6.789l.47-.114L27,38.219V33.06a1,1,0,0,1,1.447-.9,8.116,8.116,0,0,0,7.106,0,1,1,0,0,1,1.447.9v5.159l10.693,2.669A6.994,6.994,0,0,1,53,47.68V63A1,1,0,0,1,52,64Z"/><path d="M32,35A10.011,10.011,0,0,1,22,25V21h2v4a8,8,0,0,0,16,0V21h2v4A10.011,10.011,0,0,1,32,35Z"/><path d="M20,24a1,1,0,0,1-1-1V13c0-5.794,3.785-10,9-10V5c-4.81,0-7,4.146-7,8v7.171A3,3,0,0,1,22,20h1v2H22a1,1,0,0,0-1,1A1,1,0,0,1,20,24Z"/><path d="M45,23H43V14a12.022,12.022,0,0,0-.142-1.846l1.977-.308A14.136,14.136,0,0,1,45,14Z"/><path d="M42,21H40V18.815c-3.631-.91-4.892-3.521-5.829-5.463C33.347,11.645,32.946,11,32,11c-2.966,0-3,1.918-3,2a1,1,0,0,1-2,0V4a4,4,0,0,1,4-4A13.96,13.96,0,0,1,44.322,9.688l-1.9.615A11.968,11.968,0,0,0,31,2a2,2,0,0,0-2,2V9.7A5.933,5.933,0,0,1,32,9c2.291,0,3.185,1.851,3.972,3.482.95,1.968,1.932,4,5.188,4.531A1,1,0,0,1,42,18Z"/><path d="M24,22H22V17a5.006,5.006,0,0,1,5-5h1v2H27a3,3,0,0,0-3,3Z"/><rect x="17" y="54" width="2" height="9"/><rect x="45" y="54" width="2" height="9"/><path d="M32,42a1,1,0,0,1-.447-.1l-4-2,.894-1.79L32,39.882,35.553,38.1l.894,1.79-4,2A1,1,0,0,1,32,42Z"/><path d="M33,63H31V57.224L23.1,40.426a1,1,0,0,1,1.53-1.207l4.3,3.441,2.367-2.367a1,1,0,0,1,1.414,0l2.367,2.367,4.3-3.441a1,1,0,0,1,1.53,1.207L33,57.224ZM26.739,43.472,32,54.651l5.261-11.179-1.636,1.309a1,1,0,0,1-1.332-.074L32,42.414l-2.293,2.293a1,1,0,0,1-1.332.074Z"/><path d="M33,47H31a1,1,0,0,1-.832-.445l-2-3,1.664-1.11L31.535,45h.93l1.7-2.555,1.664,1.11-2,3A1,1,0,0,1,33,47Z"/><rect x="26.964" y="48.5" width="7.071" height="2.001" transform="translate(-22.819 72.686) rotate(-81.862)"/><rect x="32.5" y="45.964" width="2.001" height="7.071" transform="translate(-6.664 5.235) rotate(-8.13)"/><path d="M39.707,51.707l-1.414-1.414L41,47.586V40h2v8a1,1,0,0,1-.293.707Z"/><path d="M34.878,63.479l-1.756-.958,5.642-10.343-3.471-3.471,1.414-1.414,4,4a1,1,0,0,1,.171,1.186Z"/><path d="M24.293,51.707l-3-3A1,1,0,0,1,21,48V40h2v7.586l2.707,2.707Z"/><path d="M29.122,63.479l-6-11a1,1,0,0,1,.171-1.186l4-4,1.414,1.414-3.471,3.471,5.642,10.343Z"/><path d="M32,26c-4.816,0-10-1.252-10-4h2c0,.514,2.751,2,8,2,4.852,0,7.7-.844,8.081-1.273A.461.461,0,0,0,40,23h2C42,25.783,34.346,26,32,26Z"/></g></svg>
