<svg height="512" viewBox="0 0 128 128" width="512" xmlns="http://www.w3.org/2000/svg"><g><path d="m7.157 61.039s-8.924-30.295 31.234-27.477 36.453-15.94 66.258-11.57c38.141 5.591 6.432 57.391-37.553 63.545-43.805 6.128-56.88-14.101-59.939-24.498z" fill="#f2e7cb"/><path d="m64.006 50.121c-11.747-6.451 2.471-8.9 2.471-8.9 18.195-2.442 20.9-11.164 32.278-10.175 20.09 1.747 9.23 22.95.881 26.146 0 0-7.734 2.76-19.6-.637a87.6 87.6 0 0 1 -16.03-6.434z" fill="#ef3829"/><path d="m33.546 43.2s-19.075-.978-15.81 13.551 25.466 24.3 55.5 17.283-7.336-11.407-16.483-15.978-4.44-13.196-23.207-14.856z" fill="#ef3829"/><path d="m121.7 38.052c0 17.53-24.409 43.261-54.6 47.485-43.805 6.128-56.88-14.1-59.939-24.5a26.44 26.44 0 0 1 -.844-6.82v19.859a26.436 26.436 0 0 0 .844 6.961c3.059 10.4 16.134 30.626 59.939 24.5 30.14-4.217 54.516-29.867 54.6-47.4v-20.086z" fill="#ef983b"/><g fill="#422002"><path d="m100.261 58.83c5.99-2.293 12.623-12.075 11.539-19.8-.456-3.252-2.738-8.839-12.893-9.722-6.156-.535-10 1.54-14.451 3.943a47.669 47.669 0 0 1 -18.276 6.249c-1.841.317-7.9 1.639-8.523 5.353-.58 3.46 4 5.976 5.506 6.8a88.643 88.643 0 0 0 16.392 6.584 43.723 43.723 0 0 0 12.045 1.77 27.57 27.57 0 0 0 8.661-1.177zm-19.739-3.954a86.8 86.8 0 0 1 -15.676-6.289c-3.738-2.054-3.739-3.146-3.738-3.156.116-.694 2.754-1.975 5.6-2.472a51.2 51.2 0 0 0 19.409-6.63c4.277-2.31 7.363-3.983 12.485-3.535 5.9.513 9.177 2.774 9.731 6.722.824 5.874-4.731 14.287-9.283 16.029-.07.026-7.423 2.511-18.528-.669z"/><path d="m123.448 38.044c0-5.661-2.432-15.421-18.545-17.784a57.8 57.8 0 0 0 -9.413-.675 1.75 1.75 0 0 0 .028 3.5h.031a55.239 55.239 0 0 1 8.846.639c10.2 1.5 15.58 6.468 15.554 14.381-.057 17.235-24.568 41.709-53.1 45.7-45.608 6.377-55.933-16.191-58.012-23.258-.031-.1-2.981-10.564 2.928-17.887 4.668-5.785 13.579-8.256 26.5-7.352 21.4 1.505 30.691-3.025 38.889-7.02a56.516 56.516 0 0 1 9.577-3.958 1.75 1.75 0 1 0 -.949-3.369 59.175 59.175 0 0 0 -10.161 4.181c-7.8 3.8-16.647 8.109-37.112 6.675-14.132-.994-24.067 1.924-29.492 8.67a22.011 22.011 0 0 0 -4.455 14.529v17.4c0 .621 0 1.179.049 1.654h-.048a28.055 28.055 0 0 0 .915 7.468 31.284 31.284 0 0 0 3.085 7.041 1.75 1.75 0 1 0 3.016-1.779 28.2 28.2 0 0 1 -2.742-6.251 25.041 25.041 0 0 1 -.774-6.455v-.029c0-.156 0-2.655 0-6.377 4.705 8.612 16.21 20.742 43.645 20.741a113.164 113.164 0 0 0 15.63-1.159c24.154-3.379 44.685-19.964 52.611-35.978v6.84c-.085 17.227-24.6 41.686-53.1 45.672-17.457 2.44-31.586.887-42-4.618a1.75 1.75 0 0 0 -1.637 3.094c7.735 4.09 17.3 6.142 28.57 6.142a112.581 112.581 0 0 0 15.549-1.152c30.968-4.332 56.018-30.414 56.111-49.129v-20.1z"/><path d="m15.956 92.554a1.75 1.75 0 0 0 -2.524 2.425c.83.863 1.722 1.7 2.652 2.493a1.75 1.75 0 0 0 2.267-2.666c-.841-.716-1.651-1.473-2.395-2.252z"/><path d="m57.535 56.491c-2.968-1.484-4.225-3.387-5.681-5.59-2.578-3.9-5.5-8.325-18.154-9.445l-.065-.005c-.44-.022-10.8-.484-15.626 5.241-2.266 2.689-2.933 6.2-1.98 10.442 1.265 5.627 5.055 10.559 10.961 14.266 7.088 4.441 16.453 6.713 27.01 6.713a86.713 86.713 0 0 0 19.634-2.376c9.184-2.147 12.781-4.094 12.827-6.948.062-3.789-6.256-5.671-17.429-8.67-4.503-1.21-9.163-2.462-11.497-3.628zm15.306 15.838c-24.835 5.805-39.04-.792-43.992-3.9-5.1-3.2-8.35-7.369-9.406-12.066-.709-3.155-.3-5.579 1.237-7.411 3.133-3.724 10.049-4.019 12.157-4.019.314 0 .522.007.593.009 10.939.976 13.055 4.179 15.5 7.886 1.514 2.291 3.23 4.887 7.036 6.791 2.65 1.324 7.268 2.564 12.159 3.877 4.73 1.27 13.388 3.594 14.745 5.226-.441.464-2.326 1.807-10.029 3.607z"/><path d="m52.722 100.63a65.6 65.6 0 0 0 13.738-1.48 1.75 1.75 0 0 0 -.733-3.422c-14.378 3.08-24.667.066-24.77.036a1.75 1.75 0 0 0 -1.017 3.349 47.416 47.416 0 0 0 12.782 1.517z"/><path d="m73.946 96.924a1.767 1.767 0 0 0 .452-.06 62.605 62.605 0 0 0 7.379-2.44 1.75 1.75 0 1 0 -1.441-3.189 60.659 60.659 0 0 1 -6.84 2.247 1.751 1.751 0 0 0 .45 3.442z"/></g></g></svg>