<svg height="512" viewBox="0 0 88 88" width="512" xmlns="http://www.w3.org/2000/svg"><g id="Smartphone"><rect fill="#e6ecff" height="86" rx="5" width="50" x="19" y="1"/><path d="m64 15h-40a1 1 0 0 0 -1 1v64.8623a2.0749 2.0749 0 0 0 2 2.1377h38a2.0749 2.0749 0 0 0 2-2.1377v-64.8623a1 1 0 0 0 -1-1z" fill="#d0dbf7"/><path d="m63.4458 6h-38.8916a1 1 0 0 0 -.848.47l-4.7062 7.53v2h50v-2l-4.7062-7.53a1 1 0 0 0 -.848-.47z" fill="#376cfb"/><path d="m33 6-4 8h-10l4.71-7.53a.9946.9946 0 0 1 .84-.47z" fill="#4294ff"/><path d="m49 14h-10l2-8h6z" fill="#4294ff"/><path d="m69 14h-10l-4-8h8.45a.9946.9946 0 0 1 .84.47z" fill="#4294ff"/><circle cx="41" cy="59" fill="#376cfb" r="3"/><circle cx="50" cy="59" fill="#376cfb" r="3"/><path d="m37 54h16a1 1 0 0 0 .8945-.5527l5-10a1 1 0 0 0 -.8945-1.4473h-20.1026l-.9355-3.2749a1.0009 1.0009 0 0 0 -.9619-.7251h-4a1 1 0 0 0 0 2h3.2461l3.4278 12h-1.6739a3 3 0 0 0 0 6h19a1 1 0 0 0 0-2h-19a1 1 0 0 1 0-2z" fill="#4294ff"/><g fill="#376cfb"><path d="m33 45h-4a1 1 0 0 1 0-2h4a1 1 0 0 1 0 2z"/><path d="m35 49h-3a1 1 0 0 1 0-2h3a1 1 0 0 1 0 2z"/><path d="m29 14h-10v5a5 5 0 0 0 10 0 5 5 0 0 0 10 0 5 5 0 0 0 10 0 5 5 0 0 0 10 0 5 5 0 0 0 10 0v-5z"/></g><path d="m49 14v5a5 5 0 0 0 10 0v-5z" fill="#2946ed"/><path d="m29 14v5a5 5 0 0 0 10 0v-5z" fill="#2946ed"/></g></svg>