<svg height="512" viewBox="0 0 88 88" width="512" xmlns="http://www.w3.org/2000/svg"><g id="Bill_Online" data-name="Bill Online"><rect fill="#e6ecff" height="86" rx="5" width="50" x="10" y="1"/><path d="m30 63h30v3h-30z" fill="#b7c6e2"/><path d="m30 22h30v3h-30z" fill="#b7c6e2"/><path d="m54 5h-8a1.0008 1.0008 0 0 0 -.5547.168l-2.748 1.832h-15.3946l-2.748-1.832a1.0008 1.0008 0 0 0 -.5547-.168h-8a2.002 2.002 0 0 0 -2 2v74a2.002 2.002 0 0 0 2 2h38a2.002 2.002 0 0 0 2-2v-74a2.002 2.002 0 0 0 -2-2z" fill="#d0dbf7"/><path d="m30 63h26v3h-26z" fill="#8ea6ce"/><path d="m30 22h26v3h-26z" fill="#8ea6ce"/><path d="m39 61h-8a1 1 0 0 0 -1 1v4a5 5 0 0 0 10 0v-4a1 1 0 0 0 -1-1z" fill="#becced"/><path d="m35 17a5.0059 5.0059 0 0 0 -5 5v4a1 1 0 0 0 1 1h8a1 1 0 0 0 1-1v-4a5.0059 5.0059 0 0 0 -5-5z" fill="#becced"/><path d="m30 63h10v3h-10z" fill="#7e97bc"/><path d="m79 25h-49v38h49a1 1 0 0 0 1-1v-36a1 1 0 0 0 -1-1z" fill="#e6ecff"/><path d="m74.9672 35a5.006 5.006 0 0 1 -4.9672-4.9672 1.0137 1.0137 0 0 0 -1-1.0328h-39v30h39a1.0137 1.0137 0 0 0 1-1.0328 5.006 5.006 0 0 1 4.9672-4.9672 1.0137 1.0137 0 0 0 1.0328-1v-16a1.0137 1.0137 0 0 0 -1.0328-1z" fill="#4294ff"/><path d="m44.97 43.4619-.97-.2425v-5.2194a2.0023 2.0023 0 0 1 2 2 1 1 0 0 0 2 0 4.0042 4.0042 0 0 0 -4-4v-1a1 1 0 0 0 -2 0v1a4.0042 4.0042 0 0 0 -4 4v.6577a3.9931 3.9931 0 0 0 3.03 3.88l.97.2425v5.2198a2.0023 2.0023 0 0 1 -2-2 1 1 0 0 0 -2 0 4.0042 4.0042 0 0 0 4 4v1a1 1 0 0 0 2 0v-1a4.0042 4.0042 0 0 0 4-4v-.6577a3.9931 3.9931 0 0 0 -3.03-3.8804zm-3.4551-.8642a1.9967 1.9967 0 0 1 -1.5149-1.94v-.6577a2.0023 2.0023 0 0 1 2-2v4.7191zm4.4851 5.4023a2.0023 2.0023 0 0 1 -2 2v-4.7191l.4854.1214a1.9967 1.9967 0 0 1 1.5146 1.94z" fill="#376cfb"/><circle cx="58" cy="44" fill="#376cfb" r="3"/><path d="m30 22h10v3h-10z" fill="#7e97bc"/></g></svg>