<svg height="512" viewBox="0 0 128 128" width="512" xmlns="http://www.w3.org/2000/svg"><g><path d="m18.145 6.306h13.248v115.387h-13.248z" fill="#ef3829"/><path d="m31.394 6.306h64.382a14.079 14.079 0 0 1 14.079 14.079v87.23a14.079 14.079 0 0 1 -14.079 14.079h-64.382z" fill="#ffde3e"/><g fill="#422002"><path d="m18.146 102.779a1.75 1.75 0 0 0 1.75-1.75v-4.5a1.75 1.75 0 0 0 -3.5 0v4.5a1.749 1.749 0 0 0 1.75 1.75z"/><path d="m109.854 28.987a1.749 1.749 0 0 0 1.75-1.75v-6.852a15.845 15.845 0 0 0 -15.828-15.828h-77.63a1.749 1.749 0 0 0 -1.75 1.75v81.568a1.75 1.75 0 0 0 3.5 0v-79.818h9.748v111.886h-9.744v-10.675a1.75 1.75 0 0 0 -3.5 0v12.425a1.749 1.749 0 0 0 1.75 1.75h77.63a15.845 15.845 0 0 0 15.82-15.828v-72.7a1.75 1.75 0 0 0 -3.5 0v72.7a12.342 12.342 0 0 1 -12.328 12.328h-62.628v-111.886h62.632a12.342 12.342 0 0 1 12.324 12.328v6.852a1.75 1.75 0 0 0 1.754 1.75z"/><path d="m55.297 69.594v-11.154h-3.149l-2.988 5.325-2.987-5.325h-3.149v11.154h3.149v-5.975l2.987 5.325 2.988-5.325v5.975z"/><path d="m68.654 61.249v-2.809h-8.979v11.154h8.979v-2.809h-5.829v-1.478h5.309v-2.808h-5.309v-1.25z"/><path d="m80.176 69.594h3.149v-11.154h-3.149v5.974l-4.351-5.974h-3.15v11.154h3.15v-5.975z"/><path d="m87.607 58.44v6.2a5.312 5.312 0 0 0 10.618 0v-6.2h-3.15v6.039a2.177 2.177 0 1 1 -4.319 0v-6.039z"/><path d="m97.04 48.988h-52.831a1.75 1.75 0 0 0 0 3.5h52.831a1.75 1.75 0 1 0 0-3.5z"/><path d="m42.459 77.262a1.751 1.751 0 0 0 1.75 1.75h52.831a1.75 1.75 0 1 0 0-3.5h-52.831a1.75 1.75 0 0 0 -1.75 1.75z"/></g></g></svg>