<svg height="511pt" viewBox="-109 1 511 511.999" width="511pt" xmlns="http://www.w3.org/2000/svg"><path d="m196.976562 318.660156h7.683594c9.011719 0 16.796875-5.328125 20.382813-13h22.6875c14.835937 0 26.910156-12.070312 26.910156-26.90625v-34.910156c11.371094-6.269531 19.09375-18.371094 19.09375-32.246094 0-10.996094-4.851563-20.875-12.519531-27.621094 18.902344-54.546874 16.980468-100.363281-5.644532-132.722656-23.441406-33.53125-67.855468-51.253906-128.441406-51.253906-53.3125 0-92.242187 15.761719-115.710937 46.851562-17.375 23.015626-25.945313 54.839844-24.789063 92.03125.65625 21.03125 4.183594 38.085938 5.953125 45.472657-7.417969 6.738281-12.082031 16.453125-12.082031 27.238281 0 20.292969 16.507812 36.800781 36.804688 36.800781h3.253906c8.953125 33.980469 33.765625 61.59375 66.015625 74.398438v24.132812c-2.410157-.808593-5.15625-.367187-7.214844 1.363281l-18.445313 15.535157c-43.9375.59375-79.503906 36.496093-79.503906 80.566406v60.117187c0 4.136719 3.351563 7.492188 7.488282 7.492188h276.4375c4.136718 0 7.488281-3.355469 7.488281-7.492188v-21.160156c0-10.375-13.253907-8.597656-14.980469.234375-.808594 4.148438 0 9.195313 0 13.4375h-73.292969v-57.097656l.363281.238281c1.25.824219 2.6875 1.242188 4.132813 1.242188 1.214844 0 2.433594-.296875 3.546875-.894532 2.425781-1.304687 3.941406-3.839843 3.941406-6.59375v-54.980468c34.179688 2.230468 61.308594 30.730468 61.308594 65.457031 0 9.664063 14.980469 9.664063 14.980469 0 0-44.0625-35.554688-79.960937-79.480469-80.566406l-18.449219-15.535157c-2.0625-1.738281-4.816406-2.179687-7.234375-1.355468v-24.082032c3.167969-1.25 6.277344-2.644531 9.316406-4.191406zm-9.324218-14.976562c-4.140625 0-7.511719-3.371094-7.511719-7.515625 0-4.140625 3.371094-7.511719 7.511719-7.511719h17.007812c4.140625 0 7.511719 3.371094 7.511719 7.511719 0 4.144531-3.371094 7.515625-7.511719 7.515625zm69.28125-70.265625h-.394532c.503907-4.304688.761719-8.660157.761719-13.066407v-30.566406c11.863281.199219 21.457031 9.902344 21.457031 21.8125 0 12.03125-9.792968 21.820313-21.824218 21.820313zm-241.453125-21.820313c0-11.910156 9.589843-21.613281 21.453125-21.8125v30.566406c0 4.421876.269531 8.777344.777344 13.066407h-.40625c-12.035157 0-21.824219-9.789063-21.824219-21.820313zm36.433593 8.753906v-71.558593c0-19.265625 5.996094-45.230469 22.828126-60.339844 7.1875-6.453125-2.820313-17.601563-10.007813-11.144531-25.792969 23.15625-27.796875 60.570312-27.796875 71.484375v26.011719c-3.742188.035156-7.351562.628906-10.746094 1.707031-4.40625-20.976563-13.210937-80.371094 17.183594-120.636719 20.484375-27.136719 55.390625-40.894531 103.753906-40.894531 55.480469 0 95.652344 15.511719 116.164063 44.855469 19.417969 27.769531 20.976562 67.992187 4.644531 116.640624-3.363281-1.054687-6.9375-1.636718-10.636719-1.671874v-37.496094c0-.183594-.015625-.367188-.027343-.550782 4.128906-7.023437 7.25-15.613281 8.484374-26.03125 1.136719-9.59375-13.734374-11.355468-14.875-1.765624-2.4375 20.558593-13.46875 30.78125-22.058593 35.699218.976562-23.097656-10.289063-42.214844-10.859375-43.164062-3.691406-6.148438-13.6875-3.683594-13.910156 3.625-.476563 15.800781-9.726563 25.933594-17.664063 31.753906-.445313-15.644531-6.21875-34.882812-18.800781-50.683594-10.015625-12.582031-28.066406-27.347656-57.191406-26.277344-9.65625.359376-9.101563 15.246094.554687 14.972657 22.875-.84375 37.050781 10.753906 44.917969 20.636719 13.425781 16.863281 17.910156 40.097656 14.484375 52.820312-1.527344 5.667969 4.222656 11.011719 9.792969 8.984375 1.152343-.417969 21.71875-8.136719 32.472656-27.753906 1.519531 7.375 2.027344 16.039062-.320313 24.761719-1.390625 5.160156 3.40625 10.25 8.570313 9.316406 5.703125-1.039063 13.726562-4.140625 21.449218-10.03125v66.730468c0 14.734376-3.273437 28.859376-9.730468 41.976563-4.273438 8.683594 9.195312 15.242187 13.441406 6.617187 3.269531-6.640624 5.832031-13.503906 7.683594-20.550781h3.21875c.917968 0 1.824218-.042969 2.726562-.109375v30.464844c0 6.578125-5.351562 11.929688-11.925781 11.929688h-20.414063c-.332031-1.25-.980468-2.429688-1.960937-3.402344-.023437-.019532-.046875-.039063-.070313-.058594-3.464843-7.960938-11.40625-13.542969-20.628906-13.542969h-17.007812c-12.402344 0-22.492188 10.089844-22.492188 22.492188 0 6.308593 2.617188 12.019531 6.816406 16.109375-8.003906 2.144531-16.34375 3.261718-24.859374 3.261718-52.496094 0-95.203126-42.699218-95.203126-95.1875zm127.652344 276.667969-14.40625-51.832031 10.738282-24.214844 13.671874 9.039063v67.007812zm-74.882812 0v-67.003906l13.492187-8.921875 9.949219 23.996094-14.433594 51.929687zm30.273437-104.980469-42.257812 27.941407v-46.5l11.304687-9.515625zm6.082031 45.078126-10.097656-24.355469 16.1875-10.792969 16.0625 10.707031-10.839844 24.441407zm60.515626-17.136719-42.253907-27.941407 30.953125-28.074218 11.300782 9.519531zm-185.164063 24.410156c0-34.734375 27.140625-63.238281 61.328125-65.460937v54.984374c0 2.753907 1.515625 5.289063 3.945312 6.59375 1.109376.597657 2.328126.894532 3.546876.894532 1.441406 0 2.882812-.417969 4.132812-1.242188l.359375-.238281v57.097656h-73.3125zm112.851563 52.628906 12.484374-44.921875h9.804688l12.484375 44.921875zm43.546874-137.4375-25.660156 23.273438-25.683594-23.292969c.070313-.703125.109376-1.414062.109376-2.132812v-29.910157c8.207031 1.957031 16.765624 3 25.5625 3 8.722656 0 17.285156-1.011719 25.5625-2.96875v29.878907c0 .726562.039062 1.441406.109374 2.152343zm0 0"/></svg>