<svg enable-background="new 0 0 128 128" height="512" viewBox="0 0 128 128" width="512" xmlns="http://www.w3.org/2000/svg"><g id="Layer_31"><circle cx="64" cy="64" fill="#fdcc58" r="45.25"/><circle cx="64" cy="64" fill="#e5e7ea" r="36.3"/><circle cx="64" cy="64" fill="#e5e7ea" r="3.95"/><path d="m93.97 62.05s-1.46 3.71-2.97 6.58c-1.27-.91-2.58-1.55-3.86-1.99.03-1.95-.18-4.97-1.54-6.89.08.28-.3 3.46-1.31 6.24-5.82-.73-10.71 2.07-10.98 2.22.7-1.24 1.12-2.67 1.12-4.2 0 0 0 0 0-.01.18-.3 6.66-11.52 18.99-7.81-1.37-4.88-4.03-9.22-7.58-12.66v-.01c-.23-.27-3.98-4.35-7.54-4.72 0 0 2.48 3.12 4.21 5.86-1.43.65-2.62 1.45-3.64 2.36h-.01c-1.67-1.01-4.39-2.33-6.74-2.12.28.07 2.84 1.99 4.75 4.26-3.64 4.81-3.57 10.63-3.57 10.63-.74-1.28-1.8-2.34-3.08-3.09 0 0-.01 0-.01-.01-.23-.41-6.61-11.57 2.74-20.35-2.22-.56-4.56-.86-6.95-.86-2.71 0-5.33.38-7.81 1.1v-.01s-5.69 1.18-7.86 4.18c0 0 3.94-.59 7.18-.72-.14 1.56-.05 3 .22 4.33-1.7.95-4.22 2.65-5.21 4.79.2-.21 3.16-1.48 6.08-1.98 2.28 5.44 7.2 8.28 7.4 8.4-1.53 0-2.97.41-4.21 1.13 0 0-13.28.17-16.27-12.54-3.42 3.54-5.95 7.96-7.18 12.89 0 0-1.82 5.52-.31 8.9 0 0 1.46-3.71 2.97-6.58 1.27.91 2.58 1.55 3.86 1.99-.03 1.95.18 4.97 1.54 6.89-.08-.28.3-3.46 1.31-6.24 5.82.73 10.71-2.07 10.98-2.22-.7 1.24-1.12 2.67-1.12 4.2v.01c-.18.3-6.66 11.52-18.99 7.81 1.37 4.88 4.02 9.22 7.57 12.67 0 0 3.87 4.34 7.55 4.72 0 0-2.48-3.12-4.21-5.86 1.43-.65 2.62-1.45 3.64-2.36h.01c1.67 1.01 4.39 2.33 6.74 2.12-.28-.07-2.84-1.99-4.75-4.26 3.64-4.81 3.57-10.63 3.57-10.63.74 1.28 1.8 2.34 3.08 3.09 0 0 0 0 .01.01.23.41 6.61 11.57-2.74 20.35 2.22.56 4.56.86 6.95.86 2.71 0 5.33-.38 7.81-1.1v.01s5.69-1.18 7.86-4.18c0 0-3.94.59-7.18.72.15-1.56.05-3-.22-4.33 1.7-.95 4.22-2.65 5.21-4.79-.2.21-3.16 1.48-6.08 1.98-2.29-5.44-7.21-8.28-7.4-8.4 1.53 0 2.97-.41 4.21-1.13 0 0 13.28-.17 16.27 12.54 3.42-3.54 5.95-7.96 7.18-12.89 0 0 1.82-5.52.31-8.9zm-27.97 5.9c-2.18 0-3.95-1.77-3.95-3.95s1.77-3.95 3.95-3.95 3.95 1.77 3.95 3.95-1.77 3.95-3.95 3.95z" fill="#d9dadb"/><path d="m71.3 59.79c-.74-1.28-1.8-2.34-3.08-3.09 0 0-.01 0-.01-.01-1.24-.7-2.67-1.12-4.2-1.12 0 0 0 0-.01 0-1.53 0-2.97.41-4.21 1.13-1.28.74-2.34 1.8-3.09 3.08 0 0 0 0-.01.01-.7 1.24-1.12 2.67-1.12 4.2v.01c0 1.53.41 2.97 1.13 4.21.74 1.28 1.8 2.34 3.08 3.09 0 0 0 0 .01.01 1.24.7 2.67 1.12 4.2 1.12h.01c1.53 0 2.97-.41 4.21-1.13 1.28-.74 2.34-1.8 3.09-3.08 0 0 0 0 .01-.01.7-1.24 1.12-2.67 1.12-4.2 0 0 0 0 0-.01 0-1.53-.41-2.97-1.13-4.21zm-7.3 8.16c-2.18 0-3.95-1.77-3.95-3.95s1.77-3.95 3.95-3.95 3.95 1.77 3.95 3.95-1.77 3.95-3.95 3.95z" fill="#6699d1"/><g fill="#4c545e"><path d="m59.79 56.7c-1.28.74-2.34 1.8-3.09 3.08 0 0 0 0-.01.01-.27.15-5.16 2.95-10.98 2.22-1.01 2.78-1.39 5.96-1.31 6.24-1.36-1.92-1.57-4.94-1.54-6.89-1.28-.44-2.59-1.08-3.86-1.99-1.51 2.87-2.97 6.58-2.97 6.58-1.51-3.38.31-8.9.31-8.9 1.23-4.93 3.76-9.35 7.18-12.89 2.99 12.71 16.27 12.54 16.27 12.54z"/><path d="m51.13 80.98c-1.02.91-2.21 1.71-3.64 2.36 1.73 2.74 4.21 5.86 4.21 5.86-3.68-.38-7.55-4.72-7.55-4.72-3.55-3.45-6.2-7.79-7.57-12.67 12.33 3.71 18.81-7.51 18.99-7.81 0 1.53.41 2.97 1.13 4.21 0 0 .07 5.82-3.57 10.63 1.91 2.27 4.47 4.19 4.75 4.26-2.35.21-5.07-1.11-6.74-2.12z"/><path d="m79.67 87.25c-2.17 3-7.86 4.18-7.86 4.18v-.01c-2.48.72-5.1 1.1-7.81 1.1-2.39 0-4.73-.3-6.95-.86 9.35-8.78 2.97-19.94 2.74-20.35 1.24.7 2.67 1.12 4.2 1.12h.01c.19.12 5.11 2.96 7.4 8.4 2.92-.5 5.88-1.77 6.08-1.98-.99 2.14-3.51 3.84-5.21 4.79.27 1.33.37 2.77.22 4.33 3.24-.13 7.18-.72 7.18-.72z"/><path d="m91.66 70.95c-1.23 4.93-3.76 9.35-7.18 12.89-2.99-12.71-16.27-12.54-16.27-12.54 1.28-.74 2.34-1.8 3.09-3.08 0 0 0 0 .01-.01.27-.15 5.16-2.95 10.98-2.22 1.01-2.78 1.39-5.96 1.31-6.24 1.36 1.92 1.57 4.94 1.54 6.89 1.28.44 2.59 1.08 3.86 1.99 1.51-2.87 2.97-6.58 2.97-6.58 1.51 3.38-.31 8.9-.31 8.9z"/><path d="m91.42 56.19c-12.33-3.71-18.81 7.51-18.99 7.81 0-1.53-.41-2.97-1.13-4.21 0 0-.07-5.82 3.57-10.63-1.91-2.27-4.47-4.19-4.75-4.26 2.35-.21 5.07 1.11 6.74 2.12h.01c1.02-.91 2.21-1.71 3.64-2.36-1.73-2.74-4.21-5.86-4.21-5.86 3.56.37 7.31 4.45 7.54 4.72v.01c3.55 3.44 6.21 7.78 7.58 12.66z"/><path d="m68.21 56.69c-1.24-.7-2.67-1.12-4.2-1.12 0 0 0 0-.01 0-.2-.12-5.12-2.96-7.4-8.4-2.92.5-5.88 1.77-6.08 1.98.99-2.14 3.51-3.84 5.21-4.79-.27-1.33-.36-2.77-.22-4.33-3.24.13-7.18.72-7.18.72 2.17-3 7.86-4.18 7.86-4.18v.01c2.48-.72 5.1-1.1 7.81-1.1 2.39 0 4.73.3 6.95.86-9.35 8.78-2.97 19.94-2.74 20.35z"/></g></g></svg>