<svg height="512" viewBox="0 0 64 64" width="512" xmlns="http://www.w3.org/2000/svg"><g id="_29-Wheel_Chair" data-name="29-Wheel Chair"><path d="m23 64a17 17 0 1 1 17-17 17.019 17.019 0 0 1 -17 17zm0-32a15 15 0 1 0 15 15 15.017 15.017 0 0 0 -15-15z"/><path d="m23 60a13 13 0 1 1 13-13 13.015 13.015 0 0 1 -13 13zm0-24a11 11 0 1 0 11 11 11.013 11.013 0 0 0 -11-11z"/><path d="m23 51a4 4 0 1 1 4-4 4 4 0 0 1 -4 4zm0-6a2 2 0 1 0 2 2 2 2 0 0 0 -2-2z"/><path d="m53 64a7 7 0 1 1 7-7 7.009 7.009 0 0 1 -7 7zm0-12a5 5 0 1 0 5 5 5.006 5.006 0 0 0 -5-5z"/><path d="m53 60a3 3 0 1 1 3-3 3 3 0 0 1 -3 3zm0-4a1 1 0 1 0 1 1 1 1 0 0 0 -1-1z"/><path d="m51 52h-2v-4h-10v-2h11a1 1 0 0 1 1 1z"/><path d="m57 52h-2v-8a1 1 0 0 0 -1-1h-16v-2h16a3 3 0 0 1 3 3z"/><path d="m12 36h-2v-22c0-.916 1.626-2 3-2a3 3 0 0 1 3 3v15h-2v-15a1 1 0 0 0 -1-1 1.783 1.783 0 0 0 -1 .39z"/><path d="m48 27h-33v-2h33a1 1 0 0 0 0-2h-26v-2h26a3 3 0 0 1 0 6z"/><path d="m18 21h2v2h-2z"/><path d="m45 26h2v16h-2z"/><path d="m42 26h2v16h-2z"/><path d="m36 32h7v2h-7z"/><path d="m52 42h-2v-7a1 1 0 0 0 -1-1h-3v-2h3a3 3 0 0 1 3 3z"/><path d="m14 13h-2v-1.586l-1.414-1.414h-1.586v-2h2a1 1 0 0 1 .707.293l2 2a1 1 0 0 1 .293.707z"/><path d="m9 12h-6a3 3 0 0 1 0-6h6a1 1 0 0 1 1 1v4a1 1 0 0 1 -1 1zm-6-4a1 1 0 0 0 0 2h5v-2z"/><path d="m54 21h-6a1 1 0 0 1 -1-1v-3h-3a1 1 0 0 1 -1-1v-6a1 1 0 0 1 1-1h3v-3a1 1 0 0 1 1-1h6a1 1 0 0 1 1 1v3h3a1 1 0 0 1 1 1v6a1 1 0 0 1 -1 1h-3v3a1 1 0 0 1 -1 1zm-5-2h4v-3a1 1 0 0 1 1-1h3v-4h-3a1 1 0 0 1 -1-1v-3h-4v3a1 1 0 0 1 -1 1h-3v4h3a1 1 0 0 1 1 1z"/><path d="m53.164 25.82-.33-1.972a11 11 0 1 0 -11.362-5.348l-1.733 1a13 13 0 1 1 13.425 6.32z"/></g></svg>