<svg height="512" viewBox="0 0 128 128" width="512" xmlns="http://www.w3.org/2000/svg"><g><path d="m92.342 56.437-3.172 65.257h-50.34l-3.172-65.257z" fill="#ef983b"/><path d="m29.929 46.279h68.142v10.158h-68.142z" fill="#8c3f07"/><path d="m35.939 46.279a28.346 28.346 0 0 1 56.122 0z" fill="#f2e7cb"/><circle cx="64" cy="89.065" fill="#f2e7cb" r="15.292"/><path d="m64 21.943a28.518 28.518 0 0 1 4.4.347h.043v-15.984h-8.889v15.984h.046a28.518 28.518 0 0 1 4.4-.347z" fill="#8c3f07"/><g fill="#422002"><path d="m73.643 119.943h-4.5a1.75 1.75 0 0 0 0 3.5h4.5a1.75 1.75 0 0 0 0-3.5z"/><path d="m98.071 44.528h-4.532a30.254 30.254 0 0 0 -23.339-23.676v-14.545a1.75 1.75 0 0 0 -1.75-1.75h-8.896a1.75 1.75 0 0 0 -1.75 1.75v14.535a29.986 29.986 0 0 0 -14.204 7.324 1.75 1.75 0 1 0 2.374 2.572 26.592 26.592 0 0 1 43.99 13.79h-51.923a26.241 26.241 0 0 1 3.449-8.408 1.75 1.75 0 1 0 -2.96-1.867 29.751 29.751 0 0 0 -4.071 10.275h-4.53a1.751 1.751 0 0 0 -1.75 1.75v10.159a1.751 1.751 0 0 0 1.75 1.75h4.062l3.091 63.591a1.749 1.749 0 0 0 1.748 1.665h22.076a1.75 1.75 0 0 0 0-3.5h-20.406l-3-61.756h53.01l-3 61.756h-5.21a1.75 1.75 0 0 0 0 3.5h6.87a1.749 1.749 0 0 0 1.748-1.665l3.091-63.591h4.062a1.751 1.751 0 0 0 1.75-1.75v-10.159a1.751 1.751 0 0 0 -1.75-1.75zm-36.771-24.212v-12.259h5.4v12.26c-.89-.081-1.789-.124-2.7-.124s-1.8.043-2.7.123zm35.021 34.371h-64.642v-6.659h64.642z"/><path d="m80.331 41.006a1.75 1.75 0 1 0 3.135-1.557 21.881 21.881 0 0 0 -6.733-7.949 1.75 1.75 0 0 0 -2.053 2.834 18.368 18.368 0 0 1 5.651 6.672z"/><path d="m69.763 31.809a1.75 1.75 0 0 0 1.108-3.321 21.712 21.712 0 0 0 -5.21-1.047 1.751 1.751 0 1 0 -.265 3.491 18.139 18.139 0 0 1 4.367.877z"/><path d="m64 72.023a17.042 17.042 0 1 0 17.042 17.042 17.061 17.061 0 0 0 -17.042-17.042zm0 30.584a13.542 13.542 0 1 1 13.542-13.542 13.557 13.557 0 0 1 -13.542 13.542z"/></g></g></svg>