<svg enable-background="new 0 0 128 128" height="512" viewBox="0 0 128 128" width="512" xmlns="http://www.w3.org/2000/svg"><g id="Layer_32"><path d="m18.75 32.09h90.5v59.51h-90.5z" fill="#434953"/><path d="m22.75 36.43h82.5v50.51h-82.5z" fill="#6699d1"/><path d="m118.67 90.6v2.33c0 3.32-2.69 6-6 6h-97.34c-3.31 0-6-2.68-6-6v-2.33z" fill="#e5e7ea"/><path d="m76.17 90.6c0 2.46-2 4.46-4.47 4.46h-15.4c-1.24 0-2.35-.5-3.16-1.31s-1.31-1.92-1.31-3.15z" fill="#cecece"/><g fill="#6194c1"><path d="m54.88 71.11v-2.91h-7.84c-.99 0-1.73-.22-2.23-.67s-.74-1.06-.74-1.83c0-.2.04-.4.11-.6s.18-.42.33-.64.3-.44.45-.65.35-.46.58-.77l8.28-11.08c.54-.73.99-1.26 1.34-1.59s.77-.49 1.26-.49c1.58 0 2.38.91 2.38 2.72v12.09h.67c.8 0 1.45.11 1.93.33s.73.7.73 1.44c0 .6-.2 1.04-.59 1.32-.4.28-.99.41-1.78.41h-.95v2.91c0 .8-.18 1.4-.53 1.79s-.83.59-1.42.59c-.58 0-1.05-.2-1.41-.6s-.57-.98-.57-1.77zm-6.72-6.4h6.72v-9.08z"/><path d="m69.87 52.61v8.03l9.11-9.5c.44-.46.81-.8 1.12-1.02s.72-.33 1.23-.33c.67 0 1.21.2 1.62.59s.62.87.62 1.43c0 .68-.35 1.35-1.05 2.02l-5.64 5.34 6.5 9.31c.46.65.8 1.21 1.03 1.7.23.48.34.96.34 1.41 0 .51-.2.95-.6 1.33s-.95.56-1.63.56c-.65 0-1.17-.14-1.58-.41s-.75-.64-1.03-1.1-.53-.88-.75-1.25l-5.48-8.44-3.8 3.64v4.73c0 .96-.22 1.67-.66 2.13s-1 .7-1.69.7c-.4 0-.78-.1-1.14-.31s-.65-.49-.84-.84c-.15-.29-.23-.63-.27-1.02s-.05-.94-.05-1.67v-17.03c0-.94.21-1.64.62-2.11s.97-.7 1.68-.7c.7 0 1.26.23 1.7.7.42.46.64 1.17.64 2.11z"/></g><g><path d="m105.25 36.53v2.39l-16.61 10.73c-.17.11-.36.16-.55.16-.32 0-.65-.16-.84-.45-.02-.03-.03-.05-.04-.08-.24-.46-.09-1.03.34-1.31z" fill="#6194c1"/></g><g><path d="m44.45 75.39-17.86 11.55h-1.84v-1.2l18.61-12.03c.47-.3 1.09-.17 1.39.3.3.46.16 1.08-.3 1.38z" fill="#6194c1"/></g><g><g fill="#e5e7ea"><path d="m52.88 71.11v-2.91h-7.84c-.99 0-1.73-.22-2.23-.67s-.74-1.06-.74-1.83c0-.2.04-.4.11-.6s.18-.42.33-.64.3-.44.45-.65.35-.46.58-.77l8.28-11.08c.54-.73.99-1.26 1.34-1.59s.77-.49 1.26-.49c1.58 0 2.38.91 2.38 2.72v12.09h.67c.8 0 1.45.11 1.93.33s.73.7.73 1.44c0 .6-.2 1.04-.59 1.32-.4.28-.99.41-1.78.41h-.95v2.91c0 .8-.18 1.4-.53 1.79s-.83.59-1.42.59c-.58 0-1.05-.2-1.41-.6s-.57-.98-.57-1.77zm-6.72-6.4h6.72v-9.08z"/><path d="m67.87 52.61v8.03l9.11-9.5c.44-.46.81-.8 1.12-1.02s.72-.33 1.23-.33c.67 0 1.21.2 1.62.59s.62.87.62 1.43c0 .68-.35 1.35-1.05 2.02l-5.64 5.34 6.5 9.31c.46.65.8 1.21 1.03 1.7.23.48.34.96.34 1.41 0 .51-.2.95-.6 1.33s-.95.56-1.63.56c-.65 0-1.17-.14-1.58-.41s-.75-.64-1.03-1.1-.53-.88-.75-1.25l-5.48-8.44-3.8 3.64v4.73c0 .96-.22 1.67-.66 2.13s-1 .7-1.69.7c-.4 0-.78-.1-1.14-.31s-.65-.49-.84-.84c-.15-.29-.23-.63-.27-1.02s-.05-.94-.05-1.67v-17.03c0-.94.21-1.64.62-2.11s.97-.7 1.68-.7c.7 0 1.26.23 1.7.7.42.46.64 1.17.64 2.11z"/></g></g><g><g><path d="m105.25 36.43v1.2l-18.04 11.65-.57.37c-.17.11-.36.16-.55.16-.32 0-.65-.16-.84-.45-.3-.47-.16-1.09.3-1.39l17.86-11.54z" fill="#e5e7ea"/></g></g><g><g><path d="m42.45 75.39-17.86 11.55h-1.84v-1.2l18.61-12.03c.47-.3 1.09-.17 1.39.3.3.46.16 1.08-.3 1.38z" fill="#e5e7ea"/></g></g></g></svg>