<svg height="512pt" viewBox="-81 0 512 512.00066" width="512pt" xmlns="http://www.w3.org/2000/svg"><path d="m293.449219 367.785156c-10.152344-3.117187-40.023438-4.128906-43.398438-4.234375-.460937-.019531-.910156.015625-1.351562.078125-2.746094-.707031-4.785157-3.195312-4.785157-6.160156v-34.582031c3.152344-1.246094 6.246094-2.636719 9.269532-4.175781h7.726562c9.011719 0 16.796875-5.328126 20.378906-12.996094h22.683594c14.832032 0 26.898438-12.070313 26.898438-26.902344v-34.898438c11.371094-6.265624 19.09375-18.367187 19.09375-32.242187 0-20.242187-16.4375-36.714844-36.664063-36.785156l-.074219-14.433594c15.445313-49.777344.664063-85.914063-14.550781-107.519531-21.734375-30.851563-58.445312-51.582032-93.523437-52.804688-47.628906-1.660156-88.949219 12.796875-122.785156 42.988282-29.457032 26.28125-52.484376 64.503906-66.59375 110.539062-17.601563 57.417969-20.625 124.789062-8.296876 184.839844 9.429688 45.9375 26.835938 83.855468 50.238282 110.417968v55.597657c0 4.136719 3.351562 7.488281 7.488281 7.488281h160.15625c9.640625 0 9.65625-14.976562 0-14.976562h-100.339844v-41.214844c20.699219-16.105469 37.539063-37.324219 46.144531-62.273438l27.394532 23.152344c2.761718 2.332031 6.910156 2.332031 9.671875 0l44.984375-38.039062c12.234375.496093 30.21875 1.726562 35.839844 3.453124 26.507812 8.136719 45.023437 33.757813 45.023437 62.308594v6.496094h-46.320313c-4.132812 0-7.484374 3.351562-7.484374 7.488281v38.628907h-16.976563c-9.640625 0-9.65625 14.976562 0 14.976562h78.269531c4.136719 0 7.488282-3.351562 7.488282-7.488281v-60.101563c-.003907-35.066406-22.867188-66.578125-55.605469-76.625zm-49.542969-64.050781c-9.667969 0-9.683594-15.019531 0-15.019531h17.003906c9.667969 0 9.683594 15.019531 0 15.019531zm71.988281-24.921875c0 6.578125-5.347656 11.925781-11.925781 11.925781h-21.253906c-2.457032-9.757812-11.300782-17-21.804688-17h-17.003906c-19.707031 0-29.863281 24.734375-15.695312 38.566407-8.003907 2.152343-16.332032 3.289062-24.828126 3.289062-26.058593 0-50.382812-10.328125-68.484374-29.078125-.546876-.566406-1.164063-1.027344-1.824219-1.386719 7.507812-15.089844 12.410156-35.839844 12.410156-66.851562 0-74.816406 15.765625-105.332032 54.414063-105.332032 40.910156 0 57.074218 49.683594 98.378906 53.570313l.28125 53.914063c0 14.019531-2.972656 27.515624-8.839844 40.117187-3.957031 8.492187 9.441406 15.203125 13.574219 6.320313 2.78125-5.96875 4.992187-12.113282 6.644531-18.402344 1.972656.03125 3.992188.035156 5.957031-.109375zm-2.726562-45.324219h-.402344c.507813-4.3125.769531-8.683593.769531-13.101562l-.160156-30.523438c11.9375.113281 21.613281 9.851563 21.613281 21.808594 0 12.03125-9.789062 21.816406-21.820312 21.816406zm-203.125 263.535157h-37.355469v-33.371094c4.628906 3.917968 9.429688 7.453125 14.40625 10.574218 2.054688 1.285157 4.765625 1.515626 6.984375.511719.976563-.414062 7.246094-3.160156 15.964844-8.53125zm13.960937-59.882813c-11.742187 10.585937-23.363281 17.480469-30.054687 21.007813-16.554688-28.261719-24.636719-54.285157-24.042969-77.4375.25-9.652344-14.722656-10.042969-14.96875-.382813-.445312 17.34375 3.320312 35.90625 11.226562 55.472656-20.273437-24.382812-35.492187-58.757812-44.023437-100.316406-11.835937-57.671875-8.941406-122.34375 7.945313-177.4375 13.3125-43.417969 34.835937-79.292969 62.246093-103.75 30.863281-27.535156 68.640625-40.726563 112.296875-39.203125 30.089844 1.054688 62.964844 19.726562 81.800782 46.464844 12.832031 18.214844 25.269531 48.382812 13.773437 90.082031-21.125-1.835937-34.511719-16.277344-48.90625-30.113281-14.414063-13.847656-30.851563-23.558594-51.398437-23.558594-27.074219 0-46.339844 12.542969-57.269532 37.285156-8.382812 18.976563-12.121094 44.582032-12.121094 83.023438 0 61.011718-19.019531 75.804687-41.039062 92.933594-10.726562 8.339843-19.128906 18.429687-24.980469 29.984374-4.375 8.632813 9.023438 15.328126 13.363281 6.761719 4.84375-9.566406 11.84375-17.953125 20.8125-24.925781 9.242188-7.191406 18.613282-14.480469 26.515626-25.050781 10.910156 11.007812 23.699218 19.425781 37.671874 24.941406 0 44.148437-3.390624 82.253906-38.847656 114.21875zm79.386719-35.976563-27.925781-23.605468c3.203125-16.429688 2.363281-33.257813 2.363281-49.949219 8.265625 1.949219 16.824219 2.957031 25.554687 2.957031 8.710938 0 17.277344-1.015625 25.554688-2.976562v29.878906c0 6.359375 2.796875 12.074219 7.222656 15.988281zm91.855469 95.859376v-31.140626h38.832031v31.140626zm0 0"/></svg>