<svg height="512" viewBox="0 0 88 88" width="512" xmlns="http://www.w3.org/2000/svg"><g id="Credit_Card" data-name="Credit Card"><rect fill="#e6ecff" height="86" rx="5" width="50" x="9" y="1"/><path d="m29 64h30v3h-30z" fill="#b7c6e2"/><path d="m29 21h30v3h-30z" fill="#b7c6e2"/><path d="m53 5h-8a1.0008 1.0008 0 0 0 -.5547.168l-2.748 1.832h-15.3946l-2.748-1.832a1.0008 1.0008 0 0 0 -.5547-.168h-8a2.002 2.002 0 0 0 -2 2v74a2.002 2.002 0 0 0 2 2h38a2.002 2.002 0 0 0 2-2v-74a2.002 2.002 0 0 0 -2-2z" fill="#d0dbf7"/><path d="m29 64h26v3h-26z" fill="#8ea6ce"/><path d="m29 21h26v3h-26z" fill="#8ea6ce"/><path d="m38 62h-8a1 1 0 0 0 -1 1v4a5 5 0 0 0 10 0v-4a1 1 0 0 0 -1-1z" fill="#becced"/><path d="m34 16a5.0059 5.0059 0 0 0 -5 5v4a1 1 0 0 0 1 1h8a1 1 0 0 0 1-1v-4a5.0059 5.0059 0 0 0 -5-5z" fill="#becced"/><path d="m29 64h10v3h-10z" fill="#7e97bc"/><path d="m29 21h10v3h-10z" fill="#7e97bc"/><path d="m78 24h-49v40h49a1 1 0 0 0 1-1v-38a1 1 0 0 0 -1-1z" fill="#e6ecff"/><path d="m29 30h50v10h-50z" fill="#4294ff"/><path d="m66 54a2.9645 2.9645 0 0 1 1.1221-2.3369 1 1 0 0 0 .0009-1.5654 5 5 0 1 0 0 7.8046 1 1 0 0 0 -.0009-1.5654 2.9645 2.9645 0 0 1 -1.1221-2.3369z" fill="#376cfb"/><path d="m69 49a5.0341 5.0341 0 0 0 -3.1221 1.0967 4.9953 4.9953 0 0 0 -.0009 7.8056 4.9992 4.9992 0 1 0 3.123-8.9023z" fill="#4294ff"/></g></svg>