<svg height="512" viewBox="0 0 64 64" width="512" xmlns="http://www.w3.org/2000/svg"><g id="_30-Crutches" data-name="30-Crutches"><path d="m29 8h-20a3 3 0 0 1 -3-3v-2a3 3 0 0 1 3-3h15v2h-15a1 1 0 0 0 -1 1v2a1 1 0 0 0 1 1h20a1 1 0 0 0 1-1v-2a1 1 0 0 0 -1-1h-3v-2h3a3 3 0 0 1 3 3v2a3 3 0 0 1 -3 3z"/><path d="m8 10h2v2h-2z"/><path d="m19 36a11.013 11.013 0 0 1 -11-11v-11h2v11a9 9 0 0 0 18 0v-18h2v18a11.013 11.013 0 0 1 -11 11z"/><path d="m19 32a7.009 7.009 0 0 1 -7-7v-18h2v18a5 5 0 0 0 10 0v-18h2v18a7.009 7.009 0 0 1 -7 7z"/><path d="m22 50h-6a1 1 0 0 1 -1-1v-15h2v14h4v-11h2v12a1 1 0 0 1 -1 1z"/><path d="m24 56h-10a1 1 0 0 1 -.986-1.164l1-6a1 1 0 0 1 .986-.836h8a1 1 0 0 1 .986.836l1 6a1 1 0 0 1 -.986 1.164zm-8.819-2h7.638l-.666-4h-6.306z"/><path d="m16 45h6v2h-6z"/><path d="m22.5 29.379h2v4.243h-2z" transform="matrix(.707 -.707 .707 .707 -15.391 25.843)"/><path d="m12.379 30.5h4.243v2h-4.243z" transform="matrix(.707 -.707 .707 .707 -18.027 19.479)"/><path d="m55 16h-20a3 3 0 0 1 -3-3v-2a3 3 0 0 1 3-3h15v2h-15a1 1 0 0 0 -1 1v2a1 1 0 0 0 1 1h20a1 1 0 0 0 1-1v-2a1 1 0 0 0 -1-1h-3v-2h3a3 3 0 0 1 3 3v2a3 3 0 0 1 -3 3z"/><path d="m34 18h2v2h-2z"/><path d="m45 44a11.013 11.013 0 0 1 -11-11v-11h2v11a9 9 0 0 0 18 0v-18h2v18a11.013 11.013 0 0 1 -11 11z"/><path d="m45 40a7.009 7.009 0 0 1 -7-7v-18h2v18a5 5 0 0 0 10 0v-18h2v18a7.009 7.009 0 0 1 -7 7z"/><path d="m48 58h-6a1 1 0 0 1 -1-1v-15h2v14h4v-11h2v12a1 1 0 0 1 -1 1z"/><path d="m50 64h-10a1 1 0 0 1 -.986-1.164l1-6a1 1 0 0 1 .986-.836h8a1 1 0 0 1 .986.836l1 6a1 1 0 0 1 -.986 1.164zm-8.819-2h7.638l-.666-4h-6.306z"/><path d="m42 53h6v2h-6z"/><path d="m48.5 37.379h2v4.243h-2z" transform="matrix(.707 -.707 .707 .707 -13.433 46.571)"/><path d="m38.379 38.5h4.243v2h-4.243z" transform="matrix(.707 -.707 .707 .707 -16.069 40.207)"/></g></svg>