<svg height="512" viewBox="0 0 88 88" width="512" xmlns="http://www.w3.org/2000/svg"><g id="Stopwatch"><path d="m47 8h-6a1 1 0 0 0 -1 1v6.13a1 1 0 0 0 1 1c.03 0 .06-.0015.09-.0039a33.9052 33.9052 0 0 1 5.8189 0 1.014 1.014 0 0 0 .7656-.2578 1.0015 1.0015 0 0 0 .3255-.7383v-6.13a1 1 0 0 0 -1-1z" fill="#376cfb"/><path d="m22.1714 22.5146-4.3345-4.3346a1 1 0 0 0 -1.414 0l-4.2429 4.2429a1 1 0 0 0 0 1.414l4.3344 4.3345a1 1 0 0 0 .7071.293l.0454-.001a1 1 0 0 0 .7226-.3589c.5928-.7105 1.2549-1.4326 1.9693-2.146.7129-.7139 1.435-1.376 2.1455-1.9688a.9995.9995 0 0 0 .0669-1.4751z" fill="#376cfb"/><path d="m75.8193 22.4229-4.2422-4.2429a.9995.9995 0 0 0 -1.414 0l-4.335 4.3344a1 1 0 0 0 .0664 1.4751c.709.5909 1.4317 1.2535 2.1475 1.9688.7139.7144 1.3769 1.4365 1.9687 2.146a.9983.9983 0 0 0 .7227.3589l.0449.001a.999.999 0 0 0 .7071-.293l4.3339-4.3345a.9994.9994 0 0 0 0-1.4138z" fill="#376cfb"/><rect fill="#4294ff" height="8" rx="1" width="16" x="36" y="2"/><path d="m20.6655 15.3521-4.2426-4.2427a1 1 0 0 0 -1.4141 0l-9.8994 9.8994a1 1 0 0 0 0 1.4141l4.2427 4.2426a.9995.9995 0 0 0 1.414 0l9.8994-9.8994a.9994.9994 0 0 0 0-1.414z" fill="#4294ff"/><path d="m82.8906 21.0088-9.8994-9.8994a1.0294 1.0294 0 0 0 -1.4141 0l-4.2421 4.2427a.9994.9994 0 0 0 0 1.414l9.8994 9.8994a.9995.9995 0 0 0 1.414 0l4.2422-4.2426a1 1 0 0 0 0-1.4141z" fill="#4294ff"/><circle cx="44" cy="50" fill="#e6ecff" r="36"/><circle cx="44" cy="50" fill="#4294ff" r="32"/><path d="m56.8906 47.1978-.3545-.4761a2.7281 2.7281 0 0 1 -.5361-1.6172v-.4566a4.6963 4.6963 0 0 0 -3.5713-4.5664 2.706 2.706 0 0 1 -1.5254-1.019l-.0879-.1191a4.6885 4.6885 0 0 0 -5.63-1.5352l-.1123.0479a2.7616 2.7616 0 0 1 -2.2065-.0376 4.6854 4.6854 0 0 0 -5.6494 1.51l-.09.1221a2.7616 2.7616 0 0 1 -1.57 1.0244 4.7 4.7 0 0 0 -3.5572 4.5632v.4536a2.7222 2.7222 0 0 1 -.5464 1.63l-.3276.4341a4.73 4.73 0 0 0 -.0171 5.6464l.355.4761a2.7233 2.7233 0 0 1 .5361 1.6171v.4566a4.6963 4.6963 0 0 0 3.5718 4.5664 2.7135 2.7135 0 0 1 1.5254 1.019l.0879.1191a4.6891 4.6891 0 0 0 5.6313 1.5347l.11-.0474a2.7616 2.7616 0 0 1 2.2065.0376 4.69 4.69 0 0 0 5.6494-1.5092l.002-.003.0888-.12a2.7583 2.7583 0 0 1 1.57-1.0244 4.7006 4.7006 0 0 0 3.5569-4.5631v-.4536a2.7257 2.7257 0 0 1 .5459-1.63l.3281-.4345a4.7279 4.7279 0 0 0 .0166-5.6459z" fill="#376cfb"/><path d="m38 57a1 1 0 0 1 -.707-1.707l12-12a1 1 0 0 1 1.414 1.414l-12 12a.9967.9967 0 0 1 -.707.293z" fill="#2946ed"/><circle cx="40" cy="46" fill="#2946ed" r="3"/><circle cx="48" cy="54" fill="#2946ed" r="3"/><g fill="#376cfb"><path d="m44 26a1 1 0 0 1 -1-1v-2a1 1 0 0 1 2 0v2a1 1 0 0 1 -1 1z"/><path d="m31.501 29.3491a1 1 0 0 1 -.8672-.5l-1-1.7319a1 1 0 1 1 1.7324-1l1 1.7319a1 1 0 0 1 -.8652 1.5z"/><path d="m22.3481 38.5a.9959.9959 0 0 1 -.499-.1338l-1.7319-1a1 1 0 0 1 1-1.7324l1.7319 1a1 1 0 0 1 -.501 1.8662z"/><path d="m19 51h-2a1 1 0 0 1 0-2h2a1 1 0 0 1 0 2z"/><path d="m20.6182 64.5a1 1 0 0 1 -.501-1.8662l1.7319-1a1 1 0 1 1 1 1.7324l-1.7319 1a.9959.9959 0 0 1 -.499.1338z"/><path d="m30.499 74.3828a1 1 0 0 1 -.8652-1.5l1-1.7319a1 1 0 1 1 1.7324 1l-1 1.7319a1 1 0 0 1 -.8672.5z"/><path d="m57.501 74.3828a1 1 0 0 1 -.8672-.5l-1-1.7319a1 1 0 0 1 1.7324-1l1 1.7319a1 1 0 0 1 -.8652 1.5z"/><path d="m67.3818 64.5a.9946.9946 0 0 1 -.499-.1338l-1.7324-1a1 1 0 1 1 1-1.7324l1.7324 1a1 1 0 0 1 -.501 1.8662z"/><path d="m71 51h-2a1 1 0 0 1 0-2h2a1 1 0 0 1 0 2z"/><path d="m65.6514 38.5a1 1 0 0 1 -.501-1.8662l1.7324-1a1 1 0 0 1 1 1.7324l-1.7324 1a.9946.9946 0 0 1 -.499.1338z"/><path d="m56.499 29.3491a1 1 0 0 1 -.8652-1.5l1-1.7319a1 1 0 0 1 1.7324 1l-1 1.7319a1 1 0 0 1 -.8672.5z"/><path d="m44 78a1 1 0 0 1 -1-1v-2a1 1 0 0 1 2 0v2a1 1 0 0 1 -1 1z"/></g></g></svg>