<svg enable-background="new 0 0 128 128" height="512" viewBox="0 0 128 128" width="512" xmlns="http://www.w3.org/2000/svg"><g id="Layer_33"><path d="m18.75 32.09h90.5v59.51h-90.5z" fill="#434953"/><path d="m22.75 36.43h82.5v50.51h-82.5z" fill="#6699d1"/><path d="m118.67 90.6v2.33c0 3.32-2.69 6-6 6h-97.34c-3.31 0-6-2.68-6-6v-2.33z" fill="#e5e7ea"/><path d="m76.17 90.6c0 2.46-2 4.46-4.47 4.46h-15.4c-1.24 0-2.35-.5-3.16-1.31s-1.31-1.92-1.31-3.15z" fill="#cecece"/><g fill="#6194c1"><path d="m52.23 54.93h-7.14v4.58h5.97c.55 0 .97.12 1.24.37s.41.58.41 1-.14.74-.42.99c-.28.24-.69.37-1.23.37h-5.97v5.9c0 .75-.17 1.3-.51 1.67-.34.36-.77.54-1.3.54-.54 0-.97-.18-1.31-.55s-.51-.92-.51-1.66v-13.78c0-.52.08-.95.23-1.28s.4-.57.73-.72.75-.23 1.26-.23h8.54c.58 0 1.01.13 1.29.38.28.26.42.59.42 1.01s-.14.76-.42 1.02c-.27.26-.7.39-1.28.39z"/><path d="m60.29 54.03v5.13h7.82v-5.13c0-.73.17-1.28.49-1.65.33-.37.76-.55 1.3-.55s.99.18 1.32.54c.34.36.51.91.51 1.65v14.1c0 .74-.17 1.29-.51 1.66s-.78.55-1.32.55c-.55 0-.98-.18-1.31-.55s-.49-.92-.49-1.65v-6.02h-7.82v6.02c0 .74-.17 1.29-.51 1.66s-.78.55-1.32.55c-.55 0-.98-.18-1.31-.55s-.49-.92-.49-1.65v-14.1c0-.73.16-1.28.48-1.65s.76-.55 1.31-.55c.54 0 .99.18 1.32.54.36.36.53.91.53 1.65z"/><path d="m77.88 52.14h4.72c1.23 0 2.28.11 3.16.34s1.68.66 2.39 1.28c1.86 1.6 2.8 4.02 2.8 7.28 0 1.07-.09 2.06-.28 2.94s-.48 1.69-.87 2.4-.89 1.35-1.5 1.91c-.48.43-1 .78-1.58 1.04-.57.26-1.18.44-1.84.55s-1.39.16-2.22.16h-4.72c-.66 0-1.16-.1-1.49-.3s-.55-.48-.65-.84-.15-.83-.15-1.41v-13.13c0-.78.17-1.35.52-1.7.36-.35.92-.52 1.71-.52zm1.4 2.86v12.15h2.75c.6 0 1.07-.02 1.42-.05s.7-.11 1.06-.24c.37-.13.68-.31.95-.55 1.21-1.03 1.82-2.79 1.82-5.3 0-1.77-.27-3.09-.8-3.97s-1.19-1.44-1.97-1.68-1.73-.36-2.84-.36z"/></g><g><path d="m105.25 36.53v2.39l-16.61 10.73c-.17.11-.36.16-.55.16-.32 0-.65-.16-.84-.45-.02-.03-.03-.05-.04-.08-.24-.46-.09-1.03.34-1.31z" fill="#6194c1"/></g><g><path d="m44.45 75.39-17.86 11.55h-2.84c0-.33.15-.65.45-.84l18.59-12.02.57-.37c.47-.3 1.09-.17 1.39.3.3.46.16 1.08-.3 1.38z" fill="#6194c1"/></g><g fill="#e5e7ea"><path d="m50.23 54.93h-7.14v4.58h5.97c.55 0 .97.12 1.24.37s.41.58.41 1-.14.74-.42.99c-.28.24-.69.37-1.23.37h-5.97v5.9c0 .75-.17 1.3-.51 1.67-.34.36-.77.54-1.3.54-.54 0-.97-.18-1.31-.55s-.51-.92-.51-1.66v-13.78c0-.52.08-.95.23-1.28s.4-.57.73-.72.75-.23 1.26-.23h8.54c.58 0 1.01.13 1.29.38.28.26.42.59.42 1.01s-.14.76-.42 1.02c-.27.26-.7.39-1.28.39z"/><path d="m58.29 54.03v5.13h7.82v-5.13c0-.73.17-1.28.49-1.65.33-.37.76-.55 1.3-.55s.99.18 1.32.54c.34.36.51.91.51 1.65v14.1c0 .74-.17 1.29-.51 1.66s-.78.55-1.32.55c-.55 0-.98-.18-1.31-.55s-.49-.92-.49-1.65v-6.02h-7.82v6.02c0 .74-.17 1.29-.51 1.66s-.78.55-1.32.55c-.55 0-.98-.18-1.31-.55s-.49-.92-.49-1.65v-14.1c0-.73.16-1.28.48-1.65s.76-.55 1.31-.55c.54 0 .99.18 1.32.54.36.36.53.91.53 1.65z"/><path d="m75.88 52.14h4.72c1.23 0 2.28.11 3.16.34s1.68.66 2.39 1.28c1.86 1.6 2.8 4.02 2.8 7.28 0 1.07-.09 2.06-.28 2.94s-.48 1.69-.87 2.4-.89 1.35-1.5 1.91c-.48.43-1 .78-1.58 1.04-.57.26-1.18.44-1.84.55s-1.39.16-2.22.16h-4.72c-.66 0-1.16-.1-1.49-.3s-.55-.48-.65-.84-.15-.83-.15-1.41v-13.13c0-.78.17-1.35.52-1.7.36-.35.92-.52 1.71-.52zm1.4 2.86v12.15h2.75c.6 0 1.07-.02 1.42-.05s.7-.11 1.06-.24c.37-.13.68-.31.95-.55 1.21-1.03 1.82-2.79 1.82-5.3 0-1.77-.27-3.09-.8-3.97s-1.19-1.44-1.97-1.68-1.73-.36-2.84-.36z"/></g><g><path d="m105.25 36.43v1.2l-18.04 11.65-.57.37c-.17.11-.36.16-.55.16-.32 0-.65-.16-.84-.45-.3-.47-.16-1.09.3-1.39l17.86-11.54z" fill="#e5e7ea"/></g><g><path d="m42.45 75.39-17.86 11.55h-1.84v-1.2l18.61-12.03c.47-.3 1.09-.17 1.39.3.01.02.03.04.04.07.25.45.1 1.02-.34 1.31z" fill="#e5e7ea"/></g></g></svg>