<svg height="512" viewBox="0 0 128 128" width="512" xmlns="http://www.w3.org/2000/svg"><g><path d="m99.384 65.316a15 15 0 0 1 -8.113-2.381 15.079 15.079 0 0 1 -27.271 5.807 15.079 15.079 0 0 1 -27.271-5.807 14.748 14.748 0 0 1 -10.493 2.175l-.012.016 6.347 56.568h62.858l6.347-56.568v-.017a15.17 15.17 0 0 1 -2.392.207z" fill="#ef3829"/><path d="m99.384 35.136a13.2 13.2 0 0 0 -18.763-11.992 18.928 18.928 0 0 0 -33.242 0 13.2 13.2 0 0 0 -18.763 11.992 15.09 15.09 0 1 0 8.113 27.8 15.079 15.079 0 0 0 27.271 5.806 15.079 15.079 0 0 0 27.271-5.807 15.085 15.085 0 1 0 8.113-27.8z" fill="#8c3f07"/><circle cx="64" cy="13.05" fill="#ef3829" r="6.744"/><path d="m76.44 75.3a15.067 15.067 0 0 1 -12.44-6.558 15.05 15.05 0 0 1 -16.206 6.073l5.26 46.87h21.9l5.26-46.87v-.006a15.047 15.047 0 0 1 -3.774.491z" fill="#f2e7cb"/><g fill="#422002"><path d="m30.744 105.411a1.75 1.75 0 0 0 1.544-1.935l-.5-4.471a1.75 1.75 0 1 0 -3.478.391l.5 4.471a1.749 1.749 0 0 0 1.737 1.554 1.87 1.87 0 0 0 .197-.01z"/><path d="m116.224 50.226a16.865 16.865 0 0 0 -15.182-16.759 14.994 14.994 0 0 0 -14.879-13.3 14.772 14.772 0 0 0 -4.8.8 20.694 20.694 0 0 0 -8.879-7.618c0-.1.015-.2.015-.3a8.494 8.494 0 0 0 -16.988 0c0 .1.012.2.015.3a20.694 20.694 0 0 0 -8.879 7.618 14.772 14.772 0 0 0 -4.8-.8 14.994 14.994 0 0 0 -14.879 13.3 16.83 16.83 0 0 0 -2.334 33.1l2.718 24.223a1.751 1.751 0 0 0 1.738 1.555 1.888 1.888 0 0 0 .2-.011 1.751 1.751 0 0 0 1.531-1.934l-2.621-23.355c.14 0 .275.021.416.021a16.742 16.742 0 0 0 6.978-1.523 16.827 16.827 0 0 0 10.582 10.619l4.912 43.781h-16.953l-.928-8.278a1.75 1.75 0 0 0 -3.479.39l1.1 9.834a1.749 1.749 0 0 0 1.739 1.554h62.862a1.749 1.749 0 0 0 1.739-1.554l4.516-40.239a1.75 1.75 0 0 0 -3.479-.39l-4.34 38.683h-16.953l4.912-43.781a16.827 16.827 0 0 0 10.582-10.619 16.742 16.742 0 0 0 6.978 1.523c.141 0 .276-.018.416-.021l-.739 6.583a1.751 1.751 0 0 0 1.544 1.935 1.873 1.873 0 0 0 .2.011 1.751 1.751 0 0 0 1.738-1.555l.836-7.451a16.855 16.855 0 0 0 12.845-16.342zm-52.224-42.169a4.993 4.993 0 1 1 -4.994 4.993 5 5 0 0 1 4.994-4.993zm9.39 111.886h-18.78l-4.824-43a16.633 16.633 0 0 0 14.214-5.392 16.633 16.633 0 0 0 14.214 5.393zm25.994-56.377a13.287 13.287 0 0 1 -7.17-2.105 1.75 1.75 0 0 0 -2.664 1.16 13.329 13.329 0 0 1 -24.108 5.13 1.815 1.815 0 0 0 -2.884 0 13.329 13.329 0 0 1 -24.108-5.13 1.75 1.75 0 0 0 -2.664-1.16 13.335 13.335 0 1 1 -7.17-24.575 1.75 1.75 0 0 0 1.75-1.75 11.484 11.484 0 0 1 11.471-11.471 11.365 11.365 0 0 1 4.806 1.067 1.75 1.75 0 0 0 2.272-.75 17.209 17.209 0 0 1 7.477-7.182 8.476 8.476 0 0 0 15.216 0 17.209 17.209 0 0 1 7.477 7.178 1.75 1.75 0 0 0 2.272.75 11.365 11.365 0 0 1 4.806-1.067 11.484 11.484 0 0 1 11.471 11.475 1.75 1.75 0 0 0 1.75 1.75 13.34 13.34 0 1 1 0 26.68z"/><path d="m81.512 31.812-4.79 2.714a1.75 1.75 0 1 0 1.725 3.045l4.79-2.714a1.75 1.75 0 0 0 -1.725-3.045z"/><path d="m54.054 34.852-6.73-1.063a1.75 1.75 0 1 0 -.546 3.457l6.73 1.063a1.852 1.852 0 0 0 .275.022 1.75 1.75 0 0 0 .271-3.479z"/><path d="m65.077 50.192a1.75 1.75 0 1 0 -3.108 1.608l2.313 4.471a1.75 1.75 0 1 0 3.108-1.608z"/><path d="m95.787 47.676a1.75 1.75 0 1 0 -2.365 2.58l3.627 3.324a1.75 1.75 0 0 0 2.365-2.58z"/><path d="m32.419 48.221-3.268 3.885a1.75 1.75 0 0 0 2.679 2.253l3.27-3.885a1.75 1.75 0 0 0 -2.679-2.253z"/></g></g></svg>