<svg height="512pt" viewBox="-106 0 512 512.00082" width="512pt" xmlns="http://www.w3.org/2000/svg"><path d="m207.777344 477.136719c0 4.140625 3.355468 7.496093 7.496094 7.496093h36.976562c9.652344 0 9.667969-14.992187 0-14.992187h-36.976562c-4.140626 0-7.496094 3.359375-7.496094 7.496094zm0 0"/><path d="m158.804688 271.761719h-19.988282c-4.136718 0-7.492187 3.355469-7.492187 7.496093 0 4.140626 3.355469 7.492188 7.492187 7.492188h19.988282c4.140624 0 7.496093-3.351562 7.496093-7.492188 0-4.140624-3.355469-7.496093-7.496093-7.496093zm0 0"/><path d="m280.21875 53.421875-39.203125-40.433594c-10.246094-10.5625-25.316406-14.328125-39.320313-9.820312l-90.0625 28.976562-11.355468-27.578125c-2.296875-5.574218-10.210938-6.195312-13.34375-1.03125l-15.671875 25.859375-18.355469-13.949219c-4.742188-3.605468-11.820312-.257812-12.027344 5.707032l-.925781 26.964844-13.6875 21.773437c-5.136719 8.171875 7.546875 16.160156 12.691406 7.976563l14.761719-23.484376c.703125-1.121093 1.097656-2.40625 1.144531-3.730468l.5-14.511719 13.457031 10.226563c3.480469 2.644531 8.679688 1.65625 10.945313-2.082032l12.296875-20.289062 8.34375 20.257812c1.488281 3.613282 5.503906 5.476563 9.226562 4.28125l96.652344-31.097656c8.539063-2.746094 17.722656-.453125 23.964844 5.988281l39.25 40.480469c13.777344 13.96875 19.089844 34.394531 13.859375 53.300781l-16.304687 58.746094c-2.613282-.625-5.332032-.96875-8.125-.996094v-28.066406c0-31.164063-25.355469-56.519531-56.523438-56.519531h-107.214844c-31.164062 0-56.519531 25.355468-56.519531 56.519531v28.066406c-2.941406.03125-5.800781.40625-8.539063 1.089844l-13.394531-39.074219c-3.253906-9.921875-1.933593-20.679687 3.621094-29.519531 5.136719-8.171875-7.542969-16.164063-12.691406-7.980469-7.9375 12.628906-9.824219 28-5.140625 42.265625l14.027344 40.921875c-8.6875 6.734375-14.296876 17.261719-14.296876 29.082032 0 20.160156 16.300782 36.574218 36.414063 36.78125v22.929687c0 35.078125 16.488281 66.378906 42.117187 86.5625-.960937 1.65625-1.792968 3.363281-2.46875 5.128906-4.777343.828125-11.328124 2.160157-17.632812 4.070313-16.277344 4.941406-30.90625 15.125-41.195312 28.679687-10.679688 14.070313-16.324219 30.851563-16.324219 48.535157v60.074218c0 4.140625 3.355469 7.496094 7.496093 7.496094h33.210938c9.652344 0 9.667969-14.988281 0-14.988281h-25.714844v-52.582031c0-29.09375 18.839844-54.359376 46.878906-62.871094 3.71875-1.125 7.617188-2.035156 10.945313-2.71875.324219 5.699218 1.800781 11.628906 4.472656 17.617187 7 15.695313 21.726563 31.675781 43.769531 47.5l10.042969 21.019531-14.125 32.035157h-41.289062c-9.652344 0-9.667969 14.988281 0 14.988281h208.082031c4.140625 0 7.496094-3.355469 7.496094-7.496094v-60.074218c0-17.863282-5.765625-34.78125-16.671875-48.925782-10.488281-13.601562-25.363281-23.753906-41.894531-28.59375-4.222657-1.234375-11.203126-2.640625-16.441407-3.617187-.695312-1.84375-1.5625-3.621094-2.566406-5.347657 16.730469-13.144531 29.691406-31.097656 36.589844-52.125 7.152343 0 13.757812-.75 19.753906-5.074218 6.96875-5.027344 11.210937-13.253906 11.210937-21.851563v-41.011719c6.742188-6.671874 10.929688-15.925781 10.929688-26.140624 0-11.929688-5.710938-22.542969-14.535156-29.273438l17-61.257812c6.65625-24.066407-.101563-50.058594-17.589844-67.789063zm.136719 158.316406c0 11.894531-9.578125 21.589844-21.425781 21.792969v-43.582031c11.847656.203125 21.425781 9.894531 21.425781 21.789062zm-226.691407-35.019531v-29.828125c0-22.898437 18.628907-41.53125 41.527344-41.53125h107.21875c22.898438 0 41.527344 18.632813 41.527344 41.53125v29.738281c-13.835938 3.5625-24.167969 18.242188-24.167969 30.671875v19.988281c0 14.953126-16.753906 26.335938-30.589843 22.726563-9.851563-2.570313-14.667969-5.445313-18.921876-7.984375-13.71875-8.195312-29.175781-8.195312-42.894531 0-4.25 2.539062-9.066406 5.414062-18.921875 7.984375-13.835937 3.609375-30.589844-7.777344-30.589844-22.726563v-19.988281c.003907-14.566406-10.5-27.191406-24.1875-30.582031zm-36.414062 35.019531c0-11.890625 9.574219-21.585937 21.421875-21.789062v43.582031c-11.847656-.203125-21.421875-9.898438-21.421875-21.792969zm131.5 210.875c1.21875 1.714844 2.523438 3.546875 3.828125 5.375 2.527344 3.542969 5.054687 7.082031 6.96875 9.757813l-10.109375 21.167968c-.226562.230469-.433594.472657-.625.730469-.292969-.390625-.625-.757812-.996094-1.085937l-9.859375-20.640625c3.855469-5.492188 7.71875-10.96875 10.792969-15.304688zm.070312-22.03125c-7.199218-4.3125-23.425781-14.535156-31.492187-23.589843 9.980469 2.980468 20.542969 4.589843 31.472656 4.589843 10.886719 0 21.496094-1.617187 31.558594-4.644531-8.050781 9.066406-24.328125 19.324219-31.539063 23.644531zm-54.671874-10.230469c-4.023438-9.019531-4.324219-17.214843-.925782-23.859374 2.03125 1.195312 4.101563 2.324218 6.210938 3.386718-.769532 5.382813 1.355468 10.992188 6.359375 16.710938 8.261719 9.441406 23.117187 19.34375 32.003906 24.839844l-11.714844 15.1875c-15.84375-12.375-26.824219-24.8125-31.933593-36.265626zm48.613281 92.515626c3.035156 3.726562 9.09375 3.660156 12.03125-.15625l6.300781 14.296874h-24.566406zm123.128906-78.210938c8.867187 11.496094 13.554687 25.25 13.554687 39.773438v52.578124h-101.964843l-14.21875-32.253906 9.8125-20.546875c.074219-.046875.152343-.082031.222656-.136719 22.132813-15.859374 36.914063-31.882812 43.933594-47.613281 2.644531-5.933593 4.117187-11.808593 4.457031-17.457031 4.378906.882812 7.890625 1.6875 9.964844 2.296875 13.515625 3.953125 25.671875 12.25 34.238281 23.359375zm-62.351563-14.304688c-5.128906 11.492188-16.164062 23.976563-32.101562 36.394532l-11.738281-15.226563c8.863281-5.476562 23.839843-15.433593 32.148437-24.929687 5.019532-5.742188 7.144532-11.378906 6.347656-16.777344 2.113282-1.066406 4.203126-2.179688 6.242188-3.375 3.425781 6.652344 3.132812 14.871094-.898438 23.914062zm65.882813-111.460937c0 15.976563-22.601563 11.933594-33.210937 11.933594-2.460938-9.765625-11.3125-17.015625-21.832032-17.015625h-17.015625c-12.414062 0-22.511719 10.097656-22.511719 22.507812 0 12.414063 10.097657 22.511719 22.511719 22.511719h17.015625c9.019532 0 16.8125-5.335937 20.402344-13.011719h2.746094c-14.027344 36.207032-49.246094 60.773438-88.726563 60.773438-52.460937 0-95.136719-42.679688-95.136719-95.136719v-78.800781c5.351563 2.792968 9.199219 8.445312 9.199219 14.644531v19.988281c0 24.601563 26.179688 43.285156 49.363281 37.234375 11.921876-3.109375 18.222657-6.871093 22.824219-9.617187 9.046875-5.402344 18.472657-5.40625 27.523438 0 4.601562 2.746094 10.902343 6.507812 22.824219 9.617187 23.183593 6.050781 49.363281-12.632812 49.363281-37.234375v-19.988281c0-5.683594 4.351562-11.421875 9.179687-14.398437v67.867187c0 9.671875 14.988282 9.667969 14.988282 0v-12.246094c3.648437-.035156 7.167968-.601562 10.492187-1.628906zm-47.523437 17.429687c0 4.144532-3.371094 7.515626-7.519532 7.515626h-17.015625c-4.148437 0-7.519531-3.371094-7.519531-7.515626 0-4.144531 3.371094-7.519531 7.519531-7.519531h17.015625c4.148438 0 7.519532 3.371094 7.519532 7.519531zm0 0"/></svg>