<svg enable-background="new 0 0 128 128" height="512" viewBox="0 0 128 128" width="512" xmlns="http://www.w3.org/2000/svg"><g id="Layer_34"><path d="m18.75 32.09h90.5v59.51h-90.5z" fill="#434953"/><path d="m22.75 36.43h82.5v50.51h-82.5z" fill="#6699d1"/><path d="m118.67 90.6v2.33c0 3.32-2.69 6-6 6h-97.34c-3.31 0-6-2.68-6-6v-2.33z" fill="#e5e7ea"/><path d="m76.17 90.6c0 2.46-2 4.46-4.47 4.46h-15.4c-1.24 0-2.35-.5-3.16-1.31s-1.31-1.92-1.31-3.15z" fill="#cecece"/><path d="m101.68 54.98c1.22 0 2.41-.13 3.57-.35v-18.2h-22.13c0 10.25 8.31 18.55 18.56 18.55z" fill="#6194c1"/><circle cx="101.68" cy="36.43" fill="#fdcc58" r="16.32"/><g><path d="m112.93 35.05h-22.5c-.55 0-1-.45-1-1s.45-1 1-1h22.5c.55 0 1 .45 1 1s-.45 1-1 1z" fill="#434953"/></g><g><path d="m112.93 39.8h-22.5c-.55 0-1-.45-1-1s.45-1 1-1h22.5c.55 0 1 .45 1 1s-.45 1-1 1z" fill="#434953"/></g><g><g fill="#5ac0a6"><path d="m102.39 41.55c-.01-.01-.03-.02-.04-.03-.04-.03-.08-.06-.12-.09s-.08-.05-.13-.08c-.01-.01-.03-.02-.04-.02-.03-.01-.06-.01-.09-.02-.05-.01-.09-.03-.14-.04s-.1-.01-.15-.01-.09 0-.14.01-.1.02-.15.04c-.03.01-.06.01-.09.02-.01.01-.03.02-.04.02-.04.02-.08.05-.13.08-.04.03-.08.06-.12.09-.01.01-.03.02-.04.03l-3.18 3.18c-.39.39-.39 1.02 0 1.41s1.02.39 1.41 0l1.47-1.47v4.75c0 .55.45 1 1 1s1-.45 1-1v-4.75l1.47 1.47c.39.39 1.02.39 1.41 0s.39-1.02 0-1.41z"/><path d="m100.97 31.31c.01.01.02.01.03.02.09.08.18.15.29.2.12.05.25.08.38.08s.26-.03.38-.08c.11-.05.21-.12.29-.2.01-.01.02-.01.03-.02l3.18-3.18c.39-.39.39-1.02 0-1.41s-1.02-.39-1.41 0l-1.47 1.47v-4.75c0-.55-.45-1-1-1s-1 .45-1 1v4.75l-1.47-1.47c-.39-.39-1.02-.39-1.41 0s-.39 1.02 0 1.41z"/></g></g></g></svg>