<svg height="512" viewBox="0 0 88 88" width="512" xmlns="http://www.w3.org/2000/svg"><g id="T_Shirt" data-name="T Shirt"><path d="m70.5369 37.7053-10.5369-6.7053h-48l-10.5369 6.7053a1 1 0 0 0 -.4631.8437v47.451a1 1 0 0 0 1 1h68a1 1 0 0 0 1-1v-47.451a1 1 0 0 0 -.4631-.8437z" fill="#e6ecff"/><path d="m37 37v50h-2v-50a1 1 0 0 1 2 0z" fill="#becced"/><path d="m65 54h-14a1 1 0 0 0 -1 1v14a1 1 0 0 0 .5039.8682l7 4a1 1 0 0 0 .9922 0l7-4a1 1 0 0 0 .5039-.8682v-14a1 1 0 0 0 -1-1z" fill="#4294ff"/><path d="m65 54h-14a1 1 0 0 0 -1 1v5h16v-5a1 1 0 0 0 -1-1z" fill="#376cfb"/><g fill="#4294ff"><path d="m42 57a2 2 0 1 1 2-2 2.0023 2.0023 0 0 1 -2 2z"/><path d="m42 68a2 2 0 1 1 2-2 2.0023 2.0023 0 0 1 -2 2z"/><path d="m42 79a2 2 0 1 1 2-2 2.0023 2.0023 0 0 1 -2 2z"/><path d="m86 1h-30a1 1 0 0 0 -.7476.3359l-8 9a1 1 0 0 0 0 1.3282l8 9a1 1 0 0 0 .7476.3359h30a1 1 0 0 0 1-1v-18a1 1 0 0 0 -1-1z"/></g><path d="m81 10a1 1 0 0 0 1-1v-.1455a2.8485 2.8485 0 0 0 -2-2.71v-.1445a1 1 0 0 0 -2 0v.145a2.8439 2.8439 0 0 0 -.4224 5.2622l1.95.9746a.854.854 0 0 1 -.3816 1.6182h-.292a.8556.8556 0 0 1 -.854-.8545v-.1455a1 1 0 0 0 -2 0v.1455a2.8484 2.8484 0 0 0 2 2.7094v.1451a1 1 0 0 0 2 0v-.1451a2.8438 2.8438 0 0 0 .4224-5.2621l-1.95-.9746a.854.854 0 0 1 .3816-1.6182h.292a.8556.8556 0 0 1 .854.8545v.1455a1 1 0 0 0 1 1z" fill="#376cfb"/><circle cx="59" cy="11" fill="#376cfb" r="4"/><path d="m21 25h-10.5a7.5 7.5 0 0 1 0-15h48.5a1 1 0 0 1 0 2h-48.5a5.5 5.5 0 0 0 0 11h10.5a1 1 0 0 1 0 2z" fill="#376cfb"/><path d="m60 11a1.0029 1.0029 0 0 1 -1 1h-3.87a3.9112 3.9112 0 0 1 0-2h3.87a1.0029 1.0029 0 0 1 1 1z" fill="#2045ce"/><path d="m52 23-16 14-16-14z" fill="#becced"/><path d="m12 31 14 14 10-8-16-14z" fill="#d0dbf7"/><path d="m60 31-14 14-10-8 16-14z" fill="#d0dbf7"/></g></svg>