<svg height="512pt" viewBox="-109 0 512 512" width="512pt" xmlns="http://www.w3.org/2000/svg"><path d="m199.308594 352.089844c2.480468 1.105468 5.367187.777344 7.539062-.851563l15.617188-11.710937 19.523437 13.828125c2.90625 2.058593 6.859375 1.785156 9.457031-.648438l11.734376-11 20.070312 12.84375c6.089844 3.894531 13.71875-2.617187 10.941406-9.226562-5.078125-12.101563-14.613281-49.371094-14.882812-104.617188 8.574218-6.742187 14.097656-17.195312 14.097656-28.921875 0-12.730468-6.503906-23.96875-16.359375-30.578125v-60.796875c0-76.523437-47.347656-120.410156-129.902344-120.410156h-.5c-25.988281 0-48.800781 4.390625-67.808593 13.046875-8.78125 4-2.585938 17.648437 6.214843 13.640625 17.039063-7.761719 37.765625-11.699219 61.59375-11.699219h.5c34.855469 0 63.546875 8.675781 82.972657 25.085938 21.195312 17.90625 31.941406 44.933593 31.941406 80.335937v54.992188c-1.613282-.238282-3.257813-.367188-4.925782-.390625v-20.472657c0-13.230468-3.585937-25.382812-10.367187-35.148437-8.269531-11.902344-21.359375-19.394531-35.585937-21.601563-17.410157-2.695312-34.179688 3.851563-50.117188 10.023438-17.84375 6.910156-36.289062 14.050781-59 12.125-17.0625-1.453125-35.425781.929688-48.871094 12.414062-10.390625 8.878907-16.554687 22.503907-16.554687 36.175782v6.5c-1.664063.046875-3.300781.207031-4.90625.46875v-55.085938c0-30.472656 8.003906-54.84375 23.792969-72.4375 6.445312-7.179687-4.699219-17.207031-11.152344-10.011718-18.335938 20.425781-27.628906 48.164062-27.628906 82.449218v61.054688c-9.578126 6.46875-16.035157 17.183594-16.367188 29.292968-.3320312 12.050782 5.375 23.617188 15.09375 30.746094-.464844 54.257813-9.851562 90.851563-14.871094 102.808594-2.808594 6.613281 4.839844 13.144531 10.941406 9.242188l20.066407-12.84375 11.734375 11c2.597656 2.433593 6.550781 2.707031 9.457031.644531l19.527344-13.828125 15.613281 11.710937c2.171875 1.628907 5.058594 1.957031 7.539062.855469l10.882813-4.839844v11.28125c0 3.503906-2.851563 6.355469-6.351563 6.355469h-18.179687c-44.417969 0-80.554687 36.132813-80.554687 80.550781v60.0625c0 4.140625 3.355468 7.496094 7.492187 7.496094h39.203125c9.648438 0 9.664062-14.988281 0-14.988281h-31.707031v-52.570313c0-23.9375 13.519531-46.429687 34.582031-57.769531 9.699219-5.21875 20.425781-7.722656 31.410156-7.792969 6.871094-.046875 14.171875.769532 20.984375-.273437 4.578125 19.882812 22.40625 34.753906 43.65625 34.753906s39.078125-14.871094 43.65625-34.75c1.046875.160156 2.117188.269531 3.210938.269531h18.175781c36.15625 0 65.570312 29.410156 65.570312 65.5625v52.570313h-20.695312v-25.863281c0-4.140626-3.355469-7.496094-7.496094-7.496094h-66.949218c-4.136719 0-7.492188 3.355468-7.492188 7.496094v25.863281h-87.933594c-9.652344 0-9.667968 14.988281 0 14.988281h198.058594c4.140625 0 7.496094-3.355469 7.496094-7.496094v-60.0625c0-44.417968-36.136719-80.550781-80.558594-80.550781h-18.175781c-3.503907 0-6.355469-2.851563-6.355469-6.355469v-10.734375zm-9.445313 126.550781h51.960938v18.371094h-51.960938zm76.484375-152.703125c-2.890625-1.847656-6.664062-1.5-9.164062.847656l-11.527344 10.804688-18.988281-13.453125c-2.65625-1.878907-6.222657-1.832031-8.828125.121093l-16.464844 12.347657-13.964844-6.207031c-.003906 0-.003906 0-.003906 0v-7.785157c2.871094-1.132812 5.691406-2.382812 8.460938-3.753906h12.585937c9.019531 0 16.8125-5.332031 20.398437-13.011719h22.699219c6.328125 0 12.148438-2.199218 16.75-5.867187 1.765625 12.683593 3.878907 22.992187 5.84375 30.949219zm-74.90625-22.070312c-4.148437 0-7.519531-3.371094-7.519531-7.515626 0-4.144531 3.371094-7.515624 7.519531-7.515624h17.015625c4.144531 0 7.515625 3.371093 7.515625 7.515624 0 4.144532-3.371094 7.515626-7.515625 7.515626zm86.976563-92.082032c0 12.015625-9.78125 21.796875-21.800781 21.796875h-.300782c.539063-4.4375.816406-8.917969.816406-13.441406v-30.140625c11.78125.273438 21.285157 9.9375 21.285157 21.785156zm-226.792969-43.257812c0-10.921875 5.746094-21.605469 14.953125-27.472656 10.03125-6.390626 22.679687-7.164063 34.214844-6.183594 26.160156 2.226562 47.160156-5.90625 65.683593-13.082032 15.988282-6.191406 29.792969-11.542968 43.503907-9 7.546875 1.398438 32.164062 8.539063 32.164062 41.746094v65.605469c0 12.058594-2.222656 23.804687-6.601562 34.914063-3.542969 8.980468 10.398437 14.492187 13.941406 5.5 1.550781-3.933594 2.863281-7.929688 3.945313-11.988282 3.382812 0 6.71875-.015625 10.058593-.652344v31.007813c0 6.582031-5.351562 11.933594-11.933593 11.933594h-21.269532c-2.460937-9.761719-11.3125-17.011719-21.828125-17.011719h-17.015625c-12.410156 0-22.507812 10.097656-22.507812 22.503906 0 5.742188 2.167968 10.988282 5.71875 14.96875-8.867188 2.675782-18.191406 4.070313-27.765625 4.070313-52.527344 0-95.257813-42.726563-95.257813-95.246094v-51.613281zm-14.988281 21.488281v30.125c0 4.550781.28125 9.035156.820312 13.441406-12.222656.136719-22.433593-10.183593-22.097656-22.414062.3125-11.316407 9.75-20.585938 21.277344-21.152344zm56.773437 145.589844-16.464844-12.347657c-2.601562-1.953124-6.171874-2.003906-8.828124-.121093l-18.988282 13.453125-11.523437-10.804688c-2.5-2.347656-6.277344-2.695312-9.164063-.847656l-7.800781 4.992188c4.144531-16.785157 8.953125-44.054688 9.730469-81.988282 3.316406.613282 6.632812.628906 9.988281.628906 9.042969 33.847657 33.828125 61.332032 66 74.089844v7.191406zm53.484375 62.765625c-15.878906 0-28.898437-12.480469-29.769531-28.144532 2.640625-3.554687 4.226562-7.9375 4.226562-12.691406v-30.148437c8.199219 1.949219 16.746094 2.988281 25.53125 2.988281 8.65625 0 17.222657-1.035156 25.535157-3.023438v30.183594c0 4.765625 1.589843 9.160156 4.242187 12.714844-.882812 15.65625-13.894531 28.121094-29.765625 28.121094zm0 0"/><path d="m236.589844 453.660156c9.648437 0 9.664062-14.988281 0-14.988281h-41.492188c-9.648437 0-9.667968 14.988281 0 14.988281zm0 0"/></svg>