<svg height="512" viewBox="0 0 128 128" width="512" xmlns="http://www.w3.org/2000/svg"><g><path d="m64 40.811c-27.075 0-40.157 10.729-40.157 10.729l9.418 70.154h61.478l9.418-70.154s-13.082-10.729-40.157-10.729z" fill="#ef3829"/><path d="m101.327 72.624h-74.654l3.03 22.568h68.594z" fill="#f2e7cb"/><path d="m64 40.811c16.3 0 27.522 3.888 33.877 6.983h.005l-.782-24.594-9.149 6.13-8.551-23.024-13 17.908-4.685-1-12.515-16.908-11.019 21.644-6.43-4.738-1.168 24.359c6.436-3.056 17.507-6.76 33.417-6.76z" fill="#ffde3e"/><g fill="#422002"><path d="m105.267 50.187a34.1 34.1 0 0 0 -5.67-3.509l-.244-7.633a1.75 1.75 0 0 0 -3.5.111l.188 5.855a73.471 73.471 0 0 0 -18.4-5l.9-2.267 16.906-11.332.153 4.788a1.75 1.75 0 1 0 3.5-.111l-.254-7.938a1.751 1.751 0 0 0 -2.724-1.4l-7.3 4.894-7.779-20.945a1.751 1.751 0 0 0 -3.057-.419l-12.337 16.984-2.925-.626-12.124-16.373a1.75 1.75 0 0 0 -2.966.247l-10.08 19.8-4.765-3.513a1.75 1.75 0 0 0 -2.789 1.328l-1.117 23.3a35.04 35.04 0 0 0 -6.153 3.756 1.748 1.748 0 0 0 -.625 1.585l5.861 43.652c0 .019.01.037.013.056a1.908 1.908 0 0 0 .045.188c.014.05.028.1.046.147a1.684 1.684 0 0 0 .08.172c.023.045.045.09.072.133a1.6 1.6 0 0 0 .11.15c.031.04.061.08.095.116a1.741 1.741 0 0 0 .134.124c.039.034.077.068.119.1a1.721 1.721 0 0 0 .147.092c.048.028.1.056.147.08s.1.038.147.056a1.561 1.561 0 0 0 .18.055c.047.011.1.018.144.025a1.685 1.685 0 0 0 .2.02h.053 66.602l-3.088 23h-58.421l-.52-3.871a1.75 1.75 0 1 0 -3.468.465l.723 5.389a1.75 1.75 0 0 0 1.735 1.517h61.478a1.75 1.75 0 0 0 1.735-1.517l9.418-70.154a1.748 1.748 0 0 0 -.625-1.577zm-41.267-11.125q-1.245 0-2.451.029l-3.419-4.365-2.53-11.032 22.836 4.883-2.936 7.351-1.452 3.639a98.035 98.035 0 0 0 -10.048-.505zm-15.093-10.438 8.351 10.666a85.556 85.556 0 0 0 -15.113 2.328zm29.993-18.646 6.93 18.667-4.992 3.345 1.613-4.042a1.749 1.749 0 0 0 -1.259-2.359l-11.8-2.523zm-29.427-.357 8.078 10.912-3.909-.833a1.75 1.75 0 0 0 -2.072 2.1l1.479 6.437-3.062-3.911a1.75 1.75 0 0 0 -2.93.272l-2.9 5.579-3.739-2.756zm-16.13 16.938 9.175 6.76-5.007 9.621c-1.863.6-3.537 1.231-5.043 1.858zm30.657 16.003c22.484 0 35.165 7.631 38.284 9.777l-2.484 18.535h-71.6l-2.484-18.535c3.124-2.149 15.805-9.777 38.284-9.777zm-32.766 50.879-2.56-19.067h70.652l-2.56 19.067z"/><path d="m31.683 109.942a1.75 1.75 0 0 0 1.5-1.966l-.6-4.46a1.75 1.75 0 0 0 -3.469.464l.6 4.46a1.751 1.751 0 0 0 1.732 1.518 1.708 1.708 0 0 0 .237-.016z"/><path d="m69.818 51.038c1.725.133 3.439.329 5.094.582a1.75 1.75 0 1 0 .529-3.459c-1.741-.266-3.542-.473-5.353-.613a1.77 1.77 0 0 0 -1.88 1.61 1.751 1.751 0 0 0 1.61 1.88z"/><path d="m81.3 52.942c8.978 2.379 13.489 5.967 13.556 6.021a1.75 1.75 0 0 0 2.215-2.71c-.2-.166-5.072-4.1-14.875-6.693a1.749 1.749 0 0 0 -.9 3.382z"/></g></g></svg>