<svg height="512pt" viewBox="-109 0 512 512.00086" width="512pt" xmlns="http://www.w3.org/2000/svg"><path d="m252.109375 472.96875c4.140625 0 7.496094-3.355469 7.496094-7.492188v-24.019531c0-4.140625-3.355469-7.496093-7.496094-7.496093h-60.050781c-4.140625 0-7.492188 3.355468-7.492188 7.496093v24.019531c0 4.136719 3.351563 7.492188 7.492188 7.492188zm-52.554687-24.019531h45.0625v9.03125h-45.0625zm0 0"/><path d="m216.359375 364.042969c-3.316406-.980469-8.730469-.15625-12.230469-.15625-5.382812 0-17.085937 2.144531-17.085937-6.351563v-34.621094c32.226562-12.796874 57.023437-40.386718 65.96875-74.34375 2.09375 0 4.1875.035157 6.273437-.132812 0 .488281.117188 1.167969 0 1.644531 0 21.625-8.015625 42.480469-22.019531 58.554688-2.667969-1.152344-5.601563-1.792969-8.6875-1.792969-12.132813 0-22.003906 9.871094-22.003906 22 0 12.132812 9.871093 22.003906 22.003906 22.003906 16.078125 0 26.945313-17.542968 19.621094-31.941406 16.582031-18.832031 26.074219-43.375 26.074219-68.824219v-6.242187c11.191406-6.316406 18.769531-18.3125 18.769531-32.054688 0-12.359375-6.136719-23.308594-15.511719-29.980468l6.300781-61.789063c4.699219-45.441406-25.445312-86.914063-70.117187-96.472656l-100.800782-21.566407c-15.890624-3.402343-32.40625-2.398437-47.765624 2.898438-9.121094 3.144531-4.253907 17.316406 4.882812 14.167969 12.78125-4.402344 26.523438-5.238281 39.746094-2.410157l100.796875 21.5625c37.175781 7.953126 62.257812 42.464844 58.34375 80.289063l-5.828125 57.160156c-2.09375-.394531-4.253906-.613281-6.457032-.636719v-18.125c0-9.648437-14.988281-9.667968-14.988281 0v63.648438c0 49.925781-38.660156 90.984375-87.621093 94.824219v-22.074219c0-9.652344-14.988282-9.667969-14.988282 0v22.074219c-48.964844-3.828125-87.640625-44.894531-87.640625-94.824219v-102.117188c0-27.386718 59.605469-31.476562 95.136719-31.476562 95.113281 0 95.113281 25.195312 95.113281 33.472656 0 9.652344 14.988281 9.667969 14.988281 0 0-17.308594-9.957031-30.070312-29.59375-37.933594-17.695312-7.085937-44.03125-10.53125-80.507812-10.53125-35.242188 0-62.25 3.578126-80.273438 10.636719-13.617187 5.328125-29.847656 15.871094-29.847656 35.832031v56.59375c-1.875.019532-3.71875.179688-5.515625.46875l-10.386719-77.230468c-2.6875-22.070313 4.550782-43.980469 19.851563-60.113282 6.640625-7-4.21875-17.324218-10.875-10.316406-18.390625 19.386719-27.085937 45.71875-23.84375 72.332032l10.886719 80.953124c-9.949219 6.59375-16.527344 17.882813-16.527344 30.683594 0 20.285156 16.503906 36.785156 36.789062 36.785156h3.242188c8.949219 33.957032 33.742188 61.546876 65.96875 74.34375v34.621094c0 6.808594-7.074219 6.351563-11.816406 6.351563-4.242188 0-8.476563 0-12.71875 0-44.417969 0-80.554688 36.136719-80.554688 80.554687v60.0625c0 4.140625 3.355469 7.496094 7.492188 7.496094h46.199218c9.648438 0 9.664063-14.988281 0-14.988281h-38.703124v-52.570313c0-33.769531 25.667968-61.652344 58.515624-65.179687 6.53125 11.097656 27.175782 40.550781 69.558594 55.960937.824219.300782 1.691406.453125 2.558594.453125s1.734375-.152343 2.5625-.453125c.644531-.234375 16.019531-5.871094 32.5-16.023437 19.980469-12.308594 32.738281-25.671875 38.039062-39.808594 32.363282 3.988281 57.511719 31.628906 57.511719 65.050781v52.570313h-185.574219c-9.648437 0-9.664062 14.988281 0 14.988281h193.066407c4.140625 0 7.496093-3.355469 7.496093-7.492188v-60.066406c0-42.8125-33.574218-77.914062-75.773437-80.398437zm5.207031-35.199219c0-3.867188 3.144532-7.011719 7.011719-7.011719s7.015625 3.144531 7.015625 7.011719-3.148438 7.015625-7.015625 7.015625-7.011719-3.148437-7.011719-7.015625zm56.488282-117.058594c0 12.019532-9.777344 21.796875-21.800782 21.796875h-.394531c.507813-4.28125.777344-8.632812.777344-13.050781v-30.535156c11.84375.203125 21.417969 9.894531 21.417969 21.789062zm-241.269532 21.796875c-12.019531 0-21.796875-9.777343-21.796875-21.796875 0-11.894531 9.574219-21.585937 21.417969-21.789062v30.539062c0 4.414063.269531 8.765625.777344 13.046875zm109.730469 186.585938c-28.707031-11.140625-45.875-29.707031-54.347656-41.289063h7.476562c11.769531 0 21.34375-9.574218 21.34375-21.34375v-29.890625c8.199219 1.953125 16.746094 2.996094 25.535157 2.996094 8.785156 0 17.335937-1.042969 25.535156-2.996094v29.890625c0 11.765625 9.570312 21.339844 21.339844 21.339844h9.953124c-11.058593 19.75-41.816406 35.363281-56.835937 41.292969zm0 0"/><path d="m145.53125 236.824219c-16.734375 0-32.671875 8.046875-42.625 21.527343-5.71875 7.746094 6.304688 16.691407 12.054688 8.90625 7.25-9.816406 18.390624-15.445312 30.570312-15.445312 11.765625 0 22.679688 5.324219 29.9375 14.609375 5.941406 7.605469 17.761719-1.617187 11.808594-9.230469-10.121094-12.945312-25.335938-20.367187-41.746094-20.367187zm0 0"/></svg>