<svg height="512" viewBox="0 0 88 88" width="512" xmlns="http://www.w3.org/2000/svg"><g id="Telephonev" fill="#4294ff"><path d="m73.9434 55.5322a12.9284 12.9284 0 0 0 -16.2281 6.6192l-1.4682 3.0927a64.743 64.743 0 0 1 -19.8926-13.5986 64.7463 64.7463 0 0 1 -13.5982-19.8926l3.0923-1.4677a12.9287 12.9287 0 0 0 6.62-16.2286 14.3314 14.3314 0 0 0 -27.4786 7.8721 78.6206 78.6206 0 0 0 3.8069 12.7213 79.3963 79.3963 0 0 0 44.5537 44.5531 78.648 78.648 0 0 0 12.7194 3.8069 14.331 14.331 0 0 0 7.8731-27.4776z"/><path d="m43.3174 24.6826a20.0226 20.0226 0 0 1 20 20 1 1 0 1 0 2 0 22.025 22.025 0 0 0 -22-22 1 1 0 0 0 0 2z"/><path d="m43.3174 15.6826a29.0331 29.0331 0 0 1 29 29 1 1 0 0 0 2 0 31.0351 31.0351 0 0 0 -31-31 1 1 0 0 0 0 2z"/><path d="m43.3174 6.6826a38.0433 38.0433 0 0 1 38 38 1 1 0 0 0 2 0 40.0456 40.0456 0 0 0 -40-40 1 1 0 0 0 0 2z"/></g></svg>