<svg enable-background="new 0 0 128 128" height="512" viewBox="0 0 128 128" width="512" xmlns="http://www.w3.org/2000/svg"><g id="Layer_35"><path d="m18.75 32.09h90.5v59.51h-90.5z" fill="#434953"/><path d="m22.75 36.43h82.5v50.51h-82.5z" fill="#6699d1"/><path d="m118.67 90.6v2.33c0 3.32-2.69 6-6 6h-97.34c-3.31 0-6-2.68-6-6v-2.33z" fill="#e5e7ea"/><path d="m76.17 90.6c0 2.46-2 4.46-4.47 4.46h-15.4c-1.24 0-2.35-.5-3.16-1.31s-1.31-1.92-1.31-3.15z" fill="#cecece"/><path d="m101.68 54.98c1.22 0 2.41-.13 3.57-.35v-18.2h-22.13c0 10.25 8.31 18.55 18.56 18.55z" fill="#6194c1"/><circle cx="101.68" cy="36.43" fill="#fdcc58" r="16.32"/><path d="m105.61 43.56c-2.81 2.82-7.38 2.82-10.19 0-.14-.14-.28-.29-.4-.44-1.14-1.34-1.71-3-1.71-4.66 0-1.84.7-3.69 2.11-5.1.03-.02.05-.05.08-.07l2.59 2.98.14-5.17c.7-.49 1.47-.99 2.27-1.46l1.79 2.98 1.3-4.57c2.77-1.21 5.43-1.73 6.72-.43 2.82 2.82-1.88 13.12-4.7 15.94z" fill="#e5e7ea"/><path d="m106.58 32.43c-.25.78-.76 1.44-1.21 2.11-.46.67-.97 1.31-1.48 1.95-1.04 1.26-2.16 2.46-3.35 3.59-1.18 1.14-2.44 2.2-3.77 3.19-1.31 1.01-2.72 1.89-4.15 2.74-.48.28-1.09.13-1.37-.35s-.13-1.09.35-1.37c.03-.02.06-.03.09-.05l.03-.02c1.43-.67 2.86-1.36 4.22-2.2 1.37-.81 2.69-1.72 3.95-2.7 1.27-.98 2.49-2.03 3.63-3.17.57-.57 1.13-1.15 1.65-1.77.52-.61 1.09-1.21 1.41-1.95z" fill="#434953"/></g></svg>