<svg height="512" viewBox="0 0 88 88" width="512" xmlns="http://www.w3.org/2000/svg"><g id="Coupoun"><path d="m64.6074 14.2056a1.0041 1.0041 0 0 0 -.8691-.1709l-59 16a1 1 0 0 0 -.7383.9653v2a1 1 0 0 0 1 1h59a1 1 0 0 0 1-1v-18a1.0013 1.0013 0 0 0 -.3926-.7944z" fill="#d0dbf7"/><path d="m83 43a1 1 0 0 0 1-1v-11a1 1 0 0 0 -1-1h-51a1 1 0 0 0 -.8.4l-2.2 2.9335-2.2-2.9335a1 1 0 0 0 -.8-.4h-21a1 1 0 0 0 -1 1v11a1 1 0 0 0 1 1 9 9 0 0 1 0 18 1 1 0 0 0 -1 1v11a1 1 0 0 0 1 1h21a1 1 0 0 0 .8-.4l2.2-2.9335 2.2 2.9335a1 1 0 0 0 .8.4h51a1 1 0 0 0 1-1v-11a1 1 0 0 0 -1-1 9 9 0 0 1 0-18z" fill="#e6ecff"/><g fill="#4294ff"><circle cx="46" cy="47" r="4"/><circle cx="56" cy="57" r="4"/><path d="m58.707 44.293a.9994.9994 0 0 0 -1.414 0l-14 14a1 1 0 1 0 1.414 1.414l14-14a.9994.9994 0 0 0 0-1.414z"/><path d="m29 42a1 1 0 0 1 -1-1v-2a1 1 0 0 1 2 0v2a1 1 0 0 1 -1 1z"/><path d="m29 50a1 1 0 0 1 -1-1v-2a1 1 0 0 1 2 0v2a1 1 0 0 1 -1 1z"/><path d="m29 58a1 1 0 0 1 -1-1v-2a1 1 0 0 1 2 0v2a1 1 0 0 1 -1 1z"/><path d="m29 66a1 1 0 0 1 -1-1v-2a1 1 0 0 1 2 0v2a1 1 0 0 1 -1 1z"/></g></g></svg>