<svg enable-background="new 0 0 128 128" height="512" viewBox="0 0 128 128" width="512" xmlns="http://www.w3.org/2000/svg"><g id="Layer_36"><path d="m18.75 32.09h90.5v59.51h-90.5z" fill="#434953"/><path d="m22.75 36.43h82.5v50.51h-82.5z" fill="#6699d1"/><path d="m118.67 90.6v2.33c0 3.32-2.69 6-6 6h-97.34c-3.31 0-6-2.68-6-6v-2.33z" fill="#e5e7ea"/><path d="m76.17 90.6c0 2.46-2 4.46-4.47 4.46h-15.4c-1.24 0-2.35-.5-3.16-1.31s-1.31-1.92-1.31-3.15z" fill="#cecece"/><path d="m101.68 54.98c1.22 0 2.41-.13 3.57-.35v-18.2h-22.13c0 10.25 8.31 18.55 18.56 18.55z" fill="#6194c1"/><circle cx="101.68" cy="36.43" fill="#fdcc58" r="16.32"/><path d="m101.68 40.6c-2.3 0-4.17-1.87-4.17-4.17s1.87-4.17 4.17-4.17 4.17 1.87 4.17 4.17-1.87 4.17-4.17 4.17z" fill="#e5e7ea"/><g><path d="m101.68 30.1c-.55 0-1-.45-1-1v-4.19c0-.55.45-1 1-1s1 .45 1 1v4.19c0 .55-.45 1-1 1z" fill="#e5e7ea"/></g><g><path d="m96.5 32.25c-.26 0-.51-.1-.71-.29l-2.96-2.96c-.39-.39-.39-1.02 0-1.41s1.02-.39 1.41 0l2.96 2.96c.39.39.39 1.02 0 1.41-.19.19-.45.29-.7.29z" fill="#e5e7ea"/></g><g><path d="m94.35 37.43h-4.19c-.55 0-1-.45-1-1s.45-1 1-1h4.19c.55 0 1 .45 1 1s-.45 1-1 1z" fill="#e5e7ea"/></g><g><path d="m109.82 45.57c-.26 0-.51-.1-.71-.29l-2.96-2.96c-.39-.39-.39-1.02 0-1.41s1.02-.39 1.41 0l2.96 2.96c.39.39.39 1.02 0 1.41-.19.2-.44.29-.7.29z" fill="#e5e7ea"/></g><g><path d="m113.19 37.43h-4.19c-.55 0-1-.45-1-1s.45-1 1-1h4.19c.55 0 1 .45 1 1s-.44 1-1 1z" fill="#e5e7ea"/></g><g><path d="m106.86 32.25c-.26 0-.51-.1-.71-.29-.39-.39-.39-1.02 0-1.41l2.96-2.96c.39-.39 1.02-.39 1.41 0s.39 1.02 0 1.41l-2.96 2.96c-.19.19-.44.29-.7.29z" fill="#e5e7ea"/></g><g><path d="m93.54 45.57c-.26 0-.51-.1-.71-.29-.39-.39-.39-1.02 0-1.41l2.96-2.96c.39-.39 1.02-.39 1.41 0s.39 1.02 0 1.41l-2.96 2.96c-.19.2-.45.29-.7.29z" fill="#e5e7ea"/></g><g><path d="m101.68 48.95c-.55 0-1-.45-1-1v-4.19c0-.55.45-1 1-1s1 .45 1 1v4.19c0 .55-.45 1-1 1z" fill="#e5e7ea"/></g></g></svg>