<svg height="512pt" viewBox="-71 0 512 512.001" width="512pt" xmlns="http://www.w3.org/2000/svg"><path d="m365.890625 162.230469c-3.582031-26.957031-17.835937-67.945313-47.097656-102.148438-23.449219-27.410156-65.117188-60.082031-130.441407-60.082031-32.640624 0-62.269531 6.902344-88.058593 20.519531-8.542969 4.511719-1.554688 17.785157 7.011719 13.273438 23.605468-12.464844 50.871093-18.785157 81.046874-18.785157 59.613282 0 97.636719 29.816407 119.035157 54.832032 27.132812 31.710937 40.328125 69.542968 43.628906 94.371094 8.039063 60.503906.332031 105.917968-7.546875 133.359374-2.972656 10.34375-6.191406 18.984376-9.128906 25.859376-1.503906-9.34375-3.222656-19.410157-4.570313-25.699219-1.542969-7.191407-11.894531-7.894531-14.398437-.976563-5.625 15.574219-23.898438 57.191406-43.117188 70.457032-7.296875-2.292969-15.042968-3.5625-23.0625-3.675782l-18.484375-15.5625c-2.066406-1.742187-4.828125-2.183594-7.25-1.359375v-24.238281c3.09375-1.222656 6.128907-2.585938 9.097657-4.089844h7.9375c9.027343 0 16.832031-5.339844 20.421874-13.027344h22.730469c14.867188 0 26.960938-12.09375 26.960938-26.957031v-34.976562c11.394531-6.28125 19.132812-18.410157 19.132812-32.3125 0-20.25-16.414062-36.738281-36.640625-36.867188v-23.554687c0-4.144532-3.355468-7.503906-7.503906-7.503906-15.875 0-24.210938-15.339844-24.539062-15.960938-3.523438-6.792969-14.167969-4.203125-14.167969 3.453125v15.066406c-25.796875-23.492187-27.007813-57.875-27.019531-58.246093-.191407-9.242188-14.316407-9.59375-14.988282-.375-.007812.136718-1.074218 13.804687-7.964844 29.359374-7.296874 16.46875-18.058593 28.710938-32.078124 36.523438v-26.328125c0-7.347656-10.023438-10.210937-13.898438-3.929687-.28125.453124-28.503906 45.453124-71.652344 45.453124-3.683594 0-6.738281 2.652344-7.378906 6.148438-19.082031 1.378906-34.191406 17.335938-34.191406 36.765625 0 20.328125 16.542968 36.871094 36.875 36.871094h1.605468c8.953126 33.996093 33.765626 61.621093 66.019532 74.445312v24.277344c-2.417969-.8125-5.167969-.371094-7.226563 1.363281l-18.484375 15.566406c-7.140625.09375-14.058594 1.125-20.644531 2.96875-26.441406-24.65625-33.097656-67.847656-33.164063-68.285156-.53125-3.644531-3.628906-6.363281-7.308593-6.421875-3.660157-.101562-6.859375 2.5625-7.503907 6.191407l-5.515624 31.019531c-15.296876-18.90625-21.972657-48.25-24.878907-71.308594-4.410156-35.03125-2.132812-70.851563 1.160157-90.882813 4.253906-25.894531 17.398437-74.777343 57.59375-111.230468 7.160156-6.488282-2.914063-17.625-10.082032-11.117188-43.570312 39.511719-57.75 92.085938-62.320312 119.910156-3.625 22.03125-5.851563 58.609376-1.242188 95.195313 3.800782 30.183594 13.839844 70.414063 40.078125 90.691406 4.386719 3.390625 11.011719.808594 11.980469-4.625l2.257812-12.703125c5.019532 12.847656 12.597657 27.398438 23.765626 39.542969-26.003907 13.429687-43.832032 40.550781-43.832032 71.777344v60.234375c0 4.144531 3.359375 7.503906 7.503906 7.503906h276.972657c4.144531 0 7.503906-3.359375 7.503906-7.503906v-24.207032c0-9.660156-15.007813-9.679687-15.007813 0v16.703126h-46.292968l-8.601563-29.710938 28.425781-24.871094c2.503907-2.191406 3.265626-5.769531 1.871094-8.789062l-24.433594-52.941406c28.183594 7.417968 49.03125 33.109374 49.03125 63.582031 0 9.664062 15.007813 9.679687 15.007813 0 0-30.148438-16.621094-56.46875-41.167969-70.339844 9.03125-8.523437 18.09375-21.484375 27.050782-38.769531 1.71875-3.316406 3.308593-6.550782 4.761718-9.625 1.914063 11.851562 3.511719 22.707031 3.539063 22.898437.972656 6.589844 9.808593 8.65625 13.597656 3.175781.480469-.691406 11.808594-17.28125 21.046875-49.058593 8.414062-28.953125 16.679688-76.796875 8.234375-140.3125zm-170.847656 229.574219 31.011719-28.125 11.324218 9.535156v46.585937zm-24.394531 0-42.335938 27.996093v-46.585937l11.324219-9.539063zm-16.808594 29.113281 9.96875 24.042969-10.101563 36.34375-14.492187-50.71875zm22.902344 16.054687-10.117188-24.402344 16.222656-10.816406 16.089844 10.730469-10.859375 24.488281zm24.171874 8.089844 10.757813-24.265625 14.808594 9.789063-15 52.496093zm22.535157-141.785156c-4.148438 0-7.527344-3.375-7.527344-7.527344 0-4.148438 3.378906-7.523438 7.527344-7.523438h17.039062c4.152344 0 7.527344 3.375 7.527344 7.523438 0 4.152344-3.375 7.527344-7.527344 7.527344zm69.414062-70.402344h-.53125c.503907-4.296875.765625-8.648438.765625-13.042969v-30.675781c11.949219.128906 21.632813 9.882812 21.632813 21.859375 0 12.054687-9.808594 21.859375-21.867188 21.859375zm-220.289062-43.625v30.582031c0 4.398438.265625 8.738281.769531 13.007813-11.476562-.648438-20.621094-10.1875-20.621094-21.824219 0-11.378906 8.734375-20.746094 19.851563-21.765625zm15.007812 30.582031v-37.167969c28.007813-2.964843 49.367188-20.40625 62.246094-34.335937v16.269531c0 5.136719 5.308594 8.828125 10.121094 7.035156 22.820312-8.5 40.421875-25.679687 50.910156-49.679687.324219-.738281.636719-1.476563.9375-2.207031 6.0625 15.84375 17.417969 34.289062 38.6875 47.257812 4.910156 2.996094 11.410156-.679687 11.410156-6.40625v-10.445312c4.363281 3.207031 9.753907 5.976562 16.195313 7.230468v62.449219c0 14.03125-2.980469 27.542969-8.855469 40.160157-4.078125 8.757812 9.519531 15.109374 13.605469 6.335937 2.789062-5.984375 5.003906-12.140625 6.660156-18.441406h3.363281c.921875 0 1.828125-.046875 2.734375-.113281v30.527343c0 6.589844-5.363281 11.949219-11.953125 11.949219h-21.300781c-2.460938-9.777344-11.324219-17.035156-21.851562-17.035156h-17.039063c-12.429687 0-22.539063 10.109375-22.539063 22.535156 0 6.285156 2.589844 11.976562 6.753907 16.066406-8.003907 2.148438-16.335938 3.261719-24.832031 3.261719-52.523438 0-95.253907-42.726563-95.253907-95.246094zm95.253907 110.253907c8.734374 0 17.3125-1.019532 25.613281-2.984376v30.027344c0 .726563.035156 1.449219.109375 2.15625l-25.710938 23.320313-25.730468-23.335938c.070312-.707031.105468-1.417969.105468-2.140625v-30.050781c8.222656 1.960937 16.796875 3.007813 25.613282 3.007813zm-130.980469 114.175781c0-31.6875 22.535156-58.207031 52.421875-64.382813l-24.800782 53.738282c-1.320312 2.855468-.71875 6.230468 1.503907 8.453124l8.007812 8.003907c6.828125 6.824219 17.457031-3.765625 10.613281-10.613281l-4.308593-4.304688 18.011719-39.019531v37.625c0 7.027343 7.765624 9.085937 12.78125 5.507812l16.492187 57.722657h-25.78125l8.71875-30.125c2.6875-9.28125-11.726563-13.472657-14.417969-4.171876l-9.925781 34.296876h-49.316406zm113.070312 52.730469 12.507813-45.007813h9.824218l12.507813 45.007813zm80.519531-37.859376c-2.191406 1.917969-3.078124 4.933594-2.265624 7.734376l8.71875 30.121093h-28.78125l16.492187-57.71875c5.011719 3.578125 12.777344 1.519531 12.777344-5.507812v-39.222657l.867187-3.03125 19.988282 43.300782zm0 0"/></svg>