<svg height="512" viewBox="0 0 128 128" width="512" xmlns="http://www.w3.org/2000/svg"><g><path d="m64 40.811c-27.075 0-40.157 10.729-40.157 10.729l9.418 70.154h61.478l9.418-70.154s-13.082-10.729-40.157-10.729z" fill="#ef3829"/><path d="m98.297 95.192h-68.594l-3.03-22.568h74.654z" fill="#f2e7cb"/><path d="m64 40.811c16.269 0 27.479 3.873 33.841 6.965v-19.5a7.815 7.815 0 0 0 -7.815-7.815h-11.626v-6.34a7.814 7.814 0 0 0 -7.81-7.815h-13.18a7.814 7.814 0 0 0 -7.81 7.815v6.338h-11.63a7.815 7.815 0 0 0 -7.815 7.815v19.5c6.367-3.09 17.576-6.963 33.845-6.963z" fill="#ffde3e"/><g fill="#422002"><path d="m31.683 109.942a1.75 1.75 0 0 0 1.5-1.967l-.6-4.46a1.75 1.75 0 0 0 -3.469.466l.6 4.46a1.75 1.75 0 0 0 1.732 1.517 1.708 1.708 0 0 0 .237-.016z"/><path d="m105.267 50.188a34.2 34.2 0 0 0 -5.667-3.511v-5.865a1.75 1.75 0 1 0 -3.5 0v4.223a71.842 71.842 0 0 0 -15.941-4.626v-18.2h9.871a6.072 6.072 0 0 1 6.07 6.064v4.861a1.75 1.75 0 0 0 3.5 0v-4.861a9.576 9.576 0 0 0 -9.565-9.564h-9.881v-4.588a9.575 9.575 0 0 0 -9.564-9.564h-13.18a9.575 9.575 0 0 0 -9.564 9.564v4.588h-9.876a9.576 9.576 0 0 0 -9.565 9.564v18.4a34.2 34.2 0 0 0 -5.672 3.511 1.747 1.747 0 0 0 -.625 1.585l5.861 43.652c0 .019.01.037.013.057a1.827 1.827 0 0 0 .044.184c.015.052.029.1.047.151s.05.112.078.167.047.094.075.138a1.656 1.656 0 0 0 .105.144c.033.042.065.084.1.122s.085.081.129.12.08.07.122.1.1.062.146.091.1.056.147.08.1.039.15.057a1.788 1.788 0 0 0 .176.054c.049.012.1.018.149.026a1.825 1.825 0 0 0 .2.019c.019 0 .036.006.055.006h66.595l-3.088 23h-58.42l-.511-3.8a1.75 1.75 0 0 0 -3.469.465l.714 5.318a1.75 1.75 0 0 0 1.735 1.517h61.478a1.75 1.75 0 0 0 1.735-1.517l9.418-70.153a1.747 1.747 0 0 0 -.625-1.579zm-53.921-36.067a6.07 6.07 0 0 1 6.064-6.064h13.18a6.07 6.07 0 0 1 6.064 6.064v25.756a98.643 98.643 0 0 0 -25.308 0zm-19.441 14.152a6.072 6.072 0 0 1 6.065-6.064h9.876v18.2a71.842 71.842 0 0 0 -15.941 4.626zm32.095 14.289c22.484 0 35.165 7.632 38.284 9.777l-2.484 18.535h-71.6l-2.485-18.539c3.106-2.15 15.713-9.773 38.285-9.773zm-32.766 50.88-2.56-19.068h70.652l-2.56 19.068z"/><path d="m69.818 51.038c1.73.134 3.443.33 5.094.583a1.867 1.867 0 0 0 .267.02 1.75 1.75 0 0 0 .262-3.48c-1.736-.266-3.538-.472-5.353-.612a1.75 1.75 0 1 0 -.27 3.489z"/><path d="m81.3 52.942c8.978 2.379 13.489 5.967 13.556 6.021a1.75 1.75 0 0 0 2.215-2.709c-.2-.166-5.072-4.1-14.875-6.694a1.749 1.749 0 0 0 -.9 3.382z"/><path d="m65.512 18.27h.009c.27 0 2.406.055 2.708 1.787a1.75 1.75 0 0 0 3.448-.6c-.659-3.784-4.325-4.738-6.212-4.685a1.75 1.75 0 0 0 .047 3.5z"/><path d="m56.22 28.194a1.743 1.743 0 0 0 1.159-.44 1.876 1.876 0 0 1 2.638 0 1.75 1.75 0 0 0 2.343-2.6 5.359 5.359 0 0 0 -7.3-.017 1.75 1.75 0 0 0 1.161 3.06z"/><path d="m65.505 34.022a1.739 1.739 0 0 0 .793 2.316 1.716 1.716 0 0 0 .777.185 1.772 1.772 0 0 0 1.568-.95 3.339 3.339 0 0 1 2.967-1.7 1.75 1.75 0 1 0 0-3.5 6.844 6.844 0 0 0 -6.105 3.649z"/><path d="m86.992 37.441a1.75 1.75 0 0 0 2.429-.472 5.8 5.8 0 0 0 -.169-7.238 1.751 1.751 0 0 0 -2.563 2.385c.011.011 1.022 1.132-.168 2.9a1.748 1.748 0 0 0 .471 2.425z"/><path d="m42.081 29.908a5.475 5.475 0 0 0 -5.914 4.123 1.731 1.731 0 0 0 1.328 2.036 1.674 1.674 0 0 0 .383.044 1.778 1.778 0 0 0 1.709-1.34c.087-.34.516-1.434 2.348-1.366a1.75 1.75 0 0 0 .146-3.5z"/></g></g></svg>