<svg height="512" viewBox="0 0 128 128" width="512" xmlns="http://www.w3.org/2000/svg"><g><path d="m64.145 18.238h-.433a14.117 14.117 0 0 0 -11.645 6.137l-43.222 63.084a14.116 14.116 0 0 0 .27 16.337l.153.208a14.114 14.114 0 0 0 11.375 5.758h86.867a14.117 14.117 0 0 0 11.573-6.033 14.116 14.116 0 0 0 .072-16.061l-43.365-63.293a14.117 14.117 0 0 0 -11.645-6.137z" fill="#f2e7cb"/><path d="m47.489 77.874h33.022v31.888h-33.022z" fill="#64bc0f"/><g fill="#422002"><path d="m93 108.012h-10.739v-30.138a1.749 1.749 0 0 0 -1.75-1.75h-33.022a1.749 1.749 0 0 0 -1.75 1.75v30.138h-25.095a12.417 12.417 0 0 1 -9.968-5.046l-.152-.206a12.382 12.382 0 0 1 -.235-14.312l24.324-35.5a1.749 1.749 0 0 0 -2.886-1.978l-24.327 35.5a15.885 15.885 0 0 0 .3 18.364l.151.206a15.924 15.924 0 0 0 12.787 6.472h72.362a1.75 1.75 0 1 0 0-3.5zm-43.761-28.388h29.522v28.388h-29.522z"/><path d="m36.836 46.605a1.749 1.749 0 0 0 2.433-.454l2.542-3.71a1.75 1.75 0 0 0 -2.887-1.978l-2.542 3.71a1.748 1.748 0 0 0 .454 2.432z"/><path d="m120.6 86.679-43.367-63.293a15.854 15.854 0 0 0 -13.087-6.9h-.434a15.856 15.856 0 0 0 -13.088 6.9l-6.809 9.938a1.75 1.75 0 0 0 2.885 1.976l6.809-9.939a12.36 12.36 0 0 1 10.2-5.376h.434a12.362 12.362 0 0 1 10.2 5.376l43.364 63.293a12.366 12.366 0 0 1 -10.2 19.355h-6.835a1.75 1.75 0 0 0 0 3.5h6.835a15.865 15.865 0 0 0 13.093-24.83z"/><path d="m64.389 41.271a1.75 1.75 0 0 0 1.113-3.1l-3.179-2.617a1.749 1.749 0 1 0 -2.224 2.7l3.178 2.617a1.742 1.742 0 0 0 1.112.4z"/><path d="m102.305 87.387a1.753 1.753 0 0 0 -2.437-.439l-3.179 2.209a1.751 1.751 0 0 0 2 2.875l3.179-2.209a1.752 1.752 0 0 0 .437-2.436z"/><path d="m28.17 83.675-1.5 4.113a1.749 1.749 0 0 0 1.047 2.242 1.714 1.714 0 0 0 .6.106 1.751 1.751 0 0 0 1.645-1.153l1.5-4.113a1.75 1.75 0 0 0 -3.289-1.2z"/><path d="m78.549 62.463a1.757 1.757 0 0 0 .752-.17l3.927-1.87a1.75 1.75 0 0 0 -1.506-3.16l-3.922 1.87a1.75 1.75 0 0 0 .754 3.33z"/><path d="m52.645 62a1.75 1.75 0 0 0 .974-3.361l-3.762-1.091a1.75 1.75 0 1 0 -.974 3.361z"/></g></g></svg>