<svg height="511pt" viewBox="-105 0 511 511.99768" width="511pt" xmlns="http://www.w3.org/2000/svg"><path d="m274.730469 46.53125-14.878907-8.925781c-8.273437-4.964844-16.003906 7.878906-7.714843 12.851562l14.878906 8.929688c15.667969 9.398437 23.71875 27.738281 20.035156 45.628906l-14.65625 70.753906c-2.140625-.449219-4.347656-.707031-6.605469-.765625l.199219-14.542968c.0625-4.515626-3.753906-7.597657-7.992187-7.597657-14.964844 0-28.589844-8.820312-34.71875-22.46875l-9.910156-22.074219c-1.820313-4.050781-6.996094-5.65625-10.773438-3.316406-5.652344 3.5-8.675781 13.066406-12.285156 18.320313-5.085938 7.402343-11.101563 13.726562-18.660156 18.660156-16.429688 10.726563-33.90625 10.230469-52.777344 10.378906-10.460938.082031-12.589844 14.988281-1.777344 14.988281 13.875 0 27.914062.808594 41.414062-3.035156 20.171876-5.746094 36.152344-19.253906 46.96875-36.972656l4.125 9.191406c7.5625 16.839844 23.320313 28.398438 41.304688 30.832032l-.71875 53.046874v.101563c0 52.449219-42.675781 95.121094-95.132812 95.121094-52.453126 0-95.128907-42.671875-95.128907-95.121094v-53.160156h21.191407c9.652343 0 9.667968-14.992188 0-14.992188h-28.980469c-4.835938 0-8.519531 4.941407-7.199219 9.554688v13.070312c-2.464844.023438-4.875.289063-7.199219.777344l-14.652343-70.742187c-3.6875-17.898438 4.363281-36.238282 20.03125-45.636719l63.703124-38.222657c12.988282-7.796874 28.882813-8.191406 42.15625-1.226562 3.027344 3.488281 9.15625 3.492188 12.179688 0 13.273438-6.96875 29.167969-6.570312 42.160156 1.226562l19.84375 11.90625c8.277344 4.964844 16-7.878906 7.714844-12.855468l-19.847656-11.902344c-17.234375-10.34375-38.25-11.023438-55.960938-2.097656-17.714844-8.925782-38.734375-8.242188-55.960937 2.09375l-63.703125 38.222656c-21.121094 12.671875-31.972656 37.394531-27 61.523438l15.316406 73.953124c-9.199219 6.691407-15.195312 17.535157-15.195312 29.757813 0 13.625 7.449218 25.535156 18.488281 31.890625-11.828125 5.398438-21.265625 15.816406-24.925781 29.3125-6.539063 24.082031 7.738281 48.992188 31.820312 55.53125 3.953125 1.074219 7.929688 1.585938 11.84375 1.585938 16.648438 0 32.160156-9.277344 40-24.070313 8.617188 6.996094 18.304688 12.726563 28.78125 16.886719v34.621094c0 3.503906-2.851562 6.355468-6.355469 6.355468-21.707031 0-42.042969.371094-61.128906 12.445313-23.167969 14.65625-37.609375 40.667969-37.609375 68.109375v60.070312c0 4.140625 3.351562 7.492188 7.492188 7.492188h276.25c4.140624 0 7.496093-3.351563 7.496093-7.492188v-60.070312c0-28.484375-15.59375-55.394532-40.210937-69.691406-18.535156-10.769532-37.917969-10.867188-58.53125-10.867188-3.503906 0-6.351563-2.847656-6.351563-6.351562v-34.625c32.222657-12.796876 57.023438-40.390626 65.96875-74.34375 2.078125.03125 4.210938.03125 6.277344-.136719.277344 21.964843-7.574219 43.625-22.023437 60.203125-2.667969-1.152344-5.601563-1.792969-8.6875-1.792969-12.132813 0-22.003907 9.871094-22.003907 22.003906 0 12.132813 9.871094 22.003907 22.003907 22.003907 12.132812 0 22.003906-9.871094 22.003906-22.003907 0-3.574219-.863282-6.953125-2.382813-9.941406 18.675781-21.210937 26.078125-47.289063 26.078125-75.070313 11.191406-6.316406 18.769532-18.316406 18.769532-32.054687 0-12.214844-5.988282-23.050781-15.175782-29.746094l15.320313-73.972656c4.96875-24.121094-5.882813-48.84375-27-61.515625zm-229.796875 143.445312v30.539063c0 4.414063.269531 8.765625.777344 13.046875h-.398438c-12.019531 0-21.800781-9.777344-21.800781-21.796875 0-11.894531 9.574219-21.585937 21.421875-21.789063zm-7.101563 124.058594c-16.105469-4.371094-25.652343-21.035156-21.28125-37.140625 2.117188-7.804687 7.144531-14.3125 14.160157-18.332031 6.046874-3.46875 12.949218-4.71875 19.734374-3.640625 4.988282 15.125 13.171876 28.8125 23.75 40.257813-5.3125 14.621093-21.078124 23.003906-36.363281 18.855468zm184.195313 139.621094h6.996094v16.988281h-6.996094zm-7.492188 31.980469h21.984375c4.140625 0 7.496094-3.355469 7.496094-7.496094v-.878906h9.980469v19.75h-56.941406v-19.75h9.984374v.878906c0 4.140625 3.355469 7.496094 7.496094 7.496094zm-12.601562-106.769531h12.933594c-.800782 7.785156-2.816407 14.992187-6.054688 21.472656-4.328125 8.664062 9.109375 15.300781 13.410156 6.703125 4.167969-8.339844 6.730469-17.546875 7.652344-27.445313 31.542969 4.726563 55.808594 32 55.808594 64.835938v52.574218h-16.695313v-27.242187c0-4.140625-3.355469-7.496094-7.496093-7.496094h-17.476563v-16.109375c0-4.140625-3.355469-7.492187-7.496094-7.492187h-21.984375c-4.140625 0-7.496094 3.351562-7.496094 7.492187v16.109375h-17.476562c-4.140625 0-7.496094 3.355469-7.496094 7.496094v27.242187h-157.644531v-52.574218c0-32.808594 24.230469-60.066406 55.738281-64.828125 3.972656 38.628906 34.929688 67.785156 74.152344 67.785156 14.566406 0 29.15625-3.960937 41.679688-11.730469 8.214843-5.09375.3125-17.832031-7.902344-12.734375-38.238282 23.71875-87.75.484375-92.929688-44.058593h13.015625c11.769531 0 21.34375-9.574219 21.34375-21.34375v-29.890626c16.710938 3.984376 34.355469 3.984376 51.070313 0v29.890626c0 11.769531 9.574218 21.34375 21.34375 21.34375zm28.167968-50.035157c0-3.867187 3.144532-7.011719 7.015626-7.011719 3.867187 0 7.011718 3.144532 7.011718 7.011719 0 3.867188-3.144531 7.015625-7.011718 7.015625-3.871094 0-7.015626-3.148437-7.015626-7.015625zm34.691407-95.269531h-.394531c.503906-4.261719.773437-8.597656.777343-12.996094l.414063-30.578125c11.652344.417969 21.003906 10.023438 21.003906 21.777344 0 12.019531-9.777344 21.796875-21.800781 21.796875zm0 0"/></svg>