<svg height="512" viewBox="0 0 88 88" width="512" xmlns="http://www.w3.org/2000/svg"><g id="Unboxing"><path d="m56 51h-55l6 8h55z" fill="#d0dbf7"/><path d="m68 51h19l-6 8h-19z" fill="#becced"/><path d="m7 59v26a1 1 0 0 0 1 1h72a1 1 0 0 0 1-1v-26z" fill="#e6ecff"/><path d="m62 59v26a1 1 0 0 0 1 1h17a1 1 0 0 0 1-1v-26z" fill="#d0dbf7"/><path d="m66.5884 10.1914-11-8a.9993.9993 0 0 0 -.5884-.1914h-22a.9993.9993 0 0 0 -.5884.1914l-11 8a1 1 0 0 0 -.1709 1.46l6 7a1 1 0 0 0 1.3838.13l3.3755-2.7008v16.9194a1 1 0 0 0 1 1h22a1 1 0 0 0 1-1v-16.9194l3.3755 2.7a1 1 0 0 0 1.3838-.13l6-7a1 1 0 0 0 -.1709-1.46z" fill="#4294ff"/><g fill="#376cfb"><path d="m26 38a1 1 0 0 1 -1-1v-15a1 1 0 0 1 2 0v15a1 1 0 0 1 -1 1z"/><path d="m62 38a1 1 0 0 1 -1-1v-15a1 1 0 0 1 2 0v15a1 1 0 0 1 -1 1z"/><path d="m54 43a1 1 0 0 1 -1-1v-5a1 1 0 0 1 2 0v5a1 1 0 0 1 -1 1z"/><path d="m44 48a1 1 0 0 1 -1-1v-10a1 1 0 0 1 2 0v10a1 1 0 0 1 -1 1z"/><path d="m35 43a1 1 0 0 1 -1-1v-5a1 1 0 0 1 2 0v5a1 1 0 0 1 -1 1z"/><path d="m37 2h14a0 0 0 0 1 0 0v1a7 7 0 0 1 -7 7 7 7 0 0 1 -7-7v-1a0 0 0 0 1 0 0z"/></g></g></svg>