<svg enable-background="new 0 0 128 128" height="512" viewBox="0 0 128 128" width="512" xmlns="http://www.w3.org/2000/svg"><g id="Layer_37"><path d="m18.75 32.09h90.5v59.51h-90.5z" fill="#434953"/><path d="m22.75 36.43h82.5v50.51h-82.5z" fill="#6699d1"/><path d="m118.67 90.6v2.33c0 3.32-2.69 6-6 6h-97.34c-3.31 0-6-2.68-6-6v-2.33z" fill="#e5e7ea"/><path d="m76.17 90.6c0 2.46-2 4.46-4.47 4.46h-15.4c-1.24 0-2.35-.5-3.16-1.31s-1.31-1.92-1.31-3.15z" fill="#cecece"/><path d="m101.68 54.98c1.22 0 2.41-.13 3.57-.35v-18.2h-22.13c0 10.25 8.31 18.55 18.56 18.55z" fill="#6194c1"/><circle cx="101.68" cy="36.43" fill="#e5e7ea" r="16.32"/><path d="m113.19 35.43h-1.23l.78-1.03c.33-.44.25-1.07-.19-1.4s-1.07-.25-1.4.19l-1.7 2.24h-3.92c-.09-.36-.24-.7-.42-1.02l2.77-2.77 2.78.38c.05.01.09.01.14.01.49 0 .92-.36.99-.86.07-.55-.31-1.05-.85-1.13l-1.28-.17.87-.87c.39-.39.39-1.02 0-1.41s-1.02-.39-1.41 0l-.87.87-.18-1.28c-.07-.55-.58-.93-1.13-.86-.55.08-.93.58-.86 1.13l.38 2.78-2.76 2.77c-.32-.19-.66-.33-1.02-.42v-3.92l2.24-1.7c.44-.33.53-.96.19-1.4-.33-.44-.96-.53-1.4-.19l-1.03.78v-1.23c0-.55-.45-1-1-1s-1 .45-1 1v1.23l-1.03-.78c-.44-.33-1.07-.25-1.4.19s-.25 1.07.19 1.4l2.24 1.7v3.92c-.36.09-.7.24-1.02.42l-2.77-2.77.38-2.78c.07-.55-.31-1.05-.85-1.13-.55-.07-1.05.31-1.13.86l-.18 1.28-.87-.87c-.39-.39-1.02-.39-1.41 0s-.39 1.02 0 1.41l.87.87-1.28.17c-.55.08-.93.58-.85 1.13.07.5.5.86.99.86.05 0 .09 0 .14-.01l2.78-.38 2.77 2.77c-.19.32-.33.66-.42 1.02h-3.93l-1.7-2.24c-.33-.44-.96-.53-1.4-.19-.44.33-.53.96-.19 1.4l.78 1.03h-1.23c-.55 0-1 .45-1 1s.45 1 1 1h1.23l-.78 1.03c-.33.44-.25 1.07.19 1.4.18.14.39.2.6.2.3 0 .6-.14.8-.4l1.7-2.24h3.92c.09.36.24.7.43 1.02l-2.77 2.77-2.79-.38c-.55-.07-1.05.31-1.13.86s.31 1.05.85 1.13l1.29.18-.87.87c-.39.39-.39 1.02 0 1.41.2.2.45.29.71.29s.51-.1.71-.29l.87-.87.17 1.28c.07.5.5.86.99.86.05 0 .09 0 .14-.01.55-.08.93-.58.85-1.13l-.38-2.78 2.77-2.77c.32.19.66.33 1.02.42v3.92l-2.24 1.7c-.44.33-.53.96-.19 1.4.33.44.96.53 1.4.19l1.03-.78v1.23c0 .55.45 1 1 1s1-.45 1-1v-1.23l1.03.78c.18.14.39.2.6.2.3 0 .6-.14.8-.4.33-.44.25-1.07-.19-1.4l-2.24-1.7v-3.92c.36-.09.7-.24 1.02-.42l2.77 2.77-.38 2.78c-.07.55.31 1.05.86 1.13.05.01.09.01.14.01.49 0 .92-.36.99-.86l.17-1.28.87.87c.2.2.45.29.71.29s.51-.1.71-.29c.39-.39.39-1.02 0-1.41l-.88-.86 1.28-.17c.55-.08.93-.58.85-1.13s-.58-.93-1.13-.86l-2.79.38-2.77-2.77c.19-.32.33-.66.42-1.02h3.92l1.7 2.24c.2.26.5.4.8.4.21 0 .42-.07.6-.2.44-.33.53-.96.19-1.4l-.78-1.03h1.23c.55 0 1-.45 1-1s-.43-1.01-.99-1.01zm-11.51 3c-1.11 0-2-.9-2-2s.9-2 2-2 2 .9 2 2-.9 2-2 2z" fill="#6699d1"/></g></svg>