<svg enable-background="new 0 0 128 128" height="512" viewBox="0 0 128 128" width="512" xmlns="http://www.w3.org/2000/svg"><g id="Layer_39"><path d="m27.53 36.07h60.36v40.01h-60.36z" fill="#434953" transform="matrix(.707 -.707 .707 .707 -22.749 57.229)"/><path d="m31.18 40.21h52.36v31.02h-52.36z" fill="#6699d1" transform="matrix(.707 -.707 .707 .707 -22.6 56.875)"/><path d="m97.08 43.58 1.56 1.56c2.05 2.05 2.05 5.39 0 7.44l-44.43 44.42c-2.05 2.05-5.38 2.04-7.43-.01l-1.56-1.56z" fill="#e5e7ea"/><path d="m77.56 68.36-7.56 7.56c-1.1 1.1-2.88 1.1-3.98 0l-.64-.64 11.54-11.54.64.64c1.1 1.1 1.1 2.88 0 3.98z" fill="#cecece"/><path d="m53.05 116-3.18-12.27c-.14-.53-.69-.86-1.22-.72s-.86.68-.72 1.22l2.57 9.93-5.64-3.32c-.23-.14-.51-.17-.78-.1l-7.74 2.16-1.87-7.82c-.06-.26-.23-.49-.47-.63l-5.64-3.32 9.93-2.57c.53-.14.86-.68.72-1.22s-.68-.86-1.22-.72l-12.26 3.18c-.39.1-.68.43-.74.83s.13.8.48 1l7.36 4.33 2.01 8.41c0 .01.01.01.01.02v.02c.01.03.03.05.04.08.03.09.07.17.12.24.03.04.06.07.09.1.05.05.11.1.17.15.04.03.08.05.12.07.07.03.13.05.21.07.05.01.09.02.14.02.02 0 .05.01.07.01.08 0 .16-.01.23-.03.01 0 .01-.01.02-.01h.02l8.33-2.33 7.36 4.33c.16.09.33.14.51.14.21 0 .42-.07.6-.2.33-.24.48-.65.37-1.05z" fill="#ea5765"/><g><path d="m64 16.88c-.55 0-1-.45-1-1v-10.38c0-.55.45-1 1-1s1 .45 1 1v10.38c0 .55-.45 1-1 1z" fill="#434953"/></g><g><path d="m72.88 24c-.55 0-1-.45-1-1v-12.75c0-.55.45-1 1-1s1 .45 1 1v12.75c0 .55-.45 1-1 1z" fill="#434953"/></g><g><path d="m81.75 29.13c-.55 0-1-.45-1-1v-13.75c0-.55.45-1 1-1s1 .45 1 1v13.75c0 .55-.45 1-1 1z" fill="#434953"/></g><g><path d="m55.13 24c-.55 0-1-.45-1-1v-12.75c0-.55.45-1 1-1s1 .45 1 1v12.75c0 .55-.45 1-1 1z" fill="#434953"/></g><g><path d="m46.25 30.13c-.55 0-1-.45-1-1v-14.75c0-.55.45-1 1-1s1 .45 1 1v14.75c0 .55-.45 1-1 1z" fill="#434953"/></g></g></svg>