<svg height="511pt" viewBox="-106 0 511 511.99819" width="511pt" xmlns="http://www.w3.org/2000/svg"><path d="m296.738281 95.929688c-6.6875-14.925782-23.558593-43.738282-61.425781-68.980469-63.484375-42.320313-118.230469-27.0156252-152.980469-6.71875-8.34375 4.871093-.789062 17.804687 7.554688 12.933593 45.183593-26.386718 91.316406-24.285156 137.117187 6.25 34.738282 23.15625 50.035156 49.1875 56.0625 62.640626 2.480469 5.539062 2.847656 11.835937 1.03125 17.730468l-17.355468 56.347656c-2.441407-.546874-4.96875-.855468-7.5625-.890624v-17.464844c0-5.996094-7.203126-9.621094-12.023438-5.960938-4.15625 3.160156-41.476562 30.332032-71.699219 11.441406-12.46875-7.792968-18.238281-16.410156-23.328125-24.011718-7.261718-10.847656-14.769531-22.0625-37.5625-22.0625h-50.683594c-8.988281 0-15.703124 8.371094-13.988281 17.089844 1.546875 7.855468 5.046875 5.9375-1.476562 11.683593-8.960938 7.890625-9.582031 18.265625-9.582031 29.296875-4.449219.132813-8.71875 1.050782-12.671876 2.621094-2.53125-23.164062-8.125-74.410156-10.679687-97.839844.035156-.851562.480469-1.242187 1.332031-1.171875l13.257813 3.171875c2.953125.703125 6.042969-.449218 7.820312-2.910156.085938-.121094 8.875-12.210938 24.210938-25.742188 7.246093-6.386718-2.664063-17.621093-9.910157-11.230468-11.308593 9.976562-19.265624 19.148437-23.339843 24.191406l-8.558594-2.046875c-10.625-2.539063-20.886719 6.5-19.703125 17.359375 2.917969 26.796875 9.816406 89.953125 11.5625 105.914062-5.71875 6.273438-9.308594 14.453126-9.554688 23.390626-.273437 10.019531 3.417969 19.488281 10.398438 26.660156 6.980469 7.175781 16.339844 11.128906 26.351562 11.128906h3.207032c9.035156 33.824219 33.800781 61.289062 65.957031 74.039062v34.851563c0 9.535156-18.691406 6.347656-24.515625 6.347656-44.390625 0-80.503906 36.109375-80.503906 80.496094v60.023437c0 4.136719 3.355468 7.492188 7.492187 7.492188h42.167969c9.660156 0 9.660156-14.980469 0-14.980469h-34.679688v-52.535156c0-30.769531 21.328126-56.640625 49.976563-63.640625 1.90625 6.582031 5.957031 18.289062 13.558594 31.320312 15.175781 26.011719 37.445312 45.046876 64.402343 55.046876 1.671876.601562 3.351563.625 5.03125.0625 2.371094-.808594 57.394532-20.335938 78.34375-86.378907 28.535157 7.078125 49.753907 32.898438 49.753907 63.589844v52.535156h-20.679688v-25.847656c0-4.136719-3.351562-7.488281-7.488281-7.488281h-66.90625c-4.132812 0-7.488281 3.351562-7.488281 7.488281v25.847656h-80.882813c-9.660156 0-9.660156 14.976563 0 14.976563h190.933594c4.136719 0 7.492188-3.351563 7.492188-7.488282v-60.023437c0-44.386719-36.113282-80.496094-80.503907-80.496094-5.90625 0-24.515625 3.144531-24.515625-6.347656v-34.804687c2.9375-1.15625 5.820313-2.4375 8.648438-3.847657h12.386718c9.011719 0 16.800782-5.328125 20.386719-13h22.683594c14.835937 0 26.902344-12.070312 26.902344-26.90625v-37.546875c9.042969-6.703125 14.917969-17.449218 14.917969-29.546875 0-12.109375-5.886719-22.867187-14.949219-29.570312l17.933593-58.226563c2.886719-9.367187 2.292969-19.402344-1.675781-28.261718zm-104.78125 382.734374h51.925781v18.359376h-51.925781zm88.496094-266.671874c0 12.007812-9.773437 21.78125-21.785156 21.78125-.324219-13.902344.511719-29.128907.511719-43.550782 11.777343.273438 21.273437 9.929688 21.273437 21.769532zm-241.101563 21.78125c-12.078124 0-22.105468-10.328126-21.777343-22.398438.3125-11.308594 9.742187-20.570312 21.261719-21.140625 0 14.394531.976562 29.695313.515624 43.539063zm174.667969 145.195312c.207031 0 .414063.011719.621094.015625-7.8125 23.03125-21.140625 42.273437-39.699219 57.246094-11.308594 9.117187-21.496094 14.015625-25.960937 15.921875-22.605469-9.042969-40.683594-24.871094-53.765625-47.082032-6.144532-10.4375-9.753906-20.023437-11.667969-26.089843.152344 0 .300781-.011719.453125-.011719h18.164062c1.101563 0 2.175782-.109375 3.230469-.269531 4.574219 19.867187 22.390625 34.730469 43.625 34.730469s39.050781-14.863282 43.625-34.730469c1.046875.160156 2.113281.269531 3.207031.269531zm-35.253906-8.621094c-.882813 15.644532-13.886719 28.105469-29.746094 28.105469-15.871093 0-28.878906-12.472656-29.746093-28.128906 2.636718-3.550781 4.21875-7.929688 4.21875-12.683594v-30.128906c8.195312 1.953125 16.742187 2.992187 25.53125 2.992187 8.691406 0 17.238281-1.011718 25.503906-2.964844v30.101563c0 4.765625 1.585937 9.152344 4.238281 12.707031zm14.769531-66.335937c-4.144531 0-7.511718-3.371094-7.511718-7.511719s3.367187-7.511719 7.511718-7.511719h17.003906c4.140626 0 7.511719 3.371094 7.511719 7.511719s-3.371093 7.511719-7.511719 7.511719zm72-24.925781c0 6.574218-5.351562 11.925781-11.929687 11.925781h-21.253907c-2.457031-9.757813-11.304687-17.003907-21.8125-17.003907h-17.003906c-12.402344 0-22.492187 10.089844-22.492187 22.492188 0 5.726562 2.15625 10.957031 5.691406 14.929688-8.882813 2.691406-18.203125 4.09375-27.738281 4.09375-52.484375 0-95.179688-42.699219-95.179688-95.179688v-53.183594c0-3.808594 1.640625-7.441406 4.5-9.960937l5.644532-4.96875c5.753906-5.074219 6.394531-14.238281 1.421874-20.070313h49.1875c14.792969 0 18.242188 5.152344 25.113282 15.417969 5.632812 8.414063 12.644531 18.886719 27.835937 28.378906 15.367188 9.605469 34.164063 11.449219 54.359375 5.332031 8.691406-2.636718 16.367188-6.328124 22.324219-9.710937v48.765625c0 12.636719-2.433594 24.90625-7.238281 36.46875-3.703125 8.921875 10.128906 14.667969 13.835937 5.746094 1.875-4.515625 3.429688-9.125 4.679688-13.808594 3.363281.058594 6.734375-.023438 10.054687-.652344zm0 0"/></svg>