<svg height="512" viewBox="0 0 88 88" width="512" xmlns="http://www.w3.org/2000/svg"><g id="Search_Discount" data-name="Search Discount"><rect fill="#e6ecff" height="68" rx="5" width="76" x="6" y="1"/><path d="m82 6v9h-76v-9a5.0018 5.0018 0 0 1 5-5h66a5.0018 5.0018 0 0 1 5 5z" fill="#4294ff"/><g fill="#376cfb"><circle cx="15" cy="8" r="3"/><circle cx="23" cy="8" r="3"/><circle cx="31" cy="8" r="3"/><path d="m75 9h-20a1 1 0 0 1 0-2h20a1 1 0 0 1 0 2z"/><path d="m47.64 56.9609a1.0049 1.0049 0 0 0 -.8222-.2143 15.8338 15.8338 0 0 1 -5.6348 0 1 1 0 0 0 -1.183.9834v6.27a1 1 0 0 0 1 1h6a1 1 0 0 0 1-1v-6.27a.9994.9994 0 0 0 -.36-.7691z"/></g><circle cx="44" cy="41" fill="#4294ff" r="18"/><circle cx="44" cy="41" fill="#376cfb" r="14"/><circle cx="40" cy="37" fill="#2946ed" r="3"/><circle cx="48" cy="45" fill="#2946ed" r="3"/><path d="m38.293 46.707a.9994.9994 0 0 1 0-1.414l10-10a1 1 0 0 1 1.414 1.414l-10 10a.9994.9994 0 0 1 -1.414 0z" fill="#2946ed"/><path d="m49 63h-10a1 1 0 0 0 -1 1v17a6 6 0 0 0 12 0v-17a1 1 0 0 0 -1-1z" fill="#4294ff"/></g></svg>