<svg height="512" viewBox="0 0 128 128" width="512" xmlns="http://www.w3.org/2000/svg"><g><path d="m64 40.811c-27.075 0-40.157 10.729-40.157 10.729l9.418 70.154h61.478l9.418-70.154s-13.082-10.729-40.157-10.729z" fill="#ef3829"/><g fill="#ffde3e"><path d="m64 40.811c1.768 0 3.473.048 5.123.134a11.838 11.838 0 0 1 23.077 3.713c0 .247-.022.489-.037.732a57.124 57.124 0 0 1 7.159 3.137 19.352 19.352 0 1 0 -37.932-7.681q1.283-.033 2.61-.035z"/><path d="m35.834 45.39c-.015-.243-.037-.485-.037-.732a11.838 11.838 0 0 1 23.08-3.713c1.65-.086 3.355-.134 5.123-.134q1.329 0 2.61.035a19.352 19.352 0 1 0 -37.935 7.681 57.124 57.124 0 0 1 7.159-3.137z"/><path d="m52.849 41.457a96.565 96.565 0 0 1 22.3 0 19.352 19.352 0 1 0 -22.3 0zm11.151-27.641a11.842 11.842 0 1 1 -11.842 11.842 11.842 11.842 0 0 1 11.842-11.842z"/></g><path d="m101.327 72.624h-74.654l3.03 22.568h68.594z" fill="#f2e7cb"/><g fill="#422002"><path d="m105.268 50.187a30.191 30.191 0 0 0 -4.028-2.627 21.307 21.307 0 0 0 .223-2.9 20.994 20.994 0 0 0 -3.657-11.88 1.75 1.75 0 0 0 -2.892 1.973 17.505 17.505 0 0 1 3.049 9.905c0 .4-.033.793-.059 1.188-1.181-.554-2.507-1.124-3.976-1.689a13.593 13.593 0 0 0 -11.559-12.925 1.712 1.712 0 0 0 -.331-.051 13.457 13.457 0 0 0 -14.06 7.889 20.87 20.87 0 0 0 -1.919-4.67 17.612 17.612 0 0 1 23.431-4.8 1.75 1.75 0 1 0 1.818-2.99 21.008 21.008 0 0 0 -6.289-2.529 21.076 21.076 0 0 0 -42.039.007 20.9 20.9 0 0 0 -16.22 23.472 30.191 30.191 0 0 0 -4.028 2.627 1.75 1.75 0 0 0 -.624 1.585l5.86 43.652c0 .02.011.037.014.057a1.448 1.448 0 0 0 .044.184 1.51 1.51 0 0 0 .047.153c.021.055.047.106.073.158s.052.1.082.151.06.084.091.125a1.791 1.791 0 0 0 .118.143c.033.034.069.065.1.1a1.749 1.749 0 0 0 .15.123c.037.027.076.049.115.072a1.7 1.7 0 0 0 .178.1c.04.018.082.032.124.047a1.639 1.639 0 0 0 .2.061c.044.011.089.016.135.023a1.748 1.748 0 0 0 .207.021h.054 66.6l-3.089 23h-58.419l-.522-3.886a1.75 1.75 0 0 0 -3.469.464l.725 5.405a1.75 1.75 0 0 0 1.735 1.517h61.478a1.75 1.75 0 0 0 1.735-1.517l9.418-70.154a1.75 1.75 0 0 0 -.624-1.584zm-14.982-7.31a77.315 77.315 0 0 0 -11.062-2.621 21.057 21.057 0 0 0 3.741-5.337 10.107 10.107 0 0 1 7.321 7.958zm-11.154-8.228a17.618 17.618 0 0 1 -4.454 4.989c-.949-.1-1.917-.2-2.911-.275a10.065 10.065 0 0 1 7.365-4.714zm-15.146-3.3a21.206 21.206 0 0 0 -10.014-6.8 10.088 10.088 0 0 1 20.052-.027 20.968 20.968 0 0 0 -10.038 6.83zm.014-23.292a17.646 17.646 0 0 1 17.473 15.543c-.37-.02-.74-.038-1.111-.038a21.368 21.368 0 0 0 -2.918.205 13.574 13.574 0 0 0 -26.89.017 21 21 0 0 0 -2.916-.222c-.376 0-.743.037-1.114.056a17.646 17.646 0 0 1 17.476-15.561zm-33.963 36.6a17.595 17.595 0 0 1 34.279-5.593c-.107 0-.209 0-.316 0-1.352 0-2.659.032-3.942.082a13.467 13.467 0 0 0 -14.092-7.966 1.688 1.688 0 0 0 -.336.052 13.593 13.593 0 0 0 -11.558 12.925c-1.469.565-2.8 1.135-3.976 1.689-.027-.395-.059-.791-.059-1.188zm15-9.739a21.057 21.057 0 0 0 3.741 5.337 77.315 77.315 0 0 0 -11.062 2.621 10.107 10.107 0 0 1 7.319-7.957zm8.287 4.719a17.613 17.613 0 0 1 -4.453-4.989 10.063 10.063 0 0 1 7.364 4.714c-.996.078-1.964.172-2.913.276zm10.676 2.925c17.046 0 28.453 4.385 34.335 7.442a1.745 1.745 0 0 0 .332.174 37.193 37.193 0 0 1 3.618 2.161l-2.485 18.535h-71.6l-2.485-18.535c3.125-2.149 15.806-9.777 38.285-9.777zm-32.767 50.879-2.559-19.067h70.652l-2.56 19.067z"/><path d="m31.683 109.942a1.75 1.75 0 0 0 1.5-1.966l-.6-4.46a1.75 1.75 0 0 0 -3.469.464l.6 4.46a1.75 1.75 0 0 0 1.732 1.518 1.708 1.708 0 0 0 .237-.016z"/><path d="m69.818 51.038c1.724.133 3.438.329 5.095.582a1.713 1.713 0 0 0 .266.021 1.75 1.75 0 0 0 .262-3.48c-1.741-.266-3.542-.473-5.353-.613a1.75 1.75 0 0 0 -.27 3.49z"/><path d="m81.3 52.942c9 2.385 13.511 5.985 13.556 6.021a1.75 1.75 0 0 0 2.215-2.71c-.2-.166-5.071-4.1-14.875-6.693a1.749 1.749 0 1 0 -.9 3.382z"/></g></g></svg>