<svg enable-background="new 0 0 128 128" height="512" viewBox="0 0 128 128" width="512" xmlns="http://www.w3.org/2000/svg"><g id="Layer_40"><path d="m18.75 32.09h90.5v59.51h-90.5z" fill="#434953"/><path d="m22.75 36.43h82.5v50.51h-82.5z" fill="#6699d1"/><path d="m118.67 90.6v2.33c0 3.32-2.69 6-6 6h-97.34c-3.31 0-6-2.68-6-6v-2.33z" fill="#e5e7ea"/><path d="m76.17 90.6c0 2.46-2 4.46-4.47 4.46h-15.4c-1.24 0-2.35-.5-3.16-1.31s-1.31-1.92-1.31-3.15z" fill="#cecece"/><path d="m101.68 54.98c1.22 0 2.41-.13 3.57-.35v-18.2h-22.13c0 10.25 8.31 18.55 18.56 18.55z" fill="#6194c1"/><circle cx="101.68" cy="36.43" fill="#e5e7ea" r="16.32"/><path d="m101.68 45.86c-4.88-1.43-8.23-5.9-8.23-10.98v-4.56l8.23-3.32 8.23 3.32v4.56c-.01 5.08-3.36 9.55-8.23 10.98z" fill="#6699d1"/></g></svg>