<svg height="512" viewBox="0 0 88 88" width="512" xmlns="http://www.w3.org/2000/svg"><g id="Online_Shopping" data-name="Online Shopping"><rect fill="#e6ecff" height="72" rx="5" width="76" x="6" y="8"/><path d="m82 13v9h-76v-9a5.0018 5.0018 0 0 1 5-5h66a5.0018 5.0018 0 0 1 5 5z" fill="#4294ff"/><g fill="#376cfb"><circle cx="15" cy="15" r="3"/><circle cx="23" cy="15" r="3"/><circle cx="31" cy="15" r="3"/><path d="m75 16h-20a1 1 0 0 1 0-2h20a1 1 0 0 1 0 2z"/><circle cx="41" cy="63" r="4"/><circle cx="55" cy="63" r="4"/><path d="m28 41h-10a1 1 0 0 1 0-2h10a1 1 0 0 1 0 2z"/><path d="m31 46h-9a1 1 0 0 1 0-2h9a1 1 0 0 1 0 2z"/><path d="m34 51h-8a1 1 0 0 1 0-2h8a1 1 0 0 1 0 2z"/></g><path d="m33 57h26a1 1 0 0 0 .959-.7178l5-17a.9994.9994 0 0 0 -.959-1.2822h-27.8725l-1.1627-4.2632a1 1 0 0 0 -.9648-.7368h-8a1 1 0 0 0 0 2h7.2363l5.4544 20h-5.6907a3 3 0 0 0 0 6h30a1 1 0 0 0 0-2h-30a1 1 0 0 1 0-2z" fill="#4294ff"/></g></svg>