<svg height="512pt" viewBox="-75 0 512 512.00043" width="512pt" xmlns="http://www.w3.org/2000/svg"><path d="m357.269531 69.855469c-10.898437-27.953125-34.710937-41.109375-51.789062-43.878907-21.605469-3.503906-35.910157 3.980469-42.699219 8.941407-14.414062-13.996094-28.800781-21.699219-39.839844-25.910157-52.855468-20.171874-91.871094-2.6875-115.292968 15.53125-18.921876 14.722657-30.695313 31.996094-35.535157 39.976563-14.476562.335937-27.257812 4.957031-34.726562 9.4375-6.003907 3.601563-11.425781 7.878906-16.117188 12.710937-6.738281 6.933594 4.011719 17.402344 10.761719 10.449219 19.59375-20.171875 57.640625-26.003906 76.222656-1.226562 5.808594 7.742187 17.808594-1.257813 12.003906-9-7.972656-10.625-18.65625-17.632813-31.351562-20.671875 5.523438-7.984375 14.851562-19.640625 27.953125-29.835938 29.644531-23.058594 63.535156-27.554687 100.734375-13.359375 14.363281 5.484375 35.289062 17.820313 53.40625 45.476563 5.304688 8.09375 17.851562-.128906 12.550781-8.222656-3.421875-5.222657-6.949219-9.953126-10.519531-14.253907 4.992188-3.253906 14.949219-7.683593 30.046875-5.234375 14.214844 2.304688 32.164063 13.875 40.214844 34.519532 10.664062 27.351562 1 62.726562-27.203125 99.953124-3.117188-.894531-6.398438-1.390624-9.789063-1.421874v-26.101563c0-4.859375-3.507812-11.839844-9.023437-11.839844h-67.007813c-2.582031 0-4.980469 1.328125-6.351562 3.511719-23.195313 36.941406-68.761719 17.929688-70.675781 17.109375-3.273438-1.421875-7.09375-.335937-9.136719 2.589844-15.53125 22.25-33.691407 35.804687-53.976563 40.285156-20.601562 4.550781-37.367187-1.613281-45.53125-5.695313-21.554687-10.777343-33.738281-39.296874-28.339844-66.332031 1.894532-9.488281-12.816406-12.429687-14.710937-2.9375-3.1875 15.972657-1.414063 33.054688 4.996094 48.089844 6.609375 15.507813 17.742187 27.792969 31.347656 34.597656 2.824219 1.410157 6.5 3.027344 10.882813 4.492188.519531 21.957031 19.253906 36.351562 40.15625 36.015625 8.976562 34.085937 33.867187 61.777344 66.214843 74.621094v34.742187c0 3.527344-2.867187 6.398437-6.398437 6.398437h-18.246094c-44.570312 0-80.835938 36.257813-80.835938 80.820313v60.296875c0 4.144531 3.359376 7.5 7.503907 7.5h19.582031c9.675781 0 9.675781-15 0-15h-12.082031v-52.796875c0-34.070313 26.03125-62.175781 59.25-65.488281 1.355469 5.003906 4.257812 12.730468 10.34375 20.382812 6.222656 7.820313 13.863281 13.28125 21.996093 17.050782v22.785156h-14.5c-9.675781 0-9.675781 15 0 15h14.5v15.003906h-14c-9.675781 0-9.675781 15 0 15h14v13.0625h-38.503906c-9.675781 0-9.675781 15 0 15h216.679688c4.140625 0 7.5-3.355469 7.5-7.5v-60.296875c0-44.5625-36.261719-80.820313-80.835938-80.820313h-18.246094c-3.527343 0-6.398437-2.871093-6.398437-6.398437v-34.738281c6.746094-2.667969 13.246094-5.992188 19.398437-9.984375 8.121094-5.265625-.042968-17.851563-8.160156-12.585938-15.445312 10.015625-33.390625 15.308594-51.890625 15.308594-57.644531 0-95.5-48.222656-95.5-102.8125 19.746094-6.140625 37.4375-19.476563 52.71875-39.796875 29.277344 9.414062 62.519531 4.816406 81.25-21.480469h57.03125v68.609375c0 21.644532-7.0625 42.046875-20.417969 59.011719-5.953124 7.558594 5.734376 16.96875 11.785157 9.28125 9.515625-12.082031 16.253906-25.675781 20.042969-40.175781 2.03125.03125 4.117187.03125 6.136718-.125.28125 22.03125-7.589844 43.746094-22.082031 60.375-2.675781-1.15625-5.621094-1.796875-8.710937-1.796875-12.15625 0-22.046876 9.886719-22.046876 22.039062 0 12.15625 9.890626 22.042969 22.046876 22.042969 12.152343 0 22.042968-9.886719 22.042968-22.042969 0-3.582031-.867187-6.96875-2.390625-9.960937 18.699219-21.238282 26.144531-47.363282 26.144531-75.183594 11.316407-6.308594 18.996094-18.394531 18.996094-32.246094 0-11.394531-5.195312-21.59375-13.339844-28.367187 15.554688-20.914063 25.746094-41.304688 30.300782-60.691407 4.40625-18.753906 3.550781-36.1875-2.539063-51.808593zm-119.378906 427.144531v-20.128906h10.03125v.894531c0 4.144531 3.355469 7.5 7.5 7.5h22.035156c4.144531 0 7.5-3.355469 7.5-7.5v-.894531h10.03125v20.128906zm25.03125-43.785156h7.035156v17.050781h-7.035156zm64.011719-9.011719v52.796875h-16.945313v-27.628906c0-4.144532-3.359375-7.5-7.5-7.5h-17.53125v-16.15625c0-4.144532-3.359375-7.5-7.5-7.5h-22.035156c-4.144531 0-7.503906 3.355468-7.503906 7.5v16.15625h-17.527344c-4.144531 0-7.503906 3.355468-7.503906 7.5v27.628906h-51.625v-13.0625h15c9.675781 0 9.675781-15 0-15h-15v-15.003906h14.5c9.675781 0 9.675781-15 0-15h-14.5v-17.679688c8.578125 2.015625 17.078125 2.675782 24.503906 2.675782 34.503906 0 52.488281-13.503907 61.5-24.832032 6.089844-7.65625 8.992187-15.386718 10.347656-20.386718 33.253907 3.277343 59.320313 31.398437 59.320313 65.492187zm-131.132813-114.214844c8.707031 0 17.304688-1.03125 25.648438-3.015625v30.015625c0 11.796875 9.601562 21.398438 21.402343 21.398438h9.171876c-4.035157 10.78125-16.8125 30.542969-56.257813 30.542969s-52.222656-19.761719-56.257813-30.542969h9.238282c11.800781 0 21.402344-9.601563 21.402344-21.398438v-30.011719c8.238281 1.964844 16.824218 3.011719 25.652343 3.011719zm-120.28125-113.992187c3.140625 0 6.410157-.1875 9.777344-.589844-.039063 5.75.105469 11.492188.785156 17.214844-10.804687.085937-19.121093-7.28125-21.859375-17.410156 3.730469.515624 7.527344.785156 11.296875.785156zm195.492188 112.121094c0-3.882813 3.160156-7.039063 7.042969-7.039063 3.882812 0 7.042968 3.15625 7.042968 7.039063 0 3.882812-3.160156 7.039062-7.042968 7.039062-3.882813 0-7.042969-3.15625-7.042969-7.039062zm34.933593-95.496094h-.414062c.503906-4.320313.769531-8.695313.769531-13.117188v-30.667968c11.914063.195312 21.542969 9.9375 21.542969 21.890624 0 12.070313-9.824219 21.894532-21.898438 21.894532zm0 0"/></svg>