<svg height="512" viewBox="0 0 128 128" width="512" xmlns="http://www.w3.org/2000/svg"><g><path d="m61.521 29.376s-.537-22.587 21.538-23.07c0 0 4.954 23.07-21.538 23.07z" fill="#64bc0f"/><path d="m118.256 48.5v66.183a7.116 7.116 0 0 1 -7.216 7.012h-94.08a7.116 7.116 0 0 1 -7.216-7.012v-66.183z" fill="#ef983b"/><path d="m9.744 72.602h108.512v25h-108.512z" fill="#8c3f07"/><path d="m121.694 48.5h-43.394a5.847 5.847 0 0 0 -5.846 5.846v18.918a5.846 5.846 0 0 1 -5.846 5.846 5.847 5.847 0 0 1 -5.846-5.846v-.1a5.846 5.846 0 0 0 -5.846-5.846h-.9a5.846 5.846 0 0 0 -5.846 5.846v11.79a5.846 5.846 0 0 1 -5.848 5.846h-.9a5.846 5.846 0 0 1 -5.846-5.846v-30.604a5.847 5.847 0 0 0 -5.845-5.85h-23.425v-12.113a7.006 7.006 0 0 1 7.006-7h101.376a7.006 7.006 0 0 1 7.006 7z" fill="#f2e7cb"/><circle cx="60.984" cy="20.584" fill="#ef3829" r="8.798"/><g fill="#422002"><path d="m39.623 119.949h-4.5a1.75 1.75 0 0 0 0 3.5h4.5a1.75 1.75 0 1 0 0-3.5z"/><path d="m114.688 27.632h-38.277a17.453 17.453 0 0 0 4.543-3.952c5.955-7.37 3.906-17.316 3.817-17.735a1.714 1.714 0 0 0 -1.75-1.382c-7.1.155-12.726 2.479-16.764 6.9a10.38 10.38 0 0 0 -7.957-1.063c-1.536-2.724-5.108-6.084-11.457-5.832a1.75 1.75 0 0 0 .133 3.5c4.846-.178 7.135 2.243 8.1 3.79a10.516 10.516 0 0 0 -1.916 15.781h-39.848a8.765 8.765 0 0 0 -8.755 8.755v12.106a1.749 1.749 0 0 0 1.75 1.75h1.687v64.433a8.875 8.875 0 0 0 8.966 8.762h9.926a1.75 1.75 0 1 0 0-3.5h-9.926a5.373 5.373 0 0 1 -5.466-5.262v-15.331h105.012v15.335a5.373 5.373 0 0 1 -5.466 5.262h-62.761a1.75 1.75 0 0 0 0 3.5h62.761a8.876 8.876 0 0 0 8.966-8.762v-51.228a1.75 1.75 0 0 0 -3.5 0v7.393h-42.306v-16.502a4.1 4.1 0 0 1 4.1-4.1h38.209v5.528a1.75 1.75 0 1 0 3.5 0v-5.524h1.687a1.749 1.749 0 0 0 1.75-1.75v-12.117a8.765 8.765 0 0 0 -8.758-8.755zm-33.131-19.496c.281 2.732.379 8.76-3.326 13.344a15.935 15.935 0 0 1 -8.671 5.22 10.488 10.488 0 0 0 -.6-13c3.084-3.289 7.303-5.165 12.597-5.564zm-27.621 12.448a7.035 7.035 0 0 1 11.274-5.627 1.809 1.809 0 0 0 .26.249 1.7 1.7 0 0 0 .189.118 7.044 7.044 0 1 1 -11.723 5.26zm-24.206 29.67a4.1 4.1 0 0 1 4.1 4.1v16.5h-22.336v-20.6zm86.776 45.6h-105.012v-21.5h22.333v10.6a7.6 7.6 0 0 0 7.595 7.6h.9a7.605 7.605 0 0 0 7.6-7.6v-10.6h9.178a7.586 7.586 0 0 0 15.018 0h42.392zm-65.866-25a4.092 4.092 0 0 1 3.374-1.782h.9a4.054 4.054 0 0 1 3.356 1.782zm20.06-16.504v18.914a4.1 4.1 0 1 1 -8.192-.1c0-.19-.014-.376-.028-.562v-.002a7.6 7.6 0 0 0 -7.567-7.027h-.9a7.6 7.6 0 0 0 -7.567 7.017v.02c-.013.185-.028.37-.028.559v11.79a4.1 4.1 0 0 1 -4.1 4.1h-.9a4.1 4.1 0 0 1 -4.095-4.1v-30.609a7.605 7.605 0 0 0 -7.6-7.6h-21.666v-10.363a5.26 5.26 0 0 1 5.255-5.255h101.376a5.26 5.26 0 0 1 5.255 5.255v10.367h-41.643a7.6 7.6 0 0 0 -7.6 7.596z"/><path d="m23.658 36.639-1.458 1.354a1.75 1.75 0 0 0 2.381 2.566l1.458-1.359a1.75 1.75 0 0 0 -2.381-2.565z"/><path d="m52.38 45.287a1.75 1.75 0 0 0 -2.474 2.475l1.98 1.98a1.75 1.75 0 1 0 2.474-2.475z"/><path d="m79.865 35.833a1.75 1.75 0 0 0 -2.343.8l-1.022 2.08a1.75 1.75 0 1 0 3.139 1.548l1.027-2.084a1.75 1.75 0 0 0 -.801-2.344z"/><path d="m107.042 37.776-1.876-.417a1.75 1.75 0 0 0 -.76 3.417l1.876.417a1.788 1.788 0 0 0 .382.042 1.75 1.75 0 0 0 .378-3.459z"/></g></g></svg>