<svg height="512" viewBox="0 0 128 128" width="512" xmlns="http://www.w3.org/2000/svg"><g><path d="m117.779 71.182 1.605-1.605a7.887 7.887 0 0 0 0-11.154 7.888 7.888 0 0 1 -1.613-8.818 7.887 7.887 0 0 0 -3.949-10.431l-2.069-.933a7.887 7.887 0 0 1 -4.646-7.19v-2.27a7.888 7.888 0 0 0 -7.887-7.887 7.887 7.887 0 0 1 -7.378-5.094 7.885 7.885 0 0 0 -10.168-4.583l-2.123.8a7.883 7.883 0 0 1 -8.369-1.8l-1.605-1.601a7.887 7.887 0 0 0 -11.154 0 7.886 7.886 0 0 1 -8.818 1.614 7.887 7.887 0 0 0 -10.431 3.949l-.933 2.069a7.885 7.885 0 0 1 -7.19 4.646h-2.27a7.888 7.888 0 0 0 -7.887 7.887 7.887 7.887 0 0 1 -5.094 7.377 7.885 7.885 0 0 0 -4.583 10.168l.8 2.123a7.883 7.883 0 0 1 -1.8 8.369l-1.601 1.605a7.887 7.887 0 0 0 0 11.154 7.888 7.888 0 0 1 1.614 8.823 7.887 7.887 0 0 0 3.949 10.431l2.069.933a7.885 7.885 0 0 1 4.646 7.19v2.27a7.888 7.888 0 0 0 7.887 7.887 7.887 7.887 0 0 1 7.376 5.094 7.885 7.885 0 0 0 10.168 4.583l2.123-.8a7.883 7.883 0 0 1 8.369 1.8l1.605 1.605a7.887 7.887 0 0 0 11.154 0 7.888 7.888 0 0 1 8.824-1.623 7.887 7.887 0 0 0 10.431-3.949l.933-2.069a7.885 7.885 0 0 1 7.19-4.646h2.27a7.888 7.888 0 0 0 7.887-7.887 7.887 7.887 0 0 1 5.094-7.376 7.885 7.885 0 0 0 4.583-10.168l-.8-2.123a7.883 7.883 0 0 1 1.791-8.37z" fill="#ef983b"/><circle cx="64" cy="64" fill="#ffde3e" r="41.688"/><g fill="#422002"><path d="m64 107.438a43.029 43.029 0 0 1 -19.032-4.381 1.75 1.75 0 0 1 1.532-3.145 39.555 39.555 0 0 0 17.5 4.026 39.931 39.931 0 1 0 -32.147-16.238 1.75 1.75 0 0 1 -2.815 2.08 43.44 43.44 0 1 1 34.962 17.658z"/><path d="m38.422 98.673a1.742 1.742 0 0 1 -1.074-.369c-1.1-.859-2.175-1.78-3.188-2.738a1.75 1.75 0 0 1 2.4-2.543c.933.882 1.92 1.73 2.935 2.519a1.75 1.75 0 0 1 -1.077 3.131z"/><path d="m96.028 63.423a1.749 1.749 0 0 1 -1.743-1.623 30.248 30.248 0 0 0 -9.544-19.975 1.749 1.749 0 1 1 2.391-2.554 33.726 33.726 0 0 1 10.643 22.277 1.748 1.748 0 0 1 -1.62 1.87c-.043.004-.085.005-.127.005z"/><path d="m78.442 37.06a1.738 1.738 0 0 1 -.787-.188 30.187 30.187 0 0 0 -6.884-2.478 1.75 1.75 0 0 1 .778-3.413 33.713 33.713 0 0 1 7.682 2.766 1.75 1.75 0 0 1 -.789 3.313z"/><path d="m64 123.439a9.6 9.6 0 0 1 -6.814-2.818l-1.6-1.6a6.151 6.151 0 0 0 -6.513-1.4l-2.122.8a9.638 9.638 0 0 1 -12.425-5.6 6.168 6.168 0 0 0 -5.739-3.965 9.648 9.648 0 0 1 -9.637-9.636v-2.27a6.147 6.147 0 0 0 -3.616-5.595l-2.069-.932a9.648 9.648 0 0 1 -4.83-12.747 6.17 6.17 0 0 0 -1.256-6.862 9.648 9.648 0 0 1 0-13.628l1.605-1.6a6.148 6.148 0 0 0 1.4-6.513l-.8-2.123a9.648 9.648 0 0 1 5.6-12.424 6.168 6.168 0 0 0 3.965-5.74 9.647 9.647 0 0 1 9.636-9.636h2.27a6.148 6.148 0 0 0 5.6-3.616l.933-2.069a9.649 9.649 0 0 1 12.736-4.831 6.169 6.169 0 0 0 6.862-1.255 9.646 9.646 0 0 1 13.628 0l1.605 1.6a6.148 6.148 0 0 0 6.514 1.4l2.121-.8a9.637 9.637 0 0 1 12.425 5.6 6.168 6.168 0 0 0 5.74 3.965 9.647 9.647 0 0 1 9.636 9.636v2.27a6.147 6.147 0 0 0 3.616 5.6l2.069.932a9.648 9.648 0 0 1 4.826 12.745 6.17 6.17 0 0 0 1.255 6.863 9.646 9.646 0 0 1 0 13.628l-1.6 1.605a6.15 6.15 0 0 0 -1.4 6.514l.8 2.121a9.637 9.637 0 0 1 -5.6 12.425 6.168 6.168 0 0 0 -3.965 5.74 9.647 9.647 0 0 1 -9.636 9.636h-2.27a6.147 6.147 0 0 0 -5.595 3.616l-.932 2.069a9.649 9.649 0 0 1 -12.746 4.826 6.173 6.173 0 0 0 -6.862 1.255 9.6 9.6 0 0 1 -6.815 2.814zm-12.768-9.718a9.65 9.65 0 0 1 6.824 2.821l1.6 1.6a6.144 6.144 0 0 0 8.68 0 9.684 9.684 0 0 1 10.774-1.971 6.145 6.145 0 0 0 8.12-3.071l.933-2.07a9.655 9.655 0 0 1 8.786-5.677h2.27a6.142 6.142 0 0 0 6.136-6.136 9.684 9.684 0 0 1 6.226-9.013 6.137 6.137 0 0 0 3.565-7.912l-.8-2.122a9.655 9.655 0 0 1 2.2-10.228l1.6-1.6a6.145 6.145 0 0 0 0-8.68 9.686 9.686 0 0 1 -1.971-10.774 6.145 6.145 0 0 0 -3.075-8.118l-2.07-.933a9.655 9.655 0 0 1 -5.677-8.786v-2.27a6.142 6.142 0 0 0 -6.136-6.136 9.684 9.684 0 0 1 -9.013-6.226 6.137 6.137 0 0 0 -7.912-3.565l-2.122.8a9.653 9.653 0 0 1 -10.228-2.2l-1.6-1.6a6.145 6.145 0 0 0 -8.68 0 9.69 9.69 0 0 1 -10.774 1.971 6.143 6.143 0 0 0 -8.118 3.075l-.934 2.07a9.653 9.653 0 0 1 -8.785 5.677h-2.27a6.142 6.142 0 0 0 -6.136 6.136 9.686 9.686 0 0 1 -6.226 9.013 6.143 6.143 0 0 0 -3.565 7.912l.8 2.123a9.654 9.654 0 0 1 -2.2 10.227l-1.6 1.6a6.145 6.145 0 0 0 0 8.68 9.685 9.685 0 0 1 1.971 10.773 6.145 6.145 0 0 0 3.075 8.119l2.069.933a9.654 9.654 0 0 1 5.678 8.786v2.27a6.142 6.142 0 0 0 6.136 6.136 9.688 9.688 0 0 1 9.013 6.225 6.137 6.137 0 0 0 7.913 3.566l2.122-.8a9.621 9.621 0 0 1 3.401-.625z"/><g><path d="m64 56.934a1.751 1.751 0 0 1 -1.75-1.75v-9.448a1.75 1.75 0 1 1 3.5 0v9.448a1.751 1.751 0 0 1 -1.75 1.75z"/><path d="m64 84.014a1.751 1.751 0 0 1 -1.75-1.75v-9.448a1.75 1.75 0 0 1 3.5 0v9.448a1.751 1.751 0 0 1 -1.75 1.75z"/></g><g><path d="m82.264 65.75h-9.448a1.75 1.75 0 0 1 0-3.5h9.448a1.75 1.75 0 1 1 0 3.5z"/><path d="m55.184 65.75h-9.448a1.75 1.75 0 1 1 0-3.5h9.448a1.75 1.75 0 0 1 0 3.5z"/></g><path d="m70.233 59.517a1.751 1.751 0 0 1 -1.233-2.988l3.341-3.341a1.75 1.75 0 0 1 2.475 2.475l-3.345 3.337a1.744 1.744 0 0 1 -1.238.517z"/><path d="m54.426 75.324a1.75 1.75 0 0 1 -1.238-2.987l3.341-3.337a1.75 1.75 0 1 1 2.471 2.471l-3.34 3.341a1.744 1.744 0 0 1 -1.234.512z"/><path d="m73.574 75.324a1.746 1.746 0 0 1 -1.237-.512l-3.337-3.341a1.75 1.75 0 1 1 2.471-2.471l3.341 3.341a1.75 1.75 0 0 1 -1.238 2.987z"/><path d="m57.766 59.517a1.741 1.741 0 0 1 -1.237-.517l-3.341-3.341a1.75 1.75 0 0 1 2.475-2.475l3.337 3.345a1.751 1.751 0 0 1 -1.237 2.988z"/></g></g></svg>