<svg enable-background="new 0 0 128 128" height="512" viewBox="0 0 128 128" width="512" xmlns="http://www.w3.org/2000/svg"><g id="Layer_41"><g fill="#6699d1"><path d="m34 18.75v4h-11.25v11.25h-4v-15.25z"/><path d="m109.25 18.75v15.25h-4v-11.25h-11.25v-4z"/><path d="m109.25 94.13v15.26h-15.25v-4h11.25v-11.26z"/><path d="m34 105.39v4h-15.25v-15.26h4v11.26z"/><path d="m95.46 88.82c-1.13 3.08-3.55 5.5-6.64 6.63-8.25 3.02-16.6 4.55-24.82 4.55-8.23 0-16.58-1.53-24.82-4.54-3.09-1.13-5.51-3.55-6.64-6.64-6.09-16.66-6.1-32.86-.04-49.52 1.14-3.13 3.61-5.57 6.79-6.68 8.72-3.07 17.34-4.62 25.63-4.62 8.16 0 16.23 1.5 24.01 4.47 3 1.14 5.36 3.54 6.48 6.58 6.15 16.75 6.17 33.03.05 49.77z"/></g><path d="m92.7 84.52c-.31.97-.64 1.95-1 2.92-.72 1.98-2.28 3.53-4.26 4.26-7.8 2.85-15.69 4.3-23.44 4.3-7.76 0-15.64-1.45-23.45-4.3-1.98-.73-3.53-2.28-4.25-4.25-.34-.94-.67-1.88-.97-2.82 0 0 4.69-7.54 11.96-6.26 4.76.85 6.91-2.54 7.83-4.99.4-1.06.09-2.31-.83-2.97-.89-.64-1.58-1.62-2.11-2.62-.96-1.81-1.39-3.85-1.39-5.89v-9.05c0-11.32 13.26-10.21 13.26-10.21s13.26-1.11 13.26 10.21v9.05c0 2.04-.43 4.08-1.39 5.89-.53 1-1.22 1.98-2.11 2.62-.92.66-1.24 1.91-.84 2.97.93 2.45 3.08 5.84 7.84 4.99 6.76-1.19 11.29 5.24 11.89 6.15z" fill="#e5e7ea"/></g></svg>