<svg height="512pt" viewBox="-109 0 512 512" width="512pt" xmlns="http://www.w3.org/2000/svg"><path d="m252.292969 482.960938c4.140625 0 7.496093-3.355469 7.496093-7.496094v-24.015625c0-4.140625-3.355468-7.496094-7.496093-7.496094h-60.050781c-4.140626 0-7.492188 3.355469-7.492188 7.496094v24.015625c0 4.140625 3.351562 7.496094 7.492188 7.496094zm-52.554688-24.019532h45.0625v9.03125h-45.0625zm0 0"/><path d="m233.757812 366.929688c-4.25-1.246094-11.410156-2.675782-16.4375-3.617188-4.929687-13.042969-16.816406-20.757812-30.09375-23.355469v-16.980469c3.117188-1.230468 6.175782-2.601562 9.167969-4.117187h7.882813c9.019531 0 16.8125-5.335937 20.398437-13.011719h22.699219c14.847656 0 26.925781-12.078125 26.925781-26.921875v-34.929687c11.378907-6.273438 19.105469-18.382813 19.105469-32.265625 0-20.226563-16.390625-36.691407-36.589844-36.816407v-21.832031c0-39.820312-21.246094-74.773437-52.996094-94.113281l-51.570312-56.527344c-1.417969-1.554687-3.429688-2.441406-5.535156-2.441406-2.109375 0-4.117188.886719-5.539063 2.441406l-16.863281 18.488282c-6.453125 7.074218 4.523438 17.289062 11.074219 10.101562l11.328125-12.417969 44.378906 48.644531c-3.371094 53.828126-85.390625 53.828126-88.757812 0l9.347656-10.246093c6.453125-7.074219-4.519532-17.285157-11.074219-10.101563l-10.972656 12.03125c-31.777344 19.335938-53.046875 54.300782-53.046875 94.140625v21.832031c-20.195313.125-36.589844 16.589844-36.589844 36.816407 0 20.300781 16.519531 36.820312 36.824219 36.820312h3.382812c8.945313 33.964844 33.746094 61.5625 65.972657 74.363281v17.058594c-13.1875 2.601563-24.996094 10.261719-29.949219 23.191406-4.472657.78125-11.210938 2.125-17.628907 4.070313-16.273437 4.941406-30.902343 15.125-41.191406 28.675781-10.675781 14.066406-16.320312 30.847656-16.320312 48.53125v60.0625c0 4.140625 3.355468 7.496094 7.496094 7.496094h38.203124c9.664063 0 9.664063-14.988281 0-14.988281h-30.707031v-52.570313c0-29.09375 18.835938-54.355468 46.871094-62.863281 3.707031-1.125 7.574219-2.03125 10.945313-2.71875.324218 5.695313 1.800781 11.625 4.46875 17.613281 7.019531 15.730469 21.796874 31.75 43.925781 47.609375 3.300781 2.363281 8.160156 1.558594 10.503906-1.789062 4.804687-6.851563 9.960937-14.175781 13.855469-19.664063 1.21875 1.714844 2.523437 3.542969 3.828125 5.375 5.125 7.183594 10.257812 14.351563 10.257812 14.351563 2.367188 3.308593 7.175781 4.082031 10.457031 1.726562 22.132813-15.859375 36.910157-31.878906 43.929688-47.609375 2.644531-5.929687 4.113281-11.804687 4.457031-17.453125 4.390625.886719 7.875 1.683594 9.964844 2.296875 13.507813 3.953125 25.664063 12.25 34.230469 23.355469 8.863281 11.496094 13.550781 25.25 13.550781 39.769531v52.570313h-190.566406c-9.667969 0-9.667969 14.988281 0 14.988281h198.058593c4.140626 0 7.496094-3.355469 7.496094-7.496094v-60.0625c0-17.863281-5.765625-34.78125-16.671875-48.921875-10.484375-13.597656-25.359375-23.75-41.886719-28.589843zm-29.476562-63.0625h-17.015625c-4.148437 0-7.519531-3.371094-7.519531-7.515626 0-4.144531 3.371094-7.515624 7.519531-7.515624h17.015625c4.144531 0 7.515625 3.371093 7.515625 7.515624 0 4.144532-3.371094 7.515626-7.515625 7.515626zm55.03125-24.941407c0 6.578125-5.355469 11.933594-11.9375 11.933594h-20.457031c-2.398438-9.527344-13.222657-17.015625-22.636719-17.015625h-17.015625c-12.414063 0-22.507813 10.097656-22.507813 22.507812 0 6.277344 2.585938 11.960938 6.746094 16.046876-7.984375 2.140624-16.304687 3.25-24.796875 3.25-52.453125 0-95.125-42.671876-95.125-95.121094v-67.445313c0-30.664062 14.585938-57.980469 37.183594-75.386719 13.710937 60.015626 102.171875 60.03125 115.898437.011719 22.585938 17.40625 37.167969 44.71875 37.167969 75.375v67.445313c0 14.730468-3.273437 28.851562-9.730469 41.960937-4.335937 8.800781 9.195313 15.253907 13.445313 6.625 3.273437-6.648437 5.839844-13.511719 7.691406-20.5625 2.011719.027344 4.070313.035157 6.078125-.113281v30.488281zm-244.324219-67.195312c0-11.960938 9.671875-21.703125 21.601563-21.828125v30.625c0 4.410156.269531 8.757812.777344 13.035156h-.539063c-12.042969 0-21.839844-9.792969-21.839844-21.832031zm241.59375 21.832031h-.523437c.503906-4.296875.761718-8.640625.761718-13.035156v-30.625c11.929688.125 21.601563 9.867187 21.601563 21.828125-.003906 12.039062-9.796875 21.832031-21.839844 21.832031zm-109.878906 97.078125c8.714844 0 17.269531-1.011719 25.535156-2.964844v29.859375c0 6.589844 3.09375 12.730469 8.09375 16.71875-.414062.671875-1.007812 1.496094-1.871093 2.484375-7.976563 9.117188-24.46875 19.503907-31.738282 23.859375-7.269531-4.351562-23.761718-14.742187-31.738281-23.859375-.875-1-1.472656-1.828125-1.886719-2.503906 4.988282-3.992187 8.074219-10.125 8.074219-16.699219v-29.890625c8.195313 1.953125 16.746094 2.996094 25.53125 2.996094zm-21.753906 96.742187c-16.367188-12.621093-27.679688-25.332031-32.890625-37.015624-4.375-9.808594-4.359375-18.648438.046875-25.570313 3.304687-5.199219 8.769531-7.972656 14.074219-9.4375v2.175781c0 .109375-.019532.21875-.023438.328125-2.550781 1.414063-6.546875 4.367188-8.214844 9.484375-.453125.984375-.6875 2.066406-.683594 3.171875-.527343 5.191407 1.632813 10.589844 6.441407 16.085938 8.375 9.570312 23.515625 19.609375 32.351562 25.054687-2.433593 3.417969-5.957031 8.398438-11.101562 15.722656zm76.484375-37.015624c-5.21875 11.699218-16.546875 24.421874-32.945313 37.058593-3.863281-5.40625-8.089843-11.324219-11.195312-15.703125 8.820312-5.433594 24.042969-15.507812 32.449219-25.117187 4.839843-5.527344 6.992187-10.960938 6.429687-16.179688-.007813-1.027343-.226563-2.035156-.632813-2.957031-1.648437-5.214844-5.71875-8.207031-8.289062-9.625-.003906-.105469-.023438-.207031-.023438-.308594v-2.199218c5.335938 1.460937 10.835938 4.234374 14.160157 9.460937 4.40625 6.921875 4.421875 15.761719.046875 25.570313zm0 0"/></svg>