<svg height="512" viewBox="0 0 88 88" width="512" xmlns="http://www.w3.org/2000/svg"><g id="Shopping_Online_T_Shirt" data-name="Shopping Online T Shirt"><rect fill="#e6ecff" height="72" rx="5" width="76" x="6" y="8"/><path d="m82 13v9h-76v-9a5.0018 5.0018 0 0 1 5-5h66a5.0018 5.0018 0 0 1 5 5z" fill="#4294ff"/><g fill="#376cfb"><circle cx="15" cy="15" r="3"/><circle cx="23" cy="15" r="3"/><circle cx="31" cy="15" r="3"/><path d="m75 16h-20a1 1 0 0 1 0-2h20a1 1 0 0 1 0 2z"/></g><path d="m66.4962 39.712-6.4962-3.712h-32l-6.4962 3.712a1 1 0 0 0 -.5038.868v28.42a1 1 0 0 0 1 1h44a1 1 0 0 0 1-1v-28.42a1 1 0 0 0 -.5038-.868z" fill="#4294ff"/><path d="m56 30-12 9-12-9z" fill="#2946ed"/><path d="m45 39v31h-2v-31a1 1 0 0 1 2 0z" fill="#2946ed"/><circle cx="48" cy="50" fill="#376cfb" r="1"/><circle cx="48" cy="57" fill="#376cfb" r="1"/><circle cx="48" cy="64" fill="#376cfb" r="1"/><path d="m62 49h-8a1 1 0 0 0 -1 1v8a1 1 0 0 0 .5527.8945l4 2a1.001 1.001 0 0 0 .8946 0l4-2a1 1 0 0 0 .5527-.8945v-8a1 1 0 0 0 -1-1z" fill="#376cfb"/><path d="m62 49h-8a1 1 0 0 0 -1 1v3h10v-3a1 1 0 0 0 -1-1z" fill="#2946ed"/><path d="m14.293 54.707-2-2a.9994.9994 0 0 1 0-1.414l2-2a1 1 0 0 1 1.414 1.414l-1.2929 1.293 1.2929 1.293a1 1 0 0 1 -1.414 1.414z" fill="#4294ff"/><path d="m72.293 54.707a.9994.9994 0 0 1 0-1.414l1.2929-1.293-1.2929-1.293a1 1 0 0 1 1.414-1.414l2 2a.9994.9994 0 0 1 0 1.414l-2 2a.9994.9994 0 0 1 -1.414 0z" fill="#4294ff"/><path d="m28 36 10 8 6-5-12-9z" fill="#376cfb"/><path d="m60 36-10 8-6-5 12-9z" fill="#376cfb"/></g></svg>