<svg height="512" viewBox="0 0 88 88" width="512" xmlns="http://www.w3.org/2000/svg"><g id="Wishlist"><path d="m11 7a5 5 0 0 0 -5 5v27a1 1 0 0 0 1 1h11v-33z" fill="#d0dbf7"/><path d="m63 7h-52a5 5 0 0 1 5 5v61a8 8 0 0 0 8 8h44v-69a5 5 0 0 0 -5-5z" fill="#e6ecff"/><path d="m37.9976 19.9287a1 1 0 0 0 -.9976-.9287h-14a1 1 0 0 0 -.9976.9287l-1 14a1 1 0 0 0 .9976 1.0713h16a1 1 0 0 0 .9976-1.0713z" fill="#4294ff"/><path d="m33 24a1 1 0 0 1 -1-1v-6a2 2 0 0 0 -4 0v6a1 1 0 0 1 -2 0v-6a4 4 0 0 1 8 0v6a1 1 0 0 1 -1 1z" fill="#376cfb"/><g fill="#4294ff"><path d="m62 35h-19a1 1 0 0 1 0-2h19a1 1 0 0 1 0 2z"/><path d="m62 41.3335h-40a1 1 0 0 1 0-2h40a1 1 0 0 1 0 2z"/><path d="m62 47h-3a1 1 0 0 1 0-2h3a1 1 0 0 1 0 2z"/><path d="m62 53h-3a1 1 0 0 1 0-2h3a1 1 0 0 1 0 2z"/><path d="m62 59h-3a1 1 0 0 1 0-2h3a1 1 0 0 1 0 2z"/><path d="m62 65h-3a1 1 0 0 1 0-2h3a1 1 0 0 1 0 2z"/><path d="m55 47h-33a1 1 0 0 1 0-2h33a1 1 0 0 1 0 2z"/><path d="m55 53h-33a1 1 0 0 1 0-2h33a1 1 0 0 1 0 2z"/><path d="m55 59h-33a1 1 0 0 1 0-2h33a1 1 0 0 1 0 2z"/><path d="m55 65h-33a1 1 0 0 1 0-2h33a1 1 0 0 1 0 2z"/><path d="m62 29h-19a1 1 0 0 1 0-2h19a1 1 0 0 1 0 2z"/><path d="m62 23h-19a1 1 0 0 1 0-2h19a1 1 0 0 1 0 2z"/><path d="m62 17h-19a1 1 0 0 1 0-2h19a1 1 0 0 1 0 2z"/><path d="m62 17h-19a1 1 0 0 1 0-2h19a1 1 0 0 1 0 2z"/></g><path d="m81 71h-48a1 1 0 0 0 -1 1v1a8 8 0 0 1 -8 8h50a8 8 0 0 0 8-8v-1a1 1 0 0 0 -1-1z" fill="#d0dbf7"/><path d="m39 33.93a.9848.9848 0 0 1 -.27.75 1.0067 1.0067 0 0 1 -.73.32h-16a1.0067 1.0067 0 0 1 -.73-.32.9848.9848 0 0 1 -.27-.75l.35-4.93h17.3z" fill="#376cfb"/></g></svg>