<svg enable-background="new 0 0 128 128" height="512" viewBox="0 0 128 128" width="512" xmlns="http://www.w3.org/2000/svg"><g id="Layer_42"><path d="m24.2 18.75h79.6v90.5h-79.6z" fill="#373d44"/><g fill="#4c545e"><path d="m94.63 73.38v16.29h-7.04l-.12-.09c.01.03.01.06.01.09h-9.15l-5.54-5.55v-16.29h10.46l.07.07c.04-.02.06-.05.06-.07h5.7z"/><path d="m73.25 67.83h.13c0 .02-.02.05-.06.07z"/><path d="m57.59 89.67h-.11c0-.03 0-.06-.01-.09z"/><path d="m92 32h4v32h-4z"/><path d="m85.08 32h4v32h-4z"/><path d="m78.17 32h4v32h-4z"/><path d="m71.25 32h4v32h-4z"/><path d="m40.25 85.42h22.24v4h-22.24z"/><path d="m60.08 93.5-5 9.5h27.41l6-9.5zm1.07 7.75c-.83 0-1.5-.67-1.5-1.5s.67-1.5 1.5-1.5c.82 0 1.5.67 1.5 1.5s-.68 1.5-1.5 1.5zm21.06-3c-.83 0-1.5-.67-1.5-1.5s.67-1.5 1.5-1.5 1.5.67 1.5 1.5-.67 1.5-1.5 1.5z"/></g><path d="m47.33 39.58v15.5h15v-15.5zm2.75 3h9.5v9.5h-9.5z" fill="#5ac0a6"/><path d="m51.08 43.58h9.5v9.5h-9.5z" fill="#56b297"/><path d="m34.33 64.02h6.42v7.62h-6.42z" fill="#4c545e"/><g><path d="m55.58 35.27v4.31h-2v-4.31c0-.55.45-1 1-1 .56 0 1 .45 1 1z" fill="#434953"/></g><g><path d="m60.56 35.25v4.31.02h-2c0-.01 0-.01 0-.02v-4.31c0-.55.45-1 1-1s1 .45 1 1z" fill="#434953"/></g><g><path d="m51.08 35.27v4.31h-2v-4.31c0-.55.45-1 1-1 .56 0 1 .45 1 1z" fill="#434953"/></g><g><path d="m47.33 46.58v2h-4.31c-.55 0-1-.44-1-1 0-.55.45-1 1-1z" fill="#434953"/></g><g><path d="m47.33 41.6v2c-.01 0-.01 0-.02 0h-4.31c-.55 0-1-.44-1-1 0-.55.45-1 1-1h4.31z" fill="#434953"/></g><g><path d="m47.33 51.08v2h-4.31c-.55 0-1-.44-1-1 0-.55.45-1 1-1z" fill="#434953"/></g><g><path d="m56.08 55.08v4.32c0 .55-.44 1-1 1-.55 0-1-.45-1-1v-4.32z" fill="#434953"/></g><g><path d="m51.1 55.08v.02 4.32c0 .55-.44 1-1 1-.55 0-1-.45-1-1v-4.32c0-.01 0-.01 0-.02z" fill="#434953"/></g><g><path d="m60.58 55.08v4.32c0 .55-.44 1-1 1-.55 0-1-.45-1-1v-4.32z" fill="#434953"/></g><g><path d="m67.65 47.08c0 .56-.45 1-1 1h-4.32v-2h4.32c.55 0 1 .45 1 1z" fill="#434953"/></g><g><path d="m67.67 52.06c0 .56-.45 1-1 1h-4.32c-.01 0-.01 0-.02 0v-2h.02 4.32c.55 0 1 .45 1 1z" fill="#434953"/></g><g><path d="m67.65 42.58c0 .56-.45 1-1 1h-4.32v-2h4.32c.55 0 1 .45 1 1z" fill="#434953"/></g><path d="m39.67 25.67v21.33l-2.52 2.78-.39.44-3.92 4.33-.55.61-8.09 8.95-4.2-.11v-55.33h3.83l.37.4 9.02 9.68z" fill="#4c545e"/><circle cx="30" cy="103.75" fill="#e5e7ea" r="2"/><circle cx="58.04" cy="67.71" fill="#e5e7ea" r="4.31"/><circle cx="98" cy="103.75" fill="#e5e7ea" r="2"/><circle cx="98" cy="24.25" fill="#e5e7ea" r="2"/><circle cx="61.15" cy="99.75" fill="#e5e7ea" r="1.5"/><circle cx="82.21" cy="96.75" fill="#e5e7ea" r="1.5"/><path d="m79.25 20.94-6 4.31-2.78 2-3.22 2.31h-24.07v-14.62h30.07z" fill="#4c545e"/><path d="m37.54 97h12v8h-12z" fill="#4c545e"/><g><path d="m33 77c0 .55-.45 1-1 1h-7.8v-2h7.8c.55 0 1 .45 1 1z" fill="#e5e7ea"/></g><g><path d="m33 81.58c0 .56-.45 1-1 1h-7.8v-2h7.8c.55 0 1 .45 1 1z" fill="#fdcc58"/></g><g><path d="m33 86.17c0 .55-.45 1-1 1h-7.8v-2h7.8c.55 0 1 .44 1 1z" fill="#e5e7ea"/></g><g><path d="m33 90.75c0 .55-.45 1-1 1h-7.8v-2h7.8c.55 0 1 .45 1 1z" fill="#fdcc58"/></g><g><path d="m33 95.33c0 .56-.45 1-1 1h-7.8v-2h7.8c.55 0 1 .45 1 1z" fill="#e5e7ea"/></g><g><path d="m65.06 20.33-2 2h-19.88v-2z" fill="#e5e7ea"/></g><g><path d="m34.33 64.92v2h-2.35c-.55 0-1-.45-1-1 0-.56.45-1 1-1z" fill="#434953"/></g><g><path d="m34.33 68.92v2h-2.35c-.55 0-1-.45-1-1 0-.56.45-1 1-1z" fill="#434953"/></g><g><path d="m44.1 65.92c0 .55-.45 1-1 1h-2.35v-2h2.35c.55 0 1 .44 1 1z" fill="#434953"/></g><g><path d="m44.1 69.92c0 .55-.45 1-1 1h-2.35v-2h2.35c.55 0 1 .44 1 1z" fill="#434953"/></g><g><path d="m73.25 25.25-.58.42-2.2 1.58h-19.1l2-2z" fill="#fdcc58"/></g><path d="m50.08 42.58h9.5v9.5h-9.5z" fill="#e5e7ea"/><path d="m40.25 75.94h22.24v4h-22.24z" fill="#4c545e"/><g><path d="m41.17 97h.75v8h-.75z" fill="#373d44"/></g><g><path d="m37.54 100.62h12v.76h-12z" fill="#373d44"/></g><g><path d="m45.17 97h.75v8h-.75z" fill="#373d44"/></g><g><path d="m41.92 87.04h18.52v.75h-18.52z" fill="#e5e7ea"/></g><g><path d="m41.92 77.56h18.52v.75h-18.52z" fill="#e5e7ea"/></g><g><path d="m72.88 33.79h.75v28.21h-.75z" fill="#e5e7ea"/></g><g><path d="m79.79 33.79h.75v28.21h-.75z" fill="#e5e7ea"/></g><g><path d="m86.64 33.79h.75v28.21h-.75z" fill="#e5e7ea"/></g><g><path d="m93.63 33.79h.75v28.21h-.75z" fill="#e5e7ea"/></g><path d="m88.55 89.67h-3.79l-5.57-7.29 8.99 6.87c.16.12.28.26.37.42z" fill="#fdcc58"/><path d="m89.13 75.12-8.92-6.79c-.18-.14-.32-.31-.42-.5h3.78z" fill="#fdcc58"/><path d="m39.67 33.8v.79l-15.47-14.04v-3.8z" fill="#efbb54"/><path d="m39.67 42.48v.5l-15.47-13.71v-3.35z" fill="#d9dadb"/><path d="m37.15 49.78-.39.44-12.56-11.41v-3.29z" fill="#efbb54"/><path d="m24.2 47.95v16.16l-4.2-.11v-19.79z" fill="#565f68"/><path d="m24.2 38.81v6.04l-4.2-4.72v-5.13z" fill="#565f68"/><path d="m24.2 29.27v6.25l-4.2-4.63v-5.34z" fill="#565f68"/><path d="m24.2 20.55v5.37l-4.2-4.49v-4.69z" fill="#565f68"/><path d="m24.2 9.07v7.68l-4.2-4.63v-3.45h3.83z" fill="#565f68"/><path d="m24.2 16.75v3.8l-4.2-3.81v-4.62z" fill="#fdcc58"/><path d="m24.2 25.92v3.35l-4.2-3.72v-4.12z" fill="#e5e7ea"/><path d="m24.2 35.52v3.29l-4.2-3.81v-4.11z" fill="#fdcc58"/><path d="m24.2 44.85v3.1l-4.2-3.74v-4.08z" fill="#e5e7ea"/><path d="m32.84 54.55-.55.61-8.09-7.21v-3.1z" fill="#d9dadb"/></g></svg>