<svg height="512pt" viewBox="-43 0 512 512.04696" width="512pt" xmlns="http://www.w3.org/2000/svg"><path d="m423.90625 362.261719c-2.179688-1.949219-5.289062-2.453125-7.972656-1.292969-.9375.402344-23.191406 9.640625-39.179688-16.800781-11.589844-19.167969-4.53125-47.082031 3.640625-79.40625 5.042969-19.945313 10.253907-40.574219 11.710938-61.730469 4.742187-69.015625-9.117188-121.433594-41.191407-155.785156-44.109374-47.246094-109.695312-47.246094-137.703124-47.246094-20.421876 0-62.921876 0-101.367188 19.890625-8.585938 4.441406-1.699219 17.753906 6.886719 13.3125 35.207031-18.214844 75.242187-18.214844 94.480469-18.214844 26.058593 0 87.082031 0 126.746093 42.488281 29.125 31.195313 41.640625 79.820313 37.195313 144.53125-1.363282 19.8125-6.410156 39.777344-11.289063 59.082032-8.621093 34.101562-16.761719 66.308594-1.933593 90.835937 12.191406 20.160157 28.691406 25.886719 41.882812 25.886719.589844 0-5.738281 11.945312-16.40625 22.382812-9.574219 9.363282-21.976562 15.214844-35.289062 17.109376-2.808594-7.839844-6.84375-15.246094-12.066407-22.007813-5.90625-7.648437-17.769531 1.507813-11.863281 9.160156 8.921875 11.554688 13.636719 25.394531 13.636719 40.03125v52.570313h-16.699219v-27.242188c0-4.140625-3.351562-7.496094-7.492188-7.496094h-71.925781c-4.140625 0-7.496093 3.355469-7.496093 7.496094v27.242188h-157.632813v-52.570313c0-33.101562 24.667969-60.539062 56.582031-64.933593l15.765625 31.652343c7.226563 14.503907 21.785157 23.515625 37.988281 23.515625h40.59375c16.207032 0 30.761719-9.011718 37.988282-23.515625l15.765625-31.652343c6.46875.886718 12.738281 2.707031 18.707031 5.496093 8.773438 4.097657 15.09375-9.496093 6.34375-13.582031-10.703125-5-22.160156-7.53125-34.054688-7.53125h-18.179687c-3.503906 0-6.351563-2.851562-6.351563-6.355469v-34.613281c5.421876-2.144531 10.683594-4.710938 15.722657-7.710938 8.308593-4.945312.640625-17.828124-7.664063-12.882812-14.640625 8.714844-31.441406 13.324219-48.582031 13.324219-52.453125 0-95.125-42.671875-95.125-95.117188v-52.660156h38.675781c3.226563 0 6.09375-2.0625 7.109375-5.125l15.550781-46.644531 14.140626 46.457031c.957031 3.15625 3.871093 5.3125 7.167968 5.3125h39.96875c3.125 0 5.921875-1.9375 7.019532-4.863281l10.550781-28.144532 9.296875 27.882813c1.019531 3.0625 3.882812 5.125 7.109375 5.125h34.371093l-.710937 52.558594v.101562c0 22.167969-7.792969 43.746094-21.9375 60.761719-6.179687 7.433594 5.347656 17.015625 11.527344 9.582031 10.300781-12.394531 17.6875-26.878906 21.753906-42.308593 2.082031.035156 4.222656.035156 6.292969-.132813.28125 21.960937-7.574219 43.621094-22.019532 60.199219-2.664062-1.152344-5.601562-1.792969-8.6875-1.792969-12.132812 0-22 9.871094-22 22 0 12.132813 9.867188 22.003906 22 22.003906 12.132813 0 22.003907-9.871093 22.003907-22.003906 0-3.574219-.863281-6.949219-2.382813-9.9375 18.675782-21.210937 26.078125-47.289063 26.078125-75.070313 11.191407-6.316406 18.765625-18.3125 18.765625-32.050781 0-19.949219-15.964844-36.230469-35.789062-36.761719l.195312-14.539062c.054688-4.125-3.371094-7.597656-7.492187-7.597656h-36.570313l-14.277344-42.839844c-2.152343-6.449219-11.699218-6.730469-14.128906-.261719l-16.160156 43.101563h-29.226562l-19.367188-63.636719c-2.039062-6.707031-12.019531-6.964844-14.277344-.1875l-21.277344 63.824219h-40.769531c-4.140625 0-7.492187 3.355468-7.492187 7.496094v14.625c-20.113282.207031-36.410156 16.621093-36.410156 36.777343 0 20.285157 16.503906 36.785157 36.789062 36.785157h3.242188c8.945312 33.957031 33.742187 61.546874 65.964843 74.34375v34.621093c0 3.503907-2.847656 6.355469-6.351562 6.355469h-18.179688c-34.941406 0-64.746093 22.363281-75.878906 53.527344-16.996094-1.789063-31.597656-10.464844-43.445313-25.855469-3.707031-4.8125-6.613281-9.636719-8.800781-13.800781.195313 0 .394531.003906.589844.003906 13.191406 0 29.695313-5.726562 41.882813-25.886719 14.828124-24.527343 6.6875-56.734375-1.933594-90.835937-4.878906-19.304688-9.925782-39.269532-11.289063-59.082032-4.742187-69.011718 9.789063-119.640624 43.183594-150.488281 7.101563-6.558593-3.070313-17.570312-10.171875-11.011719-36.894531 34.082032-53.03125 88.761719-47.964844 162.523438 1.453125 21.160156 6.667969 41.785156 11.710938 61.730469 8.171875 32.324219 15.226562 60.238281 3.640625 79.40625-6.683594 11.050781-15.199219 17.234375-25.316407 18.382812-7.785156.886719-13.855468-1.582031-13.867187-1.582031-5.691406-2.464844-11.996094 3.136719-10.125 9.117188.191406.613281 4.859375 15.273437 16.261719 30.246093 13.824218 18.152344 31.660156 29.03125 51.917968 31.78125-.625 4.035157-.949218 8.167969-.949218 12.375v60.0625c0 4.140625 3.351562 7.496094 7.492187 7.496094h276.234375c4.140625 0 7.492188-3.355469 7.492188-7.496094v-60.0625c0-4.265625-.335938-8.472656-.980469-12.605469 20.636719-3.347656 38.621094-14.394531 52.332031-32.28125 11.304688-14.753906 15.730469-28.964843 15.914063-29.5625.859375-2.792968.011719-5.828124-2.167969-7.777343zm-135.660156-33.371094c0-3.863281 3.144531-7.011719 7.011718-7.011719 3.867188 0 7.015626 3.144532 7.015626 7.011719s-3.148438 7.015625-7.015626 7.015625c-3.867187 0-7.011718-3.148438-7.011718-7.015625zm56.488281-117.058594c0 12.019531-9.777344 21.796875-21.796875 21.796875h-.421875c.515625-4.296875.796875-8.632812.800781-12.992187l.414063-30.582031c11.652343.417968 21.003906 10.023437 21.003906 21.777343zm-241.265625 21.796875c-12.019531 0-21.800781-9.777344-21.800781-21.796875 0-11.890625 9.578125-21.582031 21.421875-21.789062v30.539062c0 4.414063.269531 8.765625.777344 13.046875zm84.199219 123.953125v-29.890625c16.714843 3.984375 34.347656 3.976563 51.066406.003906v29.886719c0 11.769531 9.574219 21.34375 21.34375 21.34375h10.75l-12.75 25.597657c-4.671875 9.382812-14.089844 15.210937-24.570313 15.210937h-40.59375c-10.480468 0-19.898437-5.828125-24.574218-15.210937l-12.75-25.597657h10.734375c11.769531 0 21.34375-9.574219 21.34375-21.34375zm67.535156 119.730469h56.933594v19.746094h-56.933594zm0 0"/></svg>