<svg height="511pt" viewBox="-65 1 511 511.999" width="511pt" xmlns="http://www.w3.org/2000/svg"><path d="m372.675781 316.449219c-18.871093-46.5-12.148437-90.292969-5.648437-132.644531 2.871094-18.695313 5.582031-36.355469 6.191406-54.140626 1.375-39.972656-8.96875-71.664062-30.738281-94.195312-22.421875-23.203125-56.191407-35.46875-97.660157-35.46875-31.226562 0-52.398437 11.277344-71.074218 21.226562-21.738282 11.582032-40.515625 21.585938-71.777344 12.71875-24.597656-6.976562-45.726562-5.484374-62.800781 4.433594-16.949219 9.84375-29.007813 27.632813-34.882813 51.441406-2.316406 9.386719 12.238282 12.976563 14.550782 3.59375 3.402343-13.789062 10.996093-32.277343 27.863281-42.074218 13.421875-7.800782 30.644531-8.800782 51.183593-2.976563 37.066407 10.511719 60.375-1.902343 82.914063-13.90625 17.960937-9.574219 36.539063-19.46875 64.023437-19.46875 37.308594 0 67.351563 10.683594 86.882813 30.898438 18.835937 19.496093 27.765625 47.507812 26.539063 83.261719-.582032 16.898437-3.226563 34.136718-6.027344 52.382812-6.808594 44.359375-13.851563 90.226562 6.570312 140.550781 9.5625 23.566407 9.734375 43.898438.527344 62.160157-6.796875 13.480468-18.019531 24.039062-27.890625 31.757812-8.507813-22.777344-26.957031-41.109375-50.511719-48.339844-9.945312-3.050781-21.253906-3.132812-31.558594-3.710937-5.257812-.292969-18.023437 1.671875-18.023437-6.613281v-34.597657c3.171875-1.25 6.28125-2.648437 9.320313-4.191406h7.691406c9.019531 0 16.808594-5.335937 20.398437-13.011719h22.699219c14.847656 0 26.925781-12.078125 26.925781-26.921875v-34.929687c11.378907-6.273438 19.105469-18.382813 19.105469-32.269532 0-20.179687-16.320312-36.613281-36.457031-36.8125v-14.300781c11.121093-11.929687 20.265625-26.503906 27.113281-43.386719 3.632812-8.957031-10.261719-14.589843-13.890625-5.628906-12.0625 29.75-30.992187 50.582032-56.269531 61.921875-39.972656 17.929688-95.625 5.039063-103.207032-43.953125-1.429687-21.011718-16.355468-42.28125-39.382812-40.558594-20.664062 1.546876-34.859375 22.054688-34.859375 41.730469v44.175781c-20.136719.199219-36.457031 16.632813-36.457031 36.8125 0 20.304688 16.519531 36.824219 36.828125 36.824219h3.257812c8.960938 34 33.789063 61.625 66.054688 74.4375v34.660157c0 8.414062-12.878907 6.125-18.183594 6.328124-9.921875.382813-20.5625.605469-30.117187 3.589844-24.863282 7.765625-43.757813 26.386719-52.148438 49.679688-23.472656-15.554688-38.175781-49.960938-21.683594-97.527344 16.09375-46.433594 8.464844-77.480469-.375-113.429688-6-24.40625-12.203125-49.644531-12.203125-83.882812 0-9.667969-14.988281-9.667969-14.988281 0 0 36.054688 6.714844 63.363281 12.636719 87.457031 8.609375 35.03125 15.414062 62.699219.765625 104.945313-9.675782 27.910156-10.417969 54.449218-2.144532 76.753906 6.605469 17.8125 18.628907 32.128906 34.144532 40.871094-.609375 4-.933594 8.082031-.933594 12.230468v60.152344c0 4.140625 3.355469 7.496094 7.496094 7.496094h208.257812c9.667969 0 9.667969-14.988281 0-14.988281h-32.429687v-18.179688c0-4.140625-3.351563-7.496093-7.492188-7.496093h-22.53125v-1.238282c34.539063-12.785156 53.007813-37.15625 62.511719-55.816406 6.882812-13.507812 10.101562-25.835938 11.550781-33.179688 29.089844 4.707032 49.238281 35.179688 49.238281 63.25v52.660157h-28.871093c-9.667969 0-9.667969 14.988281 0 14.988281h36.363281c4.140625 0 7.496094-3.355469 7.496094-7.496094v-60.152344c0-4.292968-.347656-8.53125-1.007813-12.6875 12.09375-8.839843 27.8125-22.167968 37.144531-40.671874 11.113282-22.042969 11.105469-47.121094-.019531-74.542969zm-207.488281 40.886719c-.242188-1.074219 0-2.523438 0-3.628907 16.535156 5.597657 34.8125 6.007813 51.152344-.527343 0 1.277343.261718 2.910156 0 4.15625 0 8.972656 5.570312 16.65625 13.425781 19.816406-20.855469 15.265625-56.328125 16.144531-76.679687-.597656 7.148437-3.460938 12.101562-10.761719 12.101562-19.21875zm66.136719-53.777344c-9.695313 0-9.695313-15.035156 0-15.035156h17.015625c9.695312 0 9.695312 15.035156 0 15.035156zm69.320312-70.308594h-.417969c.519532-4.335938.785157-8.707031.785157-13.085938v-30.574218c11.871093.199218 21.46875 9.910156 21.46875 21.824218 0 12.039063-9.796875 21.835938-21.835938 21.835938zm-241.597656-21.835938c0-11.914062 9.597656-21.625 21.46875-21.824218v30.574218c0 4.425782.269531 8.792969.777344 13.085938h-.410157c-12.039062 0-21.835937-9.796875-21.835937-21.835938zm36.457031 8.75v-87.839843c.535156-13.722657 7.484375-30.175781 24.195313-28.5 14.125 1.417969 18.324219 15.519531 20.207031 27.464843 5.289062 35.542969 35.863281 60.949219 70.4375 65.195313 26.285156 3.226563 54.917969-6.875 75.679688-22.613281v46.292968c0 15.480469-3.59375 30.238282-10.679688 43.867188-4.472656 8.597656 8.871094 15.433594 13.300781 6.914062 3.746094-7.203124 6.660157-14.835937 8.726563-22.707031 1.988281.03125 4.019531.035157 6-.113281v30.488281c0 6.582031-5.351563 11.933594-11.933594 11.933594h-20.429688c-2.523437-9.535156-13.132812-17.015625-22.667968-17.015625h-17.015625c-19.746094 0-29.890625 24.800781-15.6875 38.625-8.007813 2.152344-16.351563 3.265625-24.871094 3.265625-52.527344 0-95.261719-42.730469-95.261719-95.257813zm95.261719 110.246094c8.726563 0 17.292969-1.011718 25.574219-2.96875v9.210938c-21.488282 11.542968-42.769532 4.660156-51.152344 1.035156v-10.277344c8.210938 1.957032 16.773438 3 25.578125 3zm-130.808594 166.601563v-52.660157c0-28.5625 20.402344-57.523437 49.210938-63.492187 1.425781 7.3125 4.640625 19.765625 11.597656 33.425781 9.503906 18.65625 27.976563 43.027344 62.511719 55.816406v1.238282h-22.53125c-4.136719 0-7.492188 3.355468-7.492188 7.492187v18.179688zm153.347657-.691407h-45.0625v-9.992187h45.0625zm-15.035157-42.367187c-.257812-9.621094-14.734375-9.8125-14.992187-.007813-21.457032-9.203124-37.890625-24.617187-48.898438-45.96875-5.992187-11.617187-8.910156-22.375-10.265625-28.878906 3.582031-.246094 7.183594-.410156 10.421875-.519531 25.265625 34.75 88.652344 32.777344 114.949219.394531 2.601563.152344 5.257813.328125 7.863281.527344-3.40625 15.949219-16.046875 55.867188-59.078125 74.453125zm0 0"/></svg>