<svg height="512" viewBox="0 0 128 128" width="512" xmlns="http://www.w3.org/2000/svg"><g><path d="m102.441 40.482a54.4 54.4 0 0 0 -76.882 0 4.106 4.106 0 0 1 -1.658 1.01l14.953 29.908a30.292 30.292 0 0 1 3.2 13.547v22.859a4.224 4.224 0 1 0 8.448 0v-13.113l13.5 27 17.098-34.193v5.9a4.311 4.311 0 1 0 8.622 0v-11.042a3.38 3.38 0 0 1 3.38-3.38h1.063a3.379 3.379 0 0 0 3.376-3.378v-16.251a18.462 18.462 0 0 1 1.7-7.736l4.859-10.119a4.1 4.1 0 0 1 -1.659-1.012z" fill="#ffde3e"/><path d="m18.776 39.316a4.254 4.254 0 0 0 6.783 1.166 54.4 54.4 0 0 1 76.882 0 4.255 4.255 0 0 0 6.783-1.166l4.551-9.105a4.256 4.256 0 0 0 -.946-5.053 72.663 72.663 0 0 0 -97.658 0 4.256 4.256 0 0 0 -.946 5.053z" fill="#ef983b"/><g fill="#ef3829"><circle cx="64" cy="81.593" r="6.541"/><circle cx="47.116" cy="48.235" r="6.541"/><circle cx="80.884" cy="57.2" r="6.541"/></g><g fill="#422002"><path d="m114.005 23.862c-1.7-1.546-3.5-3.03-5.338-4.414a1.75 1.75 0 1 0 -2.1 2.8c1.754 1.318 3.466 2.734 5.088 4.207a2.516 2.516 0 0 1 .558 2.976l-4.552 9.1a2.526 2.526 0 0 1 -1.877 1.378 2.4 2.4 0 0 1 -2.1-.667 56.147 56.147 0 0 0 -79.356 0 2.394 2.394 0 0 1 -2.1.667 2.527 2.527 0 0 1 -1.876-1.377l-4.552-9.1a2.516 2.516 0 0 1 .558-2.976 70.952 70.952 0 0 1 83.089-8.921 1.75 1.75 0 0 0 1.752-3.03 74.453 74.453 0 0 0 -87.199 9.357 6.027 6.027 0 0 0 -1.336 7.132l4.552 9.1a6.077 6.077 0 0 0 5.431 3.346c.09 0 .175-.021.264-.025l3.107 6.212a1.75 1.75 0 0 0 3.131-1.565l-2.938-5.862a5.906 5.906 0 0 0 .584-.48 52.647 52.647 0 0 1 74.409 0 6.05 6.05 0 0 0 .6.518l-4.154 8.641a20.364 20.364 0 0 0 -1.859 8.47v16.251a1.631 1.631 0 0 1 -1.629 1.63h-1.062a5.135 5.135 0 0 0 -5.13 5.128v11.042a2.561 2.561 0 1 1 -5.122 0v-5.9a1.75 1.75 0 0 0 -3.316-.782l-15.532 31.062-11.935-23.869a1.75 1.75 0 0 0 -3.315.782v13.114a2.474 2.474 0 1 1 -4.948 0v-22.859a32.2 32.2 0 0 0 -3.383-14.33l-1.7-3.4a1.75 1.75 0 0 0 -3.131 1.565l1.7 3.4a28.679 28.679 0 0 1 3.012 12.765v22.859a5.974 5.974 0 1 0 11.948 0v-5.7l10.185 20.37a1.75 1.75 0 0 0 3.13 0l13.914-27.823a6.061 6.061 0 0 0 11.992-1.254v-11.043a1.631 1.631 0 0 1 1.63-1.628h1.063a5.136 5.136 0 0 0 5.129-5.13v-16.25a16.8 16.8 0 0 1 1.526-6.978l4.294-8.939a6.014 6.014 0 0 0 5.678-3.333l4.552-9.1a6.027 6.027 0 0 0 -1.336-7.137z"/><path d="m33.019 55.817a1.75 1.75 0 1 0 -3.131 1.565l2.012 4.027a1.75 1.75 0 1 0 3.131-1.565z"/><path d="m55.708 81.593a8.292 8.292 0 1 0 8.292-8.293 8.3 8.3 0 0 0 -8.292 8.293zm8.292-4.793a4.792 4.792 0 1 1 -4.792 4.791 4.8 4.8 0 0 1 4.792-4.791z"/><path d="m47.116 39.944a8.291 8.291 0 1 0 8.292 8.291 8.3 8.3 0 0 0 -8.292-8.291zm0 13.082a4.791 4.791 0 1 1 4.792-4.791 4.8 4.8 0 0 1 -4.792 4.791z"/><path d="m72.592 57.2a8.292 8.292 0 1 0 8.292-8.291 8.3 8.3 0 0 0 -8.292 8.291zm13.083 0a4.792 4.792 0 1 1 -4.791-4.791 4.8 4.8 0 0 1 4.791 4.791z"/><path d="m66.694 48.818a1.75 1.75 0 0 0 1.9-2.939l-2.914-1.887a1.75 1.75 0 0 0 -1.9 2.939z"/><path d="m84.681 41.654a1.756 1.756 0 0 0 .7-.147l2.745-1.2a1.75 1.75 0 0 0 -1.4-3.207l-2.745 1.2a1.751 1.751 0 0 0 .7 3.354z"/><path d="m52.208 62.612-2.32 3.429a1.75 1.75 0 0 0 2.899 1.959l2.32-3.428a1.75 1.75 0 0 0 -2.9-1.962z"/><path d="m63.617 96.528-1.458 1.2a1.75 1.75 0 1 0 2.224 2.7l1.458-1.2a1.75 1.75 0 1 0 -2.224-2.7z"/><path d="m78.817 70.654a1.75 1.75 0 0 0 -1.912 2.931l2.111 1.377a1.75 1.75 0 1 0 1.912-2.931z"/><path d="m89.973 19.813a1.749 1.749 0 0 0 .791 2.345 54.4 54.4 0 0 1 12.168 8.066 1.75 1.75 0 0 0 2.336-2.607 57.881 57.881 0 0 0 -12.95-8.6 1.751 1.751 0 0 0 -2.345.796z"/></g></g></svg>