<svg id="Computer_Interface" enable-background="new 0 0 128 128" viewBox="0 0 128 128" xmlns="http://www.w3.org/2000/svg"><g><path d="m109.1 35.2v57.8c0 2.2-1.8 4-4 4h-82.5c-2.2 0-4-1.8-4-4v-57.8c0-2.2 1.8-4 4-4h82.5c2.2 0 4 1.8 4 4z" fill="#e5e7ea"/><circle cx="26.8" cy="39.5" fill="#434953" r="3"/><circle cx="100.9" cy="39.5" fill="#434953" r="3"/><circle cx="26.8" cy="88.6" fill="#434953" r="3"/><circle cx="100.9" cy="88.6" fill="#434953" r="3"/><g fill="#d9dadb"><circle cx="73" cy="49.9" r="2.5"/><circle cx="80.4" cy="49.9" r="2.5"/><circle cx="87.9" cy="49.9" r="2.5"/><circle cx="95.3" cy="49.9" r="2.5"/><circle cx="102.8" cy="49.9" r="2.5"/><circle cx="73" cy="66.5" r="2.5"/><circle cx="80.4" cy="66.5" r="2.5"/><circle cx="87.9" cy="66.5" r="2.5"/><circle cx="95.3" cy="66.5" r="2.5"/><circle cx="102.8" cy="66.5" r="2.5"/><circle cx="78" cy="58.6" r="2.5"/><circle cx="85.4" cy="58.6" r="2.5"/><circle cx="92.9" cy="58.6" r="2.5"/><circle cx="100.3" cy="58.6" r="2.5"/><circle cx="78" cy="74.7" r="2.5"/><circle cx="85.4" cy="74.7" r="2.5"/><circle cx="92.9" cy="74.7" r="2.5"/><circle cx="100.3" cy="74.7" r="2.5"/><path d="m88.6 81.8v7.5l-4 4.5h-9.7l-4-4.5v-7.5z"/></g><g><path d="m79.8 92.3c-.6 0-1-.4-1-1v-2.8c0-.6.4-1 1-1s1 .4 1 1v2.8c0 .6-.5 1-1 1z" fill="#434953"/></g><g><path d="m75.1 89.1c-.6 0-1-.4-1-1v-2.8c0-.6.4-1 1-1s1 .4 1 1v2.8c0 .6-.4 1-1 1z" fill="#434953"/></g><g><path d="m84.4 89.1c-.6 0-1-.4-1-1v-2.8c0-.6.4-1 1-1s1 .4 1 1v2.8c0 .6-.4 1-1 1z" fill="#434953"/></g><path d="m53.7 87.8h6.6v6h-6.6z" fill="#5ac0a6"/><path d="m64.1 59.6c-5.7-1.7-9.4 1.7-11 3.6-.2-1.2-.8-2.3-1.7-3.2-.3-.3-.6-.6-1-.8-.3-2.5-.1-7.5 5.2-10.3-2.6-1.4-5.5-2.3-8.6-2.3-1.7 0-3.3.2-4.9.7-1.7 5.7 1.7 9.4 3.6 11-1.2.2-2.3.8-3.2 1.7-.3.3-.6.6-.8 1-2.5.3-7.5.1-10.3-5.2-1.4 2.6-2.3 5.5-2.3 8.6 0 1.7.2 3.3.7 4.9 5.7 1.7 9.4-1.7 11-3.6.2 1.2.8 2.3 1.7 3.2.3.3.6.6 1 .8.3 2.5.1 7.5-5.2 10.3 2.6 1.4 5.5 2.3 8.6 2.3 1.7 0 3.3-.2 4.9-.7 1.7-5.7-1.7-9.4-3.6-11 1.2-.2 2.3-.8 3.2-1.7.3-.3.6-.6.8-1 2.5-.3 7.5-.1 10.3 5.2 1.4-2.6 2.3-5.5 2.3-8.6 0-1.7-.2-3.4-.7-4.9z" fill="#d9dadb"/><path d="m59.3 87.8h5.6v6h-5.6z" fill="#ea5765"/><path d="m63.1 59.6c-5.8-1.8-10.2 1.9-12 3.8-.2-1.3-.8-2.4-1.7-3.3-.3-.3-.6-.6-1-.8-.3-2.7-.2-8.5 5.2-11.3-2.6-1.4-5.5-2.3-8.6-2.3-1.7 0-3.3.2-4.9.7-1.7 5.8 1.9 10.1 3.9 11.9-1.3.2-2.4.8-3.3 1.7-.3.3-.5.6-.8.9-2.7.3-8.5.2-11.3-5.2-1.4 2.6-2.3 5.5-2.3 8.7 0 1.7.2 3.3.7 4.9 5.9 1.8 10.2-1.9 12-3.8.2 1.3.8 2.4 1.7 3.4.3.3.6.6.9.8.3 2.7.2 8.5-5.2 11.3 2.6 1.4 5.5 2.3 8.6 2.3 1.7 0 3.3-.2 4.9-.7 1.8-5.8-1.9-10.2-3.8-11.9 1.3-.2 2.4-.8 3.3-1.7.3-.3.5-.6.8-.9 2.7-.3 8.5-.2 11.3 5.2 1.4-2.6 2.3-5.5 2.3-8.6 0-1.9-.2-3.6-.7-5.1z" fill="#6699d1"/><path d="m45 42.7c-12 0-21.8 9.8-21.8 21.8s9.8 21.8 21.8 21.8 21.8-9.8 21.8-21.8c0-12.1-9.7-21.8-21.8-21.8zm11.9 8.5-8.2 8.2c-1-.7-2.3-1.2-3.6-1.2-1.4 0-2.6.4-3.6 1.2l-8.2-8.2c3.1-2.8 7.3-4.5 11.8-4.5s8.6 1.7 11.8 4.5zm-8.9 16.3c-.8.8-1.8 1.2-3 1.2-2.3 0-4.3-1.9-4.3-4.3 0-2.3 1.9-4.3 4.3-4.3 2.3 0 4.3 1.9 4.3 4.3 0 1.2-.5 2.3-1.3 3.1zm-20.7-3.1c0-4.5 1.7-8.7 4.5-11.8l8.2 8.2c-.7 1-1.2 2.3-1.2 3.6 0 1.4.4 2.6 1.2 3.6l-8.2 8.2c-2.8-3.1-4.5-7.2-4.5-11.8zm5.9 13.3 8.2-8.2c1 .7 2.3 1.2 3.6 1.2 1.4 0 2.6-.4 3.6-1.2l8.1 8.1h.1c-3.1 2.8-7.3 4.5-11.8 4.5-4.5.1-8.7-1.6-11.8-4.4zm25.1-1.4-8.2-8.2c.7-1 1.2-2.3 1.2-3.6 0-1.4-.4-2.6-1.2-3.7l8.1-8.1s0 0 0-.1c2.8 3.1 4.5 7.3 4.5 11.8.1 4.6-1.6 8.7-4.4 11.9z" fill="#434953"/></g></svg>