<svg id="Computer_Interface" enable-background="new 0 0 128 128" height="512" viewBox="0 0 128 128" width="512" xmlns="http://www.w3.org/2000/svg"><g><path d="m91.5 19.6v89.7h-1.1l-1 4.7h-6.5l-1-4.7h-35.8l-1 4.7h-6.5l-1-4.7h-2v-89.7z" fill="#373d44"/><path d="m46.1 109.3-1 4.7h-6.5l-1-4.7z" fill="#2e3338"/><path d="m90.4 109.3-1 4.7h-6.5l-1-4.7z" fill="#2e3338"/><circle cx="64" cy="100" fill="#e5e7ea" r="5"/><path d="m41.5 23.6h44.2v67.9h-44.2z" fill="#434953"/><path d="m76.7 84.7c-.3.9-1 1.6-1.9 1.9-3.6 1.3-7.2 2-10.8 2s-7.2-.7-10.8-2c-.9-.3-1.6-1-2-1.9-2.7-7.2-2.7-14.3 0-21.5.3-.9 1.1-1.6 2-2 3.8-1.3 7.6-2 11.2-2 3.5 0 7 .7 10.4 1.9.9.3 1.6 1 1.9 1.9 2.7 7.3 2.7 14.4 0 21.7z" fill="#5ac0a6"/><path d="m76.7 52.1c-.3.9-1 1.6-1.9 2-3.6 1.3-7.2 2-10.8 2s-7.2-.7-10.8-2c-.9-.3-1.6-1-2-2-2.7-7.2-2.7-14.3 0-21.5.3-.9 1.1-1.6 2-2 3.8-1.3 7.6-2 11.2-2 3.5 0 7 .6 10.4 1.9.9.3 1.6 1 1.9 1.9 2.7 7.4 2.7 14.5 0 21.7z" fill="#5ac0a6"/><g fill="#56b297"><path d="m64.9 43.3c-.3-.2-.6-.5-.8-.8 0 0 0 0 0-.1-.2-.3-.3-.7-.3-1.1s.1-.8.3-1.1.5-.6.8-.8h.1.1c-.3-.1-.6-.2-1-.2-1.3 0-2.3 1-2.3 2.3s1 2.3 2.3 2.3c.4 0 .7-.1 1-.2-.1-.2-.2-.2-.2-.3z"/><path d="m55.4 44.4c0 .1.1.2.1.3.3 0 .6 0 .8-.1-.3-.1-.6-.1-.9-.2z"/><path d="m59.8 40.6c0-.1 0-.2.1-.4-.3.1-.8.2-1.2.3.4.1.8.1 1.1.1z"/><path d="m68.1 40.3c.1.3.2.7.2 1.1s-.1.7-.2 1.1c.6-.2 1.3-.3 2.1-.4 0-.2.1-.5.1-.7 0-.4-.1-.8-.2-1.1.7-.8 2-1.8 3.6-2.1-2.7-.5-4.6.9-5.6 2.1z"/><path d="m74.5 38c.6 0 1.3.1 2.1.3-.5-1.9-1.6-3.6-2.9-4.9-.6.1-1 .3-1.5.6 1.1 1.1 1.9 2.5 2.3 4z"/><path d="m61 38.4c.2-.2.4-.3.6-.5-1.4-.6-2.9-1.8-3.5-4.2-.5.5-.9 1.1-1.3 1.7 1 1.9 2.9 2.7 4.2 3z"/><path d="m71.3 42.2c1.1.2 2.3.7 3.4 1.9-.3 1.2-.8 2.3-1.5 3.3.3.5.5 1 .7 1.7 1.3-1.4 2.3-3.1 2.8-5-1.8-2-3.8-2.2-5.4-1.9z"/><path d="m67.1 45.5c.3-.1.6-.2.9-.4h.1c.1-.1.2-.1.3-.2-.5-.2-1-.4-1.4-.5-.5.5-1.2.9-1.9 1.1 1.2 1.1 2.9 3.3 1.9 6.5-.7.2-1.4.3-2.1.4.3 0 .7.1 1 .1 1 0 2.1-.2 3-.4 1.1-3.3-.6-5.5-1.8-6.6z"/><path d="m61 44.4c-.3 1.3-1.1 3.3-3.2 4.4.2.2.3.4.5.6 2.6-.6 3.8-2.4 4.4-3.9-.6-.3-1.2-.6-1.7-1.1z"/><path d="m66.7 30.6c-2.5 2.3-2.1 5.1-1.6 6.6.7.2 1.4.6 1.9 1.1.1-.3.2-.7.3-1-.1 0-.1-.1-.2-.1-.5-1.6-.9-4.3 1.6-6.6-.9-.2-1.8-.3-2.7-.3-.3 0-.6 0-.9.1.5 0 1.1.1 1.6.2z"/><path d="m59.8 73.2c0-.1 0-.2.1-.4-.3.1-.7.2-1.2.3.4 0 .8.1 1.1.1z"/><path d="m64.9 75.9c-.3-.2-.6-.5-.8-.8v-.1c-.2-.3-.3-.7-.3-1.1s.1-.8.3-1.1.4-.6.8-.8.1 0 .1-.1c-.3-.1-.6-.2-1-.2-1.3 0-2.3 1-2.3 2.3s1 2.3 2.3 2.3c.4 0 .7-.1 1-.2-.1-.2-.1-.2-.1-.2z"/><path d="m74.5 70.6c.6 0 1.3.1 2.1.3-.5-1.9-1.6-3.6-2.9-4.9-.6.1-1 .3-1.5.6 1.1 1.1 1.9 2.4 2.3 4z"/><path d="m68.1 72.8c.1.4.2.7.2 1.1s-.1.7-.2 1.1c.6-.2 1.3-.3 2.1-.4 0-.2.1-.5.1-.7 0-.4-.1-.8-.2-1.1.7-.8 2-1.8 3.6-2.1-2.7-.5-4.6 1-5.6 2.1z"/><path d="m55.3 76.9c0 .1.1.2.1.3.3 0 .6 0 .8-.1-.2 0-.5-.1-.9-.2z"/><path d="m71.3 74.7c1.1.2 2.3.7 3.4 1.9-.3 1.2-.8 2.3-1.5 3.3.3.5.5 1 .7 1.7 1.3-1.4 2.3-3.1 2.8-5-1.8-1.9-3.8-2.1-5.4-1.9z"/><path d="m67.1 78c.3-.1.6-.2.9-.4h.1c.1-.1.2-.1.3-.2-.5-.2-1-.4-1.4-.5-.5.5-1.2.9-1.9 1.1 1.2 1.1 2.9 3.3 1.9 6.5-.6.2-1.3.3-2 .3.3 0 .6.1 1 .1 1 0 2.1-.2 3-.4 1-3.2-.7-5.4-1.9-6.5z"/><path d="m61 70.9c.2-.2.4-.3.6-.5-1.4-.6-2.9-1.8-3.5-4.2-.5.5-.9 1.1-1.3 1.7 1 2 2.9 2.7 4.2 3z"/><path d="m61 76.9c-.3 1.3-1.1 3.3-3.2 4.4.2.2.3.4.5.5 2.6-.6 3.8-2.4 4.4-3.9-.6-.2-1.2-.5-1.7-1z"/><path d="m66.7 63.2c-2.5 2.3-2.1 5.1-1.6 6.6.7.2 1.4.6 1.9 1.1.1-.3.2-.7.3-1-.1 0-.1-.1-.2-.1-.5-1.6-.9-4.3 1.6-6.6-.9-.2-1.8-.3-2.7-.3-.3 0-.6 0-.9.1.5-.1 1.1 0 1.6.2z"/></g><path d="m68.1 75c.1-.3.2-.7.2-1.1s-.1-.8-.2-1.1c1.1-1.2 3.3-2.9 6.5-1.9-.5-1.9-1.6-3.6-2.9-4.9-3.3.8-4.3 3.3-4.7 4.9-.5-.5-1.2-.9-1.9-1.1-.5-1.6-.9-4.3 1.6-6.6-.9-.2-1.8-.3-2.7-.3-1 0-2.1.2-3 .4-1 3.3.7 5.4 1.9 6.6-.7.2-1.4.6-1.9 1.1-1.6-.3-4.2-1.4-4.9-4.7-1.3 1.4-2.3 3.1-2.8 5 2.3 2.5 5.1 2.1 6.6 1.6-.1.3-.2.7-.2 1.1s.1.8.2 1.1c-1.1 1.2-3.3 2.9-6.5 1.9.5 1.9 1.6 3.6 2.9 4.9 3.3-.8 4.3-3.3 4.7-4.9.5.5 1.2.9 1.9 1.1.5 1.6.9 4.3-1.6 6.6.9.2 1.8.3 2.7.3 1.1 0 2.1-.2 3-.4 1-3.2-.7-5.4-1.9-6.5.7-.2 1.4-.6 1.9-1.1 1.6.3 4.2 1.4 4.9 4.7 1.3-1.4 2.3-3.1 2.8-5-2.3-2.6-5-2.2-6.6-1.7zm-4.1 1.2c-1.3 0-2.3-1-2.3-2.3s1-2.3 2.3-2.3 2.3 1 2.3 2.3-1 2.3-2.3 2.3z" fill="#373d44"/><path d="m68.1 42.5c.1-.3.2-.7.2-1.1s-.1-.8-.2-1.1c1.1-1.2 3.3-2.9 6.5-1.9-.5-1.9-1.6-3.6-2.9-4.9-3.3.8-4.3 3.3-4.7 4.9-.5-.5-1.2-.9-1.9-1.1-.5-1.6-.9-4.3 1.6-6.6-.9-.2-1.8-.3-2.7-.3-1 0-2.1.1-3 .4-1 3.3.7 5.5 1.9 6.5-.7.2-1.4.6-1.9 1.1-1.6-.3-4.2-1.4-4.9-4.7-1.3 1.4-2.3 3.1-2.8 5 2.3 2.5 5.1 2.1 6.6 1.6-.1.3-.2.7-.2 1.1s.1.8.2 1.1c-1.1 1.2-3.3 2.9-6.5 1.9.5 1.9 1.6 3.6 2.9 4.9 3.3-.8 4.3-3.3 4.7-4.9.5.5 1.2.9 1.9 1.1.5 1.6.9 4.3-1.6 6.6.9.2 1.8.3 2.7.3 1.1 0 2.1-.2 3-.4 1-3.2-.7-5.4-1.9-6.5.7-.2 1.4-.6 1.9-1.1 1.6.3 4.2 1.4 4.9 4.7 1.3-1.4 2.3-3.1 2.8-5-2.3-2.5-5-2.1-6.6-1.6zm-4.1 1.1c-1.3 0-2.3-1-2.3-2.3s1-2.3 2.3-2.3 2.3 1 2.3 2.3-1 2.3-2.3 2.3z" fill="#373d44"/></g></svg>