<svg height="512" viewBox="0 0 128 128" width="512" xmlns="http://www.w3.org/2000/svg"><g><path d="m102.55 49.17-6.58 72.52h-63.94l-6.58-72.52a13.508 13.508 0 0 1 26.03-5.07 13.506 13.506 0 0 1 25.04 0 13.508 13.508 0 0 1 26.03 5.07z" fill="#ef3829"/><path d="m27.811 41.54a13.5 13.5 0 0 1 23.668 2.56 13.5 13.5 0 0 1 25.042 0 13.5 13.5 0 0 1 23.668-2.563 7.744 7.744 0 0 0 -6.583-11.444 7.744 7.744 0 0 0 -10.361-10.743c.009-.156.023-.31.023-.468a7.736 7.736 0 0 0 -11.74-6.63 7.738 7.738 0 0 0 -15.056 0 7.736 7.736 0 0 0 -11.74 6.63c0 .158.014.312.023.468a7.74 7.74 0 0 0 -10.363 10.742 7.744 7.744 0 0 0 -6.592 11.43z" fill="#ffde3e"/><path d="m76.52 44.1v77.59h-25.04v-77.59a13.506 13.506 0 0 1 25.04 0z" fill="#f2e7cb"/><g fill="#422002"><path d="m63.208 14.608a1.75 1.75 0 0 0 .088 3.5h.027a1.987 1.987 0 0 1 2.024 1.269 1.75 1.75 0 0 0 3.368-.951 5.476 5.476 0 0 0 -5.507-3.818z"/><path d="m102.169 41.426a9.478 9.478 0 0 0 -6.086-12.7 9.495 9.495 0 0 0 -11.272-11.826 9.485 9.485 0 0 0 -12.285-7.03 9.494 9.494 0 0 0 -17.052 0 9.485 9.485 0 0 0 -12.285 7.03 9.488 9.488 0 0 0 -11.272 11.822 9.477 9.477 0 0 0 -6.086 12.7 15.149 15.149 0 0 0 -2.131 7.749c0 .053 0 .105.008.158l3.639 40.1a1.748 1.748 0 0 0 1.74 1.591c.053 0 .107 0 .161-.006a1.75 1.75 0 0 0 1.584-1.9l-3.632-40.014a11.754 11.754 0 0 1 22.533-4.619v75.467h-16.1l-.866-9.551a1.75 1.75 0 1 0 -3.486.316l1.011 11.144a1.75 1.75 0 0 0 1.743 1.591h63.938a1.75 1.75 0 0 0 1.743-1.591l5.234-57.687a1.75 1.75 0 1 0 -3.485-.316l-5.09 56.094h-16.1v-75.472a11.754 11.754 0 0 1 22.525 4.624l-.646 7.112a1.75 1.75 0 0 0 3.486.316l.652-7.194c0-.053.008-.105.008-.158a15.142 15.142 0 0 0 -2.131-7.75zm-48.94 78.517v-75.467a11.741 11.741 0 0 1 21.542 0v75.467zm35.813-86.035a15.189 15.189 0 0 0 -12.521 6.535 15.263 15.263 0 0 0 -25.042 0 15.223 15.223 0 0 0 -22.854-2.472c0-.047-.009-.094-.009-.142a5.962 5.962 0 0 1 5.825-5.987 1.75 1.75 0 0 0 1.459-2.642 5.995 5.995 0 0 1 8.021-8.315 1.75 1.75 0 0 0 2.579-1.64l-.008-.133c-.006-.076-.012-.152-.012-.23a5.986 5.986 0 0 1 9.085-5.132 1.751 1.751 0 0 0 2.607-1.092 5.989 5.989 0 0 1 11.652 0 1.751 1.751 0 0 0 2.607 1.092 5.986 5.986 0 0 1 9.085 5.132c0 .078-.006.154-.012.23l-.008.133a1.75 1.75 0 0 0 2.583 1.642 5.991 5.991 0 0 1 8.021 8.313 1.75 1.75 0 0 0 1.457 2.64 5.962 5.962 0 0 1 5.825 5.987c0 .048-.008.095-.009.142a15.189 15.189 0 0 0 -10.331-4.061z"/><path d="m30.431 104.1a1.75 1.75 0 0 0 1.584-1.9l-.406-4.472a1.75 1.75 0 1 0 -3.485.316l.406 4.473a1.748 1.748 0 0 0 1.741 1.591c.052-.001.106-.003.16-.008z"/><path d="m75.9 25.134a1.75 1.75 0 1 0 .434 3.472c.023 0 2.293-.221 3.445 1.082a1.75 1.75 0 0 0 2.621-2.319c-2.4-2.714-6.336-2.258-6.5-2.235z"/><path d="m53.759 23.779a8.91 8.91 0 0 0 -6.511 2.756 1.75 1.75 0 1 0 2.639 2.3 5.347 5.347 0 0 1 3.747-1.557.315.315 0 0 1 .065 0 1.75 1.75 0 0 0 .06-3.5z"/><path d="m89.294 90.011-2.164 23.353a1.75 1.75 0 0 0 1.581 1.9c.055 0 .109.007.164.007a1.749 1.749 0 0 0 1.74-1.588l2.164-23.354a1.75 1.75 0 0 0 -3.485-.322z"/><path d="m93.541 82.111.509-5.489a1.75 1.75 0 0 0 -3.486-.322l-.508 5.489a1.748 1.748 0 0 0 1.581 1.9 1.5 1.5 0 0 0 .163.008 1.749 1.749 0 0 0 1.741-1.586z"/></g></g></svg>