<svg enable-background="new 0 0 128 128" height="512" viewBox="0 0 128 128" width="512" xmlns="http://www.w3.org/2000/svg"><g id="Layer_45"><path d="m47.08 108.25-2 5.75h-6.5l-2-5.75z" fill="#2e3338"/><path d="m91.42 108.25-2 5.75h-6.5l-2-5.75z" fill="#2e3338"/><path d="m35.62 19.63h55.88v89.62h-55.88z" fill="#e5e7ea"/><g fill="#373d44"><path d="m41.45 23.62h44.22v6.05h-44.22z"/><path d="m41.45 34.62h44.22v6.05h-44.22z"/><path d="m41.45 45.62h44.22v6.05h-44.22z"/><path d="m41.45 59.19v13.97h44.22v-13.97zm10.51 8.6h-6.64v-3.23h6.64zm10.19 0h-6.64v-3.23h6.64zm10.19 0h-6.64v-3.23h6.64zm10.19 0h-6.64v-3.23h6.64z"/></g><circle cx="64" cy="89" fill="#5ac0a6" r="5"/><circle cx="64" cy="102" fill="#db5367" r="3.25"/></g></svg>