<svg height="512" viewBox="0 0 128 128" width="512" xmlns="http://www.w3.org/2000/svg"><g><rect fill="#8c3f07" height="62.005" rx="5.002" width="115.387" x="6.306" y="32.997"/><g fill="#f2e7cb"><path d="m73.663 18.627h9.521v14.371h-9.521z"/><path d="m73.663 95.003h9.521v14.371h-9.521z"/><path d="m102.51 18.627h9.521v14.371h-9.521z"/><path d="m102.51 95.003h9.521v14.371h-9.521z"/><path d="m15.969 18.627h9.521v14.371h-9.521z"/><path d="m15.969 95.003h9.521v14.371h-9.521z"/><path d="m44.816 18.627h9.521v14.371h-9.521z"/><path d="m44.816 95.003h9.521v14.371h-9.521z"/></g><g fill="#422002"><path d="m121.693 81.679a1.75 1.75 0 0 0 -1.75 1.75v6.571a3.256 3.256 0 0 1 -3.252 3.253h-105.382a3.256 3.256 0 0 1 -3.252-3.253v-24.749a1.75 1.75 0 1 0 -3.5 0v24.749a6.76 6.76 0 0 0 6.752 6.753h2.91v12.62a1.75 1.75 0 0 0 1.75 1.75h9.521a1.749 1.749 0 0 0 1.75-1.75v-12.62h15.826v12.62a1.75 1.75 0 0 0 1.75 1.75h9.521a1.75 1.75 0 0 0 1.75-1.75v-12.62h15.826v12.62a1.749 1.749 0 0 0 1.75 1.75h9.521a1.75 1.75 0 0 0 1.75-1.75v-12.62h15.826v12.62a1.749 1.749 0 0 0 1.75 1.75h9.52a1.749 1.749 0 0 0 1.75-1.75v-12.62h2.911a6.76 6.76 0 0 0 6.752-6.753v-6.571a1.749 1.749 0 0 0 -1.75-1.75zm-97.953 25.944h-6.021v-10.87h6.021zm28.847 0h-6.021v-10.87h6.021zm28.847 0h-6.021v-10.87h6.021zm28.846 0h-6.02v-10.87h6.02z"/><path d="m116.692 31.247h-2.912v-12.62a1.749 1.749 0 0 0 -1.75-1.75h-9.52a1.749 1.749 0 0 0 -1.75 1.75v12.62h-15.826v-12.62a1.75 1.75 0 0 0 -1.75-1.75h-9.521a1.749 1.749 0 0 0 -1.75 1.75v12.62h-15.826v-12.62a1.75 1.75 0 0 0 -1.75-1.75h-9.521a1.75 1.75 0 0 0 -1.75 1.75v12.62h-15.826v-12.62a1.749 1.749 0 0 0 -1.75-1.75h-9.521a1.75 1.75 0 0 0 -1.75 1.75v12.62h-2.911a6.759 6.759 0 0 0 -6.751 6.753v5.859a1.75 1.75 0 0 0 3.5 0v-5.859a3.255 3.255 0 0 1 3.251-3.252h105.384a3.255 3.255 0 0 1 3.251 3.252v37.752a1.75 1.75 0 0 0 3.5 0v-37.752a6.759 6.759 0 0 0 -6.751-6.753zm-12.432-10.87h6.02v10.87h-6.02zm-28.847 0h6.021v10.87h-6.021zm-28.847 0h6.021v10.87h-6.021zm-28.847 0h6.021v10.87h-6.021z"/><path d="m6.307 58.764a1.751 1.751 0 0 0 1.75-1.75v-4.5a1.75 1.75 0 0 0 -3.5 0v4.5a1.75 1.75 0 0 0 1.75 1.75z"/><path d="m92.847 64.653a1.75 1.75 0 0 0 1.753-1.753v-22.826a1.75 1.75 0 0 0 -3.5 0v22.826a1.749 1.749 0 0 0 1.747 1.753z"/><path d="m91.1 87.926a1.75 1.75 0 0 0 3.5 0v-16.017a1.75 1.75 0 0 0 -3.5 0z"/><path d="m35.153 67.234a1.749 1.749 0 0 0 1.75-1.75v-25.41a1.75 1.75 0 0 0 -3.5 0v25.41a1.75 1.75 0 0 0 1.75 1.75z"/><path d="m33.4 87.926a1.75 1.75 0 0 0 3.5 0v-13.126a1.75 1.75 0 0 0 -3.5 0z"/><path d="m62.25 87.926a1.75 1.75 0 0 0 3.5 0v-27.561a1.75 1.75 0 0 0 -3.5 0z"/><path d="m64 53.448a1.75 1.75 0 0 0 1.75-1.75v-11.624a1.75 1.75 0 0 0 -3.5 0v11.626a1.75 1.75 0 0 0 1.75 1.748z"/><path d="m113.78 51.489v-7.189a1.75 1.75 0 0 0 -3.5 0v7.185a1.75 1.75 0 1 0 3.5 0z"/><path d="m17.719 84.954v-7.185a1.75 1.75 0 0 0 -3.5 0v7.185a1.75 1.75 0 0 0 3.5 0z"/></g></g></svg>