<svg height="512" viewBox="0 0 128 128" width="512" xmlns="http://www.w3.org/2000/svg"><g><path d="m121.694 6.306v105.852a9.535 9.535 0 0 1 -9.536 9.536h-105.852z" fill="#ef983b"/><path d="m110.32 17.68v92.64h-92.64z" fill="#f2e7cb"/><path d="m104.8 23.205a16.624 16.624 0 0 0 -12.713-4.747 16.684 16.684 0 0 1 -12.712-4.746c-6.818-6.818-18.433-6.257-25.943 1.253a20.265 20.265 0 0 1 -13.232 6 20.64 20.64 0 0 0 -19.235 19.235 20.265 20.265 0 0 1 -6 13.232c-7.51 7.51-8.071 19.125-1.253 25.943a16.684 16.684 0 0 1 4.746 12.712 16.624 16.624 0 0 0 4.742 12.713z" fill="#64bc0f"/><path d="m35.536 92.464a16.677 16.677 0 1 1 23.564-23.605z" fill="#ef3829"/><path d="m68.748 59.252a16.677 16.677 0 1 1 23.564-23.605z" fill="#ef3829"/><path d="m68.412 35.994h-.012a23.236 23.236 0 0 0 -32.41 32.406l.013.015a16.643 16.643 0 0 1 23.1.444l-12.023 12.041.01.011 21.658-21.659a16.649 16.649 0 0 1 -.336-23.258z" fill="#ffde3e"/><g fill="#422002"><path d="m122.363 4.69a1.749 1.749 0 0 0 -1.907.379l-11.374 11.375-4.352 4.356a18.388 18.388 0 0 0 -12.73-4.09 14.87 14.87 0 0 1 -11.39-4.235c-7.491-7.489-20.24-6.928-28.42 1.253a18.639 18.639 0 0 1 -12.078 5.489 22.452 22.452 0 0 0 -20.9 20.9 18.632 18.632 0 0 1 -5.484 12.073 21.877 21.877 0 0 0 -6.51 14.385 18.293 18.293 0 0 0 5.257 14.033 14.848 14.848 0 0 1 4.235 11.392 18.43 18.43 0 0 0 4.09 12.73l-4.349 4.349-11.382 11.377a1.749 1.749 0 0 0 1.238 2.987h21.577a1.75 1.75 0 0 0 0-3.5h-17.353l7.876-7.876h91.91a1.749 1.749 0 0 0 1.75-1.75v-91.909l7.876-7.876v12.553a1.75 1.75 0 0 0 3.5 0v-16.778a1.75 1.75 0 0 0 -1.08-1.617zm-102.157 87.478a18.546 18.546 0 0 0 -5.257-14.034 14.846 14.846 0 0 1 -4.235-11.39 18.388 18.388 0 0 1 5.486-12.079 21.87 21.87 0 0 0 6.51-14.384 18.877 18.877 0 0 1 17.571-17.568 21.879 21.879 0 0 0 14.384-6.513c6.815-6.814 17.345-7.374 23.469-1.251a18.54 18.54 0 0 0 14.033 5.257 15.022 15.022 0 0 1 10.072 3.081l-9.966 9.965a18.36 18.36 0 0 0 -24.065.516 24.972 24.972 0 0 0 -34.445 34.432 18.366 18.366 0 0 0 -.643 24.206l-9.833 9.833a15.014 15.014 0 0 1 -3.081-10.071zm43.794-30.643-2.075-2.075a1.75 1.75 0 1 0 -2.475 2.474l2.075 2.076-2.464 2.464a18.376 18.376 0 0 0 -2-1.431v-2.751a1.75 1.75 0 0 0 -3.5 0v1.05a18.318 18.318 0 0 0 -9.957-.734 13.5 13.5 0 0 1 -2.368-7.687 13.687 13.687 0 0 1 13.675-13.671 13.507 13.507 0 0 1 7.6 2.309 18.209 18.209 0 0 0 .639 10.015h-.839a1.75 1.75 0 0 0 0 3.5h2.509a18.372 18.372 0 0 0 1.508 2.13zm-28.387 28.388a14.917 14.917 0 0 1 20.957-20.958zm28-49.793a16.974 16.974 0 0 0 -8.706-2.38 17.149 17.149 0 0 0 -14.75 25.929 18.357 18.357 0 0 0 -3.751 2.16 21.484 21.484 0 0 1 29.4-29.436 18.452 18.452 0 0 0 -2.189 3.727zm5.212 16.58a14.917 14.917 0 0 1 20.957-20.957zm39.742 51.866h-86.66l84.126-84.125 2.533-2.534z"/><path d="m40.62 119.943h-4.5a1.75 1.75 0 0 0 0 3.5h4.5a1.75 1.75 0 0 0 0-3.5z"/><path d="m121.693 29.012a1.751 1.751 0 0 0 -1.75 1.75v81.4a7.793 7.793 0 0 1 -7.785 7.785h-62.882a1.75 1.75 0 1 0 0 3.5h62.882a11.3 11.3 0 0 0 11.285-11.285v-81.4a1.75 1.75 0 0 0 -1.75-1.75z"/><path d="m51.275 48.8a1.75 1.75 0 1 0 -2.475 2.475l3.023 3.025a1.75 1.75 0 1 0 2.477-2.476z"/><path d="m58.549 45.524a1.75 1.75 0 0 0 -1.75 1.75v4.275a1.75 1.75 0 0 0 3.5 0v-4.275a1.75 1.75 0 0 0 -1.75-1.75z"/><path d="m51.549 56.768h-4.276a1.75 1.75 0 1 0 0 3.5h4.276a1.75 1.75 0 1 0 0-3.5z"/><path d="m98.923 56.074-2.9-1.512a1.75 1.75 0 0 0 -1.617 3.1l2.9 1.511a1.75 1.75 0 1 0 1.617-3.1z"/><path d="m61.2 91.825a1.752 1.752 0 0 0 -2.429.474l-2.248 3.339a1.75 1.75 0 0 0 2.9 1.955l2.248-3.339a1.75 1.75 0 0 0 -.471-2.429z"/><path d="m94.24 95.914-3.459-.982a1.75 1.75 0 1 0 -.955 3.367l3.459.982a1.75 1.75 0 0 0 .955-3.367z"/><path d="m84.884 75.773-4.713 1.571a1.75 1.75 0 1 0 1.107 3.321l4.713-1.571a1.75 1.75 0 0 0 -1.107-3.321z"/></g></g></svg>