<svg enable-background="new 0 0 128 128" height="512" viewBox="0 0 128 128" width="512" xmlns="http://www.w3.org/2000/svg"><g id="Layer_46"><path d="m42.08 95-2 5.75h-6.5l-2-5.75z" fill="#373d44"/><path d="m96.42 95-2 5.75h-6.5l-2-5.75z" fill="#373d44"/><path d="m109.25 83.44v4.56c0 4.42-3.58 8-8 8h-74.5c-4.42 0-8-3.58-8-8v-4.56c0-4.42 3.58-8 8-8h74.5c4.42 0 8 3.58 8 8z" fill="#d9dadb"/><path d="m105.25 83.44v4.56c0 2.21-1.79 4-4 4h-74.5c-2.21 0-4-1.79-4-4v-4.56c0-2.21 1.79-4 4-4h74.5c2.21 0 4 1.79 4 4z" fill="#373d44"/><circle cx="96.38" cy="85.72" fill="#fdcc58" r="2"/><circle cx="85.88" cy="85.72" fill="#5ac0a6" r="2"/><circle cx="75.39" cy="85.72" fill="#6699d1" r="2"/><path d="m26.45 82.81h26v5.81h-26z" fill="#e5e7ea"/><path d="m46.25 60.73c-.72-.47-1.58-.73-2.5-.73s-1.78.26-2.5.73l.84-36.03c.02-.9.76-1.62 1.66-1.62s1.64.72 1.66 1.62z" fill="#e5e7ea"/><path d="m48.42 63.67v5.66h-9.34v-5.66c0-1.66.86-3.12 2.17-3.94.72-.47 1.58-.73 2.5-.73s1.78.26 2.5.73c1.31.82 2.17 2.28 2.17 3.94z" fill="#373d44"/><path d="m86.75 60.73c-.72-.47-1.58-.73-2.5-.73s-1.78.26-2.5.73l.84-36.03c.02-.9.76-1.62 1.66-1.62s1.64.72 1.66 1.62z" fill="#e5e7ea"/><g><path d="m25.48 45.64c-.26 0-.51-.1-.71-.29-7.34-7.34-7.34-19.29 0-26.63.39-.39 1.02-.39 1.41 0s.39 1.02 0 1.41c-6.56 6.56-6.56 17.24 0 23.8.39.39.39 1.02 0 1.41-.19.2-.45.3-.7.3z" fill="#6699d1"/></g><g><path d="m29.08 42.04c-.26 0-.51-.1-.71-.29-5.36-5.36-5.36-14.07 0-19.43.39-.39 1.02-.39 1.41 0s.39 1.02 0 1.41c-4.58 4.58-4.58 12.02 0 16.6.39.39.39 1.02 0 1.41-.19.2-.44.3-.7.3z" fill="#6699d1"/></g><g><path d="m32.68 38.43c-.26 0-.51-.1-.71-.29-3.37-3.37-3.37-8.85 0-12.22.39-.39 1.02-.39 1.41 0s.39 1.02 0 1.41c-2.59 2.59-2.59 6.8 0 9.39.39.39.39 1.02 0 1.41-.18.21-.44.3-.7.3z" fill="#6699d1"/></g><g><path d="m102.52 45.64c-.26 0-.51-.1-.71-.29-.39-.39-.39-1.02 0-1.41 6.56-6.56 6.56-17.24 0-23.8-.39-.39-.39-1.02 0-1.41s1.02-.39 1.41 0c7.34 7.34 7.34 19.29 0 26.63-.19.18-.44.28-.7.28z" fill="#6699d1"/></g><g><path d="m98.92 42.04c-.26 0-.51-.1-.71-.29-.39-.39-.39-1.02 0-1.41 4.58-4.58 4.58-12.02 0-16.6-.39-.39-.39-1.02 0-1.41s1.02-.39 1.41 0c5.36 5.36 5.36 14.07 0 19.43-.19.18-.45.28-.7.28z" fill="#6699d1"/></g><g><path d="m95.32 38.43c-.26 0-.51-.1-.71-.29-.39-.39-.39-1.02 0-1.41 2.59-2.59 2.59-6.8 0-9.39-.39-.39-.39-1.02 0-1.41s1.02-.39 1.41 0c3.37 3.37 3.37 8.85 0 12.22-.19.19-.45.28-.7.28z" fill="#6699d1"/></g><path d="m88.92 63.67v5.66h-9.34v-5.66c0-1.66.86-3.12 2.17-3.94.72-.47 1.58-.73 2.5-.73s1.78.26 2.5.73c1.31.82 2.17 2.28 2.17 3.94z" fill="#373d44"/><path d="m101.55 75.44h-75.1l7.94-5.55c1.45-1.01 3.2-1.56 4.99-1.56h48.95c1.74 0 3.45.52 4.87 1.48z" fill="#e5e7ea"/></g></svg>