<svg enable-background="new 0 0 128 128" height="512" viewBox="0 0 128 128" width="512" xmlns="http://www.w3.org/2000/svg"><g id="Layer_47"><path d="m79.42 92.08h-32.92l2-11.83h28.92z" fill="#373d44"/><path d="m87.56 65.25-.89 8.89c-.45 4.05-3.88 7.11-7.95 7.11h-29.44c-4.07 0-7.5-3.06-7.95-7.11l-.89-8.89z" fill="#434953"/><path d="m83.96 91.08-.76 9.56c-.38 4.9-3.28 8.61-6.73 8.61h-24.94c-3.45 0-6.35-3.71-6.73-8.61l-.76-9.56z" fill="#434953"/><path d="m105.46 62.23c-1.44 2.48-4.08 4.02-6.94 4.02h-69.2c-2.79 0-5.38-1.46-6.84-3.83-5.02-8.14-4.98-16.8.12-25.98 1.42-2.57 4.1-4.19 7.04-4.19h68.88c2.86 0 5.5 1.54 6.94 4.02 5.06 8.65 5.06 17.31 0 25.96z" fill="#373d44"/><path d="m33.33 62.25h-4.01c-1.38 0-2.7-.74-3.43-1.93-4.24-6.88-4.18-14.05.2-21.94.73-1.31 2.09-2.13 3.55-2.13h4.01c-1.45 0-2.81.82-3.54 2.13-4.38 7.89-4.45 15.06-.21 21.94.73 1.19 2.05 1.93 3.43 1.93z" fill="#e5e7ea"/><path d="m41.25 49.25c0 4.83 1.51 9.31 4.1 13h-12.02c-1.38 0-2.7-.74-3.43-1.93-4.24-6.88-4.17-14.05.21-21.94.73-1.31 2.09-2.13 3.54-2.13h11.7c-2.59 3.69-4.1 8.17-4.1 13z" fill="#434953"/><path d="m57.04 62.25h-11.69c-2.59-3.69-4.1-8.17-4.1-13s1.51-9.31 4.1-13h11.69c-4.63 2.49-7.79 7.39-7.79 13s3.16 10.51 7.79 13z" fill="#6699d1"/><path d="m70.96 36.25h-13.92c-4.63 2.49-7.79 7.39-7.79 13s3.16 10.51 7.79 13h13.92c4.63-2.49 7.79-7.39 7.79-13s-3.16-10.51-7.79-13zm-6.96 19.75c-3.73 0-6.75-3.02-6.75-6.75s3.02-6.75 6.75-6.75 6.75 3.02 6.75 6.75-3.02 6.75-6.75 6.75z" fill="#373d44"/><path d="m86.75 49.25c0 4.83-1.51 9.31-4.1 13h-11.69c4.63-2.49 7.79-7.39 7.79-13s-3.16-10.51-7.79-13h11.69c2.59 3.69 4.1 8.17 4.1 13z" fill="#6699d1"/><path d="m98.1 60.32c-.73 1.19-2.05 1.93-3.43 1.93h-12.02c2.59-3.69 4.1-8.17 4.1-13s-1.51-9.31-4.1-13h11.7c1.45 0 2.81.82 3.54 2.13 4.38 7.89 4.45 15.06.21 21.94z" fill="#434953"/><path d="m102.01 60.21c-.74 1.26-2.07 2.04-3.49 2.04h-3.85c1.38 0 2.7-.74 3.43-1.93 4.24-6.88 4.17-14.05-.21-21.94-.73-1.31-2.09-2.13-3.54-2.13h4.17c1.42 0 2.75.78 3.49 2.04 4.31 7.37 4.31 14.55 0 21.92z" fill="#e5e7ea"/><path d="m64 42.5c-3.73 0-6.75 3.02-6.75 6.75s3.02 6.75 6.75 6.75 6.75-3.02 6.75-6.75-3.02-6.75-6.75-6.75zm0 9.5c-1.52 0-2.75-1.23-2.75-2.75s1.23-2.75 2.75-2.75 2.75 1.23 2.75 2.75-1.23 2.75-2.75 2.75z" fill="#e5e7ea"/><circle cx="64" cy="49.25" fill="#373d44" r="2.75"/></g></svg>