<svg height="512" viewBox="0 0 128 128" width="512" xmlns="http://www.w3.org/2000/svg"><g><path d="m116.61 38.19c-5.84 62.73-53.67 75.24-77.34 77.57a11.937 11.937 0 0 1 -8.49-2.42 3.1 3.1 0 0 0 .22-2.15l-2.64-10.2a3.107 3.107 0 0 0 -1.5-1.95l-.01-.05a11.946 11.946 0 0 1 9.21-7.62c17.37-2.93 51.83-14 56.79-55.79a11.9 11.9 0 0 1 5.85-8.88h.01a3.088 3.088 0 0 0 2.05 1.17l10.45 1.37a2.966 2.966 0 0 0 .42.03 3.061 3.061 0 0 0 1.7-.51 11.96 11.96 0 0 1 3.28 9.43z" fill="#ef3829"/><rect fill="#f2e7cb" height="6.268" rx="3.134" transform="matrix(.992 .13 -.13 .992 4.212 -13.617)" width="16.807" x="97.992" y="22.318"/><path d="m112.028 23.03 8.02-7.964s-8.8-.3-11.142-8.76c-4.443 7.575-13.023 5.594-13.023 5.594l5.7 9.761z" fill="#ef3829"/><rect fill="#f2e7cb" height="6.268" rx="3.134" transform="matrix(-.25 -.968 .968 -.25 -70.154 159.425)" width="16.807" x="18.243" y="103.74"/><path d="m22.294 102.557-10.386-4.457s3.018 8.273-3.956 13.609c8.687 1.288 10.057 9.987 10.057 9.987l6.923-8.934z" fill="#ef3829"/><g fill="#422002"><path d="m59.9 109.841c-1.507.472-3.054.913-4.6 1.314a1.751 1.751 0 0 0 .438 3.445 1.774 1.774 0 0 0 .441-.057c1.6-.415 3.2-.873 4.763-1.361a1.75 1.75 0 0 0 -1.044-3.341z"/><path d="m47.85 112.8c-2.878.524-5.822.936-8.748 1.224a10.238 10.238 0 0 1 -6.3-1.421 4.86 4.86 0 0 0 -.107-1.845l-2.638-10.2a4.824 4.824 0 0 0 -1.092-2 10.222 10.222 0 0 1 7.39-5.449c8-1.35 19.831-4.45 30.766-11.552a58.917 58.917 0 0 0 25.542-35.5 1.75 1.75 0 0 0 -3.385-.888c-3.639 13.857-15.43 38.063-53.5 44.489a13.738 13.738 0 0 0 -9.919 7.286 4.8 4.8 0 0 0 -5.065 3.074l-8.194-3.528a1.752 1.752 0 0 0 -2.337 2.2c.1.291 2.463 7.161-3.373 11.627a1.749 1.749 0 0 0 .806 3.12c7.269 1.078 8.536 8.23 8.585 8.528a1.75 1.75 0 0 0 3.112.8l5.46-7.045a4.834 4.834 0 0 0 4.336.984 4.828 4.828 0 0 0 1.942-1.033 13.679 13.679 0 0 0 6.946 1.9q.682 0 1.368-.068c3.022-.3 6.061-.722 9.033-1.263a1.75 1.75 0 0 0 -.627-3.444zm-29.189 5.2a13.792 13.792 0 0 0 -7.293-7.171 13.785 13.785 0 0 0 2.9-9.807l6.543 2.809 2.208 8.541zm9.651-4.68a1.383 1.383 0 0 1 -1.686-.993l-2.638-10.2a1.384 1.384 0 1 1 2.68-.693l2.638 10.2a1.382 1.382 0 0 1 -.994 1.686z"/><path d="m121.676 14.433a1.756 1.756 0 0 0 -1.563-1.115c-.307-.013-7.561-.395-9.52-7.478a1.75 1.75 0 0 0 -3.2-.419c-3.718 6.338-10.824 4.837-11.12 4.771a1.75 1.75 0 0 0 -1.905 2.587l4.491 7.7a4.939 4.939 0 0 0 -.667.416 4.877 4.877 0 0 0 -1.726 5.189 13.729 13.729 0 0 0 -5.358 9.293q-.147 1.251-.333 2.466a1.751 1.751 0 0 0 1.469 1.993 1.813 1.813 0 0 0 .264.019 1.75 1.75 0 0 0 1.728-1.487q.192-1.27.348-2.579a10.049 10.049 0 0 1 3.977-6.906 4.843 4.843 0 0 0 1.971.728l10.449 1.37a4.941 4.941 0 0 0 .639.041 4.831 4.831 0 0 0 1.193-.167 10.266 10.266 0 0 1 2.053 7.177c-3.149 33.812-18.813 56.933-46.557 68.722a1.751 1.751 0 0 0 1.37 3.222c19.95-8.478 44.589-27.786 48.672-71.62a13.768 13.768 0 0 0 -2.685-9.522 4.818 4.818 0 0 0 -.176-5.671 4.884 4.884 0 0 0 -.538-.574l6.325-6.28a1.751 1.751 0 0 0 .399-1.876zm-20.685 11.706a1.384 1.384 0 0 1 .177-2.756 1.406 1.406 0 0 1 .183.012l10.449 1.37a1.379 1.379 0 0 1 .6 2.508l-.01.006a1.363 1.363 0 0 1 -.953.23zm10.409-4.956-8.746-1.147-3.589-6.151a13.782 13.782 0 0 0 9.383-4.085 13.781 13.781 0 0 0 8.009 6.362z"/><path d="m54.8 103.62c1.312-.318 32.281-8.107 44.635-35.271a1.75 1.75 0 1 0 -3.181-1.449c-11.637 25.587-41.971 33.245-42.276 33.319a1.75 1.75 0 0 0 .412 3.451 1.73 1.73 0 0 0 .41-.05z"/><path d="m101.859 60.6a1.749 1.749 0 0 0 1.607-1.058 52.365 52.365 0 0 0 2.8-9.623 1.75 1.75 0 1 0 -3.431-.687 49.923 49.923 0 0 1 -2.582 8.926 1.753 1.753 0 0 0 1.608 2.442z"/></g></g></svg>