<svg enable-background="new 0 0 128 128" height="512" viewBox="0 0 128 128" width="512" xmlns="http://www.w3.org/2000/svg"><g id="Layer_48"><path d="m29.75 82.1h15.34v21h-15.34z" fill="#e5e7ea" transform="matrix(.707 -.707 .707 .707 -54.519 53.583)"/><path d="m108.34 49.07-49.68 49.68c-1.56 1.56-4.09 1.56-5.66 0l-21.55-21.56c-1.57-1.57-1.58-4.09 0-5.66l49.67-49.68c1.57-1.56 4.1-1.56 5.66 0l21.57 21.57c1.55 1.57 1.55 4.1-.01 5.65z" fill="#6699d1"/><path d="m104.68 43.43-15.91-15.91c-1.56-1.56-4.09-1.56-5.66 0l-44.02 44.02c-1.56 1.56-1.56 4.09 0 5.66l15.91 15.91c1.56 1.56 4.1 1.56 5.66 0l44.02-44.03c1.56-1.56 1.56-4.09 0-5.65zm-5.45 4.48c-.7.7-1.62 1.05-2.53 1.05-.92 0-1.84-.35-2.54-1.05l-9.87-9.87c-1.4-1.4-1.4-3.67 0-5.07.7-.7 1.62-1.05 2.53-1.05.92 0 1.84.35 2.54 1.05l9.87 9.87c1.4 1.4 1.4 3.67 0 5.07z" fill="#6194c1"/><path d="m37.64 94.13h6.25v3.87h-6.25z" fill="#373d44" transform="matrix(.707 -.707 .707 .707 -55.99 56.961)"/><path d="m31.01 87.5h6.25v3.87h-6.25z" fill="#373d44" transform="matrix(.707 -.707 .707 .707 -53.243 50.33)"/><path d="m76.4 85.56c.01 1.7-.64 3.42-1.94 4.72-2.25 2.24-5.68 2.55-8.26.94l9.18-9.18c.68 1.07 1.02 2.3 1.02 3.52z" fill="#d9dadb"/><g fill="#e5e7ea"><path d="m75.69 84.37c0-.77-.13-1.54-.36-2.28l-9.13 9.13c.23.14.48.26.72.37 2.33.62 4.89-.01 6.72-1.94 1.37-1.46 2.06-3.38 2.05-5.28z"/><path d="m102.68 43.43-15.91-15.91c-1.56-1.56-4.09-1.56-5.66 0l-44.02 44.02c-1.56 1.56-1.56 4.09 0 5.66l15.91 15.91c1.56 1.56 4.1 1.56 5.66 0l44.02-44.03c1.56-1.56 1.56-4.09 0-5.65zm-5.45 4.48c-.7.7-1.62 1.05-2.53 1.05-.92 0-1.84-.35-2.54-1.05l-9.87-9.87c-1.4-1.4-1.4-3.67 0-5.07.7-.7 1.62-1.05 2.53-1.05.92 0 1.84.35 2.54 1.05l9.87 9.87c1.4 1.4 1.4 3.67 0 5.07z"/></g></g></svg>