<svg enable-background="new 0 0 128 128" height="512" viewBox="0 0 128 128" width="512" xmlns="http://www.w3.org/2000/svg"><g id="Layer_49"><path d="m91.54 41.63v44.74c0 2.21-1.79 4-4 4h-.12l-1 4.75h-6.5l-1-4.75h-29.84l-1 4.75h-6.5l-1-4.75h-.12c-2.21 0-4-1.79-4-4v-44.74c0-2.21 1.79-4 4-4h47.08c2.21 0 4 1.79 4 4z" fill="#373d44"/><path d="m31.54 41.63v44.74c0 2.21-1.79 4-4 4h.22l-1 4.75h-2.5l-1-4.75h-5.98l-1 4.75h-2.5l-1-4.75h.22c-2.21 0-4-1.79-4-4v-44.74c0-2.21 1.79-4 4-4h14.54c2.21 0 4 1.79 4 4z" fill="#373d44"/><path d="m64 41.5c-12.43 0-22.5 10.07-22.5 22.5s10.07 22.5 22.5 22.5 22.5-10.07 22.5-22.5-10.07-22.5-22.5-22.5zm0 39c-9.1 0-16.5-7.4-16.5-16.5s7.4-16.5 16.5-16.5 16.5 7.4 16.5 16.5-7.4 16.5-16.5 16.5z" fill="#434953"/><path d="m64 47.5c-9.1 0-16.5 7.4-16.5 16.5s7.4 16.5 16.5 16.5 16.5-7.4 16.5-16.5-7.4-16.5-16.5-16.5zm0 29c-6.89 0-12.5-5.61-12.5-12.5s5.61-12.5 12.5-12.5 12.5 5.61 12.5 12.5-5.61 12.5-12.5 12.5z" fill="#e5e7ea"/><path d="m20.27 44.5c-3.31 0-6 2.69-6 6s2.69 6 6 6 6-2.69 6-6-2.69-6-6-6zm0 9.12c-1.72 0-3.12-1.4-3.12-3.12s1.4-3.12 3.12-3.12 3.12 1.4 3.12 3.12-1.4 3.12-3.12 3.12z" fill="#e5e7ea"/><circle cx="20.27" cy="50.5" fill="#434953" r="3.12"/><path d="m20.27 69.17c-4.6 0-8.33 3.73-8.33 8.33s3.73 8.33 8.33 8.33 8.33-3.73 8.33-8.33-3.73-8.33-8.33-8.33zm0 12.66c-2.39 0-4.33-1.94-4.33-4.33s1.94-4.33 4.33-4.33 4.33 1.94 4.33 4.33-1.94 4.33-4.33 4.33z" fill="#e5e7ea"/><path d="m24.6 77.5c0 2.39-1.94 4.33-4.33 4.33s-4.33-1.94-4.33-4.33 1.94-4.33 4.33-4.33 4.33 1.94 4.33 4.33z" fill="#434953"/><path d="m119 41.63v44.74c0 2.21-1.79 4-4 4h.22l-1 4.75h-2.5l-1-4.75h-5.98l-1 4.75h-2.5l-1-4.75h.22c-2.21 0-4-1.79-4-4v-44.74c0-2.21 1.79-4 4-4h14.54c2.21 0 4 1.79 4 4z" fill="#373d44"/><path d="m107.73 44.5c-3.31 0-6 2.69-6 6s2.69 6 6 6 6-2.69 6-6-2.69-6-6-6zm0 9.12c-1.72 0-3.12-1.4-3.12-3.12s1.4-3.12 3.12-3.12 3.12 1.4 3.12 3.12-1.4 3.12-3.12 3.12z" fill="#e5e7ea"/><circle cx="107.73" cy="50.5" fill="#434953" r="3.12"/><path d="m107.73 69.17c-4.6 0-8.33 3.73-8.33 8.33s3.73 8.33 8.33 8.33 8.33-3.73 8.33-8.33-3.73-8.33-8.33-8.33zm0 12.66c-2.39 0-4.33-1.94-4.33-4.33s1.94-4.33 4.33-4.33 4.33 1.94 4.33 4.33-1.94 4.33-4.33 4.33z" fill="#e5e7ea"/><path d="m112.06 77.5c0 2.39-1.94 4.33-4.33 4.33s-4.33-1.94-4.33-4.33 1.94-4.33 4.33-4.33 4.33 1.94 4.33 4.33z" fill="#434953"/></g></svg>