<svg height="512" viewBox="0 0 128 128" width="512" xmlns="http://www.w3.org/2000/svg"><g><path d="m7.151 61.04s-8.924-30.295 31.235-27.477 36.453-15.94 66.257-11.571c38.141 5.592 6.432 57.392-37.553 63.545-43.805 6.128-56.879-14.101-59.939-24.497z" fill="#ef983b"/><path d="m121.691 38.052c0 17.531-24.409 43.261-54.6 47.485-43.805 6.128-56.879-14.1-59.939-24.5a26.478 26.478 0 0 1 -.843-6.82v19.862a26.5 26.5 0 0 0 .844 6.961c3.06 10.4 16.134 30.625 59.939 24.5 30.14-4.216 54.517-29.867 54.6-47.395 0 0 0-11.175 0-20.09z" fill="#8c3f07"/><g fill="#422002"><path d="m123.443 38.044c0-5.661-2.433-15.421-18.546-17.783a58.843 58.843 0 0 0 -9.413-.676 1.75 1.75 0 0 0 .029 3.5h.03a54.6 54.6 0 0 1 8.847.639c10.2 1.5 15.58 6.468 15.553 14.38-.056 17.236-24.568 41.709-53.095 45.7-45.607 6.384-55.938-16.19-58.017-23.255-.031-.106-2.98-10.565 2.929-17.888 4.667-5.785 13.587-8.261 26.5-7.352 21.4 1.5 30.692-3.026 38.889-7.021a56.663 56.663 0 0 1 9.577-3.957 1.75 1.75 0 1 0 -.949-3.369 59.212 59.212 0 0 0 -10.16 4.181c-7.805 3.8-16.652 8.113-37.112 6.673-14.149-.994-24.069 1.926-29.492 8.671a22.009 22.009 0 0 0 -4.456 14.534v17.391c0 .621 0 1.179.048 1.654h-.048a28.091 28.091 0 0 0 .916 7.469 31.343 31.343 0 0 0 3.084 7.04 1.75 1.75 0 0 0 3.016-1.775 28.291 28.291 0 0 1 -2.742-6.25 25.063 25.063 0 0 1 -.774-6.456v-6.407c4.705 8.613 16.21 20.743 43.643 20.742a113.139 113.139 0 0 0 15.629-1.158c24.154-3.38 44.685-19.965 52.611-35.978v6.84c-.085 17.226-24.6 41.684-53.095 45.671-17.456 2.443-31.586.887-42-4.617a1.75 1.75 0 1 0 -1.636 3.093c7.734 4.09 17.3 6.142 28.569 6.142a112.718 112.718 0 0 0 15.549-1.151c30.969-4.333 56.019-30.415 56.111-49.129v-20.1z"/><path d="m15.95 92.554a1.75 1.75 0 1 0 -2.523 2.425 36.044 36.044 0 0 0 2.651 2.493 1.75 1.75 0 0 0 2.267-2.666 32.823 32.823 0 0 1 -2.395-2.252z"/><path d="m52.717 100.63a65.585 65.585 0 0 0 13.737-1.48 1.749 1.749 0 1 0 -.732-3.421c-14.374 3.08-24.669.067-24.771.036a1.749 1.749 0 0 0 -1.016 3.348 47.4 47.4 0 0 0 12.782 1.517z"/><path d="m73.94 96.924a1.731 1.731 0 0 0 .453-.06 62.541 62.541 0 0 0 7.378-2.439 1.75 1.75 0 1 0 -1.441-3.19 60.52 60.52 0 0 1 -6.84 2.248 1.75 1.75 0 0 0 .45 3.441z"/><path d="m95.641 38.023a1.766 1.766 0 0 0 .59-.1l9.486-3.4a1.75 1.75 0 0 0 -1.182-3.3l-9.485 3.4a1.75 1.75 0 0 0 .591 3.4z"/><path d="m21.313 53.613a1.749 1.749 0 0 0 .944-3.224l-3.223-2.06a1.75 1.75 0 1 0 -1.885 2.949l3.224 2.06a1.745 1.745 0 0 0 .94.275z"/><path d="m76.847 36.007a1.75 1.75 0 1 0 -1.885 2.949l2.885 1.844-11.691 4.2-6.656-4.255a1.75 1.75 0 1 0 -1.885 2.949l4.375 2.8-11.6 4.163-13.722-8.773a1.75 1.75 0 1 0 -1.885 2.949l11.447 7.314-13.589 4.877-4.758-3.041a1.75 1.75 0 0 0 -1.883 2.95l2.481 1.585-7.757 2.782a1.75 1.75 0 0 0 .591 3.4 1.771 1.771 0 0 0 .591-.1l10.3-3.7 8.3 5.3-9.319 3.35a1.75 1.75 0 0 0 .591 3.4 1.771 1.771 0 0 0 .591-.1l11.867-4.259 12.655 8.086a1.75 1.75 0 1 0 1.884-2.949l-10.375-6.636 13.588-4.877 8.752 5.593-4.474 1.6a1.75 1.75 0 0 0 .59 3.4 1.768 1.768 0 0 0 .591-.1l7.02-2.519 3.074 1.964a1.75 1.75 0 0 0 1.883-2.953l-.8-.509 4.354-1.562a1.75 1.75 0 1 0 -1.178-3.291l-6.9 2.476-8.752-5.593 11.6-4.163 13.11 8.377a1.75 1.75 0 0 0 1.885-2.95l-10.83-6.921 11.691-4.2 8.577 5.481a1.75 1.75 0 1 0 1.884-2.95l-6.3-4.025 11.021-3.955a1.75 1.75 0 1 0 -1.182-3.295l-13.565 4.873-8.3-5.306 3.975-1.426a1.75 1.75 0 1 0 -1.182-3.3l-6.52 2.34zm-32.176 28.703-8.3-5.3 13.589-4.876 8.3 5.305zm17.751-6.37-8.3-5.305 11.6-4.164 8.3 5.305zm27.455-9.853-11.691 4.2-8.3-5.3 11.691-4.2z"/></g></g></svg>