<svg height="512" viewBox="0 0 128 128" width="512" xmlns="http://www.w3.org/2000/svg"><g><path d="m117.418 34.235a12.936 12.936 0 0 0 -15.542-20.393 12.913 12.913 0 0 0 -20.9-3.745 13.029 13.029 0 0 0 -1.544 1.875c-.055-.056-.1-.118-.157-.173a12.923 12.923 0 0 0 -21.271 4.639 12.933 12.933 0 0 0 -17.589 9.722 12.909 12.909 0 0 0 -14.739 14.74 12.933 12.933 0 0 0 -9.723 17.59 12.923 12.923 0 0 0 -4.639 21.271c.013.013.027.023.039.036-.262.223-.523.449-.771.7a12.919 12.919 0 0 0 3.474 20.772 12.936 12.936 0 0 0 19.7 16.637z" fill="#64bc0f"/><path d="m36.521 108.731-6.871.085a6.756 6.756 0 0 1 -6.78-5.866l-.262-1.976a6.755 6.755 0 0 0 -1.92-3.888l-2.034-2.034a6.755 6.755 0 0 1 -.6-8.861l1.571-2.069a6.753 6.753 0 0 0 .288-7.759l-.412-.635a6.755 6.755 0 0 1 1.921-9.295l1.746-1.164a6.755 6.755 0 0 0 2.727-7.548 6.754 6.754 0 0 1 3.813-8.137l1.814-.777a6.755 6.755 0 0 0 4.058-5.518l.112-1.087a6.755 6.755 0 0 1 6.028-6.029l1.088-.111a6.756 6.756 0 0 0 5.514-4.062l.778-1.814a6.755 6.755 0 0 1 8.136-3.813 6.754 6.754 0 0 0 7.549-2.727l1.164-1.746a6.755 6.755 0 0 1 9.3-1.921l.634.412a6.756 6.756 0 0 0 7.759-.288l2.07-1.572a6.755 6.755 0 0 1 8.861.6l2.027 2.042a6.758 6.758 0 0 0 3.888 1.92l1.975.262a6.753 6.753 0 0 1 5.866 6.779l-.085 6.871z" fill="#ef3829"/><path d="m119.461 44.032a53.966 53.966 0 0 0 -75.913 75.914z" fill="#ffde3e"/><g fill="#422002"><path d="m66.536 94.482-3.181 3.181a1.75 1.75 0 0 0 2.475 2.475l3.181-3.181a1.75 1.75 0 0 0 -2.475-2.475z"/><path d="m115.265 38.863 3.39-3.39a14.686 14.686 0 0 0 -16.033-23.943 14.5 14.5 0 0 0 -2.1-2.671 14.711 14.711 0 0 0 -20.779 0c-.177.177-.35.361-.519.55a14.713 14.713 0 0 0 -19.485 1.152 14.489 14.489 0 0 0 -2.689 3.707 14.688 14.688 0 0 0 -17.988 10.006 14.648 14.648 0 0 0 -15.272 15.273 14.685 14.685 0 0 0 -10.006 17.984 14.527 14.527 0 0 0 -3.707 2.69 14.714 14.714 0 0 0 -1.156 19.479 14.669 14.669 0 0 0 2.7 22.189 14.69 14.69 0 0 0 23.37 17.254l3.39-3.391a56.518 56.518 0 0 0 3.812 5.3 1.752 1.752 0 0 0 1.269.642h.089a1.748 1.748 0 0 0 1.237-.512l15.22-15.22a1.75 1.75 0 0 0 -2.475-2.475l-13.827 13.826a52.4 52.4 0 0 1 -5.545-9.173 1.778 1.778 0 0 0 -.143-.3 52.252 52.252 0 0 1 69.342-69.335 1.74 1.74 0 0 0 .292.139 52.366 52.366 0 0 1 9.176 5.546l-44.171 44.171a1.75 1.75 0 1 0 2.475 2.475l45.568-45.566a1.75 1.75 0 0 0 -.132-2.6 56.156 56.156 0 0 0 -5.303-3.807zm-82.751 77.8a11.186 11.186 0 0 1 -17.032-14.383 1.748 1.748 0 0 0 -.658-2.587 11.182 11.182 0 0 1 -3-17.964c.213-.213.44-.407.666-.6a1.748 1.748 0 0 0 .1-2.57c-.019-.019-.044-.043-.07-.066a11.173 11.173 0 0 1 4.041-18.363 1.75 1.75 0 0 0 1.013-2.3 11.185 11.185 0 0 1 8.407-15.213 1.75 1.75 0 0 0 1.424-1.986 11.158 11.158 0 0 1 12.746-12.74 1.763 1.763 0 0 0 1.987-1.424 11.181 11.181 0 0 1 15.213-8.406 1.752 1.752 0 0 0 2.3-1.014 11.181 11.181 0 0 1 18.393-4.009l.125.139a1.751 1.751 0 0 0 2.716-.218 11.163 11.163 0 0 1 19.406 1.614 1.748 1.748 0 0 0 2.455.789 11.186 11.186 0 0 1 13.435 17.638l-4.016 4.016q-1.068-.588-2.155-1.123l.071-5.736a8.51 8.51 0 0 0 -7.387-8.535l-1.973-.262a5.035 5.035 0 0 1 -2.882-1.422l-2.034-2.038a8.536 8.536 0 0 0 -11.157-.759l-2.069 1.571a5.02 5.02 0 0 1 -5.75.213l-.634-.41a8.531 8.531 0 0 0 -11.7 2.417l-1.164 1.746a4.974 4.974 0 0 1 -5.596 2.022 8.511 8.511 0 0 0 -10.244 4.8l-.777 1.814a5.006 5.006 0 0 1 -4.089 3.007l-1.087.113a8.541 8.541 0 0 0 -7.591 7.59l-.111 1.087a5.008 5.008 0 0 1 -3.007 4.089l-1.814.778a8.5 8.5 0 0 0 -4.8 10.245 4.979 4.979 0 0 1 -2.021 5.592l-1.746 1.165a8.536 8.536 0 0 0 -2.418 11.7l.411.633a5.016 5.016 0 0 1 -.212 5.749l-1.572 2.07a8.536 8.536 0 0 0 .76 11.156l2.034 2.034a5.039 5.039 0 0 1 1.423 2.881l.262 1.975a8.507 8.507 0 0 0 8.426 7.387h.109l5.736-.07q.537 1.086 1.123 2.154zm13.527-70.138a55.538 55.538 0 0 0 -12.208 60.488l-4.206.052h-.064a5.008 5.008 0 0 1 -4.963-4.345l-.261-1.976a8.547 8.547 0 0 0 -2.417-4.895l-2.034-2.035a5.021 5.021 0 0 1 -.448-6.564l1.572-2.069a8.53 8.53 0 0 0 .362-9.772l-.411-.634a5.02 5.02 0 0 1 1.427-6.885l1.746-1.164a8.462 8.462 0 0 0 3.433-9.5 5.007 5.007 0 0 1 2.825-6.03l1.814-.777a8.509 8.509 0 0 0 5.11-6.948l.112-1.086a5.023 5.023 0 0 1 4.47-4.47l1.087-.112a8.512 8.512 0 0 0 6.948-5.111l.777-1.814a5.007 5.007 0 0 1 6.028-2.825 8.457 8.457 0 0 0 9.505-3.433l1.164-1.746a5.026 5.026 0 0 1 6.887-1.422l.634.411a8.53 8.53 0 0 0 9.77-.363l2.07-1.571a5.024 5.024 0 0 1 6.564.447l2.034 2.034a8.546 8.546 0 0 0 4.9 2.417l1.974.262a5.008 5.008 0 0 1 4.346 5.023l-.052 4.206a55.54 55.54 0 0 0 -60.495 12.207z"/><path d="m53.394 68.3a1.75 1.75 0 0 0 .34-3.466l-3.457-.691a1.749 1.749 0 0 0 -.685 3.431l3.457.692a1.754 1.754 0 0 0 .345.034z"/><path d="m90.858 51.309a1.751 1.751 0 0 0 1.65-1.166l1.35-3.819a1.749 1.749 0 1 0 -3.3-1.168l-1.351 3.819a1.751 1.751 0 0 0 1.649 2.334z"/><path d="m73.277 75.612.479-3.849a1.75 1.75 0 0 0 -3.473-.432l-.478 3.85a1.749 1.749 0 0 0 1.52 1.952 1.614 1.614 0 0 0 .218.013 1.749 1.749 0 0 0 1.734-1.534z"/><path d="m48 88.984-4.094 1.3a1.75 1.75 0 0 0 1.061 3.336l4.094-1.3a1.75 1.75 0 0 0 -1.061-3.336z"/><path d="m67.1 54.652a1.747 1.747 0 0 0 2.354-.76l1.1-2.144a1.75 1.75 0 0 0 -3.115-1.594l-1.1 2.144a1.748 1.748 0 0 0 .761 2.354z"/></g></g></svg>