<svg enable-background="new 0 0 128 128" height="512" viewBox="0 0 128 128" width="512" xmlns="http://www.w3.org/2000/svg"><g id="Layer_50"><path d="m109.09 90.14c-.13 2.4-.69 4.78-1.86 6.87-1.91 3.38-4.49 4.98-7.57 5.22-3.21.6-6.05-.31-8.46-3.02-.64-.74-1.17-1.55-1.66-2.39-.66-1.12-1.91-3.12-3.36-4.85-.67-.8-1.85-.97-2.69-.35-1.65 1.21-3.68 1.94-5.87 1.94-3.77 0-7.05-2.12-8.71-5.22-.35-.66-1.02-1.08-1.76-1.08h-6.3c-.74 0-1.41.42-1.76 1.08-1.66 3.1-4.94 5.22-8.71 5.22-2.19 0-4.22-.73-5.87-1.94-.84-.62-2.02-.45-2.69.35-1.45 1.73-2.7 3.73-3.36 4.85-.49.84-1.02 1.65-1.66 2.39-2.41 2.71-5.25 3.62-8.46 3.02-3.08-.24-5.66-1.84-7.57-5.22-1.17-2.09-1.73-4.47-1.86-6.87-1.07-19.21 3.21-30.32 6.34-35.78.74-1.27 1.83-2.31 3.13-3 .03-.02.06-.03.09-.05 0 0 .01 0 .01-.01.39-.98 1.12-2.07 2.47-2.81 2.59-1.42 8.34-3.41 12.85-3.63 1.38-.07 7.69.63 8.46 1.78 0 0 2.64 4.74 3.97 4.74h15.54c1.33 0 3.97-4.74 3.97-4.74.77-1.15 7.08-1.85 8.46-1.78 4.51.22 10.26 2.21 12.85 3.63 1.35.74 2.08 1.83 2.47 2.81v.01c.03.02.07.03.1.05 1.3.69 2.39 1.73 3.13 3 3.13 5.46 7.41 16.57 6.34 35.78z" fill="#373d44"/><g fill="#434953"><path d="m56.41 82.92c0 3.14-2.54 5.68-5.68 5.68-3.13 0-5.68-2.54-5.68-5.68s2.55-5.68 5.68-5.68c3.14 0 5.68 2.54 5.68 5.68z"/><path d="m82.95 82.92c0 3.14-2.55 5.68-5.68 5.68-3.14 0-5.68-2.54-5.68-5.68s2.54-5.68 5.68-5.68c3.13 0 5.68 2.54 5.68 5.68z"/><path d="m47.55 68.56c0 5.59-4.54 10.13-10.14 10.13-5.59 0-10.13-4.54-10.13-10.13 0-5.6 4.54-10.14 10.13-10.14 5.6 0 10.14 4.54 10.14 10.14z"/></g><g><path d="m64 48.56c-.55 0-1-.45-1-1v-.75c0-4.96 4.04-9 9-9h2.75c3.86 0 7-3.14 7-7 0-2.35-1.91-4.25-4.25-4.25h-5.5c-4.96 0-9-4.04-9-9 0-.55.45-1 1-1s1 .45 1 1c0 3.86 3.14 7 7 7h5.5c3.45 0 6.25 2.81 6.25 6.25 0 4.96-4.04 9-9 9h-2.75c-3.86 0-7 3.14-7 7v.75c0 .56-.45 1-1 1z" fill="#373d44"/></g><path d="m28.47 51.31-.05.13" fill="none"/><path d="m99.66 51.64-.14-.33" fill="none"/><path d="m67.38 49.56v2.82h-6.5v-2.82c0-1.1.89-2 2-2h2.5c1.1 0 2 .9 2 2z" fill="#373d44"/><path d="m44.52 68.55v.02c0 1.1-.89 2-2 2h-3.1v3.1c0 1.1-.89 2-2 2h-.02c-1.1 0-2-.9-2-2v-3.1h-3.1c-1.1 0-2-.9-2-2v-.02c0-1.11.9-2 2-2h3.1v-3.1c0-1.11.9-2 2-2h.02c1.11 0 2 .89 2 2v3.1h3.1c1.11 0 2 .89 2 2z" fill="#373d44"/><path d="m73.44 72.6v.96c0 .79-.65 1.44-1.44 1.44h-4c-.79 0-1.44-.65-1.44-1.44v-.96c0-.79.65-1.43 1.44-1.43h4c.79 0 1.44.64 1.44 1.43z" fill="#434953"/><path d="m61.44 72.6v.96c0 .79-.65 1.44-1.44 1.44h-4c-.79 0-1.44-.65-1.44-1.44v-.96c0-.79.65-1.43 1.44-1.43h4c.79 0 1.44.64 1.44 1.43z" fill="#434953"/><path d="m99.52 51.3v.01c-5.7-2.94-12.73-2.33-16.37-1.71-1.12.19-2.13.75-2.88 1.57l-4.53-4.53c.77-1.15 7.08-1.85 8.46-1.78 4.51.22 10.26 2.21 12.85 3.63 1.35.74 2.08 1.83 2.47 2.81z" fill="#434953"/><path d="m80.27 51.17c-.26.28-.5.6-.69.94l-1.12 1.99c-.56.97-1.35 1.79-2.31 2.37-1.02.62-2.19.94-3.39.94h-17.52c-1.2 0-2.37-.32-3.39-.94-.96-.58-1.75-1.4-2.31-2.37l-1.12-1.99c-.19-.34-.43-.66-.69-.94l4.53-4.53s2.64 4.74 3.97 4.74h15.54c1.33 0 3.97-4.74 3.97-4.74z" fill="#4c545e"/><path d="m52.26 46.64-4.53 4.53c-.75-.82-1.76-1.38-2.88-1.57-3.64-.62-10.67-1.23-16.37 1.7.39-.98 1.12-2.07 2.47-2.81 2.59-1.42 8.34-3.41 12.85-3.63 1.38-.07 7.69.63 8.46 1.78z" fill="#434953"/><path d="m94.6 62.32c0 1.71-1.39 3.1-3.11 3.1-1.71 0-3.1-1.39-3.1-3.1 0-1.72 1.39-3.11 3.1-3.11 1.72 0 3.11 1.39 3.11 3.11z" fill="#fdcc58"/><path d="m94.6 75.9c0 1.71-1.39 3.1-3.11 3.1-1.71 0-3.1-1.39-3.1-3.1 0-1.72 1.39-3.11 3.1-3.11 1.72 0 3.11 1.39 3.11 3.11z" fill="#5ac0a6"/><path d="m101.5 69.23c0 1.71-1.39 3.1-3.1 3.1-1.72 0-3.11-1.39-3.11-3.1 0-1.72 1.39-3.11 3.11-3.11 1.71 0 3.1 1.39 3.1 3.11z" fill="#db5367"/><path d="m87.97 69.23c0 1.71-1.39 3.1-3.11 3.1-1.71 0-3.1-1.39-3.1-3.1 0-1.72 1.39-3.11 3.1-3.11 1.72 0 3.11 1.39 3.11 3.11z" fill="#6699d1"/></g></svg>