<svg enable-background="new 0 0 128 128" height="512" viewBox="0 0 128 128" width="512" xmlns="http://www.w3.org/2000/svg"><g id="Layer_51"><path d="m104.17 73.11c.37 18.41-4.57 30.42-16.74 33.88-1.23 2.52-3.31 4.05-4.62 3.4l-2.06-1.02c-.81-.41-1.14-1.54-.98-2.97l.02-.32c-.39.34-.78.68-1.18 1-1.68 1.35-4.05 1.64-5.94.61-.91-.5-1.77-1.22-2.29-2.33-.02-.01-.04-.02-.06-.03-1.48-.79-2.83-2.24-2.83-4.83 0-5.73 18.23-42.83 24.91-37.98 0 0 1.37.66 2.6 1.45.55.34.97.83 1.23 1.4l4.43-5.13v-.01l-1.55-8.97-.04.02c-.43.17-.9.19-1.34.05l-1.75-.55c-.08-.02-.16-.05-.24-.09s-.16-.08-.23-.13-.14-.1-.2-.15c-.01 0-.02-.01-.03-.03h-.01c-.31-.28-.53-.65-.63-1.06-3.09-12.47-14.35-21.7-27.79-21.7h-5.09c-13.44 0-24.7 9.23-27.79 21.7-.1.41-.32.78-.63 1.06-.2.18-.44.32-.71.4l-1.75.55c-.44.14-.91.12-1.34-.05l-.04-.02-1.55 8.97v.01l4.43 5.13c.26-.57.68-1.06 1.23-1.4 1.23-.79 2.6-1.45 2.6-1.45 6.68-4.85 24.91 32.25 24.91 37.98 0 2.59-1.35 4.04-2.83 4.83-.02.01-.04.02-.06.03-.52 1.11-1.38 1.83-2.29 2.33-1.9 1.03-4.26.74-5.94-.61-.41-.33-.81-.68-1.21-1.03l.05.35c.16 1.43-.17 2.56-.98 2.97l-2.06 1.02c-1.31.65-3.39-.88-4.62-3.4-12.17-3.46-17.11-15.47-16.74-33.88l-1.11-2.2v-.01l-3.97-7.88v-.01l.42-5.49c.03-.42.32-.77.72-.89l.77-.22 1.07-4.84c-.18.08-.35.12-.53.12-.72 0-1.36-.65-1.22-1.45 3.15-18.23 20.37-32.17 41.17-32.17h5.09c20.8 0 38.02 13.94 41.17 32.17.17.99-.85 1.76-1.75 1.33l1.07 4.84.77.22c.4.12.69.47.72.89l.42 5.5z" fill="#41474f"/><path d="m102.63 49.85-3.56 1.43c-.43.17-.9.19-1.34.05l-1.75-.55c-.67-.21-1.17-.77-1.34-1.46-3.09-12.47-14.35-21.7-27.79-21.7h-5.09c-13.44 0-24.7 9.23-27.79 21.7-.1.41-.32.78-.63 1.06l-4.1-1.95c-.25.84-1.04 1.42-1.94 1.42h-1.32c3.03-17.02 17.89-28.94 35.78-28.94h5.09c17.89 0 32.75 11.92 35.78 28.94z" fill="#383e44"/><path d="m32.38 65.37c-.06.12-.11.24-.15.37-.32.18-.65.37-.98.58-.59.38-1.02.9-1.28 1.52l-.06-.07-6.02-7.69 4.06.16z" fill="#2f3438"/><path d="m29.5 51.26-1.55 8.97v.01l-4.06-.16 2.08-10.23h.01z" fill="#383e44"/><path d="m104.72 60.08-6.02 7.69-.06.07c-.26-.62-.69-1.14-1.28-1.52-.33-.21-.66-.4-.98-.58-.04-.13-.09-.25-.15-.37l4.43-5.13z" fill="#2f3438"/><path d="m100.66 60.24v-.01l-1.55-8.97 3.52-1.41h.01l2.08 10.23z" fill="#383e44"/><path d="m33.34 50.38c-.2.18-.44.32-.71.4l-1.75.55c-.44.14-.91.12-1.34-.05l-.04-.02-3.52-1.41h1.32c.9 0 1.69-.58 1.94-1.42z" fill="#2f3438"/><path d="m95.27 50.38c.2.18.44.32.71.4l1.75.55c.44.14.91.12 1.34-.05l.04-.02 3.52-1.41h-1.32c-.9 0-1.69-.58-1.94-1.42z" fill="#2f3438"/><path d="m61.12 100.5c0 2.59-1.35 4.04-2.83 4.83-.02.01-.04.02-.06.03-1.89.99-4.22.7-5.87-.64-12.49-10.08-18.55-30.6-20.2-37.04-.17-.65-.14-1.33.07-1.94.04-.13.09-.25.15-.37.26-.57.68-1.06 1.23-1.4 1.23-.79 2.6-1.45 2.6-1.45 6.68-4.85 24.91 32.25 24.91 37.98z" fill="#373d44"/><path d="m55.05 96.99c-1.18.68-5.98-5.43-10.72-13.65-4.75-8.22-7.64-15.44-6.47-16.11 1.18-.68 5.98 5.43 10.73 13.65 5.81 10.06 6.46 15.91 6.46 16.11z" fill="#e5e7ea"/><path d="m58.23 105.36c-.52 1.11-1.38 1.83-2.29 2.33-1.9 1.03-4.26.74-5.94-.61-.41-.33-.81-.68-1.21-1.03-11.66-10.39-17.39-29.78-18.99-36.02-.2-.75-.12-1.51.17-2.18v-.01c.26-.62.69-1.14 1.28-1.52.33-.21.66-.4.98-.58-.21.61-.24 1.29-.07 1.94 1.65 6.44 7.71 26.96 20.2 37.04 1.65 1.34 3.98 1.63 5.87.64z" fill="#5ac0a6"/><path d="m96.45 67.68c-1.65 6.44-7.72 26.96-20.2 37.04-1.65 1.34-3.98 1.63-5.87.64-.02-.01-.04-.02-.06-.03-1.48-.79-2.83-2.24-2.83-4.83 0-5.73 18.23-42.83 24.91-37.98 0 0 1.37.66 2.6 1.45.55.34.97.83 1.23 1.4.06.12.11.24.15.37.21.61.24 1.29.07 1.94z" fill="#373d44"/><path d="m84.28 83.34c-4.74 8.22-9.54 14.33-10.72 13.65-1.17-.68 1.72-7.89 6.46-16.11 4.75-8.22 9.55-14.33 10.73-13.65 1.17.67-1.72 7.89-6.47 16.11z" fill="#e5e7ea"/><path d="m98.81 70.03c-1.6 6.24-7.34 25.67-19.02 36.05-.39.34-.78.68-1.18 1-1.68 1.35-4.05 1.64-5.94.61-.91-.5-1.77-1.22-2.29-2.33 1.89.99 4.22.7 5.87-.64 12.48-10.08 18.55-30.6 20.2-37.04.17-.65.14-1.33-.07-1.94.32.18.65.37.98.58.59.38 1.02.9 1.28 1.52v.01c.29.67.36 1.43.17 2.18z" fill="#5ac0a6"/><path d="m47.86 109.37-2.06 1.02c-1.31.65-3.39-.88-4.62-3.4-12.17-3.46-17.11-15.47-16.74-33.88-1.24-2.52-1.2-5.07.11-5.72l2.08-1.02c.91-.45 2.18.15 3.28 1.4l.06.07v.01c-.29.67-.37 1.43-.17 2.18 1.6 6.24 7.33 25.63 18.99 36.02l.05.35c.16 1.43-.17 2.56-.98 2.97z" fill="#434953"/><path d="m104.17 73.11c.37 18.41-4.57 30.42-16.74 33.88-1.23 2.52-3.31 4.05-4.62 3.4l-2.06-1.02c-.81-.41-1.14-1.54-.98-2.97l.02-.32c11.68-10.38 17.42-29.81 19.02-36.05.19-.75.12-1.51-.17-2.18v-.01l.06-.07c1.1-1.25 2.37-1.85 3.28-1.4l2.08 1.02c1.31.65 1.35 3.2.11 5.72z" fill="#434953"/><g fill="#383e44"><path d="m24.55 67.39 2.08-1.02c.81-.4 1.91.04 2.92 1.02.01-.02.01-.04.02-.06l-1.27-1.63c-.75-.46-1.49-.59-2.08-.3l-2.17 1.06c-1.1.55-1.33 2.38-.71 4.44l1.11 2.2c-1.25-2.51-1.21-5.06.1-5.71z"/><path d="m104.06 67.39-2.08-1.02c-.81-.4-1.91.04-2.92 1.02-.01-.02-.01-.04-.02-.06l1.27-1.63c.75-.46 1.49-.59 2.08-.3l2.17 1.06c1.1.55 1.33 2.38.71 4.44l-1.11 2.2c1.25-2.51 1.21-5.06-.1-5.71z"/></g></g></svg>