<svg height="512" viewBox="0 0 128 128" width="512" xmlns="http://www.w3.org/2000/svg"><g><g fill="#ef983b"><path d="m104.93 22.15-16.76 25h-81.86l16.76-25z"/><path d="m121.69 47.15v74.54h-33.52v-74.54l16.76-25z"/><path d="m104.931 22.146v-15.84l-5.9 5.839-5.838-5.839-5.839 5.839-5.838-5.839-5.839 5.839-5.838-5.839-5.839 5.839-5.839-5.839-5.838 5.839-5.839-5.839-5.838 5.839-5.839-5.839-5.838 5.839-5.9-5.839v15.84z"/><path d="m6.306 47.146h81.862v74.547h-81.862z"/></g><rect fill="#ef3829" height="24.076" rx="12.038" width="51.763" x="21.356" y="72.382"/><g fill="#422002"><path d="m123.375 46.688c-.009-.034-.02-.067-.031-.1a1.733 1.733 0 0 0 -.2-.425l-16.46-24.548v-15.308a1.75 1.75 0 0 0 -2.984-1.244l-4.662 4.613-4.608-4.607a1.751 1.751 0 0 0 -2.475 0l-4.6 4.6-4.6-4.6a1.751 1.751 0 0 0 -2.475 0l-4.6 4.6-4.6-4.6a1.75 1.75 0 0 0 -2.474 0l-4.606 4.601-4.6-4.6a1.75 1.75 0 0 0 -2.474 0l-4.6 4.6-4.6-4.6a1.751 1.751 0 0 0 -2.475 0l-4.6 4.6-4.6-4.6a1.751 1.751 0 0 0 -2.475 0l-4.614 4.606-4.662-4.613a1.75 1.75 0 0 0 -2.981 1.244v15.308l-16.46 24.548a1.775 1.775 0 0 0 -.192.391c-.014.037-.024.073-.035.11a1.818 1.818 0 0 0 -.059.316c0 .039-.01.076-.011.115v.051 7.344a1.75 1.75 0 0 0 3.5 0v-5.59h78.356v71.047h-78.361v-57.779a1.75 1.75 0 1 0 -3.5 0v59.525a1.749 1.749 0 0 0 1.75 1.75h115.386a1.749 1.749 0 0 0 1.75-1.75v-15.88a1.75 1.75 0 0 0 -3.5 0v14.13h-13.262v-71.043h13.262v35.52a1.75 1.75 0 0 0 3.5 0v-37.274a1.737 1.737 0 0 0 -.068-.458zm-20.194-1.288h-11.733l11.733-17.5zm-75.443-32.011a1.75 1.75 0 0 0 2.468-.007l4.6-4.6 4.6 4.6a1.751 1.751 0 0 0 2.475 0l4.6-4.6 4.6 4.6a1.751 1.751 0 0 0 2.475 0l4.6-4.6 4.6 4.6a1.75 1.75 0 0 0 2.474 0l4.6-4.6 4.6 4.6a1.751 1.751 0 0 0 2.475 0l4.6-4.6 4.6 4.6a1.751 1.751 0 0 0 2.475 0l4.6-4.6 4.6 4.6a1.752 1.752 0 0 0 2.468.007l2.919-2.889v9.9h-78.348v-9.9zm-3.738 10.511h77.648l-14.413 21.5h-77.648zm79.178 96.047h-13.26v-71.047h13.263zm3.5-92.044 11.732 17.5h-11.729z"/><path d="m121.693 91.328a1.75 1.75 0 0 0 -1.75 1.75v4.5a1.75 1.75 0 0 0 3.5 0v-4.5a1.749 1.749 0 0 0 -1.75-1.75z"/><path d="m16.392 111.641a1.75 1.75 0 0 0 1.75 1.75h20.134a1.75 1.75 0 0 0 0-3.5h-20.134a1.749 1.749 0 0 0 -1.75 1.75z"/><path d="m45.662 109.891a1.75 1.75 0 1 0 0 3.5h4.294a1.75 1.75 0 0 0 0-3.5z"/><path d="m74.869 84.42a13.8 13.8 0 0 0 -13.788-13.788h-27.687a13.788 13.788 0 1 0 0 27.576h27.687a13.8 13.8 0 0 0 13.788-13.788zm-51.764 0a10.3 10.3 0 0 1 10.289-10.288h27.687a10.288 10.288 0 0 1 0 20.576h-27.687a10.3 10.3 0 0 1 -10.289-10.288z"/></g></g></svg>