<svg height="512" viewBox="0 0 128 128" width="512" xmlns="http://www.w3.org/2000/svg"><g><path d="m6.306 6.306h115.387v115.387h-115.387z" fill="#ef983b"/><g fill="#ffde3e"><path d="m18.204 52.103h23.795v23.795h-23.795z"/><path d="m52.103 86.001h23.795v23.795h-23.795z"/><path d="m86.001 86.001h23.795v23.795h-23.795z"/><path d="m18.204 86.001h23.795v23.795h-23.795z"/><path d="m18.204 18.204h23.795v23.795h-23.795z"/><path d="m68.11 41.167a4.221 4.221 0 0 0 -4.222-4.221h-.374a4.221 4.221 0 0 1 -4.221-4.221v-14.525h-7.193v23.8h16.01z"/><path d="m109.788 31.472a4.221 4.221 0 0 1 -4.222 4.221h-2.244a4.221 4.221 0 0 0 -4.222 4.221v2.086h10.7z"/><path d="m73.346 58.135h-1.015a4.221 4.221 0 0 1 -4.221-4.221v-1.814h-16.01v23.8h23.8v-18.627l-.011-.007a4.19 4.19 0 0 1 -2.543.869z"/><path d="m99.1 52.1v22.85a5.636 5.636 0 0 1 -.085.944h10.785v-23.794z"/></g><path d="m59.293 6.306v26.419a4.221 4.221 0 0 0 4.221 4.221h.374a4.221 4.221 0 0 1 4.222 4.221v12.747a4.221 4.221 0 0 0 4.221 4.221h1.015a4.221 4.221 0 0 0 4.221-4.221v-20.679a4.221 4.221 0 0 1 4.222-4.221 4.221 4.221 0 0 1 4.221 4.221v41.719a5.642 5.642 0 0 0 5.642 5.646h1.806a5.642 5.642 0 0 0 5.642-5.646v-35.04a4.221 4.221 0 0 1 4.221-4.221h2.244a4.221 4.221 0 0 0 4.222-4.221v-25.166z" fill="#8c3f07"/><g fill="#422002"><path d="m6.307 96.264a1.751 1.751 0 0 0 1.75-1.75v-4.5a1.75 1.75 0 0 0 -3.5 0v4.5a1.75 1.75 0 0 0 1.75 1.75z"/><path d="m121.693 29.983a1.751 1.751 0 0 0 -1.75 1.75v88.21h-111.886v-17.191a1.75 1.75 0 0 0 -3.5 0v18.941a1.749 1.749 0 0 0 1.75 1.75h115.386a1.749 1.749 0 0 0 1.75-1.75v-89.96a1.75 1.75 0 0 0 -1.75-1.75z"/><path d="m121.693 4.557h-115.386a1.749 1.749 0 0 0 -1.75 1.75v75.052a1.75 1.75 0 0 0 3.5 0v-73.302h49.486v8.4h-5.443a1.749 1.749 0 0 0 -1.75 1.75v23.793a1.749 1.749 0 0 0 1.75 1.75h14.259v6.6h-14.259a1.749 1.749 0 0 0 -1.75 1.75v23.8a1.749 1.749 0 0 0 1.75 1.75h23.8a1.749 1.749 0 0 0 1.75-1.75v-17.855a5.945 5.945 0 0 0 1.67-4.131v-20.68a2.472 2.472 0 0 1 4.943 0v41.719a7.4 7.4 0 0 0 7.392 7.393h1.806a7.4 7.4 0 0 0 6.877-4.7h9.462a1.749 1.749 0 0 0 1.75-1.75v-23.796a1.749 1.749 0 0 0 -1.75-1.75h-8.945v-6.6h8.945a1.749 1.749 0 0 0 1.75-1.75v-11.9c0-.027-.007-.052-.008-.078v-21.965h8.405v16a1.75 1.75 0 1 0 3.5 0v-17.75a1.749 1.749 0 0 0 -1.754-1.75zm-67.84 15.4h3.69v12.768a5.978 5.978 0 0 0 5.972 5.975h.374a2.471 2.471 0 0 1 2.289 1.553h-12.325zm0 54.193v-20.297h12.506v.061a5.979 5.979 0 0 0 5.972 5.971h1.016a6.024 6.024 0 0 0 .8-.06v14.322zm54.193-20.294v20.291h-7.2v-20.294zm-7.2-13.6v-.335a2.474 2.474 0 0 1 2.471-2.472h2.244a5.926 5.926 0 0 0 2.48-.545v3.352zm7.187-8.777a2.473 2.473 0 0 1 -2.472 2.47h-2.244a5.978 5.978 0 0 0 -5.971 5.972v35.032a3.9 3.9 0 0 1 -3.893 3.893h-1.801a3.9 3.9 0 0 1 -3.892-3.893v-41.719a5.972 5.972 0 0 0 -11.943 0v20.68a2.474 2.474 0 0 1 -2.47 2.471h-1.016a2.475 2.475 0 0 1 -2.472-2.471v-12.747a5.977 5.977 0 0 0 -5.97-5.971h-.374a2.473 2.473 0 0 1 -2.472-2.471v-24.668h47z"/><path d="m16.454 75.9a1.749 1.749 0 0 0 1.75 1.75h23.796a1.749 1.749 0 0 0 1.75-1.75v-23.8a1.749 1.749 0 0 0 -1.75-1.747h-23.8a1.749 1.749 0 0 0 -1.75 1.75zm3.5-22.044h20.3v20.291h-20.3z"/><path d="m75.9 111.546a1.749 1.749 0 0 0 1.75-1.75v-23.796a1.749 1.749 0 0 0 -1.75-1.75h-23.8a1.749 1.749 0 0 0 -1.747 1.75v23.8a1.749 1.749 0 0 0 1.75 1.75zm-22.047-23.795h20.294v20.3h-20.294z"/><path d="m109.8 111.546a1.749 1.749 0 0 0 1.75-1.75v-23.796a1.749 1.749 0 0 0 -1.75-1.75h-23.8a1.749 1.749 0 0 0 -1.749 1.75v23.8a1.749 1.749 0 0 0 1.75 1.75zm-22.049-23.795h20.3v20.3h-20.3z"/><path d="m16.454 109.8a1.749 1.749 0 0 0 1.75 1.75h23.796a1.749 1.749 0 0 0 1.75-1.75v-23.8a1.749 1.749 0 0 0 -1.75-1.749h-23.8a1.749 1.749 0 0 0 -1.746 1.749zm3.5-22.045h20.3v20.3h-20.3z"/><path d="m18.2 43.749h23.8a1.749 1.749 0 0 0 1.749-1.749v-23.8a1.749 1.749 0 0 0 -1.749-1.746h-23.8a1.749 1.749 0 0 0 -1.75 1.75v23.796a1.749 1.749 0 0 0 1.75 1.749zm1.75-23.795h20.3v20.3h-20.3z"/></g></g></svg>