<svg height="512" viewBox="0 0 128 128" width="512" xmlns="http://www.w3.org/2000/svg"><g><path d="m14.157 62.348a50.163 50.163 0 0 1 99.686 0z" fill="#f2e7cb"/><path d="m6.306 62.348h115.387v11.303h-115.387z" fill="#8c3f07"/><path d="m111.5 92.754h-28.379a5.493 5.493 0 0 0 5.493-5.493 5.494 5.494 0 0 0 -5.493-5.493h-41.193a13.974 13.974 0 0 0 -12.128 7.042l-18.79 32.884h28.753l10.412-17.954h61.325a5.493 5.493 0 0 0 0-10.986z" fill="#ef983b"/><path d="m64 17.843a50.445 50.445 0 0 1 7.115.5 8.121 8.121 0 1 0 -14.23 0 50.445 50.445 0 0 1 7.115-.5z" fill="#8c3f07"/><g fill="#422002"><path d="m100.582 55.078a1.75 1.75 0 1 0 3.332-1.078 41.97 41.97 0 0 0 -12.084-18.483 1.75 1.75 0 1 0 -2.324 2.617 38.452 38.452 0 0 1 11.076 16.944z"/><path d="m82.724 33.31a1.75 1.75 0 0 0 1.707-3.055 41.743 41.743 0 0 0 -6.168-2.817 1.75 1.75 0 1 0 -1.19 3.291 38.353 38.353 0 0 1 5.651 2.581z"/><path d="m121.693 60.6h-6.322a51.81 51.81 0 0 0 -41.838-43.63 9.871 9.871 0 1 0 -19.065 0 51.515 51.515 0 0 0 -27.211 14.364 1.75 1.75 0 0 0 2.477 2.473 48.409 48.409 0 0 1 82.1 26.792h-95.654a48.287 48.287 0 0 1 8.744-21.176 1.75 1.75 0 0 0 -2.824-2.069 51.816 51.816 0 0 0 -9.456 23.246h-6.337a1.749 1.749 0 0 0 -1.75 1.75v11.3a1.749 1.749 0 0 0 1.75 1.75h115.386a1.749 1.749 0 0 0 1.75-1.75v-11.3a1.749 1.749 0 0 0 -1.75-1.75zm-63.722-44.149a6.371 6.371 0 1 1 12.058 0 50.8 50.8 0 0 0 -12.058 0zm61.972 55.449h-111.886v-7.8h111.886z"/><path d="m94.1 101.989h-4.5a1.75 1.75 0 1 0 0 3.5h4.5a1.75 1.75 0 1 0 0-3.5z"/><path d="m111.5 91h-22.181a7.24 7.24 0 0 0 -6.2-10.985h-41.191a15.757 15.757 0 0 0 -13.652 7.922l-18.786 32.888a1.75 1.75 0 0 0 1.52 2.618h28.753a1.747 1.747 0 0 0 1.513-.872l9.907-17.082h30.184a1.75 1.75 0 0 0 0-3.5h-31.192a1.75 1.75 0 0 0 -1.514.872l-9.906 17.082h-24.73l17.29-30.265a12.249 12.249 0 0 1 10.613-6.159h41.193a3.743 3.743 0 0 1 0 7.485h-22.971a1.75 1.75 0 1 0 0 3.5h51.35a3.743 3.743 0 1 1 0 7.485h-8.736a1.75 1.75 0 0 0 0 3.5h8.736a7.243 7.243 0 1 0 0-14.489z"/></g></g></svg>